<svg width="234" height="134" viewBox="0 0 234 134" fill="none" xmlns="http://www.w3.org/2000/svg">
<g id="Congrats">
<path id="Vector" d="M160.853 114.609C160.853 116.239 159.52 117.573 157.889 117.573C156.259 117.573 154.926 116.239 154.926 114.609C154.926 112.979 156.259 111.645 157.889 111.645C159.52 111.645 160.853 112.979 160.853 114.609ZM129.593 112.979C127.963 112.979 126.629 114.312 126.629 115.942C126.629 117.573 127.963 118.906 129.593 118.906C131.223 118.906 132.557 117.573 132.557 115.942C132.405 114.166 131.223 112.979 129.593 112.979ZM93.1503 80.5361C91.52 80.5361 90.1867 81.8695 90.1867 83.4997C90.1867 85.13 91.52 86.4633 93.1503 86.4633C94.7805 86.4633 96.1139 85.13 96.1139 83.4997C96.1139 81.8695 94.7805 80.5361 93.1503 80.5361ZM172.26 88.8331C170.629 88.8331 169.296 90.1664 169.296 91.7967C169.296 93.4269 170.629 94.7603 172.26 94.7603C173.89 94.7603 175.223 93.4269 175.223 91.7967C175.223 90.1664 173.89 88.8331 172.26 88.8331ZM121.89 53.2757C121.89 54.906 123.224 56.2393 124.854 56.2393C126.484 56.2393 127.817 54.906 127.817 53.2757C127.817 51.6455 126.484 50.3121 124.854 50.3121C123.224 50.3121 121.89 51.6455 121.89 53.2757ZM150.188 31.6451C151.818 31.6451 153.151 30.3117 153.151 28.6815C153.151 27.0512 151.818 25.7179 150.188 25.7179C148.557 25.7179 147.224 27.0512 147.224 28.6815C147.224 30.3117 148.557 31.6451 150.188 31.6451ZM163.818 58.6091C162.188 58.6091 160.855 59.9424 160.855 61.5727C160.855 63.2029 162.188 64.5363 163.818 64.5363C165.449 64.5363 166.782 63.2029 166.782 61.5727C166.782 59.9424 165.297 58.6091 163.818 58.6091ZM96.1156 49.1299C97.7459 49.1299 99.0792 47.7965 99.0792 46.1663C99.0792 44.536 97.7459 43.2027 96.1156 43.2027C94.4853 43.2027 93.152 44.536 93.152 46.1663C93.152 47.7965 94.4853 49.1299 96.1156 49.1299ZM101.892 13.4272C103.522 13.4272 104.855 12.0939 104.855 10.4636C104.855 8.83333 103.522 7.5 101.892 7.5C100.261 7.5 98.928 8.83333 98.928 10.4636C98.928 12.0939 100.261 13.4272 101.892 13.4272ZM80.2609 66.7605C80.2609 68.3908 81.5943 69.7241 83.2245 69.7241C84.8548 69.7241 86.1881 68.3908 86.1881 66.7605C86.1881 65.1303 84.8548 63.7969 83.2245 63.7969C81.5943 63.7969 80.2609 65.1303 80.2609 66.7605ZM80.2609 29.7192C81.8912 29.7192 83.2245 28.3859 83.2245 26.7556C83.2245 25.1253 81.8912 23.792 80.2609 23.792C78.6307 23.792 77.2973 25.1253 77.2973 26.7556C77.2973 28.3859 78.6307 29.7192 80.2609 29.7192ZM59.9636 91.2032C58.3333 91.2032 57 92.5365 57 94.1668C57 95.7971 58.3333 97.1304 59.9636 97.1304C61.5939 97.1304 62.9272 95.7971 62.9272 94.1668C62.7814 92.5365 61.448 91.2032 59.9636 91.2032ZM165.739 75.501C165.442 76.2406 164.552 76.5374 163.812 76.2406C151.515 71.2042 139.515 74.6103 132.552 77.7198C133.885 79.35 134.922 80.9802 135.958 82.6104C140.104 81.1312 143.365 82.3136 144.995 83.0532C145.885 83.4959 146.625 83.9438 147.365 84.5323C150.328 83.3449 154.625 82.6053 159.807 82.7563C160.547 82.7563 161.286 83.3501 161.286 84.2355C161.286 84.9751 160.693 85.7148 159.807 85.7148H159.364C154.625 85.7148 151.51 86.3085 149.437 86.9022C150.917 88.8293 151.661 91.0481 151.213 92.8293C150.771 94.4596 149.583 95.496 147.656 95.496C145.583 95.496 143.802 94.4595 142.765 92.8293C141.875 91.3501 141.875 89.5689 142.765 88.0897C143.208 87.3501 143.656 86.7564 144.396 86.1626C144.099 86.0168 143.802 85.8658 143.505 85.7199C141.432 84.6835 139.359 84.5324 137.135 85.1262C140.396 91.0533 141.578 96.0898 139.062 98.7569C138.766 99.0537 138.323 99.3506 137.875 99.6475L137.729 99.7933C137.286 99.9391 89.2864 120.236 76.9891 125.72C76.2495 126.017 75.5099 126.163 74.7651 126.163C71.9525 126.163 69.7287 123.939 69.7287 121.126C69.7287 120.533 69.8745 119.793 70.1714 119.199L92.9834 55.7926C92.9834 55.7926 92.9834 55.6467 93.1292 55.6467C93.4261 54.9071 93.723 54.3134 94.1657 53.8707C96.8323 51.0582 102.463 52.6832 108.832 56.3915C108.686 50.7613 107.796 44.8342 104.978 40.3915C102.754 36.8342 99.499 34.4645 95.3479 33.579C94.6083 33.4331 94.0146 32.6884 94.3115 31.9487C94.4573 31.2091 95.2021 30.6154 95.9417 30.9123C100.978 31.9487 104.832 34.6153 107.499 38.9123C110.905 44.3915 111.942 51.8029 111.796 58.3189C115.942 61.1315 120.39 64.8397 124.239 68.6887C126.312 70.7616 128.385 73.1313 130.312 75.3553C137.572 71.9491 150.754 67.798 164.536 73.5793C165.739 74.0168 166.036 74.7614 165.739 75.501ZM145.594 91.501C146.037 92.2406 146.927 92.6885 147.964 92.6885C148.557 92.6885 148.703 92.5427 148.703 92.2458C148.849 91.5062 148.26 89.725 146.927 88.2458C146.037 88.8395 145.74 89.2822 145.594 89.5791C145.297 90.4645 145.448 91.0531 145.594 91.501ZM131.667 99.501C130.334 99.0583 128.704 98.3135 127.073 97.4281C121.594 94.6155 115.516 89.725 109.595 83.9494C103.819 78.1734 98.9281 71.9494 96.1161 66.4707C95.3765 64.9915 94.7828 63.6582 94.1891 62.3249L73.2984 120.388V120.533C73.2984 120.679 73.1526 120.976 73.1526 121.127C73.1526 122.315 74.0432 123.2 75.2255 123.2C75.5224 123.2 75.6682 123.2 75.9651 123.054L76.262 122.908H76.4078C86.4859 118.611 118.631 104.981 131.667 99.501ZM130.037 79.053C127.964 80.2405 126.631 81.1311 126.631 81.1311C126.334 81.277 126.037 81.428 125.74 81.428C125.297 81.428 124.849 81.2822 124.553 80.8343C124.11 80.2405 124.256 79.3551 124.849 78.9072C124.995 78.7613 126.183 78.0166 128.11 76.9801C126.48 75.0531 124.704 72.9801 122.631 71.0531C118.928 67.35 115.37 64.3864 112.11 62.0167C111.667 68.6833 110.48 74.0167 110.334 74.4593C110.188 75.0531 109.594 75.4958 109 75.4958H108.704C107.964 75.3499 107.516 74.6052 107.667 73.7198C107.667 73.5739 109.146 67.4958 109.443 60.0891C104.704 57.1255 101 55.6464 98.6306 55.6464C97.74 55.6464 97.1514 55.7923 96.7036 56.2402C95.8129 57.1308 95.8129 60.0943 98.6306 65.4277C101.443 70.6151 106.037 76.537 111.667 82.1677C117.297 87.7979 123.224 92.3917 128.407 95.2041C133.74 98.0166 136.704 98.0166 137.594 97.1311C138.928 95.7978 138.037 91.9437 135.074 86.7614C133.298 87.7979 131.516 89.2822 129.74 91.3551C129.298 91.9489 128.261 92.0947 127.667 91.5009C127.074 91.0582 126.928 90.0218 127.522 89.428C129.595 86.9072 131.667 85.2822 133.449 84.2406C132.558 82.4646 131.37 80.8342 130.037 79.053ZM173.595 40.6837C169.449 51.6473 163.964 52.8295 161.001 52.5378C160.704 52.5378 160.558 52.5378 160.261 52.3919C158.037 54.1679 154.782 55.9493 149.741 57.7253C149.595 57.7253 149.444 57.8711 149.298 57.8711C148.704 57.8711 148.11 57.4284 147.965 56.8347C147.668 56.0951 148.11 55.2044 148.855 55.0587C152.558 53.8712 155.225 52.5379 157.152 51.2045C155.673 50.017 154.631 48.392 154.34 46.9076C153.897 44.8347 154.933 42.9076 156.86 42.0169C158.787 40.9805 161.006 41.1263 162.491 42.1628C163.824 43.1992 164.564 44.8294 164.267 46.6054C164.121 47.345 163.824 48.3814 163.079 49.569C166.043 48.6784 168.855 45.2721 170.933 39.642C171.23 38.9024 172.121 38.6055 172.709 38.7513C173.595 39.0534 173.892 39.9441 173.595 40.6837ZM160.855 44.3867C160.558 44.0898 160.115 44.0898 159.668 44.0898C159.225 44.0898 158.631 44.2357 158.188 44.5325C157.449 44.9753 157.152 45.569 157.298 46.3085C157.444 47.345 158.334 48.5326 159.667 49.1211C160.855 47.9336 161.298 46.8971 161.443 46.0117C161.595 45.4284 161.449 44.8347 160.855 44.3867Z" fill="#343434"/>
<circle id="Ellipse 33" cx="55.166" cy="33" r="2.5" fill="#47E3E3"/>
<circle id="Ellipse 34" cx="26.5" cy="60" r="2.5" fill="#343434"/>
<circle id="Ellipse 35" cx="23.5" cy="17" r="2.5" fill="#343434"/>
<circle id="Ellipse 36" cx="221.5" cy="42" r="2.5" fill="#47E3E3"/>
<circle id="Ellipse 37" cx="202.5" cy="102" r="2.5" fill="#343434"/>
<circle id="Ellipse 38" cx="197.5" cy="10" r="2.5" fill="#343434"/>
<path id="Vector 2" d="M120.768 33.2603C123.139 29.6758 126.428 23.2622 123.942 20.9659C116.268 13.8764 112.121 24.2459 115.766 26.3074C119.411 28.369 127.135 21.3971 127.997 15.0119C128.495 11.3228 126.225 8.62596 125.961 7.67486" stroke="#47E3E3" stroke-width="3" stroke-linecap="round"/>
<circle id="Ellipse 41" cx="128.5" cy="42" r="2.5" fill="#47E3E3"/>
<circle id="Ellipse 42" cx="141.5" cy="62" r="2.5" fill="#47E3E3"/>
<circle id="Ellipse 43" cx="65.5" cy="57" r="2.5" fill="#47E3E3"/>
<circle id="Ellipse 40" cx="192.5" cy="42" r="2.5" fill="#47E3E3"/>
<circle id="Ellipse 44" cx="187.5" cy="73" r="2.5" fill="#47E3E3"/>
<circle id="Ellipse 45" cx="148.5" cy="8" r="2.5" fill="#47E3E3"/>
<circle id="Ellipse 39" cx="26.5" cy="120" r="2.5" fill="#47E3E3"/>
<path id="Vector 1" d="M143 20C143.167 25.5 142.7 38.4 139.5 46C136.3 53.6 134.167 56.5 133.5 57" stroke="#47E3E3" stroke-width="3" stroke-linecap="round"/>
</g>
</svg>
