<svg width="436" height="166" viewBox="0 0 436 166" fill="none" xmlns="http://www.w3.org/2000/svg">
<path d="M195.357 111.416C177.596 151.059 130.717 168.088 93.9858 165.184C83.9571 164.391 63.7791 162.796 48.0229 148.567C17.7647 121.241 22.4259 64.1209 51.3901 30.4908C55.1215 26.1598 79.8538 0.115969 120.089 0.504298C143.973 0.736107 168.903 7.87859 185.132 26.6749C204.91 49.5804 207.583 84.1239 195.357 111.416Z" fill="url(#paint0_linear_1026_8027)"/>
<path d="M8.4036 112.424C8.4036 113.475 9.26545 114.335 10.3188 114.335H113.908C114.961 114.335 115.823 113.475 115.823 112.424L116.685 52.9852C116.685 51.9343 115.444 49.8829 113.172 50.0373L11.9344 47.4215C10.6129 47.3874 9.33385 47.8958 8.39812 48.8265C7.4624 49.7585 6.94939 51.0323 6.98086 52.3511L8.4036 112.424Z" fill="#343434"/>
<path d="M10.2939 110.591C10.2939 111.586 11.1093 112.401 12.1065 112.401H111.408C112.405 112.401 113.221 111.586 113.221 110.591L114.033 56.6327C113.938 53.3855 111.087 52.2184 109.359 52.2867L12.3323 49.6887C11.4034 49.6641 10.5046 50.0208 9.84795 50.6754C9.18993 51.3301 8.82741 52.228 8.85066 53.1546L10.2939 110.591Z" fill="#D3ABFF"/>
<path d="M0.377573 119.269H121.749C121.956 119.269 122.126 119.099 122.126 118.893V114.424C122.126 114.216 121.956 114.047 121.749 114.047H0.377573C0.169634 114.047 0 114.216 0 114.424V118.893C0 119.099 0.169634 119.269 0.377573 119.269Z" fill="#343434"/>
<mask id="mask0_1026_8027" style="mask-type:luminance" maskUnits="userSpaceOnUse" x="29" y="100" width="28" height="30">
<path d="M29.9648 100.9H56.2308V129.286H29.9648V100.9Z" fill="white"/>
</mask>
<g mask="url(#mask0_1026_8027)">
<mask id="mask1_1026_8027" style="mask-type:luminance" maskUnits="userSpaceOnUse" x="30" y="100" width="27" height="30">
<path d="M55.51 127.983C55.484 127.974 41.6137 103.72 39.7395 101.437C39.4235 101.055 38.9351 100.858 38.4412 100.916L34.5698 101.378L30.0225 111.202L37.5985 106.796C36.8489 111.974 46.5837 119.668 49.9216 122.476C50.2609 122.76 50.2883 123.271 49.9818 123.591L48.6494 124.983C50.8382 127.199 53.3622 128.62 56.2132 129.277L55.51 127.983Z" fill="white"/>
</mask>
<g mask="url(#mask1_1026_8027)">
<mask id="mask2_1026_8027" style="mask-type:luminance" maskUnits="userSpaceOnUse" x="30" y="100" width="27" height="30">
<path d="M55.51 127.983C55.484 127.974 41.6137 103.72 39.7395 101.437C39.4235 101.055 38.9351 100.858 38.4412 100.916L34.5698 101.378L30.0225 111.202L37.5985 106.796C36.8489 111.974 46.5837 119.668 49.9216 122.476C50.2609 122.76 50.2883 123.271 49.9818 123.591L48.6494 124.983C50.8382 127.199 53.3622 128.62 56.2132 129.278L55.51 127.983Z" fill="white"/>
</mask>
<g mask="url(#mask2_1026_8027)">
<mask id="mask3_1026_8027" style="mask-type:luminance" maskUnits="userSpaceOnUse" x="19" y="91" width="48" height="49">
<path d="M34.4654 139.095L66.8956 124.457L51.7681 91.043L19.3379 105.681L34.4654 139.095Z" fill="white"/>
</mask>
<g mask="url(#mask3_1026_8027)">
<path d="M34.465 139.095L66.8802 124.463L51.7677 91.084L19.3525 105.715L34.465 139.095Z" fill="#ECC090"/>
</g>
</g>
</g>
</g>
<path d="M49.4211 124.232C49.4211 124.232 48.5702 124.506 48.2815 125.262C48.1447 125.625 48.2925 126.034 48.6085 126.259C50.0094 127.262 54.6291 130.496 56.7605 131.13C56.9356 131.182 57.1012 131.023 57.0628 130.846C56.9534 130.351 56.5991 129.364 55.4595 127.918L55.5608 128.125C55.6907 128.386 55.4062 128.659 55.1517 128.516C53.7263 127.712 50.8206 125.952 49.4211 124.232Z" fill="#48494B"/>
<mask id="mask4_1026_8027" style="mask-type:luminance" maskUnits="userSpaceOnUse" x="28" y="103" width="23" height="33">
<path d="M28.4951 103.633H50.5845V135.35H28.4951V103.633Z" fill="white"/>
</mask>
<g mask="url(#mask4_1026_8027)">
<mask id="mask5_1026_8027" style="mask-type:luminance" maskUnits="userSpaceOnUse" x="28" y="103" width="23" height="33">
<path d="M50.1055 133.937C50.0822 133.922 48.0014 128.916 47.9782 128.901C46.0712 117.302 41.4144 107.368 40.0423 104.753C39.8111 104.313 39.3734 104.023 38.8768 103.981L34.993 103.65L28.5469 112.352L36.8603 109.568C35.0764 114.488 43.0506 123.99 45.7497 127.414C46.0247 127.761 45.9481 128.267 45.5828 128.518L43.9959 129.613C45.6909 132.223 47.8742 134.127 50.5323 135.347L50.1055 133.937Z" fill="white"/>
</mask>
<g mask="url(#mask5_1026_8027)">
<mask id="mask6_1026_8027" style="mask-type:luminance" maskUnits="userSpaceOnUse" x="28" y="103" width="23" height="33">
<path d="M50.1055 133.937C50.0822 133.922 48.0014 128.916 47.9782 128.901C46.0712 117.302 41.4144 107.368 40.0423 104.753C39.8111 104.313 39.3734 104.023 38.8768 103.981L34.993 103.65L28.5469 112.352L36.8603 109.568C35.0764 114.488 43.0506 123.99 45.7497 127.414C46.0247 127.761 45.9481 128.267 45.5828 128.518L43.9959 129.613C45.6909 132.223 47.8742 134.127 50.5323 135.347L50.1055 133.937Z" fill="white"/>
</mask>
<g mask="url(#mask6_1026_8027)">
<mask id="mask7_1026_8027" style="mask-type:luminance" maskUnits="userSpaceOnUse" x="24" y="100" width="31" height="39">
<path d="M50.2001 138.026L54.4067 104.13L28.8795 100.971L24.6729 134.868L50.2001 138.026Z" fill="white"/>
</mask>
<g mask="url(#mask7_1026_8027)">
<path d="M50.2001 138.026L54.4067 104.13L28.8795 100.971L24.6729 134.868L50.2001 138.026Z" fill="#FBCB98"/>
</g>
</g>
</g>
</g>
<mask id="mask8_1026_8027" style="mask-type:luminance" maskUnits="userSpaceOnUse" x="43" y="128" width="9" height="10">
<path d="M43.2734 128.865H51.3283V137.36H43.2734V128.865Z" fill="white"/>
</mask>
<g mask="url(#mask8_1026_8027)">
<path d="M44.9041 129.031C44.9041 129.031 44.0162 129.128 43.5812 129.812C43.3719 130.138 43.4348 130.569 43.6975 130.853C44.8672 132.119 48.7359 136.22 50.6949 137.271C50.855 137.357 51.0506 137.235 51.0479 137.054C51.041 136.548 50.8946 135.508 50.0711 133.862L50.1299 134.085C50.2024 134.368 49.8686 134.577 49.6484 134.384C48.4144 133.31 45.9274 131.001 44.9041 129.031Z" fill="#48494B"/>
</g>
<path d="M16.8082 101.816C16.8082 101.816 13.2938 107.035 13.0052 109.416C12.7179 111.797 13.9778 112.62 17.655 112.924C28.6019 113.828 33.9974 110.552 33.9974 110.552C34.7471 105.785 35.2792 104.571 41.5338 101.98C41.5338 101.98 33.6239 102.607 32.0315 101.99C30.4392 101.373 16.8082 101.816 16.8082 101.816Z" fill="#122D83"/>
<path d="M30.8223 72.5758C30.8223 72.5758 28.3749 69.6839 25.7729 73.2318C25.301 73.8755 23.4911 73.3438 22.8276 74.6886C22.4842 75.3843 21.7441 75.7792 20.9821 75.6385C19.0833 75.2886 15.9793 75.2585 14.4471 78.2297C13.2775 80.4969 14.1804 81.8253 15.35 82.5825C16.2091 83.1373 16.5156 84.2662 15.9957 85.1463C15.4978 85.9909 15.4034 87.1348 16.6907 88.5111C19.5717 91.5956 25.2777 86.5526 25.2777 86.5526L29.8072 75.8653L30.8223 72.5758Z" fill="#111111"/>
<path d="M26.3136 101.125C26.3136 101.125 30.4053 97.2351 32.4204 94.6575C33.5094 93.2636 33.8514 91.4295 33.3466 89.7362C32.4273 86.6421 30.7925 83.4386 30.6434 82.9384C30.4149 82.1744 25.8266 82.2072 25.8266 82.2072C25.8266 82.2072 16.7963 88.0579 13.249 97.969L17.2341 99.2085C17.2341 99.2085 19.5912 95.2589 21.9209 92.7483C21.9209 92.7483 17.8893 98.0646 17.7484 100.242L26.3136 101.125Z" fill="#1CCD66"/>
<mask id="mask9_1026_8027" style="mask-type:luminance" maskUnits="userSpaceOnUse" x="12" y="97" width="23" height="7">
<path d="M12.2793 97.9668H34.1676V103.032H12.2793V97.9668Z" fill="white"/>
</mask>
<g mask="url(#mask9_1026_8027)">
<mask id="mask10_1026_8027" style="mask-type:luminance" maskUnits="userSpaceOnUse" x="12" y="97" width="23" height="6">
<path d="M34.1102 102.661L31.0349 99.3204L27.4835 100.274C27.4835 100.274 23.3439 100.915 20.9745 100.274C18.6051 99.6347 18.6051 99.6347 18.6051 99.6347L13.2493 97.9688L12.4079 100.343C12.1945 100.945 12.4093 101.614 12.9305 101.984C13.3943 102.313 13.9374 102.674 14.2835 102.826C14.9894 103.133 30.5287 102.923 30.5287 102.923L34.1102 102.661Z" fill="white"/>
</mask>
<g mask="url(#mask10_1026_8027)">
<mask id="mask11_1026_8027" style="mask-type:luminance" maskUnits="userSpaceOnUse" x="12" y="97" width="23" height="6">
<path d="M34.1102 102.661L31.0349 99.3204L27.4835 100.274C27.4835 100.274 23.3439 100.915 20.9745 100.274C18.6051 99.6347 18.6051 99.6347 18.6051 99.6347L13.2493 97.9688L12.4079 100.343C12.1945 100.945 12.4093 101.614 12.9305 101.984C13.3943 102.313 13.9374 102.674 14.2835 102.826C14.9894 103.133 30.5287 102.923 30.5287 102.923L34.1102 102.661Z" fill="white"/>
</mask>
<g mask="url(#mask11_1026_8027)">
<path d="M11.7197 98.0117L12.3805 105.142L34.5848 103.089L33.924 95.959L11.7197 98.0117Z" fill="#FBCB98"/>
</g>
</g>
</g>
<mask id="mask12_1026_8027" style="mask-type:luminance" maskUnits="userSpaceOnUse" x="25" y="76" width="7" height="8">
<path d="M25.8936 76.2441H31.6994V83.5066H25.8936V76.2441Z" fill="white"/>
</mask>
<g mask="url(#mask12_1026_8027)">
<mask id="mask13_1026_8027" style="mask-type:luminance" maskUnits="userSpaceOnUse" x="25" y="76" width="7" height="8">
<path d="M28.98 76.6969L25.8965 82.4232C26.1003 83.6737 29.2536 83.7093 29.7406 82.9631C29.7899 82.8865 29.8186 82.7991 29.8364 82.7102L31.6818 78.8849C31.7612 78.5105 30.7365 77.2531 30.4 77.0741L29.1743 76.4222C28.7023 76.1721 30.6709 76.153 28.98 76.6969Z" fill="white"/>
</mask>
<g mask="url(#mask13_1026_8027)">
<mask id="mask14_1026_8027" style="mask-type:luminance" maskUnits="userSpaceOnUse" x="25" y="76" width="7" height="8">
<path d="M28.98 76.6969L25.8965 82.4232C26.1003 83.6737 29.2536 83.7093 29.7406 82.9631C29.7899 82.8865 29.8186 82.7991 29.8364 82.7102L31.6818 78.8849C31.7612 78.5105 30.7365 77.2531 30.4 77.0741L29.1743 76.4222C28.7023 76.1721 30.6709 76.153 28.98 76.6969Z" fill="white"/>
</mask>
<g mask="url(#mask14_1026_8027)">
<mask id="mask15_1026_8027" style="mask-type:luminance" maskUnits="userSpaceOnUse" x="22" y="73" width="14" height="14">
<path d="M22.4717 81.5372L30.0751 86.3629L35.1874 78.3282L27.584 73.5039L22.4717 81.5372Z" fill="white"/>
</mask>
<g mask="url(#mask15_1026_8027)">
<path d="M22.6045 81.4185L30.0315 86.1308L34.9933 78.3353L27.5663 73.623L22.6045 81.4185Z" fill="#ECC090"/>
</g>
</g>
</g>
</g>
<mask id="mask16_1026_8027" style="mask-type:luminance" maskUnits="userSpaceOnUse" x="28" y="73" width="8" height="9">
<path d="M28.8291 73.9375H35.3026V81.8423H28.8291V73.9375Z" fill="white"/>
</mask>
<g mask="url(#mask16_1026_8027)">
<mask id="mask17_1026_8027" style="mask-type:luminance" maskUnits="userSpaceOnUse" x="28" y="73" width="8" height="9">
<path d="M35.2222 75.3552C35.2222 75.3552 35.571 77.2904 34.0471 79.749C32.5244 82.209 31.0073 82.0983 30.2371 81.2223C29.4669 80.3435 28.5435 78.8826 28.9635 76.4294C29.3835 73.9762 34.6955 72.8884 35.2222 75.3552Z" fill="white"/>
</mask>
<g mask="url(#mask17_1026_8027)">
<mask id="mask18_1026_8027" style="mask-type:luminance" maskUnits="userSpaceOnUse" x="28" y="73" width="8" height="9">
<path d="M35.2222 75.3552C35.2222 75.3552 35.571 77.2904 34.047 79.749C32.5244 82.209 31.0073 82.0983 30.2371 81.2223C29.4669 80.3435 28.5435 78.8826 28.9635 76.4294C29.3835 73.9762 34.6955 72.8884 35.2222 75.3552Z" fill="white"/>
</mask>
<g mask="url(#mask18_1026_8027)">
<path d="M28.5833 82.7327L36.266 82.1574L35.5314 72.3652L27.8486 72.9406L28.5833 82.7327Z" fill="#FBCB98"/>
</g>
</g>
</g>
<path d="M30.8074 76.6947C30.8074 76.6947 33.274 73.4612 35.1673 76.2806L35.1345 77.2537C35.1345 77.2537 37.5969 77.1402 37.3301 74.8743C37.0634 72.6084 35.0524 71.0599 32.2657 71.8348C29.4805 72.6084 27.8525 73.4899 27.5379 75.4223C27.2219 77.3534 28.8019 77.0377 28.8019 77.0377C28.8019 77.0377 29.4052 75.7052 30.1344 75.6137C30.8622 75.5235 30.5995 76.5772 30.5995 76.5772L30.8074 76.6947Z" fill="#111111"/>
<mask id="mask19_1026_8027" style="mask-type:luminance" maskUnits="userSpaceOnUse" x="29" y="74" width="2" height="3">
<path d="M29.2646 74.5137H30.8981V76.9791H29.2646V74.5137Z" fill="white"/>
</mask>
<g mask="url(#mask19_1026_8027)">
<mask id="mask20_1026_8027" style="mask-type:luminance" maskUnits="userSpaceOnUse" x="29" y="74" width="2" height="3">
<path d="M30.2418 76.6082C30.2418 76.6082 31.5195 74.9532 30.3567 74.6102C29.1939 74.2671 29.2377 76.231 29.3129 76.9622L30.2418 76.6082Z" fill="white"/>
</mask>
<g mask="url(#mask20_1026_8027)">
<mask id="mask21_1026_8027" style="mask-type:luminance" maskUnits="userSpaceOnUse" x="29" y="74" width="2" height="3">
<path d="M30.2418 76.6082C30.2418 76.6082 31.5195 74.9532 30.3567 74.6102C29.1939 74.2671 29.2377 76.231 29.3129 76.9622L30.2418 76.6082Z" fill="white"/>
</mask>
<g mask="url(#mask21_1026_8027)">
<path d="M29.207 77.1359L31.72 76.9473L31.5066 74.0938L28.9922 74.2823L29.207 77.1359Z" fill="#FBCB98"/>
</g>
</g>
</g>
<path d="M23.932 103.982C23.9429 103.982 23.9539 103.984 23.9648 103.984L38.1088 103.969C38.4576 103.967 38.7408 103.684 38.7408 103.336C38.7408 102.986 38.4549 102.698 38.1074 102.703L23.9621 102.72C23.6133 102.72 23.3301 103.003 23.3301 103.352C23.3314 103.69 23.5968 103.966 23.932 103.982Z" fill="#343434"/>
<path d="M50.8232 91.1621H39.0446C38.1745 91.1621 37.3838 91.6637 37.0131 92.4481L31.5684 103.977H46.2061C46.7657 103.977 47.2691 103.636 47.4757 103.115L51.6987 92.4468C51.9422 91.8304 51.4867 91.1621 50.8232 91.1621Z" fill="#343434"/>
<path d="M42.5243 97.0735C42.2685 97.8648 42.4572 98.6342 42.9456 98.7914C43.4326 98.9472 44.0359 98.4333 44.2904 97.6406C44.5462 96.8493 44.3574 96.0799 43.869 95.9227C43.382 95.7656 42.7787 96.2808 42.5243 97.0735Z" fill="#8A8E8B"/>
<path d="M240.359 70.8123C240.108 70.4341 240.176 69.9167 240.531 69.6154C240.913 69.2969 241.478 69.3481 241.797 69.7291C242.446 70.5137 243.073 71.3382 243.658 72.1769L243.669 72.194C243.937 72.6005 243.838 73.1549 243.437 73.4364C243.028 73.7235 242.469 73.6212 242.186 73.2146C241.633 72.4157 241.037 71.6339 240.418 70.889C240.396 70.8634 240.379 70.8379 240.359 70.8123ZM245.925 80.1089C245.891 80.0577 245.863 80.0065 245.841 79.9497C245.474 79.0484 245.064 78.1529 244.623 77.2886C244.398 76.8451 244.573 76.2993 245.013 76.0718C245.454 75.8444 245.999 76.0178 246.222 76.4642C246.685 77.3768 247.117 78.3178 247.501 79.2617C247.688 79.7251 247.47 80.251 247.013 80.4415C246.609 80.6064 246.157 80.4586 245.925 80.1089ZM234.705 65.3793C234.496 65.0666 234.499 64.6458 234.737 64.3302C235.036 63.9322 235.598 63.8554 235.993 64.1568C236.804 64.7737 237.597 65.4361 238.351 66.1213C238.716 66.4596 238.747 67.0282 238.413 67.3978C238.08 67.7674 237.513 67.7987 237.145 67.4632C236.431 66.8122 235.677 66.1839 234.909 65.5953C234.827 65.5328 234.759 65.4589 234.705 65.3793ZM248.055 87.6827C247.987 87.5775 247.939 87.4581 247.916 87.3273C247.761 86.3692 247.56 85.4054 247.32 84.4615C247.199 83.9782 247.49 83.4864 247.97 83.3613C248.45 83.2419 248.941 83.5319 249.063 84.0152C249.314 85.0102 249.523 86.0252 249.69 87.0345C249.769 87.5263 249.438 87.9897 248.947 88.0721C248.591 88.1318 248.247 87.967 248.055 87.6827ZM227.987 61.3536C227.82 61.1034 227.781 60.7736 227.914 60.4779C228.12 60.0231 228.651 59.824 229.103 60.0287C230.029 60.4524 230.947 60.9158 231.836 61.419C232.268 61.6606 232.424 62.2122 232.181 62.6472C231.938 63.0821 231.393 63.2385 230.958 62.994C230.116 62.5192 229.244 62.0757 228.363 61.6748C228.204 61.6038 228.077 61.4901 227.987 61.3536ZM220.546 58.9285C220.416 58.7323 220.362 58.4907 220.413 58.2433C220.512 57.7543 220.986 57.4416 221.472 57.5411C222.466 57.7458 223.466 57.996 224.44 58.286C224.917 58.4253 225.188 58.9285 225.05 59.409C224.909 59.8866 224.409 60.1595 223.935 60.0202C223.005 59.7444 222.057 59.5056 221.11 59.3095C220.87 59.2611 220.673 59.119 220.546 58.9285ZM212.751 58.2178C212.661 58.0784 212.607 57.9135 212.602 57.7344C212.59 57.2369 212.986 56.8218 213.48 56.8133C214.497 56.7906 215.527 56.8133 216.541 56.8759C217.035 56.91 217.414 57.3364 217.38 57.8368C217.349 58.3343 216.922 58.7124 216.428 58.6812C215.462 58.6186 214.485 58.5987 213.517 58.6186C213.2 58.6271 212.918 58.4651 212.751 58.2178ZM204.999 59.2725C204.943 59.1872 204.9 59.0934 204.875 58.991C204.754 58.5077 205.045 58.0159 205.527 57.8936C206.51 57.6435 207.521 57.4331 208.524 57.2682C209.015 57.1886 209.475 57.5241 209.555 58.0159C209.634 58.5077 209.303 58.9711 208.815 59.0536C207.86 59.21 206.903 59.409 205.965 59.6449C205.587 59.7416 205.205 59.5796 204.999 59.2725ZM197.679 62.0444C197.66 62.016 197.643 61.9847 197.626 61.9506C197.4 61.5071 197.575 60.9641 198.015 60.7367C198.925 60.2704 199.862 59.8383 200.8 59.4545C201.26 59.2668 201.783 59.4857 201.972 59.952C202.158 60.4126 201.935 60.9385 201.478 61.129C200.585 61.4929 199.696 61.9051 198.834 62.3458C198.422 62.5562 197.928 62.4197 197.679 62.0444ZM191.145 66.3715C190.893 65.9905 190.961 65.4731 191.317 65.1746C192.096 64.5235 192.918 63.8952 193.754 63.3067C194.161 63.0224 194.72 63.1248 195.005 63.5313L195.014 63.5484C195.285 63.9549 195.183 64.5093 194.779 64.7908C193.986 65.348 193.206 65.945 192.466 66.5648C192.085 66.8832 191.52 66.8321 191.201 66.4483C191.178 66.4227 191.162 66.3971 191.145 66.3715Z" fill="#1CCD66"/>
<path d="M248.271 93.8576C248.185 93.6799 248.136 93.4646 248.138 93.2357C248.148 92.6718 248.146 92.1045 248.136 91.5406C248.126 90.9426 248.467 90.4436 248.898 90.43C249.326 90.4163 249.684 90.8913 249.694 91.4928C249.703 92.084 249.703 92.6855 249.696 93.2732C249.689 93.8713 249.334 94.3497 248.903 94.3395C248.638 94.3326 248.408 94.1413 248.271 93.8576Z" fill="#1CCD66"/>
<path d="M237.303 118.244C237.103 117.943 237.143 117.528 237.415 117.274C237.697 117.009 237.978 116.734 238.25 116.458C238.541 116.162 239.012 116.16 239.306 116.451C239.599 116.748 239.599 117.225 239.31 117.519C239.024 117.81 238.726 118.1 238.431 118.379C238.128 118.662 237.657 118.645 237.378 118.339C237.35 118.311 237.324 118.277 237.303 118.244Z" fill="#1CCD66"/>
<path d="M230.786 122.936C230.777 122.922 230.766 122.905 230.758 122.891C230.511 122.471 230.653 121.934 231.074 121.687C231.667 121.341 232.257 120.973 232.827 120.591C233.032 120.456 233.237 120.315 233.439 120.173C233.836 119.894 234.387 119.993 234.667 120.389C234.955 120.788 234.847 121.336 234.448 121.615C234.237 121.765 234.021 121.912 233.805 122.056C233.207 122.457 232.586 122.844 231.963 123.207C231.559 123.442 231.043 123.32 230.786 122.936ZM223.891 126.005C223.847 125.939 223.808 125.864 223.783 125.784C223.636 125.322 223.891 124.826 224.353 124.679C225.24 124.394 226.129 124.071 226.991 123.714C227.439 123.528 227.955 123.741 228.14 124.19C228.329 124.638 228.115 125.153 227.667 125.338C226.758 125.715 225.824 126.055 224.891 126.354C224.509 126.476 224.104 126.324 223.891 126.005ZM216.484 127.486C216.403 127.37 216.353 127.229 216.34 127.076C216.295 126.592 216.655 126.166 217.14 126.122C218.068 126.041 219.007 125.92 219.924 125.762C220.403 125.679 220.858 126 220.941 126.479C221.024 126.957 220.702 127.414 220.223 127.494C219.256 127.663 218.27 127.791 217.292 127.876C216.96 127.904 216.655 127.746 216.484 127.486ZM208.932 127.309C208.819 127.137 208.763 126.924 208.794 126.703C208.857 126.221 209.301 125.884 209.783 125.95C210.708 126.072 211.65 126.16 212.58 126.207C213.065 126.232 213.439 126.645 213.417 127.129C213.389 127.613 212.977 127.987 212.492 127.965C211.514 127.915 210.522 127.824 209.547 127.691C209.287 127.658 209.068 127.511 208.932 127.309ZM201.605 125.493C201.453 125.266 201.409 124.973 201.511 124.699C201.68 124.242 202.187 124.01 202.641 124.176C203.517 124.5 204.417 124.787 205.314 125.037C205.783 125.164 206.06 125.648 205.929 126.119C205.799 126.587 205.314 126.861 204.846 126.733C203.902 126.47 202.954 126.166 202.035 125.828C201.852 125.762 201.705 125.64 201.605 125.493ZM194.852 122.125C194.663 121.842 194.647 121.46 194.843 121.159C195.109 120.749 195.652 120.633 196.062 120.896C196.843 121.4 197.658 121.878 198.481 122.316C198.913 122.543 199.073 123.077 198.846 123.506C198.616 123.935 198.084 124.098 197.655 123.869C196.785 123.406 195.929 122.905 195.107 122.374C195.001 122.307 194.918 122.222 194.852 122.125ZM179.849 100.115C179.788 100.023 179.744 99.9152 179.719 99.799C179.525 98.8385 179.37 97.8587 179.259 96.8816C179.203 96.4 179.55 95.9655 180.034 95.9101C180.516 95.8548 180.954 96.2007 181.009 96.6824C181.115 97.6068 181.262 98.5396 181.444 99.453C181.541 99.9291 181.234 100.394 180.757 100.488C180.394 100.56 180.043 100.402 179.849 100.115ZM189.004 117.361C188.774 117.015 188.813 116.545 189.12 116.246C189.469 115.905 190.026 115.911 190.367 116.257C191.018 116.921 191.705 117.563 192.414 118.172C192.782 118.491 192.824 119.044 192.508 119.412C192.19 119.78 191.633 119.825 191.264 119.506C190.519 118.867 189.794 118.186 189.107 117.486C189.068 117.447 189.034 117.405 189.004 117.361ZM182.154 107.297C182.126 107.258 182.101 107.214 182.079 107.167C181.68 106.27 181.311 105.349 180.99 104.424C180.827 103.967 181.07 103.464 181.53 103.303C181.99 103.143 182.494 103.386 182.652 103.843C182.957 104.723 183.309 105.6 183.688 106.45C183.888 106.893 183.688 107.413 183.242 107.613C182.846 107.79 182.386 107.649 182.154 107.297ZM184.993 112.429C184.766 112.091 184.547 111.748 184.331 111.402C184.073 110.99 184.201 110.447 184.613 110.192C185.026 109.935 185.572 110.062 185.827 110.475C186.325 111.275 186.854 112.052 187.406 112.794C187.694 113.184 187.613 113.735 187.223 114.026C186.832 114.314 186.281 114.234 185.99 113.843C185.649 113.384 185.314 112.908 184.993 112.429Z" fill="#1CCD66"/>
<path d="M178.662 92.3902C178.538 92.2479 178.466 92.0728 178.47 91.8866C178.484 91.4159 178.513 90.9369 178.552 90.4607C178.591 89.9817 179.133 89.6177 179.757 89.6505C180.38 89.6806 180.858 90.0939 180.815 90.5729C180.776 91.0245 180.751 91.4816 180.737 91.9277C180.723 92.4067 180.206 92.7871 179.578 92.7762C179.193 92.7707 178.858 92.6174 178.662 92.3902Z" fill="#1CCD66"/>
<path d="M187.881 87.5248C187.83 87.6943 187.892 87.8776 188.036 87.9804L192.161 90.9338C192.003 93.2732 192.223 95.6571 192.849 97.9909L189.37 101.664C189.249 101.792 189.224 101.983 189.308 102.139L192.18 107.46C192.262 107.615 192.44 107.701 192.618 107.674L197.654 106.89C199.267 108.707 201.152 110.219 203.211 111.399L203.392 116.42C203.398 116.595 203.516 116.748 203.685 116.798L209.539 118.562C209.711 118.615 209.898 118.554 210.002 118.412L213.004 114.347C215.382 114.506 217.803 114.289 220.175 113.675L223.905 117.095C224.035 117.217 224.229 117.24 224.387 117.159L229.793 114.331C229.951 114.247 230.038 114.078 230.01 113.903L229.215 108.943C231.063 107.354 232.597 105.501 233.796 103.473L238.897 103.298C239.075 103.292 239.23 103.175 239.284 103.006L241.072 97.2436C241.126 97.0769 241.064 96.8935 240.92 96.7907L236.792 93.8345C236.95 91.4951 236.733 89.1112 236.107 86.7774L239.585 83.1044C239.704 82.9766 239.732 82.7849 239.648 82.632L236.775 77.3114C236.691 77.1531 236.516 77.0697 236.338 77.0947L231.302 77.8782C229.689 76.0612 227.804 74.5497 225.742 73.3689L225.564 68.3484C225.558 68.1733 225.44 68.0205 225.268 67.9705L219.414 66.2062C219.242 66.1535 219.058 66.2146 218.954 66.3591L215.952 70.4211C213.574 70.2627 211.153 70.4794 208.78 71.0962L205.051 67.6732C204.921 67.5538 204.726 67.5288 204.568 67.6121L199.163 70.4377C199.005 70.5211 198.917 70.6933 198.946 70.8656L199.738 75.825C197.893 77.4142 196.356 79.2674 195.16 81.2956L190.059 81.4707C189.881 81.479 189.723 81.5957 189.672 81.7652L187.881 87.5248Z" fill="#1CCD66"/>
<path d="M218.471 89.8913C218.342 89.7082 218.196 89.5333 218.035 89.3637C216.257 87.5251 213.213 87.3852 211.252 89.0487C209.291 90.715 209.136 93.5656 210.916 95.4042C212.694 97.2427 215.735 97.3854 217.699 95.7191C218.649 94.9143 219.206 93.8079 219.269 92.6073C219.321 91.6329 219.043 90.6881 218.471 89.8913ZM209.265 95.6438C207.571 93.2642 207.941 90.0097 210.273 88.0339C212.831 85.8643 216.8 86.0473 219.117 88.4457C220.24 89.6086 220.814 91.1107 220.731 92.6746C220.648 94.2413 219.918 95.6814 218.678 96.734C216.116 98.9063 212.151 98.7205 209.831 96.3221C209.624 96.1068 209.434 95.8806 209.265 95.6438Z" fill="#343434" fill-opacity="0.3"/>
<path d="M202.353 100.881C202.072 100.449 201.814 100.002 201.574 99.5354C201.497 99.3904 201.426 99.2424 201.354 99.0945C201.008 98.3606 200.717 97.6011 200.488 96.8245L200.477 96.7903C200.469 96.7619 200.461 96.7306 200.45 96.7022C200.433 96.6424 200.42 96.5827 200.4 96.5258C200.359 96.3693 200.422 96.21 200.543 96.1247C200.574 96.1048 200.607 96.0877 200.642 96.0792C200.829 96.0251 201.022 96.1361 201.074 96.3267C201.346 97.3166 201.72 98.2809 202.193 99.1969C204.528 103.743 208.881 106.476 213.509 106.858C216.082 107.068 218.741 106.548 221.189 105.205C221.615 104.972 222.03 104.713 222.429 104.44C225.107 102.585 227.073 99.8597 228.027 96.631C229.125 92.9187 228.759 88.9903 226.999 85.5653C223.364 78.4934 214.842 75.7995 208.003 79.5545C207.583 79.7877 207.173 80.0409 206.78 80.314C205.069 81.4974 203.631 83.0506 202.57 84.874C202.542 84.9195 202.507 84.9565 202.465 84.9878C202.355 85.0618 202.21 85.0703 202.089 84.9963C201.924 84.8939 201.869 84.672 201.97 84.5014C203.087 82.5869 204.596 80.9541 206.389 79.7138C206.805 79.4265 207.234 79.1619 207.676 78.9173C214.856 74.9717 223.804 77.805 227.618 85.2268C229.466 88.8224 229.85 92.9472 228.698 96.8415C227.695 100.232 225.63 103.094 222.819 105.04C222.401 105.327 221.967 105.597 221.516 105.845C218.037 107.754 214.047 108.152 210.283 106.96C207.003 105.922 204.233 103.788 202.353 100.881Z" fill="#343434" fill-opacity="0.3"/>
<path d="M155.059 54.1875C154.957 53.9681 154.961 53.6745 155.088 53.4613C155.319 53.0657 155.565 52.6764 155.813 52.3024C155.977 52.0583 156.247 52.0459 156.419 52.2777C156.591 52.5064 156.598 52.8896 156.436 53.1337C156.199 53.4891 155.966 53.863 155.744 54.2401C155.591 54.4966 155.323 54.5305 155.14 54.3173C155.107 54.2771 155.081 54.2339 155.059 54.1875Z" fill="#1CCD66"/>
<path d="M193.911 59.6883C193.894 59.6632 193.878 59.6354 193.864 59.6048C193.545 58.8759 193.182 58.1526 192.783 57.4516C192.722 57.3459 192.661 57.2402 192.6 57.14C192.447 56.8785 192.531 56.5447 192.791 56.3917C193.049 56.2359 193.39 56.3166 193.537 56.5809C193.601 56.6894 193.664 56.8006 193.728 56.9091C194.144 57.6408 194.526 58.4002 194.862 59.1653C194.984 59.4407 194.856 59.7634 194.582 59.8858C194.338 59.9943 194.055 59.9053 193.911 59.6883ZM189.154 52.6806C189.013 52.4664 189.035 52.1771 189.224 51.9907C189.437 51.7765 189.783 51.7765 189.994 51.9935C190.673 52.675 191.314 53.4095 191.907 54.1773C192.087 54.4165 192.048 54.7587 191.81 54.9423C191.571 55.1259 191.23 55.0842 191.045 54.8449C190.482 54.1133 189.867 53.4122 189.224 52.7613C189.196 52.7362 189.174 52.7084 189.154 52.6806ZM184.708 49.1865C184.594 49.0168 184.58 48.7915 184.694 48.6023C184.847 48.3464 185.182 48.2601 185.44 48.4159C186.266 48.9139 187.07 49.4675 187.826 50.06C188.065 50.2492 188.104 50.5914 187.918 50.8278C187.735 51.0671 187.391 51.106 187.156 50.9224C186.432 50.3549 185.667 49.8263 184.88 49.3534C184.808 49.3089 184.75 49.2533 184.708 49.1865ZM179.541 46.8914C179.455 46.7607 179.425 46.5937 179.472 46.4296C179.56 46.1403 179.862 45.9789 180.151 46.0652C181.074 46.3462 181.989 46.6883 182.867 47.0778C183.142 47.2002 183.267 47.5229 183.145 47.7983C183.023 48.0737 182.701 48.1989 182.427 48.0765C181.587 47.7037 180.716 47.3782 179.835 47.1112C179.71 47.0722 179.61 46.9943 179.541 46.8914ZM173.972 45.9233C173.908 45.8287 173.875 45.7147 173.881 45.5923C173.894 45.2918 174.149 45.0609 174.452 45.0748C175.416 45.1221 176.384 45.2306 177.332 45.3947C177.628 45.4476 177.825 45.7286 177.775 46.0262C177.723 46.3239 177.443 46.5214 177.146 46.4713C176.242 46.3128 175.316 46.2098 174.399 46.1653C174.219 46.157 174.063 46.0624 173.972 45.9233ZM168.334 46.3462C168.295 46.2905 168.267 46.2238 168.253 46.1514C168.192 45.8565 168.384 45.57 168.68 45.5088C169.623 45.3168 170.59 45.1833 171.552 45.111C171.851 45.0887 172.112 45.3141 172.137 45.6173C172.159 45.915 171.932 46.1792 171.635 46.2015C170.715 46.271 169.795 46.3962 168.894 46.5798C168.672 46.6243 168.453 46.527 168.334 46.3462ZM162.975 48.1488C162.959 48.1266 162.948 48.1043 162.934 48.0821C162.806 47.8067 162.92 47.4812 163.192 47.3532C164.062 46.9359 164.966 46.5659 165.878 46.2599C166.161 46.1653 166.471 46.3211 166.565 46.6049C166.662 46.8914 166.507 47.2002 166.224 47.2948C165.354 47.5897 164.492 47.9374 163.66 48.338C163.413 48.4576 163.122 48.3714 162.975 48.1488ZM158.21 51.2006C158.055 50.9697 158.1 50.6554 158.316 50.4773C158.928 49.9682 159.574 49.4842 160.237 49.0418C160.375 48.9473 160.517 48.8555 160.658 48.7636C160.913 48.6023 161.249 48.6969 161.412 48.9306C161.573 49.1837 161.498 49.5231 161.246 49.6845C161.11 49.7707 160.974 49.8597 160.841 49.9487C160.212 50.3716 159.594 50.8334 159.009 51.3175C158.779 51.5122 158.435 51.476 158.244 51.2451C158.233 51.2312 158.222 51.2145 158.21 51.2006Z" fill="#1CCD66"/>
<path d="M173.036 92.5264C172.976 92.4411 172.942 92.333 172.942 92.2193C172.942 91.9093 173.192 91.6619 173.499 91.6591C174.427 91.6591 175.361 91.5994 176.278 91.4856C176.585 91.4487 176.863 91.6648 176.9 91.969C176.94 92.2761 176.721 92.5548 176.417 92.5918C175.455 92.7112 174.475 92.7737 173.502 92.7766C173.306 92.7766 173.135 92.6799 173.036 92.5264ZM167.381 91.8524C167.298 91.7273 167.264 91.5681 167.304 91.4089C167.378 91.1103 167.679 90.9255 167.977 90.9994C168.877 91.2212 169.8 91.389 170.717 91.497C171.023 91.534 171.242 91.8126 171.205 92.1197C171.168 92.424 170.893 92.6429 170.586 92.606C169.624 92.4894 168.655 92.3159 167.713 92.0828C167.571 92.0487 167.454 91.9633 167.381 91.8524ZM162.055 89.8421C161.944 89.6772 161.927 89.4582 162.023 89.2734C162.165 88.9976 162.503 88.8924 162.776 89.0345C163.596 89.4639 164.451 89.8478 165.317 90.1748C165.606 90.2828 165.751 90.6041 165.643 90.8942C165.532 91.1814 165.212 91.3292 164.925 91.2183C164.016 90.8771 163.119 90.4733 162.259 90.0241C162.174 89.9814 162.106 89.916 162.055 89.8421ZM150.108 74.5611C150.071 74.507 150.046 74.4473 150.029 74.3819C149.799 73.4379 149.623 72.4682 149.512 71.5043C149.475 71.1972 149.694 70.9214 150 70.8844C150.304 70.8503 150.582 71.0664 150.619 71.3735C150.727 72.2919 150.892 73.2161 151.113 74.1175C151.187 74.416 151.002 74.7175 150.704 74.7914C150.469 74.8483 150.233 74.7487 150.108 74.5611ZM157.365 86.609C157.228 86.4043 157.24 86.1228 157.413 85.9294C157.614 85.6991 157.966 85.6763 158.199 85.8811C158.892 86.4953 159.63 87.0753 160.391 87.5986C160.647 87.7749 160.709 88.1218 160.536 88.3748C160.36 88.6279 160.013 88.6933 159.761 88.517C158.96 87.9682 158.188 87.3625 157.458 86.7171C157.424 86.6858 157.39 86.6488 157.365 86.609ZM152.124 79.8926C152.112 79.8756 152.101 79.8585 152.093 79.8415C151.641 78.9799 151.238 78.0842 150.894 77.1742C150.787 76.8871 150.931 76.5657 151.218 76.4548C151.508 76.3468 151.829 76.4918 151.939 76.779C152.266 77.6463 152.652 78.5022 153.081 79.3239C153.222 79.5969 153.117 79.9325 152.845 80.0775C152.589 80.2111 152.28 80.1258 152.124 79.8926ZM153.594 82.3381C153.427 82.085 153.492 81.7438 153.742 81.5703C153.998 81.394 154.344 81.4594 154.517 81.7125C155.042 82.4774 155.621 83.2167 156.232 83.9105C156.433 84.1408 156.414 84.4934 156.184 84.6982C155.951 84.9001 155.599 84.8802 155.394 84.6498C154.756 83.9219 154.151 83.1485 153.6 82.3466L153.594 82.3381Z" fill="#1CCD66"/>
<path d="M149.571 69.0854C149.531 69.0029 149.508 68.8993 149.508 68.7929C149.51 68.3463 149.521 67.897 149.542 67.4583C149.555 67.1712 149.733 66.9532 149.939 66.9718C150.147 66.9904 150.303 67.2377 150.29 67.5274C150.271 67.9448 150.259 68.3702 150.257 68.7982C150.257 69.088 150.088 69.3193 149.882 69.3167C149.752 69.3167 149.638 69.2236 149.571 69.0854Z" fill="#1CCD66"/>
<path d="M155.781 65.6612C155.747 65.7756 155.789 65.8983 155.884 65.9652L158.616 67.9509C158.51 69.5239 158.655 71.1247 159.068 72.692L156.769 75.1574C156.688 75.2439 156.668 75.3722 156.724 75.4754L158.627 79.0507C158.683 79.1539 158.797 79.2125 158.914 79.193L162.248 78.6687C163.317 79.8902 164.564 80.9053 165.926 81.6974L166.046 85.0692C166.049 85.1863 166.127 85.2895 166.241 85.323L170.117 86.5082C170.228 86.5417 170.351 86.4999 170.421 86.4051L172.407 83.6775C173.981 83.7835 175.582 83.6385 177.153 83.2257L179.622 85.5238C179.706 85.6046 179.834 85.6214 179.941 85.5656L183.517 83.6664C183.621 83.6106 183.679 83.4962 183.66 83.3791L183.135 80.0492C184.357 78.981 185.373 77.7344 186.168 76.3734L189.541 76.2535C189.658 76.2507 189.762 76.1726 189.798 76.0582L190.981 72.19C191.017 72.0757 190.975 71.953 190.881 71.8833L188.149 69.8976C188.255 68.3274 188.11 66.7266 187.694 65.1592L189.996 62.6911C190.077 62.6074 190.094 62.4791 190.038 62.3731L188.138 58.8005C188.082 58.6946 187.965 58.636 187.85 58.6555L184.516 59.1798C183.448 57.9611 182.201 56.9459 180.839 56.1539L180.719 52.7821C180.713 52.6622 180.635 52.559 180.521 52.5255L176.648 51.343C176.537 51.3068 176.414 51.3486 176.344 51.4434L174.358 54.171C172.784 54.0678 171.182 54.21 169.612 54.6256L167.142 52.3275C167.056 52.2466 166.93 52.2271 166.824 52.2829L163.247 54.1849C163.141 54.2407 163.085 54.355 163.102 54.4722L163.63 57.8021C162.407 58.8703 161.392 60.1141 160.597 61.4751L157.223 61.595C157.103 61.5978 157 61.6787 156.967 61.7902L155.781 65.6612Z" fill="#1CCD66"/>
<path d="M176.018 66.9354C175.934 66.8195 175.839 66.7062 175.734 66.6009C174.56 65.4261 172.552 65.3339 171.259 66.4007C170.633 66.9169 170.262 67.6229 170.221 68.3894C170.178 69.1559 170.47 69.8934 171.036 70.4624C171.604 71.0339 172.383 71.3685 173.227 71.4053C174.073 71.4448 174.882 71.1814 175.511 70.6652C176.688 69.6985 176.876 68.0996 176.018 66.9354ZM169.801 70.6994C169.291 70.0067 169.038 69.1875 169.082 68.3393C169.14 67.2936 169.641 66.3348 170.494 65.6315C172.256 64.1855 174.984 64.3093 176.578 65.9081C178.169 67.5096 178.033 69.9856 176.273 71.4317C175.421 72.1323 174.32 72.4906 173.172 72.4379C172.021 72.3852 170.963 71.9321 170.192 71.1577C170.047 71.0129 169.917 70.8601 169.801 70.6994Z" fill="#343434" fill-opacity="0.3"/>
<path d="M164.981 74.1943C164.791 73.9084 164.609 73.6143 164.443 73.3064C164.11 72.6962 163.842 72.0529 163.646 71.3877C163.637 71.3574 163.626 71.33 163.618 71.2997C163.553 71.0688 163.648 70.8297 163.842 70.7032C163.889 70.673 163.942 70.6482 163.998 70.6345C164.29 70.552 164.592 70.7197 164.676 71.0056C164.855 71.6268 165.104 72.2288 165.412 72.8006C165.429 72.8309 165.448 72.8638 165.465 72.8941C166.21 74.2383 167.268 75.3489 168.545 76.1598C169.236 76.5996 169.992 76.9515 170.801 77.1989L170.818 77.2071C170.84 77.2126 170.86 77.2181 170.879 77.2236C173.245 77.9328 175.747 77.6992 177.931 76.5584C178.213 76.4127 178.488 76.2532 178.751 76.0801C180.514 74.92 181.811 73.2157 182.44 71.1953C183.163 68.8724 182.922 66.4149 181.763 64.2735C180.601 62.1321 178.659 60.5597 176.296 59.8478C173.93 59.1386 171.428 59.375 169.244 60.513C168.964 60.6587 168.696 60.8154 168.438 60.9886C167.31 61.7253 166.361 62.6984 165.661 63.8392C165.619 63.9107 165.563 63.9684 165.496 64.0096C165.325 64.1223 165.096 64.1361 164.905 64.0234C164.648 63.8694 164.564 63.5396 164.721 63.2812C165.504 62.0057 166.565 60.9171 167.825 60.0897C168.113 59.9 168.416 59.7213 168.726 59.5619C171.17 58.2864 173.972 58.0225 176.618 58.8169C179.263 59.6114 181.435 61.3679 182.734 63.765C184.03 66.1648 184.302 68.9137 183.49 71.5114C182.788 73.771 181.337 75.6787 179.364 76.9762C179.07 77.1686 178.765 77.3473 178.449 77.5122C173.718 79.978 167.898 78.4716 164.981 74.1943Z" fill="#343434" fill-opacity="0.3"/>
<rect x="300.799" y="75.0078" width="134.201" height="31.6256" rx="9" fill="white" stroke="#DBE0DC" stroke-width="2"/>
<ellipse cx="313.527" cy="90.8485" rx="2.76921" ry="2.76648" fill="#111111"/>
<ellipse cx="324.05" cy="90.8485" rx="2.76923" ry="2.76648" fill="#111111"/>
<ellipse cx="377.714" cy="90.8485" rx="2.76923" ry="2.76648" fill="#111111"/>
<ellipse cx="334.573" cy="90.8485" rx="2.76921" ry="2.76648" fill="#111111"/>
<ellipse cx="388.237" cy="90.8485" rx="2.76921" ry="2.76648" fill="#111111"/>
<ellipse cx="345.65" cy="90.8485" rx="2.76921" ry="2.76648" fill="#111111"/>
<ellipse cx="399.314" cy="90.8485" rx="2.76921" ry="2.76648" fill="#111111"/>
<ellipse cx="356.173" cy="90.8485" rx="2.76921" ry="2.76648" fill="#111111"/>
<ellipse cx="409.837" cy="90.8485" rx="2.76921" ry="2.76648" fill="#111111"/>
<ellipse cx="366.696" cy="90.8485" rx="2.76923" ry="2.76648" fill="#111111"/>
<ellipse cx="420.36" cy="90.8485" rx="2.76923" ry="2.76648" fill="#111111"/>
<defs>
<linearGradient id="paint0_linear_1026_8027" x1="61.2954" y1="47.6429" x2="193.68" y2="94.7276" gradientUnits="userSpaceOnUse">
<stop offset="0.181158" stop-color="#B8FBFF"/>
<stop offset="1" stop-color="#A4F8C0"/>
</linearGradient>
</defs>
</svg>
