<svg width="32" height="32" viewBox="0 0 32 32" fill="none" xmlns="http://www.w3.org/2000/svg">
<path d="M12 25.8333H12.5V25.3333V20V19.5H12H6.66667H6.16667V20V25.3333V25.8333H6.66667H12ZM25.3333 12.5H25.8333V12V6.66667V6.16667H25.3333H20H19.5V6.66667V12V12.5H20H25.3333ZM23.5 21.3333V21.8333H24H26.6667C26.8877 21.8333 27.0996 21.9211 27.2559 22.0774C27.4122 22.2337 27.5 22.4457 27.5 22.6667C27.5 22.8877 27.4122 23.0996 27.2559 23.2559C27.0996 23.4122 26.8877 23.5 26.6667 23.5H24H23.5V24V26.6667C23.5 26.8877 23.4122 27.0996 23.2559 27.2559C23.0996 27.4122 22.8877 27.5 22.6667 27.5C22.4457 27.5 22.2337 27.4122 22.0774 27.2559C21.9211 27.0996 21.8333 26.8877 21.8333 26.6667V24V23.5H21.3333H18.6667C18.4457 23.5 18.2337 23.4122 18.0774 23.2559C17.9211 23.0996 17.8333 22.8877 17.8333 22.6667C17.8333 22.4457 17.9211 22.2337 18.0774 22.0774C18.2337 21.9211 18.4457 21.8333 18.6667 21.8333H21.3333H21.8333V21.3333V18.6667C21.8333 18.4457 21.9211 18.2337 22.0774 18.0774C22.2337 17.9211 22.4457 17.8333 22.6667 17.8333C22.8877 17.8333 23.0996 17.9211 23.2559 18.0774C23.4122 18.2337 23.5 18.4457 23.5 18.6667V21.3333ZM12 12.5H12.5V12V6.66667V6.16667H12H6.66667H6.16667V6.66667V12V12.5H6.66667H12ZM5.33333 17.8333H13.3333C13.5543 17.8333 13.7663 17.9211 13.9226 18.0774C14.0789 18.2337 14.1667 18.4457 14.1667 18.6667V26.6667C14.1667 26.8877 14.0789 27.0996 13.9226 27.2559C13.7663 27.4122 13.5543 27.5 13.3333 27.5H5.33333C5.11232 27.5 4.90036 27.4122 4.74408 27.2559C4.5878 27.0996 4.5 26.8877 4.5 26.6667V18.6667C4.5 18.4457 4.5878 18.2337 4.74408 18.0774C4.90036 17.9211 5.11232 17.8333 5.33333 17.8333ZM18.6667 4.5H26.6667C26.8877 4.5 27.0996 4.5878 27.2559 4.74408C27.4122 4.90036 27.5 5.11232 27.5 5.33333V13.3333C27.5 13.5543 27.4122 13.7663 27.2559 13.9226C27.0996 14.0789 26.8877 14.1667 26.6667 14.1667H18.6667C18.4457 14.1667 18.2337 14.0789 18.0774 13.9226C17.9211 13.7663 17.8333 13.5543 17.8333 13.3333V5.33333C17.8333 5.11232 17.9211 4.90036 18.0774 4.74408C18.2337 4.5878 18.4457 4.5 18.6667 4.5ZM5.33333 4.5H13.3333C13.5543 4.5 13.7663 4.5878 13.9226 4.74408C14.0789 4.90036 14.1667 5.11232 14.1667 5.33333V13.3333C14.1667 13.5543 14.0789 13.7663 13.9226 13.9226C13.7663 14.0789 13.5543 14.1667 13.3333 14.1667H5.33333C5.11232 14.1667 4.90036 14.0789 4.74408 13.9226C4.5878 13.7663 4.5 13.5543 4.5 13.3333V5.33333C4.5 5.11232 4.5878 4.90036 4.74408 4.74408C4.90036 4.5878 5.11232 4.5 5.33333 4.5Z" fill="#5D5D5D" stroke="#5D5D5D"/>
</svg>
