<svg width="20" height="20" viewBox="0 0 20 20" fill="none" xmlns="http://www.w3.org/2000/svg">
<path d="M2.83332 4.96806L3.68688 5.82161L8.58666 10.7214C8.96166 11.0959 9.46999 11.3063 9.99999 11.3063C10.5299 11.3063 11.0381 11.096 11.4131 10.7216L2.83332 4.96806ZM2.83332 4.96806V6.17516V14.1668C2.83332 14.5205 2.9738 14.8596 3.22385 15.1096C3.4739 15.3597 3.81304 15.5002 4.16666 15.5002H15.8333C16.1869 15.5002 16.5261 15.3597 16.7761 15.1096C17.0262 14.8596 17.1667 14.5204 17.1667 14.1668V6.17516V4.96806L16.3131 5.82161L11.4133 10.7214L2.83332 4.96806ZM15.8452 5.35372L16.6988 4.50016H15.4917H4.50832H3.30122L4.15477 5.35372L9.05332 10.2523C9.05361 10.2525 9.05389 10.2528 9.05417 10.2531C9.17795 10.3777 9.32511 10.4766 9.48722 10.5441C9.6497 10.6118 9.82397 10.6467 9.99999 10.6467C10.176 10.6467 10.3503 10.6118 10.5128 10.5441C10.6749 10.4766 10.8221 10.3776 10.9459 10.253C10.9461 10.2528 10.9464 10.2525 10.9467 10.2523L15.8452 5.35372ZM4.16666 3.8335H15.8333C16.3638 3.8335 16.8725 4.04421 17.2475 4.41928C17.6226 4.79436 17.8333 5.30306 17.8333 5.8335V14.1668C17.8333 14.6973 17.6226 15.206 17.2475 15.581C16.8725 15.9561 16.3638 16.1668 15.8333 16.1668H4.16666C3.63622 16.1668 3.12752 15.9561 2.75244 15.581C2.37737 15.206 2.16666 14.6973 2.16666 14.1668V5.8335C2.16666 5.30306 2.37737 4.79436 2.75244 4.41928C3.12752 4.04421 3.63622 3.8335 4.16666 3.8335Z" fill="#111111" stroke="#111111"/>
</svg>
