<svg width="24" height="25" viewBox="0 0 24 25" fill="none" xmlns="http://www.w3.org/2000/svg">
<path opacity="0.2" d="M21.4607 12.2978L21.4617 12.3C21.4892 12.3631 21.5034 12.4312 21.5034 12.5C21.5034 12.5688 21.4892 12.6369 21.4617 12.7L21.4607 12.7022C19.4959 17.2641 15.8462 20 11.9999 20C8.15364 20 4.504 17.2641 2.53917 12.7022L2.5382 12.7C2.51067 12.6369 2.49646 12.5688 2.49646 12.5C2.49646 12.4312 2.51067 12.3631 2.5382 12.3L2.53821 12.3L2.53916 12.2978C4.504 7.73587 8.15364 5 11.9999 5C15.8462 5 19.4959 7.73587 21.4607 12.2978ZM3.64679 12.2887L3.54826 12.5L3.64679 12.7113C5.42942 16.5342 8.57438 19 11.9999 19C15.4255 19 18.5705 16.5342 20.3531 12.7113L20.4516 12.5L20.3531 12.2887C18.5705 8.46583 15.4255 6 11.9999 6C8.57438 6 5.42942 8.46583 3.64679 12.2887ZM10.0554 9.58986C10.631 9.20527 11.3077 9 11.9999 9C12.9282 9 13.8184 9.36875 14.4748 10.0251C15.1312 10.6815 15.4999 11.5717 15.4999 12.5C15.4999 13.1922 15.2947 13.8689 14.9101 14.4445C14.5255 15.0201 13.9789 15.4687 13.3393 15.7336C12.6998 15.9985 11.9961 16.0678 11.3171 15.9327C10.6382 15.7977 10.0146 15.4644 9.52507 14.9749C9.03559 14.4854 8.70224 13.8617 8.5672 13.1828C8.43215 12.5039 8.50146 11.8001 8.76637 11.1606C9.03127 10.5211 9.47988 9.97444 10.0554 9.58986ZM10.611 14.5787C11.0221 14.8534 11.5055 15 11.9999 15C12.663 15 13.2989 14.7366 13.7677 14.2678C14.2366 13.7989 14.4999 13.163 14.4999 12.5C14.4999 12.0055 14.3533 11.5222 14.0786 11.1111C13.8039 10.7 13.4135 10.3795 12.9567 10.1903C12.4998 10.0011 11.9972 9.95157 11.5122 10.048C11.0273 10.1445 10.5818 10.3826 10.2322 10.7322C9.88255 11.0819 9.64444 11.5273 9.54798 12.0123C9.45152 12.4972 9.50103 12.9999 9.69025 13.4567C9.87946 13.9135 10.1999 14.304 10.611 14.5787Z" fill="#111111" stroke="#111111"/>
</svg>
