<svg width="20" height="20" viewBox="0 0 20 20" fill="none" xmlns="http://www.w3.org/2000/svg">
<path d="M16.7054 2.58312V2.58317L16.7124 2.58307C16.7975 2.58189 16.882 2.59748 16.961 2.62895C17.0401 2.66043 17.1122 2.70717 17.1732 2.7665C17.2342 2.82584 17.2829 2.89661 17.3165 2.97477C17.3498 3.05204 17.3677 3.13504 17.3692 3.21912V16.7804C17.3677 16.8645 17.3498 16.9475 17.3165 17.0248C17.2829 17.103 17.2342 17.1737 17.1732 17.2331C17.1122 17.2924 17.0401 17.3391 16.961 17.3706C16.882 17.4021 16.7975 17.4177 16.7124 17.4165L16.7124 17.4165H16.7054H3.29461V17.4164L3.28766 17.4165C3.20258 17.4177 3.11809 17.4021 3.03903 17.3706C2.95997 17.3391 2.88788 17.2924 2.82688 17.2331C2.76589 17.1737 2.71718 17.103 2.68354 17.0248C2.65028 16.9475 2.63239 16.8645 2.63086 16.7805V3.21911C2.63239 3.13503 2.65028 3.05204 2.68354 2.97477C2.71718 2.89661 2.76589 2.82584 2.82688 2.7665C2.88788 2.70717 2.95997 2.66043 3.03903 2.62895C3.11809 2.59748 3.20258 2.58189 3.28767 2.58307L3.28767 2.58312H3.29461H16.7054ZM6.90461 15.8356H7.40461V15.3356V8.21062V7.71062H6.90461H6.04744C6.16192 7.69805 6.27519 7.67412 6.38555 7.63901C6.61945 7.5646 6.835 7.44163 7.01808 7.27813L6.68505 6.90519L7.01808 7.27813C7.20117 7.11464 7.34765 6.91432 7.44795 6.69029C7.54824 6.46626 7.60009 6.22357 7.60009 5.97812C7.60009 5.73266 7.54824 5.48997 7.44795 5.26595C7.34765 5.04191 7.20116 4.8416 7.01808 4.6781C6.835 4.51461 6.61945 4.39163 6.38555 4.31722C6.16062 4.24567 5.92359 4.22057 5.68885 4.24335C5.23892 4.25067 4.80899 4.43258 4.49028 4.75129C4.1649 5.07666 3.98211 5.51797 3.98211 5.97812C3.98211 6.43827 4.1649 6.87957 4.49028 7.20495C4.79363 7.5083 5.19775 7.68772 5.62397 7.71062H4.52961H4.02961V8.21062V15.3356V15.8356H4.52961H6.90461ZM15.4704 15.8356H15.9704V15.3356V11.2348C15.9704 10.0548 15.661 9.11588 15.0673 8.46765C14.4711 7.81669 13.6465 7.5226 12.7483 7.52063C12.2288 7.50313 11.7141 7.62682 11.2592 7.87861C11.2029 7.90981 11.1477 7.94282 11.0938 7.97758V7.7027H10.5938H8.21878H7.71878V8.2027V8.20657V8.21058V8.21471V8.21898V8.22338V8.2279V8.23256V8.23735V8.24227V8.24731V8.25249V8.25779V8.26322V8.26877V8.27445V8.28026V8.28619V8.29224V8.29842V8.30471V8.31114V8.31768V8.32435V8.33113V8.33804V8.34506V8.35221V8.35947V8.36685V8.37435V8.38197V8.3897V8.39755V8.40551V8.41359V8.42178V8.43008V8.4385V8.44703V8.45567V8.46443V8.47329V8.48227V8.49135V8.50055V8.50985V8.51926V8.52878V8.5384V8.54813V8.55797V8.56791V8.57796V8.58811V8.59837V8.60872V8.61918V8.62975V8.64041V8.65118V8.66204V8.67301V8.68407V8.69524V8.7065V8.71786V8.72931V8.74087V8.75251V8.76426V8.7761V8.78803V8.80006V8.81218V8.82439V8.8367V8.84909V8.86158V8.87416V8.88683V8.89958V8.91243V8.92536V8.93839V8.9515V8.96469V8.97797V8.99134V9.00479V9.01833V9.03195V9.04565V9.05944V9.07331V9.08726V9.10129V9.11541V9.1296V9.14387V9.15822V9.17265V9.18716V9.20174V9.2164V9.23114V9.24595V9.26084V9.2758V9.29084V9.30595V9.32113V9.33639V9.35171V9.36711V9.38258V9.39812V9.41373V9.4294V9.44515V9.46096V9.47684V9.49279V9.5088V9.52488V9.54103V9.55724V9.57351V9.58985V9.60625V9.62271V9.63924V9.65582V9.67247V9.68918V9.70594V9.72277V9.73965V9.75659V9.77359V9.79065V9.80776V9.82493V9.84215V9.85943V9.87677V9.89415V9.91159V9.92908V9.94663V9.96422V9.98187V9.99957V10.0173V10.0351V10.053V10.0708V10.0888V10.1068V10.1248V10.1429V10.161V10.1792V10.1974V10.2156V10.2339V10.2523V10.2707V10.2891V10.3076V10.3261V10.3446V10.3632V10.3818V10.4005V10.4192V10.4379V10.4567V10.4755V10.4944V10.5133V10.5322V10.5511V10.5701V10.5891V10.6082V10.6273V10.6464V10.6655V10.6847V10.7039V10.7231V10.7424V10.7617V10.781V10.8003V10.8197V10.8391V10.8585V10.8779V10.8974V10.9169V10.9364V10.9559V10.9755V10.9951V11.0147V11.0343V11.0539V11.0736V11.0932V11.1129V11.1326V11.1524V11.1721V11.1919V11.2116V11.2314V11.2512V11.271V11.2909V11.3107V11.3306V11.3504V11.3703V11.3902V11.4101V11.43V11.4499V11.4698V11.4897V11.5097V11.5296V11.5496V11.5695V11.5895V11.6094V11.6294V11.6494V11.6693V11.6893V11.7093V11.7292V11.7492V11.7692V11.7892V11.8091V11.8291V11.8491V11.869V11.889V11.9089V11.9289V11.9488V11.9688V11.9887V12.0086V12.0286V12.0485V12.0684V12.0883V12.1082V12.128V12.1479V12.1677V12.1876V12.2074V12.2272V12.247V12.2668V12.2866V12.3063V12.3261V12.3458V12.3655V12.3852V12.4049V12.4245V12.4442V12.4638V12.4834V12.503V12.5225V12.5421V12.5616V12.581V12.6005V12.62V12.6394V12.6588V12.6781V12.6975V12.7168V12.7361V12.7553V12.7746V12.7938V12.8129V12.8321V12.8512V12.8703V12.8893V12.9083V12.9273V12.9463V12.9652V12.984V13.0029V13.0217V13.0405V13.0592V13.0779V13.0966V13.1152V13.1338V13.1523V13.1709V13.1893V13.2077V13.2261V13.2445V13.2628V13.281V13.2992V13.3174V13.3355V13.3536V13.3716V13.3896V13.4076V13.4255V13.4433V13.4611V13.4788V13.4965V13.5142V13.5318V13.5493V13.5668V13.5843V13.6016V13.619V13.6363V13.6535V13.6706V13.6878V13.7048V13.7218V13.7387V13.7556V13.7725V13.7892V13.8059V13.8226V13.8392V13.8557V13.8721V13.8885V13.9049V13.9212V13.9374V13.9535V13.9696V13.9856V14.0015V14.0174V14.0332V14.049V14.0647V14.0803V14.0958V14.1113V14.1267V14.142V14.1572V14.1724V14.1875V14.2026V14.2175V14.2324V14.2472V14.262V14.2766V14.2912V14.3057V14.3201V14.3345V14.3488V14.3629V14.3771V14.3911V14.405V14.4189V14.4327V14.4464V14.46V14.4735V14.487V14.5004V14.5136V14.5268V14.54V14.553V14.5659V14.5787V14.5915V14.6042V14.6167V14.6292V14.6416V14.6539V14.6661V14.6783V14.6903V14.7022V14.7141V14.7258V14.7374V14.749V14.7605V14.7718V14.7831V14.7942V14.8053V14.8163V14.8271V14.8379V14.8485V14.8591V14.8696V14.8799V14.8902V14.9003V14.9104V14.9203V14.9301V14.9399V14.9495V14.959V14.9684V14.9777V14.9869V14.996V15.005V15.0138V15.0226V15.0312V15.0398V15.0482V15.0565V15.0647V15.0727V15.0807V15.0885V15.0963V15.1039V15.1114V15.1188V15.126V15.1332V15.1402V15.1471V15.1539V15.1605V15.1671V15.1735V15.1798V15.186V15.192V15.198V15.2038V15.2094V15.215V15.2204V15.2257V15.2309V15.2359V15.2408V15.2456V15.2503V15.2548V15.2592V15.2635V15.2676V15.2716V15.2755V15.2792V15.2828V15.2863V15.2896V15.2928V15.2959V15.2988V15.3016V15.3042V15.3067V15.3091V15.3113V15.3134V15.3154V15.3172V15.3189V15.3204V15.3218V15.323V15.3241V15.3251V15.3259V15.3265V15.327V15.3274V15.3276L8.21878 15.3277H7.71878V15.8277H8.21878H10.5938H11.0938V15.3277V11.3694V11.3571L11.0932 11.3448C11.0867 11.2129 11.1044 11.0809 11.1453 10.9554C11.2017 10.8028 11.303 10.6707 11.4359 10.5767C11.57 10.4818 11.7298 10.4301 11.894 10.4285C12.1862 10.429 12.3219 10.5249 12.4075 10.6474C12.5156 10.802 12.5954 11.0773 12.5954 11.5119V15.3356V15.8356H13.0954H15.4704Z" fill="#111111" stroke="#111111"/>
</svg>
