<svg width="24" height="24" viewBox="0 0 24 24" fill="none" xmlns="http://www.w3.org/2000/svg">
<path d="M18.4335 12.7745L18.5267 12.6811C18.549 12.6675 18.5725 12.6555 18.5968 12.6455C18.6579 12.6201 18.7235 12.6071 18.7897 12.6071C18.8559 12.6071 18.9214 12.6201 18.9826 12.6455C19.0437 12.6708 19.0993 12.7079 19.1461 12.7547C19.1929 12.8015 19.2301 12.8571 19.2554 12.9183C19.2807 12.9794 19.2938 13.045 19.2938 13.1112C19.2938 13.1774 19.2807 13.2429 19.2554 13.3041C19.2301 13.3653 19.1929 13.4208 19.1461 13.4676L12.963 19.6408C11.8781 20.6442 10.4484 21.1916 8.97061 21.1689C7.48977 21.1463 6.07478 20.5531 5.02045 19.513C3.96613 18.4729 3.35378 17.0661 3.311 15.5857C3.26833 14.1095 3.79531 12.6736 4.78242 11.5755L12.7668 3.59116C13.5243 2.88832 14.5246 2.50583 15.558 2.52406C16.5943 2.54234 17.583 2.96214 18.3158 3.69501C19.0487 4.42788 19.4685 5.4166 19.4868 6.45287C19.505 7.48636 19.1225 8.48666 18.4196 9.2442L11.5405 16.1333C11.1096 16.5416 10.5385 16.7693 9.94467 16.7693C9.35059 16.7693 8.77921 16.5414 8.34824 16.1327C8.14008 15.9252 7.97478 15.6788 7.86177 15.4074C7.74811 15.1345 7.68959 14.8418 7.68959 14.5462C7.68959 14.2506 7.74811 13.9579 7.86177 13.685C7.97543 13.412 8.14199 13.1643 8.35185 12.9561L8.35357 12.9544L13.4832 7.81474C13.4833 7.81471 13.4833 7.81468 13.4833 7.81465C13.5778 7.72017 13.706 7.6671 13.8397 7.6671C13.9734 7.6671 14.1016 7.72021 14.1961 7.81474C14.2907 7.90928 14.3438 8.03749 14.3438 8.17119C14.3438 8.30476 14.2907 8.43287 14.1964 8.52738C14.1963 8.52747 14.1962 8.52755 14.1961 8.52764L9.06646 13.6473L9.05974 13.654L9.05327 13.661C8.94031 13.7826 8.85241 13.9253 8.7946 14.081C8.73679 14.2366 8.71019 14.4021 8.71634 14.568C8.72248 14.7339 8.76124 14.8969 8.83041 15.0479C8.89957 15.1988 8.99779 15.3346 9.11945 15.4476C9.2411 15.5605 9.38381 15.6484 9.53944 15.7063C9.69507 15.7641 9.86056 15.7907 10.0265 15.7845C10.1924 15.7784 10.3554 15.7396 10.5064 15.6704C10.6541 15.6028 10.7873 15.5072 10.8988 15.3892L17.793 8.505L17.793 8.50501L17.7956 8.50238C18.3533 7.93722 18.6659 7.17517 18.6659 6.38119C18.6659 5.5872 18.3533 4.82516 17.7956 4.26L17.7899 4.25424L17.784 4.24867C17.2135 3.7067 16.4566 3.40452 15.6697 3.40452C14.8827 3.40452 14.1259 3.7067 13.5553 4.24867L13.5552 4.24855L13.5461 4.25764L5.54612 12.2576L5.53571 12.268L5.52593 12.279C4.72121 13.1845 4.29286 14.3633 4.32851 15.5742C4.36415 16.7851 4.8611 17.9366 5.71769 18.7932C6.57429 19.6498 7.7258 20.1467 8.93668 20.1824C10.1476 20.218 11.3263 19.7897 12.2318 18.9849L12.243 18.975L12.2535 18.9645L18.4335 12.7745Z" fill="#111111" stroke="#111111"/>
</svg>
