<svg width="32" height="32" viewBox="0 0 32 32" fill="none" xmlns="http://www.w3.org/2000/svg">
<path d="M12.3551 8.88111L12.6556 8.95362L12.8548 8.71714L14.3406 6.9529C14.3408 6.95274 14.3409 6.95258 14.341 6.95243C16.1054 4.86719 18.4228 3.32261 21.0264 2.49652C23.6299 1.67047 26.4138 1.59642 29.0575 2.2829C29.2001 2.32059 29.3301 2.39535 29.4343 2.49959C29.5386 2.60393 29.6134 2.73406 29.6511 2.87672C30.3456 5.52117 30.2749 8.30845 29.4473 10.9143C28.6198 13.5202 27.0693 15.8375 24.9763 17.5967L24.9678 17.6039L24.9596 17.6114L23.3102 19.1281L23.0933 19.3276L23.1627 19.6139L24.0541 23.2918C24.0541 23.2918 24.0541 23.2918 24.0541 23.2918C24.2299 24.0226 24.1689 24.7902 23.8801 25.4841C23.5924 26.1756 23.0931 26.7581 22.454 27.1484L17.2544 30.0811C17.2543 30.0811 17.2543 30.0811 17.2543 30.0811C17.1404 30.1453 17.0131 30.1818 16.8826 30.1877C16.752 30.1936 16.6218 30.1687 16.5026 30.115C16.3835 30.0613 16.2786 29.9804 16.1964 29.8787C16.1143 29.777 16.0572 29.6574 16.0298 29.5296L15.1716 25.5255L15.0572 24.9918L14.5355 25.1524C13.4878 25.475 12.4093 25.6872 11.3175 25.7854C11.2895 25.7877 11.2658 25.7888 11.2447 25.7888C11.1353 25.7888 11.027 25.7672 10.9259 25.7254C10.8248 25.6835 10.733 25.6221 10.6557 25.5447L10.6556 25.5446L6.5221 21.4111L6.52208 21.4111C6.43179 21.3208 6.36345 21.211 6.32231 21.0901C6.2812 20.9693 6.26837 20.8407 6.28478 20.7142C6.42608 19.6428 6.66695 18.5868 7.00425 17.56L7.17782 17.0317L6.63403 16.9151L2.53703 16.0368L2.53682 16.0368C2.40901 16.0094 2.28942 15.9524 2.18773 15.8703C2.08603 15.7882 2.00508 15.6833 1.95141 15.5641L1.49823 15.7682L1.95141 15.5641C1.89774 15.445 1.87286 15.3148 1.87879 15.1843C1.88471 15.0537 1.92127 14.9264 1.98551 14.8125L1.98554 14.8125L4.91913 9.6126L4.92413 9.60374L4.92876 9.59468C5.28109 8.90614 5.87066 8.36834 6.5886 8.08059C7.30653 7.79285 8.10434 7.7746 8.83468 8.02921L8.858 8.03734L8.882 8.04313L12.3551 8.88111ZM4.32743 14.0523L3.99357 14.6444L4.6582 14.7868L7.46361 15.388L7.83786 15.4682L8.01297 15.1278C8.58278 14.0204 9.27283 12.9791 10.0707 12.0228C10.0709 12.0225 10.0711 12.0222 10.0714 12.0219L10.9366 10.9946L11.4569 10.3768L10.6719 10.1866L8.42212 9.64136C8.06021 9.49329 7.65595 9.48262 7.28591 9.6125C6.90339 9.74676 6.58619 10.0211 6.39816 10.38L4.32743 14.0523ZM21.6355 25.6963L21.6559 25.6848L21.6751 25.6715C21.9911 25.4521 22.2325 25.1414 22.367 24.781C22.5011 24.4216 22.5226 24.0299 22.4286 23.658L21.8913 21.4411L21.6915 20.6165L21.0669 21.1908L20.08 22.0983C19.1379 22.9233 18.0937 23.6239 16.973 24.1828L16.626 24.3558L16.7072 24.735L17.2799 27.4078L17.4223 28.0725L18.0144 27.7386L21.6355 25.6963ZM18.9566 20.8669L18.9623 20.8619L18.9678 20.8568L23.8719 16.3498C25.6231 14.8852 26.9504 12.9784 27.716 10.8275C28.4829 8.67282 28.6581 6.35189 28.2232 4.10649L28.1588 3.77353L27.8255 3.71032C25.5877 3.28583 23.2773 3.46284 21.1303 4.22327C18.9832 4.98369 17.0765 6.30029 15.6047 8.03863L15.6038 8.03962L13.6906 10.3112L13.6804 10.3232L13.6711 10.3359C13.6515 10.3624 13.6302 10.3876 13.6074 10.4115L13.5966 10.4228L13.5864 10.4349L11.3486 13.0918L11.3478 13.0928C9.62511 15.1488 8.48215 17.6271 8.03682 20.2722L7.99401 20.5265L8.17632 20.7088L11.3821 23.9145L11.5552 24.0877L11.7982 24.057C14.4467 23.7231 16.9374 22.6131 18.9566 20.8669ZM22.3116 8.25537L22.3116 8.25535C22.5086 8.25533 22.7036 8.29412 22.8856 8.36949C23.0676 8.44487 23.233 8.55536 23.3723 8.69465C23.5116 8.83394 23.6221 8.9993 23.6974 9.1813C23.7728 9.36329 23.8116 9.55835 23.8116 9.75534V9.75537C23.8116 10.052 23.7236 10.3421 23.5588 10.5887C23.394 10.8354 23.1597 11.0277 22.8856 11.1412C22.6115 11.2547 22.3099 11.2844 22.019 11.2266C21.728 11.1687 21.4607 11.0258 21.2509 10.816C21.0411 10.6063 20.8983 10.339 20.8404 10.048C20.7825 9.75704 20.8122 9.45544 20.9258 9.18135C21.0393 8.90726 21.2316 8.67299 21.4782 8.50817C21.7249 8.34335 22.0149 8.25537 22.3116 8.25537Z" fill="#5D5D5D" stroke="#5D5D5D"/>
</svg>
