<svg width="24" height="24" viewBox="0 0 24 24" fill="none" xmlns="http://www.w3.org/2000/svg">
<path d="M8.54 14.56L7.92711 18.1267L7.58519 18.3086L7.82 18.75L8.31278 18.8347L8.37837 18.453L11.58 16.75C11.7247 16.673 11.8861 16.6327 12.05 16.6327C12.2139 16.6327 12.3753 16.673 12.52 16.75L15.7216 18.453L15.7872 18.8347L16.28 18.75L16.5148 18.3086L16.1729 18.1267L15.56 14.56C15.5321 14.3993 15.5439 14.2341 15.5944 14.079C15.645 13.9239 15.7327 13.7835 15.85 13.67L18.4074 11.1211L18.7783 11.1749L18.85 10.68L18.497 10.3259L18.2316 10.5904L14.64 10.07C14.478 10.0475 14.324 9.98556 14.1915 9.88968C14.059 9.79379 13.952 9.66686 13.88 9.52002L8.54 14.56ZM8.54 14.56C8.56794 14.3993 8.55611 14.2341 8.50557 14.079M8.54 14.56L8.50557 14.079M8.50557 14.079C8.45502 13.9239 8.36728 13.7835 8.25 13.67L8.50557 14.079ZM21.0678 9.49479L21.0826 9.49693L21.0974 9.4982C21.1938 9.50645 21.2857 9.54249 21.362 9.60195C21.4336 9.65769 21.4885 9.73176 21.5211 9.81614C21.5407 9.90228 21.5372 9.99221 21.5107 10.0767C21.4823 10.167 21.429 10.2474 21.3568 10.3085L21.3441 10.3193L21.3321 10.3309L17.2021 14.3309L17.0116 14.5154L17.0576 14.7767L18.0576 20.4567L18.0575 20.4567L18.0588 20.4636C18.0767 20.5573 18.0673 20.6542 18.0319 20.7428C17.9965 20.8314 17.9364 20.908 17.8588 20.9636L17.8568 20.965C17.771 21.0271 17.6677 21.0604 17.5618 21.06L17.5584 21.06C17.4839 21.0603 17.4106 21.0412 17.3457 21.0045L17.3392 21.0009L17.3326 20.9974L12.2326 18.3174L12.0009 18.1957L11.7688 18.3167L6.6488 20.9867L6.64579 20.9883C6.56367 21.0318 6.47104 21.0516 6.37831 21.0454C6.28557 21.0392 6.19639 21.0073 6.12078 20.9533L5.83006 21.3599L6.12118 20.9536C6.0436 20.898 5.98355 20.8214 5.94811 20.7328C5.91267 20.6442 5.90332 20.5473 5.92117 20.4536L5.92122 20.4536L5.92243 20.4467L6.92243 14.7667L6.96843 14.5054L6.77786 14.3209L2.651 10.3239C2.58788 10.2601 2.54307 10.1805 2.5213 10.0934C2.49966 10.0069 2.50158 9.91612 2.52684 9.8306C2.55613 9.74355 2.60885 9.66622 2.67924 9.60713C2.75082 9.54703 2.83782 9.5082 2.93036 9.49505L2.93036 9.49505L2.93302 9.49466L8.62302 8.65466L8.88219 8.6164L8.99825 8.38154L11.5483 3.22154L11.5483 3.22155L11.55 3.21797C11.5909 3.13343 11.6549 3.06214 11.7345 3.01225C11.814 2.96237 11.9061 2.93591 12 2.93591C12.0939 2.93591 12.186 2.96237 12.2655 3.01225C12.3451 3.06214 12.4091 3.13343 12.45 3.21797L12.45 3.21797L12.4516 3.2212L15.0016 8.3912L15.1178 8.62686L15.3778 8.66479L21.0678 9.49479ZM16.1976 14.0294L16.1977 14.0295L16.203 14.0242L19.203 11.0342L19.911 10.3285L18.9217 10.1852L14.7117 9.57519L14.7117 9.57518L14.7089 9.57479C14.6279 9.56352 14.5509 9.53256 14.4846 9.48462C14.4184 9.43667 14.3649 9.37321 14.3289 9.29979L14.3286 9.29924L12.4486 5.47924L11.9883 4.54386L11.547 5.48838L9.76936 9.29334C9.73337 9.36525 9.68055 9.42745 9.61536 9.47462C9.54911 9.52256 9.47211 9.55352 9.39112 9.56479L9.39111 9.56478L9.3883 9.56519L5.1783 10.1752L4.1911 10.3182L4.89645 11.0236L7.89645 14.0236L7.8964 14.0236L7.90238 14.0294C7.96102 14.0861 8.00489 14.1563 8.03017 14.2339C8.05544 14.3115 8.06135 14.394 8.04738 14.4744L8.04722 14.4753L7.32722 18.6653L7.15453 19.6703L8.05481 19.1915L11.8148 17.1915L11.815 17.1914C11.8873 17.1528 11.968 17.1327 12.05 17.1327C12.132 17.1327 12.2127 17.1528 12.285 17.1914L12.2852 17.1915L16.0452 19.1915L16.9455 19.6703L16.7728 18.6653L16.0528 14.4753L16.0526 14.4744C16.0386 14.394 16.0446 14.3115 16.0698 14.2339C16.0951 14.1563 16.139 14.0861 16.1976 14.0294Z" fill="#111111" stroke="#111111"/>
</svg>
