<svg width="24" height="24" viewBox="0 0 24 24" fill="none" xmlns="http://www.w3.org/2000/svg">
<path d="M13.0975 18.7035L13.0975 18.7035L13.1001 18.7C13.1797 18.5939 13.2981 18.5238 13.4294 18.505C13.5607 18.4863 13.694 18.5204 13.8001 18.6C13.9062 18.6796 13.9763 18.798 13.9951 18.9293C14.0138 19.0606 13.9797 19.1939 13.9001 19.3C13.3878 19.9831 12.7235 20.5375 11.9598 20.9193C11.1961 21.3012 10.354 21.5 9.50011 21.5H9.48617L9.47224 21.5008C8.01334 21.5822 6.58184 21.0808 5.49265 20.1068C4.40346 19.1328 3.74579 17.766 3.66434 16.3071C3.58288 14.8482 4.08431 13.4167 5.05831 12.3275C6.03231 11.2383 7.39909 10.5807 8.85799 10.4992L8.87142 10.4985L8.88479 10.497C9.01819 10.4823 9.15196 10.5212 9.25666 10.6052C9.36137 10.6892 9.42844 10.8113 9.44311 10.9447C9.45779 11.0781 9.41887 11.2118 9.33491 11.3166C9.25096 11.4213 9.12885 11.4883 8.99544 11.503L8.99544 11.503L8.99123 11.5035C8.25349 11.591 7.54889 11.8597 6.94031 12.2858C6.33173 12.7119 5.8381 13.282 5.50349 13.9453C5.16887 14.6086 5.00368 15.3444 5.02265 16.0871C5.04162 16.8297 5.24417 17.5562 5.61221 18.2015C5.98025 18.8468 6.50234 19.391 7.13188 19.7855C7.76143 20.1799 8.47883 20.4124 9.22008 20.4621C9.96132 20.5118 10.7033 20.3772 11.3799 20.0703C12.0565 19.7635 12.6466 19.2939 13.0975 18.7035ZM19.5001 20.5H19.6755L19.6977 20.4823C19.7747 20.5061 19.8456 20.5484 19.9037 20.6064C19.9974 20.7002 20.0501 20.8274 20.0501 20.96C20.0501 21.0926 19.9974 21.2198 19.9037 21.3136C19.8099 21.4073 19.6827 21.46 19.5501 21.46H17.5501C17.4175 21.46 17.2903 21.4073 17.1966 21.3136C17.1028 21.2198 17.0501 21.0926 17.0501 20.96V15.96V15.46H16.5501H11.5507C11.5026 15.4599 11.4548 15.4529 11.4088 15.4393C11.3796 15.4227 11.3515 15.4041 11.3249 15.3836L11.2834 15.3517L11.2362 15.3291C11.2326 15.3274 11.229 15.3255 11.2256 15.3235C11.2252 15.3227 11.2247 15.3219 11.2244 15.3211L11.2032 15.2751L11.1733 15.2343L11.1197 15.1613C11.1012 15.0846 11.0863 15.007 11.075 14.9289L11.0751 14.9289L11.0741 14.9224C11.0728 14.9142 11.0728 14.9058 11.0741 14.8976L11.0837 14.8363L11.078 14.7745C11.0775 14.7687 11.0771 14.7628 11.0768 14.7569L12.9401 9.62051L13.0827 9.2274L12.7211 9.01753L9.48105 7.13753L9.22953 6.99159L8.9783 7.13804L6.7512 8.43635C6.67257 8.48049 6.58345 8.50255 6.49328 8.50017L6.49328 8.50013L6.48657 8.50004C6.37671 8.49862 6.27038 8.46106 6.18401 8.39317C6.09764 8.32527 6.03603 8.23081 6.00872 8.1244C5.9814 8.01798 5.9899 7.90553 6.03289 7.80443C6.07588 7.70333 6.15098 7.6192 6.24657 7.56504L6.24659 7.56508L6.25215 7.56183L8.82535 6.06H8.9197L9.02634 6.0059C9.03845 5.99975 9.05095 5.99444 9.06376 5.99H9.33844C9.35777 5.99581 9.37679 6.00266 9.3954 6.01053L9.48876 6.05H9.57643L13.7701 8.46512V8.4872L14.0052 8.63406C14.0176 8.64177 14.0286 8.65136 14.038 8.6625L14.0479 8.67421L14.0585 8.68529C14.0716 8.69905 14.0829 8.71446 14.0921 8.73112L14.0984 8.74261L14.1053 8.75375C14.1116 8.76389 14.1177 8.77414 14.1236 8.78452C14.1232 8.79141 14.1227 8.79831 14.1221 8.80519L14.1183 8.84803L14.1218 8.89091C14.1245 8.92358 14.1245 8.95642 14.1218 8.98909L14.1201 9.00951V9.03V9.25213L12.4601 13.8295L12.2169 14.5H12.9301H17.5001C17.6327 14.5 17.7599 14.5527 17.8537 14.6464C17.9474 14.7402 18.0001 14.8674 18.0001 15V20V20.5H18.5001H19.5001ZM16.8335 6.24721C16.5868 6.41203 16.2968 6.5 16.0001 6.5C15.6023 6.5 15.2208 6.34197 14.9395 6.06066C14.6582 5.77936 14.5001 5.39783 14.5001 5C14.5001 4.70333 14.5881 4.41332 14.7529 4.16665C14.9177 3.91997 15.152 3.72771 15.4261 3.61418C15.7002 3.50065 16.0018 3.47095 16.2928 3.52882C16.5837 3.5867 16.851 3.72956 17.0608 3.93934C17.2706 4.14912 17.4134 4.41639 17.4713 4.70737C17.5292 4.99834 17.4995 5.29994 17.3859 5.57403C17.2724 5.84812 17.0801 6.08238 16.8335 6.24721Z" fill="#111111" stroke="#111111"/>
</svg>
