<svg width="24" height="24" viewBox="0 0 24 24" fill="none" xmlns="http://www.w3.org/2000/svg">
<path d="M11.9998 21.5L11.9988 21.5C10.5215 21.503 9.0639 21.1614 7.74175 20.5024C6.41959 19.8435 5.26934 18.8852 4.38237 17.7038C3.49541 16.5225 2.89618 15.1505 2.63229 13.697C2.3684 12.2435 2.44713 10.7484 2.86222 9.33069C3.2773 7.91292 4.01731 6.6115 5.02344 5.52981C6.02958 4.44812 7.27411 3.61598 8.65817 3.09951C10.0422 2.58303 11.5276 2.39645 12.9964 2.55459C14.4651 2.71272 15.8767 3.21117 17.1191 4.01035C18.4924 4.89477 19.6175 6.11464 20.3883 7.55474C21.1446 8.98128 21.5248 10.577 21.493 12.1913C21.4612 13.8058 21.0184 15.3856 20.2064 16.7814C19.3944 18.1772 18.24 19.3429 16.8523 20.1686C15.4666 20.993 13.8939 21.4512 12.2823 21.5L11.9998 21.5ZM10.9338 20.4256L11.4998 20.501V19.93V4.06998V3.49899L10.9338 3.57436C8.89184 3.84627 7.0181 4.85049 5.661 6.40029C4.3039 7.95008 3.55579 9.93998 3.55579 12C3.55579 14.06 4.3039 16.0499 5.661 17.5997C7.0181 19.1495 8.89184 20.1537 10.9338 20.4256ZM13.0633 3.57402L12.4998 3.50195V4.06998V9.11998V10.985L13.4328 9.3701L15.9228 5.0601L16.1919 4.59418L15.7075 4.35987C14.8743 3.95685 13.9813 3.69146 13.0633 3.57402ZM12.5676 12.8186L12.4998 12.9352V13.07V17.69V19.5561L13.4328 17.94L19.1828 7.97997L19.3338 7.71842L19.1726 7.46305C18.7134 6.73571 18.1481 6.08102 17.4955 5.52064L17.0397 5.12919L16.7376 5.64861L12.5676 12.8186ZM13.7172 19.3994L13.6498 19.5156V19.65V19.7V20.3586L14.2842 20.1816C16.0711 19.683 17.6458 18.6136 18.768 17.1364C19.8903 15.6592 20.4985 13.8555 20.4998 12.0003L20.4998 11.9973C20.496 11.2811 20.4033 10.5681 20.2239 9.87474L19.9184 8.69414L19.3072 9.74936L13.7172 19.3994Z" fill="#111111" stroke="#111111"/>
</svg>
