<svg width="24" height="24" viewBox="0 0 24 24" fill="none" xmlns="http://www.w3.org/2000/svg">
<path d="M10.934 20.4256L11.5 20.501V19.93V4.07V3.49901L10.934 3.57438C8.89203 3.84629 7.01829 4.85051 5.66119 6.40031C4.30409 7.9501 3.55599 9.94 3.55599 12C3.55599 14.06 4.30409 16.0499 5.66119 17.5997C7.01829 19.1495 8.89203 20.1537 10.934 20.4256ZM12.5 19.93V20.501L13.066 20.4256C15.108 20.1537 16.9817 19.1495 18.3388 17.5997C19.6959 16.0499 20.444 14.06 20.444 12C20.444 9.94 19.6959 7.9501 18.3388 6.40031C16.9817 4.85051 15.108 3.84629 13.066 3.57438L12.5 3.49901V4.07V19.93ZM6.72209 4.10104C8.28435 3.05717 10.1211 2.5 12 2.5C13.2476 2.5 14.4829 2.74572 15.6355 3.22314C16.7881 3.70056 17.8354 4.40033 18.7175 5.28249C19.5997 6.16464 20.2994 7.21191 20.7769 8.36451C21.2543 9.5171 21.5 10.7524 21.5 12C21.5 13.8789 20.9428 15.7157 19.899 17.2779C18.8551 18.8402 17.3714 20.0578 15.6355 20.7769C13.8996 21.4959 11.9895 21.684 10.1466 21.3175C8.30383 20.9509 6.61109 20.0461 5.28249 18.7175C3.95389 17.3889 3.0491 15.6962 2.68254 13.8534C2.31598 12.0105 2.50412 10.1004 3.22315 8.36451C3.94218 6.62861 5.15982 5.14491 6.72209 4.10104Z" fill="#111111" stroke="#111111"/>
</svg>
