<svg width="24" height="24" viewBox="0 0 24 24" fill="none" xmlns="http://www.w3.org/2000/svg">
<path d="M21 3.5H10C9.86739 3.5 9.74021 3.44732 9.64645 3.35355C9.55268 3.25979 9.5 3.13261 9.5 3C9.5 2.86739 9.55268 2.74021 9.64645 2.64645C9.74021 2.55268 9.86739 2.5 10 2.5H21C21.1326 2.5 21.2598 2.55268 21.3536 2.64645C21.4473 2.74021 21.5 2.86739 21.5 3C21.5 3.13261 21.4473 3.25979 21.3536 3.35355C21.2598 3.44732 21.1326 3.5 21 3.5ZM3 20.5H21C21.1326 20.5 21.2598 20.5527 21.3536 20.6464C21.4473 20.7402 21.5 20.8674 21.5 21C21.5 21.1326 21.4473 21.2598 21.3536 21.3536C21.2598 21.4473 21.1326 21.5 21 21.5H3C2.86739 21.5 2.74021 21.4473 2.64645 21.3536C2.55268 21.2598 2.5 21.1326 2.5 21C2.5 20.8674 2.55268 20.7402 2.64645 20.6464C2.74021 20.5527 2.86739 20.5 3 20.5ZM3 6.5H21C21.1326 6.5 21.2598 6.55268 21.3536 6.64645C21.4473 6.74021 21.5 6.86739 21.5 7C21.5 7.13261 21.4473 7.25979 21.3536 7.35355C21.2598 7.44732 21.1326 7.5 21 7.5H3C2.86739 7.5 2.74021 7.44732 2.64645 7.35355C2.55268 7.25979 2.5 7.13261 2.5 7C2.5 6.86739 2.55268 6.74021 2.64645 6.64645C2.74021 6.55268 2.86739 6.5 3 6.5ZM11 16.5H21C21.1326 16.5 21.2598 16.5527 21.3536 16.6464C21.4473 16.7402 21.5 16.8674 21.5 17C21.5 17.1326 21.4473 17.2598 21.3536 17.3536C21.2598 17.4473 21.1326 17.5 21 17.5H11C10.8674 17.5 10.7402 17.4473 10.6464 17.3536C10.5527 17.2598 10.5 17.1326 10.5 17C10.5 16.8674 10.5527 16.7402 10.6464 16.6464C10.7402 16.5527 10.8674 16.5 11 16.5ZM3 10.5H21C21.1326 10.5 21.2598 10.5527 21.3536 10.6464C21.4473 10.7402 21.5 10.8674 21.5 11C21.5 11.1326 21.4473 11.2598 21.3536 11.3536C21.2598 11.4473 21.1326 11.5 21 11.5H3C2.86739 11.5 2.74021 11.4473 2.64645 11.3536C2.55268 11.2598 2.5 11.1326 2.5 11C2.5 10.8674 2.55268 10.7402 2.64645 10.6464C2.74021 10.5527 2.86739 10.5 3 10.5Z" fill="#111111" stroke="#111111"/>
</svg>
