<svg width="24" height="24" viewBox="0 0 24 24" fill="none" xmlns="http://www.w3.org/2000/svg">
<path d="M21 6.5H3C2.86739 6.5 2.74021 6.44732 2.64645 6.35355C2.55268 6.25979 2.5 6.13261 2.5 6C2.5 5.86739 2.55268 5.74022 2.64645 5.64645C2.74021 5.55268 2.86739 5.5 3 5.5H21C21.1326 5.5 21.2598 5.55268 21.3536 5.64645C21.4473 5.74021 21.5 5.86739 21.5 6C21.5 6.13261 21.4473 6.25979 21.3536 6.35355C21.2598 6.44732 21.1326 6.5 21 6.5ZM3 17.5H21C21.1326 17.5 21.2598 17.5527 21.3536 17.6464C21.4473 17.7402 21.5 17.8674 21.5 18C21.5 18.1326 21.4473 18.2598 21.3536 18.3536C21.2598 18.4473 21.1326 18.5 21 18.5H3C2.86739 18.5 2.74021 18.4473 2.64645 18.3536C2.55268 18.2598 2.5 18.1326 2.5 18C2.5 17.8674 2.55268 17.7402 2.64645 17.6464C2.74021 17.5527 2.86739 17.5 3 17.5ZM3 13.5H21C21.1326 13.5 21.2598 13.5527 21.3536 13.6464C21.4473 13.7402 21.5 13.8674 21.5 14C21.5 14.1326 21.4473 14.2598 21.3536 14.3536C21.2598 14.4473 21.1326 14.5 21 14.5H3C2.86739 14.5 2.74021 14.4473 2.64645 14.3536C2.55268 14.2598 2.5 14.1326 2.5 14C2.5 13.8674 2.55268 13.7402 2.64645 13.6464C2.74021 13.5527 2.86739 13.5 3 13.5ZM3 9.5H21C21.1326 9.5 21.2598 9.55268 21.3536 9.64645C21.4473 9.74021 21.5 9.86739 21.5 10C21.5 10.1326 21.4473 10.2598 21.3536 10.3536C21.2598 10.4473 21.1326 10.5 21 10.5H3C2.86739 10.5 2.74021 10.4473 2.64645 10.3536C2.55268 10.2598 2.5 10.1326 2.5 10C2.5 9.86739 2.55268 9.74021 2.64645 9.64645C2.74021 9.55268 2.86739 9.5 3 9.5Z" fill="#111111" stroke="#111111"/>
</svg>
