<svg width="24" height="24" viewBox="0 0 24 24" fill="none" xmlns="http://www.w3.org/2000/svg">
<path d="M21 4.5H3C2.86739 4.5 2.74021 4.44732 2.64645 4.35355C2.55268 4.25979 2.5 4.13261 2.5 4C2.5 3.86739 2.55268 3.74021 2.64645 3.64645C2.74021 3.55268 2.86739 3.5 3 3.5H21C21.1326 3.5 21.2598 3.55268 21.3536 3.64645C21.4473 3.74021 21.5 3.86739 21.5 4C21.5 4.13261 21.4473 4.25979 21.3536 4.35355C21.2598 4.44732 21.1326 4.5 21 4.5ZM3 19.5H15C15.1326 19.5 15.2598 19.5527 15.3536 19.6464C15.4473 19.7402 15.5 19.8674 15.5 20C15.5 20.1326 15.4473 20.2598 15.3536 20.3536C15.2598 20.4473 15.1326 20.5 15 20.5H3C2.86739 20.5 2.74021 20.4473 2.64645 20.3536C2.55268 20.2598 2.5 20.1326 2.5 20C2.5 19.8674 2.55268 19.7402 2.64645 19.6464C2.74021 19.5527 2.86739 19.5 3 19.5ZM3 11.5H21C21.1326 11.5 21.2598 11.5527 21.3536 11.6464C21.4473 11.7402 21.5 11.8674 21.5 12C21.5 12.1326 21.4473 12.2598 21.3536 12.3536C21.2598 12.4473 21.1326 12.5 21 12.5H3C2.86739 12.5 2.74021 12.4473 2.64645 12.3536C2.55268 12.2598 2.5 12.1326 2.5 12C2.5 11.8674 2.55268 11.7402 2.64645 11.6464C2.74021 11.5527 2.86739 11.5 3 11.5ZM3 7.5H21C21.1326 7.5 21.2598 7.55268 21.3536 7.64645C21.4473 7.74021 21.5 7.86739 21.5 8C21.5 8.13261 21.4473 8.25979 21.3536 8.35355C21.2598 8.44732 21.1326 8.5 21 8.5H3C2.86739 8.5 2.74021 8.44732 2.64645 8.35355C2.55268 8.25979 2.5 8.13261 2.5 8C2.5 7.86739 2.55268 7.74021 2.64645 7.64645C2.74021 7.55268 2.86739 7.5 3 7.5ZM3 15.5H21C21.1326 15.5 21.2598 15.5527 21.3536 15.6464C21.4473 15.7402 21.5 15.8674 21.5 16C21.5 16.1326 21.4473 16.2598 21.3536 16.3536C21.2598 16.4473 21.1326 16.5 21 16.5H3C2.86739 16.5 2.74021 16.4473 2.64645 16.3536C2.55268 16.2598 2.5 16.1326 2.5 16C2.5 15.8674 2.55268 15.7402 2.64645 15.6464C2.74021 15.5527 2.86739 15.5 3 15.5Z" fill="#111111" stroke="#111111"/>
</svg>
