<svg width="24" height="24" viewBox="0 0 24 24" fill="none" xmlns="http://www.w3.org/2000/svg">
<path d="M21.3549 7.6401L21.3578 7.64299C21.4047 7.68947 21.4419 7.74477 21.4673 7.80569C21.4927 7.86663 21.5057 7.93198 21.5057 7.99799C21.5057 8.06399 21.4927 8.12935 21.4673 8.19028C21.4419 8.2512 21.4047 8.3065 21.3578 8.35298L21.3564 8.35443L14.3564 15.3544L14.3549 15.3559C14.3085 15.4027 14.2532 15.4399 14.1922 15.4653C14.1313 15.4907 14.0659 15.5038 13.9999 15.5038C13.9339 15.5038 13.8686 15.4907 13.8077 15.4653C13.7467 15.4399 13.6914 15.4027 13.6449 15.3559L13.6439 15.3548L9.3539 11.0548L9.00002 10.7001L8.64605 11.0548L3.35605 16.3548L3.35494 16.3559C3.30846 16.4028 3.25315 16.4399 3.19223 16.4653C3.1313 16.4907 3.06595 16.5038 2.99994 16.5038C2.93393 16.5038 2.86858 16.4907 2.80765 16.4653C2.74672 16.4399 2.69142 16.4028 2.64494 16.3559L2.64204 16.353C2.59517 16.3065 2.55798 16.2512 2.53259 16.1903C2.50721 16.1293 2.49414 16.064 2.49414 15.998C2.49414 15.932 2.50721 15.8666 2.53259 15.8057C2.55798 15.7448 2.59517 15.6895 2.64204 15.643L2.64349 15.6415L8.64349 9.64154L8.6435 9.64154L8.64494 9.64009C8.69142 9.59322 8.74672 9.55603 8.80765 9.53064C8.86858 9.50526 8.93393 9.49219 8.99994 9.49219C9.06594 9.49219 9.1313 9.50526 9.19223 9.53064C9.25316 9.55603 9.30846 9.59322 9.35494 9.64009L9.35597 9.64113L13.646 13.9411L13.9998 14.2958L14.3538 13.9413L20.6438 7.64126L20.6449 7.64009C20.6914 7.59322 20.7467 7.55603 20.8077 7.53064C20.8686 7.50526 20.9339 7.49219 20.9999 7.49219C21.0659 7.49219 21.1313 7.50526 21.1922 7.53064C21.2532 7.55603 21.3085 7.59322 21.3549 7.64009L21.3549 7.6401Z" fill="#111111" stroke="#111111"/>
</svg>
