<svg width="24" height="24" viewBox="0 0 24 24" fill="none" xmlns="http://www.w3.org/2000/svg">
<path d="M18.4029 15.0844L18.5021 14.5006H17.91H17C16.8674 14.5006 16.7402 14.4479 16.6464 14.3542C16.5527 14.2604 16.5 14.1332 16.5 14.0006C16.5 13.868 16.5527 13.7408 16.6464 13.6471C16.7402 13.5533 16.8674 13.5006 17 13.5006H19C19.1326 13.5006 19.2598 13.5533 19.3536 13.6471C19.4473 13.7408 19.5 13.868 19.5 14.0006C19.5 15.9897 18.7098 17.8974 17.3033 19.3039C15.8968 20.7104 13.9891 21.5006 12 21.5006C10.0109 21.5006 8.10322 20.7104 6.6967 19.3039C5.29018 17.8974 4.5 15.9897 4.5 14.0006C4.5 13.868 4.55268 13.7408 4.64645 13.6471C4.74022 13.5533 4.86739 13.5006 5 13.5006H7C7.13261 13.5006 7.25978 13.5533 7.35355 13.6471C7.44732 13.7408 7.5 13.868 7.5 14.0006C7.5 14.1332 7.44732 14.2604 7.35355 14.3542C7.25979 14.4479 7.13261 14.5006 7 14.5006H6.09H5.49786L5.59707 15.0844C5.82285 16.413 6.45604 17.6386 7.409 18.5916C8.36197 19.5446 9.58759 20.1778 10.9162 20.4035L11.5 20.5028V19.9106V11.0006V10.5006H11H10C9.86739 10.5006 9.74021 10.4479 9.64645 10.3542C9.55268 10.2604 9.5 10.1332 9.5 10.0006C9.5 9.86801 9.55268 9.74083 9.64645 9.64706C9.74022 9.55329 9.86739 9.50061 10 9.50061H11H11.5V9.00061V7.82061V7.46706L11.1667 7.34921C10.6107 7.15263 10.142 6.76582 9.84364 6.25714C9.54524 5.74847 9.43628 5.15068 9.536 4.56943C9.63573 3.98819 9.93773 3.46091 10.3886 3.08079C10.8395 2.70067 11.4103 2.49219 12 2.49219C12.5897 2.49219 13.1605 2.70067 13.6114 3.08079C14.0623 3.46091 14.3643 3.98819 14.464 4.56943C14.5637 5.15068 14.4548 5.74847 14.1564 6.25714C13.858 6.76582 13.3893 7.15263 12.8333 7.34921L12.5 7.46706V7.82061V9.00061V9.50061H13H14C14.1326 9.50061 14.2598 9.55329 14.3536 9.64706C14.4473 9.74083 14.5 9.86801 14.5 10.0006C14.5 10.1332 14.4473 10.2604 14.3536 10.3542C14.2598 10.4479 14.1326 10.5006 14 10.5006H13H12.5V11.0006V19.9106V20.5028L13.0838 20.4035C14.4124 20.1778 15.638 19.5446 16.591 18.5916C17.544 17.6386 18.1771 16.413 18.4029 15.0844ZM11.1666 6.24782C11.4133 6.41264 11.7033 6.50061 12 6.50061C12.3978 6.50061 12.7794 6.34258 13.0607 6.06127C13.342 5.77997 13.5 5.39844 13.5 5.00061C13.5 4.70394 13.412 4.41393 13.2472 4.16726C13.0824 3.92059 12.8481 3.72833 12.574 3.6148C12.2999 3.50126 11.9983 3.47156 11.7074 3.52944C11.4164 3.58731 11.1491 3.73018 10.9393 3.93995C10.7296 4.14973 10.5867 4.41701 10.5288 4.70798C10.4709 4.99895 10.5006 5.30055 10.6142 5.57464C10.7277 5.84873 10.92 6.083 11.1666 6.24782Z" fill="#111111" stroke="#111111"/>
</svg>
