<svg width="24" height="24" viewBox="0 0 24 24" fill="none" xmlns="http://www.w3.org/2000/svg">
<path d="M12.3552 9.5229L12.3552 9.52292L12.3587 9.52642L16.6412 13.7589C16.684 13.8058 16.7175 13.8605 16.7398 13.92C16.7631 13.9818 16.7739 14.0476 16.7716 14.1136C16.7692 14.1796 16.7539 14.2445 16.7263 14.3046C16.6987 14.3646 16.6596 14.4186 16.611 14.4634L16.6044 14.4695L16.5981 14.4758C16.5514 14.5221 16.496 14.5588 16.435 14.5837C16.3741 14.6086 16.3089 14.6212 16.2431 14.6208L16.2423 14.6208C16.1114 14.6203 15.986 14.5684 15.8929 14.4764C15.8927 14.4762 15.8925 14.476 15.8923 14.4758L12.3537 10.9372L12.0002 10.5837L11.6466 10.9372L8.10769 14.4762C8.10754 14.4763 8.10739 14.4765 8.10724 14.4766C8.01361 14.5695 7.88708 14.6216 7.75519 14.6216C7.6231 14.6216 7.49637 14.5693 7.40269 14.4762L7.40229 14.4758C7.35543 14.4293 7.31823 14.374 7.29285 14.3131C7.26746 14.2522 7.25439 14.1868 7.25439 14.1208C7.25439 14.0548 7.26746 13.9894 7.29285 13.9285C7.31823 13.8676 7.35543 13.8123 7.40229 13.7658L7.4023 13.7658L7.40375 13.7644L11.6437 9.52435L11.6437 9.52435L11.6452 9.5229C11.6917 9.47604 11.747 9.43884 11.8079 9.41345C11.8688 9.38807 11.9342 9.375 12.0002 9.375C12.0662 9.375 12.1316 9.38807 12.1925 9.41345C12.2534 9.43884 12.3087 9.47604 12.3552 9.5229Z" fill="#111111" stroke="#111111"/>
</svg>
