<svg width="24" height="24" viewBox="0 0 24 24" fill="none" xmlns="http://www.w3.org/2000/svg">
<path d="M10.9363 11.6501L10.5852 12.0011L10.9338 12.3547L14.4738 15.9447L14.4752 15.9461C14.5683 16.0398 14.6206 16.1665 14.6206 16.2986C14.6206 16.4301 14.5688 16.5563 14.4765 16.6498C14.43 16.6956 14.375 16.7318 14.3147 16.7565C14.2537 16.7814 14.1885 16.794 14.1227 16.7936L14.1227 16.7936L14.1169 16.7936C14.0511 16.794 13.9859 16.7814 13.925 16.7565C13.8647 16.7319 13.8098 16.6957 13.7634 16.6501L9.52544 12.3621L9.52546 12.3621L9.52192 12.3586C9.47506 12.3121 9.43786 12.2568 9.41248 12.1959C9.38709 12.135 9.37402 12.0696 9.37402 12.0036C9.37402 11.9376 9.38709 11.8723 9.41248 11.8113C9.43786 11.7504 9.47506 11.6951 9.52192 11.6486L9.52193 11.6486L9.52338 11.6472L13.7634 7.40716L13.7634 7.40717L13.7648 7.40571C13.8113 7.35885 13.8666 7.32165 13.9275 7.29627C13.9885 7.27088 14.0538 7.25781 14.1198 7.25781C14.1858 7.25781 14.2512 7.27088 14.3121 7.29627C14.373 7.32165 14.4283 7.35885 14.4748 7.40571L14.4752 7.40611C14.5683 7.49979 14.6206 7.62652 14.6206 7.75861C14.6206 7.89049 14.5685 8.01703 14.4757 8.11066C14.4755 8.11081 14.4754 8.11096 14.4752 8.11111L10.9363 11.6501Z" fill="#111111" stroke="#111111"/>
</svg>
