<svg width="24" height="24" viewBox="0 0 24 24" fill="none" xmlns="http://www.w3.org/2000/svg">
<path d="M11.6448 11.1072L11.6433 11.1057L8.64333 8.10572L8.64336 8.10568L8.63839 8.10084C8.53984 8.00499 8.4834 7.87392 8.4815 7.73647C8.47959 7.59901 8.53236 7.46643 8.62821 7.36788C8.72405 7.26933 8.85512 7.2129 8.99258 7.21099C9.12832 7.2091 9.25931 7.26054 9.35747 7.35413L11.6424 9.68898L11.9998 10.0541L12.3571 9.68898L14.6421 7.35413C14.6901 7.30836 14.7464 7.27222 14.8081 7.24768C14.8713 7.22251 14.9389 7.21004 15.007 7.21099C15.075 7.21193 15.1422 7.22627 15.2048 7.25319C15.2673 7.28011 15.3239 7.31908 15.3713 7.36788C15.4188 7.41668 15.4562 7.47434 15.4814 7.53758C15.5065 7.60083 15.519 7.66841 15.5181 7.73647C15.5171 7.80453 15.5028 7.87173 15.4759 7.93426C15.4489 7.99678 15.41 8.05338 15.3612 8.10084L15.3611 8.10081L15.3562 8.10572L12.3562 11.1057L12.3562 11.1057L12.3548 11.1072C12.3083 11.154 12.253 11.1912 12.1921 11.2166C12.1311 11.242 12.0658 11.2551 11.9998 11.2551C11.9338 11.2551 11.8684 11.242 11.8075 11.2166C11.7466 11.1912 11.6913 11.154 11.6448 11.1072ZM12.3541 15.1921L13.7898 13.7501V13.7864L14.6433 12.9328C14.7379 12.8383 14.8661 12.7852 14.9998 12.7852C15.1335 12.7852 15.2617 12.8383 15.3562 12.9328C15.4508 13.0274 15.5039 13.1556 15.5039 13.2893C15.5039 13.423 15.4508 13.5512 15.3562 13.6457L12.3562 16.6457L12.3548 16.6472C12.3083 16.694 12.253 16.7312 12.1921 16.7566C12.1311 16.782 12.0658 16.7951 11.9998 16.7951C11.9338 16.7951 11.8684 16.782 11.8075 16.7566C11.7466 16.7312 11.6913 16.694 11.6448 16.6472L11.6433 16.6457L8.64333 13.6457L8.64336 13.6457L8.63839 13.6408C8.53984 13.545 8.4834 13.4139 8.4815 13.2765C8.47959 13.139 8.53236 13.0064 8.62821 12.9079C8.72405 12.8093 8.85512 12.7529 8.99258 12.751C9.12892 12.7491 9.26047 12.801 9.35876 12.8954L11.6455 15.1921L11.9998 15.5479L12.3541 15.1921Z" fill="#111111" stroke="#111111"/>
</svg>
