<svg width="24" height="24" viewBox="0 0 24 24" fill="none" xmlns="http://www.w3.org/2000/svg">
<path d="M14.2898 11.458L12.3526 9.51231L12.3541 9.51077L11.9998 9.15799L11.6455 9.51077L11.647 9.51231L14.2898 11.458ZM14.2898 11.458C14.3827 11.5517 14.4933 11.6261 14.6152 11.6769M14.2898 11.458L14.6152 11.6769M14.6152 11.6769C14.7371 11.7276 14.8678 11.7538 14.9998 11.7538M14.6152 11.6769L14.9998 11.7538M14.9998 11.7538C15.1318 11.7538 15.2625 11.7276 15.3844 11.6769M14.9998 11.7538L15.3844 11.6769M15.3844 11.6769C15.5062 11.6261 15.6168 11.5517 15.7098 11.458L15.3844 11.6769ZM11.6433 12.8915L11.6433 12.8915L11.6448 12.8901C11.6913 12.8432 11.7466 12.806 11.8075 12.7806C11.8684 12.7553 11.9338 12.7422 11.9998 12.7422C12.0658 12.7422 12.1311 12.7553 12.1921 12.7806C12.2528 12.8059 12.308 12.843 12.3543 12.8896C12.3545 12.8898 12.3546 12.8899 12.3548 12.8901L15.3539 15.9292L15.3539 15.9292L15.3577 15.933C15.4045 15.9795 15.4417 16.0348 15.4671 16.0957C15.4925 16.1566 15.5056 16.222 15.5056 16.288C15.5056 16.354 15.4925 16.4193 15.4671 16.4803C15.4417 16.5412 15.4045 16.5965 15.3577 16.643L15.3577 16.643L15.3548 16.6459C15.3083 16.6927 15.253 16.7299 15.1921 16.7553C15.1311 16.7807 15.0658 16.7938 14.9998 16.7938C14.9338 16.7938 14.8684 16.7807 14.8075 16.7553C14.747 16.7301 14.692 16.6933 14.6458 16.6469C14.6454 16.6465 14.6451 16.6462 14.6448 16.6459L12.3571 14.3083L11.9998 13.9431L11.6424 14.3083L9.35746 16.6431C9.25931 16.7367 9.12832 16.7882 8.99258 16.7863C8.85512 16.7844 8.72405 16.7279 8.62821 16.6294C8.53236 16.5308 8.47959 16.3982 8.4815 16.2608C8.4834 16.1233 8.53984 15.9923 8.63839 15.8964L8.63842 15.8964L8.64333 15.8915L11.6433 12.8915ZM9.35594 11.1047C9.26143 11.1991 9.13334 11.2521 8.99978 11.2521C8.86608 11.2521 8.73787 11.199 8.64333 11.1044C8.5488 11.0099 8.49569 10.8817 8.49569 10.748C8.49569 10.6143 8.5488 10.4861 8.64333 10.3915L11.6433 7.39154L11.6433 7.39154L11.6448 7.39009C11.6913 7.34322 11.7466 7.30603 11.8075 7.28064C11.8684 7.25526 11.9338 7.24219 11.9998 7.24219C12.0658 7.24219 12.1311 7.25526 12.1921 7.28064C12.253 7.30603 12.3083 7.34322 12.3548 7.39009L12.3548 7.39009L12.3562 7.39154L15.3562 10.3915L15.3562 10.3915L15.3577 10.393C15.4045 10.4395 15.4417 10.4948 15.4671 10.5557C15.4925 10.6166 15.5056 10.682 15.5056 10.748C15.5056 10.814 15.4925 10.8793 15.4671 10.9403C15.4417 11.0012 15.4045 11.0565 15.3577 11.103L15.3577 11.103L15.3548 11.1059C15.3083 11.1527 15.253 11.1899 15.1921 11.2153C15.1311 11.2407 15.0658 11.2538 14.9998 11.2538C14.9338 11.2538 14.8684 11.2407 14.8075 11.2153C14.7466 11.1899 14.6913 11.1527 14.6448 11.1059L14.6441 11.1052L12.3541 8.8052L11.9998 8.44933L11.6455 8.8052L9.35622 11.1044C9.35613 11.1045 9.35604 11.1046 9.35594 11.1047Z" fill="#111111" stroke="#111111"/>
</svg>
