<svg width="24" height="24" viewBox="0 0 24 24" fill="none" xmlns="http://www.w3.org/2000/svg">
<path d="M16.6477 9.52821L16.6481 9.5286C16.695 9.57509 16.7322 9.63039 16.7575 9.69132C16.7829 9.75225 16.796 9.8176 16.796 9.88361C16.796 9.94961 16.7829 10.015 16.7575 10.0759C16.7322 10.1367 16.6951 10.1919 16.6484 10.2383C16.6483 10.2384 16.6482 10.2385 16.6481 10.2386L12.3587 14.478L12.3587 14.478L12.3552 14.4815C12.3087 14.5284 12.2534 14.5656 12.1925 14.5909C12.1316 14.6163 12.0662 14.6294 12.0002 14.6294C11.9342 14.6294 11.8688 14.6163 11.8079 14.5909C11.747 14.5656 11.6917 14.5284 11.6452 14.4815L11.6437 14.4801L7.40375 10.2401L7.40375 10.24L7.40229 10.2386C7.35543 10.1921 7.31823 10.1368 7.29285 10.0759C7.26746 10.015 7.25439 9.94961 7.25439 9.88361C7.25439 9.8176 7.26746 9.75225 7.29285 9.69132C7.31823 9.63039 7.35543 9.57509 7.40229 9.52861L7.40269 9.52821C7.49637 9.43508 7.6231 9.38281 7.75519 9.38281C7.88708 9.38281 8.01361 9.43492 8.10724 9.52776C8.10739 9.52791 8.10754 9.52806 8.10769 9.52821L11.6466 13.0672L11.9977 13.4182L12.3513 13.0696L15.9413 9.52963L15.9427 9.52821C16.0364 9.43508 16.1631 9.38281 16.2952 9.38281C16.4273 9.38281 16.554 9.43508 16.6477 9.52821Z" fill="#111111" stroke="#111111"/>
</svg>
