<svg width="24" height="24" viewBox="0 0 24 24" fill="none" xmlns="http://www.w3.org/2000/svg">
<path d="M17.2908 8.89873C17.199 8.81556 17.0794 8.76921 16.955 8.76921C16.8233 8.76921 16.697 8.82115 16.6034 8.91372C16.6031 8.91402 16.6028 8.91431 16.6025 8.9146L17.2908 8.89873ZM17.2908 8.89873L17.2833 8.90963C17.333 8.95491 17.3731 9.00976 17.4011 9.07088C17.4291 9.13201 17.4445 9.19816 17.4464 9.26538C17.4483 9.3326 17.4366 9.3995 17.412 9.46209C17.3876 9.52402 17.3512 9.58046 17.3048 9.62812C16.8362 10.0951 16.2016 10.3574 15.54 10.3574C14.8775 10.3574 14.2421 10.0944 13.7733 9.62622L13.7721 9.625C13.7252 9.57852 13.688 9.52322 13.6627 9.46229C13.6373 9.40136 13.6242 9.33601 13.6242 9.27C13.6242 9.20399 13.6373 9.13864 13.6627 9.07771C13.688 9.01678 13.7252 8.96148 13.7721 8.915L13.7725 8.9146C13.8662 8.82148 13.9929 8.76921 14.125 8.76921C14.2567 8.76921 14.383 8.82115 14.4766 8.91372C14.4769 8.91402 14.4772 8.91431 14.4775 8.9146L17.2908 8.89873ZM14.8285 14.0307L14.836 14.0281L14.8433 14.0252C14.9055 14.0007 14.972 13.9889 15.0388 13.9905C15.1056 13.9922 15.1715 14.0072 15.2324 14.0347C15.2933 14.0622 15.3481 14.1017 15.3935 14.1507C15.4389 14.1998 15.4741 14.2574 15.4968 14.3203C15.5195 14.3832 15.5294 14.45 15.5259 14.5167C15.5224 14.5835 15.5055 14.6489 15.4763 14.709C15.4471 14.7691 15.4061 14.8228 15.3557 14.8668C15.3054 14.9108 15.2468 14.9442 15.1833 14.9652L15.1833 14.965L15.1718 14.9691L10.9718 16.4691L10.9694 16.47C10.9159 16.4894 10.8594 16.4996 10.8024 16.5C10.6864 16.498 10.5747 16.4557 10.4864 16.3803C10.3973 16.3043 10.3377 16.1994 10.3181 16.0839C10.2985 15.9684 10.32 15.8497 10.3789 15.7485C10.4377 15.6475 10.53 15.5703 10.6397 15.5303C10.64 15.5302 10.6402 15.5301 10.6405 15.53L14.8285 14.0307ZM10.2908 8.89873L10.2833 8.90963C10.333 8.95491 10.3731 9.00976 10.4011 9.07088C10.4291 9.13201 10.4445 9.19816 10.4464 9.26538C10.4483 9.3326 10.4366 9.3995 10.412 9.46209C10.3876 9.52402 10.3512 9.58046 10.3048 9.62812C9.8362 10.0951 9.20161 10.3574 8.54 10.3574C7.8775 10.3574 7.24209 10.0944 6.77334 9.62622L6.77211 9.625C6.72524 9.57852 6.68804 9.52322 6.66266 9.46229C6.63728 9.40136 6.62421 9.33601 6.62421 9.27C6.62421 9.20399 6.63728 9.13864 6.66266 9.07771C6.68804 9.01678 6.72524 8.96148 6.77211 8.915L6.7725 8.9146C6.86619 8.82148 6.99291 8.76921 7.125 8.76921C7.25668 8.76921 7.38302 8.82115 7.47662 8.91372C7.61573 9.05355 7.78105 9.16458 7.96314 9.24044C8.14593 9.31659 8.34199 9.3558 8.54 9.3558C8.73802 9.3558 8.93408 9.31659 9.11687 9.24044C9.29895 9.16458 9.46428 9.05355 9.60339 8.91372C9.69699 8.82115 9.82333 8.76921 9.955 8.76921C10.0794 8.76921 10.199 8.81556 10.2908 8.89873ZM6.72209 4.10104C8.28435 3.05717 10.1211 2.5 12 2.5C13.2476 2.5 14.4829 2.74572 15.6355 3.22314C16.7881 3.70056 17.8354 4.40033 18.7175 5.28249C19.5997 6.16464 20.2994 7.21191 20.7769 8.36451C21.2543 9.5171 21.5 10.7524 21.5 12C21.5 13.8789 20.9428 15.7157 19.899 17.2779C18.8551 18.8402 17.3714 20.0578 15.6355 20.7769C13.8996 21.4959 11.9895 21.684 10.1466 21.3175C8.30383 20.9509 6.61109 20.0461 5.28249 18.7175C3.95389 17.3889 3.0491 15.6962 2.68254 13.8534C2.31598 12.0105 2.50412 10.1004 3.22315 8.36451C3.94218 6.62861 5.15982 5.14491 6.72209 4.10104ZM7.27766 19.0675C8.67548 20.0015 10.3189 20.5 12 20.5C14.2543 20.5 16.4164 19.6045 18.0104 18.0104C19.6045 16.4163 20.5 14.2543 20.5 12C20.5 10.3189 20.0015 8.67547 19.0675 7.27765C18.1335 5.87984 16.806 4.79037 15.2528 4.14702C13.6996 3.50368 11.9906 3.33535 10.3417 3.66333C8.6929 3.9913 7.17834 4.80085 5.9896 5.98959C4.80085 7.17834 3.9913 8.69289 3.66333 10.3417C3.33536 11.9906 3.50368 13.6996 4.14703 15.2528C4.79037 16.806 5.87984 18.1335 7.27766 19.0675Z" fill="#111111" stroke="#111111"/>
</svg>
