<svg width="24" height="24" viewBox="0 0 24 24" fill="none" xmlns="http://www.w3.org/2000/svg">
<path d="M14.554 4.87216L14.5625 4.86233C14.8974 4.47634 15.1527 4.02801 15.3139 3.54307C15.4178 3.23044 15.4812 2.90656 15.5031 2.57932C14.6818 2.76173 13.9352 3.20373 13.3784 3.84705L14.554 4.87216ZM14.554 4.87216L14.5459 4.88243M14.554 4.87216L14.5459 4.88243M14.5459 4.88243C14.2449 5.26832 13.859 5.57975 13.4183 5.79262C13.1238 5.93486 12.8101 6.03053 12.4883 6.07716C12.5035 5.75169 12.5619 5.42896 12.6627 5.11759C12.8138 4.65054 13.0571 4.21855 13.3782 3.84721L14.5459 4.88243ZM16.9602 12.6256L16.9601 12.6256L16.9602 12.6319C16.9637 13.5911 17.2483 14.5283 17.7785 15.3277C18.2228 15.9973 18.8231 16.5457 19.525 16.9273C19.2297 17.7424 18.8345 18.5183 18.3479 19.2371C17.9271 19.8431 17.5156 20.4044 17.0642 20.8195C16.6176 21.2302 16.1736 21.4589 15.6886 21.4701C15.1657 21.4822 14.8167 21.3331 14.3502 21.1339L14.3328 21.1264C13.8466 20.9188 13.2698 20.68 12.4002 20.68C11.5346 20.68 10.9707 20.9033 10.4844 21.1117C10.4599 21.1222 10.4357 21.1326 10.4118 21.1429C9.97401 21.3311 9.62663 21.4805 9.10123 21.5004C8.63244 21.5181 8.17729 21.2878 7.70888 20.8444C7.23994 20.4005 6.8174 19.7995 6.41724 19.1942L6.41242 19.187L6.40736 19.1798C5.57142 18.0067 4.83214 16.321 4.51733 14.5631C4.20184 12.8014 4.32299 11.0312 5.12358 9.63929L5.12363 9.63932L5.12735 9.63262C5.49802 8.96466 6.03549 8.40417 6.68733 8.00583C7.33789 7.60826 8.08021 7.38575 8.84215 7.35988C9.38282 7.35256 9.91753 7.53394 10.4732 7.75274C10.535 7.77706 10.598 7.80222 10.6615 7.82761C10.8706 7.91113 11.0862 7.99724 11.2875 8.06508C11.5508 8.15379 11.8409 8.23 12.1302 8.23C12.4293 8.23 12.7441 8.1366 13.0263 8.03661C13.1882 7.97927 13.3762 7.90537 13.5642 7.8315C13.6949 7.78015 13.8255 7.72881 13.9473 7.68306C14.5938 7.44016 15.2513 7.24992 15.9091 7.31739L15.9256 7.31908L15.9421 7.31967C16.588 7.34302 17.2195 7.51653 17.7866 7.82644C18.2065 8.05589 18.5826 8.35543 18.8991 8.71099C18.3773 9.11577 17.9392 9.62093 17.6117 10.1986C17.1918 10.9391 16.9676 11.7744 16.9602 12.6256Z" fill="#111111" stroke="#111111"/>
</svg>
