<svg width="24" height="24" viewBox="0 0 24 24" fill="none" xmlns="http://www.w3.org/2000/svg">
<path d="M21.4537 11.8008L21.4536 11.8008L21.4574 11.81C21.5074 11.9317 21.5074 12.0683 21.4574 12.19L21.4573 12.19L21.4537 12.1992C21.4305 12.2592 21.3959 12.3141 21.3518 12.361L18.8563 14.8564L18.8549 14.8579C18.8084 14.9048 18.7531 14.942 18.6922 14.9673C18.6313 14.9927 18.5659 15.0058 18.4999 15.0058C18.4339 15.0058 18.3685 14.9927 18.3076 14.9673C18.2467 14.942 18.1914 14.9048 18.1449 14.8579L18.1449 14.8579L18.142 14.855C18.0951 14.8085 18.0579 14.7532 18.0326 14.6923C18.0072 14.6314 17.9941 14.566 17.9941 14.5C17.9941 14.434 18.0072 14.3686 18.0326 14.3077C18.0579 14.247 18.0949 14.1918 18.1415 14.1455C18.1417 14.1453 18.1418 14.1452 18.142 14.145L18.9412 13.3558L19.8078 12.5H18.5899H12.9999H12.4999V13V16C12.4999 16.1326 12.4472 16.2598 12.3534 16.3536C12.2597 16.4473 12.1325 16.5 11.9999 16.5C11.8673 16.5 11.7401 16.4473 11.6463 16.3536C11.5526 16.2598 11.4999 16.1326 11.4999 16V13V12.5H10.9999H5.4099H4.19197L5.05857 13.3558L5.8578 14.145C5.85791 14.1451 5.85803 14.1452 5.85815 14.1453C5.90484 14.1918 5.94192 14.2469 5.96724 14.3077C5.99263 14.3686 6.00569 14.434 6.00569 14.5C6.00569 14.566 5.99263 14.6314 5.96724 14.6923C5.94186 14.7532 5.90466 14.8085 5.8578 14.855L5.85778 14.855L5.8549 14.8579C5.80842 14.9048 5.75311 14.942 5.69218 14.9673C5.63125 14.9927 5.5659 15.0058 5.4999 15.0058C5.43389 15.0058 5.36854 14.9927 5.30761 14.9673C5.24668 14.942 5.19138 14.9048 5.1449 14.8579L5.14345 14.8564L2.64797 12.361C2.60393 12.3141 2.56933 12.2592 2.54608 12.1992L2.54617 12.1992L2.54239 12.19C2.49238 12.0683 2.49238 11.9317 2.54239 11.81L2.54248 11.81L2.54608 11.8008C2.56933 11.7408 2.60393 11.6859 2.64797 11.639L5.14345 9.14355C5.23798 9.04902 5.3662 8.99591 5.4999 8.99591C5.63359 8.99591 5.76181 9.04902 5.85634 9.14355C5.95088 9.23809 6.00399 9.36631 6.00399 9.5C6.00399 9.63325 5.95123 9.76107 5.85727 9.85551L5.05857 10.6442L4.19197 11.5H5.4099H10.9999H11.4999V11V8C11.4999 7.86739 11.5526 7.74022 11.6463 7.64645C11.7401 7.55268 11.8673 7.5 11.9999 7.5C12.1325 7.5 12.2597 7.55268 12.3534 7.64645C12.4472 7.74022 12.4999 7.86739 12.4999 8V11V11.5H12.9999H18.5899H19.8078L18.9412 10.6442L18.1434 9.85645C18.1431 9.85612 18.1428 9.8558 18.1425 9.85547C18.0486 9.76103 17.9958 9.63324 17.9958 9.5C17.9958 9.36631 18.0489 9.23809 18.1434 9.14355C18.238 9.04902 18.3662 8.99591 18.4999 8.99591C18.6336 8.99591 18.7618 9.04902 18.8563 9.14355L21.3518 11.639C21.3959 11.6859 21.4305 11.7408 21.4537 11.8008Z" fill="#111111" stroke="#111111"/>
</svg>
