<svg width="24" height="24" viewBox="0 0 24 24" fill="none" xmlns="http://www.w3.org/2000/svg">
<path d="M21.3549 16.6384L21.3578 16.6413C21.4047 16.6878 21.4419 16.7431 21.4672 16.804C21.4926 16.8649 21.5057 16.9303 21.5057 16.9963C21.5057 17.0623 21.4926 17.1276 21.4672 17.1886C21.4419 17.2495 21.4047 17.3048 21.3578 17.3513L21.3563 17.3527L17.3608 21.3482C17.314 21.3923 17.2591 21.4268 17.1991 21.4501L17.1884 21.4543L17.1778 21.459C17.1217 21.4837 17.0612 21.4965 16.9999 21.4965C16.9386 21.4965 16.8781 21.4837 16.822 21.459L16.8114 21.4543L16.8006 21.4501C16.7407 21.4268 16.6858 21.3923 16.639 21.3482L12.6434 17.3527C12.5966 17.3059 12.5595 17.2503 12.5342 17.1892C12.5088 17.128 12.4958 17.0625 12.4958 16.9963C12.4958 16.9301 12.5088 16.8645 12.5342 16.8034C12.5595 16.7422 12.5966 16.6866 12.6434 16.6398C12.6903 16.593 12.7458 16.5559 12.807 16.5306C12.8681 16.5052 12.9337 16.4922 12.9999 16.4922C13.0661 16.4922 13.1316 16.5052 13.1928 16.5306C13.2539 16.5559 13.3094 16.593 13.3562 16.6397C13.3563 16.6398 13.3563 16.6398 13.3563 16.6398L15.6456 18.9391L16.4999 19.7971V18.5863V8.99628C16.4999 8.59845 16.3419 8.21692 16.0606 7.93562C15.7793 7.65431 15.3977 7.49628 14.9999 7.49628H5.4099H4.19906L5.05711 8.3506L7.35711 10.6406L7.3578 10.6413C7.40466 10.6878 7.44186 10.7431 7.46724 10.804C7.49263 10.8649 7.50569 10.9303 7.50569 10.9963C7.50569 11.0623 7.49263 11.1276 7.46724 11.1886C7.44186 11.2495 7.40466 11.3048 7.3578 11.3513L7.35778 11.3513L7.3549 11.3542C7.30842 11.401 7.25311 11.4382 7.19218 11.4636C7.13126 11.489 7.0659 11.5021 6.9999 11.5021C6.93389 11.5021 6.86854 11.489 6.80761 11.4636C6.74668 11.4382 6.69138 11.401 6.6449 11.3542L6.64345 11.3527L2.64797 7.35725C2.60393 7.3104 2.56933 7.2555 2.54608 7.19553L2.54617 7.19549L2.54239 7.18628C2.49238 7.06455 2.49238 6.92801 2.54239 6.80628L2.54248 6.80632L2.54608 6.79703C2.56933 6.73706 2.60393 6.68216 2.64797 6.63531L6.64345 2.63983L6.29068 2.28707L6.64345 2.63983C6.69026 2.59302 6.74583 2.55589 6.80699 2.53056C6.86815 2.50523 6.9337 2.49219 6.9999 2.49219C7.06609 2.49219 7.13165 2.50523 7.1928 2.53056C7.25396 2.55589 7.30953 2.59302 7.35634 2.63983C7.40315 2.68664 7.44028 2.74221 7.46562 2.80337C7.49095 2.86453 7.50399 2.93008 7.50399 2.99628C7.50399 3.06248 7.49095 3.12803 7.46562 3.18919C7.44033 3.25022 7.4033 3.30569 7.35662 3.35244C7.35653 3.35254 7.35644 3.35263 7.35634 3.35273L5.05711 5.64196L4.19906 6.49628H5.4099H14.9999C15.6629 6.49628 16.2988 6.75967 16.7677 7.22851C17.2365 7.69735 17.4999 8.33324 17.4999 8.99628V18.5863V19.7971L18.3542 18.9391L20.6442 16.6391L20.6449 16.6384C20.6914 16.5915 20.7467 16.5543 20.8076 16.5289C20.8685 16.5035 20.9339 16.4905 20.9999 16.4905C21.0659 16.4905 21.1313 16.5035 21.1922 16.5289C21.2531 16.5543 21.3084 16.5915 21.3549 16.6384Z" fill="#111111" stroke="#111111"/>
</svg>
