<svg width="24" height="24" viewBox="0 0 24 24" fill="none" xmlns="http://www.w3.org/2000/svg">
<path d="M17.4538 12.1992C17.4306 12.2592 17.396 12.3141 17.3519 12.361L13.3564 16.3564L13.355 16.3579C13.3085 16.4048 13.2532 16.442 13.1923 16.4673C13.1314 16.4927 13.066 16.5058 13 16.5058C12.934 16.5058 12.8686 16.4927 12.8077 16.4673C12.7468 16.442 12.6915 16.4048 12.645 16.3579L12.6421 16.355C12.5952 16.3085 12.558 16.2532 12.5327 16.1923C12.5073 16.1314 12.4942 16.066 12.4942 16C12.4942 15.934 12.5073 15.8686 12.5327 15.8077C12.558 15.7468 12.5952 15.6915 12.6421 15.645L12.6428 15.6443L14.9428 13.3543L15.8008 12.5H14.59H3C2.86739 12.5 2.74021 12.4473 2.64645 12.3536C2.55268 12.2598 2.5 12.1326 2.5 12C2.5 11.8674 2.55268 11.7402 2.64645 11.6464C2.74021 11.5527 2.86739 11.5 3 11.5H14.59H15.8008L14.9428 10.6457L12.6436 8.35645C12.6435 8.35635 12.6434 8.35626 12.6433 8.35616C12.5966 8.30941 12.5596 8.25394 12.5343 8.19291C12.5089 8.13175 12.4959 8.0662 12.4959 8C12.4959 7.9338 12.5089 7.86825 12.5343 7.80709C12.5596 7.74593 12.5967 7.69036 12.6436 7.64355C12.6904 7.59674 12.7459 7.55961 12.8071 7.53428C12.8683 7.50895 12.9338 7.49591 13 7.49591C13.0662 7.49591 13.1317 7.50895 13.1929 7.53428C13.2541 7.55961 13.3096 7.59674 13.3564 7.64355L17.3519 11.639C17.396 11.6859 17.4306 11.7408 17.4538 11.8008L17.4537 11.8008L17.4575 11.81C17.5075 11.9317 17.5075 12.0683 17.4575 12.19L17.4574 12.19L17.4538 12.1992ZM20.6464 4.64645C20.7402 4.55268 20.8674 4.5 21 4.5C21.1326 4.5 21.2598 4.55268 21.3536 4.64645C21.4473 4.74021 21.5 4.86739 21.5 5V19C21.5 19.1326 21.4473 19.2598 21.3536 19.3536C21.2598 19.4473 21.1326 19.5 21 19.5C20.8674 19.5 20.7402 19.4473 20.6464 19.3536C20.5527 19.2598 20.5 19.1326 20.5 19V5C20.5 4.86739 20.5527 4.74021 20.6464 4.64645Z" fill="#111111" stroke="#111111"/>
</svg>
