<svg width="24" height="24" viewBox="0 0 24 24" fill="none" xmlns="http://www.w3.org/2000/svg">
<path d="M15.6464 14.9396L16.5002 15.7944V14.5863V6.99628C16.5002 6.86367 16.5529 6.73649 16.6466 6.64273C16.7404 6.54896 16.8676 6.49628 17.0002 6.49628C17.1328 6.49628 17.26 6.54896 17.3537 6.64273C17.4475 6.73649 17.5002 6.86367 17.5002 6.99628V16.9927C17.4991 17.0572 17.4855 17.1209 17.4602 17.1802L17.4602 17.1802L17.4584 17.1845C17.4077 17.3067 17.3106 17.4038 17.1884 17.4545L17.1884 17.4545L17.1841 17.4563C17.1248 17.4816 17.0611 17.4952 16.9966 17.4963H7.00019C6.86758 17.4963 6.7404 17.4436 6.64663 17.3498C6.55286 17.2561 6.50019 17.1289 6.50019 16.9963C6.50019 16.8637 6.55286 16.7365 6.64663 16.6427C6.7404 16.549 6.86758 16.4963 7.00019 16.4963H14.5902H15.7983L14.9435 15.6425L6.64374 7.35273C6.64372 7.35271 6.6437 7.35269 6.64368 7.35267C6.54918 7.25814 6.49609 7.12995 6.49609 6.99628C6.49609 6.86259 6.5492 6.73437 6.64374 6.63983C6.73827 6.5453 6.86649 6.49219 7.00019 6.49219C7.13385 6.49219 7.26204 6.54528 7.35657 6.63978C7.35659 6.63979 7.35661 6.63981 7.35663 6.63983L15.6464 14.9396Z" fill="#111111" stroke="#111111"/>
</svg>
