<svg width="24" height="24" viewBox="0 0 24 24" fill="none" xmlns="http://www.w3.org/2000/svg">
<path d="M7.59 11.5H8.80793L7.94132 10.6442L7.14262 9.85552C7.09625 9.8089 7.05945 9.75366 7.03428 9.69291C7.00895 9.63175 6.99591 9.5662 6.99591 9.5C6.99591 9.36631 7.04902 9.23809 7.14355 9.14355C7.23809 9.04902 7.36631 8.99591 7.5 8.99591C7.63369 8.99591 7.76191 9.04902 7.85645 9.14355L10.3519 11.639C10.396 11.6859 10.4306 11.7408 10.4538 11.8008L10.4537 11.8008L10.4575 11.81C10.5075 11.9317 10.5075 12.0683 10.4575 12.19L10.4574 12.19L10.4538 12.1992C10.4306 12.2592 10.396 12.3141 10.3519 12.361L7.85644 14.8564L7.855 14.8579C7.80852 14.9048 7.75322 14.942 7.69229 14.9673C7.63136 14.9927 7.56601 15.0058 7.5 15.0058C7.43399 15.0058 7.36864 14.9927 7.30771 14.9673C7.24678 14.942 7.19148 14.9048 7.145 14.8579L7.1421 14.855C7.09524 14.8085 7.05804 14.7532 7.03266 14.6923C7.00727 14.6314 6.9942 14.566 6.9942 14.5C6.9942 14.434 7.00727 14.3686 7.03266 14.3077C7.05797 14.2469 7.09503 14.1918 7.14171 14.1454C7.14184 14.1453 7.14197 14.1451 7.1421 14.145L7.94132 13.3558L8.80793 12.5H7.59H4H3.5V13V17C3.5 17.1326 3.44732 17.2598 3.35355 17.3536C3.25979 17.4473 3.13261 17.5 3 17.5C2.86739 17.5 2.74021 17.4473 2.64645 17.3536C2.55268 17.2598 2.5 17.1326 2.5 17V7C2.5 6.86739 2.55268 6.74022 2.64645 6.64645C2.74021 6.55268 2.86739 6.5 3 6.5C3.13261 6.5 3.25979 6.55268 3.35355 6.64645C3.44732 6.74022 3.5 6.86739 3.5 7V11V11.5H4H7.59ZM20 11.5H20.5V11V7C20.5 6.86739 20.5527 6.74021 20.6464 6.64645C20.7402 6.55268 20.8674 6.5 21 6.5C21.1326 6.5 21.2598 6.55268 21.3536 6.64645C21.4473 6.74021 21.5 6.86739 21.5 7V17C21.5 17.1326 21.4473 17.2598 21.3536 17.3536C21.2598 17.4473 21.1326 17.5 21 17.5C20.8674 17.5 20.7402 17.4473 20.6464 17.3536C20.5527 17.2598 20.5 17.1326 20.5 17V13V12.5H20H16.41H15.1921L16.0587 13.3558L16.8579 14.145C16.858 14.1451 16.8582 14.1453 16.8583 14.1454C16.905 14.1918 16.942 14.247 16.9673 14.3077C16.9927 14.3686 17.0058 14.434 17.0058 14.5C17.0058 14.566 16.9927 14.6314 16.9673 14.6923C16.942 14.7532 16.9048 14.8085 16.8579 14.855L16.855 14.8579C16.8085 14.9048 16.7532 14.942 16.6923 14.9673C16.6314 14.9927 16.566 15.0058 16.5 15.0058C16.434 15.0058 16.3686 14.9927 16.3077 14.9673C16.2468 14.942 16.1915 14.9048 16.145 14.8579L16.1436 14.8564L13.6481 12.361C13.604 12.3141 13.5694 12.2592 13.5462 12.1992L13.5463 12.1992L13.5425 12.19C13.4925 12.0683 13.4925 11.9317 13.5425 11.81L13.5426 11.81L13.5462 11.8008C13.5694 11.7408 13.604 11.6859 13.6481 11.639L16.1436 9.14355C16.1904 9.09674 16.2459 9.05961 16.3071 9.03428C16.3683 9.00895 16.4338 8.99591 16.5 8.99591C16.5662 8.99591 16.6317 9.00895 16.6929 9.03428C16.7541 9.05961 16.8096 9.09674 16.8564 9.14355C16.9033 9.19037 16.9404 9.24594 16.9657 9.30709C16.9911 9.36825 17.0041 9.4338 17.0041 9.5C17.0041 9.5662 16.9911 9.63175 16.9657 9.69291C16.9406 9.75367 16.9037 9.80891 16.8574 9.85553C16.8571 9.85583 16.8568 9.85614 16.8564 9.85645L16.0587 10.6442L15.1921 11.5H16.41H20Z" fill="#111111" stroke="#111111"/>
</svg>
