<svg width="24" height="24" viewBox="0 0 24 24" fill="none" xmlns="http://www.w3.org/2000/svg">
<path d="M13.3543 18.9428L15.6436 16.6436C15.6436 16.6435 15.6436 16.6435 15.6437 16.6434C15.7382 16.549 15.8664 16.4959 16 16.4959C16.0662 16.4959 16.1317 16.5089 16.1929 16.5343C16.2541 16.5596 16.3096 16.5967 16.3564 16.6436C16.451 16.7381 16.5041 16.8663 16.5041 17C16.5041 17.1337 16.451 17.2619 16.3564 17.3564L12.3609 21.3519C12.3141 21.396 12.2592 21.4306 12.1992 21.4538L12.1885 21.458L12.1779 21.4627C12.1218 21.4874 12.0613 21.5002 12 21.5002C11.9387 21.5002 11.8782 21.4874 11.8221 21.4627L11.8115 21.458L11.8008 21.4538C11.7408 21.4306 11.6859 21.396 11.639 21.3519L7.64355 17.3564C7.54902 17.2619 7.49591 17.1337 7.49591 17C7.49591 16.8663 7.54902 16.7381 7.64355 16.6436C7.73809 16.549 7.86631 16.4959 8 16.4959C8.13356 16.4959 8.26166 16.5489 8.35616 16.6433C8.35626 16.6434 8.35635 16.6435 8.35645 16.6436L10.6457 18.9428L11.5 19.8008V18.59V7C11.5 6.86739 11.5527 6.74022 11.6464 6.64645C11.7402 6.55268 11.8674 6.5 12 6.5C12.1326 6.5 12.2598 6.55268 12.3536 6.64645C12.4473 6.74022 12.5 6.86739 12.5 7V18.59V19.8008L13.3543 18.9428ZM5 2.5H19C19.1326 2.5 19.2598 2.55268 19.3536 2.64645C19.4473 2.74021 19.5 2.86739 19.5 3C19.5 3.13261 19.4473 3.25979 19.3536 3.35355C19.2598 3.44732 19.1326 3.5 19 3.5H5C4.86739 3.5 4.74022 3.44732 4.64645 3.35355C4.55268 3.25979 4.5 3.13261 4.5 3C4.5 2.86739 4.55268 2.74021 4.64645 2.64645C4.74022 2.55268 4.86739 2.5 5 2.5Z" fill="#111111" stroke="#111111"/>
</svg>
