<svg width="24" height="24" viewBox="0 0 24 24" fill="none" xmlns="http://www.w3.org/2000/svg">
<path d="M9.35494 6.64009L9.35493 6.6401L9.35784 6.64299C9.4047 6.68947 9.4419 6.74477 9.46728 6.8057C9.49267 6.86663 9.50574 6.93198 9.50574 6.99799C9.50574 7.06399 9.49267 7.12934 9.46728 7.19027C9.4419 7.2512 9.4047 7.3065 9.35784 7.35298L9.3568 7.35402L5.0568 11.644L4.70201 11.998L5.0568 12.352L9.3568 16.642L9.35784 16.643C9.4047 16.6895 9.4419 16.7448 9.46728 16.8057C9.49267 16.8666 9.50574 16.932 9.50574 16.998C9.50574 17.064 9.49267 17.1293 9.46728 17.1903C9.4419 17.2512 9.4047 17.3065 9.35784 17.353L9.35783 17.353L9.35494 17.3559C9.30845 17.4028 9.25315 17.4399 9.19223 17.4653C9.1313 17.4907 9.06595 17.5038 8.99994 17.5038C8.93393 17.5038 8.86858 17.4907 8.80765 17.4653C8.74673 17.4399 8.69142 17.4028 8.64494 17.3559L8.64349 17.3544L3.64349 12.3544L3.6435 12.3544L3.64204 12.353C3.59518 12.3065 3.55798 12.2512 3.53259 12.1903C3.50721 12.1293 3.49414 12.064 3.49414 11.998C3.49414 11.932 3.50721 11.8666 3.53259 11.8057C3.55798 11.7448 3.59518 11.6895 3.64204 11.643L3.64204 11.643L3.64349 11.6415L8.64349 6.64154L8.6435 6.64154L8.64494 6.64009C8.69142 6.59322 8.74672 6.55603 8.80765 6.53064C8.86858 6.50526 8.93393 6.49219 8.99994 6.49219C9.06594 6.49219 9.1313 6.50526 9.19223 6.53064C9.25316 6.55603 9.30846 6.59322 9.35494 6.64009ZM20.3564 11.6415L20.3578 11.643C20.4047 11.6895 20.4419 11.7448 20.4673 11.8057C20.4927 11.8666 20.5057 11.932 20.5057 11.998C20.5057 12.064 20.4927 12.1293 20.4673 12.1903C20.4419 12.2512 20.4047 12.3065 20.3578 12.353L20.3564 12.3544L15.3564 17.3544L15.3549 17.3559C15.3085 17.4028 15.2532 17.4399 15.1922 17.4653C15.1313 17.4907 15.0659 17.5038 14.9999 17.5038C14.9339 17.5038 14.8686 17.4907 14.8077 17.4653C14.7467 17.4399 14.6914 17.4028 14.6449 17.3559L14.642 17.353C14.5952 17.3065 14.558 17.2512 14.5326 17.1903C14.5072 17.1293 14.4941 17.064 14.4941 16.998C14.4941 16.932 14.5072 16.8666 14.5326 16.8057C14.558 16.7448 14.5952 16.6895 14.642 16.643L14.6431 16.642L18.9431 12.352L19.2979 11.998L18.9431 11.644L14.6435 7.35443C14.6434 7.35432 14.6433 7.35421 14.6432 7.3541C14.5488 7.2596 14.4958 7.13152 14.4958 6.99799C14.4958 6.93179 14.5089 6.86624 14.5342 6.80508C14.5596 6.74392 14.5967 6.68835 14.6435 6.64154C14.738 6.547 14.8662 6.49389 14.9999 6.49389C15.0661 6.49389 15.1317 6.50693 15.1928 6.53227C15.254 6.5576 15.3096 6.59473 15.3564 6.64154L20.3564 11.6415Z" fill="#111111" stroke="#111111"/>
</svg>
