<svg width="24" height="24" viewBox="0 0 24 24" fill="none" xmlns="http://www.w3.org/2000/svg">
<path d="M19.6464 18.9436L20.5 19.7971V18.59V15C20.5 14.8674 20.5527 14.7402 20.6464 14.6464C20.7402 14.5527 20.8674 14.5 21 14.5C21.1326 14.5 21.2598 14.5527 21.3536 14.6464C21.4473 14.7402 21.5 14.8674 21.5 15V20.9964C21.4989 21.0609 21.4853 21.1246 21.46 21.1839L21.4582 21.1882C21.4075 21.3104 21.3104 21.4075 21.1882 21.4582L21.1882 21.4582L21.184 21.46C21.1246 21.4853 21.0609 21.4989 20.9964 21.5H15C14.8674 21.5 14.7402 21.4473 14.6464 21.3536C14.5527 21.2598 14.5 21.1326 14.5 21C14.5 20.8674 14.5527 20.7402 14.6464 20.6464C14.7402 20.5527 14.8674 20.5 15 20.5H18.59H19.7971L18.9436 19.6464L4.35355 5.05645L3.5 4.20289V5.41V9C3.5 9.13261 3.44732 9.25979 3.35355 9.35355C3.25979 9.44732 3.13261 9.5 3 9.5C2.86739 9.5 2.74021 9.44732 2.64645 9.35355C2.55268 9.25979 2.5 9.13261 2.5 9V3.00354C2.5011 2.93906 2.51467 2.87539 2.53996 2.81604L2.53998 2.81605L2.54176 2.81176C2.5925 2.68959 2.68959 2.5925 2.81176 2.54176L2.81177 2.54178L2.81604 2.53996C2.87539 2.51467 2.93906 2.5011 3.00354 2.5H9C9.13261 2.5 9.25979 2.55268 9.35355 2.64645C9.44732 2.74021 9.5 2.86739 9.5 3C9.5 3.13261 9.44732 3.25979 9.35355 3.35355C9.25979 3.44732 9.13261 3.5 9 3.5H5.41H4.20289L5.05645 4.35355L19.6464 18.9436Z" fill="#111111" stroke="#111111"/>
</svg>
