<svg width="24" height="24" viewBox="0 0 24 24" fill="none" xmlns="http://www.w3.org/2000/svg">
<path d="M12.5 6V11.8682C12.4961 11.912 12.4942 11.9559 12.4942 12C12.4942 12.0441 12.4961 12.088 12.5 12.1318V18C12.5 18.1326 12.4473 18.2598 12.3536 18.3536C12.2598 18.4473 12.1326 18.5 12 18.5C11.8674 18.5 11.7402 18.4473 11.6464 18.3536C11.5527 18.2598 11.5 18.1326 11.5 18V12.0259C11.5002 12.0173 11.5002 12.0086 11.5002 12C11.5002 11.9914 11.5002 11.9827 11.5 11.9741V6C11.5 5.86739 11.5527 5.74022 11.6464 5.64645C11.7402 5.55268 11.8674 5.5 12 5.5C12.1326 5.5 12.2598 5.55268 12.3536 5.64645C12.4473 5.74022 12.5 5.86739 12.5 6ZM10.5 11.9857V12.0143C10.4982 12.0707 10.4855 12.1262 10.4627 12.1779L10.458 12.1885L10.4538 12.1992C10.4306 12.2592 10.396 12.3141 10.3519 12.361L7.85644 14.8564L7.855 14.8579C7.80852 14.9048 7.75322 14.942 7.69229 14.9673C7.63136 14.9927 7.56601 15.0058 7.5 15.0058C7.43399 15.0058 7.36864 14.9927 7.30771 14.9673C7.24678 14.942 7.19148 14.9048 7.145 14.8579L7.1421 14.855C7.09524 14.8085 7.05804 14.7532 7.03266 14.6923C7.00727 14.6314 6.9942 14.566 6.9942 14.5C6.9942 14.434 7.00727 14.3686 7.03266 14.3077C7.05797 14.2469 7.09503 14.1918 7.14171 14.1454C7.14184 14.1453 7.14197 14.1451 7.1421 14.145L7.94132 13.3558L8.80793 12.5H7.59H3C2.86739 12.5 2.74021 12.4473 2.64645 12.3536C2.55268 12.2598 2.5 12.1326 2.5 12C2.5 11.8674 2.55268 11.7402 2.64645 11.6464C2.74021 11.5527 2.86739 11.5 3 11.5H7.59H8.80793L7.94132 10.6442L7.14262 9.85552C7.09625 9.8089 7.05945 9.75366 7.03428 9.69291C7.00895 9.63175 6.99591 9.5662 6.99591 9.5C6.99591 9.36631 7.04902 9.23809 7.14355 9.14355C7.23809 9.04902 7.36631 8.99591 7.5 8.99591C7.63369 8.99591 7.76191 9.04902 7.85645 9.14355L10.3519 11.639C10.396 11.6859 10.4306 11.7408 10.4538 11.8008L10.458 11.8115L10.4627 11.8221C10.4855 11.8738 10.4982 11.9293 10.5 11.9857ZM13.5 12.0759V11.9241C13.5061 11.8842 13.5171 11.8451 13.5327 11.8077C13.558 11.7468 13.5952 11.6915 13.6421 11.645L13.6436 11.6436L16.1436 9.14355C16.1904 9.09674 16.2459 9.05961 16.3071 9.03428C16.3683 9.00895 16.4338 8.99591 16.5 8.99591C16.5662 8.99591 16.6317 9.00895 16.6929 9.03428C16.7541 9.05961 16.8096 9.09674 16.8564 9.14355C16.9033 9.19037 16.9404 9.24594 16.9657 9.30709C16.9911 9.36825 17.0041 9.4338 17.0041 9.5C17.0041 9.5662 16.9911 9.63175 16.9657 9.69291C16.9406 9.75367 16.9037 9.80892 16.8573 9.85554C16.857 9.85584 16.8567 9.85614 16.8564 9.85645L16.0587 10.6442L15.1921 11.5H16.41H21C21.1326 11.5 21.2598 11.5527 21.3536 11.6464C21.4473 11.7402 21.5 11.8674 21.5 12C21.5 12.1326 21.4473 12.2598 21.3536 12.3536C21.2598 12.4473 21.1326 12.5 21 12.5H16.41H15.1921L16.0587 13.3558L16.8579 14.145C16.858 14.1451 16.8582 14.1453 16.8583 14.1454C16.905 14.1918 16.942 14.247 16.9673 14.3077C16.9927 14.3686 17.0058 14.434 17.0058 14.5C17.0058 14.566 16.9927 14.6314 16.9673 14.6923C16.942 14.7532 16.9048 14.8085 16.8579 14.855L16.855 14.8579C16.8085 14.9048 16.7532 14.942 16.6923 14.9673C16.6314 14.9927 16.566 15.0058 16.5 15.0058C16.434 15.0058 16.3686 14.9927 16.3077 14.9673C16.2468 14.942 16.1915 14.9048 16.145 14.8579L16.1436 14.8564L13.6436 12.3564L13.6421 12.355C13.5952 12.3085 13.558 12.2532 13.5327 12.1923C13.5171 12.1549 13.5061 12.1158 13.5 12.0759Z" fill="#111111" stroke="#111111"/>
</svg>
