<svg width="24" height="24" viewBox="0 0 24 24" fill="none" xmlns="http://www.w3.org/2000/svg">
<path d="M13.0005 12L13.7505 11.567L18.312 8.9333C18.4268 8.86695 18.5106 8.75772 18.5449 8.62963C18.5792 8.50153 18.5612 8.36506 18.4949 8.25022C18.4286 8.13537 18.3194 8.05155 18.1914 8.01718C18.0634 7.98284 17.927 8.00069 17.8122 8.0668C17.8122 8.06681 17.8122 8.06682 17.8121 8.06684C17.8121 8.06688 17.812 8.06691 17.8119 8.06695L13.2502 10.7008L12.5002 11.1338V10.2678V5C12.5002 4.86739 12.4475 4.74022 12.3537 4.64645C12.26 4.55268 12.1328 4.5 12.0002 4.5C11.8676 4.5 11.7404 4.55268 11.6466 4.64645C11.5529 4.74022 11.5002 4.86739 11.5002 5V10.2678V11.1338L10.7502 10.7008L6.18846 8.06692C6.07358 8.00069 5.9371 7.98279 5.80902 8.01715C5.68094 8.05152 5.57176 8.13534 5.50546 8.25019C5.43917 8.36503 5.4212 8.5015 5.4555 8.6296C5.48978 8.75763 5.57348 8.86681 5.68821 8.93317C5.68822 8.93318 5.68823 8.93319 5.68824 8.9332C5.68829 8.93322 5.68833 8.93325 5.68838 8.93327L10.2499 11.567L10.9999 12L10.2499 12.433L5.68838 15.0667L13.0005 12ZM13.0005 12L13.7505 12.433M13.0005 12L13.7505 12.433M13.7505 12.433L18.2574 15.0352L18.312 15.0667C18.4268 15.1331 18.5106 15.2423 18.5449 15.3704C18.5792 15.4985 18.5612 15.635 18.4949 15.7498C18.4286 15.8647 18.3194 15.9485 18.1914 15.9828C18.0633 16.0172 17.9268 15.9993 17.8119 15.9331L13.2502 13.2992L12.5002 12.8662V13.7322V19C12.5002 19.1326 12.4475 19.2598 12.3537 19.3536C12.26 19.4473 12.1328 19.5 12.0002 19.5C11.8676 19.5 11.7404 19.4473 11.6466 19.3536C11.5529 19.2598 11.5002 19.1326 11.5002 19V13.7322V12.8662M13.7505 12.433L11.5002 12.8662M11.5002 12.8662L10.7502 13.2992M11.5002 12.8662L10.7502 13.2992M10.7502 13.2992L6.18846 15.933C6.07358 15.9993 5.9371 16.0172 5.80902 15.9828C5.68094 15.9485 5.57176 15.8646 5.50546 15.7498C5.43917 15.6349 5.4212 15.4985 5.4555 15.3704C5.48978 15.2423 5.57348 15.1332 5.6882 15.0668L10.7502 13.2992Z" fill="#111111" stroke="#111111"/>
</svg>
