<svg width="24" height="24" viewBox="0 0 24 24" fill="none" xmlns="http://www.w3.org/2000/svg">
<path d="M11.9999 2.5H12C13.2475 2.5 14.4829 2.74572 15.6354 3.22314C16.788 3.70056 17.8353 4.40033 18.7175 5.28249C19.5996 6.16464 20.2994 7.21191 20.7768 8.36451C21.2542 9.5171 21.5 10.7524 21.5 12V12.7475C21.493 13.4202 21.2769 14.074 20.8816 14.6183C20.4858 15.1632 19.93 15.5712 19.2916 15.7856C18.6531 16 17.9637 16.0101 17.3193 15.8146C16.6748 15.619 16.1073 15.2275 15.6957 14.6944L15.3282 14.2185L14.9273 14.6666C14.4811 15.1654 13.9169 15.5443 13.2863 15.7685C12.6558 15.9927 11.979 16.0551 11.3181 15.9501C10.6572 15.845 10.0332 15.5758 9.50324 15.1671C8.97331 14.7583 8.5544 14.2232 8.28488 13.6106C8.01535 12.9981 7.90383 12.3277 7.96051 11.6609C8.0172 10.994 8.24029 10.3521 8.60936 9.7938C8.97842 9.23553 9.48165 8.77878 10.073 8.46538C10.6643 8.15199 11.3248 7.99196 11.994 7.99997L11.9964 7.99999C12.7898 8.00558 13.563 8.24993 14.2155 8.70122L14.8317 9.12739L14.9888 8.39488C15.0132 8.28116 15.0765 8.17951 15.1678 8.10741C15.259 8.03532 15.3726 7.99729 15.4888 7.99988L15.4888 8H15.5C15.6326 8 15.7597 8.05268 15.8535 8.14645C15.9473 8.24021 16 8.36739 16 8.5V12.75C16 13.3467 16.237 13.919 16.659 14.341C17.0809 14.7629 17.6532 15 18.25 15C18.8467 15 19.419 14.7629 19.8409 14.341C20.2629 13.919 20.5 13.3467 20.5 12.75V12V11.9999C20.4995 10.1288 19.8818 8.31019 18.7424 6.826C17.6031 5.34181 16.0059 4.27502 14.1985 3.79106C12.3911 3.3071 10.4746 3.43301 8.74604 4.14928C7.01751 4.86554 5.57361 6.13213 4.63826 7.75262C3.70291 9.37311 3.32839 11.2569 3.57276 13.112C3.81714 14.967 4.66677 16.6896 5.98988 18.0125C7.31299 19.3355 9.03566 20.1849 10.8907 20.4291C12.7458 20.6733 14.6296 20.2985 16.25 19.363L16.2592 19.3577L16.2682 19.352C16.3251 19.3158 16.3887 19.2915 16.4553 19.2805C16.5218 19.2696 16.5899 19.2722 16.6554 19.2883C16.7209 19.3043 16.7825 19.3334 16.8364 19.3739C16.8904 19.4144 16.9356 19.4653 16.9693 19.5237C17.0031 19.5821 17.0246 19.6467 17.0328 19.7136C17.0409 19.7806 17.0354 19.8485 17.0166 19.9132C16.9978 19.978 16.9661 20.0383 16.9234 20.0905C16.8808 20.1427 16.8279 20.1857 16.7682 20.217L16.759 20.2218L16.7499 20.227C15.488 20.9557 14.0753 21.3843 12.6212 21.4796C11.1671 21.575 9.71057 21.3346 8.36426 20.777C7.01795 20.2193 5.81796 19.3595 4.85713 18.2639C3.8963 17.1683 3.20039 15.8664 2.82322 14.4588C2.44606 13.0512 2.39777 11.5758 2.68207 10.1466C2.96637 8.71735 3.57565 7.37269 4.46277 6.21661C5.3499 5.06054 6.49108 4.12404 7.79804 3.47957C9.10501 2.8351 10.5427 2.49994 11.9999 2.5ZM10.3332 14.4944C10.8266 14.8241 11.4066 15 12 15C12.7956 15 13.5587 14.6839 14.1213 14.1213C14.6839 13.5587 15 12.7956 15 12C15 11.4067 14.824 10.8266 14.4944 10.3333C14.1647 9.83994 13.6962 9.45542 13.148 9.22836C12.5998 9.0013 11.9966 8.94189 11.4147 9.05764C10.8327 9.1734 10.2982 9.45912 9.87863 9.87868C9.45907 10.2982 9.17335 10.8328 9.0576 11.4147C8.94184 11.9967 9.00125 12.5999 9.22831 13.1481C9.45538 13.6962 9.83989 14.1648 10.3332 14.4944Z" fill="#111111" stroke="#111111"/>
</svg>
