<svg width="24" height="24" viewBox="0 0 24 24" fill="none" xmlns="http://www.w3.org/2000/svg">
<path d="M15.5 6V6.5H16H19C19.663 6.5 20.2989 6.76339 20.7678 7.23223C21.2366 7.70107 21.5 8.33696 21.5 9V18C21.5 18.663 21.2366 19.2989 20.7678 19.7678C20.2989 20.2366 19.663 20.5 19 20.5H5C4.33696 20.5 3.70107 20.2366 3.23223 19.7678C2.76339 19.2989 2.5 18.663 2.5 18V9C2.5 8.33696 2.76339 7.70107 3.23223 7.23223C3.70107 6.76339 4.33696 6.5 5 6.5H8H8.5V6V5C8.5 4.60218 8.65804 4.22064 8.93934 3.93934C9.22064 3.65804 9.60218 3.5 10 3.5H14C14.3978 3.5 14.7794 3.65804 15.0607 3.93934C15.342 4.22064 15.5 4.60218 15.5 5V6ZM10 4.5H9.5V5V6V6.5H10H14H14.5V6V5V4.5H14H10ZM4.16265 11.9172L3.5 11.6892V12.39V18C3.5 18.3978 3.65804 18.7794 3.93934 19.0607C4.22065 19.342 4.60218 19.5 5 19.5H19C19.3978 19.5 19.7794 19.342 20.0607 19.0607C20.342 18.7794 20.5 18.3978 20.5 18V12.39V11.6963L19.8419 11.9157L15.17 13.4729C15.113 13.4895 15.0541 13.4986 14.9948 13.5H9H8.96623L8.93277 13.5045C8.88531 13.511 8.83735 13.5125 8.78966 13.509L4.16265 11.9172ZM20.1581 10.7543L20.5 10.6404V10.28V9C20.5 8.60218 20.342 8.22064 20.0607 7.93934C19.7794 7.65804 19.3978 7.5 19 7.5H5C4.60217 7.5 4.22064 7.65804 3.93934 7.93934C3.65804 8.22064 3.5 8.60218 3.5 9V10.28V10.6404L3.84189 10.7543L9.00189 12.4743L9.07886 12.5H9.16H14.84H14.9211L14.9981 12.4743L20.1581 10.7543Z" fill="#111111" stroke="#111111"/>
</svg>
