<svg width="24" height="24" viewBox="0 0 24 24" fill="none" xmlns="http://www.w3.org/2000/svg">
<path d="M22 5L21.5 4.99935C21.4995 5.41549 21.3949 5.82489 21.1957 6.1903C20.9966 6.5557 20.7092 6.86551 20.3598 7.09152L20.0217 7.3102L20.1633 7.68713L22.4569 13.7949C22.4612 13.8151 22.464 13.8356 22.4654 13.8562L22.4692 13.9131L22.4858 13.9678C22.49 13.9816 22.4935 13.9957 22.4963 14.0099C22.4957 14.0166 22.495 14.0245 22.4944 14.0332L22.4936 14.0457L22.4934 14.0581C22.4798 14.9757 22.1057 15.851 21.4521 16.495C20.7984 17.139 19.9176 17.5001 19 17.5001C18.0824 17.5001 17.2016 17.139 16.5479 16.495C15.8943 15.851 15.5202 14.9757 15.5066 14.0581L15.5064 14.0447L15.5055 14.0313C15.5049 14.0234 15.5043 14.0162 15.5037 14.01C15.5065 13.9958 15.51 13.9817 15.5142 13.9679L15.5308 13.9132L15.5347 13.8562C15.5361 13.8356 15.5389 13.8151 15.5431 13.7949L17.8394 7.67999L17.9818 7.30069L17.6403 7.08273C17.2874 6.85752 16.997 6.54696 16.7959 6.17978L16.7875 6.16433L16.778 6.14952C16.6431 5.9398 16.4553 5.76937 16.2336 5.65544C16.0159 5.54363 15.7731 5.49012 15.5288 5.5H13H12.5V6V20V20.5H13H16C16.1326 20.5 16.2598 20.5527 16.3536 20.6464C16.4473 20.7402 16.5 20.8674 16.5 21C16.5 21.1326 16.4473 21.2598 16.3536 21.3536C16.2598 21.4473 16.1326 21.5 16 21.5H8C7.86739 21.5 7.74021 21.4473 7.64645 21.3536C7.55268 21.2598 7.5 21.1326 7.5 21C7.5 20.8674 7.55268 20.7402 7.64645 20.6464C7.74021 20.5527 7.86739 20.5 8 20.5H11H11.5V20V6V5.5H11H8.47121C8.22688 5.49011 7.98406 5.54362 7.76642 5.65543C7.54464 5.76936 7.35685 5.93979 7.22201 6.14952L7.21248 6.16433L7.20402 6.17978C7.00296 6.54696 6.71256 6.85752 6.35968 7.08273L6.01814 7.30069L6.16058 7.67999L8.45694 13.7949C8.46116 13.8151 8.46397 13.8356 8.46536 13.8562L8.46919 13.9132L8.48576 13.9678C8.48997 13.9816 8.49349 13.9957 8.49633 14.0099C8.49565 14.0166 8.49496 14.0245 8.4944 14.0332L8.49359 14.0457L8.49341 14.0581C8.47978 14.9757 8.10574 15.851 7.45208 16.495C6.79842 17.139 5.91763 17.5001 5 17.5001C4.08237 17.5001 3.20158 17.139 2.54792 16.495C1.89426 15.851 1.52022 14.9757 1.50659 14.0581L1.5064 14.0447L1.50548 14.0313C1.50494 14.0234 1.50429 14.0162 1.50366 14.01C1.50651 13.9958 1.51004 13.9817 1.51425 13.9679L1.53084 13.9132L1.53468 13.8562C1.53607 13.8356 1.53888 13.8151 1.5431 13.7949L3.83673 7.68713L3.97828 7.31019L3.6402 7.09152C3.29078 6.86551 3.00343 6.5557 2.80429 6.1903C2.60521 5.82501 2.50061 5.41575 2.5 4.99974C2.50007 4.86722 2.55274 4.74015 2.64645 4.64645C2.74021 4.55268 2.86739 4.5 3 4.5C3.13261 4.5 3.25978 4.55268 3.35355 4.64645C3.44732 4.74022 3.5 4.86739 3.5 5V5.00018C3.50012 5.33441 3.61184 5.65903 3.81743 5.92255C4.02302 6.18606 4.31072 6.37339 4.63488 6.45481C4.95904 6.53623 5.3011 6.50708 5.60681 6.37198C5.91072 6.23769 6.16141 6.00633 6.31961 5.71428C6.53182 5.3392 6.84137 5.02835 7.21562 4.81458C7.59113 4.60009 8.01774 4.49134 8.4501 4.4999L8.4501 4.5H8.46H11H11.5V4V3C11.5 2.86739 11.5527 2.74021 11.6464 2.64645C11.7402 2.55268 11.8674 2.5 12 2.5C12.1326 2.5 12.2598 2.55268 12.3536 2.64645C12.4473 2.74021 12.5 2.86739 12.5 3V4V4.5H13H15.54V4.5001L15.5499 4.4999C15.9823 4.49134 16.4089 4.60009 16.7844 4.81458C17.1586 5.02836 17.4682 5.33921 17.6804 5.71429C17.8386 6.00634 18.0893 6.23769 18.3932 6.37198C18.6989 6.50708 19.041 6.53623 19.3651 6.45481C19.6893 6.37339 19.977 6.18607 20.1826 5.92255C20.3882 5.65903 20.4999 5.33441 20.5 5.00018V5C20.5 4.86739 20.5527 4.74021 20.6464 4.64645C20.7402 4.55268 20.8674 4.5 21 4.5C21.1326 4.5 21.2598 4.55268 21.3536 4.64645C21.4473 4.74021 21.5 4.86739 21.5 5H22ZM22 5C22 4.73478 21.8946 4.48043 21.7071 4.29289C21.5196 4.10536 21.2652 4 21 4C20.7348 4 20.4804 4.10536 20.2929 4.29289C20.1054 4.48043 20 4.73478 20 5L20.6313 7.51135C21.0508 7.24006 21.3957 6.86818 21.6347 6.42956C21.8738 5.99095 21.9993 5.49952 22 5ZM1.49563 13.9381C1.49542 13.9368 1.49563 13.9381 1.49588 13.9399L1.49563 13.9381ZM5.46808 8.67975L5 7.43331L4.53192 8.67975L2.97552 12.8242L2.72174 13.5H3.4436H6.5564H7.27826L7.02448 12.8242L5.46808 8.67975ZM7.15403 15.2528L7.59524 14.5H6.72266H3.26855H2.40246L2.83555 15.25C3.05493 15.6299 3.3704 15.9454 3.75029 16.1648C4.13018 16.3843 4.56112 16.4998 4.99982 16.5V16.5L5.00562 16.5C5.44089 16.4951 5.86749 16.3777 6.24395 16.1591C6.62041 15.9406 6.93393 15.6284 7.15403 15.2528ZM19.4681 8.67975L19 7.43331L18.5319 8.67975L16.9755 12.8242L16.7217 13.5H17.4436H20.5564H21.2783L21.0245 12.8242L19.4681 8.67975ZM18.9998 16.5V16.5L19.0056 16.5C19.4409 16.4951 19.8675 16.3777 20.2439 16.1591C20.6204 15.9406 20.9339 15.6284 21.154 15.2528L21.5952 14.5H20.7227H17.2686H16.4025L16.8356 15.25C17.0549 15.6299 17.3704 15.9454 17.7503 16.1648C18.1302 16.3843 18.5611 16.4998 18.9998 16.5ZM8.5043 13.9386C8.50445 13.9376 8.50452 13.9371 8.50437 13.9381L8.5043 13.9386Z" fill="#111111" stroke="#111111"/>
</svg>
