<svg width="24" height="24" viewBox="0 0 24 24" fill="none" xmlns="http://www.w3.org/2000/svg">
<path d="M9.17221 11.642L9.1726 11.6416C9.26629 11.5485 9.39301 11.4962 9.5251 11.4962C9.6572 11.4962 9.78392 11.5485 9.87761 11.6416L9.878 11.642C9.92487 11.6885 9.96207 11.7438 9.98745 11.8047C10.0128 11.8657 10.0259 11.931 10.0259 11.997C10.0259 12.063 10.0128 12.1284 9.98745 12.1893C9.96207 12.2502 9.92487 12.3055 9.878 12.352L9.87761 12.3524C9.78392 12.4455 9.6572 12.4978 9.5251 12.4978C9.39301 12.4978 9.26629 12.4455 9.17261 12.3524L9.17221 12.352C9.12534 12.3055 9.08815 12.2502 9.06276 12.1893C9.03738 12.1284 9.02431 12.063 9.02431 11.997C9.02431 11.931 9.03738 11.8657 9.06276 11.8047C9.08815 11.7438 9.12534 11.6885 9.17221 11.642ZM11.6447 14.1195L11.6451 14.1191C11.6916 14.0723 11.7469 14.0351 11.8078 14.0097C11.8687 13.9843 11.9341 13.9712 12.0001 13.9712C12.0661 13.9712 12.1315 13.9843 12.1924 14.0097C12.2533 14.0351 12.3086 14.0723 12.3551 14.1191L12.3555 14.1195C12.4486 14.2132 12.5009 14.3399 12.5009 14.472C12.5009 14.6041 12.4486 14.7308 12.3555 14.8245L12.3551 14.8249C12.3086 14.8718 12.2533 14.909 12.1924 14.9344C12.1315 14.9598 12.0661 14.9728 12.0001 14.9728C11.9341 14.9728 11.8687 14.9598 11.8078 14.9344C11.7469 14.909 11.6916 14.8718 11.6451 14.8249L11.6447 14.8245C11.5516 14.7308 11.4993 14.6041 11.4993 14.472C11.4993 14.3399 11.5516 14.2132 11.6447 14.1195ZM16.176 2.49413C17.5764 2.53129 18.9092 3.10139 19.9031 4.0871L19.8947 4.0987C20.8843 5.09891 21.453 6.44036 21.4837 7.84708C21.5143 9.25379 21.0047 10.6188 20.0597 11.6612L19.7552 11.997L20.0597 12.3329C21.0047 13.3753 21.5143 14.7403 21.4837 16.147C21.453 17.553 20.8849 18.8938 19.8961 19.8939C18.8985 20.8852 17.5589 21.4566 16.1528 21.4907C14.7461 21.5248 13.3798 21.0185 12.3351 20.0758L11.998 19.7716L11.6628 20.0779C10.6628 20.9918 9.35685 21.4981 8.0022 21.497C6.94424 21.4894 5.91094 21.1767 5.02618 20.5965C4.14104 20.0161 3.44217 19.1926 3.01345 18.2249C2.58474 17.2571 2.44437 16.1862 2.60922 15.1406C2.77406 14.0951 3.2371 13.1193 3.94277 12.3304L4.2426 11.9952L3.94093 11.6616C2.99707 10.6181 2.48908 9.25241 2.52148 7.84569C2.55386 6.43963 3.12366 5.09943 4.11369 4.10056C5.11093 3.11191 6.44858 2.54212 7.85246 2.50805C9.25702 2.47396 10.6214 2.97867 11.6656 3.91864L12.0013 4.22084L12.3359 3.91746C13.385 2.96638 14.7605 2.45656 16.176 2.49413ZM19.1886 4.81851L19.181 4.81064L19.173 4.80312C18.3612 4.03826 17.2978 3.59666 16.1831 3.5615C15.0683 3.52634 13.9792 3.90005 13.1208 4.61224L12.6986 4.9626L13.0866 5.35058L18.6466 10.9106L19.0285 11.2925L19.3799 10.8823C20.11 10.0297 20.4951 8.93516 20.4597 7.81331C20.4243 6.69145 19.971 5.62332 19.1886 4.81851ZM4.81159 19.1755L4.81719 19.1813L4.82297 19.1869C5.63267 19.968 6.70154 20.4237 7.82574 20.4672C8.94993 20.5107 10.0508 20.1388 10.9184 19.4226L11.3426 19.0724L10.9537 18.6835L5.35366 13.0835L4.9717 12.7015L4.62034 13.1118C3.89025 13.9643 3.50511 15.0589 3.54049 16.1807C3.57587 17.3026 4.02923 18.3707 4.81159 19.1755ZM19.1757 19.1884L19.1758 19.1885L19.1847 19.1795C20.0228 18.3364 20.4933 17.1959 20.4933 16.007C20.4933 14.8182 20.0228 13.6777 19.1847 12.8345L19.1837 12.8335L11.1837 4.83347L11.1826 4.83242C10.3395 3.99429 9.19894 3.52386 8.01011 3.52386C6.82127 3.52386 5.68074 3.99429 4.83761 4.83242L4.8376 4.83242L4.8355 4.83453C3.99737 5.67766 3.52693 6.81819 3.52693 8.00703C3.52693 9.19586 3.99737 10.3364 4.8355 11.1795L4.83655 11.1806L12.8366 19.1806L12.8365 19.1807L12.8445 19.1884C13.6968 20.0035 14.8307 20.4585 16.0101 20.4585C17.1895 20.4585 18.3234 20.0035 19.1757 19.1884ZM14.1222 11.642L14.1226 11.6416C14.2163 11.5485 14.343 11.4962 14.4751 11.4962C14.6072 11.4962 14.7339 11.5485 14.8276 11.6416L14.828 11.642C14.8749 11.6885 14.9121 11.7438 14.9375 11.8047C14.9628 11.8657 14.9759 11.931 14.9759 11.997C14.9759 12.063 14.9628 12.1284 14.9375 12.1893C14.9121 12.2502 14.8749 12.3055 14.828 12.352L14.8276 12.3524C14.7339 12.4455 14.6072 12.4978 14.4751 12.4978C14.343 12.4978 14.2163 12.4455 14.1226 12.3524L14.1222 12.352C14.0753 12.3055 14.0381 12.2502 14.0128 12.1893C13.9874 12.1284 13.9743 12.063 13.9743 11.997C13.9743 11.931 13.9874 11.8657 14.0128 11.8047C14.0381 11.7438 14.0753 11.6885 14.1222 11.642ZM11.6447 9.16953L11.6451 9.16913C11.6916 9.12226 11.7469 9.08507 11.8078 9.05968C11.8687 9.0343 11.9341 9.02123 12.0001 9.02123C12.0661 9.02123 12.1315 9.0343 12.1924 9.05968C12.2533 9.08507 12.3086 9.12226 12.3551 9.16913L12.3555 9.16953C12.4486 9.26321 12.5009 9.38993 12.5009 9.52203C12.5009 9.65412 12.4486 9.78084 12.3555 9.87453L12.3551 9.87492C12.3086 9.92179 12.2533 9.95899 12.1924 9.98437C12.1315 10.0098 12.0661 10.0228 12.0001 10.0228C11.9341 10.0228 11.8687 10.0098 11.8078 9.98437C11.7469 9.95899 11.6916 9.92179 11.6451 9.87492L11.6447 9.87453C11.5516 9.78084 11.4993 9.65412 11.4993 9.52203C11.4993 9.38993 11.5516 9.26321 11.6447 9.16953Z" fill="#111111" stroke="#111111"/>
</svg>
