<svg width="24" height="24" viewBox="0 0 24 24" fill="none" xmlns="http://www.w3.org/2000/svg">
<path d="M7.5 12V11.5H7H6C5.86739 11.5 5.74022 11.4473 5.64645 11.3536C5.55268 11.2598 5.5 11.1326 5.5 11C5.5 10.8674 5.55268 10.7402 5.64645 10.6464C5.74022 10.5527 5.86739 10.5 6 10.5H18C18.1326 10.5 18.2598 10.5527 18.3536 10.6464C18.4473 10.7402 18.5 10.8674 18.5 11C18.5 11.1326 18.4473 11.2598 18.3536 11.3536C18.2598 11.4473 18.1326 11.5 18 11.5H17H16.5V12V21C16.5 21.1326 16.4473 21.2598 16.3536 21.3536C16.2598 21.4473 16.1326 21.5 16 21.5C15.8674 21.5 15.7402 21.4473 15.6464 21.3536C15.5527 21.2598 15.5 21.1326 15.5 21V20V19.5H15H13H12.5V20V21C12.5 21.1326 12.4473 21.2598 12.3536 21.3536C12.2598 21.4473 12.1326 21.5 12 21.5C11.8674 21.5 11.7402 21.4473 11.6464 21.3536C11.5527 21.2598 11.5 21.1326 11.5 21V20V19.5H11H9H8.5V20V21C8.5 21.1326 8.44732 21.2598 8.35355 21.3536C8.25979 21.4473 8.13261 21.5 8 21.5C7.86739 21.5 7.74021 21.4473 7.64645 21.3536C7.55268 21.2598 7.5 21.1326 7.5 21V12ZM11 18.5H11.5V18V16V15.5H11H9H8.5V16V18V18.5H9H11ZM11 14.5H11.5V14V12V11.5H11H9H8.5V12V14V14.5H9H11ZM15 18.5H15.5V18V16V15.5H15H13H12.5V16V18V18.5H13H15ZM15 14.5H15.5V14V12V11.5H15H13H12.5V12V14V14.5H13H15ZM4 2.5H20C20.663 2.5 21.2989 2.76339 21.7678 3.23223C22.2366 3.70107 22.5 4.33696 22.5 5V13C22.5 13.663 22.2366 14.2989 21.7678 14.7678C21.2989 15.2366 20.663 15.5 20 15.5C19.8674 15.5 19.7402 15.4473 19.6464 15.3536C19.5527 15.2598 19.5 15.1326 19.5 15C19.5 14.8674 19.5527 14.7402 19.6464 14.6464C19.7402 14.5527 19.8674 14.5 20 14.5C20.3978 14.5 20.7794 14.342 21.0607 14.0607C21.342 13.7794 21.5 13.3978 21.5 13V5C21.5 4.60218 21.342 4.22065 21.0607 3.93934C20.7794 3.65804 20.3978 3.5 20 3.5H4C3.60217 3.5 3.22064 3.65804 2.93934 3.93934C2.65804 4.22064 2.5 4.60218 2.5 5V13C2.5 13.3978 2.65804 13.7794 2.93934 14.0607C3.22064 14.342 3.60217 14.5 4 14.5C4.13261 14.5 4.25978 14.5527 4.35355 14.6464C4.44732 14.7402 4.5 14.8674 4.5 15C4.5 15.1326 4.44732 15.2598 4.35355 15.3536C4.25978 15.4473 4.13261 15.5 4 15.5C3.33696 15.5 2.70107 15.2366 2.23223 14.7678C1.76339 14.2989 1.5 13.663 1.5 13V5C1.5 4.33696 1.76339 3.70107 2.23223 3.23223C2.70107 2.76339 3.33696 2.5 4 2.5ZM14.3536 7.35355C14.2598 7.44732 14.1326 7.5 14 7.5H10C9.86739 7.5 9.74022 7.44732 9.64645 7.35355C9.55268 7.25978 9.5 7.13261 9.5 7C9.5 6.86739 9.55268 6.74022 9.64645 6.64645C9.74022 6.55268 9.86739 6.5 10 6.5H14C14.1326 6.5 14.2598 6.55268 14.3536 6.64645C14.4473 6.74022 14.5 6.86739 14.5 7C14.5 7.13261 14.4473 7.25978 14.3536 7.35355Z" fill="#111111" stroke="#111111"/>
</svg>
