<svg width="24" height="24" viewBox="0 0 24 24" fill="none" xmlns="http://www.w3.org/2000/svg">
<path d="M17 15.5H17.5V15V9V8.5H17H4H3.5V9V15V15.5H4H17ZM4 7.5H17C17.3978 7.5 17.7794 7.65804 18.0607 7.93934C18.342 8.22064 18.5 8.60218 18.5 9V15C18.5 15.3978 18.342 15.7794 18.0607 16.0607C17.7794 16.342 17.3978 16.5 17 16.5H4C3.60218 16.5 3.22064 16.342 2.93934 16.0607C2.65804 15.7794 2.5 15.3978 2.5 15V9C2.5 8.60218 2.65804 8.22064 2.93934 7.93934C3.22064 7.65804 3.60218 7.5 4 7.5ZM20.6464 10.6464C20.7402 10.5527 20.8674 10.5 21 10.5C21.1326 10.5 21.2598 10.5527 21.3536 10.6464C21.4473 10.7402 21.5 10.8674 21.5 11V13C21.5 13.1326 21.4473 13.2598 21.3536 13.3536C21.2598 13.4473 21.1326 13.5 21 13.5C20.8674 13.5 20.7402 13.4473 20.6464 13.3536C20.5527 13.2598 20.5 13.1326 20.5 13V11C20.5 10.8674 20.5527 10.7402 20.6464 10.6464Z" fill="#111111" stroke="#111111"/>
</svg>
