<svg width="24" height="24" viewBox="0 0 24 24" fill="none" xmlns="http://www.w3.org/2000/svg">
<path d="M6.41473 19.7715L6.41471 19.7715L6.41241 19.775C6.36712 19.8438 6.30554 19.9003 6.23314 19.9396C6.16109 19.9786 6.08055 19.9994 5.99861 20H2C1.86739 20 1.74021 19.9473 1.64645 19.8536C1.55268 19.7598 1.5 19.6326 1.5 19.5V6.5C1.5 5.83696 1.76339 5.20107 2.23223 4.73223C2.70107 4.26339 3.33696 4 4 4H20C20.663 4 21.2989 4.26339 21.7678 4.73223C22.2366 5.20107 22.5 5.83696 22.5 6.5V19.5C22.5 19.6326 22.4473 19.7598 22.3536 19.8536C22.2598 19.9473 22.1326 20 22 20H18.0014C17.9194 19.9994 17.8389 19.9786 17.7669 19.9396C17.6945 19.9003 17.6329 19.8438 17.5876 19.775L17.5876 19.775L17.5853 19.7715L15.8753 17.2215L15.7267 17H15.46H8.54H8.27328L8.12473 17.2215L6.41473 19.7715ZM21 19H21.5V18.5V13.5V13H21H3H2.5V13.5V18.5V19H3H5.46H5.72672L5.87527 18.7785L7.58527 16.2285L7.58529 16.2285L7.58759 16.225C7.63288 16.1562 7.69446 16.0997 7.76686 16.0604C7.83895 16.0214 7.91953 16.0006 8.00152 16H15.9893C16.0714 16.0042 16.1512 16.0286 16.2216 16.071C16.2942 16.1148 16.3545 16.1762 16.3968 16.2497L16.4064 16.2664L16.4173 16.2823L18.1273 18.7823L18.2762 19H18.54H21ZM6.5 11.5V12H7H11H11.5V11.5V10.5C11.5 10.1022 11.342 9.72064 11.0607 9.43934C10.7794 9.15804 10.3978 9 10 9H8C7.60218 9 7.22064 9.15804 6.93934 9.43934C6.65804 9.72064 6.5 10.1022 6.5 10.5V11.5ZM12.5 11.5V12H13H17H17.5V11.5V10.5C17.5 10.1022 17.342 9.72064 17.0607 9.43934C16.7794 9.15804 16.3978 9 16 9H14C13.6022 9 13.2206 9.15804 12.9393 9.43934C12.658 9.72064 12.5 10.1022 12.5 10.5V11.5ZM21 12H21.5V11.5V6.5C21.5 6.10218 21.342 5.72065 21.0607 5.43934C20.7794 5.15804 20.3978 5 20 5H4C3.60217 5 3.22064 5.15804 2.93934 5.43934C2.65804 5.72064 2.5 6.10218 2.5 6.5V11.5V12H3H5H5.5V11.5V10.5C5.5 9.83696 5.76339 9.20107 6.23223 8.73223C6.70107 8.26339 7.33696 8 8 8H9.99847C10.6147 8.00403 11.2077 8.23549 11.6637 8.64999L12 8.95569L12.3363 8.64999C12.7923 8.23549 13.3853 8.00403 14.0015 8H16C16.663 8 17.2989 8.26339 17.7678 8.73223C18.2366 9.20107 18.5 9.83696 18.5 10.5V11.5V12H19H21Z" fill="#111111" stroke="#111111"/>
</svg>
