<svg width="24" height="24" viewBox="0 0 24 24" fill="none" xmlns="http://www.w3.org/2000/svg">
<path d="M10.5 8.49616V8.99616H11H12C12.1326 8.99616 12.2598 9.04884 12.3536 9.14261C12.4473 9.23638 12.5 9.36355 12.5 9.49616C12.5 9.62877 12.4473 9.75595 12.3536 9.84972C12.2598 9.94348 12.1326 9.99616 12 9.99616H9.50001C9.23479 9.99616 8.98044 10.1015 8.7929 10.2891C8.60536 10.4766 8.50001 10.7309 8.50001 10.9962C8.50001 11.2614 8.60536 11.5157 8.7929 11.7033C8.98044 11.8908 9.23479 11.9962 9.50001 11.9962H10.5H10.5005C10.9965 11.9957 11.475 12.1795 11.843 12.5119C12.2111 12.8443 12.4425 13.3017 12.4924 13.7952C12.5422 14.2886 12.4069 14.783 12.1128 15.1824C11.8186 15.5817 11.3866 15.8575 10.9005 15.9562L10.5 16.0375V16.4462V16.9962C10.5 17.1288 10.4473 17.2559 10.3536 17.3497C10.2598 17.4435 10.1326 17.4962 10 17.4962C9.8674 17.4962 9.74022 17.4435 9.64645 17.3497C9.55269 17.2559 9.50001 17.1288 9.50001 16.9962V16.4962V15.9962H9.00001H8.00001C7.8674 15.9962 7.74022 15.9435 7.64645 15.8497C7.55269 15.7559 7.50001 15.6288 7.50001 15.4962C7.50001 15.3636 7.55269 15.2364 7.64645 15.1426C7.74022 15.0488 7.8674 14.9962 8.00001 14.9962H10.5C10.7652 14.9962 11.0196 14.8908 11.2071 14.7033C11.3947 14.5157 11.5 14.2614 11.5 13.9962C11.5 13.7309 11.3947 13.4766 11.2071 13.2891C11.0196 13.1015 10.7652 12.9962 10.5 12.9962H9.50001H9.49951C9.00352 12.9967 8.52505 12.8128 8.15697 12.4804C7.78889 12.148 7.55747 11.6906 7.50762 11.1972C7.45778 10.7037 7.59307 10.2093 7.88723 9.80997C8.18139 9.41064 8.61344 9.13486 9.09951 9.03616L9.50001 8.95484V8.54616V7.99616C9.50001 7.86355 9.55269 7.73638 9.64645 7.64261C9.74022 7.54884 9.8674 7.49616 10 7.49616C10.1326 7.49616 10.2598 7.54884 10.3536 7.64261C10.4473 7.73638 10.5 7.86355 10.5 7.99616V8.49616ZM17.5 11.9962V12.4962H18H21C21.1326 12.4962 21.2598 12.5488 21.3536 12.6426C21.4473 12.7364 21.5 12.8636 21.5 12.9962V18.9962C21.5 19.6592 21.2366 20.2951 20.7678 20.7639C20.2989 21.2328 19.663 21.4962 19 21.4962H5.00001C4.33697 21.4962 3.70108 21.2328 3.23224 20.7639C2.7634 20.2951 2.50001 19.6592 2.50001 18.9962V2.99616H2.50001L2.5 2.99418C2.49965 2.90607 2.52259 2.81944 2.56649 2.74305C2.61039 2.66666 2.6737 2.60323 2.75 2.55918L2.75001 2.55917C2.82602 2.51529 2.91224 2.49219 3.00001 2.49219C3.08778 2.49219 3.174 2.51529 3.25001 2.55917L3.25001 2.55918L3.25132 2.55993L6.25132 4.27993L6.50001 4.42251L6.7487 4.27993L9.7487 2.55993L9.75001 2.55917C9.82602 2.51529 9.91224 2.49219 10 2.49219C10.0878 2.49219 10.174 2.51529 10.25 2.55918L10.2513 2.55993L13.2513 4.27993L13.5 4.42251L13.7487 4.27993L16.7487 2.55993L16.75 2.55918C16.826 2.51529 16.9122 2.49219 17 2.49219C17.0878 2.49219 17.174 2.51529 17.25 2.55918L17.5 2.12616L17.25 2.55918C17.3263 2.60323 17.3896 2.66666 17.4335 2.74305C17.4774 2.81944 17.5004 2.90607 17.5 2.99418V2.99616V11.9962ZM18 11.4962V2.99616V11.4962ZM4.24761 4.29177L3.50001 3.86564V4.72616V18.9962C3.50001 19.394 3.65804 19.7755 3.93935 20.0568C4.22065 20.3381 4.60218 20.4962 5.00001 20.4962H16.18H16.8935L16.65 19.8255C16.5532 19.5589 16.5025 19.2777 16.5 18.994V4.72616V3.86564L15.7524 4.29177L13.7616 5.42652C13.6805 5.4675 13.5909 5.48887 13.5 5.48887C13.4093 5.48887 13.3198 5.46758 13.2389 5.42676L10.2487 3.7124L10 3.56981L9.75132 3.7124L6.76114 5.42676C6.68019 5.46758 6.59075 5.48887 6.50001 5.48887C6.40909 5.48887 6.31948 5.4675 6.2384 5.42652L4.24761 4.29177ZM17.5 13.4962V13.9962V18.9962C17.5 19.394 17.658 19.7755 17.9393 20.0568C18.2207 20.3381 18.6022 20.4962 19 20.4962C19.3978 20.4962 19.7794 20.3381 20.0607 20.0568C20.342 19.7755 20.5 19.394 20.5 18.9962V13.9962V13.4962H20H18H17.5Z" fill="#111111" stroke="#111111"/>
</svg>
