<svg width="24" height="24" viewBox="0 0 24 24" fill="none" xmlns="http://www.w3.org/2000/svg">
<path d="M13.0022 17.5H13H8.5C8.36739 17.5 8.24021 17.4473 8.14645 17.3536C8.05268 17.2598 8 17.1326 8 17V7C8 6.86739 8.05268 6.74022 8.14645 6.64645C8.24022 6.55268 8.36739 6.5 8.5 6.5H13C13.394 6.5 13.7841 6.5776 14.148 6.72836C14.512 6.87913 14.8427 7.1001 15.1213 7.37868C15.3999 7.65726 15.6209 7.98797 15.7716 8.35195C15.9223 8.71574 15.9999 9.10563 16 9.49939C15.9988 9.89884 15.9179 10.294 15.762 10.6618C15.606 11.0298 15.378 11.3629 15.0914 11.6415L14.7216 12.0012L15.0926 12.3596C15.5219 12.7743 15.8172 13.308 15.9406 13.892C16.064 14.476 16.0097 15.0835 15.7849 15.6364C15.5601 16.1893 15.1749 16.6622 14.6789 16.9944C14.183 17.3265 13.599 17.5026 13.0022 17.5ZM9 16V16.5H9.5H13C13.5304 16.5 14.0391 16.2893 14.4142 15.9142C14.7893 15.5391 15 15.0304 15 14.5C15 13.9696 14.7893 13.4609 14.4142 13.0858C14.0391 12.7107 13.5304 12.5 13 12.5H9.5H9V13V16ZM9 11V11.5H9.5H13C13.5304 11.5 14.0391 11.2893 14.4142 10.9142C14.7893 10.5391 15 10.0304 15 9.5C15 8.96957 14.7893 8.46086 14.4142 8.08579C14.0391 7.71071 13.5304 7.5 13 7.5H9.5H9V8V11Z" fill="#111111" stroke="#111111"/>
</svg>
