<svg width="24" height="24" viewBox="0 0 24 24" fill="none" xmlns="http://www.w3.org/2000/svg">
<path d="M18.9861 8.50059H14.4199H13.7683L13.9369 7.87118L15.2069 3.13118L15.2075 3.12904C15.2277 3.05488 15.2306 2.97705 15.2158 2.90161C15.2011 2.82647 15.1694 2.75571 15.1231 2.69478C15.0766 2.63464 15.017 2.58589 14.9488 2.55224C14.8805 2.51851 14.8054 2.50085 14.7292 2.50059H7.72988H7.72132L7.71276 2.50029C7.59988 2.49643 7.48901 2.53089 7.39822 2.59808C7.30751 2.66521 7.24217 2.76105 7.21283 2.87002L18.9861 8.50059ZM18.9861 8.50059C19.0759 8.50657 19.1625 8.5367 19.2367 8.58787C19.3134 8.64075 19.3738 8.71397 19.4111 8.7993C19.4488 8.88744 19.4605 8.98459 19.4445 9.07918C19.4286 9.17408 19.3856 9.26235 19.3207 9.33341L19.3198 9.3344L8.41976 21.3344L8.41724 21.3372C8.34214 21.4212 8.24089 21.4773 8.12989 21.4965C8.0189 21.5157 7.90468 21.4969 7.80572 21.4431C7.70677 21.3892 7.62889 21.3036 7.58469 21.2C7.5405 21.0964 7.53259 20.9809 7.56225 20.8722L7.56277 20.8703L9.37277 14.1303L9.54187 13.5006H8.88988L5.01988 13.5006L5.01609 13.5006C4.93889 13.5012 4.8626 13.4839 4.7932 13.4501C4.7241 13.4164 4.6637 13.3672 4.61669 13.3064C4.57035 13.2455 4.53861 13.1747 4.52393 13.0996C4.50919 13.0241 4.51204 12.9463 4.53227 12.8721L4.53283 12.87L7.21276 2.87029L18.9861 8.50059ZM8.7556 14.5006H8.88988V14.0006L8.40699 13.8709L8.37216 14.0006H5.01988L8.7556 14.5006ZM8.7556 14.5006L7.07988 20.7406C7.02057 20.9579 7.0364 21.1889 7.12478 21.3961C7.21316 21.6034 7.36893 21.7747 7.56684 21.8823C7.76474 21.9899 7.9932 22.0276 8.21518 21.9892C8.43716 21.9507 8.63967 21.8385 8.78988 21.6706L8.7556 14.5006ZM9.59686 17.1514L10.4493 17.6175L17.0893 10.3375L17.8527 9.50059H16.7199H13.1499H13.1412L13.1326 9.50089C13.0544 9.50359 12.9767 9.48791 12.9057 9.4551C12.8346 9.4223 12.7723 9.37329 12.7237 9.31201C12.675 9.25074 12.6415 9.1789 12.6257 9.10229C12.6098 9.02567 12.6122 8.94641 12.6326 8.87088L12.6328 8.86999L13.9028 4.12999L14.0715 3.50059H13.4199H8.48988H8.1058L8.00678 3.87168L5.86678 11.8917L5.69897 12.5206H6.34988H10.1893C10.2654 12.5209 10.3405 12.5385 10.4088 12.5722C10.477 12.6059 10.5366 12.6547 10.5831 12.7148C10.6294 12.7757 10.6611 12.8465 10.6758 12.9216C10.6906 12.9971 10.6877 13.0749 10.6675 13.149L10.6669 13.1514L9.59686 17.1514Z" fill="#111111" stroke="#111111"/>
</svg>
