<svg width="24" height="24" viewBox="0 0 24 24" fill="none" xmlns="http://www.w3.org/2000/svg">
<path d="M17.8368 3.49636L17.8375 3.49885L20.9867 15.086L21.9853 18.9406C21.9854 18.9409 21.9855 18.9412 21.9856 18.9415C22.0153 19.0596 22.005 19.1841 21.9565 19.2954C21.9249 19.3463 21.8844 19.3911 21.8369 19.4277C21.7846 19.468 21.7248 19.4976 21.661 19.5146C21.6609 19.5147 21.6609 19.5147 21.6609 19.5147L16.8718 20.7937C16.8334 20.7962 16.7948 20.7953 16.7565 20.7909L16.7198 20.7867L16.6829 20.788C16.57 20.7919 16.4591 20.7574 16.3683 20.6902C16.2776 20.623 16.2122 20.5271 16.1829 20.418L13.983 12.1984L13 12.3277V20.3277C13 20.4603 12.9473 20.5875 12.8536 20.6813C12.7598 20.775 12.6326 20.8277 12.5 20.8277H2.5C2.36739 20.8277 2.24021 20.775 2.14645 20.6813C2.05268 20.5875 2 20.4603 2 20.3277V4.32771C2 4.1951 2.05268 4.06793 2.14645 3.97416C2.24021 3.88039 2.36739 3.82771 2.5 3.82771H12.4964C12.5644 3.82891 12.6315 3.84398 12.6935 3.87202C12.7563 3.90042 12.8126 3.94149 12.8588 3.99267L13.0618 4.21761L13.3551 4.14181L17.2251 3.14181L17.2268 3.14136C17.3548 3.1078 17.4908 3.12632 17.6052 3.19286C17.7195 3.25939 17.8028 3.36853 17.8368 3.49636ZM6.47 19.8677H6.97V19.3677V17.3677V16.8677H6.47H3.47H2.97V17.3677V19.3677V19.8677H3.47H6.47ZM6.47 15.8677H6.97V15.3677V9.36771V8.86771H6.47H3.47H2.97V9.36771V15.3677V15.8677H3.47H6.47ZM6.47 7.86771H6.97V7.36771V5.36771V4.86771H6.47H3.47H2.97V5.36771V7.36771V7.86771H3.47H6.47ZM11.47 19.8677H11.97V19.3677V17.3677V16.8677H11.47H8.47H7.97V17.3677V19.3677V19.8677H8.47H11.47ZM11.47 15.8677H11.97V15.3677V9.36771V8.86771H11.47H8.47H7.97V9.36771V15.3677V15.8677H8.47H11.47ZM11.47 7.86771H11.97V7.36771V5.36771V4.86771H11.47H8.47H7.97V5.36771V7.36771V7.86771H8.47H11.47ZM13.5901 5.14487L13.1071 5.27479L13.2372 5.75779L13.7572 7.68779L13.8872 8.17036L14.3699 8.04055L17.2699 7.26055L17.7529 7.13063L17.6228 6.64763L17.1028 4.71763L16.9728 4.23506L16.4901 4.36487L13.5901 5.14487ZM15.827 15.4168L15.9562 15.9006L16.4399 15.7706L19.3399 14.9906L19.8219 14.8609L19.693 14.3786L18.143 8.57862L18.0138 8.09479L17.5301 8.22487L14.6301 9.00487L14.1481 9.13453L14.277 9.6168L15.827 15.4168ZM16.8272 19.2778L16.9572 19.7604L17.4399 19.6306L20.3399 18.8506L20.8229 18.7206L20.6928 18.2376L20.1728 16.3076L20.0428 15.8251L19.5601 15.9549L16.6601 16.7349L16.1771 16.8648L16.3072 17.3478L16.8272 19.2778Z" fill="#111111" stroke="#111111"/>
</svg>
