<svg width="24" height="24" viewBox="0 0 24 24" fill="none" xmlns="http://www.w3.org/2000/svg">
<path d="M5.5 21V21V3C5.5 2.86739 5.55268 2.74021 5.64645 2.64645C5.74022 2.55268 5.86739 2.5 6 2.5H18C18.1326 2.5 18.2598 2.55268 18.3536 2.64645C18.4473 2.74021 18.5 2.86739 18.5 3V20.9986C18.4993 21.0969 18.4696 21.1929 18.4146 21.2744C18.3595 21.3563 18.2813 21.42 18.19 21.4575L18.1782 21.4623L18.1667 21.4678C18.1187 21.4904 18.066 21.5015 18.0129 21.5002L18.005 21.5L17.9971 21.5C17.9313 21.5004 17.8661 21.4878 17.8052 21.4629C17.7442 21.438 17.6888 21.4014 17.6421 21.355L17.6274 21.3404L17.6114 21.327L12.3214 16.887L12 16.6172L11.6786 16.887L6.32857 21.377L6.32856 21.377L6.325 21.38C6.25237 21.4422 6.16344 21.4822 6.06877 21.4953C5.97409 21.5085 5.87764 21.4942 5.79082 21.4542C5.70401 21.4142 5.63047 21.3502 5.57893 21.2697C5.52738 21.1892 5.49999 21.0956 5.5 21ZM16.6785 19.243L17.5 19.9325V18.86V4V3.5H17H7H6.5V4V18.86V19.9325L7.32147 19.243L11.68 15.5842C11.6802 15.584 11.6805 15.5838 11.6807 15.5836C11.7704 15.5091 11.8834 15.4684 12 15.4684C12.1166 15.4684 12.2296 15.5091 12.3193 15.5836C12.3195 15.5838 12.3198 15.584 12.32 15.5842L16.6785 19.243Z" fill="#111111" stroke="#111111"/>
</svg>
