<svg width="24" height="24" viewBox="0 0 24 24" fill="none" xmlns="http://www.w3.org/2000/svg">
<path d="M18.0027 10.5L18.0001 10.5C17.5723 10.5 17.2107 10.5015 16.8559 10.5707L16.5481 10.6308L16.36 10.3798C15.8928 9.75635 15.2964 9.24113 14.6116 8.86944L14.0493 8.56422L14.4814 8.09234C15.0396 7.4827 15.3495 6.68624 15.3501 5.85964L18.0027 10.5ZM18.0027 10.5C18.7028 10.4964 19.4017 10.5573 20.0906 10.6819C20.2052 10.703 20.3088 10.7634 20.3836 10.8528C20.4583 10.9421 20.4995 11.0546 20.5001 11.171V19.42V19.4208C20.5003 19.4943 20.4842 19.5668 20.4531 19.6334C20.422 19.6999 20.3766 19.7588 20.3201 19.8058L20.3178 19.8077C20.2617 19.855 20.1959 19.8894 20.1251 19.9084C20.0553 19.9271 19.9823 19.9305 19.9111 19.9183C19.2822 19.796 18.6432 19.733 18.0025 19.73L18.0012 19.73C15.9575 19.7258 13.9585 20.3243 12.2539 21.45H12.1941L12.113 21.4788C12.0766 21.4917 12.0384 21.4988 11.9998 21.4999C11.9239 21.4981 11.8489 21.4816 11.7792 21.4513L11.7695 21.4471L11.7596 21.4433L11.6794 21.4125C9.98983 20.3126 8.01639 19.7278 5.99959 19.73L5.99959 19.7298L5.98706 19.7302C5.3472 19.7469 4.71033 19.8235 4.08478 19.9591C4.01498 19.9704 3.94354 19.9668 3.87519 19.9484C3.80433 19.9294 3.73853 19.895 3.68245 19.8477L3.68013 19.8458C3.62369 19.7988 3.5783 19.7399 3.54719 19.6734C3.51608 19.6068 3.50001 19.5343 3.50013 19.4608V19.46V11.21H3.5002L3.50007 11.2018C3.49814 11.0835 3.53828 10.9682 3.61337 10.8767C3.68845 10.7851 3.79359 10.7231 3.91007 10.7018L3.91007 10.7019L3.91367 10.7012C4.60182 10.5701 5.30059 10.5028 6.0011 10.5C6.42967 10.5 6.79364 10.5014 7.1318 10.5621L7.4317 10.616L7.61702 10.3741C8.09072 9.75588 8.68796 9.24307 9.37072 8.86831L9.92888 8.56194M18.0027 10.5L9.92888 8.56194M9.92888 8.56194L9.4989 8.09234M9.92888 8.56194L9.4989 8.09234M9.4989 8.09234C8.94068 7.48269 8.63077 6.68623 8.63013 5.85961C8.63024 4.96863 8.98422 4.11415 9.61425 3.48412C10.2444 2.854 11.099 2.5 11.9901 2.5C12.8813 2.5 13.7359 2.854 14.366 3.48412C14.996 4.11415 15.35 4.96863 15.3501 5.85961L9.4989 8.09234ZM11.5001 20.1119L10.7903 19.7839C9.28878 19.0898 7.65435 18.7302 6.00013 18.73L11.5001 20.1119ZM11.5001 20.1119V19.33M11.5001 20.1119V19.33M11.5001 19.33V13.33V13.0482L11.259 12.9022C10.1707 12.2436 8.97169 11.7882 7.72051 11.5582L7.6757 11.55H7.63013H7.5575C6.69224 11.4216 5.81395 11.4058 4.94455 11.5031L4.50013 11.5528V12V18.28V18.8589M11.5001 19.33L4.50013 18.8589M4.50013 18.8589L5.07288 18.7747M4.50013 18.8589L5.07288 18.7747M5.07288 18.7747C5.37102 18.7308 5.66503 18.73 6.00007 18.73L5.07288 18.7747ZM12.0368 3.50134L12.0001 3.49865L11.9635 3.50134C11.3691 3.54501 10.8133 3.81194 10.4076 4.24853C10.0019 4.68512 9.77642 5.25902 9.77642 5.855C9.77642 6.45098 10.0019 7.02488 10.4076 7.46147C10.8133 7.89806 11.3691 8.16499 11.9635 8.20866L12.0001 8.21135L12.0368 8.20866C12.6311 8.16499 13.187 7.89806 13.5927 7.46147C13.9984 7.02488 14.2238 6.45098 14.2238 5.855C14.2238 5.25902 13.9984 4.68512 13.5927 4.24853C13.187 3.81194 12.6311 3.54501 12.0368 3.50134ZM11.7503 12.0331L11.9984 12.1762L12.2473 12.0346C12.9893 11.6127 13.7744 11.2716 14.5891 11.0173L15.4985 10.7334L14.7483 10.1463C13.9643 9.53263 12.9989 9.19632 12.0033 9.19001L12.0033 9.18992L11.9938 9.19004C10.9955 9.20277 10.0299 9.54709 9.24876 10.1688L8.49576 10.7681L9.41905 11.0397C9.73406 11.1323 10.0434 11.2538 10.3769 11.3852L10.4652 11.42H10.5196C10.9419 11.5991 11.3529 11.8039 11.7503 12.0331ZM18.9501 18.7775L19.5001 18.8328V18.28V12V11.55L19.0526 11.5028C18.2133 11.4142 17.3662 11.4335 16.5319 11.56H16.3701H16.3294L16.2892 11.5666C15.0392 11.7718 13.8381 12.2066 12.7465 12.8491L12.5001 12.9941V13.28V19.28V20.0598L13.2088 19.7344C15.0034 18.9104 16.9853 18.5801 18.9501 18.7775Z" fill="#111111" stroke="#111111"/>
</svg>
