<svg width="24" height="24" viewBox="0 0 24 24" fill="none" xmlns="http://www.w3.org/2000/svg">
<path d="M4.5 4H4V4.5V19.5C4 19.6326 3.94732 19.7598 3.85355 19.8536C3.75979 19.9473 3.63261 20 3.5 20C3.36739 20 3.24021 19.9473 3.14645 19.8536C3.05268 19.7598 3 19.6326 3 19.5V3.5C3 3.36739 3.05268 3.24021 3.14645 3.14645C3.24021 3.05268 3.36739 3 3.5 3H19.5C19.6326 3 19.7598 3.05268 19.8536 3.14645C19.9473 3.24021 20 3.36739 20 3.5C20 3.63261 19.9473 3.75979 19.8536 3.85355C19.7598 3.94732 19.6326 4 19.5 4H4.5ZM11.2222 19.0843C11.3044 19.0293 11.4011 19 11.5 19C11.6326 19 11.7598 19.0527 11.8536 19.1464C11.9473 19.2402 12 19.3674 12 19.5C12 19.5989 11.9707 19.6956 11.9157 19.7778C11.8608 19.86 11.7827 19.9241 11.6913 19.9619C11.6 19.9998 11.4994 20.0097 11.4025 19.9904C11.3055 19.9711 11.2164 19.9235 11.1464 19.8536C11.0765 19.7836 11.0289 19.6945 11.0096 19.5975C10.9903 19.5006 11.0002 19.4 11.0381 19.3087C11.0759 19.2173 11.14 19.1392 11.2222 19.0843ZM15.2222 19.0843C15.3044 19.0293 15.4011 19 15.5 19C15.6326 19 15.7598 19.0527 15.8536 19.1464C15.9473 19.2402 16 19.3674 16 19.5C16 19.5989 15.9707 19.6956 15.9157 19.7778C15.8608 19.86 15.7827 19.9241 15.6913 19.9619C15.6 19.9998 15.4994 20.0097 15.4025 19.9904C15.3055 19.9711 15.2164 19.9235 15.1464 19.8536C15.0765 19.7836 15.0289 19.6945 15.0096 19.5975C14.9903 19.5006 15.0002 19.4 15.0381 19.3087C15.0759 19.2173 15.14 19.1392 15.2222 19.0843ZM7.22222 19.0843C7.30444 19.0293 7.40111 19 7.5 19C7.63261 19 7.75979 19.0527 7.85355 19.1464C7.94732 19.2402 8 19.3674 8 19.5C8 19.5989 7.97068 19.6956 7.91573 19.7778C7.86079 19.86 7.78271 19.9241 7.69134 19.9619C7.59998 19.9998 7.49944 20.0097 7.40246 19.9904C7.30546 19.9711 7.21637 19.9235 7.14645 19.8536C7.07652 19.7836 7.0289 19.6945 7.00961 19.5975C6.99031 19.5006 7.00022 19.4 7.03806 19.3087C7.0759 19.2173 7.13999 19.1392 7.22222 19.0843ZM19.2222 7.08427C19.3044 7.02932 19.4011 7 19.5 7C19.6326 7 19.7598 7.05268 19.8536 7.14645C19.9473 7.24021 20 7.36739 20 7.5C20 7.59889 19.9707 7.69556 19.9157 7.77778C19.8608 7.86001 19.7827 7.9241 19.6913 7.96194C19.6 7.99978 19.4994 8.00969 19.4025 7.99039C19.3055 7.9711 19.2164 7.92348 19.1464 7.85355C19.0765 7.78363 19.0289 7.69454 19.0096 7.59754C18.9903 7.50056 19.0002 7.40002 19.0381 7.30866C19.0759 7.21729 19.14 7.13921 19.2222 7.08427ZM19.2222 11.0843C19.3044 11.0293 19.4011 11 19.5 11C19.6326 11 19.7598 11.0527 19.8536 11.1464C19.9473 11.2402 20 11.3674 20 11.5C20 11.5989 19.9707 11.6956 19.9157 11.7778C19.8608 11.86 19.7827 11.9241 19.6913 11.9619C19.6 11.9998 19.4994 12.0097 19.4025 11.9904C19.3055 11.9711 19.2164 11.9235 19.1464 11.8536C19.0765 11.7836 19.0289 11.6945 19.0096 11.5975C18.9903 11.5006 19.0002 11.4 19.0381 11.3087C19.0759 11.2173 19.14 11.1392 19.2222 11.0843ZM19.2222 15.0843C19.3044 15.0293 19.4011 15 19.5 15C19.6326 15 19.7598 15.0527 19.8536 15.1464C19.9473 15.2402 20 15.3674 20 15.5C20 15.5989 19.9707 15.6956 19.9157 15.7778C19.8608 15.86 19.7827 15.9241 19.6913 15.9619C19.6 15.9998 19.4994 16.0097 19.4025 15.9904C19.3055 15.9711 19.2164 15.9235 19.1464 15.8536C19.0765 15.7836 19.0289 15.6945 19.0096 15.5975C18.9903 15.5006 19.0002 15.4 19.0381 15.3087C19.0759 15.2173 19.14 15.1392 19.2222 15.0843ZM19.2222 19.0843C19.3044 19.0293 19.4011 19 19.5 19C19.6326 19 19.7598 19.0527 19.8536 19.1464C19.9473 19.2402 20 19.3674 20 19.5C20 19.5989 19.9707 19.6956 19.9157 19.7778C19.8608 19.86 19.7827 19.9241 19.6913 19.9619C19.6 19.9998 19.4994 20.0097 19.4025 19.9904C19.3055 19.9711 19.2164 19.9235 19.1464 19.8536C19.0765 19.7836 19.0289 19.6945 19.0096 19.5975C18.9903 19.5006 19.0002 19.4 19.0381 19.3087C19.0759 19.2173 19.14 19.1392 19.2222 19.0843Z" fill="#111111" stroke="#111111"/>
</svg>
