<svg width="24" height="24" viewBox="0 0 24 24" fill="none" xmlns="http://www.w3.org/2000/svg">
<path d="M19 19.5H19.5V19V5V4.5H19H5H4.5V5V19V19.5H5H19ZM12.2778 8.41574C12.1956 8.47068 12.0989 8.5 12 8.5C11.8674 8.5 11.7402 8.44732 11.6464 8.35355C11.5527 8.25978 11.5 8.13261 11.5 8C11.5 7.90111 11.5293 7.80444 11.5843 7.72221C11.6392 7.63999 11.7173 7.5759 11.8087 7.53806C11.9 7.50022 12.0006 7.49031 12.0975 7.50961C12.1945 7.5289 12.2836 7.57652 12.3536 7.64645C12.4235 7.71637 12.4711 7.80546 12.4904 7.90246C12.5097 7.99944 12.4998 8.09998 12.4619 8.19134C12.4241 8.2827 12.36 8.36079 12.2778 8.41574ZM12.2778 12.4157C12.1956 12.4707 12.0989 12.5 12 12.5C11.8674 12.5 11.7402 12.4473 11.6464 12.3536C11.5527 12.2598 11.5 12.1326 11.5 12C11.5 11.9011 11.5293 11.8044 11.5843 11.7222C11.6392 11.64 11.7173 11.5759 11.8087 11.5381C11.9 11.5002 12.0006 11.4903 12.0975 11.5096C12.1945 11.5289 12.2836 11.5765 12.3536 11.6464C12.4235 11.7164 12.4711 11.8055 12.4904 11.9025C12.5097 11.9994 12.4998 12.1 12.4619 12.1913C12.4241 12.2827 12.36 12.3608 12.2778 12.4157ZM16.2778 12.4157C16.1956 12.4707 16.0989 12.5 16 12.5C15.8674 12.5 15.7402 12.4473 15.6464 12.3536C15.5527 12.2598 15.5 12.1326 15.5 12C15.5 11.9011 15.5293 11.8044 15.5843 11.7222C15.6392 11.64 15.7173 11.5759 15.8087 11.5381C15.9 11.5002 16.0006 11.4903 16.0975 11.5096C16.1945 11.5289 16.2836 11.5765 16.3536 11.6464C16.4235 11.7164 16.4711 11.8055 16.4904 11.9025C16.5097 11.9994 16.4998 12.1 16.4619 12.1913C16.4241 12.2827 16.36 12.3608 16.2778 12.4157ZM12.2778 16.4157C12.1956 16.4707 12.0989 16.5 12 16.5C11.8674 16.5 11.7402 16.4473 11.6464 16.3536C11.5527 16.2598 11.5 16.1326 11.5 16C11.5 15.9011 11.5293 15.8044 11.5843 15.7222C11.6392 15.64 11.7173 15.5759 11.8087 15.5381C11.9 15.5002 12.0006 15.4903 12.0975 15.5096C12.1945 15.5289 12.2836 15.5765 12.3536 15.6464C12.4235 15.7164 12.4711 15.8055 12.4904 15.9025C12.5097 15.9994 12.4998 16.1 12.4619 16.1913C12.4241 16.2827 12.36 16.3608 12.2778 16.4157ZM4 3.5H20C20.1326 3.5 20.2598 3.55268 20.3536 3.64645C20.4473 3.74021 20.5 3.86739 20.5 4V20C20.5 20.1326 20.4473 20.2598 20.3536 20.3536C20.2598 20.4473 20.1326 20.5 20 20.5H4C3.86739 20.5 3.74021 20.4473 3.64645 20.3536C3.55268 20.2598 3.5 20.1326 3.5 20V4C3.5 3.86739 3.55268 3.74021 3.64645 3.64645C3.74021 3.55268 3.86739 3.5 4 3.5ZM8.27779 12.4157C8.19556 12.4707 8.09889 12.5 8 12.5C7.86739 12.5 7.74022 12.4473 7.64645 12.3536C7.55268 12.2598 7.5 12.1326 7.5 12C7.5 11.9011 7.52932 11.8044 7.58426 11.7222C7.63921 11.64 7.7173 11.5759 7.80866 11.5381C7.90002 11.5002 8.00055 11.4903 8.09754 11.5096C8.19454 11.5289 8.28363 11.5765 8.35355 11.6464C8.42348 11.7164 8.4711 11.8055 8.49039 11.9025C8.50969 11.9994 8.49978 12.1 8.46194 12.1913C8.4241 12.2827 8.36001 12.3608 8.27779 12.4157Z" fill="#111111" stroke="#111111"/>
</svg>
