<svg width="24" height="24" viewBox="0 0 24 24" fill="none" xmlns="http://www.w3.org/2000/svg">
<path d="M4.29251 11.6222L3.85662 12L4.29251 12.3778C4.66904 12.7042 4.97154 13.1072 5.17978 13.5599C5.38783 14.0122 5.49699 14.5036 5.5 15.0014V18C5.5 18.663 5.76339 19.2989 6.23223 19.7678C6.70107 20.2366 7.33696 20.5 8 20.5C8.13261 20.5 8.25979 20.5527 8.35355 20.6464C8.44732 20.7402 8.5 20.8674 8.5 21C8.5 21.1326 8.44732 21.2598 8.35355 21.3536C8.25979 21.4473 8.13261 21.5 8 21.5C7.07174 21.5 6.1815 21.1313 5.52513 20.4749C4.86875 19.8185 4.5 18.9283 4.5 18V15C4.5 14.337 4.23661 13.7011 3.76777 13.2322C3.29893 12.7634 2.66304 12.5 2 12.5C1.86739 12.5 1.74021 12.4473 1.64645 12.3536C1.55268 12.2598 1.5 12.1326 1.5 12C1.5 11.8674 1.55268 11.7402 1.64645 11.6464C1.74021 11.5527 1.86739 11.5 2 11.5C2.66304 11.5 3.29893 11.2366 3.76777 10.7678C4.23661 10.2989 4.5 9.66304 4.5 9V6C4.5 5.07174 4.86875 4.1815 5.52513 3.52513C6.1815 2.86875 7.07174 2.5 8 2.5C8.13261 2.5 8.25979 2.55268 8.35355 2.64645C8.44732 2.74021 8.5 2.86739 8.5 3C8.5 3.13261 8.44732 3.25979 8.35355 3.35355C8.25979 3.44732 8.13261 3.5 8 3.5C7.33696 3.5 6.70107 3.76339 6.23223 4.23223C5.76339 4.70107 5.5 5.33696 5.5 6V8.99857C5.49699 9.49638 5.38783 9.98783 5.17978 10.4401C4.97154 10.8928 4.66904 11.2958 4.29251 11.6222ZM19.7075 12.3778L20.1434 12L19.7075 11.6222C19.331 11.2958 19.0285 10.8928 18.8202 10.4401C18.6122 9.9878 18.503 9.49633 18.5 8.99849V6C18.5 5.33696 18.2366 4.70107 17.7678 4.23223C17.2989 3.76339 16.663 3.5 16 3.5C15.8674 3.5 15.7402 3.44732 15.6464 3.35355C15.5527 3.25979 15.5 3.13261 15.5 3C15.5 2.86739 15.5527 2.74021 15.6464 2.64645C15.7402 2.55268 15.8674 2.5 16 2.5C16.9283 2.5 17.8185 2.86875 18.4749 3.52513C19.1313 4.1815 19.5 5.07174 19.5 6V9C19.5 9.66304 19.7634 10.2989 20.2322 10.7678C20.7011 11.2366 21.337 11.5 22 11.5C22.1326 11.5 22.2598 11.5527 22.3536 11.6464C22.4473 11.7402 22.5 11.8674 22.5 12C22.5 12.1326 22.4473 12.2598 22.3536 12.3536C22.2598 12.4473 22.1326 12.5 22 12.5C21.337 12.5 20.7011 12.7634 20.2322 13.2322C19.7634 13.7011 19.5 14.337 19.5 15V18C19.5 18.9283 19.1313 19.8185 18.4749 20.4749C17.8185 21.1313 16.9283 21.5 16 21.5C15.8674 21.5 15.7402 21.4473 15.6464 21.3536C15.5527 21.2598 15.5 21.1326 15.5 21C15.5 20.8674 15.5527 20.7402 15.6464 20.6464C15.7402 20.5527 15.8674 20.5 16 20.5C16.663 20.5 17.2989 20.2366 17.7678 19.7678C18.2366 19.2989 18.5 18.663 18.5 18V15.0015C18.503 14.5037 18.6122 14.0122 18.8202 13.5599C19.0285 13.1072 19.331 12.7042 19.7075 12.3778Z" fill="#111111" stroke="#111111"/>
</svg>
