<svg width="24" height="24" viewBox="0 0 24 24" fill="none" xmlns="http://www.w3.org/2000/svg">
<path d="M16.5 6V6.5H17H21C21.1326 6.5 21.2598 6.55268 21.3536 6.64645C21.4473 6.74021 21.5 6.86739 21.5 7V10.9987C21.4979 11.3477 21.4228 11.6924 21.2795 12.0107C21.1359 12.3293 20.9272 12.6143 20.6667 12.8473L20.5 12.9964V13.22V19C20.5 19.663 20.2366 20.2989 19.7678 20.7678C19.2989 21.2366 18.663 21.5 18 21.5H6C5.33696 21.5 4.70107 21.2366 4.23223 20.7678C3.76339 20.2989 3.5 19.663 3.5 19V13.22V12.9964L3.33333 12.8473C3.07283 12.6143 2.86407 12.3293 2.72054 12.0107C2.57718 11.6924 2.50205 11.3476 2.5 10.9986V7C2.5 6.86739 2.55268 6.74021 2.64645 6.64645C2.74021 6.55268 2.86739 6.5 3 6.5H7H7.5V6V5C7.5 4.33696 7.76339 3.70107 8.23223 3.23223C8.70107 2.76339 9.33696 2.5 10 2.5H14C14.663 2.5 15.2989 2.76339 15.7678 3.23223C16.2366 3.70107 16.5 4.33696 16.5 5V6ZM15 6.5H15.5V6V5C15.5 4.60217 15.342 4.22064 15.0607 3.93934C14.7794 3.65804 14.3978 3.5 14 3.5H10C9.60218 3.5 9.22064 3.65804 8.93934 3.93934C8.65804 4.22064 8.5 4.60217 8.5 5V6V6.5H9H15ZM5 13.5H4.5V14V19C4.5 19.3978 4.65804 19.7794 4.93934 20.0607C5.22065 20.342 5.60218 20.5 6 20.5H18C18.3978 20.5 18.7794 20.342 19.0607 20.0607C19.342 19.7794 19.5 19.3978 19.5 19V14V13.5H19H17H16.5V14V15C16.5 15.1326 16.4473 15.2598 16.3536 15.3536C16.2598 15.4473 16.1326 15.5 16 15.5C15.8674 15.5 15.7402 15.4473 15.6464 15.3536C15.5527 15.2598 15.5 15.1326 15.5 15V14V13.5H15H9H8.5V14V15C8.5 15.1326 8.44732 15.2598 8.35355 15.3536C8.25978 15.4473 8.13261 15.5 8 15.5C7.86739 15.5 7.74022 15.4473 7.64645 15.3536C7.55268 15.2598 7.5 15.1326 7.5 15V14V13.5H7H5ZM16.5 12V12.5H17H19C19.3978 12.5 19.7794 12.342 20.0607 12.0607C20.342 11.7794 20.5 11.3978 20.5 11V8V7.5H20H4H3.5V8V11C3.5 11.3978 3.65804 11.7794 3.93934 12.0607C4.22064 12.342 4.60217 12.5 5 12.5H7H7.5V12V11C7.5 10.8674 7.55268 10.7402 7.64645 10.6464C7.74022 10.5527 7.86739 10.5 8 10.5C8.13261 10.5 8.25978 10.5527 8.35355 10.6464C8.44732 10.7402 8.5 10.8674 8.5 11V12V12.5H9H15H15.5V12V11C15.5 10.8674 15.5527 10.7402 15.6464 10.6464C15.7402 10.5527 15.8674 10.5 16 10.5C16.1326 10.5 16.2598 10.5527 16.3536 10.6464C16.4473 10.7402 16.5 10.8674 16.5 11V12Z" fill="#111111" stroke="#111111"/>
</svg>
