<svg width="24" height="24" viewBox="0 0 24 24" fill="none" xmlns="http://www.w3.org/2000/svg">
<path d="M12.4999 10.998V11.498H12.9999H13.9999C14.1325 11.498 14.2597 11.5507 14.3535 11.6444C14.4473 11.7382 14.4999 11.8654 14.4999 11.998C14.4999 12.1306 14.4473 12.2578 14.3535 12.3515C14.2597 12.4453 14.1325 12.498 13.9999 12.498H12.9999H12.4999V12.998V13.998C12.4999 14.1306 12.4473 14.2578 12.3535 14.3515C12.2597 14.4453 12.1325 14.498 11.9999 14.498C11.8673 14.498 11.7402 14.4453 11.6464 14.3515C11.5526 14.2578 11.4999 14.1306 11.4999 13.998V12.998V12.498H10.9999H9.99994C9.86733 12.498 9.74015 12.4453 9.64639 12.3515C9.55262 12.2578 9.49994 12.1306 9.49994 11.998C9.49994 11.8654 9.55262 11.7382 9.64639 11.6444C9.74015 11.5507 9.86733 11.498 9.99994 11.498H10.9999H11.4999V10.998V9.99799C11.4999 9.86538 11.5526 9.7382 11.6464 9.64443C11.7402 9.55066 11.8673 9.49799 11.9999 9.49799C12.1325 9.49799 12.2597 9.55066 12.3535 9.64443C12.4473 9.7382 12.4999 9.86538 12.4999 9.99799V10.998ZM21.361 11.6461L21.3609 11.6462L21.3708 11.6554C21.4193 11.7002 21.4585 11.7542 21.486 11.8142C21.5136 11.8742 21.529 11.9391 21.5313 12.0052C21.5336 12.0712 21.5229 12.137 21.4996 12.1988C21.4771 12.2585 21.4434 12.3134 21.4004 12.3604L19.0571 14.6937L18.9099 14.8403V15.048V18.358C18.9099 18.4906 18.8573 18.6178 18.7635 18.7115C18.6697 18.8053 18.5425 18.858 18.4099 18.858H15.0999H14.8922L14.7456 19.0052L12.4056 21.3552L12.4049 21.3559C12.3585 21.4028 12.3032 21.4399 12.2422 21.4653C12.1813 21.4907 12.1159 21.5038 12.0499 21.5038C11.9839 21.5038 11.9186 21.4907 11.8576 21.4653C11.7967 21.4399 11.7414 21.4028 11.6949 21.3559L11.6942 21.3552L9.35425 19.0052L9.20767 18.858H8.99994H5.63994C5.50733 18.858 5.38016 18.8053 5.28639 18.7115C5.19262 18.6178 5.13994 18.4906 5.13994 18.358V15.048V14.8403L4.99274 14.6937L2.64274 12.3537L2.64204 12.353C2.59517 12.3065 2.55798 12.2512 2.53259 12.1903C2.50721 12.1293 2.49414 12.064 2.49414 11.998C2.49414 11.932 2.50721 11.8666 2.53259 11.8057C2.55774 11.7453 2.59449 11.6905 2.64075 11.6443L4.98889 9.35608L5.13994 9.20889V8.99799V5.63799C5.13994 5.50538 5.19262 5.3782 5.28639 5.28443C5.38015 5.19066 5.50733 5.13799 5.63994 5.13799H8.99994H9.21084L9.35803 4.98694L11.6462 2.6388C11.6924 2.59254 11.7473 2.55579 11.8076 2.53064C11.8686 2.50526 11.9339 2.49219 11.9999 2.49219C12.0659 2.49219 12.1313 2.50526 12.1922 2.53064C12.2532 2.55603 12.3085 2.59322 12.3549 2.64009L12.3556 2.64078L14.6956 4.99078L14.8422 5.13799H15.0499H18.3599C18.4925 5.13799 18.6197 5.19066 18.7135 5.28443C18.8073 5.3782 18.8599 5.50538 18.8599 5.63799V8.99799V9.20889L19.011 9.35608L21.361 11.6461ZM18.0099 14.2851L18.01 14.2851L18.0135 14.2815L19.9435 12.3515L20.297 11.998L19.9435 11.6444L18.0135 9.71443L18.0135 9.71441L18.0099 9.71091C17.9627 9.6646 17.9251 9.60938 17.8994 9.54844C17.8737 9.4878 17.8603 9.42268 17.8599 9.35685V6.63799V6.13799H17.3599H14.6412C14.5753 6.1376 14.5102 6.1242 14.4495 6.09857C14.3885 6.07282 14.3333 6.03524 14.287 5.98799L14.287 5.98797L14.2835 5.98443L12.3535 4.05443L11.9999 3.70088L11.6464 4.05443L9.71639 5.98443L9.71637 5.98441L9.71286 5.98799C9.66656 6.03523 9.61133 6.07282 9.5504 6.09857C9.48972 6.1242 9.42458 6.1376 9.35872 6.13799H6.63994H6.13994V6.63799V9.35677C6.13955 9.42263 6.12616 9.48777 6.10052 9.54844C6.07477 9.60938 6.03719 9.6646 5.98994 9.71091L5.98993 9.71089L5.98639 9.71443L4.05639 11.6444L3.70283 11.998L4.05639 12.3515L5.98639 14.2815L5.98637 14.2816L5.98994 14.2851C6.03719 14.3314 6.07477 14.3866 6.10052 14.4475C6.12616 14.5082 6.13955 14.5733 6.13994 14.6392V17.358V17.858H6.63994H9.3588C9.42464 17.8584 9.48975 17.8718 9.5504 17.8974C9.61133 17.9232 9.66655 17.9607 9.71286 18.008L9.71284 18.008L9.71639 18.0115L11.6464 19.9415L11.9999 20.2951L12.3535 19.9415L14.2835 18.0115L14.2835 18.0116L14.287 18.008C14.3333 17.9607 14.3885 17.9232 14.4495 17.8974C14.5101 17.8718 14.5752 17.8584 14.6411 17.858H17.3599H17.8599V17.358V14.6391C17.8603 14.5733 17.8737 14.5082 17.8994 14.4475C17.9251 14.3866 17.9627 14.3314 18.0099 14.2851Z" fill="#111111" stroke="#111111"/>
</svg>
