<svg width="24" height="24" viewBox="0 0 24 24" fill="none" xmlns="http://www.w3.org/2000/svg">
<path d="M11.6436 17.6536L11.645 17.6521C11.6915 17.6052 11.7468 17.568 11.8077 17.5427C11.8686 17.5173 11.934 17.5042 12 17.5042C12.066 17.5042 12.1314 17.5173 12.1923 17.5427C12.2532 17.568 12.3085 17.6052 12.355 17.6521L12.3554 17.6525C12.4485 17.7462 12.5008 17.8729 12.5008 18.005C12.5008 18.1368 12.4488 18.2633 12.356 18.3569C12.3558 18.3571 12.3556 18.3573 12.3554 18.3575L9.35644 21.3564L9.355 21.3579C9.30851 21.4048 9.25321 21.442 9.19229 21.4673C9.13136 21.4927 9.06601 21.5058 9 21.5058C8.93399 21.5058 8.86864 21.4927 8.80771 21.4673C8.74679 21.442 8.69149 21.4048 8.645 21.3579L8.64355 21.3564L5.6446 18.3575C5.64441 18.3573 5.64423 18.3571 5.64404 18.3569C5.55127 18.2633 5.49921 18.1368 5.49921 18.005C5.49921 17.8729 5.55148 17.7462 5.6446 17.6525L5.645 17.6521C5.69148 17.6052 5.74678 17.568 5.80771 17.5427C5.86864 17.5173 5.93399 17.5042 6 17.5042C6.06601 17.5042 6.13136 17.5173 6.19229 17.5427C6.25322 17.568 6.30852 17.6052 6.355 17.6521L6.35508 17.6522L7.64508 18.9522L8.5 19.8137V18.6V7C8.5 6.86739 8.55268 6.74022 8.64645 6.64645C8.74022 6.55268 8.86739 6.5 9 6.5C9.13261 6.5 9.25978 6.55268 9.35355 6.64645C9.44732 6.74022 9.5 6.86739 9.5 7V18.59V19.7971L10.3536 18.9436L11.6436 17.6536ZM3.5 8V8.5H4H5C5.13261 8.5 5.25978 8.55268 5.35355 8.64645C5.44732 8.74021 5.5 8.86739 5.5 9C5.5 9.13261 5.44732 9.25979 5.35355 9.35355C5.25978 9.44732 5.13261 9.5 5 9.5H3C2.86739 9.5 2.74021 9.44732 2.64645 9.35355C2.55268 9.25979 2.5 9.13261 2.5 9V3C2.5 2.86739 2.55268 2.74021 2.64645 2.64645C2.74021 2.55268 2.86739 2.5 3 2.5H21C21.1326 2.5 21.2598 2.55268 21.3536 2.64645C21.4473 2.74021 21.5 2.86739 21.5 3V9V15C21.5 15.1326 21.4473 15.2598 21.3536 15.3536C21.2598 15.4473 21.1326 15.5 21 15.5H15C14.8674 15.5 14.7402 15.4473 14.6464 15.3536C14.5527 15.2598 14.5 15.1326 14.5 15V10V9.5H14H13C12.8674 9.5 12.7402 9.44732 12.6464 9.35355C12.5527 9.25978 12.5 9.13261 12.5 9C12.5 8.86739 12.5527 8.74022 12.6464 8.64645C12.7402 8.55268 12.8674 8.5 13 8.5H20H20.5V8V4V3.5H20H4H3.5V4V8ZM20 14.5H20.5V14V10V9.5H20H16H15.5V10V14V14.5H16H20Z" fill="#111111" stroke="#111111"/>
</svg>
