<svg width="24" height="24" viewBox="0 0 24 24" fill="none" xmlns="http://www.w3.org/2000/svg">
<path d="M6 6.5H6.5V6V5C6.5 4.33696 6.76339 3.70107 7.23223 3.23223C7.70107 2.76339 8.33696 2.5 9 2.5H19C19.663 2.5 20.2989 2.76339 20.7678 3.23223C21.2366 3.70107 21.5 4.33696 21.5 5V15C21.5 15.663 21.2366 16.2989 20.7678 16.7678C20.2989 17.2366 19.663 17.5 19 17.5H18H17.5V18V19C17.5 19.663 17.2366 20.2989 16.7678 20.7678C16.2989 21.2366 15.663 21.5 15 21.5H5C4.33696 21.5 3.70107 21.2366 3.23223 20.7678C2.76339 20.2989 2.5 19.663 2.5 19V9C2.5 8.33696 2.76339 7.70107 3.23223 7.23223C3.70107 6.76339 4.33696 6.5 5 6.5H6ZM4 11.5H3.5V12V19C3.5 19.3978 3.65804 19.7794 3.93934 20.0607C4.22065 20.342 4.60218 20.5 5 20.5H15C15.3978 20.5 15.7794 20.342 16.0607 20.0607C16.342 19.7794 16.5 19.3978 16.5 19V12V11.5H16H4ZM16 10.5H16.5V10V9C16.5 8.60218 16.342 8.22064 16.0607 7.93934C15.7794 7.65804 15.3978 7.5 15 7.5H5C4.60217 7.5 4.22064 7.65804 3.93934 7.93934C3.65804 8.22064 3.5 8.60218 3.5 9V10V10.5H4H16ZM17.5 16V16.5H18H19C19.3978 16.5 19.7794 16.342 20.0607 16.0607C20.342 15.7794 20.5 15.3978 20.5 15V8V7.5H20H17.82H17.1065L17.35 8.17063C17.4468 8.43728 17.4975 8.71846 17.5 9.00212V16ZM20 6.5H20.5V6V5C20.5 4.60218 20.342 4.22065 20.0607 3.93934C19.7794 3.65804 19.3978 3.5 19 3.5H9C8.60218 3.5 8.22064 3.65804 7.93934 3.93934C7.65804 4.22064 7.5 4.60217 7.5 5V6V6.5H8H20Z" fill="#111111" stroke="#111111"/>
</svg>
