<svg width="24" height="24" viewBox="0 0 24 24" fill="none" xmlns="http://www.w3.org/2000/svg">
<path d="M9.5 14V13.5H9H8C7.33696 13.5 6.70107 13.2366 6.23223 12.7678C5.76339 12.2989 5.5 11.663 5.5 11V2C5.5 1.86739 5.55268 1.74021 5.64645 1.64645C5.74022 1.55268 5.86739 1.5 6 1.5H18C18.1326 1.5 18.2598 1.55268 18.3536 1.64645C18.4473 1.74021 18.5 1.86739 18.5 2V11C18.5 11.663 18.2366 12.2989 17.7678 12.7678C17.2989 13.2366 16.663 13.5 16 13.5H15H14.5V14V16.37V16.559L14.625 16.7007C15.0705 17.2059 15.3608 17.8289 15.461 18.495C15.5613 19.161 15.4672 19.8419 15.19 20.4558C14.9129 21.0697 14.4645 21.5906 13.8987 21.956C13.3328 22.3214 12.6736 22.5158 12 22.5158C11.3264 22.5158 10.6672 22.3214 10.1013 21.956C9.53549 21.5906 9.0871 21.0697 8.80997 20.4558C8.53284 19.8419 8.43874 19.161 8.53896 18.495C8.63919 17.8289 8.92948 17.2059 9.375 16.7007L9.5 16.559V16.37V14ZM11.9962 21.5L11.9962 21.5L12.0038 21.5C12.5068 21.4962 12.9969 21.3407 13.4102 21.054C13.8234 20.7672 14.1405 20.3624 14.3201 19.8926C14.4997 19.4227 14.5333 18.9096 14.4167 18.4203C14.3001 17.931 14.0385 17.4883 13.6663 17.15L13.665 17.1488C13.6132 17.1021 13.5718 17.045 13.5433 16.9813C13.515 16.9177 13.5002 16.8488 13.5 16.7792C13.5 16.7791 13.5 16.7789 13.5 16.7788L13.5 14V13.5H13H11H10.5V14V16.7793C10.4998 16.8489 10.485 16.9177 10.4567 16.9813C10.4282 17.045 10.3868 17.1021 10.335 17.1488L10.3337 17.15C9.96148 17.4883 9.69995 17.931 9.5833 18.4203C9.46666 18.9096 9.50032 19.4227 9.67989 19.8926C9.85946 20.3624 10.1766 20.7672 10.5898 21.054C11.0031 21.3407 11.4932 21.4962 11.9962 21.5ZM7 9.5H6.5V10V11C6.5 11.3978 6.65804 11.7794 6.93934 12.0607C7.22064 12.342 7.60217 12.5 8 12.5H16C16.3978 12.5 16.7794 12.342 17.0607 12.0607C17.342 11.7794 17.5 11.3978 17.5 11V10V9.5H17H7ZM17 8.5H17.5V8V3V2.5H17H7H6.5V3V8V8.5H7H17ZM11.7222 18.5843C11.8044 18.5293 11.9011 18.5 12 18.5C12.1326 18.5 12.2598 18.5527 12.3536 18.6464C12.4473 18.7402 12.5 18.8674 12.5 19C12.5 19.0989 12.4707 19.1956 12.4157 19.2778C12.3608 19.36 12.2827 19.4241 12.1913 19.4619C12.1 19.4998 11.9994 19.5097 11.9025 19.4904C11.8055 19.4711 11.7164 19.4235 11.6464 19.3536C11.5765 19.2836 11.5289 19.1945 11.5096 19.0975C11.4903 19.0006 11.5002 18.9 11.5381 18.8087C11.5759 18.7173 11.64 18.6392 11.7222 18.5843Z" fill="#111111" stroke="#111111"/>
</svg>
