<svg width="24" height="24" viewBox="0 0 24 24" fill="none" xmlns="http://www.w3.org/2000/svg">
<path d="M8.44058 5C8.12636 4.99934 7.81986 5.09737 7.56435 5.28026C7.30864 5.4633 7.11692 5.72207 7.01629 6.02L7.01628 6.02L7.01537 6.02274L5.91537 9.34274L5.69761 10H6.39H9H9.5V9.5V5.5V5H9H8.44058ZM8.44058 5C8.44082 5 8.44105 5 8.44129 5L8.44 5.5M8.44058 5H8.44V5.5M8.44 5.5H8.5H9V6V9V9.5H8.5H6.91673L6.86463 9.65726L6.39 9.5V9H6.55566L7.49 6.18C7.55709 5.98138 7.6849 5.80887 7.85537 5.68684C8.02584 5.56482 8.23036 5.49946 8.44 5.5ZM3.5 17.5V17H3H2C1.86739 17 1.74021 16.9473 1.64645 16.8536C1.55268 16.7598 1.5 16.6326 1.5 16.5V12.5015C1.5006 12.4195 1.52135 12.3389 1.56043 12.2669C1.59969 12.1945 1.65621 12.1329 1.72499 12.0876L1.725 12.0876L1.7277 12.0858L4.4377 10.2758L4.58 10.1807L4.63423 10.0184L6.07423 5.70844L6.07427 5.70833C6.24011 5.21157 6.55777 4.77944 6.98241 4.47292C7.40693 4.16649 7.91694 4.00107 8.44049 4H20C20.663 4 21.2989 4.26339 21.7678 4.73223C22.2366 5.20107 22.5 5.83696 22.5 6.5V16.5C22.5 16.6326 22.4473 16.7598 22.3536 16.8536C22.2598 16.9473 22.1326 17 22 17H21H20.5V17.5C20.5 18.163 20.2366 18.7989 19.7678 19.2678C19.2989 19.7366 18.663 20 18 20C17.337 20 16.7011 19.7366 16.2322 19.2678C15.7634 18.7989 15.5 18.163 15.5 17.5V17H15H9H8.5V17.5C8.5 18.163 8.23661 18.7989 7.76777 19.2678C7.29893 19.7366 6.66304 20 6 20C5.33696 20 4.70107 19.7366 4.23223 19.2678C3.76339 18.7989 3.5 18.163 3.5 17.5ZM21 10H21.5V9.5V6.5C21.5 6.10218 21.342 5.72065 21.0607 5.43934C20.7794 5.15804 20.3978 5 20 5H19H18.5V5.5V9.5V10H19H21ZM15 11H14.5V11.5V15.5V16H15H15.78H16.0012L16.15 15.8363C16.3843 15.5785 16.6699 15.3725 16.9885 15.2316C17.3071 15.0906 17.6516 15.0178 18 15.0178C18.3484 15.0178 18.6929 15.0906 19.0115 15.2316C19.3301 15.3725 19.6157 15.5785 19.85 15.8363L19.9988 16H20.22H21H21.5V15.5V11.5V11H21H15ZM15 5H14.5V5.5V9.5V10H15H17H17.5V9.5V5.5V5H17H15ZM11 11H10.5V11.5V15.5V16H11H13H13.5V15.5V11.5V11H13H11ZM11 5H10.5V5.5V9.5V10H11H13H13.5V9.5V5.5V5H13H11ZM2.72687 12.5812L2.5 12.7292V13V15.5V16H3H3.78H4.00121L4.15 15.8363C4.38432 15.5785 4.66993 15.3725 4.98851 15.2316C5.3071 15.0906 5.65163 15.0178 6 15.0178C6.34837 15.0178 6.6929 15.0906 7.01149 15.2316C7.33007 15.3725 7.61568 15.5785 7.85 15.8363L7.99879 16H8.22H9H9.5V15.5V11.5V11H9H5.3H5.15136L5.02687 11.0812L2.72687 12.5812ZM16.7528 16.6666C16.588 16.9133 16.5 17.2033 16.5 17.5C16.5 17.8978 16.658 18.2794 16.9393 18.5607C17.2206 18.842 17.6022 19 18 19C18.2967 19 18.5867 18.912 18.8334 18.7472C19.08 18.5824 19.2723 18.3481 19.3858 18.074C19.4993 17.7999 19.5291 17.4983 19.4712 17.2074C19.4133 16.9164 19.2704 16.6491 19.0607 16.4393C18.8509 16.2296 18.5836 16.0867 18.2926 16.0288C18.0017 15.9709 17.7001 16.0006 17.426 16.1142C17.1519 16.2277 16.9176 16.42 16.7528 16.6666ZM4.7528 16.6666C4.58797 16.9133 4.5 17.2033 4.5 17.5C4.5 17.8978 4.65804 18.2794 4.93934 18.5607C5.22064 18.842 5.60218 19 6 19C6.29667 19 6.58668 18.912 6.83335 18.7472C7.08003 18.5824 7.27229 18.3481 7.38582 18.074C7.49935 17.7999 7.52906 17.4983 7.47118 17.2074C7.4133 16.9164 7.27044 16.6491 7.06066 16.4393C6.85088 16.2296 6.58361 16.0867 6.29264 16.0288C6.00166 15.9709 5.70006 16.0006 5.42598 16.1142C5.15189 16.2277 4.91762 16.42 4.7528 16.6666Z" fill="#111111" stroke="#111111"/>
</svg>
