<svg width="24" height="24" viewBox="0 0 24 24" fill="none" xmlns="http://www.w3.org/2000/svg">
<mask id="path-1-inside-1_2239_8298" fill="white">
<path d="M12.29 5.20799L13.79 6.70799C13.883 6.80171 13.9936 6.87611 14.1154 6.92688C14.2373 6.97765 14.368 7.00378 14.5 7.00378C14.632 7.00378 14.7627 6.97765 14.8846 6.92688C15.0064 6.87611 15.117 6.80171 15.21 6.70799C15.3618 6.54869 15.4567 6.34379 15.4803 6.12504C15.5038 5.90628 15.4545 5.68588 15.34 5.49799H19C19.2652 5.49799 19.5196 5.39263 19.7071 5.20509C19.8946 5.01756 20 4.7632 20 4.49799C20 4.23277 19.8946 3.97842 19.7071 3.79088C19.5196 3.60334 19.2652 3.49799 19 3.49799H15.34C15.4545 3.31009 15.5038 3.08969 15.4803 2.87093C15.4567 2.65218 15.3618 2.44728 15.21 2.28799C15.117 2.19426 15.0064 2.11986 14.8846 2.06909C14.7627 2.01833 14.632 1.99219 14.5 1.99219C14.368 1.99219 14.2373 2.01833 14.1154 2.06909C13.9936 2.11986 13.883 2.19426 13.79 2.28799L12.29 3.78799C12.199 3.88309 12.1276 3.99523 12.08 4.11799C11.98 4.36145 11.98 4.63452 12.08 4.87799C12.1276 5.00074 12.199 5.11288 12.29 5.20799ZM22.92 9.11799C22.8724 8.99523 22.801 8.88309 22.71 8.78799L21.21 7.28799C21.117 7.19426 21.0064 7.11986 20.8846 7.06909C20.7627 7.01833 20.632 6.99219 20.5 6.99219C20.368 6.99219 20.2373 7.01833 20.1154 7.06909C19.9936 7.11986 19.883 7.19426 19.79 7.28799C19.6382 7.44728 19.5433 7.65218 19.5197 7.87093C19.4962 8.08969 19.5455 8.31009 19.66 8.49799H16C15.7348 8.49799 15.4804 8.60334 15.2929 8.79088C15.1054 8.97842 15 9.23277 15 9.49799C15 9.7632 15.1054 10.0176 15.2929 10.2051C15.4804 10.3926 15.7348 10.498 16 10.498H19.66C19.5455 10.6859 19.4962 10.9063 19.5197 11.125C19.5433 11.3438 19.6382 11.5487 19.79 11.708C19.883 11.8017 19.9936 11.8761 20.1154 11.9269C20.2373 11.9776 20.368 12.0038 20.5 12.0038C20.632 12.0038 20.7627 11.9776 20.8846 11.9269C21.0064 11.8761 21.117 11.8017 21.21 11.708L22.71 10.208C22.801 10.1129 22.8724 10.0007 22.92 9.87799C23.02 9.63452 23.02 9.36145 22.92 9.11799ZM11 9.99799C10.2089 9.99799 9.43552 10.2326 8.77772 10.6721C8.11992 11.1116 7.60723 11.7363 7.30448 12.4673C7.00173 13.1982 6.92252 14.0024 7.07686 14.7783C7.2312 15.5543 7.61216 16.267 8.17157 16.8264C8.73098 17.3858 9.44372 17.7668 10.2196 17.9211C10.9956 18.0755 11.7998 17.9963 12.5307 17.6935C13.2616 17.3908 13.8864 16.8781 14.3259 16.2203C14.7654 15.5625 15 14.7891 15 13.998C15 12.9371 14.5786 11.9197 13.8284 11.1696C13.0783 10.4194 12.0609 9.99799 11 9.99799ZM11 15.998C10.6044 15.998 10.2178 15.8807 9.88886 15.6609C9.55996 15.4412 9.30362 15.1288 9.15224 14.7634C9.00087 14.3979 8.96126 13.9958 9.03843 13.6078C9.1156 13.2198 9.30608 12.8635 9.58579 12.5838C9.86549 12.3041 10.2219 12.1136 10.6098 12.0364C10.9978 11.9592 11.3999 11.9989 11.7654 12.1502C12.1308 12.3016 12.4432 12.5579 12.6629 12.8868C12.8827 13.2157 13 13.6024 13 13.998C13 14.5284 12.7893 15.0371 12.4142 15.4122C12.0391 15.7873 11.5304 15.998 11 15.998ZM20 12.998C19.7348 12.998 19.4804 13.1033 19.2929 13.2909C19.1054 13.4784 19 13.7328 19 13.998V18.998C19 19.2632 18.8946 19.5176 18.7071 19.7051C18.5196 19.8926 18.2652 19.998 18 19.998H4C3.73478 19.998 3.48043 19.8926 3.29289 19.7051C3.10536 19.5176 3 19.2632 3 18.998V10.998C3 10.7328 3.10536 10.4784 3.29289 10.2909C3.48043 10.1033 3.73478 9.99799 4 9.99799H6C6.21932 10.0087 6.43607 9.94697 6.6168 9.82226C6.79753 9.69756 6.93219 9.51683 7 9.30799L7.54 7.68799C7.60251 7.49537 7.72202 7.32628 7.88273 7.20307C8.04344 7.07986 8.23776 7.00835 8.44 6.99799H10C10.2652 6.99799 10.5196 6.89263 10.7071 6.70509C10.8946 6.51756 11 6.2632 11 5.99799C11 5.73277 10.8946 5.47842 10.7071 5.29088C10.5196 5.10334 10.2652 4.99799 10 4.99799H8.44C7.80861 4.99776 7.19324 5.19675 6.68152 5.56662C6.16981 5.93649 5.78784 6.45839 5.59 7.05799L5.28 7.99799H4C3.20435 7.99799 2.44129 8.31406 1.87868 8.87667C1.31607 9.43927 1 10.2023 1 10.998V18.998C1 19.7936 1.31607 20.5567 1.87868 21.1193C2.44129 21.6819 3.20435 21.998 4 21.998H18C18.7956 21.998 19.5587 21.6819 20.1213 21.1193C20.6839 20.5567 21 19.7936 21 18.998V13.998C21 13.7328 20.8946 13.4784 20.7071 13.2909C20.5196 13.1033 20.2652 12.998 20 12.998Z"/>
</mask>
<path d="M12.29 5.20799L13.79 6.70799C13.883 6.80171 13.9936 6.87611 14.1154 6.92688C14.2373 6.97765 14.368 7.00378 14.5 7.00378C14.632 7.00378 14.7627 6.97765 14.8846 6.92688C15.0064 6.87611 15.117 6.80171 15.21 6.70799C15.3618 6.54869 15.4567 6.34379 15.4803 6.12504C15.5038 5.90628 15.4545 5.68588 15.34 5.49799H19C19.2652 5.49799 19.5196 5.39263 19.7071 5.20509C19.8946 5.01756 20 4.7632 20 4.49799C20 4.23277 19.8946 3.97842 19.7071 3.79088C19.5196 3.60334 19.2652 3.49799 19 3.49799H15.34C15.4545 3.31009 15.5038 3.08969 15.4803 2.87093C15.4567 2.65218 15.3618 2.44728 15.21 2.28799C15.117 2.19426 15.0064 2.11986 14.8846 2.06909C14.7627 2.01833 14.632 1.99219 14.5 1.99219C14.368 1.99219 14.2373 2.01833 14.1154 2.06909C13.9936 2.11986 13.883 2.19426 13.79 2.28799L12.29 3.78799C12.199 3.88309 12.1276 3.99523 12.08 4.11799C11.98 4.36145 11.98 4.63452 12.08 4.87799C12.1276 5.00074 12.199 5.11288 12.29 5.20799ZM22.92 9.11799C22.8724 8.99523 22.801 8.88309 22.71 8.78799L21.21 7.28799C21.117 7.19426 21.0064 7.11986 20.8846 7.06909C20.7627 7.01833 20.632 6.99219 20.5 6.99219C20.368 6.99219 20.2373 7.01833 20.1154 7.06909C19.9936 7.11986 19.883 7.19426 19.79 7.28799C19.6382 7.44728 19.5433 7.65218 19.5197 7.87093C19.4962 8.08969 19.5455 8.31009 19.66 8.49799H16C15.7348 8.49799 15.4804 8.60334 15.2929 8.79088C15.1054 8.97842 15 9.23277 15 9.49799C15 9.7632 15.1054 10.0176 15.2929 10.2051C15.4804 10.3926 15.7348 10.498 16 10.498H19.66C19.5455 10.6859 19.4962 10.9063 19.5197 11.125C19.5433 11.3438 19.6382 11.5487 19.79 11.708C19.883 11.8017 19.9936 11.8761 20.1154 11.9269C20.2373 11.9776 20.368 12.0038 20.5 12.0038C20.632 12.0038 20.7627 11.9776 20.8846 11.9269C21.0064 11.8761 21.117 11.8017 21.21 11.708L22.71 10.208C22.801 10.1129 22.8724 10.0007 22.92 9.87799C23.02 9.63452 23.02 9.36145 22.92 9.11799ZM11 9.99799C10.2089 9.99799 9.43552 10.2326 8.77772 10.6721C8.11992 11.1116 7.60723 11.7363 7.30448 12.4673C7.00173 13.1982 6.92252 14.0024 7.07686 14.7783C7.2312 15.5543 7.61216 16.267 8.17157 16.8264C8.73098 17.3858 9.44372 17.7668 10.2196 17.9211C10.9956 18.0755 11.7998 17.9963 12.5307 17.6935C13.2616 17.3908 13.8864 16.8781 14.3259 16.2203C14.7654 15.5625 15 14.7891 15 13.998C15 12.9371 14.5786 11.9197 13.8284 11.1696C13.0783 10.4194 12.0609 9.99799 11 9.99799ZM11 15.998C10.6044 15.998 10.2178 15.8807 9.88886 15.6609C9.55996 15.4412 9.30362 15.1288 9.15224 14.7634C9.00087 14.3979 8.96126 13.9958 9.03843 13.6078C9.1156 13.2198 9.30608 12.8635 9.58579 12.5838C9.86549 12.3041 10.2219 12.1136 10.6098 12.0364C10.9978 11.9592 11.3999 11.9989 11.7654 12.1502C12.1308 12.3016 12.4432 12.5579 12.6629 12.8868C12.8827 13.2157 13 13.6024 13 13.998C13 14.5284 12.7893 15.0371 12.4142 15.4122C12.0391 15.7873 11.5304 15.998 11 15.998ZM20 12.998C19.7348 12.998 19.4804 13.1033 19.2929 13.2909C19.1054 13.4784 19 13.7328 19 13.998V18.998C19 19.2632 18.8946 19.5176 18.7071 19.7051C18.5196 19.8926 18.2652 19.998 18 19.998H4C3.73478 19.998 3.48043 19.8926 3.29289 19.7051C3.10536 19.5176 3 19.2632 3 18.998V10.998C3 10.7328 3.10536 10.4784 3.29289 10.2909C3.48043 10.1033 3.73478 9.99799 4 9.99799H6C6.21932 10.0087 6.43607 9.94697 6.6168 9.82226C6.79753 9.69756 6.93219 9.51683 7 9.30799L7.54 7.68799C7.60251 7.49537 7.72202 7.32628 7.88273 7.20307C8.04344 7.07986 8.23776 7.00835 8.44 6.99799H10C10.2652 6.99799 10.5196 6.89263 10.7071 6.70509C10.8946 6.51756 11 6.2632 11 5.99799C11 5.73277 10.8946 5.47842 10.7071 5.29088C10.5196 5.10334 10.2652 4.99799 10 4.99799H8.44C7.80861 4.99776 7.19324 5.19675 6.68152 5.56662C6.16981 5.93649 5.78784 6.45839 5.59 7.05799L5.28 7.99799H4C3.20435 7.99799 2.44129 8.31406 1.87868 8.87667C1.31607 9.43927 1 10.2023 1 10.998V18.998C1 19.7936 1.31607 20.5567 1.87868 21.1193C2.44129 21.6819 3.20435 21.998 4 21.998H18C18.7956 21.998 19.5587 21.6819 20.1213 21.1193C20.6839 20.5567 21 19.7936 21 18.998V13.998C21 13.7328 20.8946 13.4784 20.7071 13.2909C20.5196 13.1033 20.2652 12.998 20 12.998Z" fill="#111111" stroke="#111111" stroke-width="2" mask="url(#path-1-inside-1_2239_8298)"/>
</svg>
