<svg width="24" height="24" viewBox="0 0 24 24" fill="none" xmlns="http://www.w3.org/2000/svg">
<path d="M11.999 14.9963C12.3797 14.9977 12.7556 14.9122 13.0981 14.7463L13.7308 14.4398L13.2337 13.9427L10.5537 11.2627L10.0566 10.7656L9.75019 11.3983C9.58429 11.7408 9.49878 12.1167 9.50019 12.4973M11.999 14.9963C11.3364 14.996 10.701 14.7326 10.2324 14.264C9.76382 13.7954 9.50046 13.16 9.50019 12.4973M11.999 14.9963C11.9994 14.9963 11.9998 14.9963 12.0002 14.9963V14.4963L11.9981 14.9963C11.9984 14.9963 11.9987 14.9963 11.999 14.9963ZM9.50019 12.4973C9.50019 12.4976 9.50019 12.498 9.50019 12.4983L10.0002 12.4963H9.50019C9.50019 12.4966 9.50019 12.497 9.50019 12.4973ZM12.8802 14.2963C12.7101 14.3787 12.5298 14.4362 12.3446 14.4678L12.5266 14.6498L12.8802 14.2963ZM12.8802 14.2963L12.6622 13.8463C12.6088 13.8722 12.5539 13.8948 12.498 13.9141L12.8802 14.2963ZM10.2002 11.6163L10.6502 11.8342C10.6243 11.8877 10.6016 11.9425 10.5823 11.9984L10.2002 11.6163ZM10.2002 11.6163L9.84663 11.9698L10.0286 12.1518C10.0602 11.9667 10.1178 11.7863 10.2002 11.6163ZM17.3517 6.99628L17.2426 6.64433L16.9356 5.6541C16.7616 5.16752 16.4409 4.74675 16.0178 4.44981C15.5921 4.15107 15.0838 3.99253 14.5638 3.99627L14.5602 3.99629L10.1602 3.99628C10.0276 3.99628 9.9004 4.04896 9.80663 4.14273C9.71286 4.23649 9.66019 4.36367 9.66019 4.49628C9.66019 4.62889 9.71286 4.75606 9.80663 4.84983C9.9004 4.9436 10.0276 4.99628 10.1602 4.99628H14.5596H14.5602V5.49628L17.3517 6.99628ZM17.3517 6.99628H17.7202M17.3517 6.99628H17.7202M17.7202 6.99628H19.0002M17.7202 6.99628H19.0002M19.0002 6.99628C19.6632 6.99628 20.2991 7.25967 20.768 7.72851C21.2368 8.19735 21.5002 8.83324 21.5002 9.49628V15.3363C21.5002 15.4689 21.4475 15.5961 21.3537 15.6898C21.26 15.7836 21.1328 15.8363 21.0002 15.8363C20.8676 15.8363 20.7404 15.7836 20.6466 15.6898C20.5529 15.5961 20.5002 15.4689 20.5002 15.3363V9.49628C20.5002 9.09846 20.3422 8.71692 20.0608 8.43562C19.7795 8.15431 19.398 7.99628 19.0002 7.99628H17.0006L19.0002 6.99628ZM5.09019 6.99628H6.30035L5.44311 6.14209L2.64374 3.35273C2.64365 3.35264 2.64356 3.35255 2.64348 3.35246C2.54911 3.25795 2.49609 3.12985 2.49609 2.99628C2.49609 2.86259 2.5492 2.73437 2.64374 2.63983C2.69055 2.59302 2.74612 2.55589 2.80728 2.53056C2.86844 2.50523 2.93399 2.49219 3.00019 2.49219C3.06638 2.49219 3.13193 2.50523 3.19309 2.53056C3.25421 2.55587 3.30975 2.59297 3.35653 2.63973C3.35657 2.63977 3.3566 2.6398 3.35663 2.63983L21.3565 20.6497L21.3581 20.6513C21.4049 20.6978 21.4421 20.7531 21.4675 20.814C21.4929 20.8749 21.506 20.9403 21.506 21.0063C21.506 21.0723 21.4929 21.1376 21.4675 21.1986C21.4421 21.2595 21.405 21.3148 21.3581 21.3613L21.3552 21.3642C21.3087 21.411 21.2534 21.4482 21.1925 21.4736C21.1315 21.499 21.0662 21.5121 21.0002 21.5121C20.9342 21.5121 20.8688 21.499 20.8079 21.4736C20.747 21.4482 20.6917 21.411 20.6452 21.3642L19.4352 20.1442L19.2885 19.9963H19.0802H5.00019C4.33714 19.9963 3.70126 19.7329 3.23242 19.264C2.76358 18.7952 2.50019 18.1593 2.50019 17.4963V9.49628C2.50019 8.83324 2.76358 8.19735 3.23242 7.72851C3.70126 7.25967 4.33714 6.99628 5.00019 6.99628H5.09019ZM7.42269 8.14168L7.27643 7.99628H7.07019H5.00019C4.60236 7.99628 4.22083 8.15432 3.93953 8.43562C3.65822 8.71692 3.50019 9.09845 3.50019 9.49628V17.4963C3.50019 17.8941 3.65822 18.2756 3.93953 18.5569C4.22083 18.8382 4.60236 18.9963 5.00019 18.9963H17.0902H18.2973L17.4437 18.1427L14.6737 15.3727L14.3689 15.0679L14.0226 15.3245C13.437 15.7583 12.7281 15.9936 11.9993 15.9963C11.0714 15.9961 10.1815 15.6273 9.52531 14.9712C8.86928 14.3151 8.50057 13.4255 8.50019 12.4977C8.50482 11.7722 8.74008 11.0669 9.17196 10.4839L9.4293 10.1365L9.12269 9.83168L7.42269 8.14168Z" fill="#111111" stroke="#111111"/>
</svg>
