<svg width="24" height="24" viewBox="0 0 24 24" fill="none" xmlns="http://www.w3.org/2000/svg">
<path d="M19.2855 9.26625L19.3711 9.5235L19.6333 9.59218C20.1664 9.73177 20.6384 10.0436 20.976 10.4791C21.3134 10.9144 21.4976 11.4489 21.5 11.9996V15.3385C21.5 15.4711 21.4473 15.5983 21.3536 15.692C21.2598 15.7858 21.1326 15.8385 21 15.8385C20.8674 15.8385 20.7402 15.7858 20.6464 15.692C20.5527 15.5983 20.5 15.4711 20.5 15.3385V11.9985C20.5 11.6007 20.342 11.2191 20.0607 10.9378C19.7794 10.6565 19.3978 10.4985 19 10.4985H15.66C15.5274 10.4985 15.4002 10.4458 15.3064 10.352C15.2127 10.2583 15.16 10.1311 15.16 9.99848C15.16 9.86588 15.2127 9.7387 15.3064 9.64493C15.4002 9.55116 15.5274 9.49849 15.66 9.49849H17.61H18.2963L18.0859 8.8452L17.0359 5.5852L17.0356 5.58408C16.9339 5.27081 16.7319 4.99973 16.4608 4.81267C16.1934 4.62816 15.8734 4.53553 15.549 4.54849H9.66C9.52739 4.54849 9.40021 4.49581 9.30645 4.40204C9.21268 4.30827 9.16 4.18109 9.16 4.04849C9.16 3.91588 9.21268 3.7887 9.30645 3.69493C9.40021 3.60116 9.52739 3.54848 9.66 3.54848L15.56 3.5485L15.5636 3.54847C16.0836 3.54474 16.5919 3.70328 17.0176 4.00202C17.4421 4.29989 17.7634 4.72237 17.9371 5.2109L19.2855 9.26625ZM3.40038 2.63587L3.40034 2.63591L3.40596 2.64155L21.3559 20.6416L21.3579 20.6435C21.4048 20.69 21.442 20.7453 21.4673 20.8062C21.4927 20.8671 21.5058 20.9325 21.5058 20.9985C21.5058 21.0645 21.4927 21.1298 21.4673 21.1908C21.442 21.2517 21.4048 21.307 21.3579 21.3535L21.355 21.3564C21.3085 21.4033 21.2532 21.4404 21.1923 21.4658C21.1314 21.4912 21.066 21.5043 21 21.5043C20.934 21.5043 20.8686 21.4912 20.8077 21.4658C20.7468 21.4405 20.6915 21.4033 20.6451 21.3565C20.6451 21.3564 20.645 21.3564 20.645 21.3564L19.8157 20.5171L19.5394 20.2374L19.2024 20.4399C19.1405 20.4772 19.0698 20.4974 18.9975 20.4985C18.8658 20.4978 18.7396 20.4452 18.6464 20.352C18.5527 20.2583 18.5 20.1311 18.5 19.9985V19.4085V19.2014L18.3536 19.0549L17.9436 18.6449L17.7971 18.4985H17.59H6H5.5V18.9985V19.9985C5.5 20.1311 5.44732 20.2583 5.35355 20.352C5.25979 20.4458 5.13261 20.4985 5 20.4985C4.86739 20.4985 4.74021 20.4458 4.64645 20.352C4.55268 20.2583 4.5 20.1311 4.5 19.9985V18.8185V18.4649L4.16667 18.3471C3.68037 18.1752 3.25916 17.857 2.96078 17.4363C2.66253 17.0158 2.50159 16.5133 2.5 15.9977V11.9995C2.50244 11.4489 2.68664 10.9144 3.02402 10.4791C3.36159 10.0436 3.8336 9.73177 4.36666 9.59218L4.62796 9.52375L4.71397 9.2677L5.58397 6.6777L5.68282 6.38342L5.46292 6.1643L2.64687 3.35823C2.55244 3.25898 2.50078 3.12653 2.50316 2.98946C2.50555 2.85105 2.56283 2.71927 2.66238 2.6231C2.76194 2.52693 2.89563 2.47425 3.03403 2.47664C3.17243 2.47904 3.30421 2.53631 3.40038 2.63587ZM7.11355 7.74493L6.5829 7.21428L6.29755 7.90837L5.92755 8.80837L5.64384 9.49849H6.39H7.66H8.86711L8.01355 8.64493L7.11355 7.74493ZM9.94355 10.6449L9.79711 10.4985H9.59H5C4.60217 10.4985 4.22064 10.6565 3.93934 10.9378C3.65804 11.2191 3.5 11.6007 3.5 11.9985V15.9985C3.5 16.3963 3.65804 16.7778 3.93934 17.0591C4.22065 17.3405 4.60218 17.4985 5 17.4985H15.59H16.7971L15.9436 16.6449L13.8136 14.5149L13.5373 14.2387L13.2024 14.4399C13.1403 14.4773 13.0695 14.4974 12.9971 14.4985H11C10.8674 14.4985 10.7402 14.4458 10.6464 14.352C10.5527 14.2583 10.5 14.1311 10.5 13.9985C10.5 13.8659 10.5527 13.7387 10.6464 13.6449C10.7402 13.5512 10.8674 13.4985 11 13.4985H11.59H12.7971L11.9436 12.6449L9.94355 10.6449ZM6.72221 13.5828C6.80444 13.5278 6.90111 13.4985 7 13.4985C7.13261 13.4985 7.25978 13.5512 7.35355 13.6449C7.44732 13.7387 7.5 13.8659 7.5 13.9985C7.5 14.0974 7.47068 14.194 7.41574 14.2763C7.36079 14.3585 7.2827 14.4226 7.19134 14.4604C7.09998 14.4983 6.99944 14.5082 6.90246 14.4889C6.80546 14.4696 6.71637 14.422 6.64645 14.352C6.57652 14.2821 6.5289 14.193 6.50961 14.096C6.49031 13.999 6.50022 13.8985 6.53806 13.8071C6.5759 13.7158 6.63999 13.6377 6.72221 13.5828Z" fill="#111111" stroke="#111111"/>
</svg>
