<svg width="24" height="24" viewBox="0 0 24 24" fill="none" xmlns="http://www.w3.org/2000/svg">
<path d="M11.6464 6.64645C11.7402 6.55268 11.8674 6.5 12 6.5C12.1326 6.5 12.2598 6.55268 12.3536 6.64645C12.4473 6.74022 12.5 6.86739 12.5 7V17C12.5 17.1326 12.4473 17.2598 12.3536 17.3536C12.2598 17.4473 12.1326 17.5 12 17.5C11.8674 17.5 11.7402 17.4473 11.6464 17.3536C11.5527 17.2598 11.5 17.1326 11.5 17V7C11.5 6.86739 11.5527 6.74022 11.6464 6.64645ZM6.64645 12.6464C6.74022 12.5527 6.86739 12.5 7 12.5C7.13261 12.5 7.25978 12.5527 7.35355 12.6464C7.44732 12.7402 7.5 12.8674 7.5 13V17C7.5 17.1326 7.44732 17.2598 7.35355 17.3536C7.25979 17.4473 7.13261 17.5 7 17.5C6.86739 17.5 6.74021 17.4473 6.64645 17.3536C6.55268 17.2598 6.5 17.1326 6.5 17V13C6.5 12.8674 6.55268 12.7402 6.64645 12.6464ZM16.6464 10.6464C16.7402 10.5527 16.8674 10.5 17 10.5C17.1326 10.5 17.2598 10.5527 17.3536 10.6464C17.4473 10.7402 17.5 10.8674 17.5 11V17C17.5 17.1326 17.4473 17.2598 17.3536 17.3536C17.2598 17.4473 17.1326 17.5 17 17.5C16.8674 17.5 16.7402 17.4473 16.6464 17.3536C16.5527 17.2598 16.5 17.1326 16.5 17V11C16.5 10.8674 16.5527 10.7402 16.6464 10.6464ZM5 2.5H19C19.663 2.5 20.2989 2.76339 20.7678 3.23223C21.2366 3.70107 21.5 4.33696 21.5 5V19C21.5 19.663 21.2366 20.2989 20.7678 20.7678C20.2989 21.2366 19.663 21.5 19 21.5H5C4.33696 21.5 3.70107 21.2366 3.23223 20.7678C2.76339 20.2989 2.5 19.663 2.5 19V5C2.5 4.33696 2.76339 3.70107 3.23223 3.23223C3.70107 2.76339 4.33696 2.5 5 2.5ZM20.0607 20.0607C20.342 19.7794 20.5 19.3978 20.5 19V5C20.5 4.60218 20.342 4.22065 20.0607 3.93934C19.7794 3.65804 19.3978 3.5 19 3.5H5C4.60217 3.5 4.22064 3.65804 3.93934 3.93934C3.65804 4.22064 3.5 4.60217 3.5 5V19C3.5 19.3978 3.65804 19.7794 3.93934 20.0607C4.22065 20.342 4.60218 20.5 5 20.5H19C19.3978 20.5 19.7794 20.342 20.0607 20.0607Z" fill="#111111" stroke="#111111"/>
</svg>
