<svg width="24" height="24" viewBox="0 0 24 24" fill="none" xmlns="http://www.w3.org/2000/svg">
<path d="M8.94421 18.6471L8.79765 18.5H8.59H6C5.33696 18.5 4.70107 18.2366 4.23223 17.7678C3.76339 17.2989 3.5 16.663 3.5 16V5C3.5 4.33696 3.76339 3.70107 4.23223 3.23223C4.70107 2.76339 5.33696 2.5 6 2.5H18C18.663 2.5 19.2989 2.76339 19.7678 3.23223C20.2366 3.70107 20.5 4.33696 20.5 5V16C20.5 16.663 20.2366 17.2989 19.7678 17.7678C19.2989 18.2366 18.663 18.5 18 18.5H15.87H15.685L15.5446 18.6204L12.325 21.38C12.3249 21.3801 12.3248 21.3802 12.3247 21.3803C12.2342 21.4575 12.1191 21.5 12 21.5L11.9971 21.5C11.9313 21.5004 11.8661 21.4878 11.8052 21.4629C11.7446 21.4382 11.6896 21.4018 11.643 21.3559C11.6427 21.3556 11.6424 21.3553 11.6421 21.355L8.94421 18.6471ZM15.5 17.5H15.5H18C18.3978 17.5 18.7794 17.342 19.0607 17.0607C19.342 16.7794 19.5 16.3978 19.5 16V5C19.5 4.60218 19.342 4.22065 19.0607 3.93934C18.7794 3.65804 18.3978 3.5 18 3.5H6C5.60217 3.5 5.22064 3.65804 4.93934 3.93934C4.65804 4.22064 4.5 4.60217 4.5 5V16C4.5 16.3978 4.65804 16.7794 4.93934 17.0607C5.22065 17.342 5.60218 17.5 6 17.5L9 17.5L9.00289 17.5C9.0687 17.4996 9.13393 17.5122 9.19484 17.5371C9.25539 17.5618 9.31049 17.5982 9.35703 17.6441C9.35732 17.6444 9.3576 17.6447 9.35789 17.645L11.6957 19.9928L12.0231 20.3216L12.3754 20.0196L15.175 17.62C15.1751 17.6199 15.1752 17.6198 15.1753 17.6197C15.2658 17.5425 15.3809 17.5 15.5 17.5Z" fill="#111111" stroke="#111111"/>
</svg>
