<svg width="24" height="24" viewBox="0 0 24 24" fill="none" xmlns="http://www.w3.org/2000/svg">
<path d="M15.3486 4.16666L15.4664 4.5H15.82H17C17.663 4.5 18.2989 4.76339 18.7678 5.23223C19.2366 5.70107 19.5 6.33696 19.5 7V19C19.5 19.663 19.2366 20.2989 18.7678 20.7678C18.2989 21.2366 17.663 21.5 17 21.5H7C6.33696 21.5 5.70107 21.2366 5.23223 20.7678C4.76339 20.2989 4.5 19.663 4.5 19V7C4.5 6.33696 4.76339 5.70107 5.23223 5.23223C5.70107 4.76339 6.33696 4.5 7 4.5H8.18H8.53356L8.65141 4.16666C8.82333 3.68037 9.14146 3.25916 9.56218 2.96078C9.98272 2.66253 10.4852 2.50159 11.0007 2.5H12.9993C13.5148 2.50159 14.0173 2.66253 14.4378 2.96078C14.8585 3.25916 15.1767 3.68037 15.3486 4.16666ZM14 6.5H14.5V6V5C14.5 4.60217 14.342 4.22064 14.0607 3.93934C13.7794 3.65804 13.3978 3.5 13 3.5H11C10.6022 3.5 10.2206 3.65804 9.93934 3.93934C9.65804 4.22064 9.5 4.60217 9.5 5V6V6.5H10H14ZM8.5 6V5.5H8H7C6.60217 5.5 6.22064 5.65804 5.93934 5.93934C5.65804 6.22064 5.5 6.60218 5.5 7V19C5.5 19.3978 5.65804 19.7794 5.93934 20.0607C6.22065 20.342 6.60218 20.5 7 20.5H17C17.3978 20.5 17.7794 20.342 18.0607 20.0607C18.342 19.7794 18.5 19.3978 18.5 19V7C18.5 6.60218 18.342 6.22064 18.0607 5.93934C17.7794 5.65804 17.3978 5.5 17 5.5H16H15.5V6V7C15.5 7.13261 15.4473 7.25978 15.3536 7.35355C15.2598 7.44732 15.1326 7.5 15 7.5H9C8.86739 7.5 8.74022 7.44732 8.64645 7.35355C8.55268 7.25978 8.5 7.13261 8.5 7V6Z" fill="#111111" stroke="#111111"/>
</svg>
