<svg width="24" height="24" viewBox="0 0 24 24" fill="none" xmlns="http://www.w3.org/2000/svg">
<path d="M10 11.5H10.5V11V7C10.5 6.86739 10.5527 6.74022 10.6465 6.64645C10.7402 6.55268 10.8674 6.5 11 6.5C11.1326 6.5 11.2598 6.55268 11.3536 6.64645C11.4473 6.74022 11.5 6.86739 11.5 7V12C11.5 12.1326 11.4473 12.2598 11.3536 12.3536C11.2598 12.4473 11.1326 12.5 11 12.5H8C7.8674 12.5 7.74022 12.4473 7.64645 12.3536C7.55268 12.2598 7.5 12.1326 7.5 12C7.5 11.8674 7.55268 11.7402 7.64645 11.6464C7.74022 11.5527 7.8674 11.5 8 11.5H10ZM5.72209 4.10104C7.28435 3.05717 9.12108 2.5 11 2.5C12.2476 2.5 13.4829 2.74572 14.6355 3.22314C15.7881 3.70056 16.8354 4.40033 17.7175 5.28249C18.5997 6.16464 19.2994 7.21191 19.7769 8.36451C20.2543 9.5171 20.5 10.7524 20.5 12C20.5 13.8789 19.9428 15.7157 18.899 17.2779C17.8551 18.8402 16.3714 20.0578 14.6355 20.7769C12.8996 21.4959 10.9895 21.684 9.14665 21.3175C7.30383 20.9509 5.61109 20.0461 4.28249 18.7175C2.95389 17.3889 2.0491 15.6962 1.68254 13.8534C1.31598 12.0105 1.50412 10.1004 2.22315 8.36451C2.94218 6.62861 4.15982 5.14491 5.72209 4.10104ZM6.27766 19.0675C7.67548 20.0015 9.31886 20.5 11 20.5C13.2543 20.5 15.4164 19.6045 17.0104 18.0104C18.6045 16.4163 19.5 14.2543 19.5 12C19.5 10.3189 19.0015 8.67547 18.0675 7.27765C17.1335 5.87984 15.806 4.79037 14.2528 4.14702C12.6996 3.50368 10.9906 3.33535 9.34174 3.66333C7.6929 3.9913 6.17834 4.80085 4.9896 5.98959C3.80085 7.17834 2.9913 8.69289 2.66333 10.3417C2.33536 11.9906 2.50368 13.6996 3.14703 15.2528C3.79037 16.806 4.87984 18.1335 6.27766 19.0675Z" fill="#111111" stroke="#111111"/>
</svg>
