<svg width="24" height="24" viewBox="0 0 24 24" fill="none" xmlns="http://www.w3.org/2000/svg">
<path d="M11.5 11.93V12.0624L11.5655 12.1775L12.9155 14.5475L12.9165 14.5491C12.983 14.6649 13.0008 14.8024 12.966 14.9313C12.9312 15.0602 12.8466 15.17 12.7309 15.2365C12.6151 15.303 12.4776 15.3208 12.3487 15.286C12.2198 15.2512 12.11 15.1666 12.0435 15.0509L12.0431 15.0501L10.5481 12.4588C10.5024 12.37 10.4844 12.2694 10.4964 12.1701L10.5 12.1402V12.11V12.1098V12.1095V12.1093V12.1091V12.1088V12.1086V12.1083V12.1081V12.1079V12.1076V12.1074V12.1071V12.1069V12.1067V12.1064V12.1062V12.1059V12.1057V12.1054V12.1052V12.1049V12.1047V12.1044V12.1042V12.1039V12.1037V12.1034V12.1032V12.1029V12.1027V12.1024V12.1022V12.1019V12.1017V12.1014V12.1012V12.1009V12.1006V12.1004V12.1001V12.0999V12.0996V12.0993V12.0991V12.0988V12.0986V12.0983V12.098V12.0978V12.0975V12.0973V12.097V12.0967V12.0965V12.0962V12.0959V12.0957V12.0954V12.0951V12.0949V12.0946V12.0943V12.0941V12.0938V12.0935V12.0932V12.093V12.0927V12.0924V12.0922V12.0919V12.0916V12.0914V12.0911V12.0908V12.0905V12.0903V12.09V12.0897V12.0894V12.0892V12.0889V12.0886V12.0883V12.0881V12.0878V12.0875V12.0872V12.0869V12.0867V12.0864V12.0861V12.0858V12.0856V12.0853V12.085V12.0847V12.0844V12.0842V12.0839V12.0836V12.0833V12.083V12.0827V12.0825V12.0822V12.0819V12.0816V12.0813V12.0811V12.0808V12.0805V12.0802V12.0799V12.0796V12.0794V12.0791V12.0788V12.0785V12.0782V12.0779V12.0776V12.0774V12.0771V12.0768V12.0765V12.0762V12.0759V12.0757V12.0754V12.0751V12.0748V12.0745V12.0742V12.0739V12.0736V12.0734V12.0731V12.0728V12.0725V12.0722V12.0719V12.0716V12.0714V12.0711V12.0708V12.0705V12.0702V12.0699V12.0696V12.0693V12.0691V12.0688V12.0685V12.0682V12.0679V12.0676V12.0673V12.067V12.0668V12.0665V12.0662V12.0659V12.0656V12.0653V12.065V12.0648V12.0645V12.0642V12.0639V12.0636V12.0633V12.063V12.0627V12.0625V12.0622V12.0619V12.0616V12.0613V12.061V12.0607V12.0605V12.0602V12.0599V12.0596V12.0593V12.059V12.0588V12.0585V12.0582V12.0579V12.0576V12.0573V12.057V12.0568V12.0565V12.0562V12.0559V12.0556V12.0554V12.0551V12.0548V12.0545V12.0542V12.0539V12.0537V12.0534V12.0531V12.0528V12.0525V12.0523V12.052V12.0517V12.0514V12.0511V12.0509V12.0506V12.0503V12.05V12.0498V12.0495V12.0492V12.0489V12.0486V12.0484V12.0481V12.0478V12.0475V12.0473V12.047V12.0467V12.0464V12.0462V12.0459V12.0456V12.0454V12.0451V12.0448V12.0445V12.0443V12.044V12.0437V12.0435V12.0432V12.0429V12.0427V12.0424V12.0421V12.0419V12.0416V12.0413V12.0411V12.0408V12.0405V12.0403V12.04V12.0397V12.0395V12.0392V12.0389V12.0387V12.0384V12.0382V12.0379V12.0376V12.0374V12.0371V12.0369V12.0366V12.0364V12.0361V12.0358V12.0356V12.0353V12.0351V12.0348V12.0346V12.0343V12.0341V12.0338V12.0336V12.0333V12.0331V12.0328V12.0326V12.0323V12.0321V12.0318V12.0316V12.0313V12.0311V12.0308V12.0306V12.0304V12.0301V12.0299V12.0296V12.0294V12.0291V12.0289V12.0287V12.0284V12.0282V12.028V12.0277V12.0275V12.0272V12.027V12.0268V12.0265V12.0263V12.0261V12.0259V12.0256V12.0254V12.0252V12.0249V12.0247V12.0245V12.0243V12.024V12.0238V12.0236V12.0234V12.0231V12.0229V12.0227V12.0225V12.0223V12.022V12.0218V12.0216V12.0214V12.0212V12.021V12.0208V12.0205V12.0203V12.0201V12.0199V12.0197V12.0195V12.0193V12.0191V12.0189V12.0187V12.0185V12.0183V12.0181V12.0179V12.0177V12.0175V12.0173V12.0171V12.0169V12.0167V12.0165V12.0163V12.0161V12.0159V12.0157V12.0155V12.0153V12.0151V12.0149V12.0148V12.0146V12.0144V12.0142V12.014V12.0138V12.0137V12.0135V12.0133V12.0131V12.0129V12.0128V12.0126V12.0124V12.0122V12.0121V12.0119V12.0117V12.0116V12.0114V12.0112V12.0111V12.0109V12.0107V12.0106V12.0104V12.0102V12.0101V12.0099V12.0098V12.0096V12.0095V12.0093V12.0092V12.009V12.0089V12.0087V12.0086V12.0084V12.0083V12.0081V12.008V12.0078V12.0077V12.0075V12.0074V12.0073V12.0071V12.007V12.0069V12.0067V12.0066V12.0065V12.0063V12.0062V12.0061V12.0059V12.0058V12.0057V12.0056V12.0055V12.0053V12.0052V12.0051V12.005V12.0049V12.0047V12.0046V12.0045V12.0044V12.0043V12.0042V12.0041V12.004V12.0039V12.0038V12.0037V12.0036V12.0035V12.0034V12.0033V12.0032V12.0031V12.003V12.0029V12.0028V12.0027V12.0026V12.0025V12.0025V12.0024V12.0023V12.0022V12.0021V12.0021V12.002V12.0019V12.0018V12.0018V12.0017V12.0016V12.0016V12.0015V12.0014V12.0014V12.0013V12.0012V12.0012V12.0011V12.0011V12.001V12.0009V12.0009V12.0008V12.0008V12.0007V12.0007V12.0007V12.0006V12.0006V12.0005V12.0005V12.0005V12.0004V12.0004V12.0003V12.0003V12.0003V12.0003V12.0002V12.0002V12.0002V12.0002V12.0001V12.0001V12.0001V12.0001V12.0001V12.0001V12V12V12V12V12V7C10.5 6.86739 10.5527 6.74022 10.6465 6.64645C10.7402 6.55268 10.8674 6.5 11 6.5C11.1326 6.5 11.2598 6.55268 11.3536 6.64645C11.4473 6.74022 11.5 6.86739 11.5 7V11.93ZM5.72209 4.10104C7.28435 3.05717 9.12108 2.5 11 2.5C12.2476 2.5 13.4829 2.74572 14.6355 3.22314C15.7881 3.70056 16.8354 4.40033 17.7175 5.28249C18.5997 6.16464 19.2994 7.21191 19.7769 8.36451C20.2543 9.5171 20.5 10.7524 20.5 12C20.5 13.8789 19.9428 15.7157 18.899 17.2779C17.8551 18.8402 16.3714 20.0578 14.6355 20.7769C12.8996 21.4959 10.9895 21.684 9.14665 21.3175C7.30383 20.9509 5.61109 20.0461 4.28249 18.7175C2.95389 17.3889 2.0491 15.6962 1.68254 13.8534C1.31598 12.0105 1.50412 10.1004 2.22315 8.36451C2.94218 6.62861 4.15982 5.14491 5.72209 4.10104ZM6.27766 19.0675C7.67548 20.0015 9.31886 20.5 11 20.5C13.2543 20.5 15.4164 19.6045 17.0104 18.0104C18.6045 16.4163 19.5 14.2543 19.5 12C19.5 10.3189 19.0015 8.67547 18.0675 7.27765C17.1335 5.87984 15.806 4.79037 14.2528 4.14702C12.6996 3.50368 10.9906 3.33535 9.34174 3.66333C7.6929 3.9913 6.17834 4.80085 4.9896 5.98959C3.80085 7.17834 2.9913 8.69289 2.66333 10.3417C2.33536 11.9906 2.50368 13.6996 3.14703 15.2528C3.79037 16.806 4.87984 18.1335 6.27766 19.0675Z" fill="#111111" stroke="#111111"/>
</svg>
