<svg width="24" height="24" viewBox="0 0 24 24" fill="none" xmlns="http://www.w3.org/2000/svg">
<path d="M18.0544 8.12468L17.9617 7.91192C17.3937 6.60803 16.4138 5.52641 15.1721 4.83292C13.9304 4.13942 12.4955 3.87232 11.0874 4.07257C9.67935 4.27282 8.37582 4.92937 7.37669 5.94154C6.37756 6.95372 5.73799 8.26565 5.55603 9.6762L5.51191 10.0182L5.17658 10.0985C4.34234 10.2983 3.61053 10.7975 3.1201 11.5013C2.62968 12.2051 2.4148 13.0645 2.51629 13.9163C2.61777 14.7681 3.02854 15.553 3.67059 16.1219C4.31264 16.6908 5.14126 17.004 5.99908 17.0022L6.00013 17.0022L8.00013 17.0022C8.13274 17.0022 8.25992 16.9496 8.35369 16.8558C8.44746 16.762 8.50013 16.6348 8.50013 16.5022C8.50013 16.3696 8.44746 16.2424 8.35369 16.1487C8.25992 16.0549 8.13274 16.0022 8.00013 16.0022H6.00013C5.33709 16.0022 4.70121 15.7388 4.23237 15.27C3.76353 14.8012 3.50013 14.1653 3.50013 13.5022C3.50013 12.8392 3.76353 12.2033 4.23237 11.7345C4.70121 11.2656 5.33709 11.0022 6.00013 11.0022C6.13274 11.0022 6.25992 10.9496 6.35369 10.8558C6.44746 10.762 6.50013 10.6348 6.50013 10.5022V10.5012C6.50295 9.20016 6.96685 7.94228 7.80943 6.95099C8.65201 5.95971 9.81872 5.2992 11.1023 5.08681C12.3858 4.87443 13.7031 5.12392 14.8201 5.79096C15.9369 6.45791 16.7812 7.49912 17.203 8.72965M18.0544 8.12468L16.7301 8.89223M18.0544 8.12468L18.2768 8.19123C19.3109 8.50076 20.1992 9.17169 20.7799 10.0816C21.3605 10.9916 21.5947 12.08 21.4398 13.1482C21.2848 14.2164 20.751 15.1934 19.9358 15.9009C19.1207 16.6082 18.0786 16.9991 16.9994 17.0022M18.0544 8.12468L18.4201 7.71223C19.5691 8.05615 20.5562 8.80163 21.2014 9.81269C21.8465 10.8238 22.1067 12.033 21.9346 13.22C21.7624 14.4069 21.1693 15.4924 20.2635 16.2785C19.3577 17.0646 18.1995 17.4989 17.0001 17.5022M17.203 8.72965C17.203 8.72981 17.2031 8.72998 17.2031 8.73015L16.7301 8.89223M17.203 8.72965C17.2029 8.72947 17.2028 8.72929 17.2028 8.72911L16.7301 8.89223M17.203 8.72965C17.2323 8.81442 17.284 8.88973 17.3524 8.94768C17.4211 9.00575 17.5041 9.04425 17.5928 9.05911L17.6009 9.06046L17.6009 9.06053C18.456 9.21833 19.2218 9.68882 19.7491 10.3803C20.2763 11.0719 20.5272 11.9349 20.453 12.8013C20.3787 13.6678 19.9846 14.4755 19.3473 15.0672C18.7101 15.6589 17.8754 15.9922 17.0059 16.0022L17.0001 16.0023V16.0022H16.0001C15.8675 16.0022 15.7403 16.0549 15.6466 16.1487C15.5528 16.2424 15.5001 16.3696 15.5001 16.5022C15.5001 16.6348 15.5528 16.762 15.6466 16.8558C15.7403 16.9496 15.8675 17.0022 16.0001 17.0022H16.9994M16.7301 8.89223C16.7888 9.06221 16.8922 9.21322 17.0295 9.32937C17.1667 9.44552 17.3328 9.52251 17.5101 9.55223C18.2431 9.68748 18.8995 10.0908 19.3515 10.6835C19.8034 11.2762 20.0185 12.016 19.9548 12.7586C19.8911 13.5013 19.5533 14.1936 19.0071 14.7008C18.4609 15.208 17.7455 15.4937 17.0001 15.5022H16.0001C15.7349 15.5022 15.4806 15.6076 15.293 15.7951C15.1055 15.9827 15.0001 16.237 15.0001 16.5022C15.0001 16.7674 15.1055 17.0218 15.293 17.2093C15.4806 17.3969 15.7349 17.5022 16.0001 17.5022H17.0001M16.9994 17.0022C16.9992 17.0022 16.999 17.0022 16.9988 17.0022L17.0001 17.5022M16.9994 17.0022H17.0001V17.5022M12.1863 19.0431L12.1873 19.0436C12.2503 19.0699 12.3087 19.1059 12.3604 19.1504C12.4005 19.1952 12.4322 19.2469 12.4539 19.303L12.4539 19.303L12.4559 19.308C12.4923 19.3989 12.5012 19.4984 12.4815 19.5943C12.4619 19.6902 12.4145 19.7782 12.3453 19.8474C12.2761 19.9166 12.1881 19.964 12.0922 19.9836C11.9975 20.0031 11.8993 19.9946 11.8093 19.9594C11.7463 19.9326 11.688 19.896 11.6364 19.8511C11.5942 19.8063 11.5605 19.7541 11.5372 19.6971C11.5126 19.6368 11.5 19.5722 11.5001 19.5071C11.5025 19.3718 11.5547 19.2421 11.6467 19.1429C11.7162 19.0764 11.8034 19.0313 11.8979 19.0131C11.9949 18.9944 12.0953 19.0048 12.1863 19.0431ZM11.6466 13.1487C11.7403 13.0549 11.8675 13.0022 12.0001 13.0022C12.1327 13.0022 12.2599 13.0549 12.3537 13.1487C12.4475 13.2424 12.5001 13.3696 12.5001 13.5022V16.5022C12.5001 16.6348 12.4475 16.762 12.3537 16.8558C12.2599 16.9496 12.1327 17.0022 12.0001 17.0022C11.8675 17.0022 11.7403 16.9496 11.6466 16.8558C11.5528 16.762 11.5001 16.6348 11.5001 16.5022V13.5022C11.5001 13.3696 11.5528 13.2424 11.6466 13.1487Z" fill="#111111" stroke="#111111"/>
</svg>
