<svg width="24" height="24" viewBox="0 0 24 24" fill="none" xmlns="http://www.w3.org/2000/svg">
<path d="M19.802 9.5L19.7126 9.11227C19.6214 8.71635 19.4664 8.33789 19.2538 7.99168L19.0473 7.65545L19.3263 7.37645L19.8703 6.83245C19.9456 6.73867 19.9846 6.62074 19.9799 6.50025C19.9751 6.37441 19.9229 6.25504 19.8339 6.16599C19.7448 6.07694 19.6255 6.02478 19.4996 6.01992C19.3791 6.01526 19.2612 6.05431 19.1674 6.12955L18.6234 6.67355L18.3444 6.95256L18.0082 6.74606C17.662 6.53342 17.2835 6.37846 16.8876 6.28723L16.4999 6.19789V5.8V5C16.4999 4.86739 16.4472 4.74021 16.3534 4.64645C16.2597 4.55268 16.1325 4.5 15.9999 4.5C15.8673 4.5 15.7401 4.55268 15.6463 4.64645C15.5525 4.74022 15.4999 4.86739 15.4999 5V5.8V6.19874L15.1111 6.28746C14.7195 6.37686 14.3455 6.53119 14.0048 6.74405L13.6706 6.95285L13.3895 6.67667L12.8337 6.13071C12.7397 6.05471 12.6212 6.01524 12.5001 6.01992C12.3743 6.02478 12.2549 6.07694 12.1659 6.16599C12.0768 6.25504 12.0246 6.37441 12.0198 6.50024C12.0151 6.62136 12.0546 6.73988 12.1306 6.83388L12.6765 7.38959L12.9476 7.66554L12.7486 7.99725C12.7006 8.07722 12.6673 8.14867 12.6249 8.23974C12.5979 8.29744 12.5674 8.36301 12.5271 8.44361L12.3421 8.81356L11.944 8.7012C11.4739 8.56848 10.9878 8.50079 10.4993 8.5C9.17833 8.49932 7.90127 8.97408 6.90155 9.83747C5.90175 10.7009 5.24613 11.8954 5.05458 13.2025L5.0075 13.5238L4.69487 13.6114C3.99732 13.807 3.39411 14.2485 2.99667 14.8542C2.59922 15.4599 2.43438 16.1889 2.53259 16.9067C2.6308 17.6245 2.98542 18.2825 3.53097 18.7591C4.07636 19.2357 4.77573 19.4988 5.49996 19.5C5.50017 19.5 5.50038 19.5 5.50058 19.5L14.6699 19.5C15.6856 19.5 16.6598 19.0965 17.3781 18.3782C18.0962 17.6601 18.4996 16.6863 18.4999 15.6708L19.802 9.5ZM19.802 9.5H20.1999M19.802 9.5H20.1999M20.1999 9.5H20.9999C21.1325 9.5 21.2597 9.55268 21.3534 9.64645C21.4472 9.74021 21.4999 9.86739 21.4999 10C21.4999 10.1326 21.4472 10.2598 21.3534 10.3536C21.2597 10.4473 21.1325 10.5 20.9999 10.5H20.1999H19.802L19.7126 10.8877C19.6214 11.2837 19.4664 11.6621 19.2538 12.0083L19.0473 12.3445L19.3263 12.6236L19.8853 13.1825C19.8854 13.1826 19.8855 13.1828 19.8857 13.1829C19.9785 13.2765 20.0307 13.4031 20.0307 13.535C20.0307 13.6665 19.9788 13.7928 19.8864 13.8863C19.84 13.932 19.785 13.9682 19.7247 13.9929C19.6638 14.0178 19.5986 14.0304 19.5328 14.03L19.532 14.03C19.4008 14.0295 19.2751 13.9774 19.182 13.885L19.1756 13.8787L19.169 13.8726L19.039 13.7526L18.2357 14.3058M20.1999 9.5L18.2357 14.3058M18.2357 14.3058C18.4094 14.7399 18.4991 15.2032 18.4999 15.6708L18.2357 14.3058ZM14.6699 18.5V18.5001L14.6781 18.4999C15.3793 18.4884 16.0513 18.2169 16.5638 17.7381C17.0762 17.2593 17.3926 16.6072 17.4516 15.9084C17.5106 15.2095 17.308 14.5136 16.8831 13.9557C16.4581 13.3977 15.8412 13.0174 15.1518 12.8885L15.1518 12.8885L15.1443 12.8872C15.0551 12.8719 14.9716 12.8326 14.903 12.7736C14.8343 12.7146 14.7829 12.6381 14.7543 12.5522L14.7543 12.5522L14.7524 12.5465C14.4049 11.5425 13.7135 10.6939 12.8005 10.1508C11.8875 9.60761 10.8118 9.405 9.76373 9.57877C8.71569 9.75255 7.76292 10.2915 7.07406 11.1003C6.38521 11.909 6.00469 12.9354 5.99986 13.9977V14C5.99986 14.1326 5.94719 14.2598 5.85342 14.3536C5.75965 14.4473 5.63247 14.5 5.49986 14.5C4.96943 14.5 4.46072 14.7107 4.08565 15.0858C3.71058 15.4609 3.49986 15.9696 3.49986 16.5C3.49986 17.0304 3.71058 17.5391 4.08565 17.9142C4.46072 18.2893 4.96943 18.5 5.49986 18.5H14.6699ZM18.0234 12.0036L18.0233 12.0034C18.5398 11.4685 18.8286 10.7538 18.8286 10.01C18.8286 9.26404 18.5381 8.54738 18.0188 8.0119L18.0095 8.00233L17.9997 7.99328C17.4599 7.49293 16.7509 7.21493 16.0149 7.21493C15.2788 7.21493 14.5699 7.49293 14.03 7.99328L14.0208 8.00178L14.0121 8.01073C13.774 8.25458 13.5834 8.54055 13.4499 8.85407L13.2898 9.22979L13.626 9.46162C14.4602 10.0369 15.1234 10.8269 15.5453 11.7482L15.6369 11.9482L15.8462 12.0158C16.1818 12.1242 16.5015 12.2766 16.797 12.469L17.0255 12.6177L17.2742 12.5063C17.546 12.3846 17.7956 12.2182 18.0125 12.0142L17.9929 11.9934L18.0134 12.0136L18.0234 12.0036Z" fill="#111111" stroke="#111111"/>
</svg>
