<svg width="24" height="24" viewBox="0 0 24 24" fill="none" xmlns="http://www.w3.org/2000/svg">
<path d="M14.4869 14.5023H14.4998C14.7964 14.5023 15.0864 14.4144 15.3331 14.2495C15.5798 14.0847 15.7721 13.8504 15.8856 13.5764C15.9991 13.3023 16.0288 13.0007 15.9709 12.7097C15.9131 12.4187 15.7702 12.1515 15.5604 11.9417C15.3506 11.7319 15.0834 11.589 14.7924 11.5312C14.5014 11.4733 14.1998 11.503 13.9257 11.6165C13.6517 11.73 13.4174 11.9223 13.2526 12.169C13.0877 12.4157 12.9998 12.7057 12.9998 13.0023V13.3233L12.7079 13.4569L10.8079 14.3269L10.556 14.4423L10.3246 14.2898C10.0798 14.1285 9.79301 14.0424 9.49977 14.0423L14.4869 14.5023ZM14.4869 14.5023L14.474 14.503M14.4869 14.5023L14.474 14.503M14.474 14.503C14.2089 14.5167 13.9449 14.4597 13.709 14.338L13.4922 14.2261L13.2705 14.3282L11.3605 15.2082L10.371 15.6641L11.3619 16.1171L13.1119 16.9171L13.3795 17.0394L13.6164 16.8648C13.882 16.669 14.2048 16.5663 14.5347 16.5725C14.8646 16.5787 15.1833 16.6935 15.4413 16.8991C15.6994 17.1048 15.8824 17.3898 15.9621 17.71C16.0418 18.0302 16.0137 18.3677 15.8821 18.6703C15.7505 18.9729 15.5229 19.2237 15.2343 19.3838C14.9458 19.5439 14.6126 19.6044 14.2862 19.5559C13.9598 19.5075 13.6585 19.3528 13.4289 19.1157C13.1994 18.8787 13.0544 18.5726 13.0164 18.2448L12.9846 17.9699L12.7347 17.8509L10.6347 16.8509L10.4011 16.7396L10.1753 16.8662C9.96902 16.9818 9.73648 17.0424 9.5 17.0423H9.49977M14.474 14.503L9.49977 17.0423M9.49977 17.0423C9.10194 17.0423 8.72041 16.8843 8.43911 16.603C8.1578 16.3217 7.99977 15.9402 7.99977 15.5423C7.99977 15.1445 8.1578 14.763 8.43911 14.4817C8.72038 14.2004 9.10186 14.0424 9.49964 14.0423L9.49977 17.0423ZM17.9613 7.42186L18.0543 7.63556L18.2778 7.70175C19.2062 7.97674 20.0211 8.54386 20.6016 9.31888C21.1819 10.0937 21.4969 11.0351 21.4998 12.0032C21.5006 12.7921 21.294 13.5674 20.9008 14.2513C20.5076 14.9349 19.9418 15.5032 19.2599 15.8992C19.1443 15.9654 19.0072 15.9831 18.8785 15.9484C18.7496 15.9136 18.6398 15.829 18.5733 15.7132C18.5067 15.5974 18.4889 15.46 18.5237 15.3311C18.5585 15.2022 18.6431 15.0924 18.7589 15.0258L18.7589 15.0259L18.7655 15.022C19.3781 14.6574 19.8648 14.1143 20.1604 13.4655C20.4561 12.8167 20.5465 12.0931 20.4196 11.3916C20.2927 10.69 19.9546 10.0439 19.4505 9.5397C18.9464 9.03552 18.3004 8.69731 17.5988 8.57033L17.5988 8.57031L17.5942 8.56952C17.505 8.55423 17.4215 8.51499 17.3529 8.45598C17.2842 8.39698 17.2328 8.32044 17.2042 8.23452L17.2042 8.23451L17.2028 8.23026C16.781 6.99951 15.9367 5.95811 14.8197 5.29107C13.7027 4.62402 12.3854 4.37453 11.1019 4.58692C9.81835 4.7993 8.65165 5.45981 7.80906 6.4511C6.96648 7.44238 6.50258 8.70026 6.49977 10.0013V10.0023C6.49977 10.1349 6.44709 10.2621 6.35332 10.3559C6.25955 10.4497 6.13237 10.5023 5.99977 10.5023C5.33672 10.5023 4.70084 10.7657 4.232 11.2346C3.76316 11.7034 3.49977 12.3393 3.49977 13.0023V13.01L3.5 13.0176C3.51533 13.5185 3.68085 14.0033 3.97507 14.4089C4.26929 14.8146 4.67864 15.1225 5.15 15.2926L5.19428 15.3086L5.24077 15.3161C5.37505 15.3375 5.49528 15.4115 5.57504 15.5216C5.65479 15.6318 5.68753 15.7691 5.66605 15.9033C5.64456 16.0376 5.57062 16.1579 5.46048 16.2376C5.35034 16.3174 5.21304 16.3501 5.07876 16.3286L5.04229 16.3228L5.00536 16.3224C4.94776 16.3217 4.89054 16.3132 4.8353 16.297C4.1279 16.0458 3.51989 15.5739 3.10116 14.9506C2.68039 14.3243 2.47327 13.5789 2.51065 12.8253C2.54803 12.0717 2.82792 11.3504 3.30861 10.7689C3.78929 10.1873 4.44503 9.77668 5.17809 9.59813L5.51133 9.51697L5.55559 9.17686C5.73906 7.76693 6.37977 6.45605 7.37954 5.44509C8.3793 4.43414 9.68297 3.77887 11.0908 3.57972C12.4986 3.38056 13.9328 3.64849 15.1738 4.34246C16.4148 5.03643 17.3939 6.11815 17.9613 7.42186Z" fill="#111111" stroke="#111111"/>
</svg>
