<svg width="24" height="24" viewBox="0 0 24 24" fill="none" xmlns="http://www.w3.org/2000/svg">
<path d="M17.0001 17.5023V17.5022H6.00013C5.33709 17.5022 4.70121 17.2388 4.23237 16.77C3.76353 16.3012 3.50013 15.6653 3.50013 15.0022C3.50013 14.3392 3.76353 13.7033 4.23237 13.2345C4.70121 12.7656 5.33709 12.5022 6.00013 12.5022C6.13274 12.5022 6.25992 12.4496 6.35369 12.3558C6.44746 12.262 6.50013 12.1348 6.50013 12.0022V12.0012C6.50295 10.7002 6.96685 9.44228 7.80943 8.45099C8.65201 7.4597 9.81872 6.7992 11.1023 6.58681C12.3858 6.37443 13.7031 6.62392 14.8201 7.29096C15.9369 7.95791 16.7812 8.99912 17.203 10.2296M17.0001 17.5023L17.2031 10.2302C17.2031 10.23 17.203 10.2298 17.203 10.2296M17.0001 17.5023L17.0059 17.5022M17.0001 17.5023L17.0059 17.5022M17.203 10.2296C17.2323 10.3144 17.284 10.3897 17.3524 10.4477C17.4211 10.5058 17.5041 10.5442 17.5928 10.5591M17.203 10.2296L17.5928 10.5591M17.0059 17.5022C17.8754 17.4922 18.7101 17.1589 19.3473 16.5672C19.9846 15.9755 20.3787 15.1678 20.453 14.3013C20.5272 13.4349 20.2763 12.5719 19.7491 11.8803C19.2218 11.1888 18.456 10.7183 17.6009 10.5605L17.6009 10.5605M17.0059 17.5022L17.6009 10.5605M17.6009 10.5605L17.5928 10.5591M17.6009 10.5605L17.5928 10.5591M17.9617 9.41192L18.0544 9.62468L18.2768 9.69123C19.3109 10.0008 20.1992 10.6717 20.7799 11.5816C21.3605 12.4916 21.5947 13.58 21.4398 14.6482C21.2848 15.7164 20.751 16.6934 19.9358 17.4009C19.1207 18.1082 18.0786 18.4991 16.9994 18.5022L6.00013 18.5022L5.99908 18.5022C5.14126 18.504 4.31264 18.1908 3.67059 17.6219C3.02854 17.053 2.61777 16.2681 2.51629 15.4163C2.4148 14.5645 2.62968 13.7051 3.1201 13.0013C3.61053 12.2975 4.34234 11.7983 5.17658 11.5985L5.51191 11.5182L5.55603 11.1762C5.73799 9.76565 6.37756 8.45372 7.37669 7.44154C8.37582 6.42937 9.67935 5.77282 11.0874 5.57257C12.4955 5.37232 13.9304 5.63942 15.1721 6.33292C16.4138 7.02641 17.3937 8.10803 17.9617 9.41192Z" fill="#111111" stroke="#111111"/>
</svg>
