<svg width="24" height="24" viewBox="0 0 24 24" fill="none" xmlns="http://www.w3.org/2000/svg">
<mask id="path-1-inside-1_2239_8234" fill="white">
<path d="M9.21013 16.2924C9.11502 16.2014 9.00288 16.13 8.88013 16.0824C8.69802 16.0059 8.4973 15.9849 8.30331 16.0223C8.10932 16.0597 7.93075 16.1537 7.79013 16.2924C7.7018 16.3896 7.63077 16.5012 7.58013 16.6224C7.52415 16.7411 7.49675 16.8713 7.50013 17.0024C7.50094 17.1662 7.54198 17.3273 7.61962 17.4715C7.69726 17.6157 7.80914 17.7386 7.94542 17.8295C8.08169 17.9204 8.2382 17.9763 8.40118 17.9925C8.56416 18.0088 8.72863 17.9847 8.88013 17.9224C9.00131 17.8718 9.11293 17.8008 9.21013 17.7124C9.34889 17.5718 9.44288 17.3932 9.48026 17.1992C9.51763 17.0053 9.49671 16.8045 9.42013 16.6224C9.36949 16.5012 9.29846 16.3896 9.21013 16.2924ZM9.21013 20.2924C9.11293 20.2041 9.00131 20.1331 8.88013 20.0824C8.69802 20.0059 8.4973 19.9849 8.30331 20.0223C8.10932 20.0597 7.93075 20.1537 7.79013 20.2924C7.7018 20.3896 7.63077 20.5012 7.58013 20.6224C7.51534 20.7745 7.48927 20.9403 7.50423 21.1049C7.5192 21.2695 7.57474 21.4279 7.66589 21.5658C7.75703 21.7037 7.88094 21.8168 8.02652 21.8951C8.17211 21.9734 8.33483 22.0144 8.50013 22.0144C8.66543 22.0144 8.82815 21.9734 8.97373 21.8951C9.11932 21.8168 9.24322 21.7037 9.33437 21.5658C9.42552 21.4279 9.48105 21.2695 9.49602 21.1049C9.51099 20.9403 9.48491 20.7745 9.42013 20.6224C9.36949 20.5012 9.29846 20.3896 9.21013 20.2924ZM13.0601 14.1724L12.8801 14.0824L12.7001 14.0024C12.5051 13.9644 12.3032 13.9853 12.1201 14.0624C11.9965 14.1082 11.884 14.1798 11.7901 14.2724C11.6974 14.3659 11.6241 14.4767 11.5744 14.5985C11.5246 14.7204 11.4994 14.8508 11.5001 14.9824C11.4994 15.114 11.5246 15.2445 11.5744 15.3663C11.6241 15.4882 11.6974 15.599 11.7901 15.6924C11.8873 15.7808 11.9989 15.8518 12.1201 15.9024C12.2398 15.9553 12.3693 15.9827 12.5001 15.9827C12.631 15.9827 12.7604 15.9553 12.8801 15.9024C13.0013 15.8518 13.1129 15.7808 13.2101 15.6924C13.3925 15.5086 13.4964 15.2613 13.5001 15.0024C13.4964 14.7377 13.3929 14.4841 13.2101 14.2924L13.0601 14.1724ZM13.2101 18.2924C13.0695 18.1537 12.8909 18.0597 12.6969 18.0223C12.503 17.9849 12.3022 18.0059 12.1201 18.0824C11.996 18.1273 11.8833 18.199 11.79 18.2923C11.6967 18.3856 11.625 18.4983 11.5801 18.6224C11.5035 18.8045 11.4826 19.0053 11.52 19.1992C11.5574 19.3932 11.6514 19.5718 11.7901 19.7124C11.8873 19.8008 11.9989 19.8718 12.1201 19.9224C12.2398 19.9753 12.3693 20.0027 12.5001 20.0027C12.631 20.0027 12.7604 19.9753 12.8801 19.9224C13.0013 19.8718 13.1129 19.8008 13.2101 19.7124C13.3489 19.5718 13.4429 19.3932 13.4803 19.1992C13.5176 19.0053 13.4967 18.8045 13.4201 18.6224C13.3695 18.5012 13.2985 18.3896 13.2101 18.2924ZM21.7001 7.07243C21.5787 6.95246 21.4285 6.86558 21.264 6.82007C21.0994 6.77456 20.926 6.77193 20.7601 6.81243C20.547 6.86274 20.3291 6.88957 20.1101 6.89243C19.3145 6.89243 18.5514 6.57636 17.9888 6.01375C17.4262 5.45114 17.1101 4.68808 17.1101 3.89243C17.113 3.6735 17.1398 3.45553 17.1901 3.24243C17.2362 3.07538 17.2381 2.89923 17.1956 2.73123C17.153 2.56324 17.0676 2.40918 16.9476 2.28415C16.8276 2.15912 16.6772 2.06742 16.5111 2.01803C16.345 1.96865 16.1689 1.96327 16.0001 2.00243C15.0048 2.22217 14.1021 2.74499 13.4163 3.49893C12.7304 4.25287 12.295 5.20087 12.1701 6.21243C11.6255 6.06733 11.0637 5.99669 10.5001 6.00243C9.05898 6.00161 7.66569 6.51953 6.575 7.46149C5.48431 8.40345 4.76909 9.70652 4.56013 11.1324C3.86376 11.3263 3.24452 11.7311 2.78746 12.2911C2.33041 12.8512 2.05796 13.539 2.00755 14.2601C1.95714 14.9812 2.13123 15.7002 2.50592 16.3184C2.88061 16.9365 3.43752 17.4235 4.10013 17.7124C4.22757 17.7629 4.36307 17.79 4.50013 17.7924C4.73132 17.7943 4.95603 17.716 5.13601 17.5709C5.31598 17.4258 5.44011 17.2228 5.48727 16.9964C5.53442 16.7701 5.50169 16.5344 5.39464 16.3295C5.28759 16.1245 5.11284 15.963 4.90013 15.8724C4.63182 15.7582 4.40326 15.5671 4.24314 15.3234C4.08302 15.0797 3.99848 14.7941 4.00013 14.5024C4.00013 14.1046 4.15816 13.7231 4.43947 13.4418C4.72077 13.1605 5.1023 13.0024 5.50013 13.0024C5.76534 13.0024 6.0197 12.8971 6.20723 12.7095C6.39477 12.522 6.50013 12.2676 6.50013 12.0024C6.50013 10.9416 6.92156 9.92415 7.6717 9.17401C8.42185 8.42386 9.43926 8.00243 10.5001 8.00243C11.2783 8.00801 12.0385 8.2371 12.6901 8.66243C13.4208 9.13898 13.9756 9.84132 14.2701 10.6624C14.3273 10.8343 14.43 10.9874 14.5674 11.1054C14.7048 11.2234 14.8716 11.3018 15.0501 11.3324C15.5292 11.3879 15.979 11.5912 16.3371 11.9141C16.6953 12.2371 16.9438 12.6636 17.0483 13.1343C17.1528 13.6051 17.108 14.0967 16.9202 14.5409C16.7323 14.985 16.4107 15.3595 16.0001 15.6124C15.8898 15.6847 15.7948 15.7779 15.7205 15.8869C15.6463 15.9958 15.5942 16.1183 15.5672 16.2474C15.5403 16.3764 15.5391 16.5096 15.5636 16.6391C15.5881 16.7687 15.6379 16.8921 15.7101 17.0024C15.7824 17.1127 15.8756 17.2077 15.9845 17.282C16.0935 17.3563 16.216 17.4084 16.3451 17.4353C16.4741 17.4622 16.6073 17.4635 16.7368 17.439C16.8664 17.4145 16.9898 17.3647 17.1001 17.2924C17.6898 16.8916 18.1717 16.3516 18.5031 15.7202C18.8345 15.0888 19.0052 14.3855 19.0001 13.6724C19.004 12.9756 18.8357 12.2886 18.5101 11.6724C19.3689 11.4326 20.1468 10.9648 20.7612 10.3187C21.3757 9.67256 21.8038 8.87218 22.0001 8.00243C22.0339 7.8347 22.024 7.66112 21.9715 7.49829C21.9189 7.33547 21.8255 7.18884 21.7001 7.07243ZM17.1101 9.89243C16.9703 9.90326 16.8299 9.90326 16.6901 9.89243C16.4704 9.7566 16.2395 9.63952 16.0001 9.54243C15.5882 8.64557 14.9634 7.86289 14.1801 7.26243C14.1801 7.14243 14.1801 7.01243 14.1801 6.89243C14.1801 6.45911 14.2739 6.03093 14.4552 5.63734C14.6365 5.24374 14.9008 4.89409 15.2301 4.61243C15.385 5.67929 15.8805 6.66753 16.6427 7.42981C17.405 8.19209 18.3933 8.68759 19.4601 8.84243C19.1709 9.18085 18.8099 9.45065 18.4035 9.63226C17.997 9.81388 17.5552 9.90275 17.1101 9.89243Z"/>
</mask>
<path d="M9.21013 16.2924C9.11502 16.2014 9.00288 16.13 8.88013 16.0824C8.69802 16.0059 8.4973 15.9849 8.30331 16.0223C8.10932 16.0597 7.93075 16.1537 7.79013 16.2924C7.7018 16.3896 7.63077 16.5012 7.58013 16.6224C7.52415 16.7411 7.49675 16.8713 7.50013 17.0024C7.50094 17.1662 7.54198 17.3273 7.61962 17.4715C7.69726 17.6157 7.80914 17.7386 7.94542 17.8295C8.08169 17.9204 8.2382 17.9763 8.40118 17.9925C8.56416 18.0088 8.72863 17.9847 8.88013 17.9224C9.00131 17.8718 9.11293 17.8008 9.21013 17.7124C9.34889 17.5718 9.44288 17.3932 9.48026 17.1992C9.51763 17.0053 9.49671 16.8045 9.42013 16.6224C9.36949 16.5012 9.29846 16.3896 9.21013 16.2924ZM9.21013 20.2924C9.11293 20.2041 9.00131 20.1331 8.88013 20.0824C8.69802 20.0059 8.4973 19.9849 8.30331 20.0223C8.10932 20.0597 7.93075 20.1537 7.79013 20.2924C7.7018 20.3896 7.63077 20.5012 7.58013 20.6224C7.51534 20.7745 7.48927 20.9403 7.50423 21.1049C7.5192 21.2695 7.57474 21.4279 7.66589 21.5658C7.75703 21.7037 7.88094 21.8168 8.02652 21.8951C8.17211 21.9734 8.33483 22.0144 8.50013 22.0144C8.66543 22.0144 8.82815 21.9734 8.97373 21.8951C9.11932 21.8168 9.24322 21.7037 9.33437 21.5658C9.42552 21.4279 9.48105 21.2695 9.49602 21.1049C9.51099 20.9403 9.48491 20.7745 9.42013 20.6224C9.36949 20.5012 9.29846 20.3896 9.21013 20.2924ZM13.0601 14.1724L12.8801 14.0824L12.7001 14.0024C12.5051 13.9644 12.3032 13.9853 12.1201 14.0624C11.9965 14.1082 11.884 14.1798 11.7901 14.2724C11.6974 14.3659 11.6241 14.4767 11.5744 14.5985C11.5246 14.7204 11.4994 14.8508 11.5001 14.9824C11.4994 15.114 11.5246 15.2445 11.5744 15.3663C11.6241 15.4882 11.6974 15.599 11.7901 15.6924C11.8873 15.7808 11.9989 15.8518 12.1201 15.9024C12.2398 15.9553 12.3693 15.9827 12.5001 15.9827C12.631 15.9827 12.7604 15.9553 12.8801 15.9024C13.0013 15.8518 13.1129 15.7808 13.2101 15.6924C13.3925 15.5086 13.4964 15.2613 13.5001 15.0024C13.4964 14.7377 13.3929 14.4841 13.2101 14.2924L13.0601 14.1724ZM13.2101 18.2924C13.0695 18.1537 12.8909 18.0597 12.6969 18.0223C12.503 17.9849 12.3022 18.0059 12.1201 18.0824C11.996 18.1273 11.8833 18.199 11.79 18.2923C11.6967 18.3856 11.625 18.4983 11.5801 18.6224C11.5035 18.8045 11.4826 19.0053 11.52 19.1992C11.5574 19.3932 11.6514 19.5718 11.7901 19.7124C11.8873 19.8008 11.9989 19.8718 12.1201 19.9224C12.2398 19.9753 12.3693 20.0027 12.5001 20.0027C12.631 20.0027 12.7604 19.9753 12.8801 19.9224C13.0013 19.8718 13.1129 19.8008 13.2101 19.7124C13.3489 19.5718 13.4429 19.3932 13.4803 19.1992C13.5176 19.0053 13.4967 18.8045 13.4201 18.6224C13.3695 18.5012 13.2985 18.3896 13.2101 18.2924ZM21.7001 7.07243C21.5787 6.95246 21.4285 6.86558 21.264 6.82007C21.0994 6.77456 20.926 6.77193 20.7601 6.81243C20.547 6.86274 20.3291 6.88957 20.1101 6.89243C19.3145 6.89243 18.5514 6.57636 17.9888 6.01375C17.4262 5.45114 17.1101 4.68808 17.1101 3.89243C17.113 3.6735 17.1398 3.45553 17.1901 3.24243C17.2362 3.07538 17.2381 2.89923 17.1956 2.73123C17.153 2.56324 17.0676 2.40918 16.9476 2.28415C16.8276 2.15912 16.6772 2.06742 16.5111 2.01803C16.345 1.96865 16.1689 1.96327 16.0001 2.00243C15.0048 2.22217 14.1021 2.74499 13.4163 3.49893C12.7304 4.25287 12.295 5.20087 12.1701 6.21243C11.6255 6.06733 11.0637 5.99669 10.5001 6.00243C9.05898 6.00161 7.66569 6.51953 6.575 7.46149C5.48431 8.40345 4.76909 9.70652 4.56013 11.1324C3.86376 11.3263 3.24452 11.7311 2.78746 12.2911C2.33041 12.8512 2.05796 13.539 2.00755 14.2601C1.95714 14.9812 2.13123 15.7002 2.50592 16.3184C2.88061 16.9365 3.43752 17.4235 4.10013 17.7124C4.22757 17.7629 4.36307 17.79 4.50013 17.7924C4.73132 17.7943 4.95603 17.716 5.13601 17.5709C5.31598 17.4258 5.44011 17.2228 5.48727 16.9964C5.53442 16.7701 5.50169 16.5344 5.39464 16.3295C5.28759 16.1245 5.11284 15.963 4.90013 15.8724C4.63182 15.7582 4.40326 15.5671 4.24314 15.3234C4.08302 15.0797 3.99848 14.7941 4.00013 14.5024C4.00013 14.1046 4.15816 13.7231 4.43947 13.4418C4.72077 13.1605 5.1023 13.0024 5.50013 13.0024C5.76534 13.0024 6.0197 12.8971 6.20723 12.7095C6.39477 12.522 6.50013 12.2676 6.50013 12.0024C6.50013 10.9416 6.92156 9.92415 7.6717 9.17401C8.42185 8.42386 9.43926 8.00243 10.5001 8.00243C11.2783 8.00801 12.0385 8.2371 12.6901 8.66243C13.4208 9.13898 13.9756 9.84132 14.2701 10.6624C14.3273 10.8343 14.43 10.9874 14.5674 11.1054C14.7048 11.2234 14.8716 11.3018 15.0501 11.3324C15.5292 11.3879 15.979 11.5912 16.3371 11.9141C16.6953 12.2371 16.9438 12.6636 17.0483 13.1343C17.1528 13.6051 17.108 14.0967 16.9202 14.5409C16.7323 14.985 16.4107 15.3595 16.0001 15.6124C15.8898 15.6847 15.7948 15.7779 15.7205 15.8869C15.6463 15.9958 15.5942 16.1183 15.5672 16.2474C15.5403 16.3764 15.5391 16.5096 15.5636 16.6391C15.5881 16.7687 15.6379 16.8921 15.7101 17.0024C15.7824 17.1127 15.8756 17.2077 15.9845 17.282C16.0935 17.3563 16.216 17.4084 16.3451 17.4353C16.4741 17.4622 16.6073 17.4635 16.7368 17.439C16.8664 17.4145 16.9898 17.3647 17.1001 17.2924C17.6898 16.8916 18.1717 16.3516 18.5031 15.7202C18.8345 15.0888 19.0052 14.3855 19.0001 13.6724C19.004 12.9756 18.8357 12.2886 18.5101 11.6724C19.3689 11.4326 20.1468 10.9648 20.7612 10.3187C21.3757 9.67256 21.8038 8.87218 22.0001 8.00243C22.0339 7.8347 22.024 7.66112 21.9715 7.49829C21.9189 7.33547 21.8255 7.18884 21.7001 7.07243ZM17.1101 9.89243C16.9703 9.90326 16.8299 9.90326 16.6901 9.89243C16.4704 9.7566 16.2395 9.63952 16.0001 9.54243C15.5882 8.64557 14.9634 7.86289 14.1801 7.26243C14.1801 7.14243 14.1801 7.01243 14.1801 6.89243C14.1801 6.45911 14.2739 6.03093 14.4552 5.63734C14.6365 5.24374 14.9008 4.89409 15.2301 4.61243C15.385 5.67929 15.8805 6.66753 16.6427 7.42981C17.405 8.19209 18.3933 8.68759 19.4601 8.84243C19.1709 9.18085 18.8099 9.45065 18.4035 9.63226C17.997 9.81388 17.5552 9.90275 17.1101 9.89243Z" fill="#111111" stroke="#111111" stroke-width="2" mask="url(#path-1-inside-1_2239_8234)"/>
</svg>
