<svg width="24" height="24" viewBox="0 0 24 24" fill="none" xmlns="http://www.w3.org/2000/svg">
<path d="M8.49977 16.0023V16.0029C8.49907 16.6425 8.64697 17.2736 8.93179 17.8464C9.21609 18.418 9.62905 18.916 10.1382 19.3012L8.49977 16.0023ZM8.49977 16.0023V12.6343M8.49977 16.0023V12.6343M9.10356 12.1509C9.55197 12.2491 10.0162 12.2503 10.4651 12.1544C10.9138 12.0585 11.3369 11.8679 11.7059 11.5952C11.7913 11.5332 11.8942 11.4997 11.9998 11.4997C12.1055 11.4997 12.2086 11.5333 12.2941 11.5956C12.6633 11.8675 13.0862 12.0576 13.5346 12.1534C13.9835 12.2493 14.4476 12.2485 14.896 12.1509L14.7898 11.6623L14.8953 12.1511C14.9683 12.1353 15.044 12.1361 15.1167 12.1534C15.1892 12.1707 15.257 12.204 15.3151 12.2509C15.3723 12.2974 15.4185 12.3559 15.4505 12.4224C15.4823 12.4886 15.4991 12.5609 15.4998 12.6343L9.20977 11.6623M9.10356 12.1509C9.10327 12.1509 9.10297 12.1508 9.10267 12.1507L9.20977 11.6623M9.10356 12.1509C9.10378 12.151 9.10401 12.151 9.10423 12.1511L9.20977 11.6623M9.10356 12.1509C9.03074 12.1353 8.95534 12.1361 8.88288 12.1534C8.8103 12.1707 8.74251 12.204 8.68448 12.2509M9.20977 11.6623C9.06371 11.6308 8.91243 11.6324 8.76707 11.667C8.6217 11.7016 8.48594 11.7684 8.36977 11.8623M8.68448 12.2509C8.68458 12.2508 8.68467 12.2507 8.68476 12.2506L8.36977 11.8623M8.68448 12.2509C8.62725 12.2974 8.58101 12.3559 8.54907 12.4224C8.51729 12.4885 8.50045 12.5609 8.49977 12.6343M8.68448 12.2509C8.6844 12.2509 8.68431 12.251 8.68423 12.2511L8.36977 11.8623M8.36977 11.8623L8.49977 12.6343M17.9613 7.42186L18.0543 7.63556L18.2778 7.70175C19.2062 7.97674 20.0211 8.54386 20.6016 9.31888C21.1819 10.0937 21.4969 11.0351 21.4998 12.0032C21.5006 12.7921 21.294 13.5674 20.9008 14.2513C20.5076 14.9349 19.9418 15.5032 19.2599 15.8992C19.1443 15.9654 19.0072 15.9831 18.8785 15.9484C18.7496 15.9136 18.6398 15.829 18.5733 15.7132C18.5067 15.5974 18.4889 15.46 18.5237 15.3311C18.5585 15.2022 18.6431 15.0924 18.7589 15.0258L18.7589 15.0259L18.7655 15.022C19.3781 14.6574 19.8648 14.1143 20.1604 13.4655C20.4561 12.8167 20.5465 12.0931 20.4196 11.3916C20.2927 10.69 19.9546 10.0439 19.4505 9.5397C18.9464 9.03552 18.3004 8.69731 17.5988 8.57033L17.5988 8.57031L17.5942 8.56952C17.505 8.55423 17.4215 8.51499 17.3529 8.45598C17.2842 8.39698 17.2328 8.32044 17.2042 8.23452L17.2042 8.23451L17.2028 8.23026C16.781 6.99951 15.9367 5.95811 14.8197 5.29107C13.7027 4.62402 12.3854 4.37453 11.1019 4.58692C9.81835 4.7993 8.65165 5.45981 7.80906 6.4511C6.96648 7.44238 6.50258 8.70026 6.49977 10.0013V10.0023C6.49977 10.1349 6.44709 10.2621 6.35332 10.3559C6.25955 10.4497 6.13237 10.5023 5.99977 10.5023C5.33672 10.5023 4.70084 10.7657 4.232 11.2346C3.76316 11.7034 3.49977 12.3393 3.49977 13.0023V13.01L3.5 13.0176C3.51533 13.5185 3.68085 14.0033 3.97507 14.4089C4.26929 14.8146 4.67864 15.1225 5.15 15.2926L5.19428 15.3086L5.24077 15.3161C5.37505 15.3375 5.49528 15.4115 5.57504 15.5216C5.65479 15.6318 5.68753 15.7691 5.66605 15.9033C5.64456 16.0376 5.57062 16.1579 5.46048 16.2376C5.35034 16.3174 5.21304 16.3501 5.07876 16.3286L5.04229 16.3228L5.00536 16.3224C4.94776 16.3217 4.89054 16.3132 4.8353 16.297C4.1279 16.0458 3.51989 15.5739 3.10116 14.9506C2.68039 14.3243 2.47327 13.5789 2.51065 12.8253C2.54803 12.0717 2.82792 11.3504 3.30861 10.7689C3.78929 10.1873 4.44503 9.77668 5.17809 9.59813L5.51133 9.51697L5.55559 9.17686C5.73906 7.76693 6.37977 6.45605 7.37954 5.44509C8.3793 4.43414 9.68297 3.77887 11.0908 3.57972C12.4986 3.38056 13.9328 3.64849 15.1738 4.34246C16.4148 5.03643 17.3939 6.11815 17.9613 7.42186ZM14.4996 16.0137L14.4998 16.0137V16.0023V13.7223V13.2443L14.0222 13.2228C13.3975 13.1948 12.7871 13.0269 12.2359 12.7316L11.9998 12.6051L11.7636 12.7316C11.2124 13.0269 10.602 13.1948 9.97732 13.2228L9.49977 13.2443V13.7223V16.0023H9.49964L9.4999 16.0137C9.51038 16.474 9.62259 16.9262 9.82847 17.338C10.0344 17.7498 10.3288 18.1109 10.6907 18.3954L10.699 18.4019L10.7076 18.4081L11.7076 19.1281L11.9998 19.3385L12.2919 19.1281L13.2919 18.4081L13.3005 18.4019L13.3088 18.3954C13.6707 18.1109 13.9652 17.7498 14.1711 17.338C14.3769 16.9262 14.4892 16.474 14.4996 16.0137Z" fill="#111111" stroke="#111111"/>
</svg>
