<svg width="24" height="24" viewBox="0 0 24 24" fill="none" xmlns="http://www.w3.org/2000/svg">
<path d="M17.1438 12.3873C17.6421 12.3972 18.137 12.3005 18.5953 12.1036C19.0693 11.8999 19.4924 11.5939 19.8343 11.2076L20.4478 10.5143L19.5317 10.3814C18.5715 10.242 17.6821 9.79607 16.996 9.11001C16.31 8.42396 15.864 7.53454 15.7247 6.57437L15.5944 5.67647L14.9049 6.26622C14.5207 6.59482 14.2123 7.00275 14.0008 7.46194C13.7893 7.92112 13.6798 8.42066 13.6799 8.92619L17.1438 12.3873ZM17.1438 12.3873C16.9893 12.3979 16.8341 12.397 16.6796 12.3846L16.5757 12.3762L16.4837 12.3269C16.2781 12.2167 16.0634 12.1243 15.842 12.0506L15.6361 11.9821L15.5455 11.7849C15.1675 10.962 14.5943 10.2439 13.8757 9.693L13.6799 9.5429V9.29619V9.29548V9.29478V9.29408V9.29337V9.29267V9.29196V9.29126V9.29055V9.28985V9.28914V9.28844V9.28773V9.28703V9.28632V9.28561V9.28491V9.2842V9.28349V9.28279V9.28208V9.28137V9.28066V9.27996V9.27925V9.27854V9.27783V9.27712V9.27641V9.2757V9.27499V9.27428V9.27357V9.27286V9.27215V9.27144V9.27073V9.27002V9.26931V9.2686V9.26789V9.26718V9.26646V9.26575V9.26504V9.26433V9.26362V9.2629V9.26219V9.26148V9.26076V9.26005V9.25934V9.25862V9.25791V9.25719V9.25648V9.25576V9.25505V9.25433V9.25362V9.2529V9.25219V9.25147V9.25076V9.25004V9.24933V9.24861V9.24789V9.24718V9.24646V9.24574V9.24502V9.24431V9.24359V9.24287V9.24215V9.24144V9.24072V9.24V9.23928V9.23856V9.23784V9.23712V9.23641V9.23569V9.23497V9.23425V9.23353V9.23281V9.23209V9.23137V9.23065V9.22993V9.22921V9.22849V9.22776V9.22704V9.22632V9.2256V9.22488V9.22416V9.22344V9.22271V9.22199V9.22127V9.22055V9.21982V9.2191V9.21838V9.21766V9.21693V9.21621V9.21549V9.21476V9.21404V9.21332V9.21259V9.21187V9.21115V9.21042V9.2097V9.20897V9.20825V9.20752V9.2068V9.20607V9.20535V9.20462V9.2039V9.20317V9.20245V9.20172V9.201V9.20027V9.19955V9.19882V9.19809V9.19737V9.19664V9.19592V9.19519V9.19446V9.19374V9.19301V9.19228V9.19156V9.19083V9.1901V9.18937V9.18865V9.18792V9.18719V9.18646V9.18574V9.18501V9.18428V9.18355V9.18282V9.1821V9.18137V9.18064V9.17991V9.17918V9.17845V9.17773V9.177V9.17627V9.17554V9.17481V9.17408V9.17335V9.17262V9.17189V9.17116V9.17043V9.1697V9.16897V9.16825V9.16752V9.16679V9.16606V9.16533V9.1646V9.16387V9.16314V9.16241V9.16167V9.16094V9.16021V9.15948V9.15875V9.15802V9.15729V9.15656V9.15583V9.1551V9.15437V9.15364V9.15291V9.15218V9.15145V9.15071V9.14998V9.14925V9.14852V9.14779V9.14706V9.14633V9.1456V9.14486V9.14413V9.1434V9.14267V9.14194V9.14121V9.14047V9.13974V9.13901V9.13828V9.13755V9.13682V9.13608V9.13535V9.13462V9.13389V9.13316V9.13242V9.13169V9.13096V9.13023V9.1295V9.12876V9.12803V9.1273V9.12657V9.12583V9.1251V9.12437V9.12364V9.12291V9.12217V9.12144V9.12071V9.11998V9.11924V9.11851V9.11778V9.11705V9.11631V9.11558V9.11485V9.11412V9.11338V9.11265V9.11192V9.11119V9.11045V9.10972V9.10899V9.10826V9.10752V9.10679V9.10606V9.10533V9.1046V9.10386V9.10313V9.1024V9.10167V9.10093V9.1002V9.09947V9.09874V9.098V9.09727V9.09654V9.09581V9.09508V9.09434V9.09361V9.09288V9.09215V9.09141V9.09068V9.08995V9.08922V9.08849V9.08775V9.08702V9.08629V9.08556V9.08483V9.0841V9.08336V9.08263V9.0819V9.08117V9.08044V9.0797V9.07897V9.07824V9.07751V9.07678V9.07605V9.07532V9.07458V9.07385V9.07312V9.07239V9.07166V9.07093V9.0702V9.06947V9.06874V9.068V9.06727V9.06654V9.06581V9.06508V9.06435V9.06362V9.06289V9.06216V9.06143V9.0607V9.05997V9.05924V9.05851V9.05778V9.05705V9.05632V9.05559V9.05486V9.05413V9.0534V9.05267V9.05194V9.05121V9.05048V9.04975V9.04902V9.04829V9.04756V9.04684V9.04611V9.04538V9.04465V9.04392V9.04319V9.04246V9.04173V9.04101V9.04028V9.03955V9.03882V9.03809V9.03737V9.03664V9.03591V9.03518V9.03446V9.03373V9.033V9.03227V9.03155V9.03082V9.03009V9.02937V9.02864V9.02791V9.02718V9.02646V9.02573V9.02501V9.02428V9.02355V9.02283V9.0221V9.02138V9.02065V9.01993V9.0192V9.01847V9.01775V9.01702V9.0163V9.01557V9.01485V9.01413V9.0134V9.01268V9.01195V9.01123V9.0105V9.00978V9.00906V9.00833V9.00761V9.00689V9.00616V9.00544V9.00472V9.00399V9.00327V9.00255V9.00183V9.0011V9.00038V8.99966V8.99894V8.99822V8.99749V8.99677V8.99605V8.99533V8.99461V8.99389V8.99317V8.99245V8.99173V8.99101V8.99029V8.98957V8.98885V8.98813V8.98741V8.98669V8.98597V8.98525V8.98453V8.98381V8.98309V8.98237V8.98166V8.98094V8.98022V8.9795V8.97878V8.97807V8.97735V8.97663V8.97592V8.9752V8.97448V8.97377V8.97305V8.97233V8.97162V8.9709V8.97019V8.96947V8.96875V8.96804V8.96732V8.96661V8.96589V8.96518V8.96447V8.96375V8.96304V8.96232V8.96161V8.9609V8.96018V8.95947V8.95876V8.95805V8.95733V8.95662V8.95591V8.9552V8.95449V8.95377V8.95306V8.95235V8.95164V8.95093V8.95022V8.94951V8.9488V8.94809V8.94738V8.94667V8.94596V8.94525V8.94454V8.94383V8.94313V8.94242V8.94171V8.941V8.94029V8.93959V8.93888V8.93817V8.93747V8.93676V8.93605V8.93535V8.93464V8.93394V8.93323V8.93252V8.93182V8.93111V8.93041V8.92971V8.929V8.9283V8.92759V8.92689V8.92622L17.1438 12.3873ZM21.3495 9.42287L21.3493 9.42302L21.3597 9.43262C21.4224 9.49082 21.4691 9.56413 21.4953 9.64555C21.5211 9.72536 21.5263 9.81033 21.5106 9.89266C21.3335 10.6718 20.9493 11.3888 20.3986 11.9679C19.8464 12.5486 19.1472 12.9691 18.3754 13.1846L17.778 13.3514L18.0678 13.8998C18.3549 14.4431 18.5033 15.0489 18.4999 15.6634V15.6662C18.4999 16.682 18.0963 17.6561 17.3781 18.3744C16.6598 19.0927 15.6856 19.4962 14.6699 19.4962L5.50058 19.4962C5.50038 19.4962 5.50017 19.4962 5.49996 19.4962C4.77573 19.495 4.07636 19.2319 3.53097 18.7553C2.98542 18.2786 2.6308 17.6207 2.53259 16.9029C2.43438 16.1851 2.59922 15.456 2.99667 14.8503C3.39411 14.2446 3.99732 13.8032 4.69487 13.6076L5.0075 13.5199L5.05458 13.1987C5.24613 11.8916 5.90175 10.6971 6.90155 9.83366C7.90135 8.9702 9.17853 8.49544 10.4996 8.49619V8.49622L10.505 8.49616C11.0234 8.49088 11.5402 8.55586 12.0411 8.68933L12.5958 8.8371L12.6661 8.26745C12.7783 7.35848 13.1695 6.50663 13.7858 5.82915C14.401 5.15301 15.2101 4.68373 16.1024 4.4856C16.185 4.46967 16.2704 4.47486 16.3505 4.50071C16.4319 4.52697 16.5052 4.57368 16.5634 4.63638L16.5633 4.63651L16.5732 4.64658C16.6323 4.70681 16.6753 4.78104 16.698 4.86235C16.7208 4.94366 16.7225 5.0294 16.7032 5.11158L16.7027 5.11365C16.6447 5.36477 16.6136 5.62136 16.6099 5.87908L16.6099 5.87908V5.88619C16.6099 6.81444 16.9786 7.70468 17.635 8.36106C18.2914 9.01744 19.1816 9.38619 20.1099 9.38619V9.38624L20.117 9.38614C20.3747 9.38247 20.6313 9.35137 20.8824 9.29336L20.8845 9.29287C20.9667 9.27352 21.0524 9.27529 21.1337 9.29803C21.215 9.32076 21.2892 9.36371 21.3495 9.42287ZM5.99986 13.9945V13.9962C5.99986 14.1288 5.94719 14.256 5.85342 14.3497C5.75965 14.4435 5.63247 14.4962 5.49986 14.4962C4.96943 14.4962 4.46072 14.7069 4.08565 15.082C3.71058 15.457 3.49986 15.9658 3.49986 16.4962C3.49986 17.0266 3.71058 17.5353 4.08565 17.9104C4.46072 18.2855 4.96943 18.4962 5.49986 18.4962H14.6516C15.017 18.5218 15.384 18.4764 15.7324 18.3626C16.0872 18.2467 16.4156 18.0621 16.699 17.8192C16.9824 17.5764 17.2152 17.2801 17.3841 16.9473C17.553 16.6145 17.6547 16.2517 17.6834 15.8796C17.7121 15.5075 17.6672 15.1334 17.5513 14.7786C17.4354 14.4239 17.2508 14.0954 17.0079 13.812C16.7651 13.5286 16.4688 13.2958 16.136 13.1269C15.8116 12.9623 15.4587 12.8615 15.0965 12.83C15.014 12.8127 14.937 12.7749 14.8729 12.7198C14.8043 12.6608 14.7529 12.5843 14.7243 12.4984L14.7244 12.4983L14.7217 12.4909C14.3973 11.5647 13.7751 10.7722 12.9525 10.2371L12.9524 10.237C12.2743 9.79619 11.4899 9.54631 10.6818 9.5136C9.87375 9.48089 9.07178 9.66656 8.36028 10.0511C7.64879 10.4356 7.05408 11.0048 6.6387 11.6987C6.22333 12.3927 6.00264 13.1857 5.99986 13.9945Z" fill="#111111" stroke="#111111"/>
</svg>
