<svg width="24" height="24" viewBox="0 0 24 24" fill="none" xmlns="http://www.w3.org/2000/svg">
<path d="M12.0001 13.5023L11.9972 13.5023C11.8979 13.5029 11.8007 13.4739 11.7179 13.419C11.6352 13.3641 11.5706 13.2858 11.5325 13.1941C11.4945 13.1024 11.4846 13.0014 11.5041 12.904C11.5234 12.8077 11.5707 12.7192 11.6399 12.6496C11.7347 12.5592 11.8612 12.5096 11.9922 12.5115C12.1243 12.5133 12.2503 12.5674 12.3426 12.6619L12.3426 12.6619L12.348 12.6673C12.3949 12.7138 12.4321 12.7691 12.4575 12.83C12.4829 12.891 12.4959 12.9563 12.4959 13.0223C12.4959 13.0883 12.4829 13.1537 12.4575 13.2146C12.4349 13.2687 12.4031 13.3184 12.3634 13.3614L12.2423 13.4583C12.2372 13.462 12.2315 13.4649 12.2256 13.4668L12.1878 13.4791L12.1525 13.4972C12.1486 13.4992 12.1446 13.5009 12.1405 13.5023L12.0001 13.5023ZM17.9617 8.42186L18.0535 8.63288L18.2735 8.70036C19.3006 9.01537 20.1811 9.68744 20.7558 10.5951C21.3306 11.5027 21.5617 12.586 21.4073 13.6491C21.2529 14.7123 20.7233 15.6851 19.9142 16.3918C19.1056 17.0981 18.0712 17.4919 16.9977 17.5023H16.0001C15.8675 17.5023 15.7403 17.4497 15.6466 17.3559C15.5528 17.2621 15.5001 17.1349 15.5001 17.0023C15.5001 16.8697 15.5528 16.7426 15.6466 16.6488C15.7403 16.555 15.8675 16.5023 16.0001 16.5023H17.0001C17.9284 16.5023 18.8186 16.1336 19.475 15.4772C20.1314 14.8208 20.5001 13.9306 20.5001 13.0023L20.5001 12.9996C20.4957 12.1778 20.2021 11.3838 19.671 10.7567C19.1399 10.1295 18.405 9.70931 17.5951 9.56961L17.5946 9.56952C17.5053 9.55423 17.4219 9.51499 17.3532 9.45599C17.2845 9.39698 17.2332 9.32044 17.2046 9.23452L17.2046 9.23451L17.2031 9.23026C16.7814 7.99951 15.937 6.95811 14.8201 6.29107C13.7031 5.62402 12.3858 5.37453 11.1023 5.58692C9.81872 5.7993 8.65201 6.45981 7.80943 7.4511C6.96685 8.44239 6.50295 9.70026 6.50013 11.0013V11.0023C6.50013 11.1349 6.44746 11.2621 6.35369 11.3559C6.25992 11.4497 6.13274 11.5023 6.00013 11.5023C5.33709 11.5023 4.70121 11.7657 4.23237 12.2346C3.76353 12.7034 3.50013 13.3393 3.50013 14.0023C3.50013 14.6654 3.76353 15.3013 4.23237 15.7701C4.70121 16.2389 5.33709 16.5023 6.00013 16.5023H8.00013C8.13274 16.5023 8.25992 16.555 8.35369 16.6488C8.44746 16.7426 8.50013 16.8697 8.50013 17.0023C8.50013 17.1349 8.44746 17.2621 8.35369 17.3559C8.25992 17.4497 8.13274 17.5023 8.00013 17.5023L6.00013 17.5023L5.99908 17.5023C5.14126 17.5041 4.31264 17.1909 3.67059 16.622C3.02854 16.0531 2.61777 15.2682 2.51629 14.4164C2.4148 13.5646 2.62968 12.7052 3.1201 12.0014C3.61053 11.2976 4.34234 10.7984 5.17658 10.5986L5.51151 10.5184L5.55595 10.1769C5.73943 8.76693 6.38014 7.45605 7.3799 6.44509C8.37967 5.43414 9.68334 4.77887 11.0911 4.57972C12.4989 4.38056 13.9332 4.64849 15.1742 5.34246C16.4151 6.03643 17.3943 7.11815 17.9617 8.42186ZM11.6466 15.6488C11.7403 15.555 11.8675 15.5023 12.0001 15.5023C12.1327 15.5023 12.2599 15.555 12.3537 15.6488C12.4475 15.7426 12.5001 15.8697 12.5001 16.0023V19.0023C12.5001 19.1349 12.4475 19.2621 12.3537 19.3559C12.2599 19.4497 12.1327 19.5023 12.0001 19.5023C11.8675 19.5023 11.7403 19.4497 11.6466 19.3559C11.5528 19.2621 11.5001 19.1349 11.5001 19.0023V16.0023C11.5001 15.8697 11.5528 15.7426 11.6466 15.6488Z" fill="#111111" stroke="#111111"/>
</svg>
