<svg width="24" height="24" viewBox="0 0 24 24" fill="none" xmlns="http://www.w3.org/2000/svg">
<mask id="path-1-inside-1_2239_8221" fill="white">
<path d="M8.00002 11.0023C7.7348 11.0023 7.48045 11.1077 7.29291 11.2952C7.10538 11.4828 7.00002 11.7371 7.00002 12.0023V15.0023C7.00002 15.2676 7.10538 15.5219 7.29291 15.7094C7.48045 15.897 7.7348 16.0023 8.00002 16.0023C8.26524 16.0023 8.51959 15.897 8.70713 15.7094C8.89466 15.5219 9.00002 15.2676 9.00002 15.0023V12.0023C9.00002 11.7371 8.89466 11.4828 8.70713 11.2952C8.51959 11.1077 8.26524 11.0023 8.00002 11.0023ZM12 17.0023C11.7348 17.0023 11.4804 17.1077 11.2929 17.2952C11.1054 17.4828 11 17.7371 11 18.0023V21.0023C11 21.2676 11.1054 21.5219 11.2929 21.7094C11.4804 21.897 11.7348 22.0023 12 22.0023C12.2652 22.0023 12.5196 21.897 12.7071 21.7094C12.8947 21.5219 13 21.2676 13 21.0023V18.0023C13 17.7371 12.8947 17.4828 12.7071 17.2952C12.5196 17.1077 12.2652 17.0023 12 17.0023ZM8.00002 17.0023C7.7348 17.0023 7.48045 17.1077 7.29291 17.2952C7.10538 17.4828 7.00002 17.7371 7.00002 18.0023V21.0023C7.00002 21.2676 7.10538 21.5219 7.29291 21.7094C7.48045 21.897 7.7348 22.0023 8.00002 22.0023C8.26524 22.0023 8.51959 21.897 8.70713 21.7094C8.89466 21.5219 9.00002 21.2676 9.00002 21.0023V18.0023C9.00002 17.7371 8.89466 17.4828 8.70713 17.2952C8.51959 17.1077 8.26524 17.0023 8.00002 17.0023ZM18.42 6.22234C17.809 4.81834 16.7545 3.65341 15.4181 2.90606C14.0817 2.15871 12.5371 1.87017 11.021 2.08465C9.50489 2.29912 8.10095 3.00479 7.02427 4.09351C5.9476 5.18223 5.25761 6.59395 5.06002 8.11234C4.18743 8.3233 3.41118 8.82166 2.85615 9.52725C2.30111 10.2328 1.99957 11.1046 2.00002 12.0023C1.99823 12.5688 2.11677 13.1291 2.34777 13.6463C2.57878 14.1635 2.91699 14.6257 3.34002 15.0023C3.43738 15.0958 3.55266 15.1687 3.67892 15.2164C3.80518 15.2642 3.9398 15.2859 4.07467 15.2803C4.20955 15.2746 4.34188 15.2417 4.46369 15.1835C4.5855 15.1253 4.69428 15.0431 4.78346 14.9418C4.87264 14.8404 4.94037 14.7221 4.98259 14.5939C5.0248 14.4656 5.04062 14.3302 5.02909 14.1957C5.01755 14.0612 4.97891 13.9304 4.91548 13.8113C4.85205 13.6921 4.76515 13.587 4.66002 13.5023C4.45032 13.3131 4.28309 13.0816 4.16933 12.823C4.05557 12.5645 3.99787 12.2848 4.00002 12.0023C4.00002 11.4719 4.21073 10.9632 4.58581 10.5881C4.96088 10.2131 5.46959 10.0023 6.00002 10.0023C6.26524 10.0023 6.51959 9.89698 6.70713 9.70944C6.89466 9.52191 7.00002 9.26755 7.00002 9.00234C7.00257 7.81961 7.42431 6.67609 8.19029 5.77492C8.95627 4.87375 10.0169 4.27329 11.1838 4.08021C12.3506 3.88713 13.5482 4.11394 14.5636 4.72034C15.579 5.32675 16.3466 6.27348 16.73 7.39234C16.7872 7.56418 16.8899 7.71727 17.0273 7.83527C17.1647 7.95327 17.3315 8.03175 17.51 8.06234C18.2042 8.18208 18.8341 8.54227 19.2893 9.0798C19.7446 9.61734 19.9962 10.2979 20 11.0023C20.0153 11.7386 19.7509 12.4533 19.26 13.0023C19.1004 13.2011 19.0227 13.4534 19.0429 13.7076C19.063 13.9618 19.1795 14.1986 19.3686 14.3698C19.5576 14.5409 19.8048 14.6334 20.0597 14.6283C20.3147 14.6232 20.558 14.5209 20.74 14.3423C21.2908 13.7129 21.6749 12.9553 21.8572 12.139C22.0394 11.3227 22.0139 10.4737 21.7831 9.66977C21.5523 8.86584 21.1234 8.13266 20.5359 7.53737C19.9483 6.94207 19.2209 6.50368 18.42 6.26234V6.22234ZM12 11.0023C11.7348 11.0023 11.4804 11.1077 11.2929 11.2952C11.1054 11.4828 11 11.7371 11 12.0023V15.0023C11 15.2676 11.1054 15.5219 11.2929 15.7094C11.4804 15.897 11.7348 16.0023 12 16.0023C12.2652 16.0023 12.5196 15.897 12.7071 15.7094C12.8947 15.5219 13 15.2676 13 15.0023V12.0023C13 11.7371 12.8947 11.4828 12.7071 11.2952C12.5196 11.1077 12.2652 11.0023 12 11.0023ZM16 11.0023C15.7348 11.0023 15.4804 11.1077 15.2929 11.2952C15.1054 11.4828 15 11.7371 15 12.0023V15.0023C15 15.2676 15.1054 15.5219 15.2929 15.7094C15.4804 15.897 15.7348 16.0023 16 16.0023C16.2652 16.0023 16.5196 15.897 16.7071 15.7094C16.8947 15.5219 17 15.2676 17 15.0023V12.0023C17 11.7371 16.8947 11.4828 16.7071 11.2952C16.5196 11.1077 16.2652 11.0023 16 11.0023ZM16 17.0023C15.7348 17.0023 15.4804 17.1077 15.2929 17.2952C15.1054 17.4828 15 17.7371 15 18.0023V21.0023C15 21.2676 15.1054 21.5219 15.2929 21.7094C15.4804 21.897 15.7348 22.0023 16 22.0023C16.2652 22.0023 16.5196 21.897 16.7071 21.7094C16.8947 21.5219 17 21.2676 17 21.0023V18.0023C17 17.7371 16.8947 17.4828 16.7071 17.2952C16.5196 17.1077 16.2652 17.0023 16 17.0023Z"/>
</mask>
<path d="M8.00002 11.0023C7.7348 11.0023 7.48045 11.1077 7.29291 11.2952C7.10538 11.4828 7.00002 11.7371 7.00002 12.0023V15.0023C7.00002 15.2676 7.10538 15.5219 7.29291 15.7094C7.48045 15.897 7.7348 16.0023 8.00002 16.0023C8.26524 16.0023 8.51959 15.897 8.70713 15.7094C8.89466 15.5219 9.00002 15.2676 9.00002 15.0023V12.0023C9.00002 11.7371 8.89466 11.4828 8.70713 11.2952C8.51959 11.1077 8.26524 11.0023 8.00002 11.0023ZM12 17.0023C11.7348 17.0023 11.4804 17.1077 11.2929 17.2952C11.1054 17.4828 11 17.7371 11 18.0023V21.0023C11 21.2676 11.1054 21.5219 11.2929 21.7094C11.4804 21.897 11.7348 22.0023 12 22.0023C12.2652 22.0023 12.5196 21.897 12.7071 21.7094C12.8947 21.5219 13 21.2676 13 21.0023V18.0023C13 17.7371 12.8947 17.4828 12.7071 17.2952C12.5196 17.1077 12.2652 17.0023 12 17.0023ZM8.00002 17.0023C7.7348 17.0023 7.48045 17.1077 7.29291 17.2952C7.10538 17.4828 7.00002 17.7371 7.00002 18.0023V21.0023C7.00002 21.2676 7.10538 21.5219 7.29291 21.7094C7.48045 21.897 7.7348 22.0023 8.00002 22.0023C8.26524 22.0023 8.51959 21.897 8.70713 21.7094C8.89466 21.5219 9.00002 21.2676 9.00002 21.0023V18.0023C9.00002 17.7371 8.89466 17.4828 8.70713 17.2952C8.51959 17.1077 8.26524 17.0023 8.00002 17.0023ZM18.42 6.22234C17.809 4.81834 16.7545 3.65341 15.4181 2.90606C14.0817 2.15871 12.5371 1.87017 11.021 2.08465C9.50489 2.29912 8.10095 3.00479 7.02427 4.09351C5.9476 5.18223 5.25761 6.59395 5.06002 8.11234C4.18743 8.3233 3.41118 8.82166 2.85615 9.52725C2.30111 10.2328 1.99957 11.1046 2.00002 12.0023C1.99823 12.5688 2.11677 13.1291 2.34777 13.6463C2.57878 14.1635 2.91699 14.6257 3.34002 15.0023C3.43738 15.0958 3.55266 15.1687 3.67892 15.2164C3.80518 15.2642 3.9398 15.2859 4.07467 15.2803C4.20955 15.2746 4.34188 15.2417 4.46369 15.1835C4.5855 15.1253 4.69428 15.0431 4.78346 14.9418C4.87264 14.8404 4.94037 14.7221 4.98259 14.5939C5.0248 14.4656 5.04062 14.3302 5.02909 14.1957C5.01755 14.0612 4.97891 13.9304 4.91548 13.8113C4.85205 13.6921 4.76515 13.587 4.66002 13.5023C4.45032 13.3131 4.28309 13.0816 4.16933 12.823C4.05557 12.5645 3.99787 12.2848 4.00002 12.0023C4.00002 11.4719 4.21073 10.9632 4.58581 10.5881C4.96088 10.2131 5.46959 10.0023 6.00002 10.0023C6.26524 10.0023 6.51959 9.89698 6.70713 9.70944C6.89466 9.52191 7.00002 9.26755 7.00002 9.00234C7.00257 7.81961 7.42431 6.67609 8.19029 5.77492C8.95627 4.87375 10.0169 4.27329 11.1838 4.08021C12.3506 3.88713 13.5482 4.11394 14.5636 4.72034C15.579 5.32675 16.3466 6.27348 16.73 7.39234C16.7872 7.56418 16.8899 7.71727 17.0273 7.83527C17.1647 7.95327 17.3315 8.03175 17.51 8.06234C18.2042 8.18208 18.8341 8.54227 19.2893 9.0798C19.7446 9.61734 19.9962 10.2979 20 11.0023C20.0153 11.7386 19.7509 12.4533 19.26 13.0023C19.1004 13.2011 19.0227 13.4534 19.0429 13.7076C19.063 13.9618 19.1795 14.1986 19.3686 14.3698C19.5576 14.5409 19.8048 14.6334 20.0597 14.6283C20.3147 14.6232 20.558 14.5209 20.74 14.3423C21.2908 13.7129 21.6749 12.9553 21.8572 12.139C22.0394 11.3227 22.0139 10.4737 21.7831 9.66977C21.5523 8.86584 21.1234 8.13266 20.5359 7.53737C19.9483 6.94207 19.2209 6.50368 18.42 6.26234V6.22234ZM12 11.0023C11.7348 11.0023 11.4804 11.1077 11.2929 11.2952C11.1054 11.4828 11 11.7371 11 12.0023V15.0023C11 15.2676 11.1054 15.5219 11.2929 15.7094C11.4804 15.897 11.7348 16.0023 12 16.0023C12.2652 16.0023 12.5196 15.897 12.7071 15.7094C12.8947 15.5219 13 15.2676 13 15.0023V12.0023C13 11.7371 12.8947 11.4828 12.7071 11.2952C12.5196 11.1077 12.2652 11.0023 12 11.0023ZM16 11.0023C15.7348 11.0023 15.4804 11.1077 15.2929 11.2952C15.1054 11.4828 15 11.7371 15 12.0023V15.0023C15 15.2676 15.1054 15.5219 15.2929 15.7094C15.4804 15.897 15.7348 16.0023 16 16.0023C16.2652 16.0023 16.5196 15.897 16.7071 15.7094C16.8947 15.5219 17 15.2676 17 15.0023V12.0023C17 11.7371 16.8947 11.4828 16.7071 11.2952C16.5196 11.1077 16.2652 11.0023 16 11.0023ZM16 17.0023C15.7348 17.0023 15.4804 17.1077 15.2929 17.2952C15.1054 17.4828 15 17.7371 15 18.0023V21.0023C15 21.2676 15.1054 21.5219 15.2929 21.7094C15.4804 21.897 15.7348 22.0023 16 22.0023C16.2652 22.0023 16.5196 21.897 16.7071 21.7094C16.8947 21.5219 17 21.2676 17 21.0023V18.0023C17 17.7371 16.8947 17.4828 16.7071 17.2952C16.5196 17.1077 16.2652 17.0023 16 17.0023Z" fill="#111111" stroke="#111111" stroke-width="2" mask="url(#path-1-inside-1_2239_8221)"/>
</svg>
