<svg width="24" height="24" viewBox="0 0 24 24" fill="none" xmlns="http://www.w3.org/2000/svg">
<path d="M17.9617 8.42186L18.054 8.63397L18.2754 8.70093C19.2131 8.98452 20.0327 9.56637 20.6096 10.3581C21.1865 11.1499 21.4894 12.1083 21.472 13.0878C21.4547 14.0673 21.1183 15.0144 20.5137 15.7852C19.9095 16.5557 19.0705 17.108 18.124 17.3585C17.9956 17.3912 17.8593 17.3718 17.7451 17.3044C17.6306 17.2368 17.5475 17.1264 17.5143 16.9975C17.4811 16.8687 17.5004 16.7319 17.5681 16.6173C17.6357 16.5028 17.7461 16.4197 17.8749 16.3865L17.8749 16.3866L17.883 16.3844C18.6454 16.1742 19.3142 15.7121 19.7803 15.0733C20.2465 14.4345 20.4826 13.6566 20.4501 12.8664C20.4176 12.0763 20.1185 11.3204 19.6015 10.722C19.0845 10.1236 18.3801 9.71788 17.603 9.57103L17.603 9.57096L17.5946 9.56952C17.5053 9.55423 17.4219 9.51499 17.3532 9.45599C17.2845 9.39698 17.2332 9.32044 17.2046 9.23452L17.2046 9.23451L17.2031 9.23026C16.7814 7.99951 15.937 6.95811 14.8201 6.29107C13.7031 5.62402 12.3858 5.37453 11.1023 5.58692C9.81872 5.7993 8.65201 6.45981 7.80943 7.4511C6.96685 8.44239 6.50295 9.70026 6.50013 11.0013V11.0023C6.50013 11.1349 6.44746 11.2621 6.35369 11.3559C6.25992 11.4497 6.13274 11.5023 6.00013 11.5023C5.33709 11.5023 4.70121 11.7657 4.23237 12.2346C3.76353 12.7034 3.50013 13.3393 3.50013 14.0023C3.50013 14.6654 3.76353 15.3013 4.23237 15.7701C4.70121 16.2389 5.33709 16.5023 6.00013 16.5023C6.13274 16.5023 6.25992 16.555 6.35369 16.6488C6.44746 16.7426 6.50013 16.8697 6.50013 17.0023C6.50013 17.1349 6.44746 17.2621 6.35369 17.3559C6.25992 17.4497 6.13274 17.5023 6.00013 17.5023L5.99908 17.5023C5.14126 17.5041 4.31264 17.1909 3.67059 16.622C3.02854 16.0531 2.61777 15.2682 2.51629 14.4164C2.4148 13.5646 2.62968 12.7052 3.1201 12.0014C3.61053 11.2976 4.34234 10.7984 5.17658 10.5986L5.51151 10.5184L5.55595 10.1769C5.73943 8.76693 6.38014 7.45605 7.3799 6.44509C8.37967 5.43414 9.68334 4.77887 11.0911 4.57972C12.4989 4.38056 13.9332 4.64849 15.1742 5.34246C16.4151 6.03643 17.3943 7.11815 17.9617 8.42186ZM14.3551 14.6444L14.358 14.6473C14.4049 14.6938 14.4421 14.7491 14.4675 14.81C14.4929 14.871 14.5059 14.9363 14.5059 15.0023C14.5059 15.0683 14.4929 15.1337 14.4675 15.1946C14.4421 15.2556 14.4049 15.3109 14.358 15.3573L14.3579 15.3574L13.0579 16.6474L12.7003 17.0023L13.0579 17.3573L14.3579 18.6473L14.358 18.6473C14.4049 18.6938 14.4421 18.7491 14.4675 18.81C14.4929 18.871 14.5059 18.9363 14.5059 19.0023C14.5059 19.0683 14.4929 19.1337 14.4675 19.1946C14.4421 19.2556 14.4049 19.3109 14.358 19.3573L14.3551 19.3602C14.3087 19.4071 14.2533 19.4443 14.1924 19.4697C14.1315 19.4951 14.0661 19.5081 14.0001 19.5081C13.9341 19.5081 13.8688 19.4951 13.8078 19.4697C13.7469 19.4443 13.6916 19.4071 13.6451 19.3602L13.6451 19.3601L12.3551 18.0602L12.0001 17.7025L11.6452 18.0602L10.3552 19.3601L10.3551 19.3602C10.3087 19.4071 10.2533 19.4443 10.1924 19.4697C10.1315 19.4951 10.0661 19.5081 10.0001 19.5081C9.93413 19.5081 9.86877 19.4951 9.80785 19.4697C9.74692 19.4443 9.69162 19.4071 9.64513 19.3602L9.64224 19.3573C9.59537 19.3109 9.55817 19.2556 9.53279 19.1946C9.50741 19.1337 9.49434 19.0683 9.49434 19.0023C9.49434 18.9363 9.50741 18.871 9.53279 18.81C9.55817 18.7491 9.59537 18.6938 9.64224 18.6473L9.64232 18.6473L10.9423 17.3573L11.3 17.0023L10.9423 16.6474L9.64369 15.3588C9.64351 15.3586 9.64334 15.3584 9.64316 15.3583C9.54896 15.2638 9.49604 15.1358 9.49604 15.0023C9.49604 14.8686 9.54915 14.7404 9.64369 14.6459C9.73822 14.5514 9.86644 14.4982 10.0001 14.4982C10.1336 14.4982 10.2617 14.5512 10.3561 14.6455C10.3563 14.6456 10.3564 14.6457 10.3566 14.6459L11.6452 15.9445L12.0001 16.3022L12.3551 15.9445L13.6451 14.6445L13.6451 14.6444C13.6916 14.5976 13.7469 14.5604 13.8078 14.535C13.8688 14.5096 13.9341 14.4965 14.0001 14.4965C14.0661 14.4965 14.1315 14.5096 14.1924 14.535C14.2534 14.5604 14.3087 14.5976 14.3551 14.6444Z" fill="#111111" stroke="#111111"/>
</svg>
