<svg width="24" height="24" viewBox="0 0 24 24" fill="none" xmlns="http://www.w3.org/2000/svg">
<path d="M17.9613 7.92186L18.0543 8.13556L18.2778 8.20175C19.2062 8.47674 20.0211 9.04386 20.6016 9.81888C21.1819 10.5937 21.4969 11.5351 21.4998 12.5032C21.5006 13.2921 21.294 14.0674 20.9008 14.7513C20.5076 15.4349 19.9418 16.0032 19.2599 16.3992C19.1443 16.4654 19.0072 16.4831 18.8785 16.4484C18.7496 16.4136 18.6398 16.329 18.5733 16.2132C18.5067 16.0974 18.4889 15.96 18.5237 15.8311C18.5585 15.7022 18.6431 15.5924 18.7589 15.5258L18.7589 15.5259L18.7655 15.522C19.3781 15.1574 19.8648 14.6143 20.1604 13.9655C20.4561 13.3167 20.5465 12.5931 20.4196 11.8916C20.2927 11.19 19.9546 10.5439 19.4505 10.0397C18.9464 9.53552 18.3004 9.19731 17.5988 9.07033L17.5988 9.07031L17.5942 9.06952C17.505 9.05423 17.4215 9.01499 17.3529 8.95598C17.2842 8.89698 17.2328 8.82044 17.2042 8.73452L17.2042 8.73451L17.2028 8.73026C16.781 7.49951 15.9367 6.45811 14.8197 5.79107C13.7027 5.12402 12.3854 4.87453 11.1019 5.08692C9.81835 5.2993 8.65165 5.95981 7.80906 6.9511C6.96648 7.94238 6.50258 9.20026 6.49977 10.5013V10.5023C6.49977 10.6349 6.44709 10.7621 6.35332 10.8559C6.25955 10.9497 6.13237 11.0023 5.99977 11.0023C5.33672 11.0023 4.70084 11.2657 4.232 11.7346C3.76316 12.2034 3.49977 12.8393 3.49977 13.5023V13.51L3.5 13.5176C3.51533 14.0185 3.68085 14.5033 3.97507 14.9089C4.26929 15.3146 4.67864 15.6225 5.15 15.7926L5.19428 15.8086L5.24077 15.8161C5.37505 15.8375 5.49528 15.9115 5.57504 16.0216C5.65479 16.1318 5.68753 16.2691 5.66605 16.4033C5.64456 16.5376 5.57062 16.6579 5.46048 16.7376C5.35034 16.8174 5.21304 16.8501 5.07876 16.8286L5.04229 16.8228L5.00536 16.8224C4.94776 16.8217 4.89054 16.8132 4.8353 16.797C4.1279 16.5458 3.51989 16.0739 3.10116 15.4506C2.68039 14.8243 2.47327 14.0789 2.51065 13.3253C2.54803 12.5717 2.82792 11.8504 3.30861 11.2689C3.78929 10.6873 4.44503 10.2767 5.17809 10.0981L5.51133 10.017L5.55559 9.67686C5.73906 8.26693 6.37977 6.95605 7.37954 5.94509C8.3793 4.93414 9.68297 4.27887 11.0908 4.07972C12.4986 3.88056 13.9328 4.14849 15.1738 4.84246C16.4148 5.53643 17.3939 6.61815 17.9613 7.92186ZM9.52352 14.0757L9.66977 13.9293V13.8975C10.3232 13.3532 11.1505 13.0564 12.0054 13.0639C12.9295 13.0721 13.8151 13.4354 14.4787 14.0784C14.9663 14.5676 15.2983 15.1902 15.4328 15.8678C15.5675 16.5466 15.498 17.2502 15.233 17.8895C14.968 18.5288 14.5193 19.0752 13.9439 19.4596C13.3684 19.844 12.6918 20.0492 11.9998 20.0492C11.3077 20.0492 10.6312 19.844 10.0557 19.4596C9.48019 19.0752 9.03158 18.5288 8.76656 17.8895C8.50154 17.2502 8.432 16.5466 8.56673 15.8678C8.70147 15.189 9.03442 14.5653 9.52352 14.0757ZM9.49977 16.5023H9.49969L9.49985 16.5113C9.50362 16.7206 9.53275 16.9287 9.58659 17.131L9.80927 17.9674L10.4226 17.3566L12.8626 14.9266L13.4791 14.3127L12.6382 14.0891C12.432 14.0343 12.2197 14.0051 12.0062 14.0024V14.0023H11.9998C11.3367 14.0023 10.7008 14.2657 10.232 14.7346C9.76316 15.2034 9.49977 15.8393 9.49977 16.5023ZM13.7586 18.2705L13.7587 18.2705L13.7622 18.267C14.2287 17.8033 14.4937 17.1746 14.4997 16.517L14.4999 16.517L14.4997 16.5059C14.497 16.2924 14.4678 16.0801 14.413 15.8739L14.191 15.039L13.5777 15.6473L11.1477 18.0573L10.5287 18.6712L11.3711 18.8955C11.7892 19.0068 12.2289 19.0077 12.6474 18.8982C13.0659 18.7886 13.4488 18.5723 13.7586 18.2705Z" fill="#111111" stroke="#111111"/>
</svg>
