<svg width="24" height="24" viewBox="0 0 24 24" fill="none" xmlns="http://www.w3.org/2000/svg">
<path d="M12.5001 18.5923V19.8061L13.3551 18.9445L14.6437 17.6459C14.6439 17.6457 14.644 17.6455 14.6442 17.6454C14.7387 17.5512 14.8667 17.4982 15.0001 17.4982C15.1338 17.4982 15.262 17.5514 15.3566 17.6459C15.4511 17.7404 15.5042 17.8686 15.5042 18.0023C15.5042 18.136 15.4511 18.2642 15.3566 18.3588L12.3611 21.3543C12.3142 21.3983 12.2593 21.4329 12.1994 21.4562L12.1886 21.4603L12.178 21.465C12.122 21.4898 12.0614 21.5026 12.0001 21.5026C11.9389 21.5026 11.8783 21.4898 11.8223 21.465L11.8117 21.4603L11.8009 21.4562C11.7409 21.4329 11.686 21.3983 11.6392 21.3543L8.64369 18.3588C8.59688 18.312 8.55975 18.2564 8.53441 18.1952C8.50908 18.1341 8.49604 18.0685 8.49604 18.0023C8.49604 17.9361 8.50908 17.8706 8.53441 17.8094C8.55975 17.7483 8.59688 17.6927 8.64369 17.6459C8.6905 17.5991 8.74607 17.5619 8.80723 17.5366C8.86838 17.5113 8.93394 17.4982 9.00013 17.4982C9.06633 17.4982 9.13188 17.5113 9.19304 17.5366C9.25395 17.5618 9.30932 17.5988 9.35601 17.6453C9.3562 17.6455 9.35639 17.6457 9.35658 17.6459L10.6452 18.9445L11.5001 19.8061V18.5923V13.0023C11.5001 12.8697 11.5528 12.7426 11.6466 12.6488C11.7403 12.555 11.8675 12.5023 12.0001 12.5023C12.1327 12.5023 12.2599 12.555 12.3537 12.6488C12.4475 12.7426 12.5001 12.8697 12.5001 13.0023V18.5923ZM17.9617 6.42186L18.054 6.63397L18.2754 6.70093C19.2131 6.98452 20.0327 7.56637 20.6096 8.35812C21.1865 9.14987 21.4894 10.1083 21.472 11.0878C21.4547 12.0673 21.1183 13.0144 20.5137 13.7852C19.9095 14.5557 19.0705 15.108 18.124 15.3585C18.0606 15.3747 17.9947 15.3783 17.9299 15.3691C17.8647 15.3599 17.8019 15.3379 17.7451 15.3044C17.6884 15.2709 17.6388 15.2266 17.5992 15.1739C17.5596 15.1213 17.5308 15.0614 17.5143 14.9975C17.4979 14.9337 17.4942 14.8673 17.5034 14.8021C17.5126 14.7369 17.5346 14.6741 17.5681 14.6173C17.6016 14.5606 17.6459 14.511 17.6985 14.4714C17.7512 14.4318 17.8111 14.403 17.8749 14.3865L17.8749 14.3866L17.883 14.3844C18.6454 14.1742 19.3142 13.7121 19.7803 13.0733C20.2465 12.4345 20.4826 11.6566 20.4501 10.8664C20.4176 10.0763 20.1185 9.32041 19.6015 8.72199C19.0845 8.12357 18.3801 7.71788 17.603 7.57103L17.603 7.57096L17.5946 7.56952C17.5053 7.55423 17.4219 7.51499 17.3532 7.45598C17.2845 7.39698 17.2332 7.32044 17.2046 7.23452L17.2046 7.23451L17.2031 7.23026C16.7814 5.99951 15.937 4.95811 14.8201 4.29107C13.7031 3.62402 12.3858 3.37453 11.1023 3.58692C9.81872 3.7993 8.65201 4.45981 7.80943 5.4511C6.96685 6.44238 6.50295 7.70026 6.50013 9.00126V9.00234C6.50013 9.13494 6.44746 9.26212 6.35369 9.35589C6.25992 9.44966 6.13274 9.50234 6.00013 9.50234C5.33709 9.50234 4.70121 9.76573 4.23237 10.2346C3.76353 10.7034 3.50013 11.3393 3.50013 12.0023C3.50013 12.6654 3.76353 13.3013 4.23237 13.7701C4.70121 14.2389 5.33709 14.5023 6.00013 14.5023C6.13274 14.5023 6.25992 14.555 6.35369 14.6488C6.44746 14.7426 6.50013 14.8697 6.50013 15.0023C6.50013 15.1349 6.44746 15.2621 6.35369 15.3559C6.25992 15.4497 6.13274 15.5023 6.00013 15.5023L5.99908 15.5023C5.14126 15.5041 4.31264 15.1909 3.67059 14.622C3.02854 14.0531 2.61777 13.2682 2.51629 12.4164C2.4148 11.5646 2.62968 10.7052 3.1201 10.0014C3.61053 9.29757 4.34234 8.79837 5.17658 8.59859L5.51151 8.51838L5.55595 8.17686C5.73943 6.76693 6.38014 5.45605 7.3799 4.44509C8.37967 3.43414 9.68334 2.77887 11.0911 2.57972C12.4989 2.38056 13.9332 2.64849 15.1742 3.34246C16.4151 4.03643 17.3943 5.11815 17.9617 6.42186Z" fill="#111111" stroke="#111111"/>
</svg>
