<svg width="24" height="24" viewBox="0 0 24 24" fill="none" xmlns="http://www.w3.org/2000/svg">
<path d="M18.3639 8.24881L17.9615 8.33241C17.3954 7.02906 16.4178 5.94711 15.1784 5.25219C13.9389 4.55727 12.5058 4.28766 11.0986 4.48464C9.69129 4.68161 8.38734 5.33432 7.3863 6.34284C6.38526 7.35137 5.74229 8.66015 5.5558 10.0688L5.51082 10.4087L5.17761 10.4892C4.40971 10.6749 3.72719 11.1148 3.24106 11.7376C2.75493 12.3603 2.49379 13.1292 2.50011 13.9192L2.50013 13.9213C2.50326 14.7472 2.79832 15.5453 3.33314 16.1746C3.85929 16.7937 4.58413 17.2101 5.38306 17.3532H5.50013H5.5201L5.54 17.3548C5.67303 17.3655 5.80484 17.3228 5.90643 17.2363C6.00802 17.1497 6.07108 17.0264 6.08172 16.8934C6.09236 16.7603 6.04972 16.6285 5.96318 16.5269C5.87664 16.4253 5.75329 16.3623 5.62026 16.3516L5.59759 16.3498L5.57518 16.346C4.9882 16.2448 4.45663 15.9373 4.07621 15.479C3.69657 15.0216 3.49235 14.4439 3.50013 13.8496C3.50109 13.1879 3.76438 12.5534 4.23236 12.0855C4.7012 11.6166 5.33709 11.3532 6.00013 11.3532C6.13274 11.3532 6.25991 11.3005 6.35368 11.2068C6.44745 11.113 6.50013 10.9858 6.50013 10.8532V10.8521C6.50294 9.55115 6.96684 8.29327 7.80943 7.30199C8.65201 6.3107 9.81871 5.65019 11.1023 5.43781C12.3858 5.22542 13.7031 5.47491 14.8201 6.14195C15.9369 6.8089 16.7812 7.85011 17.203 9.08064M18.3639 8.24881L18.2751 8.54174C19.1641 8.81113 19.9479 9.34903 20.519 10.0816C21.0901 10.8142 21.4205 11.7055 21.4649 12.6334C21.5093 13.5612 21.2654 14.48 20.7668 15.2638C20.2682 16.0475 19.5393 16.6577 18.6801 17.0107L18.6622 17.0181L18.645 17.0268C18.5831 17.058 18.5154 17.076 18.4462 17.0796C18.377 17.0833 18.3078 17.0725 18.243 17.048C18.1781 17.0235 18.1191 16.9858 18.0697 16.9372C18.0202 16.8887 17.9814 16.8304 17.9556 16.766C17.9299 16.7017 17.9178 16.6327 17.9201 16.5634C17.9225 16.4942 17.9392 16.4261 17.9692 16.3637C17.9993 16.3012 18.042 16.2457 18.0946 16.2006C18.1472 16.1555 18.2087 16.1219 18.275 16.1018L18.2993 16.0944L18.3228 16.0846C19.0195 15.7937 19.6034 15.2852 19.9874 14.6352C20.3715 13.9852 20.535 13.2284 20.4536 12.4778C20.3723 11.7272 20.0504 11.023 19.536 10.4704C19.0216 9.9177 18.3423 9.54619 17.5995 9.41127L17.5995 9.41123L17.5928 9.4101C17.5041 9.39524 17.4211 9.35675 17.3524 9.29867C17.284 9.24072 17.2323 9.16541 17.203 9.08064M18.3639 8.24881L18.3957 8.14383L18.3989 8.13322L16.7301 9.24322M18.3639 8.24881L18.7376 8.17116C19.5942 8.49488 20.3477 9.04859 20.9133 9.77419C21.5479 10.5882 21.915 11.5786 21.9643 12.6095C22.0136 13.6404 21.7427 14.6613 21.1887 15.5322C20.6347 16.403 19.8248 17.081 18.8701 17.4732C18.7464 17.5356 18.611 17.5716 18.4726 17.5789C18.3341 17.5863 18.1957 17.5647 18.0661 17.5157C17.9364 17.4666 17.8184 17.3912 17.7195 17.2941C17.6205 17.197 17.5429 17.0804 17.4914 16.9517C17.4399 16.823 17.4157 16.685 17.4204 16.5465C17.4251 16.408 17.4586 16.2719 17.5186 16.147C17.5787 16.0221 17.6641 15.911 17.7693 15.8209C17.8746 15.7307 17.9975 15.6634 18.1301 15.6232C18.7273 15.3738 19.2278 14.938 19.557 14.3809C19.8861 13.8237 20.0263 13.175 19.9566 12.5317C19.8868 11.8883 19.6109 11.2847 19.17 10.811C18.7291 10.3373 18.1469 10.0189 17.5101 9.90322C17.3328 9.8735 17.1667 9.79651 17.0295 9.68036C16.8922 9.56421 16.7888 9.4132 16.7301 9.24322M17.203 9.08064C17.203 9.08081 17.2031 9.08098 17.2031 9.08114L16.7301 9.24322M17.203 9.08064C17.2029 9.08046 17.2028 9.08028 17.2028 9.0801L16.7301 9.24322M13.298 15.6717L12.8605 16.4232H13.7301H14.5001C14.6327 16.4232 14.7599 16.4759 14.8537 16.5697C14.9474 16.6634 15.0001 16.7906 15.0001 16.9232C15.0001 17.0558 14.9474 17.183 14.8537 17.2768C14.7599 17.3705 14.6327 17.4232 14.5001 17.4232H13.7301H12.8539L13.2997 18.1776L13.6879 18.8345C13.7534 18.9499 13.7708 19.0864 13.7362 19.2145C13.7013 19.3434 13.6168 19.4532 13.501 19.5197C13.3852 19.5862 13.2478 19.6041 13.1189 19.5693C12.99 19.5344 12.8802 19.4498 12.8136 19.3341L12.8134 19.3337L12.4334 18.6737L12.0001 17.9211L11.5668 18.6737L11.1868 19.3337L11.1866 19.3341C11.1201 19.4498 11.0103 19.5344 10.8814 19.5693C10.7525 19.6041 10.615 19.5862 10.4993 19.5197C10.3835 19.4532 10.2989 19.3434 10.2641 19.2145C10.2295 19.0864 10.2469 18.9499 10.3124 18.8345L10.7006 18.1776L11.1464 17.4232H10.2701H9.50013C9.36752 17.4232 9.24034 17.3705 9.14657 17.2768C9.05281 17.183 9.00013 17.0558 9.00013 16.9232C9.00013 16.7906 9.05281 16.6634 9.14657 16.5697C9.24034 16.4759 9.36752 16.4232 9.50013 16.4232H10.2701H11.1397L10.7023 15.6717L10.3136 15.0041C10.3134 15.0037 10.3132 15.0034 10.3131 15.0031C10.247 14.8875 10.2294 14.7505 10.2641 14.622C10.2989 14.4931 10.3835 14.3833 10.4993 14.3167C10.615 14.2502 10.7525 14.2324 10.8814 14.2672C11.0099 14.3019 11.1194 14.3861 11.186 14.5013C11.1862 14.5017 11.1864 14.502 11.1866 14.5024L11.5652 15.1699L12.0001 15.9367L12.435 15.1699L12.8136 14.5024C12.8138 14.502 12.814 14.5017 12.8142 14.5013C12.8808 14.3861 12.9903 14.3019 13.1189 14.2672C13.2478 14.2324 13.3852 14.2502 13.501 14.3167C13.6168 14.3833 13.7013 14.4931 13.7362 14.622C13.7709 14.7505 13.7533 14.8875 13.6872 15.0031C13.687 15.0034 13.6868 15.0037 13.6866 15.0041L13.298 15.6717Z" fill="#111111" stroke="#111111"/>
</svg>
