<svg width="24" height="24" viewBox="0 0 24 24" fill="none" xmlns="http://www.w3.org/2000/svg">
<path d="M14.6437 14.5452L14.6452 14.5437C14.6917 14.4968 14.747 14.4596 14.8079 14.4343C14.8688 14.4089 14.9342 14.3958 15.0002 14.3958C15.0662 14.3958 15.1315 14.4089 15.1925 14.4343C15.2534 14.4596 15.3087 14.4968 15.3552 14.5437L15.3556 14.5441C15.4487 14.6378 15.501 14.7645 15.501 14.8966C15.501 15.0285 15.4489 15.155 15.3561 15.2486C15.3559 15.2488 15.3558 15.2489 15.3556 15.2491L11.3566 19.248L11.3552 19.2495C11.3087 19.2964 11.2534 19.3336 11.1925 19.3589C11.1315 19.3843 11.0662 19.3974 11.0002 19.3974C10.9342 19.3974 10.8688 19.3843 10.8079 19.3589C10.747 19.3336 10.6917 19.2964 10.6452 19.2495L10.6437 19.2481L8.64479 17.2491C8.64464 17.249 8.64448 17.2488 8.64433 17.2486C8.55149 17.155 8.49939 17.0285 8.49939 16.8966C8.49939 16.7645 8.55166 16.6378 8.64479 16.5441L8.64518 16.5437C8.69167 16.4968 8.74697 16.4596 8.8079 16.4343C8.86883 16.4089 8.93418 16.3958 9.00019 16.3958C9.06619 16.3958 9.13154 16.4089 9.19247 16.4343C9.2534 16.4596 9.3087 16.4968 9.35518 16.5437L9.35663 16.5452L10.6466 17.8352L11.0002 18.1887L11.3537 17.8352L14.6437 14.5452ZM5.18059 10.7069L5.51234 10.6246L5.55608 10.2856C5.73804 8.87503 6.37762 7.56309 7.37674 6.55092C8.37587 5.53874 9.6794 4.8822 11.0875 4.68195C12.4955 4.4817 13.9304 4.7488 15.1721 5.44229C16.384 6.11915 17.3466 7.16571 17.9202 8.4278V8.75276L18.2754 8.8602C19.2132 9.14379 20.0327 9.72564 20.6097 10.5174C21.1866 11.3091 21.4894 12.2675 21.4721 13.247C21.4548 14.2265 21.1183 15.1736 20.5138 15.9445C19.9222 16.6988 19.1057 17.244 18.1835 17.5016H18.0002H17.9691L17.9382 17.5055C17.8045 17.5222 17.6697 17.4851 17.5634 17.4024C17.4571 17.3197 17.388 17.1982 17.3713 17.0646C17.3546 16.931 17.3917 16.7962 17.4744 16.6899C17.557 16.5836 17.6786 16.5144 17.8122 16.4977L17.8481 16.4933L17.883 16.4836C18.6454 16.2735 19.3142 15.8114 19.7804 15.1726C20.2466 14.5337 20.4826 13.7559 20.4502 12.9657C20.4177 12.1756 20.1186 11.4197 19.6016 10.8213C19.0845 10.2228 18.3801 9.81715 17.603 9.6703L17.6031 9.6702L17.5928 9.66848C17.5042 9.65362 17.4211 9.61513 17.3525 9.55705C17.284 9.4991 17.2324 9.42378 17.203 9.339C16.7815 8.10936 15.9382 7.06872 14.8225 6.40168C13.7066 5.73455 12.3906 5.48425 11.1077 5.6952C9.82487 5.90615 8.65823 6.56471 7.81477 7.55403C6.97131 8.54335 6.50557 9.79948 6.50019 11.0995H6.50019V11.1016C6.50019 11.2342 6.44751 11.3614 6.35374 11.4552C6.25997 11.5489 6.13279 11.6016 6.00019 11.6016C5.33715 11.6016 4.70126 11.865 4.23242 12.3338C3.76414 12.8021 3.50082 13.437 3.50019 14.0992C3.49574 14.6164 3.65182 15.1223 3.94695 15.5471C4.24254 15.9726 4.663 16.2957 5.15021 16.4718L5.19042 16.4864L5.23251 16.4939C5.30352 16.5065 5.37095 16.5344 5.43018 16.5755C5.4894 16.6167 5.53902 16.6702 5.57563 16.7323C5.61225 16.7945 5.63498 16.8638 5.64227 16.9355C5.64957 17.0073 5.64125 17.0798 5.6179 17.148C5.59455 17.2163 5.5567 17.2786 5.50697 17.3309C5.45724 17.3831 5.39679 17.424 5.32979 17.4506C5.26278 17.4773 5.19079 17.4892 5.11876 17.4854C5.04674 17.4817 4.97638 17.4624 4.91251 17.4289L4.8813 17.4125L4.84809 17.4006C4.13987 17.1481 3.53179 16.6743 3.11388 16.0493C2.69597 15.4242 2.49045 14.6812 2.52775 13.9302C2.56505 13.1793 2.84319 12.4603 3.32099 11.8798C3.79879 11.2992 4.45084 10.888 5.18059 10.7069Z" fill="#111111" stroke="#111111"/>
</svg>
