<svg width="24" height="24" viewBox="0 0 24 24" fill="none" xmlns="http://www.w3.org/2000/svg">
<path d="M6.50013 8.99524V8.99632C6.50013 9.12893 6.44746 9.2561 6.35369 9.34987C6.25992 9.44364 6.13274 9.49632 6.00013 9.49632C5.33709 9.49632 4.70121 9.75971 4.23237 10.2286C3.76353 10.6974 3.50013 11.3333 3.50013 11.9963C3.50013 12.6594 3.76353 13.2952 4.23237 13.7641C4.70121 14.2329 5.33709 14.4963 6.00013 14.4963H9.00013C9.13274 14.4963 9.25992 14.549 9.35369 14.6428C9.44746 14.7365 9.50013 14.8637 9.50013 14.9963C9.50013 15.1289 9.44746 15.2561 9.35369 15.3499C9.25992 15.4436 9.13274 15.4963 9.00013 15.4963L6.00013 15.4963L5.99908 15.4963C5.14126 15.4981 4.31264 15.1848 3.67059 14.6159C3.02854 14.0471 2.61777 13.2622 2.51629 12.4104C2.4148 11.5586 2.62968 10.6992 3.1201 9.99536C3.61053 9.29155 4.34234 8.79235 5.17658 8.59257L5.51201 8.51224L5.55604 8.17015C5.74354 6.71356 6.41879 5.36338 7.47176 4.33962C8.52473 3.31586 9.89337 2.67886 11.3547 2.53241C12.816 2.38596 14.2838 2.73869 15.519 3.53312C16.7539 4.32739 17.6835 5.51637 18.1565 6.90641C18.1988 7.03257 18.1894 7.17038 18.1302 7.2896C18.071 7.40898 17.9668 7.49994 17.8405 7.54248C17.7142 7.58502 17.5762 7.57565 17.4569 7.51643C17.3375 7.45721 17.2465 7.353 17.204 7.22671L17.2031 7.22424C16.7814 5.99349 15.937 4.95209 14.8201 4.28505C13.7031 3.61801 12.3858 3.36852 11.1023 3.5809C9.81872 3.79329 8.65201 4.45379 7.80943 5.44508C6.96685 6.43637 6.50295 7.69425 6.50013 8.99524ZM4.72235 18.5806C4.80457 18.5256 4.90124 18.4963 5.00013 18.4963C5.13274 18.4963 5.25992 18.549 5.35369 18.6428C5.44746 18.7365 5.50013 18.8637 5.50013 18.9963C5.50013 19.0952 5.47081 19.1919 5.41587 19.2741C5.36093 19.3563 5.28284 19.4204 5.19148 19.4583C5.10011 19.4961 4.99958 19.506 4.90259 19.4867C4.8056 19.4674 4.71651 19.4198 4.64658 19.3499C4.57665 19.2799 4.52903 19.1909 4.50974 19.0939C4.49045 18.9969 4.50035 18.8963 4.53819 18.805C4.57604 18.7136 4.64013 18.6355 4.72235 18.5806ZM12.0001 14.4963H19.0001C19.6632 14.4963 20.2991 14.7597 20.7679 15.2286C21.2367 15.6974 21.5001 16.3333 21.5001 16.9963C21.5001 17.6594 21.2367 18.2952 20.7679 18.7641C20.2991 19.2329 19.6632 19.4963 19.0001 19.4963C18.8675 19.4963 18.7403 19.4436 18.6466 19.3499C18.5528 19.2561 18.5001 19.1289 18.5001 18.9963C18.5001 18.8637 18.5528 18.7365 18.6466 18.6428C18.7403 18.549 18.8675 18.4963 19.0001 18.4963C19.398 18.4963 19.7795 18.3383 20.0608 18.057C20.3421 17.7757 20.5001 17.3941 20.5001 16.9963C20.5001 16.5985 20.3421 16.217 20.0608 15.9357C19.7795 15.6544 19.398 15.4963 19.0001 15.4963H12.0001C11.8675 15.4963 11.7403 15.4436 11.6466 15.3499C11.5528 15.2561 11.5001 15.1289 11.5001 14.9963C11.5001 14.8637 11.5528 14.7365 11.6466 14.6428C11.7403 14.549 11.8675 14.4963 12.0001 14.4963ZM14.6466 11.3499C14.5528 11.2561 14.5001 11.1289 14.5001 10.9963C14.5001 10.8637 14.5528 10.7365 14.6466 10.6428C14.7403 10.549 14.8675 10.4963 15.0001 10.4963H19.0001C19.398 10.4963 19.7795 10.3383 20.0608 10.057C20.3421 9.77567 20.5001 9.39414 20.5001 8.99632C20.5001 8.86371 20.5528 8.73653 20.6466 8.64277C20.7403 8.549 20.8675 8.49632 21.0001 8.49632C21.1327 8.49632 21.2599 8.549 21.3537 8.64277C21.4475 8.73653 21.5001 8.86371 21.5001 8.99632C21.5001 9.65936 21.2367 10.2952 20.7679 10.7641C20.2991 11.2329 19.6632 11.4963 19.0001 11.4963H15.0001C14.8675 11.4963 14.7403 11.4436 14.6466 11.3499ZM10.5844 11.2741C10.5295 11.1919 10.5001 11.0952 10.5001 10.9963C10.5001 10.8637 10.5528 10.7365 10.6466 10.6428C10.7403 10.549 10.8675 10.4963 11.0001 10.4963C11.099 10.4963 11.1957 10.5256 11.2779 10.5806C11.3601 10.6355 11.4242 10.7136 11.4621 10.805C11.4999 10.8963 11.5098 10.9969 11.4905 11.0939C11.4712 11.1909 11.4236 11.2799 11.3537 11.3499C11.2838 11.4198 11.1947 11.4674 11.0977 11.4867C11.0007 11.506 10.9002 11.4961 10.8088 11.4583C10.7174 11.4204 10.6393 11.3563 10.5844 11.2741ZM8.64658 18.6428C8.74035 18.549 8.86753 18.4963 9.00013 18.4963H14.0001C14.6632 18.4963 15.2991 18.7597 15.7679 19.2286C16.2367 19.6974 16.5001 20.3333 16.5001 20.9963C16.5001 21.1289 16.4475 21.2561 16.3537 21.3499C16.2599 21.4436 16.1327 21.4963 16.0001 21.4963C15.8675 21.4963 15.7403 21.4436 15.6466 21.3499C15.5528 21.2561 15.5001 21.1289 15.5001 20.9963C15.5001 20.5985 15.3421 20.217 15.0608 19.9357C14.7795 19.6544 14.398 19.4963 14.0001 19.4963H9.00013C8.86753 19.4963 8.74035 19.4436 8.64658 19.3499C8.55281 19.2561 8.50013 19.1289 8.50013 18.9963C8.50013 18.8637 8.55281 18.7365 8.64658 18.6428Z" fill="#111111" stroke="#111111"/>
</svg>
