<svg width="24" height="24" viewBox="0 0 24 24" fill="none" xmlns="http://www.w3.org/2000/svg">
<path d="M18 10.5H17.5V11V12C17.5 13.1935 17.0259 14.3381 16.182 15.182C15.3381 16.0259 14.1935 16.5 13 16.5H9C7.80653 16.5 6.66193 16.0259 5.81802 15.182C4.97411 14.3381 4.5 13.1935 4.5 12V4C4.5 3.86739 4.55268 3.74021 4.64645 3.64645C4.74022 3.55268 4.86739 3.5 5 3.5H17C17.1326 3.5 17.2598 3.55268 17.3536 3.64645C17.4473 3.74021 17.5 3.86739 17.5 4V5V5.5H18H19C19.663 5.5 20.2989 5.76339 20.7678 6.23223C21.2366 6.70107 21.5 7.33696 21.5 8C21.5 8.66304 21.2366 9.29893 20.7678 9.76777C20.2989 10.2366 19.663 10.5 19 10.5H18ZM18 6.5H17.5V7V9V9.5H18H19C19.3978 9.5 19.7794 9.34196 20.0607 9.06066C20.342 8.77936 20.5 8.39782 20.5 8C20.5 7.60218 20.342 7.22064 20.0607 6.93934C19.7794 6.65804 19.3978 6.5 19 6.5H18ZM6 4.5H5.5V5V12C5.5 12.9283 5.86875 13.8185 6.52513 14.4749C7.1815 15.1313 8.07174 15.5 9 15.5H13C13.9283 15.5 14.8185 15.1313 15.4749 14.4749C16.1313 13.8185 16.5 12.9283 16.5 12V5V4.5H16H6ZM3 19.5H21C21.1326 19.5 21.2598 19.5527 21.3536 19.6464C21.4473 19.7402 21.5 19.8674 21.5 20C21.5 20.1326 21.4473 20.2598 21.3536 20.3536C21.2598 20.4473 21.1326 20.5 21 20.5H3C2.86739 20.5 2.74021 20.4473 2.64645 20.3536C2.55268 20.2598 2.5 20.1326 2.5 20C2.5 19.8674 2.55268 19.7402 2.64645 19.6464C2.74021 19.5527 2.86739 19.5 3 19.5Z" fill="#111111" stroke="#111111"/>
</svg>
