<svg width="24" height="24" viewBox="0 0 24 24" fill="none" xmlns="http://www.w3.org/2000/svg">
<path d="M2.49987 12.0019V12C2.49987 9.48044 3.50076 7.06408 5.28235 5.28249C6.16451 4.40033 7.21178 3.70056 8.36437 3.22314C9.51697 2.74572 10.7523 2.5 11.9999 2.5C14.5194 2.5 16.9358 3.50089 18.7174 5.28249C20.499 7.06408 21.4999 9.48044 21.4999 12C21.4999 14.5196 20.499 16.9359 18.7174 18.7175C16.9358 20.4991 14.5194 21.5 11.9999 21.5H2.99987H2.98934L2.97883 21.5004C2.87983 21.5046 2.78183 21.4793 2.69726 21.4276C2.61513 21.3775 2.54928 21.3048 2.50751 21.2182C2.4719 21.1293 2.46257 21.032 2.48071 20.9378C2.49931 20.8412 2.54595 20.7523 2.61478 20.6822C2.61511 20.6819 2.61544 20.6815 2.61577 20.6812L4.61342 18.6836L4.93464 18.3623L4.64561 18.0119C3.25068 16.3205 2.49156 14.1943 2.49987 12.0019ZM11.9999 20.5H12.0003C13.9667 20.4985 15.8718 19.8152 17.3909 18.5665C18.91 17.3179 19.9492 15.5811 20.3315 13.6522C20.7137 11.7233 20.4153 9.72148 19.4871 7.98788C18.5589 6.25429 17.0584 4.89615 15.2411 4.14485C13.4239 3.39354 11.4023 3.29556 9.52093 3.8676C7.63954 4.43963 6.01468 5.64629 4.92319 7.28199C3.8317 8.91769 3.3411 10.8812 3.53499 12.8381C3.72888 14.7949 4.59526 16.624 5.98651 18.0138L5.98992 18.0171C6.08303 18.1084 6.13678 18.2323 6.13983 18.3625C6.13897 18.4271 6.1256 18.4909 6.10045 18.5505C6.0747 18.6114 6.03712 18.6666 5.98987 18.7129L5.98985 18.7129L5.98631 18.7164L5.05631 19.6464L4.20276 20.5H5.40987H11.9999ZM11.6463 10.6464C11.7401 10.5527 11.8673 10.5 11.9999 10.5C12.1325 10.5 12.2597 10.5527 12.3534 10.6464C12.4472 10.7402 12.4999 10.8674 12.4999 11V15C12.4999 15.1326 12.4472 15.2598 12.3534 15.3536C12.2597 15.4473 12.1325 15.5 11.9999 15.5C11.8673 15.5 11.7401 15.4473 11.6463 15.3536C11.5525 15.2598 11.4999 15.1326 11.4999 15V11C11.4999 10.8674 11.5525 10.7402 11.6463 10.6464ZM7.64631 13.6464C7.74008 13.5527 7.86726 13.5 7.99987 13.5C8.13247 13.5 8.25965 13.5527 8.35342 13.6464C8.44719 13.7402 8.49987 13.8674 8.49987 14V15C8.49987 15.1326 8.44719 15.2598 8.35342 15.3536C8.25965 15.4473 8.13247 15.5 7.99987 15.5C7.86726 15.5 7.74008 15.4473 7.64631 15.3536C7.55254 15.2598 7.49987 15.1326 7.49987 15V14C7.49987 13.8674 7.55254 13.7402 7.64631 13.6464ZM15.6463 8.64645C15.7401 8.55268 15.8673 8.5 15.9999 8.5C16.1325 8.5 16.2597 8.55268 16.3534 8.64645C16.4472 8.74021 16.4999 8.86739 16.4999 9V15C16.4999 15.1326 16.4472 15.2598 16.3534 15.3536C16.2597 15.4473 16.1325 15.5 15.9999 15.5C15.8673 15.5 15.7401 15.4473 15.6463 15.3536C15.5525 15.2598 15.4999 15.1326 15.4999 15V9C15.4999 8.86739 15.5525 8.74022 15.6463 8.64645Z" fill="#111111" stroke="#111111"/>
</svg>
