<svg width="24" height="24" viewBox="0 0 24 24" fill="none" xmlns="http://www.w3.org/2000/svg">
<path d="M5.18723 3.45685L5.18723 3.45685L5.1862 3.45728C5.09515 3.49557 4.99479 3.50603 4.89779 3.48734C4.80513 3.46949 4.71949 3.42579 4.65072 3.36143C4.60511 3.309 4.56817 3.24957 4.54135 3.1854L4.54137 3.18539L4.53998 3.18214C4.51457 3.12251 4.50099 3.05852 4.5 2.99372C4.49983 2.92845 4.51244 2.86377 4.53712 2.80334C4.56119 2.74442 4.59627 2.69066 4.64048 2.64492C4.68701 2.60152 4.74141 2.56739 4.80077 2.54437L4.80084 2.54456L4.81383 2.53909C4.90489 2.5008 5.00524 2.49034 5.10224 2.50903C5.19835 2.52755 5.2869 2.57386 5.35691 2.64221C5.40236 2.68853 5.43837 2.74325 5.46291 2.80334C5.48779 2.86426 5.50041 2.92949 5.50003 2.9953L5.49998 3.00318L5.50018 3.01107C5.50155 3.06416 5.49046 3.11684 5.4678 3.16488L5.46301 3.17503L5.45868 3.1854C5.43313 3.24653 5.39841 3.30335 5.35575 3.35392C5.30518 3.39658 5.24836 3.4313 5.18723 3.45685ZM17.6608 19.0855L18.5 19.8606V18.7182V8.99819C18.5 8.60036 18.342 8.21883 18.0607 7.93753C17.7794 7.65622 17.3978 7.49819 17 7.49819H9.00002C8.86741 7.49819 8.74023 7.44551 8.64646 7.35174C8.5527 7.25797 8.50002 7.13079 8.50002 6.99819C8.50002 6.86558 8.5527 6.7384 8.64646 6.64463C8.74023 6.55086 8.86741 6.49819 9.00002 6.49819H17C17.6631 6.49819 18.2989 6.76158 18.7678 7.23042C19.2366 7.69926 19.5 8.33515 19.5 8.99819L19.5 20.9982L19.5 20.9999C19.5004 21.0975 19.4721 21.1931 19.4188 21.2748C19.3668 21.3547 19.293 21.4179 19.2062 21.4572C19.1431 21.4818 19.0764 21.4956 19.0087 21.4979C18.8943 21.4897 18.7861 21.4424 18.7023 21.3637L18.7023 21.3636L18.6965 21.3584L15.6965 18.6284L15.5535 18.4982H15.36H7.00002C6.33698 18.4982 5.70109 18.2348 5.23225 17.766C4.76341 17.2971 4.50002 16.6612 4.50002 15.9982V13.9982C4.50002 13.8656 4.5527 13.7384 4.64646 13.6446C4.74023 13.5509 4.86741 13.4982 5.00002 13.4982C5.13262 13.4982 5.2598 13.5509 5.35357 13.6446C5.44734 13.7384 5.50002 13.8656 5.50002 13.9982V15.9982C5.50002 16.396 5.65805 16.7775 5.93936 17.0588C6.22066 17.3402 6.60219 17.4982 7.00002 17.4982H15.749C15.8751 17.4988 15.9962 17.547 16.0883 17.6332L16.0908 17.6355L17.6608 19.0855ZM5.35357 10.3517C5.2598 10.4455 5.13262 10.4982 5.00002 10.4982C4.86741 10.4982 4.74023 10.4455 4.64646 10.3517C4.55269 10.258 4.50002 10.1308 4.50002 9.99819V5.99819C4.50002 5.86558 4.5527 5.7384 4.64646 5.64463C4.74023 5.55086 4.86741 5.49819 5.00002 5.49819C5.13262 5.49819 5.2598 5.55086 5.35357 5.64463C5.44734 5.7384 5.50002 5.86558 5.50002 5.99819V9.99819C5.50002 10.1308 5.44734 10.258 5.35357 10.3517Z" fill="#111111" stroke="#111111"/>
</svg>
