<svg width="24" height="24" viewBox="0 0 24 24" fill="none" xmlns="http://www.w3.org/2000/svg">
<path d="M6.41663 8.79273L6.41663 8.79272L6.41519 8.79418C6.3687 8.84104 6.3134 8.87824 6.25247 8.90362C6.19155 8.92901 6.12619 8.94208 6.06019 8.94208C5.99418 8.94208 5.92883 8.92901 5.8679 8.90362C5.80697 8.87824 5.75167 8.84104 5.70519 8.79418L5.70374 8.79273L3.14374 6.23273L2.79317 6.58329L3.14374 6.23273C3.0492 6.13819 2.99609 6.00997 2.99609 5.87628C2.99609 5.74259 3.0492 5.61437 3.14374 5.51983C3.23827 5.4253 3.36649 5.37219 3.50019 5.37219C3.63388 5.37219 3.7621 5.4253 3.85663 5.51983L3.85663 5.51984L3.85856 5.52175L5.70856 7.35175L6.06135 7.70073L6.41299 7.35058L11.143 2.64058L11.1437 2.63983C11.2383 2.5453 11.3665 2.49219 11.5002 2.49219C11.5664 2.49219 11.6319 2.50523 11.6931 2.53056C11.7543 2.55589 11.8098 2.59302 11.8566 2.63983C11.9034 2.68664 11.9406 2.74221 11.9659 2.80337C11.9912 2.86453 12.0043 2.93008 12.0043 2.99628C12.0043 3.06248 11.9912 3.12803 11.9659 3.18919C11.9406 3.25035 11.9034 3.30592 11.8566 3.35273L12.1971 3.69318L11.8566 3.35273L6.41663 8.79273ZM18.5002 6.49632L18.5069 6.49623C18.8379 6.49182 19.1666 6.55322 19.4738 6.67688C19.781 6.80054 20.0605 6.98399 20.2962 7.21658C20.5319 7.44916 20.719 7.72626 20.8467 8.03176C20.9745 8.33727 21.0402 8.66511 21.0402 8.99623V8.99628L21.0402 20.9963L21.0402 20.998C21.0405 21.0956 21.0123 21.1912 20.959 21.2729C20.9069 21.3527 20.8331 21.416 20.7464 21.4553C20.68 21.4812 20.6096 21.495 20.5384 21.4963C20.4133 21.4949 20.2933 21.4468 20.2019 21.3613L20.2019 21.3612L20.1967 21.3565L17.1967 18.6265L17.0536 18.4963H16.8602H8.50019C7.83714 18.4963 7.20126 18.2329 6.73242 17.764C6.26358 17.2952 6.00019 16.6593 6.00019 15.9963V12.4963C6.00019 12.3637 6.05286 12.2365 6.14663 12.1427C6.2404 12.049 6.36758 11.9963 6.50019 11.9963C6.63279 11.9963 6.75997 12.049 6.85374 12.1427C6.94751 12.2365 7.00019 12.3637 7.00019 12.4963V15.9963C7.00019 16.3941 7.15822 16.7756 7.43953 17.0569C7.72083 17.3382 8.10236 17.4963 8.50019 17.4963H17.2491C17.3752 17.4969 17.4964 17.5451 17.5885 17.6313L17.5909 17.6336L19.1609 19.0836L20.0002 19.8587V18.7163V8.99628C20.0002 8.59846 19.8422 8.21692 19.5608 7.93562C19.2795 7.65431 18.898 7.49628 18.5002 7.49628H13.0002C12.8676 7.49628 12.7404 7.4436 12.6466 7.34983C12.5529 7.25606 12.5002 7.12889 12.5002 6.99628C12.5002 6.86367 12.5529 6.73649 12.6466 6.64273C12.7404 6.54896 12.8676 6.49628 13.0002 6.49628H18.5002V6.49632Z" fill="#111111" stroke="#111111"/>
</svg>
