<svg width="24" height="24" viewBox="0 0 24 24" fill="none" xmlns="http://www.w3.org/2000/svg">
<path d="M10.0564 11.9436L10.41 12.2971L10.7636 11.9436L16.0625 6.6446C16.0627 6.64445 16.0628 6.6443 16.063 6.64415C16.1566 6.55131 16.2831 6.49921 16.415 6.49921C16.5471 6.49921 16.6738 6.55148 16.7675 6.6446L16.7679 6.645C16.8148 6.69148 16.852 6.74678 16.8773 6.80771C16.9027 6.86864 16.9158 6.93399 16.9158 7C16.9158 7.06601 16.9027 7.13136 16.8773 7.19229C16.852 7.25322 16.8148 7.30852 16.7679 7.355L16.7664 7.35645L10.7679 13.355C10.7677 13.3552 10.7674 13.3554 10.7672 13.3557C10.7206 13.4017 10.6655 13.4381 10.6048 13.4629C10.5439 13.4878 10.4787 13.5004 10.4129 13.5L10.4121 13.5C10.2812 13.4995 10.1558 13.4476 10.0628 13.3557C10.0625 13.3554 10.0623 13.3552 10.0621 13.355L7.23355 10.5264L7.2199 10.5128L7.20523 10.5002C7.15289 10.4554 7.11038 10.4002 7.08037 10.3382C7.05035 10.2762 7.03349 10.2086 7.03083 10.1398C7.02817 10.0709 7.03977 10.0022 7.06491 9.93807C7.09005 9.8739 7.12818 9.81563 7.1769 9.7669C7.22563 9.71818 7.28391 9.68005 7.34807 9.65491C7.41223 9.62977 7.4809 9.61817 7.54975 9.62083C7.61862 9.62349 7.68618 9.64035 7.74821 9.67037C7.81024 9.70038 7.8654 9.74289 7.91023 9.79523L7.92279 9.8099L7.93645 9.82355L10.0564 11.9436ZM16.944 17.6469L16.7975 17.5H16.59H5C4.33696 17.5 3.70107 17.2366 3.23223 16.7678C2.76339 16.2989 2.5 15.663 2.5 15V5C2.5 4.33696 2.76339 3.70107 3.23223 3.23223C3.70107 2.76339 4.33696 2.5 5 2.5H19C19.663 2.5 20.2989 2.76339 20.7678 3.23223C21.2366 3.70107 21.5 4.33696 21.5 5V20.9985C21.4993 21.0968 21.4696 21.1928 21.4146 21.2744C21.3595 21.3563 21.2813 21.42 21.19 21.4575L21.1782 21.4623L21.1667 21.4678C21.1187 21.4904 21.066 21.5015 21.0129 21.5002L21.005 21.5L20.9971 21.5C20.9313 21.5004 20.8661 21.4878 20.8052 21.4629C20.7447 21.4382 20.6896 21.4018 20.6431 21.3559C20.6427 21.3556 20.6424 21.3553 20.6421 21.355L16.944 17.6469ZM19.6457 18.9428L20.5 19.8008V18.59V5C20.5 4.60218 20.342 4.22065 20.0607 3.93934C19.7794 3.65804 19.3978 3.5 19 3.5H5C4.60217 3.5 4.22064 3.65804 3.93934 3.93934C3.65804 4.22064 3.5 4.60217 3.5 5V15C3.5 15.3978 3.65804 15.7794 3.93934 16.0607C4.22064 16.342 4.60217 16.5 5 16.5L17 16.5L17.0029 16.5C17.0687 16.4996 17.1339 16.5122 17.1948 16.5371C17.2554 16.5618 17.3105 16.5982 17.357 16.6441C17.3573 16.6444 17.3576 16.6447 17.3579 16.645L19.6457 18.9428Z" fill="#111111" stroke="#111111"/>
</svg>
