<svg width="24" height="24" viewBox="0 0 24 24" fill="none" xmlns="http://www.w3.org/2000/svg">
<path d="M2.49987 12.0019V12C2.49987 9.48044 3.50076 7.06408 5.28235 5.28249C6.16451 4.40033 7.21178 3.70056 8.36437 3.22314C9.51697 2.74572 10.7523 2.5 11.9999 2.5C14.5194 2.5 16.9358 3.50089 18.7174 5.28249C20.499 7.06408 21.4999 9.48044 21.4999 12C21.4999 14.5196 20.499 16.9359 18.7174 18.7175C16.9358 20.4991 14.5194 21.5 11.9999 21.5H2.99987H2.98934L2.97883 21.5004C2.87983 21.5046 2.78183 21.4793 2.69726 21.4276C2.61513 21.3775 2.54928 21.3048 2.50751 21.2182C2.4719 21.1293 2.46257 21.032 2.48071 20.9378C2.49931 20.8412 2.54595 20.7523 2.61478 20.6822C2.61511 20.6819 2.61544 20.6815 2.61577 20.6812L4.61342 18.6836L4.93464 18.3623L4.64561 18.0119C3.25068 16.3205 2.49156 14.1943 2.49987 12.0019ZM11.9999 20.5H12.0003C13.9667 20.4985 15.8718 19.8152 17.3909 18.5665C18.91 17.3179 19.9492 15.5811 20.3315 13.6522C20.7137 11.7233 20.4153 9.72148 19.4871 7.98788C18.5589 6.25429 17.0584 4.89615 15.2411 4.14485C13.4239 3.39354 11.4023 3.29556 9.52093 3.8676C7.63954 4.43963 6.01468 5.64629 4.92319 7.28199C3.8317 8.91769 3.3411 10.8812 3.53499 12.8381C3.72888 14.7949 4.59526 16.624 5.98651 18.0138L5.98992 18.0171C6.08303 18.1084 6.13678 18.2323 6.13983 18.3625C6.13897 18.4271 6.1256 18.4909 6.10045 18.5505C6.0747 18.6114 6.03712 18.6666 5.98987 18.7129L5.98985 18.7129L5.98631 18.7164L5.05631 19.6464L4.20276 20.5H5.40987H11.9999ZM7.72208 11.5843C7.80431 11.5293 7.90098 11.5 7.99987 11.5C8.13247 11.5 8.25965 11.5527 8.35342 11.6464C8.44719 11.7402 8.49987 11.8674 8.49987 12C8.49987 12.0989 8.47054 12.1956 8.4156 12.2778C8.36066 12.36 8.28257 12.4241 8.19121 12.4619C8.09984 12.4998 7.99931 12.5097 7.90232 12.4904C7.80533 12.4711 7.71624 12.4235 7.64631 12.3536C7.57639 12.2836 7.52877 12.1945 7.50947 12.0975C7.49018 12.0006 7.50008 11.9 7.53793 11.8087C7.57577 11.7173 7.63986 11.6392 7.72208 11.5843ZM11.7221 11.5843C11.8043 11.5293 11.901 11.5 11.9999 11.5C12.1325 11.5 12.2597 11.5527 12.3534 11.6464C12.4472 11.7402 12.4999 11.8674 12.4999 12C12.4999 12.0989 12.4705 12.1956 12.4156 12.2778C12.3607 12.36 12.2826 12.4241 12.1912 12.4619C12.0998 12.4998 11.9993 12.5097 11.9023 12.4904C11.8053 12.4711 11.7162 12.4235 11.6463 12.3536C11.5764 12.2836 11.5288 12.1945 11.5095 12.0975C11.4902 12.0006 11.5001 11.9 11.5379 11.8087C11.5758 11.7173 11.6399 11.6392 11.7221 11.5843ZM15.7221 11.5843C15.8043 11.5293 15.901 11.5 15.9999 11.5C16.1325 11.5 16.2597 11.5527 16.3534 11.6464C16.4472 11.7402 16.4999 11.8674 16.4999 12C16.4999 12.0989 16.4705 12.1956 16.4156 12.2778C16.3607 12.36 16.2826 12.4241 16.1912 12.4619C16.0998 12.4998 15.9993 12.5097 15.9023 12.4904C15.8053 12.4711 15.7162 12.4235 15.6463 12.3536C15.5764 12.2836 15.5288 12.1945 15.5095 12.0975C15.4902 12.0006 15.5001 11.9 15.5379 11.8087C15.5758 11.7173 15.6399 11.6392 15.7221 11.5843Z" fill="#111111" stroke="#111111"/>
</svg>
