<svg width="24" height="24" viewBox="0 0 24 24" fill="none" xmlns="http://www.w3.org/2000/svg">
<path d="M19.9507 19.24L20.2094 18.8933C20.7913 18.1132 21.1906 17.2125 21.3779 16.2574C21.5652 15.3024 21.5357 14.3176 21.2915 13.3755C21.0473 12.4334 20.5946 11.5582 19.967 10.8145C19.3393 10.0707 18.5527 9.47738 17.6651 9.07827L17.423 8.96941L17.3775 8.70787C17.1823 7.58484 16.7337 6.52108 16.0658 5.59741C15.3978 4.67374 14.5282 3.91446 13.5228 3.37727C12.5175 2.84009 11.4029 2.53912 10.2638 2.49725C9.1247 2.45538 7.99105 2.67369 6.94897 3.13562C5.90689 3.59754 4.98381 4.29091 4.24987 5.16305C3.51592 6.03518 2.99043 7.06314 2.71331 8.16881C2.43618 9.27447 2.41473 10.4288 2.65057 11.544C2.88641 12.6592 3.37335 13.7059 4.07437 14.6047L4.34719 14.9545L4.03239 15.2671L2.64455 16.6449C2.57598 16.715 2.52951 16.8037 2.51096 16.9C2.49227 16.997 2.50273 17.0974 2.54102 17.1884L2.54262 17.1922L2.54261 17.1923C2.58012 17.2836 2.64382 17.3617 2.72568 17.4169C2.80723 17.4719 2.90318 17.5015 3.00151 17.5023H8.69011H9.00634L9.14187 17.788C9.66804 18.8972 10.4976 19.8348 11.5346 20.4921C12.5713 21.1493 13.7728 21.4995 15.0003 21.5023C15.0006 21.5023 15.0009 21.5023 15.0012 21.5023L20.9986 21.5023M19.9507 19.24L21.0001 22.0023M19.9507 19.24L20.2566 19.5458L21.3542 20.6434M19.9507 19.24L21.3542 20.6434M20.9986 21.5023H21.0001V22.0023M20.9986 21.5023C20.9983 21.5023 20.9979 21.5023 20.9976 21.5023L21.0001 22.0023M20.9986 21.5023C21.097 21.5016 21.193 21.4719 21.2745 21.4169C21.3564 21.3617 21.4201 21.2836 21.4576 21.1923L21.4592 21.1884C21.4975 21.0974 21.508 20.997 21.4893 20.9C21.4707 20.8035 21.4241 20.7146 21.3552 20.6445L21.3566 20.6458L21.7101 20.2923M21.0001 22.0023C21.1975 22.0013 21.3903 21.9419 21.554 21.8315C21.7177 21.7212 21.8451 21.5649 21.9201 21.3822C21.9967 21.2001 22.0176 20.9994 21.9802 20.8054C21.9429 20.6114 21.8489 20.4329 21.7101 20.2923M21.7101 20.2923L21.3542 20.6434M21.7101 20.2923L20.6101 19.1923M20.6101 19.1923C21.2368 18.3522 21.6669 17.3821 21.8686 16.3537C22.0703 15.3252 22.0385 14.2646 21.7755 13.25C21.5125 12.2355 21.025 11.293 20.3491 10.492C19.6732 9.69103 18.826 9.05206 17.8701 8.62225C17.6619 7.42435 17.1834 6.28967 16.4709 5.30442C15.7585 4.31917 14.8308 3.50928 13.7585 2.93628C12.6861 2.36328 11.4972 2.04225 10.2822 1.99759C9.06713 1.95292 7.8579 2.18579 6.74635 2.67851C5.6348 3.17123 4.65018 3.91082 3.86731 4.8411C3.08443 5.77138 2.5239 6.86787 2.22831 8.04725C1.93271 9.22662 1.90982 10.4579 2.16139 11.6474C2.41295 12.837 2.93235 13.9535 3.68011 14.9123L20.6101 19.1923ZM20.6101 19.1923L21.3542 20.6434M5.76011 14.2423L5.40852 14.5977C4.80082 13.9967 4.31905 13.2806 3.99137 12.4912C3.66382 11.7021 3.49682 10.8556 3.50011 10.0012C3.50038 8.2777 4.18517 6.62481 5.40392 5.40606C6.62255 4.18742 8.27524 3.50265 9.99861 3.50225C9.99911 3.50225 9.99961 3.50225 10.0001 3.50225V4.00225C11.2418 3.99479 12.4546 4.37664 13.468 5.09411C14.3346 5.7076 15.0181 6.54011 15.4516 7.50225L5.76011 14.2423ZM5.76011 14.2423L5.40801 14.5972C5.45488 14.6437 5.49207 14.699 5.51746 14.76C5.54284 14.8209 5.55591 14.8862 5.55591 14.9523C5.55591 15.0183 5.54284 15.0836 5.51746 15.1445C5.49235 15.2048 5.45569 15.2596 5.40954 15.3057L4.00011 10.0023C3.99695 10.7905 4.15097 11.5715 4.45317 12.2995C4.75536 13.0275 5.19967 13.688 5.76011 14.2423ZM18.8937 19.6487L18.8937 19.6487L18.8901 19.6452C18.8429 19.5989 18.8053 19.5436 18.7795 19.4827C18.7544 19.4232 18.741 19.3593 18.7401 19.2947C18.7432 19.1645 18.797 19.0406 18.8901 18.9494L18.8901 18.9494L18.8932 18.9463C19.794 18.0477 20.3554 16.8647 20.4818 15.5986C20.6082 14.3326 20.2918 13.0619 19.5864 12.003C18.881 10.9441 17.8303 10.1625 16.6133 9.79142C15.3963 9.42031 14.0883 9.48261 12.912 9.96772C11.7358 10.4528 10.7642 11.3307 10.1626 12.4519C9.56105 13.573 9.3668 14.868 9.61296 16.1163C9.85911 17.3646 10.5304 18.489 11.5126 19.2978C12.4947 20.1067 13.7269 20.55 14.9992 20.5522H15.0001H18.5901H19.7972L18.9437 19.6987L18.8937 19.6487Z" fill="#111111" stroke="#111111"/>
</svg>
