<svg width="24" height="24" viewBox="0 0 24 24" fill="none" xmlns="http://www.w3.org/2000/svg">
<path d="M18.6691 16.5627L18.6721 16.5644C18.7294 16.597 18.7797 16.6407 18.82 16.6929C18.8604 16.7451 18.89 16.8047 18.9072 16.8684C18.9244 16.932 18.9288 16.9985 18.9202 17.0639C18.9116 17.1293 18.8902 17.1923 18.8571 17.2494L18.8567 17.25C18.1111 18.5416 17.0387 19.6142 15.7473 20.3602C14.4559 21.1062 12.9911 21.4993 11.4998 21.5C11.4997 21.5 11.4996 21.5 11.4995 21.5H3.50129C3.40291 21.4993 3.30692 21.4696 3.22532 21.4146C3.14346 21.3595 3.07976 21.2813 3.04225 21.19L3.04227 21.19L3.04066 21.1862C3.00237 21.0951 2.99191 20.9948 3.0106 20.8978C3.02916 20.8014 3.07566 20.7127 3.14428 20.6426C3.14474 20.6421 3.1452 20.6417 3.14566 20.6412L4.82225 18.9746L5.14132 18.6574L4.85948 18.3068C3.91109 17.1268 3.29506 15.7148 3.07508 14.217C2.8551 12.7192 3.03914 11.1898 3.60819 9.7869C4.17724 8.38401 5.11064 7.15857 6.31191 6.23723C7.51289 5.31611 8.93803 4.73238 10.4401 4.54635C10.506 4.53854 10.5727 4.54374 10.6366 4.56165C10.7008 4.57962 10.7607 4.61005 10.8131 4.6512C10.8655 4.69235 10.9092 4.74341 10.9419 4.80147C10.9745 4.85953 10.9954 4.92344 11.0033 4.98957C11.0113 5.0557 11.0061 5.12275 10.9881 5.18688C10.9701 5.25101 10.9397 5.31097 10.8986 5.36334C10.8574 5.41571 10.8063 5.45947 10.7483 5.49211C10.6902 5.52474 10.6263 5.54563 10.5602 5.55356L10.5579 5.55384C9.16266 5.72773 7.84438 6.29033 6.75351 7.17745C5.66263 8.06457 4.8431 9.24048 4.38843 10.571C3.93375 11.9015 3.86225 13.333 4.18207 14.7022C4.50176 16.0708 5.19958 17.3221 6.19595 18.3133C6.28858 18.4069 6.34055 18.5333 6.34055 18.665C6.34055 18.7964 6.28886 18.9224 6.19672 19.0159C6.1962 19.0164 6.19568 19.017 6.19515 19.0175L5.559 19.6437L4.68908 20.5H5.90976H11.4998H11.5006C12.8149 20.4977 14.1056 20.1501 15.2432 19.4919C16.3809 18.8338 17.3256 17.8882 17.9828 16.75L17.9841 16.7476C18.0168 16.6904 18.0605 16.6401 18.1126 16.5997C18.1648 16.5594 18.2244 16.5298 18.2881 16.5126C18.3518 16.4954 18.4182 16.491 18.4836 16.4995C18.549 16.5081 18.6121 16.5296 18.6691 16.5627ZM18.9998 6.18V6.53356L19.3331 6.6514C19.8194 6.82333 20.2406 7.14146 20.539 7.56218C20.8372 7.98273 20.9982 8.4852 20.9998 9.00076C20.9998 9.00097 20.9998 9.00119 20.9998 9.00141L20.9998 11C20.9998 11.663 20.7364 12.2989 20.2675 12.7678C19.7987 13.2366 19.1628 13.5 18.4998 13.5H14.4998C13.8367 13.5 13.2008 13.2366 12.732 12.7678C12.2631 12.2989 11.9998 11.663 11.9998 11V9.00076C12.0013 8.4852 12.1623 7.98273 12.4605 7.56218C12.7589 7.14146 13.1801 6.82333 13.6664 6.6514L13.9998 6.53356V6.18V5C13.9998 4.33696 14.2631 3.70107 14.732 3.23223C15.2008 2.76339 15.8367 2.5 16.4998 2.5C17.1628 2.5 17.7987 2.76339 18.2675 3.23223C18.7364 3.70107 18.9998 4.33696 18.9998 5V6.18ZM17.4998 6.5H17.9998V6V5C17.9998 4.60218 17.8417 4.22065 17.5604 3.93934C17.2791 3.65804 16.8976 3.5 16.4998 3.5C16.1019 3.5 15.7204 3.65804 15.4391 3.93934C15.1578 4.22064 14.9998 4.60217 14.9998 5V6V6.5H15.4998H17.4998ZM19.5604 12.0607C19.8417 11.7794 19.9998 11.3978 19.9998 11V9C19.9998 8.60218 19.8417 8.22064 19.5604 7.93934C19.2791 7.65804 18.8976 7.5 18.4998 7.5H14.4998C14.1019 7.5 13.7204 7.65804 13.4391 7.93934C13.1578 8.22064 12.9998 8.60218 12.9998 9V11C12.9998 11.3978 13.1578 11.7794 13.4391 12.0607C13.7204 12.342 14.1019 12.5 14.4998 12.5H18.4998C18.8976 12.5 19.2791 12.342 19.5604 12.0607Z" fill="#111111" stroke="#111111"/>
</svg>
