<svg width="24" height="24" viewBox="0 0 24 24" fill="none" xmlns="http://www.w3.org/2000/svg">
<path d="M2.49987 12.0019V12C2.49987 9.48044 3.50076 7.06408 5.28235 5.28249C6.16451 4.40033 7.21178 3.70056 8.36437 3.22314C9.51697 2.74572 10.7523 2.5 11.9999 2.5C14.5194 2.5 16.9358 3.50089 18.7174 5.28249C20.499 7.06408 21.4999 9.48044 21.4999 12C21.4999 14.5196 20.499 16.9359 18.7174 18.7175C16.9358 20.4991 14.5194 21.5 11.9999 21.5H2.99987H2.98934L2.97883 21.5004C2.87983 21.5046 2.78183 21.4793 2.69726 21.4276C2.61513 21.3775 2.54928 21.3048 2.50751 21.2182C2.4719 21.1293 2.46257 21.032 2.48071 20.9378C2.49931 20.8412 2.54595 20.7523 2.61478 20.6822C2.61511 20.6819 2.61544 20.6815 2.61577 20.6812L4.61342 18.6836L4.93464 18.3623L4.64561 18.0119C3.25068 16.3205 2.49156 14.1943 2.49987 12.0019ZM11.9023 9.49039L11.8048 9.98079L11.9023 9.49039C11.8053 9.4711 11.7162 9.42348 11.6463 9.35355C11.5764 9.28363 11.5288 9.19454 11.5095 9.09754C11.4902 9.00056 11.5001 8.90002 11.5379 8.80866C11.5758 8.7173 11.6399 8.63921 11.7221 8.58426C11.8043 8.52932 11.901 8.5 11.9999 8.5C12.1325 8.5 12.2597 8.55268 12.3534 8.64645C12.4472 8.74022 12.4999 8.86739 12.4999 9C12.4999 9.09889 12.4705 9.19556 12.4156 9.27779C12.3607 9.36001 12.2826 9.4241 12.1912 9.46194C12.0998 9.49978 11.9993 9.50969 11.9023 9.49039ZM11.9999 20.5H12.0003C13.9667 20.4985 15.8718 19.8152 17.3909 18.5665C18.91 17.3179 19.9492 15.5811 20.3315 13.6522C20.7137 11.7233 20.4153 9.72148 19.4871 7.98788C18.5589 6.25429 17.0584 4.89615 15.2411 4.14485C13.4239 3.39354 11.4023 3.29556 9.52093 3.8676C7.63954 4.43963 6.01468 5.64629 4.92319 7.28199C3.8317 8.91769 3.3411 10.8812 3.53499 12.8381C3.72888 14.7949 4.59526 16.624 5.98651 18.0138L5.98992 18.0171C6.08303 18.1084 6.13678 18.2323 6.13983 18.3625C6.13897 18.4271 6.1256 18.4909 6.10045 18.5505C6.0747 18.6114 6.03712 18.6666 5.98987 18.7129L5.98985 18.7129L5.98631 18.7164L5.05631 19.6464L4.20276 20.5H5.40987H11.9999ZM11.4999 12C11.4999 11.8674 11.5525 11.7402 11.6463 11.6464C11.7401 11.5527 11.8673 11.5 11.9999 11.5C12.1325 11.5 12.2597 11.5527 12.3534 11.6464C12.4472 11.7402 12.4999 11.8674 12.4999 12V15C12.4999 15.1326 12.4472 15.2598 12.3534 15.3536C12.2597 15.4473 12.1325 15.5 11.9999 15.5C11.8673 15.5 11.7401 15.4473 11.6463 15.3536C11.5525 15.2598 11.4999 15.1326 11.4999 15V12Z" fill="#111111" stroke="#111111"/>
</svg>
