<svg width="24" height="24" viewBox="0 0 24 24" fill="none" xmlns="http://www.w3.org/2000/svg">
<path d="M19.6606 19.0873L20.4999 19.8624V18.72V8.99999C20.4999 8.60217 20.3418 8.22064 20.0605 7.93933C19.7792 7.65803 19.3977 7.49999 18.9999 7.49999H14.9999C14.8673 7.49999 14.7401 7.44731 14.6463 7.35355C14.5525 7.25978 14.4999 7.1326 14.4999 6.99999C14.4999 6.86739 14.5525 6.74021 14.6463 6.64644C14.7401 6.55267 14.8673 6.49999 14.9999 6.49999H18.9999C19.6629 6.49999 20.2988 6.76339 20.7676 7.23223C21.2365 7.70107 21.4999 8.33695 21.4999 8.99999L21.4999 21L21.4999 21.0017C21.5002 21.0993 21.472 21.1949 21.4187 21.2766C21.3666 21.3565 21.2928 21.4197 21.206 21.459C21.143 21.4836 21.0762 21.4974 21.0086 21.4997C20.8942 21.4915 20.7859 21.4442 20.7021 21.3655L20.7022 21.3654L20.6964 21.3602L17.6964 18.6302L17.5533 18.5H17.3599H8.99987C8.33683 18.5 7.70094 18.2366 7.2321 17.7678C6.76326 17.2989 6.49987 16.663 6.49987 16V15C6.49987 14.8674 6.55255 14.7402 6.64631 14.6464C6.74008 14.5527 6.86726 14.5 6.99987 14.5C7.13247 14.5 7.25965 14.5527 7.35342 14.6464C7.44719 14.7402 7.49987 14.8674 7.49987 15V16C7.49987 16.3978 7.6579 16.7794 7.93921 17.0607C8.22051 17.342 8.60204 17.5 8.99987 17.5H17.7488C17.8749 17.5006 17.9961 17.5488 18.0881 17.635L18.0906 17.6373L19.6606 19.0873ZM7.00452 3.50002L7.00452 3.49999H6.99987C6.07161 3.49999 5.18137 3.86874 4.52499 4.52512C3.86928 5.18083 3.50062 6.06992 3.49987 6.99716C3.49436 7.51982 3.60599 8.03709 3.82657 8.51099L4.12812 9.15885L4.63342 8.65355L8.63342 4.65355L9.13048 4.15649L8.49786 3.85002C8.03208 3.62437 7.52206 3.50483 7.00452 3.50002ZM10.1499 5.49203L9.843 4.85851L9.34587 5.35688L5.36587 9.34688L4.86464 9.84937L5.50653 10.1522C6.03879 10.4033 6.62579 10.5161 7.21322 10.4803C7.80065 10.4444 8.36955 10.261 8.86731 9.94698C9.36507 9.63297 9.77561 9.19852 10.061 8.6838C10.3463 8.16908 10.4973 7.59072 10.4999 7.0022H10.4999L10.4999 6.99703C10.4968 6.47555 10.3772 5.96136 10.1499 5.49203ZM11.4865 7.44702C11.3831 8.48287 10.9238 9.45083 10.1868 10.186C9.76809 10.6036 9.27121 10.9346 8.72453 11.1601C8.17786 11.3855 7.5921 11.501 7.00076 11.5C5.95976 11.4981 4.95161 11.1354 4.14805 10.4736C3.34448 9.81185 2.79522 8.89193 2.59382 7.8706C2.39242 6.84927 2.55135 5.78971 3.04353 4.87241C3.53571 3.95511 4.3307 3.23683 5.29306 2.83992C6.25542 2.44302 7.32563 2.39204 8.32136 2.69568C9.31709 2.99932 10.1767 3.63879 10.7539 4.50515C11.331 5.37151 11.5899 6.41117 11.4865 7.44702Z" fill="#111111" stroke="#111111"/>
</svg>
