<svg width="24" height="24" viewBox="0 0 24 24" fill="none" xmlns="http://www.w3.org/2000/svg">
<path d="M7.00084 4.5C6.73687 4.49913 6.47733 4.56793 6.24845 4.69947C6.01928 4.83118 5.82899 5.0211 5.69683 5.25L5.69672 5.2502C5.63076 5.36456 5.52225 5.4482 5.39485 5.48286C5.26761 5.51748 5.13184 5.50042 5.01711 5.43542C4.95998 5.40278 4.90984 5.35918 4.86959 5.30712C4.82925 5.25495 4.79963 5.19531 4.78243 5.13164C4.76524 5.06797 4.76081 5.00152 4.7694 4.93614C4.77799 4.87075 4.79943 4.8077 4.83249 4.75064L4.83286 4.75C5.05225 4.37001 5.36778 4.05445 5.74775 3.83504C6.12772 3.61562 6.55875 3.50007 6.99752 3.5C7.4363 3.49993 7.86736 3.61534 8.2474 3.83464C8.62744 4.05393 8.94308 4.36939 9.16259 4.74931C9.38209 5.12922 9.49775 5.56022 9.49792 5.999C9.4981 6.43777 9.38279 6.86886 9.16359 7.24896C8.94438 7.62905 8.629 7.94476 8.24914 8.16436C7.86927 8.38396 7.4383 8.49972 6.99953 8.5C6.86703 8.49991 6.73999 8.44725 6.64629 8.35355C6.55253 8.25978 6.49985 8.13261 6.49985 8C6.49985 7.86739 6.55253 7.74021 6.64629 7.64645C6.74006 7.55268 6.86724 7.5 6.99985 7.5C7.39767 7.5 7.7792 7.34196 8.06051 7.06066C8.34181 6.77935 8.49985 6.39782 8.49985 6C8.49985 5.60217 8.34181 5.22064 8.06051 4.93934C7.77944 4.65827 7.39831 4.50026 7.00084 4.5ZM7.00084 4.5C7.00117 4.5 7.0015 4.5 7.00183 4.5L6.99985 5V4.5C7.00018 4.5 7.00051 4.5 7.00084 4.5ZM6.64417 10.6528L6.64485 10.6521C6.69133 10.6052 6.74663 10.568 6.80756 10.5427C6.86849 10.5173 6.93384 10.5042 6.99985 10.5042C7.06585 10.5042 7.13121 10.5173 7.19214 10.5427C7.25307 10.568 7.30837 10.6052 7.35485 10.6521L7.35485 10.6521C7.44722 10.7452 7.4993 10.8709 7.49985 11.0021L7.49988 11.0096L7.50014 11.017C7.50202 11.0724 7.49073 11.1274 7.4672 11.1776L7.46183 11.1891L7.45705 11.2007C7.43396 11.2572 7.40073 11.309 7.35905 11.3534C7.30661 11.4013 7.24711 11.4407 7.18262 11.4704C7.07754 11.5121 6.96137 11.5169 6.85309 11.484C6.74256 11.4504 6.64707 11.3795 6.58285 11.2835C6.51863 11.1875 6.48965 11.0722 6.50083 10.9572C6.51201 10.8422 6.56265 10.7347 6.64417 10.6528ZM19.6606 19.0873L20.4998 19.8624V18.72V9C20.4998 8.60218 20.3418 8.22064 20.0605 7.93934C19.7792 7.65804 19.3977 7.5 18.9998 7.5H12.9998C12.8672 7.5 12.7401 7.44732 12.6463 7.35355C12.5525 7.25978 12.4998 7.13261 12.4998 7C12.4998 6.86739 12.5525 6.74021 12.6463 6.64645C12.7401 6.55268 12.8672 6.5 12.9998 6.5H18.9998C19.6629 6.5 20.2988 6.76339 20.7676 7.23223C21.2365 7.70107 21.4998 8.33696 21.4998 9L21.4998 21L21.4999 21.0017C21.5002 21.0993 21.472 21.1949 21.4187 21.2766C21.3666 21.3565 21.2928 21.4197 21.206 21.459C21.143 21.4836 21.0762 21.4974 21.0086 21.4997C20.8942 21.4915 20.7859 21.4442 20.7021 21.3655L20.7021 21.3655L20.6964 21.3602L17.6964 18.6302L17.5533 18.5H17.3598H8.99985C8.33681 18.5 7.70092 18.2366 7.23208 17.7678C6.76324 17.2989 6.49985 16.663 6.49985 16V15C6.49985 14.8674 6.55253 14.7402 6.64629 14.6464C6.74006 14.5527 6.86724 14.5 6.99985 14.5C7.13245 14.5 7.25963 14.5527 7.3534 14.6464C7.44717 14.7402 7.49985 14.8674 7.49985 15V16C7.49985 16.3978 7.65788 16.7794 7.93919 17.0607C8.22049 17.342 8.60202 17.5 8.99985 17.5H17.7488C17.8749 17.5006 17.9961 17.5488 18.0881 17.635L18.0906 17.6373L19.6606 19.0873Z" fill="#111111" stroke="#111111"/>
</svg>
