<svg width="24" height="24" viewBox="0 0 24 24" fill="none" xmlns="http://www.w3.org/2000/svg">
<path d="M6.8567 11.4034L6.85883 11.4018L8.47884 10.2418L8.47941 10.2414C8.998 9.87118 9.42216 9.38408 9.71759 8.81951C10.0125 8.25592 10.1709 7.63092 10.1799 6.99492L6.8567 11.4034ZM6.8567 11.4034C6.77251 11.4643 6.67142 11.4975 6.5675 11.4984C6.47146 11.4986 6.37799 11.4673 6.30135 11.4094L6.29153 11.402L6.28136 11.3951L4.65642 10.2885C4.13518 9.91394 3.71042 9.4208 3.41718 8.84977C3.12306 8.277 2.96974 7.64237 2.96993 6.9985V6.99836V3.65836H2.97003L2.96983 3.64823C2.96831 3.57324 2.98368 3.49887 3.01481 3.43063C3.04593 3.36238 3.09201 3.30202 3.14963 3.254C3.20726 3.20598 3.27494 3.17154 3.34768 3.15323C3.42023 3.13497 3.49594 3.13322 3.56925 3.14811C4.03632 3.24487 4.51825 3.24514 4.98543 3.1489C5.45255 3.05266 5.89507 2.86198 6.28583 2.58856C6.36934 2.53089 6.46843 2.5 6.56993 2.5C6.6715 2.5 6.77066 2.53093 6.85421 2.58868L6.8567 11.4034ZM3.95993 6.99836V7.00691L3.96022 7.01546C3.97629 7.48493 4.09988 7.94446 4.32148 8.35865C4.54307 8.77285 4.85676 9.13067 5.2384 9.40457L5.23833 9.40466L5.24732 9.41082L6.32732 10.1508L6.62109 10.3521L6.90735 10.1403L7.90455 9.40235C8.28479 9.12874 8.59739 8.77173 8.81838 8.35865C9.03998 7.94446 9.16357 7.48493 9.17964 7.01546L9.17993 7.00691V6.99836V4.71836V4.23816L8.70013 4.21876C8.03721 4.19196 7.38784 4.02269 6.79618 3.72247L6.57041 3.60791L6.34443 3.72209C5.75189 4.02151 5.1022 4.19086 4.43889 4.2188L3.95993 4.23897V4.71836V6.99836ZM18.5399 6.49838L18.5449 6.49833C18.8753 6.49503 19.2031 6.55725 19.5093 6.68141C19.8155 6.80556 20.0941 6.98919 20.3289 7.22167C20.5637 7.45414 20.7501 7.73086 20.8773 8.03581C21.0045 8.34077 21.0699 8.66791 21.0699 8.99833L21.0699 20.9984L21.0699 21.0023C21.0707 21.0993 21.0432 21.1945 20.9909 21.2762C20.9405 21.3546 20.8693 21.4174 20.7853 21.4575C20.7168 21.483 20.6444 21.4968 20.5712 21.4983C20.4486 21.4953 20.3313 21.4473 20.2417 21.3634L20.2417 21.3634L20.2365 21.3586L17.2365 18.6286L17.0934 18.4984H16.8999H8.53993C7.87689 18.4984 7.24101 18.235 6.77216 17.7661C6.30332 17.2973 6.03993 16.6614 6.03993 15.9984V14.9984C6.03993 14.8657 6.09261 14.7386 6.18638 14.6448C6.28015 14.551 6.40732 14.4984 6.53993 14.4984C6.67254 14.4984 6.79972 14.551 6.89348 14.6448C6.98725 14.7386 7.03993 14.8657 7.03993 14.9984V15.9984C7.03993 16.3962 7.19797 16.7777 7.47927 17.059C7.76058 17.3403 8.14211 17.4984 8.53993 17.4984H17.3199V17.4985L17.3308 17.4982C17.3896 17.497 17.4481 17.5075 17.5028 17.5292C17.5574 17.5509 17.6072 17.5833 17.6491 17.6246L17.649 17.6247L17.6572 17.6324L19.1972 19.0824L20.0399 19.8759V18.7184V8.99836C20.0399 8.60053 19.8819 8.219 19.6006 7.9377C19.3193 7.65639 18.9378 7.49836 18.5399 7.49836H13.5399C13.4073 7.49836 13.2801 7.44568 13.1864 7.35191C13.0926 7.25814 13.0399 7.13096 13.0399 6.99836C13.0399 6.86575 13.0926 6.73857 13.1864 6.6448C13.2801 6.55103 13.4073 6.49836 13.5399 6.49836L18.5399 6.49838Z" fill="#111111" stroke="#111111"/>
</svg>
