<svg width="24" height="24" viewBox="0 0 24 24" fill="none" xmlns="http://www.w3.org/2000/svg">
<path d="M16.944 17.6469L16.7975 17.5H16.59H5C4.33696 17.5 3.70107 17.2366 3.23223 16.7678C2.76339 16.2989 2.5 15.663 2.5 15V5C2.5 4.33696 2.76339 3.70107 3.23223 3.23223C3.70107 2.76339 4.33696 2.5 5 2.5H19C19.663 2.5 20.2989 2.76339 20.7678 3.23223C21.2366 3.70107 21.5 4.33696 21.5 5V20.9985C21.4993 21.0968 21.4696 21.1928 21.4146 21.2744C21.3595 21.3563 21.2813 21.42 21.19 21.4575L21.1782 21.4623L21.1667 21.4678C21.1187 21.4904 21.066 21.5015 21.0129 21.5002L21.005 21.5L20.9971 21.5C20.9313 21.5004 20.8661 21.4878 20.8052 21.4629C20.7447 21.4382 20.6896 21.4018 20.6431 21.3559C20.6427 21.3556 20.6424 21.3553 20.6421 21.355L16.944 17.6469ZM5.77 16.5H5.97826L6.12494 16.3522L9.93494 12.5122L10.2857 12.1586L9.93355 11.8064L9.06355 10.9364L9.0625 10.9354C8.78146 10.656 8.40128 10.4992 8.005 10.4992C7.60872 10.4992 7.22854 10.656 6.9475 10.9354L6.94698 10.9359L3.64698 14.2259L3.5 14.3724V14.58V15C3.5 15.3978 3.65804 15.7794 3.93934 16.0607C4.22064 16.342 4.60217 16.5 5 16.5H5.77ZM19.6457 18.9428L20.5 19.8008V18.59V12.58V12.3724L20.353 12.2259L17.053 8.93591L17.053 8.9359L17.05 8.93293C16.7696 8.65809 16.3926 8.50414 16 8.50414C15.6074 8.50414 15.2304 8.65809 14.95 8.93293L14.95 8.93291L14.9464 8.93645L8.23645 15.6464L7.38289 16.5H8.59L17 16.5L17.0029 16.5C17.0687 16.4996 17.1339 16.5122 17.1948 16.5371C17.2554 16.5618 17.3105 16.5982 17.357 16.6441C17.3573 16.6444 17.3576 16.6447 17.3579 16.645L19.6457 18.9428ZM19.6474 10.1145L20.5 10.9626V9.76V5C20.5 4.60218 20.342 4.22065 20.0607 3.93934C19.7794 3.65804 19.3978 3.5 19 3.5H5C4.60217 3.5 4.22064 3.65804 3.93934 3.93934C3.65804 4.22064 3.5 4.60217 3.5 5V11.76V12.9626L4.35261 12.1145L6.22941 10.2477C6.70589 9.79139 7.34018 9.53663 8 9.53663C8.66007 9.53663 9.29458 9.79158 9.77111 10.2482L10.6485 11.1156L11.0014 11.4645L11.3529 11.1142L14.2329 8.24417L14.2333 8.24377C14.7021 7.77561 15.3375 7.51264 16 7.51264C16.6625 7.51264 17.2979 7.77561 17.7667 8.24377L17.7674 8.24449L19.6474 10.1145Z" fill="#111111" stroke="#111111"/>
</svg>
