<svg width="24" height="24" viewBox="0 0 24 24" fill="none" xmlns="http://www.w3.org/2000/svg">
<path d="M16.944 17.6469L16.7975 17.5H16.59H5C4.33696 17.5 3.70107 17.2366 3.23223 16.7678C2.76339 16.2989 2.5 15.663 2.5 15V5C2.5 4.33696 2.76339 3.70107 3.23223 3.23223C3.70107 2.76339 4.33696 2.5 5 2.5H19C19.663 2.5 20.2989 2.76339 20.7678 3.23223C21.2366 3.70107 21.5 4.33696 21.5 5V20.9985C21.4993 21.0968 21.4696 21.1928 21.4146 21.2744C21.3595 21.3563 21.2813 21.42 21.19 21.4575L21.1782 21.4623L21.1667 21.4678C21.1187 21.4904 21.066 21.5015 21.0129 21.5002L21.005 21.5L20.9971 21.5C20.9313 21.5004 20.8661 21.4878 20.8052 21.4629C20.7447 21.4382 20.6896 21.4018 20.6431 21.3559C20.6427 21.3556 20.6424 21.3553 20.6421 21.355L16.944 17.6469ZM19.6457 18.9428L20.5 19.8008V18.59V5C20.5 4.60218 20.342 4.22065 20.0607 3.93934C19.7794 3.65804 19.3978 3.5 19 3.5H5C4.60217 3.5 4.22064 3.65804 3.93934 3.93934C3.65804 4.22064 3.5 4.60217 3.5 5V15C3.5 15.3978 3.65804 15.7794 3.93934 16.0607C4.22064 16.342 4.60217 16.5 5 16.5L17 16.5L17.0029 16.5C17.0687 16.4996 17.1339 16.5122 17.1948 16.5371C17.2554 16.5618 17.3105 16.5982 17.357 16.6441C17.3573 16.6444 17.3576 16.6447 17.3579 16.645L19.6457 18.9428ZM11.7222 9.58426C11.8044 9.52932 11.9011 9.5 12 9.5C12.1326 9.5 12.2598 9.55268 12.3536 9.64645C12.4473 9.74022 12.5 9.86739 12.5 10C12.5 10.0989 12.4707 10.1956 12.4157 10.2778C12.3608 10.36 12.2827 10.4241 12.1913 10.4619C12.1 10.4998 11.9994 10.5097 11.9025 10.4904C11.8055 10.4711 11.7164 10.4235 11.6464 10.3536C11.5765 10.2836 11.5289 10.1945 11.5096 10.0975C11.4903 10.0006 11.5002 9.90002 11.5381 9.80866C11.5759 9.7173 11.64 9.63921 11.7222 9.58426ZM7.72221 9.58427C7.80444 9.52932 7.90111 9.5 8 9.5C8.13261 9.5 8.25978 9.55268 8.35355 9.64645C8.44732 9.74022 8.5 9.86739 8.5 10C8.5 10.0989 8.47068 10.1956 8.41574 10.2778C8.36079 10.36 8.2827 10.4241 8.19134 10.4619C8.09998 10.4998 7.99944 10.5097 7.90246 10.4904C7.80546 10.4711 7.71637 10.4235 7.64645 10.3536C7.57652 10.2836 7.5289 10.1945 7.50961 10.0975C7.49031 10.0006 7.50022 9.90002 7.53806 9.80866C7.5759 9.7173 7.63999 9.63921 7.72221 9.58427ZM15.7222 9.58426C15.8044 9.52932 15.9011 9.5 16 9.5C16.1326 9.5 16.2598 9.55268 16.3536 9.64645C16.4473 9.74021 16.5 9.86739 16.5 10C16.5 10.0989 16.4707 10.1956 16.4157 10.2778C16.3608 10.36 16.2827 10.4241 16.1913 10.4619C16.1 10.4998 15.9994 10.5097 15.9025 10.4904C15.8055 10.4711 15.7164 10.4235 15.6464 10.3536C15.5765 10.2836 15.5289 10.1945 15.5096 10.0975C15.4903 10.0006 15.5002 9.90002 15.5381 9.80866C15.5759 9.7173 15.64 9.63921 15.7222 9.58426Z" fill="#111111" stroke="#111111"/>
</svg>
