<svg width="24" height="24" viewBox="0 0 24 24" fill="none" xmlns="http://www.w3.org/2000/svg">
<path d="M2.49987 12.0019V12C2.49987 9.48044 3.50076 7.06408 5.28235 5.28249C6.16451 4.40033 7.21178 3.70056 8.36437 3.22314C9.51697 2.74572 10.7523 2.5 11.9999 2.5C14.5194 2.5 16.9358 3.50089 18.7174 5.28249C20.499 7.06408 21.4999 9.48044 21.4999 12C21.4999 14.5196 20.499 16.9359 18.7174 18.7175C16.9358 20.4991 14.5194 21.5 11.9999 21.5H2.99987H2.98934L2.97883 21.5004C2.87983 21.5046 2.78183 21.4793 2.69726 21.4276C2.61513 21.3775 2.54928 21.3048 2.50751 21.2182C2.4719 21.1293 2.46257 21.032 2.48071 20.9378C2.49931 20.8412 2.54595 20.7523 2.61478 20.6822C2.61511 20.6819 2.61544 20.6815 2.61577 20.6812L4.61342 18.6836L4.93464 18.3623L4.64561 18.0119C3.25068 16.3205 2.49156 14.1943 2.49987 12.0019ZM11.9999 20.5H12.0003C13.9667 20.4985 15.8718 19.8152 17.3909 18.5665C18.91 17.3179 19.9492 15.5811 20.3315 13.6522C20.7137 11.7233 20.4153 9.72148 19.4871 7.98788C18.5589 6.25429 17.0584 4.89615 15.2411 4.14485C13.4239 3.39354 11.4023 3.29556 9.52093 3.8676C7.63954 4.43963 6.01468 5.64629 4.92319 7.28199C3.8317 8.91769 3.3411 10.8812 3.53499 12.8381C3.72885 14.7947 4.595 16.6235 5.98588 18.0131C6.07862 18.1067 6.13066 18.2332 6.13066 18.365C6.13066 18.4969 6.07852 18.6235 5.98561 18.7172C5.98549 18.7173 5.98538 18.7174 5.98526 18.7175L5.05631 19.6464L4.20276 20.5H5.40987H11.9999ZM6.99987 11.5H16.9999C17.1325 11.5 17.2597 11.5527 17.3534 11.6464C17.4472 11.7402 17.4999 11.8674 17.4999 12C17.4999 12.1326 17.4472 12.2598 17.3534 12.3536C17.2597 12.4473 17.1325 12.5 16.9999 12.5H6.99987C6.86726 12.5 6.74008 12.4473 6.64631 12.3536C6.55254 12.2598 6.49987 12.1326 6.49987 12C6.49987 11.8674 6.55254 11.7402 6.64631 11.6464C6.74008 11.5527 6.86726 11.5 6.99987 11.5ZM8.99987 15.5H14.9999C15.1325 15.5 15.2597 15.5527 15.3534 15.6464C15.4472 15.7402 15.4999 15.8674 15.4999 16C15.4999 16.1326 15.4472 16.2598 15.3534 16.3536C15.2597 16.4473 15.1325 16.5 14.9999 16.5H8.99987C8.86726 16.5 8.74008 16.4473 8.64631 16.3536C8.55254 16.2598 8.49987 16.1326 8.49987 16C8.49987 15.8674 8.55254 15.7402 8.64631 15.6464C8.74008 15.5527 8.86726 15.5 8.99987 15.5ZM14.9999 8.5H8.99987C8.86726 8.5 8.74008 8.44732 8.64631 8.35355C8.55254 8.25978 8.49987 8.13261 8.49987 8C8.49987 7.86739 8.55254 7.74022 8.64631 7.64645C8.74008 7.55268 8.86726 7.5 8.99987 7.5H14.9999C15.1325 7.5 15.2597 7.55268 15.3534 7.64645C15.4472 7.74022 15.4999 7.86739 15.4999 8C15.4999 8.13261 15.4472 8.25978 15.3534 8.35355C15.2597 8.44732 15.1325 8.5 14.9999 8.5Z" fill="#111111" stroke="#111111"/>
</svg>
