<svg width="24" height="24" viewBox="0 0 24 24" fill="none" xmlns="http://www.w3.org/2000/svg">
<path d="M12.1902 13.5425L12.1901 13.5426L12.1994 13.5462C12.2594 13.5694 12.3143 13.604 12.3612 13.6481L14.8566 16.1436L14.8581 16.145C14.9049 16.1915 14.9421 16.2468 14.9675 16.3077C14.9929 16.3686 15.006 16.434 15.006 16.5C15.006 16.566 14.9929 16.6314 14.9675 16.6923C14.9421 16.7532 14.9049 16.8085 14.8581 16.855L14.8581 16.855L14.8552 16.8579C14.8087 16.9048 14.7534 16.942 14.6925 16.9673C14.6315 16.9927 14.5662 17.0058 14.5002 17.0058C14.4342 17.0058 14.3688 16.9927 14.3079 16.9673C14.2471 16.942 14.1919 16.9049 14.1454 16.8581C14.1453 16.8581 14.1453 16.858 14.1452 16.8579L13.356 16.0587L12.5002 15.1921V16.41V21C12.5002 21.1326 12.4475 21.2598 12.3537 21.3536C12.26 21.4473 12.1328 21.5 12.0002 21.5C11.8676 21.5 11.7404 21.4473 11.6466 21.3536C11.5529 21.2598 11.5002 21.1326 11.5002 21V16.41V15.1921L10.6444 16.0587L9.85663 16.8564C9.85632 16.8568 9.856 16.8571 9.85569 16.8574C9.76124 16.9513 9.63343 17.0041 9.50019 17.0041C9.36649 17.0041 9.23827 16.951 9.14374 16.8564C9.0492 16.7619 8.99609 16.6337 8.99609 16.5C8.99609 16.3663 9.0492 16.2381 9.14374 16.1436L11.6392 13.6481C11.6861 13.604 11.741 13.5694 11.8009 13.5462L11.801 13.5463L11.8102 13.5425C11.9319 13.4925 12.0685 13.4925 12.1902 13.5425ZM11.8223 10.4627L11.8117 10.458L11.8009 10.4538C11.741 10.4306 11.6861 10.396 11.6392 10.3519L9.14374 7.85645C9.0492 7.76191 8.99609 7.63369 8.99609 7.5C8.99609 7.4338 9.00913 7.36825 9.03446 7.30709C9.0598 7.24593 9.09693 7.19036 9.14374 7.14355C9.23827 7.04902 9.36649 6.99591 9.50019 6.99591C9.56638 6.99591 9.63193 7.00895 9.69309 7.03428C9.75386 7.05945 9.80911 7.09627 9.85573 7.14265L10.6444 7.94132L11.5002 8.80793V7.59V3C11.5002 2.86739 11.5529 2.74021 11.6466 2.64645C11.7404 2.55268 11.8676 2.5 12.0002 2.5C12.1328 2.5 12.26 2.55268 12.3537 2.64645C12.4475 2.74021 12.5002 2.86739 12.5002 3V7.59V8.80793L13.356 7.94132L14.1447 7.14262C14.1913 7.09625 14.2465 7.05945 14.3073 7.03428C14.3684 7.00895 14.434 6.99591 14.5002 6.99591C14.5664 6.99591 14.6319 7.00895 14.6931 7.03428C14.7543 7.05961 14.8098 7.09674 14.8566 7.14355C14.9034 7.19036 14.9406 7.24593 14.9659 7.30709C14.9912 7.36825 15.0043 7.4338 15.0043 7.5C15.0043 7.5662 14.9912 7.63175 14.9659 7.69291C14.9406 7.75407 14.9034 7.80964 14.8566 7.85645L12.3612 10.3519C12.3143 10.396 12.2594 10.4306 12.1994 10.4538L12.1886 10.458L12.1781 10.4627C12.122 10.4874 12.0614 10.5002 12.0002 10.5002C11.9389 10.5002 11.8783 10.4874 11.8223 10.4627Z" fill="#111111" stroke="#111111"/>
</svg>
