<svg width="24" height="24" viewBox="0 0 24 24" fill="none" xmlns="http://www.w3.org/2000/svg">
<path d="M16.5 7V7.5H17H21C21.1326 7.5 21.2598 7.55268 21.3536 7.64645C21.4473 7.74021 21.5 7.86739 21.5 8C21.5 8.13261 21.4473 8.25979 21.3536 8.35355C21.2598 8.44732 21.1326 8.5 21 8.5H16C15.8674 8.5 15.7402 8.44732 15.6464 8.35355C15.5527 8.25978 15.5 8.13261 15.5 8V3C15.5 2.86739 15.5527 2.74021 15.6464 2.64645C15.7402 2.55268 15.8674 2.5 16 2.5C16.1326 2.5 16.2598 2.55268 16.3536 2.64645C16.4473 2.74021 16.5 2.86739 16.5 3V7ZM7.5 17V16.5H7H3C2.86739 16.5 2.74021 16.4473 2.64645 16.3536C2.55268 16.2598 2.5 16.1326 2.5 16C2.5 15.8674 2.55268 15.7402 2.64645 15.6464C2.74021 15.5527 2.86739 15.5 3 15.5H8C8.13261 15.5 8.25978 15.5527 8.35355 15.6464C8.44732 15.7402 8.5 15.8674 8.5 16V21C8.5 21.1326 8.44732 21.2598 8.35355 21.3536C8.25979 21.4473 8.13261 21.5 8 21.5C7.86739 21.5 7.74021 21.4473 7.64645 21.3536C7.55268 21.2598 7.5 21.1326 7.5 21V17ZM7 7.5H7.5V7V3C7.5 2.86739 7.55268 2.74021 7.64645 2.64645C7.74021 2.55268 7.86739 2.5 8 2.5C8.13261 2.5 8.25979 2.55268 8.35355 2.64645C8.44732 2.74021 8.5 2.86739 8.5 3V8C8.5 8.13261 8.44732 8.25978 8.35355 8.35355C8.25978 8.44732 8.13261 8.5 8 8.5H3C2.86739 8.5 2.74021 8.44732 2.64645 8.35355C2.55268 8.25979 2.5 8.13261 2.5 8C2.5 7.86739 2.55268 7.74021 2.64645 7.64645C2.74021 7.55268 2.86739 7.5 3 7.5H7ZM17 16.5H16.5V17V21C16.5 21.1326 16.4473 21.2598 16.3536 21.3536C16.2598 21.4473 16.1326 21.5 16 21.5C15.8674 21.5 15.7402 21.4473 15.6464 21.3536C15.5527 21.2598 15.5 21.1326 15.5 21V16C15.5 15.8674 15.5527 15.7402 15.6464 15.6464C15.7402 15.5527 15.8674 15.5 16 15.5H21C21.1326 15.5 21.2598 15.5527 21.3536 15.6464C21.4473 15.7402 21.5 15.8674 21.5 16C21.5 16.1326 21.4473 16.2598 21.3536 16.3536C21.2598 16.4473 21.1326 16.5 21 16.5H17Z" fill="#111111" stroke="#111111"/>
</svg>
