<svg width="24" height="24" viewBox="0 0 24 24" fill="none" xmlns="http://www.w3.org/2000/svg">
<path d="M21.3569 20.6401L21.3581 20.6413C21.405 20.6878 21.4421 20.7431 21.4675 20.804C21.4929 20.8649 21.506 20.9303 21.506 20.9963C21.506 21.0623 21.4929 21.1276 21.4675 21.1886C21.4421 21.2495 21.405 21.3048 21.3581 21.3513L21.3552 21.3542C21.3087 21.401 21.2534 21.4382 21.1925 21.4636C21.1315 21.489 21.0662 21.5021 21.0002 21.5021C20.9342 21.5021 20.8688 21.489 20.8079 21.4636C20.747 21.4382 20.6917 21.401 20.6452 21.3542L20.644 21.353L14.354 15.053L13.5002 14.1978V15.4063V16.9963C13.5002 17.1289 13.4475 17.2561 13.3537 17.3498C13.26 17.4436 13.1328 17.4963 13.0002 17.4963C12.8676 17.4963 12.7404 17.4436 12.6466 17.3498C12.5529 17.2561 12.5002 17.1289 12.5002 16.9963V13.4063V12.4963H13.4102H17.0002C17.1328 12.4963 17.26 12.549 17.3537 12.6427C17.4475 12.7365 17.5002 12.8637 17.5002 12.9963C17.5002 13.1289 17.4475 13.2561 17.3537 13.3498C17.26 13.4436 17.1328 13.4963 17.0002 13.4963H15.4102H14.2017L15.0569 14.3501L21.3569 20.6401ZM12.5002 12.1992L12.2031 12.4963L11.6466 13.0527L5.98769 18.7117C5.98755 18.7118 5.98742 18.7119 5.98728 18.7121C5.89364 18.805 5.76709 18.8571 5.63519 18.8571C5.50356 18.8571 5.37726 18.8052 5.28367 18.7127C5.19125 18.6191 5.13939 18.4928 5.13939 18.3613C5.13939 18.2295 5.19145 18.103 5.28422 18.0093C5.28441 18.0092 5.2846 18.009 5.28479 18.0088L10.9437 12.3498L11.5002 11.7934L11.7973 11.4963L12.3537 10.9398L18.0137 5.27983L18.0274 5.26618L18.04 5.25151C18.0848 5.19917 18.1399 5.15666 18.202 5.12665C18.264 5.09663 18.3316 5.07977 18.4004 5.07711C18.4693 5.07445 18.538 5.08605 18.6021 5.11119C18.6663 5.13633 18.7246 5.17446 18.7733 5.22318C18.822 5.27191 18.8601 5.33019 18.8853 5.39434C18.9104 5.45851 18.922 5.52718 18.9194 5.59603C18.9167 5.66489 18.8998 5.73246 18.8698 5.7945C18.8398 5.85652 18.7973 5.91168 18.745 5.95651L18.7303 5.96907L18.7166 5.98273L13.0566 11.6427L12.5002 12.1992ZM11.5002 10.5863V11.4963H10.5902H7.00019C6.86758 11.4963 6.7404 11.4436 6.64663 11.3498C6.55286 11.2561 6.50019 11.1289 6.50019 10.9963C6.50019 10.8637 6.55286 10.7365 6.64663 10.6427C6.7404 10.549 6.86758 10.4963 7.00019 10.4963H8.59019H9.79865L8.94346 9.64244L2.64374 3.35273C2.6437 3.35269 2.64367 3.35265 2.64363 3.35262C2.54916 3.25809 2.49609 3.12992 2.49609 2.99628C2.49609 2.86259 2.5492 2.73437 2.64374 2.63983C2.69055 2.59302 2.74612 2.55589 2.80728 2.53056C2.86844 2.50523 2.93399 2.49219 3.00019 2.49219C3.06638 2.49219 3.13193 2.50523 3.19309 2.53056C3.2542 2.55587 3.30974 2.59297 3.35652 2.63972C3.35656 2.63976 3.3566 2.6398 3.35663 2.63983L9.64635 8.93955L10.5002 9.79474V8.58628V6.99628C10.5002 6.86367 10.5529 6.73649 10.6466 6.64273C10.7404 6.54896 10.8676 6.49628 11.0002 6.49628C11.1328 6.49628 11.26 6.54896 11.3537 6.64273C11.4475 6.73649 11.5002 6.86367 11.5002 6.99628V10.5863Z" fill="#111111" stroke="#111111"/>
</svg>
