<svg width="24" height="24" viewBox="0 0 24 24" fill="none" xmlns="http://www.w3.org/2000/svg">
<path d="M20.4538 12.8008L20.4537 12.8008L20.4575 12.81C20.5075 12.9317 20.5075 13.0683 20.4575 13.19L20.4574 13.19L20.4538 13.1992C20.4306 13.2592 20.396 13.3141 20.3519 13.361L17.3564 16.3564L17.355 16.3579C17.3085 16.4048 17.2532 16.442 17.1923 16.4673C17.1314 16.4927 17.066 16.5058 17 16.5058C16.934 16.5058 16.8686 16.4927 16.8077 16.4673C16.7468 16.442 16.6915 16.4048 16.645 16.3579L16.6421 16.355C16.5952 16.3085 16.558 16.2532 16.5327 16.1923C16.5073 16.1314 16.4942 16.066 16.4942 16C16.4942 15.934 16.5073 15.8686 16.5327 15.8077C16.558 15.7468 16.5952 15.6915 16.6421 15.645L16.6422 15.6449L17.9422 14.3549L18.8037 13.5H17.59H8C7.33696 13.5 6.70107 13.2366 6.23223 12.7678C5.76339 12.2989 5.5 11.663 5.5 11V7C5.5 6.86739 5.55268 6.74022 5.64645 6.64645C5.74022 6.55268 5.86739 6.5 6 6.5C6.13261 6.5 6.25978 6.55268 6.35355 6.64645C6.44732 6.74022 6.5 6.86739 6.5 7V11C6.5 11.3978 6.65804 11.7794 6.93934 12.0607C7.22064 12.342 7.60217 12.5 8 12.5H17.59H18.8037L17.9422 11.6451L16.6436 10.3564C16.6434 10.3563 16.6432 10.3561 16.643 10.3559C16.5488 10.2614 16.4959 10.1334 16.4959 10C16.4959 9.86631 16.549 9.73809 16.6436 9.64355C16.7381 9.54902 16.8663 9.49591 17 9.49591C17.1337 9.49591 17.2619 9.54902 17.3564 9.64355L20.3519 12.639C20.396 12.6859 20.4306 12.7408 20.4538 12.8008Z" fill="#111111" stroke="#111111"/>
</svg>
