<svg width="24" height="24" viewBox="0 0 24 24" fill="none" xmlns="http://www.w3.org/2000/svg">
<path d="M20.9998 4.81344H21.1958C21.2541 4.83827 21.3077 4.8742 21.3534 4.91988C21.4471 5.01365 21.4998 5.14083 21.4998 5.27344C21.4998 5.40605 21.4471 5.53322 21.3534 5.62699C21.2596 5.72076 21.1324 5.77344 20.9998 5.77344H11.6298C10.7016 5.77344 9.81132 6.14219 9.15494 6.79856C8.49856 7.45494 8.12982 8.34518 8.12982 9.27344V16.2734V17.469L8.98096 16.6294L11.9263 13.7239C12.0202 13.6481 12.1386 13.6087 12.2596 13.6134C12.3854 13.6182 12.5048 13.6704 12.5938 13.7594C12.6829 13.8485 12.735 13.9678 12.7399 14.0937C12.7445 14.214 12.7056 14.3317 12.6307 14.4254L7.99279 19.0334C7.93787 19.0843 7.87504 19.1258 7.80675 19.1565C7.75098 19.181 7.69073 19.1937 7.62982 19.1937C7.56856 19.1937 7.50797 19.1809 7.45194 19.1561L7.45202 19.1559L7.43916 19.1507C7.37737 19.1254 7.32126 19.088 7.27416 19.0407L7.27337 19.0399L2.64442 14.4109C2.64427 14.4108 2.64412 14.4106 2.64397 14.4105C2.55113 14.3168 2.49902 14.1903 2.49902 14.0584C2.49902 13.9263 2.55129 13.7996 2.64442 13.7059L2.64482 13.7055C2.6913 13.6587 2.7466 13.6215 2.80753 13.5961C2.86846 13.5707 2.93381 13.5576 2.99982 13.5576C3.06582 13.5576 3.13118 13.5707 3.1921 13.5961C3.25286 13.6214 3.30802 13.6585 3.35442 13.7051C3.35455 13.7053 3.35468 13.7054 3.35482 13.7055L6.27387 16.6646L7.12982 17.5323V16.3134V9.31344C7.12982 8.11996 7.60392 6.97537 8.44784 6.13146C9.29175 5.28754 10.4363 4.81344 11.6298 4.81344H20.9998Z" fill="#111111" stroke="#111111"/>
</svg>
