<svg width="24" height="24" viewBox="0 0 24 24" fill="none" xmlns="http://www.w3.org/2000/svg">
<path d="M8.43706 17.3708H15.73C16.7908 17.3708 17.8082 16.9494 18.5584 16.1992C19.3085 15.4491 19.73 14.4317 19.73 13.3708V3.0008L8.43706 17.3708ZM8.43706 17.3708L8.08351 17.0172L7.72995 17.3708V17.8708H8.22995L10.65 20.2908C10.7437 20.3838 10.8181 20.4944 10.8688 20.6162C10.9196 20.7381 10.9458 20.8688 10.9458 21.0008C10.9458 21.1328 10.9196 21.2635 10.8688 21.3854C10.8181 21.5072 10.7437 21.6178 10.65 21.7108C10.5565 21.8035 10.4457 21.8768 10.3239 21.9266C10.202 21.9763 10.0716 22.0016 9.93995 22.0008C9.67761 21.9997 9.42622 21.8955 9.23995 21.7108L8.43706 17.3708ZM18.69 2.5008H18.7L18.71 2.5004C18.7773 2.49771 18.8445 2.50864 18.9074 2.53256C18.9704 2.55648 19.0279 2.59288 19.0765 2.63958C19.1251 2.68628 19.1637 2.74232 19.1901 2.80432C19.2164 2.86633 19.23 2.93302 19.23 3.0004V3.0008V13.3708C19.23 14.2991 18.8612 15.1893 18.2048 15.8457C17.5485 16.5021 16.6582 16.8708 15.73 16.8708H7.72995H6.52285L7.3764 17.7244L10.2964 20.6444L10.2979 20.6458C10.3447 20.6923 10.3819 20.7476 10.4073 20.8085C10.4327 20.8694 10.4458 20.9348 10.4458 21.0008C10.4458 21.0668 10.4327 21.1322 10.4073 21.1931C10.3819 21.254 10.3447 21.3093 10.2979 21.3558L10.2978 21.3558C10.2511 21.4022 10.1957 21.4388 10.1348 21.4637C10.0739 21.4886 10.0087 21.5012 9.94285 21.5008L9.94206 21.5008C9.81119 21.5003 9.68576 21.4484 9.59269 21.3564C9.59248 21.3562 9.59227 21.356 9.59206 21.3558L4.96351 16.7272L4.96272 16.7265C4.9154 16.6794 4.878 16.6233 4.85272 16.5615L4.85245 16.5608C4.80338 16.4414 4.80246 16.3077 4.84968 16.1877C4.88008 16.1218 4.92068 16.0611 4.97 16.0078L9.57327 11.3747C9.66836 11.3036 9.78592 11.2685 9.90491 11.2761C10.031 11.2842 10.1494 11.3398 10.2362 11.4317C10.323 11.5236 10.3718 11.6449 10.3728 11.7713C10.3737 11.8947 10.329 12.014 10.2474 12.1062L7.3364 15.0172L6.48285 15.8708H7.68995H15.69C16.353 15.8708 16.9889 15.6074 17.4577 15.1386C17.9266 14.6697 18.19 14.0338 18.19 13.3708V3.0008C18.19 2.86819 18.2426 2.74101 18.3364 2.64725C18.4302 2.55348 18.5573 2.5008 18.69 2.5008Z" fill="#111111" stroke="#111111"/>
</svg>
