<svg width="24" height="24" viewBox="0 0 24 24" fill="none" xmlns="http://www.w3.org/2000/svg">
<path d="M19.5732 17.3095L19.3701 17.6424L19.6434 17.9205L21.3534 19.6605L21.3534 19.6605L21.3579 19.665C21.4048 19.7115 21.442 19.7668 21.4673 19.8277C21.4927 19.8886 21.5058 19.954 21.5058 20.02C21.5058 20.086 21.4927 20.1514 21.4673 20.2123C21.442 20.2732 21.4048 20.3285 21.3579 20.375L21.355 20.3779C21.3085 20.4248 21.2532 20.462 21.1923 20.4873C21.1314 20.5127 21.066 20.5258 21 20.5258C20.934 20.5258 20.8686 20.5127 20.8077 20.4873C20.7468 20.462 20.6915 20.4248 20.645 20.3779L20.6446 20.3775L18.9246 18.6475L18.6476 18.3689L18.3114 18.5721C17.713 18.9337 17.0279 19.1265 16.3289 19.13C15.4887 19.1299 14.6724 18.8513 14.0074 18.3379C13.3421 17.8243 12.8658 17.1046 12.6532 16.2915C12.4405 15.4783 12.5034 14.6176 12.8321 13.8441C13.1608 13.0705 13.7366 12.4277 14.4695 12.0163C15.2025 11.6049 16.0511 11.4481 16.8826 11.5705C17.7142 11.6928 18.4817 12.0874 19.0651 12.6924C19.6484 13.2975 20.0148 14.0789 20.1067 14.9143C20.1987 15.7497 20.011 16.5921 19.5732 17.3095ZM18.3449 17.362L18.3451 17.3621L18.3547 17.3524C18.8795 16.8241 19.174 16.1096 19.174 15.365C19.174 14.6204 18.8795 13.9059 18.3547 13.3776L18.3539 13.3768C18.0929 13.1153 17.7829 12.9078 17.4416 12.7663C17.1003 12.6247 16.7345 12.5518 16.365 12.5518C15.9955 12.5518 15.6297 12.6247 15.2884 12.7663C14.9471 12.9078 14.6371 13.1153 14.3761 13.3768L14.3753 13.3776C13.8505 13.9059 13.556 14.6204 13.556 15.365C13.556 16.1096 13.8505 16.8241 14.3753 17.3524L14.3751 17.3525L14.3851 17.362C14.9188 17.8706 15.6278 18.1543 16.365 18.1543C17.1022 18.1543 17.8112 17.8706 18.3449 17.362ZM4 8.5H3.5V9V15C3.5 15.3978 3.65804 15.7794 3.93934 16.0607C4.22064 16.342 4.60217 16.5 5 16.5H9C9.13261 16.5 9.25979 16.5527 9.35355 16.6464C9.44732 16.7402 9.5 16.8674 9.5 17C9.5 17.1326 9.44732 17.2598 9.35355 17.3536C9.25979 17.4473 9.13261 17.5 9 17.5H5C4.33696 17.5 3.70107 17.2366 3.23223 16.7678C2.76339 16.2989 2.5 15.663 2.5 15V6C2.5 5.33696 2.76339 4.70107 3.23223 4.23223C3.70107 3.76339 4.33696 3.5 5 3.5H19C19.663 3.5 20.2989 3.76339 20.7678 4.23223C21.2366 4.70107 21.5 5.33696 21.5 6V10C21.5 10.1326 21.4473 10.2598 21.3536 10.3536C21.2598 10.4473 21.1326 10.5 21 10.5C20.8674 10.5 20.7402 10.4473 20.6464 10.3536C20.5527 10.2598 20.5 10.1326 20.5 10V9V8.5H20H4ZM20 7.5H20.5V7V6C20.5 5.60218 20.342 5.22065 20.0607 4.93934C19.7794 4.65804 19.3978 4.5 19 4.5H5C4.60217 4.5 4.22064 4.65804 3.93934 4.93934C3.65804 5.22064 3.5 5.60217 3.5 6V7V7.5H4H20ZM7 11.5H10C10.1326 11.5 10.2598 11.5527 10.3536 11.6464C10.4473 11.7402 10.5 11.8674 10.5 12C10.5 12.1326 10.4473 12.2598 10.3536 12.3536C10.2598 12.4473 10.1326 12.5 10 12.5H7C6.86739 12.5 6.74022 12.4473 6.64645 12.3536C6.55268 12.2598 6.5 12.1326 6.5 12C6.5 11.8674 6.55268 11.7402 6.64645 11.6464C6.74022 11.5527 6.86739 11.5 7 11.5Z" fill="#111111" stroke="#111111"/>
</svg>
