<svg width="24" height="24" viewBox="0 0 24 24" fill="none" xmlns="http://www.w3.org/2000/svg">
<path d="M12.5 19.93V20.4974L13.0629 20.426C14.9329 20.1889 16.6711 19.3369 18.004 18.004C19.3369 16.6711 20.1889 14.9329 20.426 13.0629L20.4974 12.5H19.93H17C16.8674 12.5 16.7402 12.4473 16.6465 12.3536C16.5527 12.2598 16.5 12.1326 16.5 12C16.5 11.8674 16.5527 11.7402 16.6465 11.6464C16.7402 11.5527 16.8674 11.5 17 11.5H19.93H20.4974L20.426 10.9371C20.1889 9.06707 19.3369 7.32893 18.004 5.99603C16.6711 4.66314 14.9329 3.81111 13.0629 3.57397L12.5 3.50259V4.07V7C12.5 7.13261 12.4473 7.25978 12.3536 7.35355C12.2598 7.44732 12.1326 7.5 12 7.5C11.8674 7.5 11.7402 7.44732 11.6465 7.35355C11.5527 7.25978 11.5 7.13261 11.5 7V4.07V3.50259L10.9371 3.57397C9.06708 3.81111 7.32893 4.66314 5.99604 5.99603C4.66314 7.32893 3.81112 9.06707 3.57398 10.9371L3.50259 11.5H4.07H7C7.13261 11.5 7.25979 11.5527 7.35356 11.6464C7.44733 11.7402 7.5 11.8674 7.5 12C7.5 12.1326 7.44733 12.2598 7.35356 12.3536C7.25979 12.4473 7.13261 12.5 7 12.5H4.07H3.50259L3.57398 13.0629C3.81112 14.9329 4.66314 16.6711 5.99604 18.004C7.32893 19.3369 9.06708 20.1889 10.9371 20.426L11.5 20.4974V19.93V17C11.5 16.8674 11.5527 16.7402 11.6465 16.6464C11.7402 16.5527 11.8674 16.5 12 16.5C12.1326 16.5 12.2598 16.5527 12.3536 16.6464C12.4473 16.7402 12.5 16.8674 12.5 17V19.93ZM11.7222 11.5843C11.8044 11.5293 11.9011 11.5 12 11.5C12.1326 11.5 12.2598 11.5527 12.3536 11.6464C12.4473 11.7402 12.5 11.8674 12.5 12C12.5 12.0989 12.4707 12.1956 12.4157 12.2778C12.3608 12.36 12.2827 12.4241 12.1913 12.4619C12.1 12.4998 11.9994 12.5097 11.9025 12.4904C11.8055 12.4711 11.7164 12.4235 11.6465 12.3536C11.5765 12.2836 11.5289 12.1945 11.5096 12.0975C11.4903 12.0006 11.5002 11.9 11.5381 11.8087C11.5759 11.7173 11.64 11.6392 11.7222 11.5843ZM6.72209 4.10104C8.28435 3.05717 10.1211 2.5 12 2.5C13.2476 2.5 14.4829 2.74572 15.6355 3.22314C16.7881 3.70056 17.8354 4.40033 18.7175 5.28249C19.5997 6.16464 20.2994 7.21191 20.7769 8.36451C21.2543 9.5171 21.5 10.7524 21.5 12C21.5 13.8789 20.9428 15.7157 19.899 17.2779C18.8551 18.8402 17.3714 20.0578 15.6355 20.7769C13.8996 21.4959 11.9895 21.684 10.1466 21.3175C8.30383 20.9509 6.61109 20.0461 5.28249 18.7175C3.95389 17.3889 3.0491 15.6962 2.68254 13.8534C2.31598 12.0105 2.50412 10.1004 3.22315 8.36451C3.94218 6.62861 5.15982 5.14491 6.72209 4.10104Z" fill="#111111" stroke="#111111"/>
</svg>
