<svg width="24" height="24" viewBox="0 0 24 24" fill="none" xmlns="http://www.w3.org/2000/svg">
<path d="M19.9701 7.38831L19.9413 7.35681L19.9175 7.31914C19.9117 7.31005 19.9057 7.30118 19.8993 7.29254L19.8923 7.28707L19.7765 7.22922L19.7565 7.21921L19.7375 7.20746L12.2375 2.57746L12.2351 2.57601L12.2351 2.576C12.1557 2.52633 12.0639 2.5 11.9701 2.5C11.8764 2.5 11.7846 2.52634 11.7051 2.576L11.7043 2.57651L4.30049 7.18401L4.24233 7.23571L4.23006 7.24661L4.21711 7.25668L4.17101 7.29254C4.16462 7.30117 4.15855 7.31004 4.15281 7.31913L4.129 7.3568L4.10014 7.38831V7.40035L4.09694 7.42852C4.09138 7.47735 4.09138 7.52665 4.09694 7.57548L4.10014 7.60365V7.632V16.372V16.373C4.09997 16.458 4.12146 16.5416 4.16258 16.6159C4.20351 16.69 4.26254 16.7524 4.33414 16.7974C4.33448 16.7976 4.33481 16.7978 4.33515 16.798L11.8092 21.412H11.8775L11.9513 21.4354C12.0221 21.4579 12.0982 21.4579 12.169 21.4354L12.2428 21.412H12.3109L19.9701 7.38831ZM19.9701 7.38831V7.40035L19.9733 7.42852L19.9701 7.38831ZM19.9701 16.373L19.9701 16.372L19.9701 7.632V7.60365L19.9733 7.57548L19.9701 16.373ZM19.9701 16.373C19.9703 16.458 19.9488 16.5416 19.9077 16.6159L19.9701 16.373ZM3.60014 7.632V16.372V7.632ZM10.7372 19.6373L11.5001 20.1089V19.212V12.822V12.5428L11.2625 12.3964L5.7625 9.00636L5.00014 8.53647V9.432V15.812V16.0907L5.23723 16.2373L10.7372 19.6373ZM11.7373 11.5174L12.0001 11.6797L12.263 11.5174L17.863 8.05736L18.5524 7.63139L17.8624 7.2063L12.2624 3.7563L12.0001 3.59473L11.7379 3.7563L6.13788 7.2063L5.44789 7.63139L6.13733 8.05736L11.7373 11.5174ZM18.7631 16.2373L19.0001 16.0907V15.812V9.432V8.53647L18.2378 9.00636L12.7378 12.3964L12.5001 12.5428V12.822V19.212V20.1089L13.2631 19.6373L18.7631 16.2373Z" fill="#111111" stroke="#111111"/>
</svg>
