<svg width="24" height="24" viewBox="0 0 24 24" fill="none" xmlns="http://www.w3.org/2000/svg">
<path d="M18.7231 5.29646L18.7283 5.30193L18.7336 5.30724C20.0576 6.63764 20.9579 8.33045 21.3208 10.172C21.6837 12.0136 21.4929 13.9214 20.7725 15.6547C20.0521 17.3879 18.8345 18.8689 17.2732 19.9108C15.7119 20.9527 13.877 21.5087 12 21.5087C10.123 21.5087 8.28809 20.9527 6.72681 19.9108C5.16553 18.8689 3.94787 17.3879 3.2275 15.6547C2.50714 13.9214 2.31636 12.0136 2.67924 10.172C3.04212 8.33045 3.9424 6.63764 5.26645 5.30724L5.27185 5.30181L5.27708 5.29622C5.28026 5.29283 5.28333 5.28945 5.2863 5.28611C5.28993 5.2829 5.29359 5.27956 5.29728 5.2761L5.30285 5.27089L5.30825 5.2655C7.08499 3.49447 9.49135 2.5 12 2.5C14.5087 2.5 16.915 3.49447 18.6918 5.2655L18.6972 5.27088L18.7027 5.2761C18.7064 5.27956 18.7101 5.28289 18.7137 5.28611C18.7167 5.28953 18.7199 5.29298 18.7231 5.29646ZM5.17832 5.36065L5.17851 5.36054L5.17832 5.36065ZM5.36156 5.17706C5.36172 5.17677 5.36166 5.17687 5.36145 5.17727L5.36156 5.17706ZM18.8215 5.36053C18.8218 5.36073 18.8217 5.36067 18.8212 5.36041L18.8215 5.36053ZM5.76495 16.5H4.72535L5.37435 17.3121C6.1689 18.3064 7.17695 19.1092 8.32383 19.661C9.47072 20.2128 10.7271 20.4996 11.9998 20.5H12.0001C13.2729 20.4996 14.5292 20.2128 15.6761 19.661C16.823 19.1092 17.8311 18.3064 18.6256 17.3121L19.2746 16.5H18.235H14.2197H13.9944L13.8452 16.6687C13.614 16.93 13.33 17.1393 13.0119 17.2826C12.6938 17.4259 12.3489 17.5 12 17.5C11.6511 17.5 11.3061 17.4259 10.988 17.2826C10.6699 17.1393 10.3859 16.93 10.1547 16.6687L10.0055 16.5H9.78022H5.76495ZM10.5 15V15.0005C10.5004 15.3981 10.6585 15.7792 10.9396 16.0604C11.2207 16.3415 11.6019 16.4996 11.9995 16.5H12C12.2966 16.5 12.5866 16.412 12.8333 16.2472C13.08 16.0824 13.2722 15.8481 13.3858 15.574C13.4993 15.2999 13.529 14.9983 13.4711 14.7074C13.4133 14.4164 13.2704 14.1491 13.0606 13.9393C12.8508 13.7296 12.5836 13.5867 12.2926 13.5288C12.0016 13.4709 11.7 13.5006 11.4259 13.6142C11.1518 13.7277 10.9176 13.92 10.7528 14.1666C10.5879 14.4133 10.5 14.7033 10.5 15ZM19.35 15.5L19.7178 15.5741L19.8736 15.1899C20.1501 14.5076 20.336 13.7921 20.4267 13.0616L20.4964 12.5H19.9305H19C18.8673 12.5 18.7402 12.4473 18.6464 12.3536C18.5526 12.2598 18.5 12.1326 18.5 12C18.5 11.8674 18.5526 11.7402 18.6464 11.6464C18.7402 11.5527 18.8673 11.5 19 11.5H19.9305H20.4973L20.4266 10.9376C20.2367 9.42682 19.6421 7.99539 18.7057 6.79463L18.3578 6.34857L17.9579 6.74856L17.3031 7.40329C17.2094 7.49703 17.0822 7.5497 16.9497 7.5497C16.8171 7.5497 16.6899 7.49703 16.5962 7.40328C16.5024 7.30953 16.4498 7.18238 16.4498 7.0498C16.4498 6.91722 16.5024 6.79007 16.5962 6.69632L17.2508 6.04166L17.6509 5.64163L17.2047 5.29379C16.0041 4.35772 14.5729 3.76331 13.0623 3.57337L12.5 3.50265V4.06946V5C12.5 5.13261 12.4473 5.25978 12.3535 5.35355C12.2597 5.44732 12.1326 5.5 12 5.5C11.8673 5.5 11.7402 5.44732 11.6464 5.35355C11.5526 5.25978 11.5 5.13261 11.5 5V4.06946V3.50265L10.9376 3.57337C9.42703 3.76331 7.99584 4.35772 6.79519 5.29379L6.34903 5.64163L6.74906 6.04166L7.40372 6.69632L7.75727 6.34277L7.40372 6.69632C7.45014 6.74274 7.48696 6.79785 7.51209 6.8585C7.53721 6.91915 7.55014 6.98416 7.55014 7.0498C7.55014 7.11545 7.53721 7.18045 7.51209 7.2411C7.48697 7.30175 7.45014 7.35686 7.40372 7.40328C7.35731 7.4497 7.3022 7.48652 7.24155 7.51165C7.1809 7.53677 7.11589 7.5497 7.05025 7.5497C6.9846 7.5497 6.91959 7.53677 6.85895 7.51165C6.7983 7.48653 6.74319 7.44971 6.69677 7.40329C6.69677 7.40329 6.69677 7.40329 6.69677 7.40328L6.04205 6.74856L5.64207 6.34857L5.29421 6.79463C4.35782 7.99539 3.76324 9.42682 3.57332 10.9376L3.50262 11.5H4.06941H4.99995C5.13256 11.5 5.25974 11.5527 5.35351 11.6464C5.44728 11.7402 5.49995 11.8674 5.49995 12C5.49995 12.1326 5.44728 12.2598 5.35351 12.3536C5.25974 12.4473 5.13256 12.5 4.99995 12.5H4.06941H3.50352L3.57322 13.0616C3.66389 13.7921 3.84984 14.5076 4.12634 15.1899L4.28208 15.5741L4.64994 15.5H8.99995H9.49842L9.49995 15.0015C9.50154 14.4864 9.66254 13.9844 9.96086 13.5644C10.2592 13.1444 10.6802 12.827 11.1661 12.6559L11.5 12.5383V12.1843V9C11.5 8.86739 11.5526 8.74021 11.6464 8.64645C11.7402 8.55268 11.8673 8.5 12 8.5C12.1326 8.5 12.2597 8.55268 12.3535 8.64645C12.4473 8.74021 12.5 8.86739 12.5 9V12.1843V12.5383L12.8338 12.6559C13.3197 12.827 13.7407 13.1444 14.0391 13.5644C14.3374 13.9844 14.4984 14.4864 14.5 15.0015L14.5015 15.5H15H19.35Z" fill="#111111" stroke="#111111"/>
</svg>
