<svg width="24" height="24" viewBox="0 0 24 24" fill="none" xmlns="http://www.w3.org/2000/svg">
<path d="M6.21467 14.2784L5.5 13.9387V14.73V18C5.5 18.2215 5.58733 18.4161 5.69069 18.5693C5.79583 18.7253 5.93783 18.8691 6.09918 19.0002C6.42209 19.2624 6.87206 19.513 7.42037 19.7309C8.52135 20.1684 10.085 20.5 12 20.5C13.915 20.5 15.4787 20.1684 16.5796 19.7309C17.1279 19.513 17.5779 19.2624 17.9008 19.0002C18.0622 18.8691 18.2042 18.7253 18.3093 18.5693C18.4127 18.4161 18.5 18.2215 18.5 18V14.73V13.9387L17.7853 14.2784C15.9844 15.1346 14.0067 15.5532 12.0133 15.5002L12 15.4998L11.9867 15.5002C9.99333 15.5532 8.01561 15.1346 6.21467 14.2784ZM6.21467 8.27843L5.5 7.93868V8.73V12C5.5 12.2215 5.58733 12.4161 5.69069 12.5693C5.79583 12.7253 5.93783 12.8691 6.09918 13.0002C6.42209 13.2624 6.87206 13.513 7.42037 13.7309C8.52135 14.1684 10.085 14.5 12 14.5C13.915 14.5 15.4787 14.1684 16.5796 13.7309C17.1279 13.513 17.5779 13.2624 17.9008 13.0002C18.0622 12.8691 18.2042 12.7253 18.3093 12.5693C18.4127 12.4161 18.5 12.2215 18.5 12V8.73V7.93868L17.7853 8.27843C15.9844 9.13457 14.0067 9.55319 12.0133 9.50018L12 9.49982L11.9867 9.50018C9.99333 9.55319 8.01561 9.13457 6.21467 8.27843ZM7.72221 17.0843C7.80444 17.0293 7.90111 17 8 17C8.13261 17 8.25979 17.0527 8.35355 17.1464C8.44732 17.2402 8.5 17.3674 8.5 17.5C8.5 17.5989 8.47068 17.6956 8.41574 17.7778C8.36079 17.86 8.28271 17.9241 8.19134 17.9619C8.09998 17.9998 7.99944 18.0097 7.90246 17.9904C7.80546 17.9711 7.71637 17.9235 7.64645 17.8536C7.57652 17.7836 7.5289 17.6945 7.50961 17.5975C7.49031 17.5006 7.50022 17.4 7.53806 17.3087C7.5759 17.2173 7.63999 17.1392 7.72221 17.0843ZM4.5 6C4.5 4.98438 5.26719 4.11321 6.70423 3.47014C8.12184 2.83576 10.0473 2.5 12 2.5C13.9527 2.5 15.8782 2.83576 17.2958 3.47014C18.7328 4.11321 19.5 4.98438 19.5 6V18C19.5 19.0156 18.7328 19.8868 17.2958 20.5299C15.8782 21.1642 13.9527 21.5 12 21.5C10.0473 21.5 8.12184 21.1642 6.70423 20.5299C5.26719 19.8868 4.5 19.0156 4.5 18V6ZM5.5 6C5.5 6.22147 5.58733 6.41607 5.69069 6.56934C5.79583 6.72526 5.93783 6.86915 6.09918 7.00017C6.42209 7.2624 6.87206 7.51304 7.42037 7.73091C8.52135 8.16838 10.085 8.5 12 8.5C13.915 8.5 15.4787 8.16838 16.5796 7.73091C17.1279 7.51304 17.5779 7.2624 17.9008 7.00017C18.0622 6.86915 18.2042 6.72526 18.3093 6.56934C18.4127 6.41607 18.5 6.22147 18.5 6C18.5 5.77853 18.4127 5.58393 18.3093 5.43066C18.2042 5.27474 18.0622 5.13085 17.9008 4.99983C17.5779 4.7376 17.1279 4.48696 16.5796 4.26909C15.4787 3.83162 13.915 3.5 12 3.5C10.085 3.5 8.52135 3.83162 7.42037 4.26909C6.87206 4.48696 6.42209 4.7376 6.09918 4.99983C5.93783 5.13085 5.79583 5.27474 5.69069 5.43066C5.58733 5.58393 5.5 5.77853 5.5 6ZM7.72221 11.0843C7.80444 11.0293 7.90111 11 8 11C8.13261 11 8.25978 11.0527 8.35355 11.1464C8.44732 11.2402 8.5 11.3674 8.5 11.5C8.5 11.5989 8.47068 11.6956 8.41574 11.7778C8.36079 11.86 8.2827 11.9241 8.19134 11.9619C8.09998 11.9998 7.99944 12.0097 7.90246 11.9904C7.80546 11.9711 7.71637 11.9235 7.64645 11.8536C7.57652 11.7836 7.5289 11.6945 7.50961 11.5975C7.49031 11.5006 7.50022 11.4 7.53806 11.3087C7.5759 11.2173 7.63999 11.1392 7.72221 11.0843Z" fill="#111111" stroke="#111111"/>
</svg>
