<svg width="24" height="24" viewBox="0 0 24 24" fill="none" xmlns="http://www.w3.org/2000/svg">
<path d="M12.5 20V20.5H13H15C15.1326 20.5 15.2598 20.5527 15.3536 20.6464C15.4473 20.7402 15.5 20.8674 15.5 21C15.5 21.1326 15.4473 21.2598 15.3536 21.3536C15.2598 21.4473 15.1326 21.5 15 21.5H3C2.86739 21.5 2.74021 21.4473 2.64645 21.3536C2.55268 21.2598 2.5 21.1326 2.5 21C2.5 20.8674 2.55268 20.7402 2.64645 20.6464C2.74021 20.5527 2.86739 20.5 3 20.5H7H7.5V20V18.62V18.3114L7.22412 18.173L3.775 16.4435C3.77492 16.4434 3.77484 16.4434 3.77477 16.4434C3.69241 16.4018 3.62315 16.3383 3.57466 16.2598C3.52623 16.1814 3.50039 16.0912 3.5 15.9991V13C3.5 12.8674 3.55268 12.7402 3.64645 12.6464C3.74021 12.5527 3.86739 12.5 4 12.5C4.13261 12.5 4.25978 12.5527 4.35355 12.6464C4.44732 12.7402 4.5 12.8674 4.5 13V15.38V15.689L4.77639 15.8272L6.77639 16.8272L7.5 17.189V16.38V8C7.5 7.86739 7.55268 7.74022 7.64645 7.64645C7.74022 7.55268 7.86739 7.5 8 7.5C8.13261 7.5 8.25978 7.55268 8.35355 7.64645C8.44732 7.74022 8.5 7.86739 8.5 8V14.38V15.189L9.22361 14.8272L11.2236 13.8272L11.5 13.689V13.38V10C11.5 9.86739 11.5527 9.74022 11.6464 9.64645C11.7402 9.55268 11.8674 9.5 12 9.5C12.1326 9.5 12.2598 9.55268 12.3536 9.64645C12.4473 9.74022 12.5 9.86739 12.5 10V13.999C12.4996 14.0912 12.4738 14.1814 12.4253 14.2598C12.3768 14.3383 12.3075 14.4019 12.2251 14.4435C12.225 14.4435 12.225 14.4435 12.225 14.4435L8.77588 16.173L8.5 16.3114V16.62V20V20.5H9H11H11.5V20V18C11.5 17.8674 11.5527 17.7402 11.6464 17.6464C11.7402 17.5527 11.8674 17.5 12 17.5C12.1326 17.5 12.2598 17.5527 12.3536 17.6464C12.4473 17.7402 12.5 17.8674 12.5 18V20ZM16.0555 3.08986C16.6311 2.70527 17.3078 2.5 18 2.5C18.9283 2.5 19.8185 2.86875 20.4749 3.52513C21.1313 4.1815 21.5 5.07174 21.5 6C21.5 6.69223 21.2947 7.36892 20.9101 7.9445C20.5256 8.52007 19.9789 8.96867 19.3394 9.23358C18.6999 9.49849 17.9961 9.5678 17.3172 9.43275C16.6383 9.2977 16.0146 8.96436 15.5251 8.47487C15.0356 7.98539 14.7023 7.36175 14.5673 6.68282C14.4322 6.00388 14.5015 5.30015 14.7664 4.66061C15.0313 4.02107 15.4799 3.47444 16.0555 3.08986ZM16.6111 8.07867C17.0222 8.35338 17.5055 8.5 18 8.5C18.663 8.5 19.2989 8.23661 19.7678 7.76777C20.2366 7.29893 20.5 6.66304 20.5 6C20.5 5.50555 20.3534 5.0222 20.0787 4.61107C19.804 4.19995 19.4135 3.87952 18.9567 3.6903C18.4999 3.50108 17.9972 3.45157 17.5123 3.54804C17.0273 3.6445 16.5819 3.8826 16.2322 4.23223C15.8826 4.58186 15.6445 5.02732 15.548 5.51227C15.4516 5.99723 15.5011 6.49989 15.6903 6.95671C15.8795 7.41352 16.2 7.80397 16.6111 8.07867Z" fill="#111111" stroke="#111111"/>
</svg>
