<svg width="24" height="24" viewBox="0 0 24 24" fill="none" xmlns="http://www.w3.org/2000/svg">
<path d="M8.5 18V17.5H8H5C4.33696 17.5 3.70107 17.2366 3.23223 16.7678C2.76339 16.2989 2.5 15.663 2.5 15V5C2.5 4.33696 2.76339 3.70107 3.23223 3.23223C3.70107 2.76339 4.33696 2.5 5 2.5H19C19.663 2.5 20.2989 2.76339 20.7678 3.23223C21.2366 3.70107 21.5 4.33696 21.5 5V15C21.5 15.663 21.2366 16.2989 20.7678 16.7678C20.2989 17.2366 19.663 17.5 19 17.5H16H15.5V18V20V20.5H16H19C19.1326 20.5 19.2598 20.5527 19.3536 20.6464C19.4473 20.7402 19.5 20.8674 19.5 21C19.5 21.1326 19.4473 21.2598 19.3536 21.3536C19.2598 21.4473 19.1326 21.5 19 21.5H5C4.86739 21.5 4.74021 21.4473 4.64645 21.3536C4.55268 21.2598 4.5 21.1326 4.5 21C4.5 20.8674 4.55268 20.7402 4.64645 20.6464C4.74021 20.5527 4.86739 20.5 5 20.5H8H8.5V20V18ZM14 20.5H14.5V20V18V17.5H14H10H9.5V18V20V20.5H10H14ZM4 13.5H3.5V14V15C3.5 15.3978 3.65804 15.7794 3.93934 16.0607C4.22064 16.342 4.60217 16.5 5 16.5H19C19.3978 16.5 19.7794 16.342 20.0607 16.0607C20.342 15.7794 20.5 15.3978 20.5 15V14V13.5H20H4ZM20 12.5H20.5V12V5C20.5 4.60218 20.342 4.22065 20.0607 3.93934C19.7794 3.65804 19.3978 3.5 19 3.5H5C4.60217 3.5 4.22064 3.65804 3.93934 3.93934C3.65804 4.22064 3.5 4.60217 3.5 5V12V12.5H4H20Z" fill="#111111" stroke="#111111"/>
</svg>
