<svg width="24" height="24" viewBox="0 0 24 24" fill="none" xmlns="http://www.w3.org/2000/svg">
<path d="M19.2826 13.7638L19.2826 13.7638L19.5002 12.9963V12.9947V6.99628C19.5002 6.59846 19.3422 6.21692 19.0608 5.93562C18.7795 5.65431 18.398 5.49628 18.0002 5.49628H10.6602C10.5276 5.49628 10.4004 5.4436 10.3066 5.34983C10.2129 5.25606 10.1602 5.12889 10.1602 4.99628C10.1602 4.86367 10.2129 4.73649 10.3066 4.64273C10.4004 4.54896 10.5276 4.49628 10.6602 4.49628H18.0002C18.6632 4.49628 19.2991 4.75967 19.768 5.22851C20.2368 5.69735 20.5002 6.33324 20.5002 6.99628V12.9963V12.9965C20.5003 13.4607 20.3681 13.9153 20.1189 14.307C20.0738 14.3771 20.0118 14.4348 19.9387 14.4748C19.8653 14.515 19.783 14.5361 19.6994 14.5363L19.6973 14.5363C19.609 14.5368 19.5225 14.5107 19.4492 14.4614L19.4493 14.4612L19.4376 14.4538C19.3821 14.4187 19.3341 14.373 19.2963 14.3193C19.2584 14.2656 19.2316 14.205 19.2172 14.1409C19.2028 14.0768 19.2011 14.0106 19.2124 13.9458C19.2236 13.8811 19.2475 13.8193 19.2826 13.7638ZM21.3567 20.6399L21.3581 20.6413C21.405 20.6878 21.4421 20.7431 21.4675 20.804C21.4929 20.8649 21.506 20.9303 21.506 20.9963C21.506 21.0623 21.4929 21.1276 21.4675 21.1886C21.4421 21.2495 21.405 21.3048 21.3581 21.3513L21.3552 21.3542C21.3087 21.401 21.2534 21.4382 21.1925 21.4636C21.1315 21.489 21.0662 21.5021 21.0002 21.5021C20.9342 21.5021 20.8688 21.489 20.8079 21.4636C20.747 21.4382 20.6917 21.401 20.6452 21.3542L20.6445 21.3535L18.2845 18.9835L17.728 18.4247L17.7274 18.4264L16.9437 17.6427L14.9437 15.6427L14.7973 15.4963H14.5902H13.0002H12.5002V15.9963V17.9963V18.4963H13.0002H16.5902H17.7022L17.46 19.1663C17.4253 19.2621 17.3622 19.3451 17.2791 19.4041C17.1966 19.4627 17.0982 19.4948 16.9971 19.4963H7.00019C6.86758 19.4963 6.7404 19.4436 6.64663 19.3498C6.55286 19.2561 6.50019 19.1289 6.50019 18.9963C6.50019 18.8637 6.55286 18.7365 6.64663 18.6427C6.7404 18.549 6.86758 18.4963 7.00019 18.4963H11.0002H11.5002V17.9963V15.9963V15.4963H11.0002H6.00019C5.33714 15.4963 4.70126 15.2329 4.23242 14.764C3.76358 14.2952 3.50019 13.6593 3.50019 12.9963V6.99751C3.50318 6.41951 3.70636 5.86039 4.07518 5.41531L4.36676 5.06344L4.04247 4.74146L2.64374 3.35273C2.64357 3.35255 2.64339 3.35238 2.64322 3.3522C2.54901 3.25772 2.49609 3.12973 2.49609 2.99628C2.49609 2.86259 2.5492 2.73437 2.64374 2.63983C2.69055 2.59302 2.74612 2.55589 2.80728 2.53056C2.86844 2.50523 2.93399 2.49219 3.00019 2.49219C3.06638 2.49219 3.13193 2.50523 3.19309 2.53056C3.2541 2.55583 3.30955 2.59284 3.35629 2.63949C3.35641 2.63961 3.35652 2.63972 3.35663 2.63983L5.50581 4.79901L5.50674 4.79994L21.3567 20.6399ZM4.50024 6.98869L4.50019 6.98868V6.99628V12.9963C4.50019 13.3941 4.65822 13.7756 4.93953 14.0569C5.22083 14.3382 5.60236 14.4963 6.00019 14.4963H12.5902H13.7984L12.9435 13.6425L5.4735 6.18249L4.99894 5.70856L4.68024 6.29869C4.56565 6.51087 4.50391 6.74756 4.50024 6.98869Z" fill="#111111" stroke="#111111"/>
</svg>
