<svg width="24" height="24" viewBox="0 0 24 24" fill="none" xmlns="http://www.w3.org/2000/svg">
<path d="M13.842 3.26904L19.103 10.0136L19.5273 10.6329C19.8036 11.0362 19.9556 11.5117 19.9645 12.0004C19.9732 12.4813 19.843 12.9544 19.5898 13.3629L13.8778 20.677C13.6405 20.9341 13.3529 21.1398 13.0329 21.2814C12.7073 21.4255 12.3553 21.5 11.9993 21.5003L11.9966 21.5003C11.6536 21.5025 11.3139 21.4341 10.9985 21.2993C10.6902 21.1676 10.4117 20.9753 10.1794 20.7339L4.45504 13.3441L4.44746 13.3343L4.43939 13.3249L4.40269 13.2821C4.16044 12.8949 4.02482 12.4504 4.0098 11.9936C4.01258 11.5138 4.15062 11.0447 4.40793 10.6401L10.1316 3.32375C10.3653 3.07052 10.6478 2.86703 10.9621 2.72555C11.2819 2.58163 11.6278 2.50494 11.9785 2.50023C12.3291 2.49552 12.6769 2.5629 13.0005 2.69819C13.3164 2.83031 13.6026 3.02446 13.842 3.26904ZM18.823 12.7992L19.4582 11.9903H18.9869C18.9711 11.734 18.8896 11.4856 18.7498 11.269L18.7383 11.2512L18.7253 11.2345L13.0953 3.95446L13.0543 3.9014L13.0007 3.86102C12.6998 3.63425 12.3288 3.52022 11.9525 3.53877C11.5761 3.55732 11.2182 3.70729 10.941 3.96256L10.9114 3.98984L10.8865 4.02152L5.21653 11.2415L5.17963 11.2885L5.15483 11.3429C5.06134 11.5479 5.01193 11.7703 5.00979 11.9956L5.00967 12.0084L5.0102 12.0212C5.0206 12.27 5.09277 12.5123 5.2202 12.7262L5.23611 12.7529L5.25521 12.7775L10.9452 20.0875L10.9859 20.1398L11.0389 20.1797C11.3398 20.4064 11.7107 20.5205 12.0871 20.5019C12.4634 20.4834 12.8213 20.3334 13.0985 20.0781L13.1281 20.0508L13.153 20.0192L18.823 12.7992Z" fill="#111111" stroke="#111111"/>
</svg>
