<svg width="24" height="24" viewBox="0 0 24 24" fill="none" xmlns="http://www.w3.org/2000/svg">
<path d="M6.5 20V19.5H6H5C4.86739 19.5 4.74021 19.4473 4.64645 19.3536C4.55268 19.2598 4.5 19.1326 4.5 19V3C4.5 2.86739 4.55268 2.74021 4.64645 2.64645C4.74022 2.55268 4.86739 2.5 5 2.5H17C17.663 2.5 18.2989 2.76339 18.7678 3.23223C19.2366 3.70107 19.5 4.33696 19.5 5V17C19.5 17.663 19.2366 18.2989 18.7678 18.7678C18.2989 19.2366 17.663 19.5 17 19.5H8H7.5V20V21C7.5 21.1326 7.44732 21.2598 7.35355 21.3536C7.25979 21.4473 7.13261 21.5 7 21.5C6.86739 21.5 6.74021 21.4473 6.64645 21.3536C6.55268 21.2598 6.5 21.1326 6.5 21V20ZM14 18.5H14.5V18V4V3.5H14H6H5.5V4V18V18.5H6H14ZM15.5 18V18.5H16H17C17.3978 18.5 17.7794 18.342 18.0607 18.0607C18.342 17.7794 18.5 17.3978 18.5 17V5C18.5 4.60218 18.342 4.22065 18.0607 3.93934C17.7794 3.65804 17.3978 3.5 17 3.5H16H15.5V4V18Z" fill="#111111" stroke="#111111"/>
</svg>
