<svg width="24" height="24" viewBox="0 0 24 24" fill="none" xmlns="http://www.w3.org/2000/svg">
<path d="M8 20.5H8.5V20V4V3.5H8H6H5.5V4V20V20.5H6H8ZM9.5 20V20.5H10H17C17.3978 20.5 17.7794 20.342 18.0607 20.0607C18.342 19.7794 18.5 19.3978 18.5 19V5C18.5 4.60218 18.342 4.22065 18.0607 3.93934C17.7794 3.65804 17.3978 3.5 17 3.5H10H9.5V4V20ZM5 2.5H17C17.663 2.5 18.2989 2.76339 18.7678 3.23223C19.2366 3.70107 19.5 4.33696 19.5 5V19C19.5 19.663 19.2366 20.2989 18.7678 20.7678C18.2989 21.2366 17.663 21.5 17 21.5H5C4.86739 21.5 4.74021 21.4473 4.64645 21.3536C4.55268 21.2598 4.5 21.1326 4.5 21V3C4.5 2.86739 4.55268 2.74021 4.64645 2.64645C4.74022 2.55268 4.86739 2.5 5 2.5Z" fill="#111111" stroke="#111111"/>
</svg>
