<svg width="24" height="24" viewBox="0 0 24 24" fill="none" xmlns="http://www.w3.org/2000/svg">
<path d="M20 10.5H20.5V10V6V5.5H20H16H15.5V6V10V10.5H16H20ZM3 18.5H13C13.1326 18.5 13.2598 18.5527 13.3536 18.6464C13.4473 18.7402 13.5 18.8674 13.5 19C13.5 19.1326 13.4473 19.2598 13.3536 19.3536C13.2598 19.4473 13.1326 19.5 13 19.5H3C2.86739 19.5 2.74021 19.4473 2.64645 19.3536C2.55268 19.2598 2.5 19.1326 2.5 19C2.5 18.8674 2.55268 18.7402 2.64645 18.6464C2.74021 18.5527 2.86739 18.5 3 18.5ZM11 7.5H3C2.86739 7.5 2.74021 7.44732 2.64645 7.35355C2.55268 7.25978 2.5 7.13261 2.5 7C2.5 6.86739 2.55268 6.74022 2.64645 6.64645C2.74021 6.55268 2.86739 6.5 3 6.5H11C11.1326 6.5 11.2598 6.55268 11.3536 6.64645C11.4473 6.74022 11.5 6.86739 11.5 7C11.5 7.13261 11.4473 7.25978 11.3536 7.35355C11.2598 7.44732 11.1326 7.5 11 7.5ZM11 11.5H3C2.86739 11.5 2.74021 11.4473 2.64645 11.3536C2.55268 11.2598 2.5 11.1326 2.5 11C2.5 10.8674 2.55268 10.7402 2.64645 10.6464C2.74021 10.5527 2.86739 10.5 3 10.5H11C11.1326 10.5 11.2598 10.5527 11.3536 10.6464C11.4473 10.7402 11.5 10.8674 11.5 11C11.5 11.1326 11.4473 11.2598 11.3536 11.3536C11.2598 11.4473 11.1326 11.5 11 11.5ZM3 14.5H21C21.1326 14.5 21.2598 14.5527 21.3536 14.6464C21.4473 14.7402 21.5 14.8674 21.5 15C21.5 15.1326 21.4473 15.2598 21.3536 15.3536C21.2598 15.4473 21.1326 15.5 21 15.5H3C2.86739 15.5 2.74021 15.4473 2.64645 15.3536C2.55268 15.2598 2.5 15.1326 2.5 15C2.5 14.8674 2.55268 14.7402 2.64645 14.6464C2.74021 14.5527 2.86739 14.5 3 14.5ZM15 4.5H21C21.1326 4.5 21.2598 4.55268 21.3536 4.64645C21.4473 4.74021 21.5 4.86739 21.5 5V11C21.5 11.1326 21.4473 11.2598 21.3536 11.3536C21.2598 11.4473 21.1326 11.5 21 11.5H15C14.8674 11.5 14.7402 11.4473 14.6464 11.3536C14.5527 11.2598 14.5 11.1326 14.5 11V5C14.5 4.86739 14.5527 4.74022 14.6464 4.64645C14.7402 4.55268 14.8674 4.5 15 4.5Z" fill="#111111" stroke="#111111"/>
</svg>
