<svg width="24" height="24" viewBox="0 0 24 24" fill="none" xmlns="http://www.w3.org/2000/svg">
<path d="M16.5 12H15.88C15.7505 11.9837 15.6195 11.9837 15.49 12H16.5ZM16.5 12C17.5126 11.9899 18.5213 12.1138 19.5 12.368L16.5 12ZM11.9998 3.5L11.9996 3.5C11.212 3.50069 10.4285 3.61161 9.67166 3.82952L8.93285 4.04225L9.42691 4.63131C10.4807 5.88776 11.4244 7.23261 12.2476 8.65096L12.451 9.00155L12.8361 8.87501C14.5527 8.31091 16.2043 7.56546 17.763 6.65129L18.3321 6.31745L17.8568 5.8598C16.2833 4.34499 14.1839 3.49913 11.9998 3.5ZM8.26645 4.82093L7.99102 4.50584L7.63236 4.72149C5.80904 5.81779 4.46314 7.55799 3.86048 9.59837L3.67097 10.24H4.34L4.7 10.24L4.70103 10.24C6.7638 10.2358 8.81851 9.98237 10.8205 9.48526L11.478 9.32199L11.1282 8.7418C10.291 7.35351 9.33342 6.0415 8.26645 4.82093ZM5.6266 17.6425L6.00967 18.0727L6.38171 17.633C6.98282 16.9225 7.6316 16.2538 8.32356 15.6315L8.61235 15.4004L8.61237 15.4005L8.61624 15.3973C9.85149 14.3887 11.2522 13.6018 12.7562 13.0716L13.2675 12.8913L13.0466 12.3963C12.7534 11.739 12.4488 11.0992 12.1228 10.4777L11.9345 10.1187L11.5443 10.2288C9.30913 10.8591 7.00001 11.189 4.67776 11.21H4H3.5V11.71V11.7105V11.7111V11.7116V11.7121V11.7126V11.7132V11.7137V11.7142V11.7148V11.7153V11.7158V11.7163V11.7169V11.7174V11.7179V11.7185V11.719V11.7195V11.7201V11.7206V11.7211V11.7217V11.7222V11.7227V11.7233V11.7238V11.7243V11.7249V11.7254V11.7259V11.7265V11.727V11.7275V11.7281V11.7286V11.7291V11.7297V11.7302V11.7307V11.7313V11.7318V11.7323V11.7329V11.7334V11.734V11.7345V11.735V11.7356V11.7361V11.7366V11.7372V11.7377V11.7383V11.7388V11.7393V11.7399V11.7404V11.741V11.7415V11.742V11.7426V11.7431V11.7437V11.7442V11.7447V11.7453V11.7458V11.7464V11.7469V11.7474V11.748V11.7485V11.7491V11.7496V11.7502V11.7507V11.7513V11.7518V11.7523V11.7529V11.7534V11.754V11.7545V11.7551V11.7556V11.7562V11.7567V11.7572V11.7578V11.7583V11.7589V11.7594V11.76V11.7605V11.7611V11.7616V11.7622V11.7627V11.7633V11.7638V11.7644V11.7649V11.7654V11.766V11.7665V11.7671V11.7676V11.7682V11.7687V11.7693V11.7698V11.7704V11.7709V11.7715V11.772V11.7726V11.7731V11.7737V11.7742V11.7748V11.7754V11.7759V11.7765V11.777V11.7776V11.7781V11.7787V11.7792V11.7798V11.7803V11.7809V11.7814V11.782V11.7825V11.7831V11.7836V11.7842V11.7848V11.7853V11.7859V11.7864V11.787V11.7875V11.7881V11.7886V11.7892V11.7898V11.7903V11.7909V11.7914V11.792V11.7925V11.7931V11.7937V11.7942V11.7948V11.7953V11.7959V11.7964V11.797V11.7976V11.7981V11.7987V11.7992V11.7998V11.8004V11.8009V11.8015V11.802V11.8026V11.8031V11.8037V11.8043V11.8048V11.8054V11.806V11.8065V11.8071V11.8076V11.8082V11.8088V11.8093V11.8099V11.8104V11.811V11.8116V11.8121V11.8127V11.8133V11.8138V11.8144V11.8149V11.8155V11.8161V11.8166V11.8172V11.8178V11.8183V11.8189V11.8195V11.82V11.8206V11.8211V11.8217V11.8223V11.8228V11.8234V11.824V11.8245V11.8251V11.8257V11.8262V11.8268V11.8274V11.8279V11.8285V11.8291V11.8296V11.8302V11.8308V11.8313V11.8319V11.8325V11.833V11.8336V11.8342V11.8347V11.8353V11.8359V11.8364V11.837V11.8376V11.8381V11.8387V11.8393V11.8398V11.8404V11.841V11.8416V11.8421V11.8427V11.8433V11.8438V11.8444V11.845V11.8455V11.8461V11.8467V11.8473V11.8478V11.8484V11.849V11.8495V11.8501V11.8507V11.8512V11.8518V11.8524V11.853V11.8535V11.8541V11.8547V11.8553V11.8558V11.8564V11.857V11.8575V11.8581V11.8587V11.8593V11.8598V11.8604V11.861V11.8616V11.8621V11.8627V11.8633V11.8638V11.8644V11.865V11.8656V11.8661V11.8667V11.8673V11.8679V11.8684V11.869V11.8696V11.8702V11.8707V11.8713V11.8719V11.8725V11.873V11.8736V11.8742V11.8748V11.8753V11.8759V11.8765V11.8771V11.8776V11.8782V11.8788V11.8794V11.8799V11.8805V11.8811V11.8817V11.8823V11.8828V11.8834V11.884V11.8846V11.8851V11.8857V11.8863V11.8869V11.8874V11.888V11.8886V11.8892V11.8898V11.8903V11.8909V11.8915V11.8921V11.8927V11.8932V11.8938V11.8944V11.895V11.8955V11.8961V11.8967V11.8973V11.8979V11.8984V11.899V11.8996V11.9002V11.9008V11.9013V11.9019V11.9025V11.9031V11.9037V11.9042V11.9048V11.9054V11.906V11.9066V11.9071V11.9077V11.9083V11.9089V11.9095V11.91V11.9106V11.9112V11.9118V11.9124V11.9129V11.9135V11.9141V11.9147V11.9153V11.9158V11.9164V11.917V11.9176V11.9182V11.9188V11.9193V11.9199V11.9205V11.9211V11.9217V11.9222V11.9228V11.9234V11.924V11.9246V11.9252V11.9257V11.9263V11.9269V11.9275V11.9281V11.9287V11.9292V11.9298V11.9304V11.931V11.9316V11.9321V11.9327V11.9333V11.9339V11.9345V11.9351V11.9356V11.9362V11.9368V11.9374V11.938V11.9386V11.9391V11.9397V11.9403V11.9409V11.9415V11.9421V11.9426V11.9432V11.9438V11.9444V11.945V11.9456V11.9462V11.9467V11.9473V11.9479V11.9485V11.9491V11.9497V11.9502V11.9508V11.9514V11.952V11.9526V11.9532V11.9537V11.9543V11.9549V11.9555V11.9561V11.9567V11.9573V11.9578V11.9584V11.959V11.9596V11.9602V11.9608V11.9613V11.9619V11.9625V11.9631V11.9637V11.9643V11.9649V11.9654V11.966V11.9666V11.9672V11.9678V11.9684V11.969V11.9695V11.9701V11.9707V11.9713V11.9719V11.9725V11.9731V11.9736V11.9742V11.9748V11.9754V11.976V11.9766V11.9772V11.9777V11.9783V11.9789V11.9795V11.9801V11.9807V11.9813V11.9818V11.9824V11.983V11.9836V11.9842V11.9848V11.9854V11.9859V11.9865V11.9871V11.9877V11.9883V11.9889V11.9895V11.99V11.9906V11.9912V11.9918V11.9924V11.993V11.9936V11.9941V11.9947V11.9953V11.9959V11.9965V11.9971V11.9977V11.9982C3.48565 14.078 4.2434 16.0892 5.6266 17.6425ZM7.15313 18.3014L6.78254 18.7265L7.24892 19.0435C8.64982 19.9958 10.3054 20.5034 11.9993 20.5C13.0163 20.5047 14.0261 20.3285 14.9815 19.9797L15.3821 19.8334L15.3008 19.4147C14.9652 17.6863 14.4897 15.988 13.879 14.3366L13.7092 13.8774L13.2465 14.0375C11.7277 14.563 10.3182 15.3628 9.08817 16.3973L9.08757 16.3979L8.76757 16.6679L8.76204 16.6725L8.75665 16.6773C8.18909 17.185 7.65355 17.7274 7.15313 18.3014ZM16.1413 18.6156L16.3002 19.3508L16.9165 18.9198C18.3812 17.8955 19.4829 16.4328 20.0629 14.7423L20.2242 14.2723L19.7553 14.1081C18.7094 13.7418 17.6096 13.5532 16.5014 13.55H16.5H16.02H15.92H15.8544C15.7852 13.5403 15.7148 13.5403 15.6456 13.55H15.35H14.6382L14.8796 14.2196C15.3973 15.6553 15.8188 17.1239 16.1413 18.6156ZM16.5 12.5V12.5L16.505 12.5C17.6393 12.4887 18.7686 12.6532 19.8525 12.9878L20.5 13.1876V12.51V12.509V12.508V12.507V12.506V12.505V12.504V12.503V12.502V12.501V12.5V12.499V12.498V12.4971V12.4961V12.4951V12.4941V12.4931V12.4921V12.4911V12.4901V12.4891V12.4881V12.4871V12.4861V12.4851V12.4841V12.4831V12.4821V12.4811V12.4801V12.4791V12.4781V12.4771V12.4761V12.4751V12.4741V12.4731V12.4721V12.4712V12.4702V12.4692V12.4682V12.4672V12.4662V12.4652V12.4642V12.4632V12.4622V12.4612V12.4602V12.4592V12.4582V12.4572V12.4562V12.4552V12.4542V12.4532V12.4522V12.4512V12.4502V12.4492V12.4482V12.4472V12.4462V12.4453V12.4443V12.4433V12.4423V12.4413V12.4403V12.4393V12.4383V12.4373V12.4363V12.4353V12.4343V12.4333V12.4323V12.4313V12.4303V12.4293V12.4283V12.4273V12.4263V12.4253V12.4243V12.4233V12.4223V12.4213V12.4204V12.4194V12.4184V12.4174V12.4164V12.4154V12.4144V12.4134V12.4124V12.4114V12.4104V12.4094V12.4084V12.4074V12.4064V12.4054V12.4044V12.4034V12.4024V12.4014V12.4004V12.3994V12.3984V12.3974V12.3964V12.3954V12.3945V12.3935V12.3925V12.3915V12.3905V12.3895V12.3885V12.3875V12.3865V12.3855V12.3845V12.3835V12.3825V12.3815V12.3805V12.3795V12.3785V12.3775V12.3765V12.3755V12.3745V12.3735V12.3725V12.3715V12.3705V12.3696V12.3686V12.3676V12.3666V12.3656V12.3646V12.3636V12.3626V12.3616V12.3606V12.3596V12.3586V12.3576V12.3566V12.3556V12.3546V12.3536V12.3526V12.3516V12.3506V12.3496V12.3486V12.3476V12.3466V12.3456V12.3446V12.3437V12.3427V12.3417V12.3407V12.3397V12.3387V12.3377V12.3367V12.3357V12.3347V12.3337V12.3327V12.3317V12.3307V12.3297V12.3287V12.3277V12.3267V12.3257V12.3247V12.3237V12.3227V12.3217V12.3207V12.3197V12.3188V12.3178V12.3168V12.3158V12.3148V12.3138V12.3128V12.3118V12.3108V12.3098V12.3088V12.3078V12.3068V12.3058V12.3048V12.3038V12.3028V12.3018V12.3008V12.2998V12.2988V12.2978V12.2968V12.2958V12.2948V12.2938V12.2929V12.2919V12.2909V12.2899V12.2889V12.2879V12.2869V12.2859V12.2849V12.2839V12.2829V12.2819V12.2809V12.2799V12.2789V12.2779V12.2769V12.2759V12.2749V12.2739V12.2729V12.2719V12.2709V12.2699V12.2689V12.2679V12.267V12.266V12.265V12.264V12.263V12.262V12.261V12.26V12.259V12.258V12.257V12.256V12.255V12.254V12.253V12.252V12.251V12.25V12.249V12.248V12.247V12.246V12.245V12.244V12.243V12.2421V12.2411V12.2401V12.2391V12.2381V12.2371V12.2361V12.2351V12.2341V12.2331V12.2321V12.2311V12.2301V12.2291V12.2281V12.2271V12.2261V12.2251V12.2241V12.2231V12.2221V12.2211V12.2201V12.2191V12.2181V12.2171V12.2162V12.2152V12.2142V12.2132V12.2122V12.2112V12.2102V12.2092V12.2082V12.2072V12.2062V12.2052V12.2042V12.2032V12.2022V12.2012V12.2002V12.1992V12.1982V12.1972V12.1962V12.1952V12.1942V12.1932V12.1922V12.1912V12.1903V12.1893V12.1883V12.1873V12.1863V12.1853V12.1843V12.1833V12.1823V12.1813V12.1803V12.1793V12.1783V12.1773V12.1763V12.1753V12.1743V12.1733V12.1723V12.1713V12.1703V12.1693V12.1683V12.1673V12.1663V12.1654V12.1644V12.1634V12.1624V12.1614V12.1604V12.1594V12.1584V12.1574V12.1564V12.1554V12.1544V12.1534V12.1524V12.1514V12.1504V12.1494V12.1484V12.1474V12.1464V12.1454V12.1444V12.1434V12.1424V12.1414V12.1404V12.1395V12.1385V12.1375V12.1365V12.1355V12.1345V12.1335V12.1325V12.1315V12.1305V12.1295V12.1285V12.1275V12.1265V12.1255V12.1245V12.1235V12.1225V12.1215V12.1205V12.1195V12.1185V12.1175V12.1165V12.1155V12.1146V12.1136V12.1126V12.1116V12.1106V12.1096V12.1086V12.1076V12.1066V12.1056V12.1046V12.1036V12.1026V12.1016V12.1006V12.0996V12.0986V12.0976V12.0966V12.0956V12.0946V12.0936V12.0926V12.0916V12.0906V12.0896V12.0887V12.0877V12.0867V12.0857V12.0847V12.0837V12.0827V12.0817V12.0807V12.0797V12.0787V12.0777V12.0767V12.0757V12.0747V12.0737V12.0727V12.0717V12.0707V12.0697V12.0687V12.0677V12.0667V12.0657V12.0647V12.0638V12.0628V12.0618V12.0608V12.0598V12.0588V12.0578V12.0568V12.0558V12.0548V12.0538V12.0528V12.0518V12.0508V12.0498V12.0488V12.0478V12.0468V12.0458V12.0448V12.0438V12.0428V12.0418V12.0408V12.0398V12.0388V12.0379V12.0369V12.0359V12.0349V12.0339V12.0329V12.0319V12.0309V12.0299V12.0289V12.0279V12.0269V12.0259V12.0249V12.0239V12.0229V12.0219V12.0209V12.0199V12.0189V12.0179V12.0169V12.0159V12.0149V12.0139V12.0129V12.012V12.011V12.01V12.009V12.008V12.007V12.006V12.005V12.004V12.003V12.0021C20.5135 10.3888 20.0676 8.80489 19.2144 7.43557L18.9533 7.01665L18.5311 7.27227C16.9419 8.23431 15.2545 9.02374 13.4976 9.62711L12.9637 9.81046L13.2102 10.3183C13.5374 10.9926 13.8343 11.636 14.1211 12.2986L14.2516 12.6H14.58H14.68H14.7262L14.7716 12.5915C15.0192 12.5454 15.2693 12.5145 15.5207 12.4991L15.5366 12.4981L15.5525 12.4961C15.6405 12.485 15.7295 12.485 15.8175 12.4961L15.8486 12.5H15.88H15.8812H15.8823H15.8835H15.8847H15.8859H15.887H15.8882H15.8894H15.8906H15.8917H15.8929H15.8941H15.8953H15.8964H15.8976H15.8988H15.9H15.9011H15.9023H15.9035H15.9047H15.9058H15.907H15.9082H15.9094H15.9106H15.9117H15.9129H15.9141H15.9153H15.9164H15.9176H15.9188H15.92H15.9212H15.9223H15.9235H15.9247H15.9259H15.9271H15.9282H15.9294H15.9306H15.9318H15.933H15.9341H15.9353H15.9365H15.9377H15.9389H15.9401H15.9412H15.9424H15.9436H15.9448H15.946H15.9472H15.9483H15.9495H15.9507H15.9519H15.9531H15.9543H15.9555H15.9566H15.9578H15.959H15.9602H15.9614H15.9626H15.9638H15.9649H15.9661H15.9673H15.9685H15.9697H15.9709H15.9721H15.9733H15.9744H15.9756H15.9768H15.978H15.9792H15.9804H15.9816H15.9828H15.984H15.9852H15.9863H15.9875H15.9887H15.9899H15.9911H15.9923H15.9935H15.9947H15.9959H15.9971H15.9983H15.9995H16.0006H16.0018H16.003H16.0042H16.0054H16.0066H16.0078H16.009H16.0102H16.0114H16.0126H16.0138H16.015H16.0162H16.0174H16.0186H16.0198H16.021H16.0221H16.0233H16.0245H16.0257H16.0269H16.0281H16.0293H16.0305H16.0317H16.0329H16.0341H16.0353H16.0365H16.0377H16.0389H16.0401H16.0413H16.0425H16.0437H16.0449H16.0461H16.0473H16.0485H16.0497H16.0509H16.0521H16.0533H16.0545H16.0557H16.0569H16.0581H16.0593H16.0605H16.0617H16.0629H16.0641H16.0653H16.0665H16.0677H16.0689H16.0701H16.0713H16.0725H16.0737H16.0749H16.0761H16.0773H16.0786H16.0798H16.081H16.0822H16.0834H16.0846H16.0858H16.087H16.0882H16.0894H16.0906H16.0918H16.093H16.0942H16.0954H16.0966H16.0978H16.099H16.1002H16.1015H16.1027H16.1039H16.1051H16.1063H16.1075H16.1087H16.1099H16.1111H16.1123H16.1135H16.1147H16.1159H16.1172H16.1184H16.1196H16.1208H16.122H16.1232H16.1244H16.1256H16.1268H16.128H16.1292H16.1305H16.1317H16.1329H16.1341H16.1353H16.1365H16.1377H16.1389H16.1401H16.1414H16.1426H16.1438H16.145H16.1462H16.1474H16.1486H16.1498H16.151H16.1523H16.1535H16.1547H16.1559H16.1571H16.1583H16.1595H16.1607H16.162H16.1632H16.1644H16.1656H16.1668H16.168H16.1692H16.1705H16.1717H16.1729H16.1741H16.1753H16.1765H16.1777H16.179H16.1802H16.1814H16.1826H16.1838H16.185H16.1863H16.1875H16.1887H16.1899H16.1911H16.1923H16.1936H16.1948H16.196H16.1972H16.1984H16.1996H16.2009H16.2021H16.2033H16.2045H16.2057H16.2069H16.2082H16.2094H16.2106H16.2118H16.213H16.2142H16.2155H16.2167H16.2179H16.2191H16.2203H16.2216H16.2228H16.224H16.2252H16.2264H16.2277H16.2289H16.2301H16.2313H16.2325H16.2338H16.235H16.2362H16.2374H16.2386H16.2399H16.2411H16.2423H16.2435H16.2447H16.246H16.2472H16.2484H16.2496H16.2508H16.2521H16.2533H16.2545H16.2557H16.257H16.2582H16.2594H16.2606H16.2618H16.2631H16.2643H16.2655H16.2667H16.2679H16.2692H16.2704H16.2716H16.2728H16.2741H16.2753H16.2765H16.2777H16.279H16.2802H16.2814H16.2826H16.2838H16.2851H16.2863H16.2875H16.2887H16.29H16.2912H16.2924H16.2936H16.2949H16.2961H16.2973H16.2985H16.2998H16.301H16.3022H16.3034H16.3047H16.3059H16.3071H16.3083H16.3096H16.3108H16.312H16.3132H16.3145H16.3157H16.3169H16.3181H16.3194H16.3206H16.3218H16.323H16.3243H16.3255H16.3267H16.3279H16.3292H16.3304H16.3316H16.3328H16.3341H16.3353H16.3365H16.3378H16.339H16.3402H16.3414H16.3427H16.3439H16.3451H16.3463H16.3476H16.3488H16.35H16.3512H16.3525H16.3537H16.3549H16.3562H16.3574H16.3586H16.3598H16.3611H16.3623H16.3635H16.3648H16.366H16.3672H16.3684H16.3697H16.3709H16.3721H16.3733H16.3746H16.3758H16.377H16.3783H16.3795H16.3807H16.3819H16.3832H16.3844H16.3856H16.3869H16.3881H16.3893H16.3905H16.3918H16.393H16.3942H16.3955H16.3967H16.3979H16.3991H16.4004H16.4016H16.4028H16.4041H16.4053H16.4065H16.4078H16.409H16.4102H16.4114H16.4127H16.4139H16.4151H16.4164H16.4176H16.4188H16.42H16.4213H16.4225H16.4237H16.425H16.4262H16.4274H16.4287H16.4299H16.4311H16.4323H16.4336H16.4348H16.436H16.4373H16.4385H16.4397H16.441H16.4422H16.4434H16.4446H16.4459H16.4471H16.4483H16.4496H16.4508H16.452H16.4533H16.4545H16.4557H16.4569H16.4582H16.4594H16.4606H16.4619H16.4631H16.4643H16.4656H16.4668H16.468H16.4692H16.4705H16.4717H16.4729H16.4742H16.4754H16.4766H16.4779H16.4791H16.4803H16.4815H16.4828H16.484H16.4852H16.4865H16.4877H16.4889H16.4902H16.4914H16.4926H16.4939H16.4951H16.4963H16.4975H16.4988H16.5ZM6.72209 4.10104C8.28435 3.05717 10.1211 2.5 12 2.5C13.2476 2.5 14.4829 2.74572 15.6355 3.22314C16.7881 3.70056 17.8354 4.40033 18.7175 5.28249C19.5997 6.16464 20.2994 7.21191 20.7769 8.36451C21.2543 9.5171 21.5 10.7524 21.5 12C21.5 13.8789 20.9428 15.7157 19.899 17.2779C18.8551 18.8402 17.3714 20.0578 15.6355 20.7769C13.8996 21.4959 11.9895 21.684 10.1466 21.3175C8.30383 20.9509 6.61109 20.0461 5.28249 18.7175C3.95389 17.3889 3.0491 15.6962 2.68254 13.8534C2.31598 12.0105 2.50412 10.1004 3.22315 8.36451C3.94218 6.62861 5.15982 5.14491 6.72209 4.10104Z" fill="#111111" stroke="#111111"/>
</svg>
