<svg width="24" height="24" viewBox="0 0 24 24" fill="none" xmlns="http://www.w3.org/2000/svg">
<path d="M14.2852 4.05838L14.2866 4.05983L17.1266 6.89983L19.9366 9.70983L19.9379 9.71108C19.9845 9.75739 20.0216 9.81244 20.047 9.87309C20.0723 9.93374 20.0855 9.99878 20.0857 10.0645C20.086 10.1302 20.0733 10.1954 20.0483 10.2562C20.0234 10.317 19.9867 10.3723 19.9404 10.419C19.8941 10.4656 19.839 10.5027 19.7784 10.5281C19.7177 10.5534 19.6527 10.5666 19.587 10.5668C19.5212 10.5671 19.4561 10.5544 19.3953 10.5294C19.3347 10.5046 19.2796 10.4681 19.2331 10.4221C19.2329 10.4219 19.2327 10.4217 19.2325 10.4215L17.1137 8.30273L16.7602 7.94917L16.4066 8.30273L8.30663 16.4027L7.95308 16.7563L8.30663 17.1098L10.3966 19.1998L10.3981 19.2013C10.4686 19.2712 10.5167 19.3606 10.5362 19.4579C10.5558 19.5553 10.5459 19.6563 10.5078 19.748C10.4697 19.8398 10.4052 19.9181 10.3224 19.973C10.2396 20.0279 10.1424 20.0569 10.0431 20.0563L10.0423 20.0563C9.9761 20.056 9.91066 20.0426 9.84973 20.0169C9.78879 19.9911 9.73357 19.9535 9.68726 19.9063L9.68728 19.9063L9.68374 19.9027L6.87374 17.0927L4.06374 14.2827L4.06229 14.2813C4.01542 14.2348 3.97823 14.1795 3.95284 14.1186C3.92746 14.0576 3.91439 13.9923 3.91439 13.9263C3.91439 13.8603 3.92746 13.7949 3.95284 13.734C3.97822 13.6731 4.01542 13.6178 4.06229 13.5713L4.06269 13.5709C4.15637 13.4778 4.28309 13.4255 4.41519 13.4255C4.54705 13.4255 4.67356 13.4776 4.7672 13.5704C4.76736 13.5706 4.76752 13.5707 4.76769 13.5709L6.88663 15.6898L7.24019 16.0434L7.59374 15.6898L15.6937 7.58983L16.0473 7.23628L15.6937 6.88273L13.5748 4.76378C13.5746 4.76362 13.5745 4.76345 13.5743 4.76329C13.4815 4.66966 13.4294 4.54314 13.4294 4.41128C13.4294 4.27919 13.4817 4.15246 13.5748 4.05878L13.5752 4.05838C13.6217 4.01152 13.677 3.97432 13.7379 3.94893C13.7988 3.92355 13.8642 3.91048 13.9302 3.91048C13.9962 3.91048 14.0615 3.92355 14.1225 3.94893C14.1834 3.97432 14.2387 4.01152 14.2852 4.05838ZM5.83308 21.4963L5.83308 21.4963L5.82729 21.4963C5.76149 21.4967 5.69626 21.4841 5.63534 21.4592C5.57472 21.4344 5.51956 21.398 5.47298 21.352C5.47275 21.3517 5.47252 21.3515 5.4723 21.3513L2.64374 18.5227C2.5492 18.4282 2.49609 18.3 2.49609 18.1663C2.49609 18.0326 2.5492 17.9044 2.64374 17.8098C2.73827 17.7153 2.86649 17.6622 3.00019 17.6622C3.13388 17.6622 3.2621 17.7153 3.35663 17.8098L6.18663 20.6398L6.18809 20.6413C6.23495 20.6878 6.27215 20.7431 6.29753 20.804C6.32291 20.8649 6.33598 20.9303 6.33598 20.9963C6.33598 21.0623 6.32291 21.1276 6.29753 21.1886C6.27215 21.2495 6.23495 21.3048 6.18809 21.3513L6.18808 21.3513C6.14135 21.3976 6.08595 21.4343 6.02503 21.4592C5.96411 21.4841 5.89888 21.4967 5.83308 21.4963ZM21.3566 5.46984L21.3581 5.47128C21.405 5.51776 21.4421 5.57306 21.4675 5.63399C21.4929 5.69492 21.506 5.76027 21.506 5.82628C21.506 5.89229 21.4929 5.95764 21.4675 6.01857C21.4421 6.07949 21.405 6.13479 21.3581 6.18128L21.3552 6.18418C21.3087 6.23104 21.2534 6.26824 21.1925 6.29362C21.1315 6.31901 21.0662 6.33208 21.0002 6.33208C20.9342 6.33208 20.8688 6.31901 20.8079 6.29362C20.747 6.26824 20.6917 6.23104 20.6452 6.18418L20.6437 6.18273L17.8137 3.35273C17.7669 3.30592 17.7298 3.25035 17.7045 3.18919C17.6791 3.12803 17.6661 3.06248 17.6661 2.99628C17.6661 2.93008 17.6791 2.86453 17.7045 2.80337C17.7298 2.74221 17.7669 2.68664 17.8137 2.63983C17.8605 2.59302 17.9161 2.55589 17.9773 2.53056C18.0384 2.50523 18.104 2.49219 18.1702 2.49219C18.2364 2.49219 18.3019 2.50523 18.3631 2.53056C18.4242 2.55589 18.4798 2.59302 18.5266 2.63983L21.3566 5.46984Z" fill="#111111" stroke="#111111"/>
</svg>
