<svg width="24" height="24" viewBox="0 0 24 24" fill="none" xmlns="http://www.w3.org/2000/svg">
<path d="M9.24289 17.498L9.24289 17.498H9.24H5C4.86739 17.498 4.74021 17.4453 4.64645 17.3515C4.55268 17.2578 4.5 17.1306 4.5 16.998L4.50001 12.758L4.49999 12.7551C4.49961 12.6893 4.51222 12.6241 4.53711 12.5631C4.56186 12.5025 4.59826 12.4474 4.64426 12.4008C4.6445 12.4006 4.64475 12.4003 4.64499 12.4001L11.5833 5.4718L11.5842 5.47091L14.4042 2.64091L14.405 2.64009C14.4515 2.59322 14.5068 2.55603 14.5677 2.53064C14.6286 2.50526 14.694 2.49219 14.76 2.49219C14.826 2.49219 14.8914 2.50526 14.9523 2.53064C15.0131 2.55599 15.0684 2.59312 15.1148 2.6399C15.1149 2.63996 15.1149 2.64003 15.115 2.64009L19.3544 6.92946L19.3544 6.92948L19.3579 6.93299C19.4048 6.97947 19.442 7.03477 19.4673 7.0957C19.4927 7.15663 19.5058 7.22198 19.5058 7.28799C19.5058 7.35399 19.4927 7.41935 19.4673 7.48028C19.4421 7.5408 19.4052 7.59578 19.3588 7.64208C19.3585 7.64238 19.3582 7.64268 19.3579 7.64299L16.5202 10.4207L16.5202 10.4207L16.5162 10.4247L9.59789 17.353C9.59767 17.3532 9.59744 17.3534 9.59722 17.3537C9.55064 17.3997 9.49547 17.4361 9.43484 17.4609C9.37393 17.4858 9.30869 17.4984 9.24289 17.498ZM15.1136 4.05443L14.76 3.70088L14.4064 4.05443L12.9864 5.47443L12.6329 5.82799L12.9864 6.18154L15.8164 9.01154L16.17 9.36509L16.5236 9.01154L17.9436 7.59154L18.2971 7.23799L17.9436 6.88443L15.1136 4.05443ZM5.64645 12.8144L5.5 12.9609V13.168V15.998V16.498H6H8.83H9.03711L9.18355 16.3515L15.1136 10.4215L15.4671 10.068L15.1136 9.71443L12.2836 6.88443L11.93 6.53088L11.5764 6.88443L5.64645 12.8144ZM3 20.498H21C21.1326 20.498 21.2598 20.5507 21.3536 20.6444C21.4473 20.7382 21.5 20.8654 21.5 20.998C21.5 21.1306 21.4473 21.2578 21.3536 21.3515C21.2598 21.4453 21.1326 21.498 21 21.498H3C2.86739 21.498 2.74021 21.4453 2.64645 21.3515C2.55268 21.2578 2.5 21.1306 2.5 20.998C2.5 20.8654 2.55268 20.7382 2.64645 20.6444C2.74021 20.5507 2.86739 20.498 3 20.498Z" fill="#111111" stroke="#111111"/>
</svg>
