<svg width="24" height="24" viewBox="0 0 24 24" fill="none" xmlns="http://www.w3.org/2000/svg">
<path d="M3.5 7.70289L4.35355 8.55645L10.2333 14.4362L3.5 7.70289ZM3.5 7.70289V8.91M3.5 7.70289V8.91M3.5 8.91V18.5C3.5 18.8978 3.65804 19.2794 3.93934 19.5607C4.22065 19.842 4.60218 20 5 20H19C19.3978 20 19.7794 19.842 20.0607 19.5607C20.342 19.2794 20.5 18.8978 20.5 18.5V14.5C20.5 14.3674 20.5527 14.2402 20.6464 14.1464C20.7402 14.0527 20.8674 14 21 14C21.1326 14 21.2598 14.0527 21.3536 14.1464C21.4473 14.2402 21.5 14.3674 21.5 14.5V18.5C21.5 19.163 21.2366 19.7989 20.7678 20.2678C20.2989 20.7366 19.663 21 19 21H5C4.33696 21 3.70107 20.7366 3.23223 20.2678C2.76339 19.7989 2.5 19.163 2.5 18.5V8.5C2.5 7.83696 2.76339 7.20107 3.23223 6.73223C3.70107 6.26339 4.33696 6 5 6H17C17.1326 6 17.2598 6.05268 17.3536 6.14645C17.4473 6.24021 17.5 6.36739 17.5 6.5C17.5 6.63261 17.4473 6.75979 17.3536 6.85355C17.2598 6.94732 17.1326 7 17 7H5.41H4.20289L5.05645 7.85355L10.935 13.7321C10.9353 13.7324 10.9356 13.7327 10.9359 13.733C11.0752 13.8732 11.2407 13.9844 11.4231 14.0604C11.6059 14.1366 11.802 14.1758 12 14.1758C12.198 14.1758 12.3941 14.1366 12.5769 14.0604C12.7595 13.9844 12.9252 13.8729 13.0646 13.7325C13.0647 13.7324 13.0649 13.7322 13.065 13.7321L16.6436 10.1436C16.7381 10.049 16.8663 9.99591 17 9.99591C17.1337 9.99591 17.2619 10.049 17.3564 10.1436C17.451 10.2381 17.5041 10.3663 17.5041 10.5C17.5041 10.6337 17.451 10.7619 17.3564 10.8564L13.7669 14.436L13.7667 14.4362M3.5 8.91L13.7667 14.4362M13.7667 14.4362C13.2979 14.9044 12.6625 15.1674 12 15.1674C11.3376 15.1674 10.7023 14.9045 10.2336 14.4364L13.7667 14.4362ZM20.8861 9.99254L21.0384 9.96591C21.0531 9.96824 21.0678 9.97123 21.0823 9.97488C21.155 9.99319 21.2227 10.0276 21.2803 10.0756C21.3379 10.1237 21.384 10.184 21.4151 10.2523C21.4462 10.3205 21.4616 10.3949 21.4601 10.4699L21.4596 10.4943L21.4615 10.5186C21.4639 10.5494 21.4643 10.5804 21.4628 10.6112C21.4609 10.6185 21.4583 10.6256 21.4548 10.6324L21.4387 10.664L21.4271 10.6976C21.4212 10.7148 21.4135 10.7314 21.4041 10.747L21.3191 10.8532C21.2761 10.8929 21.2264 10.9248 21.1723 10.9473C21.1114 10.9727 21.046 10.9858 20.98 10.9858C20.914 10.9858 20.8486 10.9727 20.7877 10.9473C20.73 10.9233 20.6774 10.8887 20.6325 10.8453C20.6073 10.8168 20.5837 10.7871 20.5617 10.7561C20.5496 10.7379 20.54 10.7182 20.5329 10.6976L20.5213 10.664L20.5052 10.6324C20.5017 10.6256 20.4991 10.6185 20.4972 10.6112C20.4957 10.5804 20.4961 10.5494 20.4985 10.5186L20.4997 10.5028L20.5 10.487C20.5017 10.3577 20.549 10.2336 20.6329 10.136L20.733 10.0559C20.7486 10.0465 20.7652 10.0388 20.7824 10.0329L20.8155 10.0215L20.8467 10.0057C20.8591 9.99935 20.8724 9.99493 20.8861 9.99254ZM20.6464 3.14645C20.7402 3.05268 20.8674 3 21 3C21.1326 3 21.2598 3.05268 21.3536 3.14645C21.4473 3.24021 21.5 3.36739 21.5 3.5V7.5C21.5 7.63261 21.4473 7.75979 21.3536 7.85355C21.2598 7.94732 21.1326 8 21 8C20.8674 8 20.7402 7.94732 20.6464 7.85355C20.5527 7.75979 20.5 7.63261 20.5 7.5V3.5C20.5 3.36739 20.5527 3.24021 20.6464 3.14645Z" fill="#111111" stroke="#111111"/>
</svg>
