<svg width="24" height="24" viewBox="0 0 24 24" fill="none" xmlns="http://www.w3.org/2000/svg">
<path d="M3 8.20144L3.85385 9.05675L9.73333 14.9462C10.2021 15.4144 10.8375 15.6774 11.5 15.6774C12.1624 15.6774 12.7977 15.4145 13.2664 14.9464L3 8.20144ZM3 8.20144V9.41V19C3 19.3978 3.15803 19.7794 3.43934 20.0607C3.72065 20.342 4.10218 20.5 4.5 20.5H18.5C18.8978 20.5 19.2794 20.342 19.5607 20.0607C19.842 19.7794 20 19.3978 20 19V15C20 14.8674 20.0527 14.7402 20.1464 14.6464C20.2402 14.5527 20.3674 14.5 20.5 14.5C20.6326 14.5 20.7598 14.5527 20.8536 14.6464C20.9473 14.7402 21 14.8674 21 15V19C21 19.663 20.7366 20.2989 20.2678 20.7678C19.7989 21.2366 19.163 21.5 18.5 21.5H4.5C3.83696 21.5 3.20107 21.2366 2.73223 20.7678C2.26339 20.2989 2 19.663 2 19V9C2 8.33696 2.26339 7.70107 2.73223 7.23223C3.20107 6.76339 3.83696 6.5 4.5 6.5H11.5C11.6326 6.5 11.7598 6.55268 11.8536 6.64645C11.9473 6.74022 12 6.86739 12 7C12 7.13261 11.9473 7.25978 11.8536 7.35355C11.7598 7.44732 11.6326 7.5 11.5 7.5H4.91H3.70144L4.55675 8.35385L10.4467 14.2339L10.4467 14.2339L10.45 14.2371C10.7304 14.5119 11.1074 14.6659 11.5 14.6659C11.8926 14.6659 12.2696 14.5119 12.55 14.2371L12.55 14.2371L12.5536 14.2336L14.1936 12.5936C14.2881 12.499 14.4163 12.4459 14.55 12.4459C14.6837 12.4459 14.8119 12.499 14.9064 12.5936C15.001 12.6881 15.0541 12.8163 15.0541 12.95C15.0541 13.0837 15.001 13.2119 14.9064 13.3064L13.2667 14.9462L3 8.20144ZM21.855 7.64211L21.8579 7.645C21.9048 7.69149 21.942 7.74679 21.9673 7.80771C21.9927 7.86864 22.0058 7.93399 22.0058 8C22.0058 8.06601 21.9927 8.13136 21.9673 8.19229C21.942 8.25321 21.9048 8.30851 21.8579 8.355L21.8564 8.35645L18.8609 11.3519C18.8141 11.396 18.7592 11.4306 18.6992 11.4538L18.6885 11.458L18.6779 11.4627C18.6218 11.4874 18.5613 11.5002 18.5 11.5002C18.4387 11.5002 18.3782 11.4874 18.3221 11.4627L18.3115 11.458L18.3008 11.4538C18.2408 11.4306 18.1859 11.396 18.1391 11.3519L15.1436 8.35645C15.049 8.26191 14.9959 8.13369 14.9959 8C14.9959 7.9338 15.0089 7.86825 15.0343 7.80709C15.0596 7.74593 15.0967 7.69036 15.1436 7.64355C15.2381 7.54902 15.3663 7.49591 15.5 7.49591C15.5662 7.49591 15.6317 7.50895 15.6929 7.53428C15.7538 7.55952 15.8092 7.59647 15.8559 7.64303C15.8561 7.64321 15.8563 7.64338 15.8564 7.64355L17.1451 8.94219L18 9.80373V8.59V3C18 2.86739 18.0527 2.74021 18.1464 2.64645C18.2402 2.55268 18.3674 2.5 18.5 2.5C18.6326 2.5 18.7598 2.55268 18.8536 2.64645C18.9473 2.74021 19 2.86739 19 3V8.59V9.80373L19.8549 8.94219L21.1449 7.64219L21.145 7.6421C21.1915 7.59524 21.2468 7.55804 21.3077 7.53265C21.3686 7.50727 21.434 7.4942 21.5 7.4942C21.566 7.4942 21.6314 7.50727 21.6923 7.53265C21.7532 7.55804 21.8085 7.59524 21.855 7.6421L21.855 7.64211Z" fill="#111111" stroke="#111111"/>
</svg>
