<svg width="24" height="24" viewBox="0 0 24 24" fill="none" xmlns="http://www.w3.org/2000/svg">
<path d="M19.001 4C18.737 3.99913 18.4775 4.06793 18.2486 4.19947C18.0194 4.33118 17.8291 4.5211 17.697 4.75L17.6969 4.7502C17.6309 4.86456 17.5224 4.9482 17.395 4.98286C17.2678 5.01747 17.132 5.00043 17.0173 4.93545C16.9602 4.9028 16.91 4.85919 16.8697 4.80712C16.8294 4.75495 16.7998 4.69531 16.7826 4.63164C16.7654 4.56797 16.761 4.50152 16.7696 4.43614C16.7781 4.37074 16.7996 4.3077 16.8326 4.25064L16.833 4.25C17.0524 3.87001 17.3679 3.55445 17.7479 3.33504C18.1279 3.11562 18.5589 3.00007 18.9977 3C19.4364 2.99993 19.8675 3.11534 20.2476 3.33464C20.6276 3.55393 20.9432 3.86939 21.1627 4.24931C21.3822 4.62922 21.4979 5.06022 21.4981 5.499C21.4983 5.93777 21.3829 6.36886 21.1637 6.74896C20.9445 7.12905 20.6292 7.44476 20.2493 7.66436C19.8694 7.88396 19.4385 7.99972 18.9997 8C18.8672 7.99991 18.7401 7.94725 18.6464 7.85355C18.5527 7.75979 18.5 7.63261 18.5 7.5C18.5 7.36739 18.5527 7.24021 18.6464 7.14645C18.7402 7.05268 18.8674 7 19 7C19.3978 7 19.7794 6.84196 20.0607 6.56066C20.342 6.27935 20.5 5.89782 20.5 5.5C20.5 5.10217 20.342 4.72064 20.0607 4.43934C19.7796 4.15827 19.3985 4.00026 19.001 4ZM19.001 4C19.0007 4 19.0003 4 19 4V4.5L19.002 4C19.0017 4 19.0013 4 19.001 4ZM3.5 7.70144L4.35385 8.55675L10.2333 14.4462C10.7021 14.9144 11.3375 15.1774 12 15.1774C12.6624 15.1774 13.2977 14.9145 13.7664 14.4464L3.5 7.70144ZM3.5 7.70144V8.91V18.5C3.5 18.8978 3.65803 19.2794 3.93934 19.5607C4.22065 19.842 4.60218 20 5 20H19C19.3978 20 19.7794 19.842 20.0607 19.5607C20.342 19.2794 20.5 18.8978 20.5 18.5V14.5C20.5 14.3674 20.5527 14.2402 20.6464 14.1464C20.7402 14.0527 20.8674 14 21 14C21.1326 14 21.2598 14.0527 21.3536 14.1464C21.4473 14.2402 21.5 14.3674 21.5 14.5V18.5C21.5 19.163 21.2366 19.7989 20.7678 20.2678C20.2989 20.7366 19.663 21 19 21H5C4.33696 21 3.70107 20.7366 3.23223 20.2678C2.76339 19.7989 2.5 19.163 2.5 18.5V8.5C2.5 7.83696 2.76339 7.20107 3.23223 6.73223C3.70107 6.26339 4.33696 6 5 6H13C13.1326 6 13.2598 6.05268 13.3536 6.14645C13.4473 6.24021 13.5 6.36739 13.5 6.5C13.5 6.63261 13.4473 6.75978 13.3536 6.85355C13.2598 6.94732 13.1326 7 13 7H5.41H4.20144L5.05675 7.85385L10.9467 13.7339L10.9467 13.7339L10.95 13.7371C11.2304 14.0119 11.6074 14.1659 12 14.1659C12.3926 14.1659 12.7696 14.0119 13.05 13.7371L13.05 13.7371L13.0536 13.7336L14.6936 12.0936C14.7404 12.0467 14.7959 12.0096 14.8571 11.9843C14.9183 11.9589 14.9838 11.9459 15.05 11.9459C15.1162 11.9459 15.1817 11.9589 15.2429 11.9843C15.3041 12.0096 15.3596 12.0467 15.4064 12.0936C15.4533 12.1404 15.4904 12.1959 15.5157 12.2571C15.5411 12.3183 15.5541 12.3838 15.5541 12.45C15.5541 12.5162 15.5411 12.5817 15.5157 12.6429C15.4904 12.7041 15.4533 12.7596 15.4064 12.8064L13.7667 14.4462L3.5 7.70144ZM18.6421 10.145L18.6422 10.1451L18.65 10.137C18.6958 10.0895 18.7506 10.0515 18.8111 10.0253C18.8717 9.99903 18.9369 9.98504 19.0029 9.98411C19.0689 9.98318 19.1344 9.99533 19.1957 10.0199C19.2565 10.0442 19.312 10.0803 19.3589 10.126C19.4289 10.1958 19.4766 10.2848 19.496 10.3817C19.5156 10.479 19.5057 10.58 19.4676 10.6718C19.4295 10.7635 19.365 10.8418 19.2822 10.8967C19.1995 10.9516 19.1022 10.9806 19.0029 10.98H19H18.8593C18.855 10.9783 18.8508 10.9764 18.8467 10.9743L18.8155 10.9585L18.7824 10.9471C18.7652 10.9412 18.7486 10.9335 18.733 10.9241L18.6268 10.8391C18.5871 10.7961 18.5552 10.7464 18.5327 10.6923C18.5073 10.6314 18.4942 10.566 18.4942 10.5C18.4942 10.434 18.5073 10.3686 18.5327 10.3077C18.558 10.2468 18.5952 10.1915 18.6421 10.145Z" fill="#111111" stroke="#111111"/>
</svg>
