<svg width="24" height="24" viewBox="0 0 24 24" fill="none" xmlns="http://www.w3.org/2000/svg">
<path d="M4.35385 9.31456L3.5 8.45925V9.66781V19.2578C3.5 19.6556 3.65804 20.0372 3.93934 20.3185C4.22064 20.5998 4.60217 20.7578 5 20.7578H19C19.3978 20.7578 19.7794 20.5998 20.0607 20.3185C20.342 20.0372 20.5 19.6556 20.5 19.2578V16.2578C20.5 16.1252 20.5527 15.998 20.6464 15.9043C20.7402 15.8105 20.8674 15.7578 21 15.7578C21.1326 15.7578 21.2598 15.8105 21.3536 15.9043C21.4473 15.998 21.5 16.1252 21.5 16.2578V19.2578C21.5 19.9209 21.2366 20.5567 20.7678 21.0256C20.2989 21.4944 19.663 21.7578 19 21.7578H5C4.33696 21.7578 3.70107 21.4944 3.23223 21.0256C2.76339 20.5567 2.5 19.9209 2.5 19.2578V9.25781C2.5 8.59477 2.76339 7.95889 3.23223 7.49005C3.70107 7.0212 4.33696 6.75781 5 6.75781H12C12.1326 6.75781 12.2598 6.81049 12.3536 6.90426C12.4473 6.99803 12.5 7.1252 12.5 7.25781C12.5 7.39042 12.4473 7.5176 12.3536 7.61137C12.2598 7.70513 12.1326 7.75781 12 7.75781H5.41H4.20144L5.05675 8.61167L10.9467 14.4917L10.9467 14.4917L10.953 14.4978C11.1781 14.7148 11.4654 14.856 11.7746 14.9017C12.0839 14.9474 12.3998 14.8954 12.678 14.7528L12.6781 14.753L12.6905 14.7462C12.7482 14.7145 12.8117 14.6946 12.8771 14.6875C12.9426 14.6804 13.0089 14.6863 13.072 14.7049C13.1352 14.7235 13.1941 14.7543 13.2453 14.7958C13.2965 14.8372 13.3391 14.8883 13.3705 14.9462L13.3716 14.9483C13.4033 15.006 13.4233 15.0695 13.4304 15.135C13.4374 15.2004 13.4315 15.2667 13.4129 15.3299C13.3944 15.393 13.3635 15.4519 13.3221 15.5031C13.2807 15.5542 13.2298 15.5967 13.172 15.6281C12.8062 15.8254 12.397 15.9284 11.9814 15.9278C11.3262 15.9249 10.6983 15.6648 10.2329 15.2036C10.2326 15.2033 10.2324 15.2031 10.2321 15.2028L4.35385 9.31456ZM16.2922 12.6621L16.2921 12.6621L16.285 12.667C16.2101 12.719 16.1223 12.7495 16.0313 12.7552C15.9402 12.7609 15.8494 12.7416 15.7685 12.6994C15.6877 12.6571 15.6199 12.5936 15.5726 12.5156C15.5253 12.4378 15.5002 12.3485 15.5 12.2574C15.5 12.2573 15.5 12.2571 15.5 12.257L15.5 4.25781C15.5 4.1252 15.5527 3.99803 15.6464 3.90426C15.7402 3.81049 15.8674 3.75781 16 3.75781H21C21.1326 3.75781 21.2598 3.81049 21.3536 3.90426C21.4473 3.99803 21.5 4.1252 21.5 4.25781L21.5 12.2568C21.5 12.257 21.5 12.2572 21.5 12.2575C21.4997 12.3534 21.4717 12.4472 21.4195 12.5277C21.3672 12.6084 21.2927 12.6723 21.205 12.7118L21.2027 12.7128C21.1398 12.7415 21.0716 12.7568 21.0025 12.7578C20.8926 12.7552 20.7859 12.7203 20.6957 12.6575L20.6958 12.6574L20.6884 12.6525L18.7784 11.3725L18.5004 11.1862L18.2222 11.3721L16.2922 12.6621ZM19.7216 10.7932L20.5 11.3148V10.3778V5.25781V4.75781H20H17H16.5V5.25781V10.3778V11.3148L17.2784 10.7932L18.2184 10.1632L18.22 10.1621C18.3027 10.1062 18.4002 10.0763 18.5 10.0763C18.5998 10.0763 18.6973 10.1062 18.78 10.1621L18.7816 10.1632L19.7216 10.7932Z" fill="#111111" stroke="#111111"/>
</svg>
