<svg width="24" height="24" viewBox="0 0 24 24" fill="none" xmlns="http://www.w3.org/2000/svg">
<path d="M18.295 4.86192L18.2959 4.86261C18.6665 5.13204 19.0899 5.31983 19.5383 5.4136C19.9864 5.50729 20.4493 5.50496 20.8965 5.40676C20.9692 5.39119 21.0445 5.39206 21.1169 5.40929C21.1894 5.42655 21.2571 5.45978 21.3151 5.50657C21.373 5.55362 21.4198 5.61307 21.4518 5.68053C21.4838 5.74802 21.5003 5.82183 21.5 5.89652V5.89822L21.5 9.20822L21.5 9.2093C21.5014 9.84892 21.3538 10.4801 21.069 11.0528C20.7846 11.6248 20.371 12.1228 19.8609 12.5075C19.8603 12.508 19.8597 12.5084 19.8591 12.5089L18.295 13.6645C18.2947 13.6647 18.2944 13.6649 18.2941 13.6651C18.2087 13.7273 18.1057 13.7608 18 13.7608C17.8943 13.7608 17.7914 13.7273 17.706 13.6652C17.7056 13.665 17.7053 13.6648 17.705 13.6645L16.139 12.5075C15.629 12.1228 15.2154 11.6248 14.931 11.0528C14.6462 10.4801 14.4986 9.84891 14.5 9.2093V9.20822L14.5 5.89822L14.5 5.89707C14.4998 5.8224 14.5164 5.74864 14.5484 5.68121C14.5805 5.61377 14.6273 5.55437 14.6853 5.50738C14.7433 5.46038 14.8111 5.42698 14.8838 5.40962C14.9561 5.39234 15.0313 5.3914 15.104 5.40687C15.551 5.50496 16.0137 5.50726 16.4617 5.4136C16.9101 5.31983 17.3335 5.13204 17.7041 4.86261L17.705 4.86192C17.7906 4.79935 17.8939 4.76562 18 4.76562C18.1061 4.76562 18.2094 4.79935 18.295 4.86192ZM19.2867 11.7078L19.2978 11.7001L19.3084 11.6918C19.6853 11.3964 19.989 11.018 20.1957 10.5861C20.4018 10.1552 20.506 9.68255 20.5 9.20492V6.99822V6.51786L20.02 6.49862C19.3961 6.47362 18.7858 6.30884 18.2342 6.01644L18 5.89233L17.7658 6.01644C17.2142 6.30884 16.6039 6.47362 15.98 6.49862L15.5 6.51786V6.99822V9.18499C15.494 9.6626 15.5982 10.1352 15.8043 10.5661C16.011 10.998 16.3147 11.3764 16.6916 11.6718L16.6996 11.6781L16.7078 11.684L17.7078 12.404L17.9959 12.6114L18.2867 12.4078L19.2867 11.7078ZM12.6533 14.7743L13.0926 15.178L13.4047 15.4946C13.2662 15.5889 13.1182 15.6693 12.9629 15.7343C12.6553 15.8631 12.3251 15.929 11.9917 15.9282C11.3319 15.9253 10.7 15.6617 10.2338 15.1949L10.2336 15.1947L4.35355 9.31467L3.5 8.46112V9.66822V19.2082C3.5 19.606 3.65804 19.9876 3.93934 20.2689C4.22065 20.5502 4.60218 20.7082 5 20.7082H19C19.3978 20.7082 19.7794 20.5502 20.0607 20.2689C20.342 19.9876 20.5 19.606 20.5 19.2082V16.2082C20.5 16.0756 20.5527 15.9484 20.6464 15.8547C20.6863 15.8148 20.7322 15.7823 20.7821 15.7582H21C21.1326 15.7582 21.2598 15.8109 21.3536 15.9047C21.4473 15.9984 21.5 16.1256 21.5 16.2582V19.2582C21.5 19.9213 21.2366 20.5571 20.7678 21.026C20.2989 21.4948 19.663 21.7582 19 21.7582H5C4.33696 21.7582 3.70107 21.4948 3.23223 21.026C2.76339 20.5571 2.5 19.9213 2.5 19.2582V9.25822C2.5 8.59518 2.76339 7.9593 3.23223 7.49045C3.70107 7.02161 4.33696 6.75822 5 6.75822H11C11.1326 6.75822 11.2598 6.8109 11.3536 6.90467C11.4473 6.99844 11.5 7.12561 11.5 7.25822C11.5 7.39083 11.4473 7.51801 11.3536 7.61178C11.2598 7.70554 11.1326 7.75822 11 7.75822H5.41H4.20144L5.05675 8.61208L10.9467 14.4921L10.9467 14.4921L10.95 14.4953C11.2304 14.7701 11.6074 14.9241 12 14.9241C12.2284 14.9241 12.4514 14.872 12.6533 14.7743Z" fill="#111111" stroke="#111111"/>
</svg>
