<svg width="24" height="24" viewBox="0 0 24 24" fill="none" xmlns="http://www.w3.org/2000/svg">
<path d="M4.35385 8.05303L3.5 7.19772V8.40628V17.9963C3.5 18.3941 3.65804 18.7756 3.93934 19.0569C4.22065 19.3382 4.60218 19.4963 5 19.4963H19C19.3978 19.4963 19.7794 19.3382 20.0607 19.0569C20.342 18.7756 20.5 18.3941 20.5 17.9963V11.9963C20.5 11.8637 20.5527 11.7365 20.6464 11.6427C20.7402 11.549 20.8674 11.4963 21 11.4963C21.1326 11.4963 21.2598 11.549 21.3536 11.6427C21.4473 11.7365 21.5 11.8637 21.5 11.9963V17.9963C21.5 18.6593 21.2366 19.2952 20.7678 19.764C20.2989 20.2329 19.663 20.4963 19 20.4963H5C4.33696 20.4963 3.70107 20.2329 3.23223 19.764C2.76339 19.2952 2.5 18.6593 2.5 17.9963V7.99628C2.5 7.33324 2.76339 6.69735 3.23223 6.22851C3.70107 5.75967 4.33696 5.49628 5 5.49628H13C13.1326 5.49628 13.2598 5.54896 13.3536 5.64273C13.4473 5.73649 13.5 5.86367 13.5 5.99628C13.5 6.12889 13.4473 6.25606 13.3536 6.34983C13.2598 6.4436 13.1326 6.49628 13 6.49628H5.41H4.20144L5.05675 7.35013L10.9467 13.2301L10.9467 13.2301L10.95 13.2334C11.2304 13.5082 11.6074 13.6621 12 13.6621C12.3926 13.6621 12.7696 13.5082 13.05 13.2334L13.05 13.2334L13.0536 13.2298L14.8036 11.4798C14.8981 11.3853 15.0263 11.3322 15.16 11.3322C15.2937 11.3322 15.4219 11.3853 15.5164 11.4798C15.611 11.5744 15.6641 11.7026 15.6641 11.8363C15.6641 11.97 15.611 12.0982 15.5164 12.1927L13.7968 13.9124C13.3167 14.3916 12.6672 14.6624 11.989 14.6663C11.3311 14.6653 10.7001 14.4051 10.2329 13.942C10.2326 13.9418 10.2324 13.9415 10.2321 13.9413L4.35385 8.05303ZM20.0578 5.64136L19.7001 5.99628L20.0578 6.35119L21.3578 7.64119L21.3579 7.64128C21.4048 7.68776 21.442 7.74306 21.4673 7.80399C21.4927 7.86492 21.5058 7.93027 21.5058 7.99628C21.5058 8.06229 21.4927 8.12764 21.4673 8.18857C21.442 8.24949 21.4048 8.30479 21.3579 8.35128L21.355 8.35418C21.3085 8.40104 21.2532 8.43824 21.1923 8.46362C21.1314 8.48901 21.066 8.50208 21 8.50208C20.934 8.50208 20.8686 8.48901 20.8077 8.46362C20.7468 8.43824 20.6915 8.40104 20.645 8.35418L20.6449 8.35409L19.3549 7.05409L19 6.69643L18.6451 7.05409L17.3551 8.35409L17.355 8.35418C17.3085 8.40104 17.2532 8.43824 17.1923 8.46362C17.1314 8.48901 17.066 8.50208 17 8.50208C16.934 8.50208 16.8686 8.48901 16.8077 8.46362C16.7468 8.43824 16.6915 8.40104 16.645 8.35418L16.645 8.35417L16.6421 8.35128C16.5952 8.3048 16.558 8.24949 16.5327 8.18857C16.5073 8.12764 16.4942 8.06229 16.4942 7.99628C16.4942 7.93027 16.5073 7.86492 16.5327 7.80399C16.558 7.74307 16.5952 7.68776 16.6421 7.64128L16.6422 7.64119L17.9422 6.35119L18.2999 5.99628L17.9422 5.64136L16.6436 4.35273C16.6433 4.35251 16.6431 4.3523 16.6429 4.35209C16.5488 4.25762 16.4959 4.12967 16.4959 3.99628C16.4959 3.86259 16.549 3.73437 16.6436 3.63983C16.7381 3.5453 16.8663 3.49219 17 3.49219C17.0662 3.49219 17.1317 3.50523 17.1929 3.53056C17.2538 3.55579 17.3092 3.59273 17.3559 3.63928C17.3561 3.63946 17.3563 3.63965 17.3564 3.63983L18.6451 4.93847L19 5.29613L19.3549 4.93847L20.6436 3.63983C20.6437 3.63964 20.6439 3.63944 20.6441 3.63925C20.7386 3.54508 20.8666 3.49219 21 3.49219C21.1337 3.49219 21.2619 3.5453 21.3564 3.63983C21.451 3.73437 21.5041 3.86259 21.5041 3.99628C21.5041 4.12967 21.4512 4.25762 21.3571 4.35209C21.3569 4.3523 21.3567 4.35252 21.3564 4.35273L20.0578 5.64136Z" fill="#111111" stroke="#111111"/>
</svg>
