<svg width="24" height="24" viewBox="0 0 24 24" fill="none" xmlns="http://www.w3.org/2000/svg">
<path d="M3.5 6.20289L4.35355 7.05645L10.2333 12.9362L3.5 6.20289ZM3.5 6.20289V7.41M3.5 6.20289V7.41M3.5 7.41V17C3.5 17.3978 3.65804 17.7794 3.93934 18.0607C4.22065 18.342 4.60218 18.5 5 18.5H19C19.3978 18.5 19.7794 18.342 20.0607 18.0607C20.342 17.7794 20.5 17.3978 20.5 17V9C20.5 8.86739 20.5527 8.74021 20.6464 8.64645C20.7402 8.55268 20.8674 8.5 21 8.5C21.1326 8.5 21.2598 8.55268 21.3536 8.64645C21.4473 8.74021 21.5 8.86739 21.5 9V17C21.5 17.663 21.2366 18.2989 20.7678 18.7678C20.2989 19.2366 19.663 19.5 19 19.5H5C4.33696 19.5 3.70107 19.2366 3.23223 18.7678C2.76339 18.2989 2.5 17.663 2.5 17V7C2.5 6.33696 2.76339 5.70107 3.23223 5.23223C3.70107 4.76339 4.33696 4.5 5 4.5H13C13.1326 4.5 13.2598 4.55268 13.3536 4.64645C13.4473 4.74022 13.5 4.86739 13.5 5C13.5 5.13261 13.4473 5.25978 13.3536 5.35355C13.2598 5.44732 13.1326 5.5 13 5.5H5.41H4.20289L5.05645 6.35355L10.935 12.2321C10.9353 12.2324 10.9356 12.2327 10.9359 12.233C11.0752 12.3732 11.2407 12.4844 11.4231 12.5604C11.6059 12.6366 11.802 12.6758 12 12.6758C12.198 12.6758 12.3941 12.6366 12.5769 12.5604C12.7595 12.4844 12.9252 12.3729 13.0646 12.2325C13.0647 12.2324 13.0649 12.2322 13.065 12.2321L16.6436 8.64355C16.7381 8.54902 16.8663 8.49591 17 8.49591C17.1337 8.49591 17.2619 8.54902 17.3564 8.64355C17.451 8.73809 17.5041 8.86631 17.5041 9C17.5041 9.13363 17.451 9.26179 17.3566 9.35631C17.3565 9.35636 17.3565 9.3564 17.3564 9.35645L13.7669 12.936L13.7667 12.9362M3.5 7.41L13.7667 12.9362M13.7667 12.9362C13.2979 13.4044 12.6625 13.6674 12 13.6674C11.3376 13.6674 10.7023 13.4045 10.2336 12.9364L13.7667 12.9362ZM21 5.5H17C16.8674 5.5 16.7402 5.44732 16.6464 5.35355C16.5527 5.25979 16.5 5.13261 16.5 5C16.5 4.86739 16.5527 4.74021 16.6464 4.64645C16.7402 4.55268 16.8674 4.5 17 4.5H21C21.1326 4.5 21.2598 4.55268 21.3536 4.64645C21.4473 4.74021 21.5 4.86739 21.5 5C21.5 5.13261 21.4473 5.25979 21.3536 5.35355C21.2598 5.44732 21.1326 5.5 21 5.5Z" fill="#111111" stroke="#111111"/>
</svg>
