<svg width="24" height="24" viewBox="0 0 24 24" fill="none" xmlns="http://www.w3.org/2000/svg">
<path d="M20 7.43781V7.79137L20.3333 7.90922C20.8196 8.08115 21.2408 8.39928 21.5392 8.82C21.8375 9.24054 21.9984 9.74301 22 10.2586C22 10.2588 22 10.259 22 10.2592L22 12.2578C22 12.9209 21.7366 13.5567 21.2678 14.0256C20.7989 14.4944 20.163 14.7578 19.5 14.7578H15.5C14.837 14.7578 14.2011 14.4944 13.7322 14.0256C13.2634 13.5567 13 12.9209 13 12.2578V10.2586C13.0016 9.74301 13.1625 9.24054 13.4608 8.82C13.7592 8.39928 14.1804 8.08115 14.6667 7.90922L15 7.79137V7.43781V6.25781C15 5.59477 15.2634 4.95889 15.7322 4.49005C16.2011 4.0212 16.837 3.75781 17.5 3.75781C18.163 3.75781 18.7989 4.0212 19.2678 4.49005C19.7366 4.95889 20 5.59477 20 6.25781V7.43781ZM18.5 7.75781H19V7.25781V6.25781C19 5.85999 18.842 5.47846 18.5607 5.19715C18.2794 4.91585 17.8978 4.75781 17.5 4.75781C17.1022 4.75781 16.7206 4.91585 16.4393 5.19715C16.158 5.47846 16 5.85999 16 6.25781V7.25781V7.75781H16.5H18.5ZM3.85355 9.31426L3 8.46071V9.66781V19.2578C3 19.6556 3.15804 20.0372 3.43934 20.3185C3.72064 20.5998 4.10217 20.7578 4.5 20.7578H18.5C18.8978 20.7578 19.2794 20.5998 19.5607 20.3185C19.842 20.0372 20 19.6556 20 19.2578V18.2578C20 18.1252 20.0527 17.998 20.1464 17.9043C20.2402 17.8105 20.3674 17.7578 20.5 17.7578C20.6326 17.7578 20.7598 17.8105 20.8536 17.9043C20.9473 17.998 21 18.1252 21 18.2578V19.2578C21 19.9209 20.7366 20.5567 20.2678 21.0256C19.7989 21.4944 19.163 21.7578 18.5 21.7578H4.5C3.83696 21.7578 3.20107 21.4944 2.73223 21.0256C2.26339 20.5567 2 19.9209 2 19.2578V9.25781C2 8.59477 2.26339 7.95889 2.73223 7.49005C3.20107 7.0212 3.83696 6.75781 4.5 6.75781H10.5C10.6326 6.75781 10.7598 6.81049 10.8536 6.90426C10.9473 6.99803 11 7.1252 11 7.25781C11 7.39042 10.9473 7.5176 10.8536 7.61137C10.7598 7.70513 10.6326 7.75781 10.5 7.75781H4.91H3.70144L4.55675 8.61167L10.4452 14.4901C10.4454 14.4903 10.4456 14.4905 10.4458 14.4907C10.4918 14.5372 10.5283 14.5923 10.5531 14.6529C10.5781 14.7137 10.5908 14.7788 10.5906 14.8446C10.5903 14.9103 10.5771 14.9754 10.5518 15.036C10.5264 15.0966 10.4893 15.1517 10.4427 15.198C10.3961 15.2443 10.3407 15.281 10.2799 15.3059C10.2191 15.3309 10.154 15.3436 10.0882 15.3434C10.0225 15.3431 9.95745 15.33 9.89681 15.3046C9.83617 15.2792 9.78112 15.2422 9.7348 15.1955L9.73355 15.1943L3.85355 9.31426ZM20.5607 13.3185C20.842 13.0372 21 12.6556 21 12.2578V10.2578C21 9.85999 20.842 9.47846 20.5607 9.19715C20.2794 8.91585 19.8978 8.75781 19.5 8.75781H15.5C15.1022 8.75781 14.7206 8.91585 14.4393 9.19715C14.158 9.47846 14 9.85999 14 10.2578V12.2578C14 12.6556 14.158 13.0372 14.4393 13.3185C14.7206 13.5998 15.1022 13.7578 15.5 13.7578H19.5C19.8978 13.7578 20.2794 13.5998 20.5607 13.3185Z" fill="#111111" stroke="#111111"/>
</svg>
