<svg width="24" height="24" viewBox="0 0 24 24" fill="none" xmlns="http://www.w3.org/2000/svg">
<path d="M5.05736 8.64196L4.1993 9.49628H5.41014H17.0001C17.1327 9.49628 17.2599 9.54896 17.3537 9.64273C17.4475 9.73649 17.5001 9.86367 17.5001 9.99628C17.5001 10.1289 17.4475 10.2561 17.3537 10.3498C17.2599 10.4436 17.1327 10.4963 17.0001 10.4963H3.00161C2.90325 10.4956 2.80728 10.4659 2.7257 10.4109C2.64384 10.3558 2.58015 10.2776 2.54264 10.1863L2.54265 10.1863L2.54105 10.1825C2.50276 10.0914 2.4923 9.99105 2.51098 9.89406C2.52958 9.79751 2.57624 9.70859 2.64509 9.63843L6.64369 5.63983L6.29014 5.28628L6.64369 5.63983C6.73823 5.5453 6.86645 5.49219 7.00014 5.49219C7.13383 5.49219 7.26205 5.5453 7.35659 5.63983C7.45112 5.73437 7.50423 5.86259 7.50423 5.99628C7.50423 6.12983 7.45123 6.25792 7.35689 6.35242C7.35679 6.35252 7.35669 6.35263 7.35659 6.35273L5.05736 8.64196ZM21.4576 13.8063L21.4576 13.8063L21.4592 13.8101C21.4975 13.9011 21.508 14.0015 21.4893 14.0985C21.4707 14.195 21.4241 14.2839 21.3552 14.3541C21.3549 14.3544 21.3546 14.3548 21.3542 14.3551L17.3566 18.3527L17.3551 18.3542C17.3087 18.401 17.2534 18.4382 17.1924 18.4636C17.1315 18.489 17.0661 18.5021 17.0001 18.5021C16.9341 18.5021 16.8688 18.489 16.8079 18.4636C16.7469 18.4382 16.6916 18.401 16.6451 18.3542L16.6422 18.3513C16.5954 18.3048 16.5582 18.2495 16.5328 18.1886C16.5074 18.1276 16.4943 18.0623 16.4943 17.9963C16.4943 17.9303 16.5074 17.8649 16.5328 17.804C16.5582 17.7431 16.5954 17.6878 16.6422 17.6413L16.6429 17.6406L18.9429 15.3506L19.801 14.4963H18.5901H7.00014C6.86753 14.4963 6.74035 14.4436 6.64659 14.3498C6.55282 14.2561 6.50014 14.1289 6.50014 13.9963C6.50014 13.8637 6.55282 13.7365 6.64659 13.6427C6.74036 13.549 6.86753 13.4963 7.00014 13.4963H20.9987C21.0971 13.497 21.193 13.5267 21.2746 13.5816C21.3564 13.6368 21.4201 13.715 21.4576 13.8063Z" fill="#111111" stroke="#111111"/>
</svg>
