<svg width="24" height="24" viewBox="0 0 24 24" fill="none" xmlns="http://www.w3.org/2000/svg">
<path d="M21.44 18.4415C21.5069 18.6014 21.5458 18.7724 21.5544 18.947C21.5676 19.2162 21.508 19.484 21.3819 19.7223L21.3721 19.7199C21.2408 19.9509 21.0504 20.1429 20.8204 20.2762C20.5889 20.4103 20.3257 20.4801 20.0581 20.4783M21.44 18.4415L20.06 19.9783M21.44 18.4415V17.5582L21.1945 17.9949L13.2788 4.22851C13.1529 3.98801 12.9641 3.78612 12.7323 3.64445C12.4968 3.50047 12.226 3.42428 11.95 3.42428C11.6739 3.42428 11.4032 3.50047 11.1676 3.64445C10.9357 3.78625 10.7467 3.98839 10.6207 4.22918L2.62695 18.2183C2.62675 18.2187 2.62655 18.219 2.62635 18.2194C2.49509 18.4471 2.42599 18.7054 2.42599 18.9683C2.42599 19.2307 2.49481 19.4884 2.62553 19.7158C2.75697 19.9486 2.94824 20.1421 3.17957 20.2762C3.41108 20.4103 3.67426 20.4801 3.94181 20.4783M20.0581 20.4783C20.0574 20.4783 20.0566 20.4783 20.0558 20.4783L20.06 19.9783M20.0581 20.4783H20.06V19.9783M20.0581 20.4783H3.94181M20.06 19.9783H3.93997M3.94181 20.4783C3.94257 20.4783 3.94334 20.4783 3.9441 20.4783L3.93997 19.9783M3.94181 20.4783H3.93997V19.9783M22.2365 17.7176L22.2365 17.7176L22.2399 17.7233C22.466 18.1047 22.5867 18.5394 22.5895 18.9828C22.5923 19.4262 22.4771 19.8623 22.2557 20.2465C22.0344 20.6307 21.7148 20.9491 21.3298 21.1691C20.9448 21.3891 20.5083 21.5027 20.0649 21.4983V21.4983H20.06H3.94178C3.50249 21.495 3.07181 21.3761 2.69312 21.1534C2.31397 20.9304 2.00036 20.6113 1.78395 20.2284C1.56755 19.8454 1.456 19.4122 1.46058 18.9723C1.46517 18.5325 1.58571 18.1017 1.81005 17.7233L1.8101 17.7234L1.81409 17.7164L9.81409 3.71639L9.81411 3.7164L9.81663 3.71188C10.0335 3.32314 10.3501 2.99934 10.734 2.77394C11.1178 2.54853 11.5548 2.42969 12 2.42969C12.4451 2.42969 12.8821 2.54853 13.266 2.77394C13.6498 2.99934 13.9665 3.32314 14.1833 3.71188L14.1833 3.7119L14.1865 3.71755L22.2365 17.7176ZM12.1913 17.4603L12.3827 17.9222L12.1913 17.4603C12.0999 17.4981 11.9994 17.508 11.9024 17.4887C11.8054 17.4694 11.7163 17.4218 11.6464 17.3519C11.5765 17.2819 11.5289 17.1929 11.5096 17.0959C11.4903 16.9989 11.5002 16.8983 11.538 16.807C11.5759 16.7156 11.64 16.6375 11.7222 16.5826C11.8044 16.5276 11.9011 16.4983 12 16.4983C12.1326 16.4983 12.2598 16.551 12.3535 16.6448C12.4473 16.7385 12.5 16.8657 12.5 16.9983C12.5 17.0972 12.4706 17.1939 12.4157 17.2761C12.3608 17.3583 12.2827 17.4224 12.1913 17.4603Z" fill="#111111" stroke="#111111"/>
</svg>
