<svg width="24" height="24" viewBox="0 0 24 24" fill="none" xmlns="http://www.w3.org/2000/svg">
<path d="M9.54 9.04H9.04V9.54C9.04 9.67261 8.98732 9.79978 8.89355 9.89355C8.79978 9.98732 8.67261 10.04 8.54 10.04C8.40739 10.04 8.28022 9.98732 8.18645 9.89355C8.09268 9.79978 8.04 9.67261 8.04 9.54V8.54C8.04 8.40739 8.09268 8.28022 8.18645 8.18645C8.28022 8.09268 8.40739 8.04 8.54 8.04H9.54C9.67261 8.04 9.79978 8.09268 9.89355 8.18645C9.98732 8.28022 10.04 8.40739 10.04 8.54C10.04 8.67261 9.98732 8.79978 9.89355 8.89355C9.79978 8.98732 9.67261 9.04 9.54 9.04ZM14.46 14.96H14.96V14.46C14.96 14.3274 15.0127 14.2002 15.1064 14.1064C15.2002 14.0127 15.3274 13.96 15.46 13.96C15.5926 13.96 15.7198 14.0127 15.8136 14.1064C15.9073 14.2002 15.96 14.3274 15.96 14.46V15.46C15.96 15.5257 15.9471 15.5907 15.9219 15.6513C15.8968 15.712 15.86 15.7671 15.8136 15.8136C15.7671 15.86 15.712 15.8968 15.6513 15.9219C15.5907 15.9471 15.5257 15.96 15.46 15.96H14.46C14.3274 15.96 14.2002 15.9073 14.1064 15.8136C14.0127 15.7198 13.96 15.5926 13.96 15.46C13.96 15.3274 14.0127 15.2002 14.1064 15.1064C14.2002 15.0127 14.3274 14.96 14.46 14.96ZM15.96 7.54V8.04H16.46H21C21.1326 8.04 21.2598 8.09268 21.3536 8.18645C21.4473 8.28021 21.5 8.40739 21.5 8.54V21C21.5 21.1326 21.4473 21.2598 21.3536 21.3536C21.2598 21.4473 21.1326 21.5 21 21.5H8.54C8.40739 21.5 8.28021 21.4473 8.18645 21.3536C8.09268 21.2598 8.04 21.1326 8.04 21V16.46V15.96H7.54H3C2.86739 15.96 2.74021 15.9073 2.64645 15.8136C2.55268 15.7198 2.5 15.5926 2.5 15.46V3C2.5 2.86739 2.55268 2.74021 2.64645 2.64645C2.74021 2.55268 2.86739 2.5 3 2.5H15.46C15.5926 2.5 15.7198 2.55268 15.8136 2.64645C15.9073 2.74021 15.96 2.86739 15.96 3V7.54ZM20 20.5H20.5V20V9.54V9.04H20H16.46H15.96V9.54C15.96 9.67261 15.9073 9.79979 15.8136 9.89355C15.7198 9.98732 15.5926 10.04 15.46 10.04C15.3274 10.04 15.2002 9.98732 15.1064 9.89355C15.0127 9.79978 14.96 9.67261 14.96 9.54V9.04H14.46C14.3274 9.04 14.2002 8.98732 14.1064 8.89355C14.0127 8.79978 13.96 8.67261 13.96 8.54C13.96 8.40739 14.0127 8.28022 14.1064 8.18645C14.2002 8.09268 14.3274 8.04 14.46 8.04H14.96V7.54V4V3.5H14.46H4H3.5V4V14.46V14.96H4H7.54H8.04V14.46C8.04 14.3274 8.09268 14.2002 8.18645 14.1064C8.28022 14.0127 8.40739 13.96 8.54 13.96C8.67261 13.96 8.79978 14.0127 8.89355 14.1064C8.98732 14.2002 9.04 14.3274 9.04 14.46V14.96H9.54C9.67261 14.96 9.79978 15.0127 9.89355 15.1064C9.98732 15.2002 10.04 15.3274 10.04 15.46C10.04 15.5926 9.98732 15.7198 9.89355 15.8136C9.79979 15.9073 9.67261 15.96 9.54 15.96H9.04V16.46V20V20.5H9.54H20Z" fill="#111111" stroke="#111111"/>
</svg>
