<svg width="24" height="24" viewBox="0 0 24 24" fill="none" xmlns="http://www.w3.org/2000/svg">
<path d="M20.3536 15.6636L20.5 15.5171V15.31V8.69V8.48289L20.3536 8.33645L15.6636 3.64645L15.5171 3.5H15.31H8.69H8.48289L8.33645 3.64645L3.64645 8.33645L3.5 8.48289V8.69V15.31V15.5171L3.64645 15.6636L8.33645 20.3536L8.48289 20.5H8.69H15.31H15.5171L15.6636 20.3536L20.3536 15.6636ZM11.6464 7.64645C11.7402 7.55268 11.8674 7.5 12 7.5C12.1326 7.5 12.2598 7.55268 12.3536 7.64645C12.4473 7.74022 12.5 7.86739 12.5 8V12C12.5 12.1326 12.4473 12.2598 12.3536 12.3536C12.2598 12.4473 12.1326 12.5 12 12.5C11.8674 12.5 11.7402 12.4473 11.6464 12.3536C11.5527 12.2598 11.5 12.1326 11.5 12V8C11.5 7.86739 11.5527 7.74022 11.6464 7.64645ZM11.7222 15.5843C11.8044 15.5293 11.9011 15.5 12 15.5C12.1326 15.5 12.2598 15.5527 12.3536 15.6464C12.4473 15.7402 12.5 15.8674 12.5 16C12.5 16.0989 12.4707 16.1956 12.4157 16.2778C12.3608 16.36 12.2827 16.4241 12.1913 16.4619C12.1 16.4998 11.9994 16.5097 11.9025 16.4904C11.8055 16.4711 11.7164 16.4235 11.6464 16.3536C11.5765 16.2836 11.5289 16.1945 11.5096 16.0975C11.4903 16.0006 11.5002 15.9 11.5381 15.8087C11.5759 15.7173 11.64 15.6392 11.7222 15.5843ZM15.726 2.5C15.8619 2.50261 15.9921 2.5555 16.0913 2.64842L21.3516 7.90869C21.4445 8.00793 21.4974 8.13809 21.5 8.27407V15.7259C21.4974 15.8619 21.4445 15.9921 21.3516 16.0913L16.0913 21.3516C15.9921 21.4445 15.8619 21.4974 15.7259 21.5H8.27407C8.13809 21.4974 8.00793 21.4445 7.90869 21.3516L2.64842 16.0913C2.5555 15.9921 2.50261 15.8619 2.5 15.726V8.27404C2.50261 8.13807 2.55551 8.00791 2.64843 7.90868L7.90868 2.64843C8.00791 2.55551 8.13807 2.50261 8.27404 2.5H15.726Z" fill="#111111" stroke="#111111"/>
</svg>
