<svg width="24" height="24" viewBox="0 0 24 24" fill="none" xmlns="http://www.w3.org/2000/svg">
<path d="M9.5 7V7.5H10H11C11.1326 7.5 11.2598 7.55268 11.3536 7.64645C11.4473 7.74022 11.5 7.86739 11.5 8C11.5 8.13261 11.4473 8.25978 11.3536 8.35355C11.2598 8.44732 11.1326 8.5 11 8.5H10H9.5V9V10C9.5 10.1326 9.44732 10.2598 9.35355 10.3536C9.25978 10.4473 9.13261 10.5 9 10.5C8.86739 10.5 8.74022 10.4473 8.64645 10.3536C8.55268 10.2598 8.5 10.1326 8.5 10V9V8.5H8H7C6.86739 8.5 6.74022 8.44732 6.64645 8.35355C6.55268 8.25978 6.5 8.13261 6.5 8C6.5 7.86739 6.55268 7.74022 6.64645 7.64645C6.74022 7.55268 6.86739 7.5 7 7.5H8H8.5V7V6C8.5 5.86739 8.55268 5.74022 8.64645 5.64645C8.74021 5.55268 8.86739 5.5 9 5.5C9.13261 5.5 9.25979 5.55268 9.35355 5.64645C9.44732 5.74022 9.5 5.86739 9.5 6V7ZM3.5 18.59V19.7971L4.35355 18.9436L18.9436 4.35355L19.7971 3.5H18.59H5C4.60217 3.5 4.22064 3.65804 3.93934 3.93934C3.65804 4.22064 3.5 4.60217 3.5 5V18.59ZM5.05645 19.6464L4.20289 20.5H5.41H19C19.3978 20.5 19.7794 20.342 20.0607 20.0607C20.342 19.7794 20.5 19.3978 20.5 19V5.41V4.20289L19.6464 5.05645L5.05645 19.6464ZM17 17.5H13C12.8674 17.5 12.7402 17.4473 12.6464 17.3536C12.5527 17.2598 12.5 17.1326 12.5 17C12.5 16.8674 12.5527 16.7402 12.6464 16.6464C12.7402 16.5527 12.8674 16.5 13 16.5H17C17.1326 16.5 17.2598 16.5527 17.3536 16.6464C17.4473 16.7402 17.5 16.8674 17.5 17C17.5 17.1326 17.4473 17.2598 17.3536 17.3536C17.2598 17.4473 17.1326 17.5 17 17.5ZM5 2.5H19C19.663 2.5 20.2989 2.76339 20.7678 3.23223C21.2366 3.70107 21.5 4.33696 21.5 5V19C21.5 19.663 21.2366 20.2989 20.7678 20.7678C20.2989 21.2366 19.663 21.5 19 21.5H5C4.33696 21.5 3.70107 21.2366 3.23223 20.7678C2.76339 20.2989 2.5 19.663 2.5 19V5C2.5 4.33696 2.76339 3.70107 3.23223 3.23223C3.70107 2.76339 4.33696 2.5 5 2.5Z" fill="#111111" stroke="#111111"/>
</svg>
