<svg width="24" height="24" viewBox="0 0 24 24" fill="none" xmlns="http://www.w3.org/2000/svg">
<path d="M21.4608 11.7978L21.4618 11.8C21.4893 11.8631 21.5036 11.9312 21.5036 12C21.5036 12.0688 21.4893 12.1369 21.4618 12.2L21.4608 12.2022C19.496 16.7641 15.8464 19.5 12.0001 19.5C8.15376 19.5 4.50412 16.7641 2.53929 12.2022L2.53832 12.2C2.51079 12.1369 2.49658 12.0688 2.49658 12C2.49658 11.9312 2.51079 11.8631 2.53832 11.8L2.53833 11.8L2.53928 11.7978C4.50412 7.23587 8.15376 4.5 12.0001 4.5C15.8464 4.5 19.496 7.23587 21.4608 11.7978ZM3.64691 11.7887L3.54838 12L3.64691 12.2113C5.42954 16.0342 8.5745 18.5 12.0001 18.5C15.4256 18.5 18.5706 16.0342 20.3532 12.2113L20.4518 12L20.3532 11.7887C18.5706 7.96583 15.4256 5.5 12.0001 5.5C8.5745 5.5 5.42954 7.96583 3.64691 11.7887ZM10.0556 9.08986C10.6311 8.70527 11.3078 8.5 12.0001 8.5C12.9283 8.5 13.8186 8.86875 14.4749 9.52513C15.1313 10.1815 15.5001 11.0717 15.5001 12C15.5001 12.6922 15.2948 13.3689 14.9102 13.9445C14.5256 14.5201 13.979 14.9687 13.3395 15.2336C12.6999 15.4985 11.9962 15.5678 11.3173 15.4327C10.6383 15.2977 10.0147 14.9644 9.52519 14.4749C9.03571 13.9854 8.70237 13.3617 8.56732 12.6828C8.43227 12.0039 8.50158 11.3001 8.76649 10.6606C9.03139 10.0211 9.48 9.47444 10.0556 9.08986ZM10.6111 14.0787C11.0223 14.3534 11.5056 14.5 12.0001 14.5C12.6631 14.5 13.299 14.2366 13.7678 13.7678C14.2367 13.2989 14.5001 12.663 14.5001 12C14.5001 11.5055 14.3534 11.0222 14.0787 10.6111C13.804 10.2 13.4136 9.87952 12.9568 9.6903C12.5 9.50108 11.9973 9.45157 11.5123 9.54804C11.0274 9.6445 10.5819 9.8826 10.2323 10.2322C9.88267 10.5819 9.64457 11.0273 9.5481 11.5123C9.45164 11.9972 9.50115 12.4999 9.69037 12.9567C9.87959 13.4135 10.2 13.804 10.6111 14.0787Z" fill="#111111" stroke="#111111"/>
</svg>
