<svg width="24" height="24" viewBox="0 0 24 24" fill="none" xmlns="http://www.w3.org/2000/svg">
<path d="M11.1002 9.47854L13.4402 11.2285C13.5441 11.3064 13.6704 11.3485 13.8002 11.3485C13.9301 11.3485 14.0564 11.3064 14.1602 11.2285M11.1002 9.47854L11.4005 9.07874L13.7397 10.8281L13.7402 10.8285C13.7576 10.8415 13.7786 10.8485 13.8002 10.8485C13.8216 10.8485 13.8424 10.8417 13.8595 10.8291L13.8578 10.8304L14.1602 11.2285M11.1002 9.47854C10.9344 9.35403 10.7446 9.26524 10.5428 9.21778C10.341 9.17032 10.1315 9.16523 9.92755 9.20281C9.72364 9.2404 9.52974 9.31985 9.35808 9.43616C9.18643 9.55247 9.04075 9.7031 8.93024 9.87854L11.1002 9.47854ZM14.1602 11.2285L13.8602 10.8285M14.1602 11.2285L17.3202 8.82854C17.4082 8.76067 17.5175 8.72618 17.6285 8.7312C17.7395 8.73621 17.8452 8.78041 17.9267 8.85595C18.0082 8.93148 18.0603 9.03346 18.0738 9.14378C18.0873 9.2541 18.0612 9.36562 18.0002 9.45854L13.8602 10.8285M13.8602 10.8285L17.0149 8.43261C17.0155 8.43217 17.016 8.43174 17.0166 8.4313C17.1979 8.29209 17.4226 8.22139 17.6511 8.23171C17.8802 8.24206 18.0982 8.33328 18.2665 8.48916C18.4348 8.64504 18.5423 8.85551 18.5701 9.0832C18.5977 9.30899 18.545 9.53723 18.4214 9.72805M13.8602 10.8285L18.4214 9.72805M18.4214 9.72805L15.4935 14.3847L15.4933 14.385C15.346 14.6189 15.1517 14.8198 14.9229 14.9749C14.694 15.1299 14.4355 15.2359 14.1636 15.286C13.8917 15.3361 13.6124 15.3293 13.3433 15.266C13.0743 15.2028 12.8214 15.0845 12.6004 14.9187C12.6003 14.9186 12.6001 14.9185 12.6 14.9183L10.2608 13.169L10.2602 13.1685C10.2429 13.1556 10.2219 13.1485 10.2002 13.1485C10.1789 13.1485 10.1581 13.1554 10.141 13.168C10.1407 13.1682 10.1405 13.1684 10.1402 13.1685L6.98559 15.5645C6.98503 15.5649 6.98447 15.5653 6.9839 15.5658C6.80257 15.705 6.57786 15.7757 6.34943 15.7654C6.12029 15.755 5.90224 15.6638 5.73398 15.5079L6.07379 15.1411L5.73398 15.5079C5.56572 15.352 5.45815 15.1416 5.43036 14.9139C5.4028 14.6881 5.45548 14.4599 5.57908 14.269L8.50696 9.6124L8.50717 9.61207C8.65451 9.37814 8.84874 9.1773 9.07762 9.02223C9.30649 8.86715 9.56503 8.76121 9.83691 8.7111C10.1088 8.66098 10.3881 8.66778 10.6572 8.73105C10.9262 8.79429 11.1791 8.91256 11.4001 9.07842L18.4214 9.72805ZM11.9821 2.49821L11.9908 2.49853L11.9995 2.49854C14.4448 2.50232 16.7884 3.47733 18.5148 5.20908C20.2412 6.94083 21.209 9.28747 21.2052 11.7328C21.2015 14.1781 20.2265 16.5217 18.4947 18.2481C16.763 19.9745 14.4163 20.9423 11.971 20.9385L11.9687 20.9385C11.041 20.9414 10.117 20.8212 9.22083 20.5813C8.94318 20.4834 8.63954 20.4866 8.36358 20.5908L8.35207 20.5951L8.3408 20.6L6.34228 21.4694C6.34207 21.4695 6.34186 21.4696 6.34166 21.4697C6.29567 21.4894 6.2456 21.4977 6.19571 21.4938C6.1456 21.49 6.09717 21.474 6.05461 21.4472C6.01205 21.4205 5.97663 21.3838 5.95141 21.3403C5.92752 21.2992 5.91345 21.2531 5.91024 21.2056V19.4385V19.4247L5.90948 19.4109C5.89992 19.2386 5.85643 19.0699 5.78149 18.9145C5.70679 18.7595 5.60232 18.6208 5.47404 18.5063C4.52385 17.649 3.76718 16.5992 3.25441 15.4267C2.74144 14.2537 2.48433 12.9849 2.5002 11.7047L2.50029 11.7047L2.50023 11.6956C2.49303 10.4616 2.73552 9.23887 3.21311 8.101C3.6907 6.96312 4.39353 5.93361 5.27932 5.07439C6.1651 4.21518 7.21554 3.54403 8.36743 3.1013C9.51932 2.65858 10.7489 2.45343 11.9821 2.49821Z" fill="#111111" stroke="#111111"/>
</svg>
