<svg width="24" height="24" viewBox="0 0 24 24" fill="none" xmlns="http://www.w3.org/2000/svg">
<path d="M13.6202 16V16H5.68354C5.32759 16.0042 4.98168 15.8817 4.7077 15.6543C4.43283 15.4262 4.2484 15.1074 4.18759 14.7554L13.6202 16ZM13.6202 16L13.6244 16C13.8423 15.9982 14.0571 15.9489 14.254 15.8556C14.4505 15.7625 14.6245 15.6278 14.7638 15.4607C14.9033 15.2944 15.005 15.0997 15.0619 14.8903C15.1188 14.6805 15.1295 14.4608 15.0932 14.2465L15.0932 14.2465L15.0926 14.243L14.2926 9.71305L14.1127 8.6944L13.4262 9.46817L11.0662 12.1282L11.0657 12.1288C10.6383 12.612 10.0406 12.9113 9.39768 12.9641C8.75484 13.0169 8.11648 12.8192 7.61601 12.4123C7.61591 12.4122 7.61581 12.4122 7.61571 12.4121L4.18643 9.61267L3.14865 8.76551L3.37759 10.0854L4.18751 14.7549L13.6202 16ZM14.3614 7.66665L14.3613 7.66673L14.3694 7.67345C14.8014 8.03503 15.0944 8.5355 15.1983 9.08921L16.0778 14.0867L16.078 14.0875C16.1405 14.4397 16.1268 14.8013 16.0377 15.1477C15.9489 15.4926 15.7876 15.8146 15.5643 16.092C15.3308 16.3688 15.0399 16.5916 14.7118 16.745C14.3823 16.8989 14.0232 16.9791 13.6595 16.98C13.6594 16.98 13.6592 16.98 13.6591 16.98L5.72024 16.98V16.9799L5.71268 16.9801C5.11831 16.989 4.54018 16.7859 4.08202 16.4072C3.62386 16.0285 3.31565 15.4988 3.21268 14.9134L3.21267 14.9133L2.33373 9.91934C2.28167 9.57172 2.30349 9.21702 2.39779 8.87837C2.4926 8.53794 2.6585 8.22147 2.88456 7.94984L3.00024 7.81084V7.76832C3.21439 7.55744 3.46519 7.38655 3.74084 7.2643C4.07177 7.11754 4.43062 7.0444 4.79259 7.04994L4.79259 7.05H4.80024H12.6902V7.05002L12.6947 7.04998C13.3071 7.04448 13.9001 7.26391 14.3614 7.66665ZM12.6544 8.83165L13.3916 8H12.2802H5.17024H3.76021L4.85524 8.8883L8.24391 11.6372C8.24417 11.6374 8.24444 11.6376 8.2447 11.6379C8.54427 11.8823 8.92666 12.0015 9.31208 11.9708C9.69784 11.9401 10.0568 11.7614 10.3139 11.4722L10.3144 11.4717L12.6544 8.83165ZM19.2102 11H21.2102C21.3428 11 21.47 11.0527 21.5638 11.1464C21.6576 11.2402 21.7102 11.3674 21.7102 11.5C21.7102 11.6326 21.6576 11.7598 21.5638 11.8536C21.47 11.9473 21.3428 12 21.2102 12H19.2102C19.0776 12 18.9505 11.9473 18.8567 11.8536C18.7629 11.7598 18.7102 11.6326 18.7102 11.5C18.7102 11.3674 18.7629 11.2402 18.8567 11.1464C18.9505 11.0527 19.0776 11 19.2102 11ZM21.5638 7.85355C21.47 7.94732 21.3428 8 21.2102 8H18.2102C18.0776 8 17.9505 7.94732 17.8567 7.85355C17.7629 7.75978 17.7102 7.63261 17.7102 7.5C17.7102 7.36739 17.7629 7.24022 17.8567 7.14645C17.9505 7.05268 18.0776 7 18.2102 7H21.2102C21.3428 7 21.47 7.05268 21.5638 7.14645C21.6576 7.24021 21.7102 7.36739 21.7102 7.5C21.7102 7.63261 21.6576 7.75979 21.5638 7.85355Z" fill="#111111" stroke="#111111"/>
</svg>
