<svg width="24" height="24" viewBox="0 0 24 24" fill="none" xmlns="http://www.w3.org/2000/svg">
<path d="M9.23645 15.4611C9.37576 15.6282 9.54973 15.7629 9.74631 15.856C9.94318 15.9493 10.158 15.9985 10.3758 16.0004V16.0004H10.38H18.3067C18.6627 16.0046 19.0086 15.8821 19.2826 15.6547C19.5573 15.4267 19.7417 15.1081 19.8026 14.7563C19.8027 14.756 19.8027 14.7557 19.8028 14.7553L20.6225 10.0869L20.855 8.76255L19.8137 9.61316L16.3754 12.4218C16.3751 12.422 16.3748 12.4222 16.3746 12.4225C15.8731 12.828 15.2344 13.0242 14.5918 12.9698C13.9488 12.9155 13.3517 12.6146 12.9254 12.1301L12.9248 12.1293L10.5748 9.46934L9.88804 8.69204L9.70766 9.71343L8.90766 14.2434L8.90765 14.2434L8.90707 14.2468C8.87074 14.4612 8.88144 14.6808 8.93842 14.8906C8.99532 15.1001 9.097 15.2948 9.23645 15.4611ZM9.23645 15.4611C9.23666 15.4614 9.23686 15.4616 9.23707 15.4618L9.62004 15.1404L9.23584 15.4604C9.23604 15.4606 9.23625 15.4609 9.23645 15.4611ZM20.3006 7.23235C20.5907 7.36699 20.8518 7.55582 21.07 7.78813V7.8377L21.1817 7.9754C21.4046 8.25004 21.5666 8.56884 21.6571 8.91073C21.7474 9.25184 21.7644 9.60819 21.7071 9.95635C21.707 9.95715 21.7069 9.95794 21.7068 9.95873L20.8276 14.9537L20.8276 14.9538C20.7246 15.5392 20.4164 16.0688 19.9583 16.4476C19.5001 16.8263 18.922 17.0294 18.3276 17.0204V17.0204H18.32L10.3812 17.0204C10.381 17.0204 10.3809 17.0204 10.3808 17.0204C10.0171 17.0195 9.65799 16.9393 9.32851 16.7853C8.9989 16.6313 8.70688 16.4072 8.47283 16.1287L8.47253 16.1284C8.23726 15.8489 8.06608 15.5213 7.97106 15.1685C7.87604 14.8158 7.85947 14.4465 7.92253 14.0867L8.80247 9.08705L8.80261 9.08708L8.80441 9.07519C8.88986 8.51053 9.17145 7.99401 9.59975 7.61627C10.0609 7.21402 10.6536 6.99487 11.2655 7.00036V7.00038H11.27H19.2V7.00045L19.208 7.00032C19.5851 6.99428 19.9586 7.0736 20.3006 7.23235ZM19.1452 8.88858L20.2393 8.00038H18.83H11.72H10.6119L11.3452 8.83124L13.6738 11.4697C13.6741 11.47 13.6743 11.4703 13.6746 11.4706C13.9296 11.7615 14.2871 11.9426 14.6726 11.9761C15.0584 12.0097 15.4423 11.8927 15.7438 11.6497L15.7452 11.6486L19.1452 8.88858ZM2.79004 11.0004H4.79004C4.92265 11.0004 5.04982 11.0531 5.14359 11.1468C5.23736 11.2406 5.29004 11.3678 5.29004 11.5004C5.29004 11.633 5.23736 11.7602 5.14359 11.8539C5.04982 11.9477 4.92265 12.0004 4.79004 12.0004H2.79004C2.65743 12.0004 2.53025 11.9477 2.43649 11.8539C2.34272 11.7602 2.29004 11.633 2.29004 11.5004C2.29004 11.3678 2.34272 11.2406 2.43649 11.1468C2.53025 11.0531 2.65743 11.0004 2.79004 11.0004ZM2.79004 7.00038H5.79004C5.92265 7.00038 6.04982 7.05306 6.14359 7.14683C6.23736 7.2406 6.29004 7.36778 6.29004 7.50038C6.29004 7.63299 6.23736 7.76017 6.14359 7.85394C6.04982 7.94771 5.92265 8.00038 5.79004 8.00038H2.79004C2.65743 8.00038 2.53025 7.94771 2.43649 7.85394C2.34272 7.76017 2.29004 7.63299 2.29004 7.50038C2.29004 7.36778 2.34272 7.2406 2.43649 7.14683C2.53025 7.05306 2.65743 7.00038 2.79004 7.00038Z" fill="#111111" stroke="#111111"/>
</svg>
