<svg width="24" height="24" viewBox="0 0 24 24" fill="none" xmlns="http://www.w3.org/2000/svg">
<path d="M19.1735 15.5354L19.1862 15.5411L19.1992 15.5462C19.2554 15.5679 19.3071 15.5996 19.3519 15.6397C19.3963 15.6914 19.4323 15.7498 19.4587 15.8128L19.4591 15.8138C19.4974 15.9049 19.5078 16.0052 19.4892 16.1022C19.4713 16.1949 19.4276 16.2805 19.3632 16.3493C19.3108 16.3949 19.2514 16.4318 19.1872 16.4587L19.1872 16.4587L19.184 16.46C19.1243 16.4855 19.0603 16.499 18.9955 16.5C18.9302 16.5002 18.8656 16.4876 18.8052 16.4629C18.7451 16.4384 18.6904 16.4024 18.644 16.3569C18.5757 16.2869 18.5294 16.1983 18.5108 16.1022C18.4922 16.0052 18.5026 15.9049 18.5409 15.8138L18.5413 15.8128C18.5677 15.7498 18.6037 15.6914 18.6481 15.6397C18.6929 15.5996 18.7446 15.5679 18.8008 15.5462L18.8138 15.5411L18.8265 15.5354C18.881 15.5106 18.9402 15.4979 19 15.4979C19.0598 15.4979 19.119 15.5106 19.1735 15.5354ZM19.3902 8.64734C19.4083 8.66696 19.4249 8.6878 19.44 8.70968V8.75183L19.4661 8.82938C19.4817 8.8757 19.493 8.92332 19.5 8.97165V8.97182V8.97203V8.97224V8.97245V8.97266V8.97287V8.97307V8.97328V8.97348V8.97369V8.97389V8.97409V8.97429V8.97449V8.97469V8.97488V8.97508V8.97528V8.97547V8.97566V8.97586V8.97605V8.97624V8.97643V8.97661V8.9768V8.97699V8.97717V8.97736V8.97754V8.97772V8.9779V8.97808V8.97826V8.97844V8.97862V8.97879V8.97897V8.97914V8.97932V8.97949V8.97966V8.97983V8.98V8.98017V8.98034V8.9805V8.98067V8.98083V8.981V8.98116V8.98132V8.98148V8.98164V8.9818V8.98196V8.98212V8.98227V8.98243V8.98258V8.98274V8.98289V8.98304V8.98319V8.98334V8.98349V8.98364V8.98379V8.98393V8.98408V8.98422V8.98437V8.98451V8.98465V8.9848V8.98494V8.98507V8.98521V8.98535V8.98549V8.98562V8.98576V8.98589V8.98603V8.98616V8.98629V8.98642V8.98655V8.98668V8.98681V8.98694V8.98706V8.98719V8.98732V8.98744V8.98756V8.98769V8.98781V8.98793V8.98805V8.98817V8.98829V8.98841V8.98852V8.98864V8.98876V8.98887V8.98898V8.9891V8.98921V8.98932V8.98943V8.98954V8.98965V8.98976V8.98987V8.98997V8.99008V8.99019V8.99029V8.9904V8.9905V8.9906V8.9907V8.9908V8.9909V8.991V8.9911V8.9912V8.9913V8.99139V8.99149V8.99159V8.99168V8.99177V8.99187V8.99196V8.99205V8.99214V8.99223V8.99232V8.99241V8.9925V8.99259V8.99267V8.99276V8.99285V8.99293V8.99301V8.9931V8.99318V8.99326V8.99334V8.99343V8.99351V8.99359V8.99366V8.99374V8.99382V8.9939V8.99397V8.99405V8.99412V8.9942V8.99427V8.99435V8.99442V8.99449V8.99456V8.99463V8.9947V8.99477V8.99484V8.99491V8.99498V8.99504V8.99511V8.99517V8.99524V8.9953V8.99537V8.99543V8.99549V8.99556V8.99562V8.99568V8.99574V8.9958V8.99586V8.99592V8.99598V8.99603V8.99609V8.99615V8.9962V8.99626V8.99632V8.99637V8.99642V8.99648V8.99653V8.99658V8.99663V8.99669V8.99674V8.99679V8.99684V8.99688V8.99693V8.99698V8.99703V8.99708V8.99712V8.99717V8.99722V8.99726V8.9973V8.99735V8.99739V8.99744V8.99748V8.99752V8.99756V8.9976V8.99764V8.99769V8.99773V8.99776V8.9978V8.99784V8.99788V8.99792V8.99795V8.99799V8.99803V8.99806V8.9981V8.99813V8.99817V8.9982V8.99824V8.99827V8.9983V8.99834V8.99837V8.9984V8.99843V8.99846V8.99849V8.99852V8.99855V8.99858V8.99861V8.99864V8.99866V8.99869V8.99872V8.99875V8.99877V8.9988V8.99883V8.99885V8.99888V8.9989V8.99892V8.99895V8.99897V8.99899V8.99902V8.99904V8.99906V8.99908V8.99911V8.99913V8.99915V8.99917V8.99919V8.99921V8.99923V8.99925V8.99927V8.99928V8.9993V8.99932V8.99934V8.99935V8.99937V8.99939V8.9994V8.99942V8.99944V8.99945V8.99947V8.99948V8.9995V8.99951V8.99953V8.99954V8.99955V8.99957V8.99958V8.99959V8.9996V8.99962V8.99963V8.99964V8.99965V8.99966V8.99967V8.99968V8.9997V8.99971V8.99972V8.99973V8.99973V8.99974V8.99975V8.99976V8.99977V8.99978V8.99979V8.9998V8.9998V8.99981V8.99982V8.99983V8.99983V8.99985V8.99986V8.99987V8.99988V8.99989V8.9999V8.99991V8.99992V8.99993V8.99994V8.99994V8.99995V8.99996V8.99997V8.99998V8.99999V8.99999V9V12C19.5 12.1326 19.4473 12.2598 19.3536 12.3536C19.2598 12.4473 19.1326 12.5 19 12.5C18.8674 12.5 18.7402 12.4473 18.6464 12.3536C18.5527 12.2598 18.5 12.1326 18.5 12V10V9.5H18H15C14.337 9.5 13.7011 9.23661 13.2322 8.76777C12.7634 8.29893 12.5 7.66304 12.5 7V4V3.5H12H7C6.60217 3.5 6.22064 3.65804 5.93934 3.93934C5.65804 4.22064 5.5 4.60217 5.5 5V19C5.5 19.3978 5.65804 19.7794 5.93934 20.0607C6.22065 20.342 6.60218 20.5 7 20.5H15C15.1326 20.5 15.2598 20.5527 15.3536 20.6464C15.4473 20.7402 15.5 20.8674 15.5 21C15.5 21.1326 15.4473 21.2598 15.3536 21.3536C15.2598 21.4473 15.1326 21.5 15 21.5H7C6.33696 21.5 5.70107 21.2366 5.23223 20.7678C4.76339 20.2989 4.5 19.663 4.5 19V5C4.5 4.33696 4.76339 3.70107 5.23223 3.23223C5.70107 2.76339 6.33696 2.5 7 2.5H13.0129C13.0544 2.50787 13.0945 2.52263 13.1313 2.54373L13.2803 2.62919L13.3528 2.61888C13.3702 2.63154 13.3868 2.64519 13.4027 2.65976L19.3902 8.64734ZM14.3536 5.05645L13.5 4.20289V5.41V7C13.5 7.39782 13.658 7.77936 13.9393 8.06066C14.2206 8.34196 14.6022 8.5 15 8.5H16.59H17.7971L16.9436 7.64645L14.3536 5.05645ZM8.64645 16.6464C8.74021 16.5527 8.86739 16.5 9 16.5H15C15.1326 16.5 15.2598 16.5527 15.3536 16.6464C15.4473 16.7402 15.5 16.8674 15.5 17C15.5 17.1326 15.4473 17.2598 15.3536 17.3536C15.2598 17.4473 15.1326 17.5 15 17.5H9C8.86739 17.5 8.74021 17.4473 8.64645 17.3536C8.55268 17.2598 8.5 17.1326 8.5 17C8.5 16.8674 8.55268 16.7402 8.64645 16.6464ZM10 9.5H9C8.86739 9.5 8.74022 9.44732 8.64645 9.35355C8.55268 9.25978 8.5 9.13261 8.5 9C8.5 8.86739 8.55268 8.74022 8.64645 8.64645C8.74022 8.55268 8.86739 8.5 9 8.5H10C10.1326 8.5 10.2598 8.55268 10.3536 8.64645C10.4473 8.74022 10.5 8.86739 10.5 9C10.5 9.13261 10.4473 9.25978 10.3536 9.35355C10.2598 9.44732 10.1326 9.5 10 9.5ZM9 12.5H15C15.1326 12.5 15.2598 12.5527 15.3536 12.6464C15.4473 12.7402 15.5 12.8674 15.5 13C15.5 13.1326 15.4473 13.2598 15.3536 13.3536C15.2598 13.4473 15.1326 13.5 15 13.5H9C8.86739 13.5 8.74022 13.4473 8.64645 13.3536C8.55268 13.2598 8.5 13.1326 8.5 13C8.5 12.8674 8.55268 12.7402 8.64645 12.6464C8.74022 12.5527 8.86739 12.5 9 12.5ZM18.6464 18.6464C18.7402 18.5527 18.8674 18.5 19 18.5C19.1326 18.5 19.2598 18.5527 19.3536 18.6464C19.4473 18.7402 19.5 18.8674 19.5 19V21C19.5 21.1326 19.4473 21.2598 19.3536 21.3536C19.2598 21.4473 19.1326 21.5 19 21.5C18.8674 21.5 18.7402 21.4473 18.6464 21.3536C18.5527 21.2598 18.5 21.1326 18.5 21V19C18.5 18.8674 18.5527 18.7402 18.6464 18.6464Z" fill="#111111" stroke="#111111"/>
</svg>
