<svg width="24" height="24" viewBox="0 0 24 24" fill="none" xmlns="http://www.w3.org/2000/svg">
<path d="M14.349 19.1677L14.4673 19.5H14.82H21C21.1326 19.5 21.2598 19.5527 21.3536 19.6464C21.4473 19.7402 21.5 19.8674 21.5 20C21.5 20.1326 21.4473 20.2598 21.3536 20.3536C21.2598 20.4473 21.1326 20.5 21 20.5H14.82H14.4696L14.35 20.8294C14.1748 21.312 13.8553 21.729 13.4349 22.0237C13.0144 22.3184 12.5134 22.4765 12 22.4765C11.4866 22.4765 10.9856 22.3184 10.5651 22.0237C10.1447 21.729 9.82517 21.312 9.65 20.8294L9.53044 20.5H9.18H3C2.86739 20.5 2.74021 20.4473 2.64645 20.3536C2.55268 20.2598 2.5 20.1326 2.5 20C2.5 19.8674 2.55268 19.7402 2.64645 19.6464C2.74021 19.5527 2.86739 19.5 3 19.5H9.18H9.53273L9.65104 19.1677C9.77547 18.8182 9.97613 18.5008 10.2385 18.2385C10.5008 17.9761 10.8182 17.7755 11.1677 17.651L11.5 17.5327V17.18V15V14.5H11H8C7.33696 14.5 6.70107 14.2366 6.23223 13.7678C5.76339 13.2989 5.5 12.663 5.5 12V4C5.5 3.33696 5.76339 2.70107 6.23223 2.23223C6.70107 1.76339 7.33696 1.5 8 1.5H12.0129C12.0544 1.50787 12.0945 1.52263 12.1313 1.54374L12.2803 1.62919L12.3528 1.61888C12.3702 1.63154 12.3868 1.64519 12.4027 1.65976L18.3902 7.64734C18.4083 7.66696 18.4249 7.6878 18.44 7.70968V7.75183L18.4661 7.82939C18.4817 7.8757 18.493 7.92332 18.5 7.97165V7.97182V7.97203V7.97224V7.97245V7.97266V7.97287V7.97307V7.97328V7.97348V7.97369V7.97389V7.97409V7.97429V7.97449V7.97469V7.97488V7.97508V7.97528V7.97547V7.97566V7.97586V7.97605V7.97624V7.97643V7.97661V7.9768V7.97699V7.97717V7.97736V7.97754V7.97772V7.9779V7.97808V7.97826V7.97844V7.97862V7.97879V7.97897V7.97914V7.97932V7.97949V7.97966V7.97983V7.98V7.98017V7.98034V7.9805V7.98067V7.98083V7.981V7.98116V7.98132V7.98148V7.98164V7.9818V7.98196V7.98212V7.98227V7.98243V7.98258V7.98274V7.98289V7.98304V7.98319V7.98334V7.98349V7.98364V7.98379V7.98393V7.98408V7.98423V7.98437V7.98451V7.98465V7.9848V7.98494V7.98507V7.98521V7.98535V7.98549V7.98562V7.98576V7.98589V7.98603V7.98616V7.98629V7.98642V7.98655V7.98668V7.98681V7.98694V7.98707V7.98719V7.98732V7.98744V7.98756V7.98769V7.98781V7.98793V7.98805V7.98817V7.98829V7.98841V7.98852V7.98864V7.98876V7.98887V7.98898V7.9891V7.98921V7.98932V7.98943V7.98954V7.98965V7.98976V7.98987V7.98997V7.99008V7.99019V7.99029V7.9904V7.9905V7.9906V7.9907V7.9908V7.9909V7.991V7.9911V7.9912V7.9913V7.99139V7.99149V7.99159V7.99168V7.99177V7.99187V7.99196V7.99205V7.99214V7.99223V7.99232V7.99241V7.9925V7.99259V7.99267V7.99276V7.99285V7.99293V7.99302V7.9931V7.99318V7.99326V7.99335V7.99343V7.99351V7.99359V7.99366V7.99374V7.99382V7.9939V7.99397V7.99405V7.99412V7.9942V7.99427V7.99435V7.99442V7.99449V7.99456V7.99463V7.9947V7.99477V7.99484V7.99491V7.99498V7.99504V7.99511V7.99517V7.99524V7.9953V7.99537V7.99543V7.99549V7.99556V7.99562V7.99568V7.99574V7.9958V7.99586V7.99592V7.99598V7.99604V7.99609V7.99615V7.9962V7.99626V7.99632V7.99637V7.99642V7.99648V7.99653V7.99658V7.99663V7.99669V7.99674V7.99679V7.99684V7.99689V7.99693V7.99698V7.99703V7.99708V7.99712V7.99717V7.99722V7.99726V7.9973V7.99735V7.99739V7.99744V7.99748V7.99752V7.99756V7.9976V7.99764V7.99769V7.99773V7.99776V7.9978V7.99784V7.99788V7.99792V7.99796V7.99799V7.99803V7.99806V7.9981V7.99813V7.99817V7.9982V7.99824V7.99827V7.9983V7.99834V7.99837V7.9984V7.99843V7.99846V7.99849V7.99852V7.99855V7.99858V7.99861V7.99864V7.99867V7.99869V7.99872V7.99875V7.99877V7.9988V7.99883V7.99885V7.99888V7.9989V7.99892V7.99895V7.99897V7.99899V7.99902V7.99904V7.99906V7.99908V7.99911V7.99913V7.99915V7.99917V7.99919V7.99921V7.99923V7.99925V7.99927V7.99928V7.9993V7.99932V7.99934V7.99935V7.99937V7.99939V7.9994V7.99942V7.99944V7.99945V7.99947V7.99948V7.9995V7.99951V7.99954V7.99957V7.99959V7.99962V7.99964V7.99966V7.99968V7.99971V7.99973V7.99974V7.99976V7.99978V7.9998V7.99981V7.99983V7.99985V7.99987V7.99988V7.9999V7.99991V7.99993V7.99994V7.99996V7.99998V8V12C18.5 12.663 18.2366 13.2989 17.7678 13.7678C17.2989 14.2366 16.663 14.5 16 14.5H13H12.5V15V17.18V17.5327L12.8323 17.651C13.1818 17.7755 13.4992 17.9761 13.7615 18.2385C14.0239 18.5008 14.2245 18.8182 14.349 19.1677ZM13.3536 4.05645L12.5 3.20289V4.41V6C12.5 6.39782 12.658 6.77936 12.9393 7.06066C13.2206 7.34196 13.6022 7.5 14 7.5H15.59H16.7971L15.9436 6.64645L13.3536 4.05645ZM11.5 3V2.5H11H8C7.60218 2.5 7.22064 2.65803 6.93934 2.93934C6.65804 3.22064 6.5 3.60217 6.5 4V12C6.5 12.3978 6.65804 12.7794 6.93934 13.0607C7.22064 13.342 7.60218 13.5 8 13.5H16C16.3978 13.5 16.7794 13.342 17.0607 13.0607C17.342 12.7794 17.5 12.3978 17.5 12V9V8.5H17H14C13.337 8.5 12.7011 8.23661 12.2322 7.76777C11.7634 7.29893 11.5 6.66304 11.5 6V3ZM11.1666 21.2472C11.4133 21.412 11.7033 21.5 12 21.5C12.3978 21.5 12.7794 21.342 13.0607 21.0607C13.342 20.7794 13.5 20.3978 13.5 20C13.5 19.7033 13.412 19.4133 13.2472 19.1666C13.0824 18.92 12.8481 18.7277 12.574 18.6142C12.2999 18.5007 11.9983 18.4709 11.7074 18.5288C11.4164 18.5867 11.1491 18.7296 10.9393 18.9393C10.7296 19.1491 10.5867 19.4164 10.5288 19.7074C10.4709 19.9983 10.5006 20.2999 10.6142 20.574C10.7277 20.8481 10.92 21.0824 11.1666 21.2472Z" fill="#111111" stroke="#111111"/>
</svg>
