<svg width="24" height="24" viewBox="0 0 24 24" fill="none" xmlns="http://www.w3.org/2000/svg">
<path d="M15.7509 13.5C15.5827 13.4995 15.4163 13.5352 15.2632 13.6048L14.6062 13.9033L15.1164 14.4136L16.5564 15.8536L16.7029 16H16.91H17.25C17.5455 16 17.8381 16.0582 18.111 16.1713C18.384 16.2843 18.6321 16.4501 18.841 16.659C19.0499 16.8679 19.2157 17.116 19.3287 17.389C19.4418 17.6619 19.5 17.9545 19.5 18.25V18.2506V18.2512V18.2518V18.2523V18.2529V18.2535V18.2541V18.2547V18.2553V18.2559V18.2564V18.257V18.2576V18.2582V18.2588V18.2594V18.26V18.2605V18.2611V18.2617V18.2623V18.2629V18.2635V18.2641V18.2647V18.2652V18.2658V18.2664V18.267V18.2676V18.2682V18.2688V18.2693V18.2699V18.2705V18.2711V18.2717V18.2723V18.2729V18.2734V18.274V18.2746V18.2752V18.2758V18.2764V18.277V18.2775V18.2781V18.2787V18.2793V18.2799V18.2805V18.2811V18.2817V18.2822V18.2828V18.2834V18.284V18.2846V18.2852V18.2858V18.2863V18.2869V18.2875V18.2881V18.2887V18.2893V18.2899V18.2905V18.291V18.2916V18.2922V18.2928V18.2934V18.294V18.2946V18.2952V18.2957V18.2963V18.2969V18.2975V18.2981V18.2987V18.2993V18.2999V18.3004V18.301V18.3016V18.3022V18.3028V18.3034V18.304V18.3046V18.3051V18.3057V18.3063V18.3069V18.3075V18.3081V18.3087V18.3093V18.3098V18.3104V18.311V18.3116V18.3122V18.3128V18.3134V18.314V18.3146V18.3151V18.3157V18.3163V18.3169V18.3175V18.3181V18.3187V18.3193V18.3199V18.3204V18.321V18.3216V18.3222V18.3228V18.3234V18.324V18.3246V18.3252V18.3257V18.3263V18.3269V18.3275V18.3281V18.3287V18.3293V18.3299V18.3305V18.3311V18.3316V18.3322V18.3328V18.3334V18.334V18.3346V18.3352V18.3358V18.3364V18.337V18.3376V18.3381V18.3387V18.3393V18.3399V18.3405V18.3411V18.3417V18.3423V18.3429V18.3435V18.3441V18.3446V18.3452V18.3458V18.3464V18.347V18.3476V18.3482V18.3488V18.3494V18.35V18.3506V18.3512V18.3518V18.3523V18.3529V18.3535V18.3541V18.3547V18.3553V18.3559V18.3565V18.3571V18.3577V18.3583V18.3589V18.3595V18.3601V18.3607V18.3612V18.3618V18.3624V18.363V18.3636V18.3642V18.3648V18.3654V18.366V18.3666V18.3672V18.3678V18.3684V18.369V18.3696V18.3702V18.3708V18.3714V18.372V18.3725V18.3731V18.3737V18.3743V18.3749V18.3755V18.3761V18.3767V18.3773V18.3779V18.3785V18.3791V18.3797V18.3803V18.3809V18.3815V18.3821V18.3827V18.3833V18.3839V18.3845V18.3851V18.3857V18.3863V18.3869V18.3875V18.3881V18.3887V18.3893V18.3899V18.3905V18.3911V18.3917V18.3923V18.3929V18.3935V18.3941V18.3946V18.3953V18.3958V18.3964V18.397V18.3976V18.3982V18.3988V18.3994V18.4V18.4007V18.4012V18.4018V18.4025V18.4031V18.4037V18.4043V18.4049V18.4055V18.4061V18.4067V18.4073V18.4079V18.4085V18.4091V18.4097V18.4103V18.4109V18.4115V18.4121V18.4127V18.4133V18.4139V18.4145V18.4151V18.4157V18.4163V18.4169V18.4175V18.4181V18.4187V18.4193V18.4199V18.4205V18.4211V18.4217V18.4223V18.4229V18.4236V18.4242V18.4248V18.4254V18.426V18.4266V18.4272V18.4278V18.4284V18.429V18.4296V18.4302V18.4308V18.4314V18.432V18.4326V18.4333V18.4339V18.4345V18.4351V18.4357V18.4363V18.4369V18.4375V18.4381V18.4387V18.4393V18.4399V18.4405V18.4412V18.4418V18.4424V18.443V18.4436V18.4442V18.4448V18.4454V18.446V18.4466V18.4473V18.4479V18.4485V18.4491V18.4497V18.4503V18.4509V18.4515V18.4521V18.4528V18.4534V18.454V18.4546V18.4552V18.4558V18.4564V18.457V18.4577V18.4583V18.4589V18.4595V18.4601V18.4607V18.4613V18.462V18.4626V18.4632V18.4638V18.4644V18.465V18.4656V18.4663V18.4669V18.4675V18.4681V18.4687V18.4693V18.47V18.4706V18.4712V18.4718V18.4724V18.473V18.4737V18.4743V18.4749V18.4755V18.4761V18.4767V18.4774V18.478V18.4786V18.4792V18.4798V18.4805V18.4811V18.4817V18.4823V18.4829V18.4836V18.4842V18.4848V18.4854V18.486V18.4867V18.4873V18.4879V18.4885V18.4891V18.4898V18.4904V18.491V18.4916V18.4923V18.4929V18.4935V18.4941V18.4947V18.4954V18.496V18.4966V18.4972V18.4979V18.4985V18.4991V18.4997V18.5004V18.501V18.5016V18.5022V18.5029V18.5035V18.5041V18.5047V18.5054V18.506V18.5066V18.5072V18.5079V18.5085V18.5091V18.5098V18.5104V18.511V18.5116V18.5123V18.5129V18.5135V18.5142V18.5148V18.5154V18.516V18.5167V18.5173V18.5179V18.5186V18.5192V18.5198V18.5205V18.5211V18.5217V18.5224V18.523V18.5236V18.5243V18.5249V18.5255V18.5261V18.5268V18.5274V18.528V18.5287V18.5293V18.53V18.5306V18.5312V18.5319V18.5325V18.5331V18.5338V18.5344V18.535V18.5357V18.5363V18.5369V18.5376V18.5382V18.5389V18.5395V18.5401V18.5408V18.5414V18.542V18.5427V18.5433V18.544V18.5446V18.5452V18.5459V18.5465V18.5472V18.5478V18.5484V18.5491V18.5497V18.5504V18.551V18.5516V18.5523V18.5529V18.5536V18.5542V18.5548V18.5555V18.5561V18.5568V18.5574V18.5581V18.5587V18.5594V18.56V18.7654L19.6444 18.9115L21.3544 20.6415L21.3599 20.6471L21.3656 20.6524C21.4134 20.6979 21.4518 20.7524 21.4785 20.8128C21.5052 20.8732 21.5196 20.9383 21.521 21.0043C21.5224 21.0703 21.5107 21.136 21.4866 21.1974C21.4629 21.2579 21.4276 21.3131 21.3828 21.3601C21.3368 21.4059 21.2823 21.4424 21.2223 21.4673C21.1614 21.4927 21.096 21.5058 21.03 21.5058C20.964 21.5058 20.8986 21.4927 20.8377 21.4673C20.7768 21.442 20.7215 21.4048 20.675 21.3579L20.6749 21.3578L19.3549 20.0278L19.0327 19.7031L18.6807 19.9952C18.3325 20.2841 17.905 20.4608 17.4544 20.5021L17 20.5437V21V22C17 22.1326 16.9473 22.2598 16.8536 22.3536C16.7598 22.4473 16.6326 22.5 16.5 22.5C16.3674 22.5 16.2402 22.4473 16.1464 22.3536C16.0527 22.2598 16 22.1326 16 22V21V20.5H15.5H14C13.8674 20.5 13.7402 20.4473 13.6464 20.3536C13.5527 20.2598 13.5 20.1326 13.5 20C13.5 19.8674 13.5527 19.7402 13.6464 19.6464C13.7402 19.5527 13.8674 19.5 14 19.5H17.2489H17.25V19.22L17.53 18.94L17.3232 18.4848C17.3009 18.4949 17.2766 18.5001 17.2521 18.5H17.25H17.09L16.09 17.5H15.75C15.0207 17.5 14.3212 17.2103 13.8055 16.6945C13.2897 16.1788 13 15.4793 13 14.75V14.44L11.29 12.68C11.1017 12.4917 10.9959 12.2363 10.9959 11.97C10.9959 11.7037 11.1017 11.4483 11.29 11.26C11.4783 11.0717 11.7337 10.9659 12 10.9659C12.2663 10.9659 12.5217 11.0717 12.71 11.26M15.7509 13.5C15.7513 13.5 15.7517 13.5 15.7521 13.5L15.7509 13.7791L15.8236 13.7064L16.1171 14H19C19.2652 14 19.5196 13.8946 19.7071 13.7071C19.8946 13.5196 20 13.2652 20 13C20 12.7348 19.8946 12.4804 19.7071 12.2929C19.5196 12.1054 19.2652 12 19 12H18H17.5V11.5V11C17.5 10.7348 17.3946 10.4804 17.2071 10.2929C17.0196 10.1054 16.7652 10 16.5 10C16.2348 10 15.9804 10.1054 15.7929 10.2929C15.6054 10.4804 15.5 10.7348 15.5 11V12C14.9626 12.0477 14.4512 12.2529 14.03 12.59L12.71 11.26M15.7509 13.5H19C19.1326 13.5 19.2598 13.4473 19.3536 13.3536C19.4473 13.2598 19.5 13.1326 19.5 13C19.5 12.8674 19.4473 12.7402 19.3536 12.6464C19.2598 12.5527 19.1326 12.5 19 12.5H17.5H17V12V11C17 10.8674 16.9473 10.7402 16.8536 10.6464C16.7598 10.5527 16.6326 10.5 16.5 10.5C16.3674 10.5 16.2402 10.5527 16.1464 10.6464C16.0527 10.7402 16 10.8674 16 11V12V12.4576L15.5442 12.498C15.1048 12.537 14.6868 12.7048 14.3424 12.9804L13.9916 13.2611L13.6751 12.9422L12.3564 11.6136L12.71 11.26M15.7509 13.5H15.75V13.78M12.71 11.26L12.3551 11.6122L12.356 11.6131L15.75 13.78M15.75 13.78L15.47 14.06M15.75 13.78V14C15.6534 13.9996 15.5579 14.0201 15.47 14.06M15.47 14.06L15.6768 14.5152C15.6991 14.5051 15.7234 14.4999 15.7479 14.5H15.75H15.91L15.75 14.34L15.7486 14.3386L15.47 14.06ZM11.5 3V2.5H11H5C4.60218 2.5 4.22064 2.65804 3.93934 2.93934C3.65804 3.22064 3.5 3.60217 3.5 4V18C3.5 18.3978 3.65804 18.7794 3.93934 19.0607C4.22065 19.342 4.60218 19.5 5 19.5H10C10.1326 19.5 10.2598 19.5527 10.3536 19.6464C10.4473 19.7402 10.5 19.8674 10.5 20C10.5 20.1326 10.4473 20.2598 10.3536 20.3536C10.2598 20.4473 10.1326 20.5 10 20.5H5C4.33696 20.5 3.70107 20.2366 3.23223 19.7678C2.76339 19.2989 2.5 18.663 2.5 18V4C2.5 3.33696 2.76339 2.70107 3.23223 2.23223C3.70107 1.76339 4.33696 1.5 5 1.5H11.9954C12.038 1.5128 12.0795 1.5291 12.1195 1.54875L12.2238 1.6H12.3003C12.3222 1.61509 12.343 1.63172 12.3627 1.64976L17.3541 6.64118C17.3544 6.64151 17.3547 6.64184 17.3551 6.64217C17.4239 6.71233 17.4706 6.80123 17.4892 6.89778C17.5078 6.99477 17.4974 7.09513 17.4591 7.18618L17.4591 7.18618L17.4575 7.19001C17.42 7.28131 17.3563 7.35948 17.2744 7.41465C17.1929 7.46962 17.0969 7.49931 16.9985 7.5H12C11.8674 7.5 11.7402 7.44732 11.6464 7.35355C11.5527 7.25978 11.5 7.13261 11.5 7V3ZM13.3536 4.05645L12.5 3.20289V4.41V6V6.5H13H14.59H15.7971L14.9436 5.64645L13.3536 4.05645Z" fill="#111111" stroke="#111111"/>
</svg>
