<svg width="24" height="24" viewBox="0 0 24 24" fill="none" xmlns="http://www.w3.org/2000/svg">
<path d="M20 5.5H20.5V5V3C20.5 2.86739 20.5527 2.74021 20.6464 2.64645C20.7402 2.55268 20.8674 2.5 21 2.5C21.1326 2.5 21.2598 2.55268 21.3536 2.64645C21.4473 2.74021 21.5 2.86739 21.5 3V21C21.5 21.1326 21.4473 21.2598 21.3536 21.3536C21.2598 21.4473 21.1326 21.5 21 21.5C20.8674 21.5 20.7402 21.4473 20.6464 21.3536C20.5527 21.2598 20.5 21.1326 20.5 21V19V18.5H20H18H17.5V19V21C17.5 21.1326 17.4473 21.2598 17.3536 21.3536C17.2598 21.4473 17.1326 21.5 17 21.5C16.8674 21.5 16.7402 21.4473 16.6464 21.3536C16.5527 21.2598 16.5 21.1326 16.5 21V20V19.5H16H8H7.5V20V21C7.5 21.1326 7.44732 21.2598 7.35355 21.3536C7.25979 21.4473 7.13261 21.5 7 21.5C6.86739 21.5 6.74021 21.4473 6.64645 21.3536C6.55268 21.2598 6.5 21.1326 6.5 21V19V18.5H6H4H3.5V19V21C3.5 21.1326 3.44732 21.2598 3.35355 21.3536C3.25979 21.4473 3.13261 21.5 3 21.5C2.86739 21.5 2.74021 21.4473 2.64645 21.3536C2.55268 21.2598 2.5 21.1326 2.5 21V3C2.5 2.86739 2.55268 2.74021 2.64645 2.64645C2.74021 2.55268 2.86739 2.5 3 2.5C3.13261 2.5 3.25979 2.55268 3.35355 2.64645C3.44732 2.74021 3.5 2.86739 3.5 3V5V5.5H4H6H6.5V5V3C6.5 2.86739 6.55268 2.74021 6.64645 2.64645C6.74021 2.55268 6.86739 2.5 7 2.5C7.13261 2.5 7.25979 2.55268 7.35355 2.64645C7.44732 2.74021 7.5 2.86739 7.5 3V4V4.5H8H16H16.5V4V3C16.5 2.86739 16.5527 2.74021 16.6464 2.64645C16.7402 2.55268 16.8674 2.5 17 2.5C17.1326 2.5 17.2598 2.55268 17.3536 2.64645C17.4473 2.74021 17.5 2.86739 17.5 3V5V5.5H18H20ZM6 17.5H6.5V17V15V14.5H6H4H3.5V15V17V17.5H4H6ZM6 13.5H6.5V13V11V10.5H6H4H3.5V11V13V13.5H4H6ZM6 9.5H6.5V9V7V6.5H6H4H3.5V7V9V9.5H4H6ZM16 18.5H16.5V18V13V12.5H16H8H7.5V13V18V18.5H8H16ZM16 11.5H16.5V11V6V5.5H16H8H7.5V6V11V11.5H8H16ZM20 17.5H20.5V17V15V14.5H20H18H17.5V15V17V17.5H18H20ZM20 13.5H20.5V13V11V10.5H20H18H17.5V11V13V13.5H18H20ZM20 9.5H20.5V9V7V6.5H20H18H17.5V7V9V9.5H18H20Z" fill="#111111" stroke="#111111"/>
</svg>
