<svg width="24" height="24" viewBox="0 0 24 24" fill="none" xmlns="http://www.w3.org/2000/svg">
<path d="M14.4648 21.1424L14.2911 21.4852C13.3568 21.0117 12.5327 20.3469 11.8722 19.534C11.2118 18.7211 10.7298 17.7782 10.4576 16.7668L10.4546 16.7555L10.4547 16.7554C10.373 16.4206 10.3098 16.0816 10.2653 15.7399C10.2507 15.6372 10.2046 15.5416 10.1333 15.4662C10.0616 15.3905 9.96808 15.339 9.86573 15.319L9.86473 15.3188C9.83379 15.3127 9.80232 15.3097 9.77077 15.3097L9.76985 15.3097C9.68201 15.3097 9.59572 15.3328 9.51967 15.3768C9.44362 15.4208 9.38051 15.484 9.3367 15.5601L9.33589 15.5615C8.55247 16.9128 8.15849 18.4545 8.1976 20.016L8.22404 21.071L7.39086 20.4232C6.60886 19.8152 5.95532 19.0581 5.4681 18.1956C4.98089 17.3332 4.66969 16.3826 4.55254 15.399C4.4354 14.4154 4.51463 13.4184 4.78566 12.4656C5.05631 11.5142 5.51284 10.6259 6.12885 9.852C6.59913 9.2419 7.16616 8.71293 7.80743 8.28611L7.81331 8.2822L7.81334 8.28224C7.82183 8.27676 7.82999 8.27075 7.83775 8.26425L7.83995 8.26242L7.83996 8.26242L7.83997 8.26241L7.84001 8.26237L7.84018 8.26223L7.84084 8.26169L7.84336 8.25961L7.85287 8.25174L7.88682 8.22369L7.99062 8.13811C8.02851 8.10693 8.06736 8.07505 8.09764 8.0504L8.13751 8.01818L8.15339 8.00568C9.49299 6.86879 10.4459 5.34324 10.8797 3.64041L11.0871 2.82671L11.7037 3.39671C12.8741 4.47871 13.6546 5.91688 13.9238 7.48791C14.193 9.05853 13.9363 10.6741 13.1934 12.0838M14.4648 21.1424L12.7505 11.8518M14.4648 21.1424L14.6969 21.5058C15.75 21.0999 16.698 20.4615 17.4701 19.6384C18.2422 18.8152 18.8186 17.8283 19.1563 16.7514C19.494 15.6745 19.5844 14.5352 19.4206 13.4186C19.2568 12.3019 18.8432 11.2365 18.2104 10.3019L17.8235 9.7304L17.401 10.2762C16.4811 11.4646 15.2193 12.3427 13.7853 12.7924M14.4648 21.1424L13.7853 12.7924M13.1934 12.0838C13.1932 12.0842 13.193 12.0846 13.1928 12.0849L12.7505 11.8518M13.1934 12.0838C13.1935 12.0836 13.1936 12.0833 13.1937 12.0831L12.7505 11.8518M13.1934 12.0838C13.1479 12.1712 13.1293 12.2701 13.1398 12.3681C13.1504 12.4664 13.1899 12.5593 13.2532 12.6351C13.3165 12.711 13.4009 12.7664 13.4956 12.7944C13.5903 12.8223 13.691 12.8216 13.7853 12.7924M12.7505 11.8518C12.6591 12.0269 12.6216 12.2252 12.6427 12.4216C12.6639 12.6181 12.7427 12.8039 12.8693 12.9555C12.9959 13.1072 13.1646 13.218 13.3541 13.2739C13.5436 13.3298 13.7454 13.3284 13.9341 13.2698L13.7845 12.7926C13.7848 12.7926 13.785 12.7925 13.7853 12.7924M15.4975 9.43218C15.5176 9.19278 15.5277 8.95253 15.5278 8.71207C15.5297 7.17217 15.1234 5.65928 14.3505 4.32743C13.5775 2.99558 12.4654 1.89235 11.1274 1.13007L15.4975 9.43218ZM15.4975 9.43218C15.3629 9.57634 15.22 9.71314 15.0695 9.84183L15.3945 10.2218L15.8868 10.3092C15.9259 10.0887 15.957 9.86694 15.9798 9.64437C16.2993 9.28089 16.5725 8.87793 16.7925 8.4445C16.8541 8.32245 16.9401 8.21433 17.0451 8.12683C17.1501 8.03933 17.272 7.9743 17.4031 7.93577C17.5343 7.89723 17.672 7.88601 17.8076 7.9028L15.4975 9.43218ZM10.8805 1.56483C12.1414 2.28337 13.1895 3.32317 13.918 4.57841C14.6466 5.83384 15.0296 7.25992 15.0278 8.71146V8.71183C15.0276 9.1888 14.9855 9.66483 14.9022 10.1345L14.6582 11.5094L15.7195 10.6018C16.3479 10.0644 16.8641 9.40818 17.2384 8.67079L17.2389 8.66975C17.2697 8.60875 17.3126 8.55472 17.3651 8.51099C17.4176 8.46725 17.4785 8.43475 17.5441 8.41549C17.6096 8.39623 17.6784 8.39062 17.7462 8.39901C17.8139 8.40738 17.8791 8.42951 17.9379 8.46403L10.8805 1.56483ZM10.8805 1.56483C10.8069 1.52318 10.7239 1.50089 10.6393 1.50003C10.5546 1.49916 10.471 1.51984 10.3965 1.56011C10.322 1.60038 10.2589 1.65893 10.2132 1.73026C10.1677 1.80121 10.1409 1.88249 10.1353 1.96655C10.0752 2.98182 9.80964 3.97433 9.35481 4.88401C8.89977 5.79409 8.2647 6.60232 7.48808 7.25973L7.48063 7.26603L7.48057 7.26595L7.2501 7.45345L7.23251 7.46777L7.21369 7.48043C6.50013 7.96056 5.86852 8.55244 5.34311 9.23335L5.33892 9.23879L5.33888 9.23876C4.51949 10.271 3.95187 11.48 3.68105 12.7698C3.41022 14.0596 3.44363 15.3948 3.77863 16.6695C4.11364 17.9441 4.74101 19.1232 5.61101 20.1132C6.48101 21.1032 7.5697 21.8769 8.79075 22.3729L8.7917 22.3733C8.86757 22.4043 8.9499 22.4161 9.03142 22.4078C9.11295 22.3994 9.19118 22.3712 9.25919 22.3254C9.32721 22.2797 9.38294 22.218 9.42145 22.1456C9.45973 22.0737 9.47984 21.9936 9.48003 21.9121C9.4795 21.8571 9.47072 21.8025 9.45396 21.75L9.45021 21.7383L9.44704 21.7264C9.20728 20.8251 9.13823 19.887 9.24347 18.9603L9.42569 17.356L10.182 18.7826C11.0757 20.4682 12.5103 21.8043 14.2551 22.5761L14.257 22.577C14.3694 22.6272 14.4964 22.634 14.6136 22.5959L14.6145 22.5956C15.993 22.1507 17.2347 21.3607 18.2219 20.3008C19.209 19.2408 19.9087 17.946 20.2545 16.5394C20.6002 15.1328 20.5806 13.6612 20.1974 12.2644C19.8149 10.87 19.0829 9.59633 18.0706 8.56401C18.0303 8.52585 17.9859 8.49235 17.9381 8.46415L10.8805 1.56483Z" fill="#111111" stroke="#111111"/>
</svg>
