<svg width="24" height="24" viewBox="0 0 24 24" fill="none" xmlns="http://www.w3.org/2000/svg">
<path d="M14.8044 8.08015C16.4265 8.76964 17.7219 10.0531 18.427 11.6654L18.4086 11.8186L18.5344 11.9759C18.955 13.0215 19.117 14.1535 19.0062 15.2757C18.8931 16.4211 18.4993 17.521 17.8597 18.4779C17.2201 19.4347 16.3544 20.2192 15.3393 20.7617C14.3242 21.3041 13.191 21.5879 12.04 21.5879C10.8891 21.5879 9.75586 21.3041 8.74075 20.7617C7.72564 20.2192 6.85996 19.4347 6.22037 18.4779C5.58077 17.521 5.187 16.4211 5.07391 15.2757C4.96082 14.1303 5.13192 12.9747 5.57204 11.9112L5.62206 11.7903L5.61276 11.7128C6.29923 10.0881 7.58263 8.78659 9.20062 8.078L9.50004 7.94687V7.62V4V3.5H9.00004H8.00004C7.86743 3.5 7.74026 3.44732 7.64649 3.35355C7.55272 3.25979 7.50004 3.13261 7.50004 3C7.50004 2.86739 7.55272 2.74021 7.64649 2.64645C7.74026 2.55268 7.86743 2.5 8.00004 2.5H16C16.1327 2.5 16.2598 2.55268 16.3536 2.64645C16.4474 2.74021 16.5 2.86739 16.5 3C16.5 3.13261 16.4474 3.25979 16.3536 3.35355C16.2598 3.44732 16.1327 3.5 16 3.5H15H14.5V4V7.62V7.95076L14.8044 8.08015ZM11 3.5H10.5V4V8.30963C10.5 8.41507 10.4666 8.51779 10.4046 8.6031C10.3427 8.68827 10.2556 8.75174 10.1555 8.78448C9.06712 9.13703 8.10394 9.79691 7.38212 10.6845L6.71898 11.5H7.77004H16.23H17.2811L16.618 10.6845C15.8961 9.79691 14.933 9.13703 13.8446 8.78448C13.7445 8.75174 13.6574 8.68827 13.5955 8.6031C13.5335 8.51779 13.5001 8.41507 13.5 8.30963V4V3.5H13H11ZM6.00004 14.4984L6.00004 14.5009C6.00293 16.0911 6.6359 17.6153 7.76032 18.7397C8.88474 19.8641 10.409 20.4971 11.9991 20.5L12.0009 20.5C13.5911 20.4971 15.1153 19.8641 16.2398 18.7397C17.3642 17.6153 17.9972 16.0911 18 14.5009L18 14.4984C17.9983 13.9429 17.9172 13.3905 17.7594 12.858L17.6534 12.5H17.28H6.72004H6.34671L6.24064 12.858C6.08283 13.3905 6.00182 13.9429 6.00004 14.4984ZM13.7223 16.5843C13.8045 16.5293 13.9011 16.5 14 16.5C14.1327 16.5 14.2598 16.5527 14.3536 16.6464C14.4474 16.7402 14.5 16.8674 14.5 17C14.5 17.0989 14.4707 17.1956 14.4158 17.2778C14.3608 17.36 14.2827 17.4241 14.1914 17.4619C14.1 17.4998 13.9995 17.5097 13.9025 17.4904C13.8055 17.4711 13.7164 17.4235 13.6465 17.3536C13.5766 17.2836 13.5289 17.1945 13.5096 17.0975C13.4904 17.0006 13.5003 16.9 13.5381 16.8087C13.5759 16.7173 13.64 16.6392 13.7223 16.5843ZM9.72226 15.5843C9.80448 15.5293 9.90115 15.5 10 15.5C10.1326 15.5 10.2598 15.5527 10.3536 15.6464C10.4474 15.7402 10.5 15.8674 10.5 16C10.5 16.0989 10.4707 16.1956 10.4158 16.2778C10.3608 16.36 10.2827 16.4241 10.1914 16.4619C10.1 16.4998 9.99949 16.5097 9.9025 16.4904C9.8055 16.4711 9.71641 16.4235 9.64649 16.3536C9.57656 16.2836 9.52894 16.1945 9.50965 16.0975C9.49036 16.0006 9.50026 15.9 9.5381 15.8087C9.57594 15.7173 9.64003 15.6392 9.72226 15.5843Z" fill="#111111" stroke="#111111"/>
</svg>
