<svg width="24" height="24" viewBox="0 0 24 24" fill="none" xmlns="http://www.w3.org/2000/svg">
<path d="M14.5683 8.98194L19.2396 16.99H19.2003L19.6381 17.7417C19.8593 18.1214 19.9765 18.5528 19.9779 18.9923C19.9792 19.4318 19.8647 19.8639 19.6458 20.245C19.4269 20.6261 19.1115 20.9428 18.7312 21.1631C18.3509 21.3835 17.9193 21.4997 17.4798 21.5H6.48053C6.04103 21.4997 5.60938 21.3835 5.22911 21.1631C4.84883 20.9428 4.53335 20.6261 4.31448 20.245C4.09561 19.8639 3.98108 19.4318 3.98243 18.9923C3.98379 18.5529 4.10092 18.1216 4.32203 17.7419C4.32209 17.7418 4.32214 17.7418 4.32219 17.7417L9.43203 8.98194L9.50015 8.86517V8.73V4V3.5H9.00015H8.00015C7.86754 3.5 7.74036 3.44732 7.64659 3.35355C7.55282 3.25979 7.50015 3.13261 7.50015 3C7.50015 2.86739 7.55282 2.74021 7.64659 2.64645C7.74036 2.55268 7.86754 2.5 8.00015 2.5H16.0001C16.1328 2.5 16.2599 2.55268 16.3537 2.64645C16.4475 2.74021 16.5001 2.86739 16.5001 3C16.5001 3.13261 16.4475 3.25979 16.3537 3.35355C16.2599 3.44732 16.1328 3.5 16.0001 3.5H15.0001H14.5001V4V8.73V8.86517L14.5683 8.98194ZM10.4303 9.23467L10.4302 9.23463L10.4257 9.24255L9.56567 10.7526L9.13997 11.5H10.0001H14.0001H14.8632L14.4339 10.7513L13.5739 9.25131L13.574 9.25128L13.5701 9.24481C13.5255 9.1697 13.5014 9.08424 13.5001 8.99694V4V3.5H13.0001H11.0001H10.5001V4V8.99396C10.4977 9.0788 10.4736 9.16165 10.4303 9.23467ZM18.6653 17.9959L15.6123 12.7486L15.4677 12.5H15.1801H8.83015H8.54149L8.39714 12.75L5.22714 18.24L5.22713 18.24C5.09548 18.468 5.02617 18.7267 5.02617 18.99C5.02617 19.2533 5.09548 19.512 5.22713 19.74C5.35801 19.9667 5.54595 20.1552 5.77225 20.2868C5.99856 20.4184 6.25535 20.4884 6.51713 20.49H6.52015L17.5201 20.49L17.5232 20.49C17.6441 20.4893 17.7639 20.4739 17.8801 20.4447V21.366L18.8132 19.75C18.9448 19.522 19.0141 19.2633 19.0141 19C19.0141 18.7857 18.9682 18.5745 18.8801 18.3803V17.6239L18.6653 17.9959ZM9.72236 15.5843C9.80458 15.5293 9.90126 15.5 10.0001 15.5C10.1328 15.5 10.2599 15.5527 10.3537 15.6464C10.4475 15.7402 10.5001 15.8674 10.5001 16C10.5001 16.0989 10.4708 16.1956 10.4159 16.2778C10.3609 16.36 10.2828 16.4241 10.1915 16.4619C10.1001 16.4998 9.99959 16.5097 9.9026 16.4904C9.80561 16.4711 9.71652 16.4235 9.64659 16.3536C9.57667 16.2836 9.52905 16.1945 9.50975 16.0975C9.49046 16.0006 9.50036 15.9 9.53821 15.8087C9.57605 15.7173 9.64014 15.6392 9.72236 15.5843ZM13.7224 16.5843C13.8046 16.5293 13.9013 16.5 14.0001 16.5C14.1328 16.5 14.2599 16.5527 14.3537 16.6464C14.4475 16.7402 14.5001 16.8674 14.5001 17C14.5001 17.0989 14.4708 17.1956 14.4159 17.2778C14.3609 17.36 14.2828 17.4241 14.1915 17.4619C14.1001 17.4998 13.9996 17.5097 13.9026 17.4904C13.8056 17.4711 13.7165 17.4235 13.6466 17.3536C13.5767 17.2836 13.529 17.1945 13.5098 17.0975C13.4905 17.0006 13.5004 16.9 13.5382 16.8087C13.576 16.7173 13.6401 16.6392 13.7224 16.5843Z" fill="#111111" stroke="#111111"/>
</svg>
