<svg width="24" height="24" viewBox="0 0 24 24" fill="none" xmlns="http://www.w3.org/2000/svg">
<path d="M7.59488 17.3079L7.59343 17.3064L6.53343 16.2464C6.43889 16.1519 6.38578 16.0237 6.38578 15.89C6.38578 15.7563 6.43889 15.6281 6.53343 15.5336C6.62796 15.439 6.75618 15.3859 6.88987 15.3859C7.02357 15.3859 7.15178 15.439 7.24632 15.5336L8.30632 16.5936L8.30777 16.595C8.35464 16.6415 8.39183 16.6968 8.41722 16.7577C8.4426 16.8186 8.45567 16.884 8.45567 16.95C8.45567 17.016 8.4426 17.0814 8.41722 17.1423C8.39183 17.2032 8.35464 17.2585 8.30777 17.305L8.30776 17.305L8.30488 17.3079C8.25839 17.3548 8.20309 17.392 8.14216 17.4173C8.08123 17.4427 8.01588 17.4558 7.94987 17.4558C7.88387 17.4558 7.81852 17.4427 7.75759 17.4173C7.69666 17.392 7.64136 17.3548 7.59488 17.3079ZM3.095 11.2018L3.0951 11.2019L3.10343 11.1936L4.14743 10.1496C4.2412 10.0743 4.35913 10.0353 4.47963 10.0399C4.60547 10.0448 4.72484 10.0969 4.81388 10.186C4.90293 10.275 4.9551 10.3944 4.95996 10.5202C4.96461 10.6407 4.92556 10.7587 4.85032 10.8525L4.05632 11.6464L3.69775 12.005L4.06133 12.3585L4.41926 12.7065C4.46542 12.7527 4.5021 12.8074 4.52722 12.8677C4.5526 12.9286 4.56567 12.994 4.56567 13.06C4.56567 13.126 4.5526 13.1914 4.52722 13.2523C4.50183 13.3132 4.46464 13.3685 4.41777 13.415L4.41776 13.415L4.41488 13.4179C4.36839 13.4648 4.31309 13.502 4.25216 13.5273C4.19123 13.5527 4.12588 13.5658 4.05987 13.5658C3.99387 13.5658 3.92852 13.5527 3.86759 13.5273C3.80666 13.502 3.75136 13.4648 3.70488 13.4179L3.70343 13.4164L2.64343 12.3564L2.64225 12.3553C2.58553 12.2989 2.54315 12.2298 2.51866 12.1537C2.49417 12.0776 2.48829 11.9967 2.50152 11.9179C2.51474 11.839 2.54668 11.7645 2.59466 11.7005C2.64263 11.6366 2.70525 11.585 2.77725 11.5503L2.93345 11.4749L3.0094 11.3189C3.03074 11.2751 3.05973 11.2354 3.095 11.2018ZM21.3563 11.6436L21.3578 11.645C21.4046 11.6915 21.4418 11.7468 21.4672 11.8077C21.4926 11.8686 21.5057 11.934 21.5057 12C21.5057 12.066 21.4926 12.1314 21.4672 12.1923C21.4418 12.2532 21.4046 12.3085 21.3578 12.355L21.3563 12.3564L16.3578 17.355C16.3575 17.3552 16.3573 17.3554 16.3571 17.3557C16.3105 17.4017 16.2553 17.4381 16.1947 17.4629C16.1338 17.4878 16.0686 17.5004 16.0028 17.5L15.9949 17.5L15.987 17.5002C15.9339 17.5015 15.8812 17.4904 15.8332 17.4678L15.8217 17.4623L15.8099 17.4575C15.7186 17.42 15.6404 17.3563 15.5852 17.2744C15.5303 17.1929 15.5006 17.0969 15.4999 16.9986V7.0014C15.5006 6.90307 15.5303 6.80712 15.5852 6.72556C15.6404 6.6437 15.7186 6.58001 15.8099 6.5425L15.8099 6.54251L15.8137 6.54091C15.9047 6.50262 16.0051 6.49216 16.1021 6.51084C16.1986 6.52944 16.2875 6.57609 16.3577 6.64494C16.358 6.64526 16.3584 6.64558 16.3587 6.64591L21.3563 11.6436ZM16.4999 14.59V15.7971L17.3534 14.9436L19.9434 12.3536L20.297 12L19.9434 11.6464L17.3534 9.05645L16.4999 8.20289V9.41V14.59ZM8.18606 6.54091L8.18605 6.54092L8.18988 6.5425C8.28119 6.58001 8.35935 6.6437 8.41452 6.72556C8.46949 6.80714 8.49918 6.90311 8.49987 7.00147V7.57V7.58316L8.50057 7.5963C8.50461 7.67305 8.4909 7.74969 8.46052 7.82029C8.43013 7.89088 8.38388 7.95352 8.32536 8.00333C8.26683 8.05315 8.19761 8.08881 8.12308 8.10753C8.04854 8.12626 7.97068 8.12754 7.89557 8.1113L7.72091 8.07353L7.56188 8.15501C7.49372 8.18993 7.41847 8.20872 7.34194 8.20995C7.2119 8.20679 7.08813 8.15305 6.997 8.06005L6.997 8.06004L6.99448 8.0575C6.90135 7.96382 6.84908 7.83709 6.84908 7.705C6.84908 7.57291 6.90135 7.44618 6.99448 7.3525L7.00173 7.34521L7.00867 7.33763L7.64862 6.6386C7.71772 6.57323 7.8041 6.52887 7.89765 6.51084C7.99465 6.49216 8.095 6.50262 8.18606 6.54091ZM7.64632 11.2164C7.74009 11.1227 7.86727 11.07 7.99987 11.07C8.13248 11.07 8.25966 11.1227 8.35343 11.2164C8.4472 11.3102 8.49987 11.4374 8.49987 11.57V13.07C8.49987 13.2026 8.4472 13.3298 8.35343 13.4236C8.25966 13.5173 8.13248 13.57 7.99987 13.57C7.86727 13.57 7.74009 13.5173 7.64632 13.4236C7.55255 13.3298 7.49987 13.2026 7.49987 13.07V11.57C7.49987 11.4374 7.55255 11.3102 7.64632 11.2164ZM11.6463 2.64645C11.7401 2.55268 11.8673 2.5 11.9999 2.5C12.1325 2.5 12.2597 2.55268 12.3534 2.64645C12.4472 2.74021 12.4999 2.86739 12.4999 3V21C12.4999 21.1326 12.4472 21.2598 12.3534 21.3536C12.2597 21.4473 12.1325 21.5 11.9999 21.5C11.8673 21.5 11.7401 21.4473 11.6463 21.3536C11.5526 21.2598 11.4999 21.1326 11.4999 21V3C11.4999 2.86739 11.5526 2.74021 11.6463 2.64645Z" fill="#111111" stroke="#111111"/>
</svg>
