<svg width="24" height="24" viewBox="0 0 24 24" fill="none" xmlns="http://www.w3.org/2000/svg">
<path d="M12.5 11V11.5H13H15C15.1326 11.5 15.2598 11.5527 15.3536 11.6464C15.4473 11.7402 15.5 11.8674 15.5 12C15.5 12.1326 15.4473 12.2598 15.3536 12.3536C15.2598 12.4473 15.1326 12.5 15 12.5H13H12.5V13V15C12.5 15.1326 12.4473 15.2598 12.3536 15.3536C12.2598 15.4473 12.1326 15.5 12 15.5C11.8674 15.5 11.7402 15.4473 11.6464 15.3536C11.5527 15.2598 11.5 15.1326 11.5 15V13V12.5H11H9C8.86739 12.5 8.74022 12.4473 8.64645 12.3536C8.55268 12.2598 8.5 12.1326 8.5 12C8.5 11.8674 8.55268 11.7402 8.64645 11.6464C8.74022 11.5527 8.86739 11.5 9 11.5H11H11.5V11V9C11.5 8.86739 11.5527 8.74022 11.6464 8.64645C11.7402 8.55268 11.8674 8.5 12 8.5C12.1326 8.5 12.2598 8.55268 12.3536 8.64645C12.4473 8.74022 12.5 8.86739 12.5 9V11ZM5 20.5H8C8.13261 20.5 8.25979 20.5527 8.35355 20.6464C8.44732 20.7402 8.5 20.8674 8.5 21C8.5 21.1326 8.44732 21.2598 8.35355 21.3536C8.25979 21.4473 8.13261 21.5 8 21.5H5C4.33696 21.5 3.70107 21.2366 3.23223 20.7678C2.76339 20.2989 2.5 19.663 2.5 19V16C2.5 15.8674 2.55268 15.7402 2.64645 15.6464C2.74021 15.5527 2.86739 15.5 3 15.5C3.13261 15.5 3.25979 15.5527 3.35355 15.6464C3.44732 15.7402 3.5 15.8674 3.5 16V19C3.5 19.3978 3.65804 19.7794 3.93934 20.0607C4.22065 20.342 4.60218 20.5 5 20.5ZM3.35355 8.35355C3.25979 8.44732 3.13261 8.5 3 8.5C2.86739 8.5 2.74021 8.44732 2.64645 8.35355C2.55268 8.25979 2.5 8.13261 2.5 8V5C2.5 4.33696 2.76339 3.70107 3.23223 3.23223C3.70107 2.76339 4.33696 2.5 5 2.5H8C8.13261 2.5 8.25979 2.55268 8.35355 2.64645C8.44732 2.74021 8.5 2.86739 8.5 3C8.5 3.13261 8.44732 3.25979 8.35355 3.35355C8.25979 3.44732 8.13261 3.5 8 3.5H5C4.60217 3.5 4.22064 3.65804 3.93934 3.93934C3.65804 4.22064 3.5 4.60217 3.5 5V8C3.5 8.13261 3.44732 8.25979 3.35355 8.35355ZM16 2.5H19C19.663 2.5 20.2989 2.76339 20.7678 3.23223C21.2366 3.70107 21.5 4.33696 21.5 5V8C21.5 8.13261 21.4473 8.25979 21.3536 8.35355C21.2598 8.44732 21.1326 8.5 21 8.5C20.8674 8.5 20.7402 8.44732 20.6464 8.35355C20.5527 8.25979 20.5 8.13261 20.5 8V5C20.5 4.60218 20.342 4.22065 20.0607 3.93934C19.7794 3.65804 19.3978 3.5 19 3.5H16C15.8674 3.5 15.7402 3.44732 15.6464 3.35355C15.5527 3.25979 15.5 3.13261 15.5 3C15.5 2.86739 15.5527 2.74021 15.6464 2.64645C15.7402 2.55268 15.8674 2.5 16 2.5ZM20.6464 15.6464C20.7402 15.5527 20.8674 15.5 21 15.5C21.1326 15.5 21.2598 15.5527 21.3536 15.6464C21.4473 15.7402 21.5 15.8674 21.5 16V19C21.5 19.663 21.2366 20.2989 20.7678 20.7678C20.2989 21.2366 19.663 21.5 19 21.5H16C15.8674 21.5 15.7402 21.4473 15.6464 21.3536C15.5527 21.2598 15.5 21.1326 15.5 21C15.5 20.8674 15.5527 20.7402 15.6464 20.6464C15.7402 20.5527 15.8674 20.5 16 20.5H19C19.3978 20.5 19.7794 20.342 20.0607 20.0607C20.342 19.7794 20.5 19.3978 20.5 19V16C20.5 15.8674 20.5527 15.7402 20.6464 15.6464Z" fill="#111111" stroke="#111111"/>
</svg>
