<svg width="24" height="24" viewBox="0 0 24 24" fill="none" xmlns="http://www.w3.org/2000/svg">
<path d="M10.9849 5.02364L10.9849 5.02365L11.5237 6.66002C11.5239 6.66053 11.5241 6.66103 11.5242 6.66154L10.9849 5.02364ZM10.9849 5.02364L10.9837 5.02002M10.9849 5.02364L10.9837 5.02002M10.9837 5.02002C10.8831 4.72209 10.6914 4.46332 10.4357 4.28029C10.1801 4.09739 9.87364 3.99936 9.55942 4.00002L10.9837 5.02002ZM13.3595 14.4375L13.646 14.1411C13.7403 14.0481 13.8675 13.9959 14 13.9959C14.1337 13.9959 14.2619 14.049 14.3564 14.1436C14.451 14.2381 14.5041 14.3663 14.5041 14.5C14.5041 14.6337 14.451 14.7619 14.3564 14.8565L12.361 16.852C12.3141 16.896 12.2592 16.9306 12.1992 16.9538L12.1885 16.958L12.1779 16.9627C12.1218 16.9875 12.0613 17.0003 12 17.0003C11.9387 17.0003 11.8782 16.9875 11.8221 16.9627L11.8115 16.958L11.8008 16.9538C11.7408 16.9306 11.6859 16.896 11.639 16.852L9.64355 14.8565C9.54902 14.7619 9.49591 14.6337 9.49591 14.5C9.49591 14.3663 9.54902 14.2381 9.64355 14.1436C9.73809 14.049 9.86631 13.9959 10 13.9959C10.1325 13.9959 10.2597 14.0481 10.354 14.1411L10.6405 14.4375L11.5 15.3267V14.09V11.5C11.5 11.3674 11.5527 11.2402 11.6464 11.1465C11.7402 11.0527 11.8674 11 12 11C12.1326 11 12.2598 11.0527 12.3536 11.1465C12.4473 11.2402 12.5 11.3674 12.5 11.5V14.09V15.3267L13.3595 14.4375ZM12.2438 5.65241L12.355 6.00002H12.72H19C19.663 6.00002 20.2989 6.26341 20.7678 6.73226C21.2366 7.2011 21.5 7.83698 21.5 8.50002V18.5C21.5 19.1631 21.2366 19.799 20.7678 20.2678C20.2989 20.7366 19.663 21 19 21H5C4.33696 21 3.70107 20.7366 3.23223 20.2678C2.76339 19.799 2.5 19.1631 2.5 18.5V5.50002C2.5 4.83698 2.76339 4.2011 3.23223 3.73226C3.70107 3.26341 4.33696 3.00002 5 3.00002L9.56 3.00003L9.56193 3.00002C10.0806 2.99802 10.587 3.15737 11.011 3.45599C11.4331 3.75323 11.7528 4.17381 11.9262 4.65992L12.2438 5.65241Z" fill="#111111" stroke="#111111"/>
</svg>
