<svg width="24" height="24" viewBox="0 0 24 24" fill="none" xmlns="http://www.w3.org/2000/svg">
<path d="M12.2438 5.65241L12.355 6.00002H12.72H19C19.663 6.00002 20.2989 6.26341 20.7678 6.73226C21.2366 7.2011 21.5 7.83698 21.5 8.50002V18.5C21.5 19.1631 21.2366 19.799 20.7678 20.2678C20.2989 20.7366 19.663 21 19 21H5C4.33696 21 3.70107 20.7366 3.23223 20.2678C2.76339 19.799 2.5 19.1631 2.5 18.5V5.50002C2.5 4.83698 2.76339 4.2011 3.23223 3.73226C3.70107 3.26341 4.33696 3.00002 5 3.00002L9.56 3.00003L9.56193 3.00002C10.0806 2.99802 10.587 3.15737 11.011 3.45599C11.4331 3.75323 11.7528 4.17381 11.9262 4.65992L12.2438 5.65241ZM10.9849 5.02365L10.9849 5.02364L9.56 4.00002H9.55942H5C4.60217 4.00002 4.22064 4.15806 3.93934 4.43936C3.65804 4.72067 3.5 5.1022 3.5 5.50002V18.5C3.5 18.8978 3.65804 19.2794 3.93934 19.5607C4.22065 19.842 4.60218 20 5 20H19C19.3978 20 19.7794 19.842 20.0607 19.5607C20.342 19.2794 20.5 18.8978 20.5 18.5V8.50002C20.5 8.1022 20.342 7.72067 20.0607 7.43936C19.7794 7.15806 19.3978 7.00002 19 7.00002L12 7.00002L11.9987 7.00002C11.8939 7.00029 11.7916 6.96761 11.7064 6.9066C11.6216 6.8459 11.5579 6.76021 11.5242 6.66154C11.5241 6.66103 11.5239 6.66053 11.5237 6.66002L10.9849 5.02365ZM11.7937 11.0489L11.8039 11.0451L11.8138 11.0409C11.9049 11.0026 12.0052 10.9922 12.1022 11.0109C12.1981 11.0293 12.2864 11.0755 12.3564 11.1435C12.3981 11.1865 12.4304 11.2376 12.4512 11.2937L12.4553 11.305L12.46 11.3161C12.4851 11.3749 12.4987 11.4381 12.5 11.502C12.4984 11.6317 12.4464 11.7558 12.355 11.8479L12.71 12.2L12.355 11.8479C12.3085 11.8948 12.2532 11.932 12.1923 11.9574C12.1314 11.9828 12.066 11.9958 12 11.9958C11.934 11.9958 11.8686 11.9828 11.8077 11.9574C11.7468 11.932 11.6915 11.8948 11.645 11.8479L11.29 12.2L11.645 11.8479C11.5537 11.7558 11.5017 11.6319 11.5 11.5024C11.503 11.368 11.5551 11.2394 11.6465 11.1408C11.6888 11.1005 11.7389 11.0692 11.7937 11.0489ZM11.6464 14.1465C11.7402 14.0527 11.8674 14 12 14C12.1326 14 12.2598 14.0527 12.3536 14.1465C12.4473 14.2402 12.5 14.3674 12.5 14.5V16.5C12.5 16.6326 12.4473 16.7598 12.3536 16.8536C12.2598 16.9473 12.1326 17 12 17C11.8674 17 11.7402 16.9473 11.6464 16.8536C11.5527 16.7598 11.5 16.6326 11.5 16.5V14.5C11.5 14.3674 11.5527 14.2402 11.6464 14.1465Z" fill="#111111" stroke="#111111"/>
</svg>
