<svg width="24" height="24" viewBox="0 0 24 24" fill="none" xmlns="http://www.w3.org/2000/svg">
<path d="M12.2438 5.65241L12.355 6.00002H12.72H19C19.663 6.00002 20.2989 6.26341 20.7678 6.73226C21.2366 7.2011 21.5 7.83698 21.5 8.50002V18.5C21.5 19.1631 21.2366 19.799 20.7678 20.2678C20.2989 20.7366 19.663 21 19 21H5C4.33696 21 3.70107 20.7366 3.23223 20.2678C2.76339 19.799 2.5 19.1631 2.5 18.5V5.50002C2.5 4.83698 2.76339 4.2011 3.23223 3.73226C3.70107 3.26341 4.33696 3.00002 5 3.00002L9.56 3.00003L9.56193 3.00002C10.0806 2.99802 10.587 3.15737 11.011 3.45599C11.4331 3.75323 11.7528 4.17381 11.9262 4.65992L12.2438 5.65241ZM10.9849 5.02365L10.9849 5.02364L9.56 4.00002H9.55942H5C4.60217 4.00002 4.22064 4.15806 3.93934 4.43936C3.65804 4.72067 3.5 5.1022 3.5 5.50002V18.5C3.5 18.8978 3.65804 19.2794 3.93934 19.5607C4.22065 19.842 4.60218 20 5 20H19C19.3978 20 19.7794 19.842 20.0607 19.5607C20.342 19.2794 20.5 18.8978 20.5 18.5V8.50002C20.5 8.1022 20.342 7.72067 20.0607 7.43936C19.7794 7.15806 19.3978 7.00002 19 7.00002L12 7.00002L11.9987 7.00002C11.8939 7.00029 11.7916 6.96761 11.7064 6.9066C11.6216 6.8459 11.5579 6.76021 11.5242 6.66154C11.5241 6.66103 11.5239 6.66053 11.5237 6.66002L10.9849 5.02365ZM9.64645 13.1465C9.74022 13.0527 9.86739 13 10 13H14C14.1326 13 14.2598 13.0527 14.3536 13.1465C14.4473 13.2402 14.5 13.3674 14.5 13.5C14.5 13.6326 14.4473 13.7598 14.3536 13.8536C14.2598 13.9473 14.1326 14 14 14H10C9.86739 14 9.74022 13.9473 9.64645 13.8536C9.55268 13.7598 9.5 13.6326 9.5 13.5C9.5 13.3674 9.55268 13.2402 9.64645 13.1465Z" fill="#111111" stroke="#111111"/>
</svg>
