<svg width="24" height="24" viewBox="0 0 24 24" fill="none" xmlns="http://www.w3.org/2000/svg">
<path d="M10.9849 5.02364L10.9849 5.02365L11.5237 6.66002C11.5239 6.66053 11.5241 6.66103 11.5242 6.66154L10.9849 5.02364ZM10.9849 5.02364L10.9837 5.02002M10.9849 5.02364L10.9837 5.02002M10.9837 5.02002C10.8831 4.72209 10.6914 4.46332 10.4357 4.28029C10.1801 4.09739 9.87364 3.99936 9.55942 4.00002L10.9837 5.02002ZM12.5 12.5V13H13H14C14.1326 13 14.2598 13.0527 14.3536 13.1465C14.4473 13.2402 14.5 13.3674 14.5 13.5C14.5 13.6326 14.4473 13.7598 14.3536 13.8536C14.2598 13.9473 14.1326 14 14 14H13H12.5V14.5V15.5C12.5 15.6326 12.4473 15.7598 12.3536 15.8536C12.2598 15.9473 12.1326 16 12 16C11.8674 16 11.7402 15.9473 11.6464 15.8536C11.5527 15.7598 11.5 15.6326 11.5 15.5V14.5V14H11H10C9.86739 14 9.74022 13.9473 9.64645 13.8536C9.55268 13.7598 9.5 13.6326 9.5 13.5C9.5 13.3674 9.55268 13.2402 9.64645 13.1465C9.74022 13.0527 9.86739 13 10 13H11H11.5V12.5V11.5C11.5 11.3674 11.5527 11.2402 11.6464 11.1465C11.7402 11.0527 11.8674 11 12 11C12.1326 11 12.2598 11.0527 12.3536 11.1465C12.4473 11.2402 12.5 11.3674 12.5 11.5V12.5ZM12.2438 5.65241L12.355 6.00002H12.72H19C19.663 6.00002 20.2989 6.26341 20.7678 6.73226C21.2366 7.2011 21.5 7.83698 21.5 8.50002V18.5C21.5 19.1631 21.2366 19.799 20.7678 20.2678C20.2989 20.7366 19.663 21 19 21H5C4.33696 21 3.70107 20.7366 3.23223 20.2678C2.76339 19.799 2.5 19.1631 2.5 18.5V5.50002C2.5 4.83698 2.76339 4.2011 3.23223 3.73226C3.70107 3.26341 4.33696 3.00002 5 3.00002L9.56 3.00003L9.56193 3.00002C10.0806 2.99802 10.587 3.15737 11.011 3.45599C11.4331 3.75323 11.7528 4.17381 11.9262 4.65992L12.2438 5.65241Z" fill="#111111" stroke="#111111"/>
</svg>
