<svg width="24" height="24" viewBox="0 0 24 24" fill="none" xmlns="http://www.w3.org/2000/svg">
<path d="M19.6651 6.40679L19.665 6.4068L19.6682 6.41105C20.8654 8.02781 21.5079 9.98823 21.5 12C21.4955 12.4468 21.4575 12.8927 21.3864 13.334L21.3863 13.3339L21.385 13.3431C21.1067 15.3 20.2251 17.1213 18.8628 18.5534C17.5005 19.9855 15.7255 20.957 13.785 21.3326L13.7828 21.333C13.1965 21.4492 12.6 21.5063 12.0023 21.5035L12.0023 21.5034L11.9931 21.5035C11.1027 21.5158 10.2149 21.4043 9.35527 21.1721C6.9894 20.4811 4.98463 18.8976 3.76444 16.756L3.76445 16.756L3.76232 16.7523C3.0172 15.4699 2.58477 14.03 2.5 12.5494V12.0038C2.50194 10.4475 2.88617 8.91558 3.61894 7.5426C4.35175 6.16955 5.41068 4.99756 6.70262 4.1297C7.99456 3.26184 9.47994 2.72468 11.0281 2.56547C12.5764 2.40625 14.14 2.62985 15.5815 3.21661L15.5833 3.21734C17.2171 3.87486 18.632 4.98044 19.6651 6.40679ZM17.4683 9.9187L18.4168 7.3835H19.174L18.4949 6.56437C17.7331 5.64552 16.7823 4.90157 15.7072 4.38313L15.4379 4.25326L15.196 4.42906L12.706 6.23906L12.5 6.38881V6.6435V8.4935V8.75169L12.7105 8.90117L15.0905 10.5912L15.2831 10.7279L15.5111 10.666L17.1311 10.226L17.3785 10.1588L17.4683 9.9187ZM14.4741 11.8322L14.5915 11.4817L14.2908 11.2668L12.2908 9.83677L12 9.62884L11.7092 9.83677L9.70919 11.2668L9.40975 11.4809L9.52525 11.8304L10.2953 14.1604L10.4086 14.5035H10.77H13.22H13.5799L13.6941 14.1622L14.4741 11.8322ZM12.0056 3.50353L12.0056 3.5034L11.9944 3.50353C11.5995 3.50797 11.2054 3.53992 10.815 3.59915L9.60388 3.78289L10.5977 4.49913L11.7077 5.29913L12 5.50983L12.2923 5.29913L13.4023 4.49913L14.3961 3.78289L13.185 3.59915C12.7946 3.53992 12.4005 3.50797 12.0056 3.50353ZM5.35851 8.22849L5.0004 7.04672L4.43541 8.14473C4.07144 8.85205 3.81005 9.60759 3.65909 10.3886L3.42483 11.6005L4.43649 10.8933L5.56649 10.1033L5.86367 9.89552L5.75851 9.54849L5.35851 8.22849ZM6.2681 17.0438L5.02764 16.9989L5.8906 17.8911C6.44059 18.4597 7.06457 18.9518 7.74577 19.354L8.81429 19.985L8.48171 18.7895L8.11171 17.4595L8.01367 17.1071L7.6481 17.0938L6.2681 17.0438ZM7.98255 16.1032L8.21115 16.1112L8.36667 15.9434L9.25667 14.9834L9.45573 14.7687L9.36587 14.49L8.47587 11.73L8.40621 11.514L8.19773 11.4243L6.75773 10.8043L6.50191 10.6941L6.2736 10.8537L3.7836 12.5936L3.53315 12.7687L3.57463 13.0714C3.70112 13.9946 3.98162 14.89 4.40444 15.7204L4.53812 15.9829L4.83255 15.9932L7.98255 16.1032ZM8.6553 10.5297L8.9219 10.6493L9.15698 10.4757L11.297 8.89574L11.5 8.74585V8.4935V6.6435V6.38821L11.2932 6.2385L8.79322 4.4285L8.54722 4.2504L8.27578 4.38659C7.44274 4.80455 6.68478 5.35775 6.03274 6.02369L5.82557 6.23527L5.91153 6.51863L6.82153 9.51863L6.88761 9.73648L7.0953 9.82968L8.6553 10.5297ZM13.0589 20.43L13.3601 20.3943L13.4676 20.1106L14.5776 17.1806L14.6689 16.9395L14.5254 16.7252L13.8554 15.7252L13.7069 15.5035H13.44H10.37H10.1526L10.0043 15.6625L9.17434 16.5525L8.98191 16.7588L9.05905 17.0302L9.88905 19.9502L9.97143 20.24L10.2661 20.3026C11.1838 20.4975 12.1273 20.5405 13.0589 20.43ZM15.41 19.7335H15.7568L15.8129 19.5835C16.437 19.2817 17.0213 18.903 17.5521 18.4559L18.5217 17.6393L17.2557 17.5742L15.8957 17.5042L15.53 17.4853L15.4017 17.8284L14.9417 19.0584L15.2615 19.178L15.38 19.7335H15.41ZM18.87 16.6135L18.8784 16.1371L19.2658 16.3755C19.7467 15.5941 20.0953 14.7387 20.2977 13.8438L20.3645 13.5481L20.1333 13.352L17.7733 11.352L17.5727 11.1821L17.319 11.251L15.809 11.661L15.5473 11.732L15.4641 11.99L14.5741 14.75L14.5014 14.9756L14.6299 15.1746L15.3399 16.2746L15.4815 16.494L15.7423 16.5032L17.9647 16.5818L17.9452 16.6135H18.84H18.87ZM18.4518 10.1079L18.3278 10.4386L18.598 10.6661L19.608 11.5161L20.5438 12.3035L20.4277 11.0861C20.3532 10.3042 20.1625 9.53777 19.8619 8.81214L19.3769 7.64119L18.9318 8.82794L18.4518 10.1079Z" fill="#111111" stroke="#111111"/>
</svg>
