<svg width="24" height="24" viewBox="0 0 24 24" fill="none" xmlns="http://www.w3.org/2000/svg">
<path d="M21.3496 7.92864L21.3497 7.9285C21.2895 7.86933 21.2153 7.82638 21.134 7.80365C21.0527 7.78092 20.9669 7.77915 20.8847 7.7985L20.8815 7.79925C20.6311 7.85649 20.3753 7.88749 20.1184 7.89174L20.1101 7.89188V7.89181C19.1819 7.89181 18.2916 7.52306 17.6353 6.86668C16.9789 6.21031 16.6101 5.32007 16.6101 4.39181V4.38526L16.6102 4.38526C16.6135 4.12984 16.6448 3.87555 16.7035 3.62693L16.704 3.62481C16.7239 3.54228 16.7224 3.45604 16.6997 3.37424C16.677 3.29243 16.6339 3.21774 16.5744 3.15722C16.5149 3.09669 16.4409 3.05232 16.3595 3.02828C16.2781 3.00424 16.1919 3.00133 16.109 3.01981L16.1079 3.02005C15.2136 3.21751 14.4024 3.6873 13.7861 4.36478C13.1698 5.04225 12.7786 5.8941 12.6664 6.80308L12.5947 7.38316L12.0327 7.22257C11.5336 7.07992 11.0173 7.00566 10.4982 7.00181C9.17772 7.00146 7.90119 7.47618 6.90181 8.33928C5.90201 9.20275 5.2464 10.3972 5.05484 11.7043L5.00767 12.0262L4.69426 12.1135C4.09737 12.2797 3.56659 12.6266 3.17483 13.1067C2.78307 13.5867 2.54954 14.1762 2.50633 14.7943C2.46312 15.4124 2.61235 16.0287 2.93351 16.5586C3.25306 17.0858 3.72721 17.5016 4.2914 17.7497C4.36013 17.776 4.43289 17.7903 4.50647 17.7918C4.62127 17.7923 4.73275 17.7532 4.82215 17.6811C4.91214 17.6085 4.9742 17.507 4.99778 17.3938C5.02136 17.2807 5.00499 17.1628 4.95146 17.0603C4.89794 16.9579 4.81057 16.8771 4.70421 16.8318L4.70419 16.8318C4.34524 16.6789 4.03946 16.4234 3.82525 16.0973C3.61129 15.7716 3.4982 15.39 3.50013 15.0004M21.3496 7.92864L4.00013 15.0018M21.3496 7.92864L21.3599 7.93824L21.3496 7.92864ZM3.50013 15.0004C3.50013 14.9999 3.50013 14.9995 3.50014 14.999L4.00013 15.0018M3.50013 15.0004C3.50013 15.0009 3.50013 15.0013 3.50013 15.0018H4.00013M3.50013 15.0004C3.5005 14.4705 3.71117 13.9623 4.08591 13.5876C4.46099 13.2125 4.96969 13.0018 5.50013 13.0018C5.63274 13.0018 5.75991 12.9491 5.85368 12.8554C5.94745 12.7616 6.00013 12.6344 6.00013 12.5018C6.00013 11.3083 6.47423 10.1637 7.31815 9.31983C8.16197 8.47601 9.3064 8.00192 10.4997 8.00181M4.00013 15.0018C4.00013 14.604 4.15816 14.2225 4.43947 13.9412C4.72077 13.6598 5.1023 13.5018 5.50013 13.5018C5.76534 13.5018 6.0197 13.3965 6.20723 13.2089C6.39477 13.0214 6.50013 12.767 6.50013 12.5018C6.50013 11.4409 6.92156 10.4235 7.6717 9.67338C8.42185 8.92324 9.43926 8.50181 10.5001 8.50181M10.4997 8.00181L10.5001 8.50181M10.4997 8.00181C10.4999 8.00181 10.5 8.00181 10.5001 8.00181V8.50181M10.4997 8.00181C11.3741 8.00112 12.229 8.25977 12.9564 8.74503C13.7734 9.28295 14.393 10.0725 14.7212 10.9941L14.7247 11.004L14.7246 11.004C14.7531 11.0899 14.8045 11.1665 14.8732 11.2255C14.9388 11.2818 15.0179 11.3202 15.1027 11.3368M10.5001 8.50181L15.1027 11.3368M12.1701 6.74181C12.0087 6.69568 11.8456 6.65612 11.6813 6.62321C11.6787 6.6423 11.6763 6.66141 11.6739 6.68055L12.1701 6.74181ZM12.1701 6.74181L12.3075 6.26105C12.2907 6.25625 12.2739 6.25152 12.257 6.24685C12.2198 6.40971 12.1907 6.5749 12.1701 6.74181ZM18.5101 12.1718C18.5891 12.3213 18.6589 12.475 18.7192 12.632C18.6944 12.6393 18.6695 12.6464 18.6446 12.6534L18.5101 12.1718ZM18.5101 12.1718C18.6731 12.1263 18.8332 12.0726 18.9898 12.0109C18.9775 11.9866 18.965 11.9624 18.9522 11.9382L18.5101 12.1718ZM15.1027 11.3368C15.0964 11.3361 15.0902 11.3354 15.084 11.3347L15.0301 11.8318L15.1146 11.339C15.1106 11.3383 15.1066 11.3376 15.1027 11.3368ZM16.5173 10.8795L16.4075 10.8043C16.2129 10.6709 16.0071 10.5546 15.7925 10.4567L15.6227 10.3792L15.5452 10.2094C15.1696 9.38607 14.5965 8.66818 13.8769 8.11938L13.6801 7.9693V7.72181V7.72111V7.7204V7.7197V7.719V7.71829V7.71759V7.71688V7.71618V7.71547V7.71477V7.71406V7.71336V7.71265V7.71195V7.71124V7.71053V7.70983V7.70912V7.70841V7.7077V7.707V7.70629V7.70558V7.70487V7.70416V7.70345V7.70275V7.70204V7.70133V7.70062V7.69991V7.6992V7.69849V7.69778V7.69707V7.69636V7.69565V7.69493V7.69422V7.69351V7.6928V7.69209V7.69138V7.69066V7.68995V7.68924V7.68853V7.68781V7.6871V7.68639V7.68567V7.68496V7.68425V7.68353V7.68282V7.6821V7.68139V7.68067V7.67996V7.67924V7.67853V7.67781V7.6771V7.67638V7.67566V7.67495V7.67423V7.67352V7.6728V7.67208V7.67137V7.67065V7.66993V7.66921V7.6685V7.66778V7.66706V7.66634V7.66562V7.6649V7.66419V7.66347V7.66275V7.66203V7.66131V7.66059V7.65987V7.65915V7.65843V7.65771V7.65699V7.65627V7.65555V7.65483V7.65411V7.65339V7.65267V7.65195V7.65122V7.6505V7.64978V7.64906V7.64834V7.64762V7.64689V7.64617V7.64545V7.64473V7.644V7.64328V7.64256V7.64183V7.64111V7.64039V7.63966V7.63894V7.63822V7.63749V7.63677V7.63605V7.63532V7.6346V7.63387V7.63315V7.63242V7.6317V7.63097V7.63025V7.62952V7.6288V7.62807V7.62735V7.62662V7.6259V7.62517V7.62444V7.62372V7.62299V7.62227V7.62154V7.62081V7.62009V7.61936V7.61863V7.61791V7.61718V7.61645V7.61572V7.615V7.61427V7.61354V7.61281V7.61209V7.61136V7.61063V7.6099V7.60918V7.60845V7.60772V7.60699V7.60626V7.60553V7.60481V7.60408V7.60335V7.60262V7.60189V7.60116V7.60043V7.5997V7.59898V7.59825V7.59752V7.59679V7.59606V7.59533V7.5946V7.59387V7.59314V7.59241V7.59168V7.59095V7.59022V7.58949V7.58876V7.58803V7.5873V7.58657V7.58584V7.58511V7.58438V7.58365V7.58292V7.58219V7.58145V7.58072V7.57999V7.57926V7.57853V7.5778V7.57707V7.57634V7.57561V7.57488V7.57414V7.57341V7.57268V7.57195V7.57122V7.57049V7.56976V7.56902V7.56829V7.56756V7.56683V7.5661V7.56537V7.56463V7.5639V7.56317V7.56244V7.56171V7.56098V7.56024V7.55951V7.55878V7.55805V7.55732V7.55658V7.55585V7.55512V7.55439V7.55365V7.55292V7.55219V7.55146V7.55073V7.54999V7.54926V7.54853V7.5478V7.54706V7.54633V7.5456V7.54487V7.54414V7.5434V7.54267V7.54194V7.54121V7.54047V7.53974V7.53901V7.53828V7.53754V7.53681V7.53608V7.53535V7.53461V7.53388V7.53315V7.53242V7.53168V7.53095V7.53022V7.52949V7.52875V7.52802V7.52729V7.52656V7.52583V7.52509V7.52436V7.52363V7.5229V7.52216V7.52143V7.5207V7.51997V7.51923V7.5185V7.51777V7.51704V7.51631V7.51557V7.51484V7.51411V7.51338V7.51265V7.51191V7.51118V7.51045V7.50972V7.50899V7.50826V7.50752V7.50679V7.50606V7.50533V7.5046V7.50387V7.50313V7.5024V7.50167V7.50094V7.50021V7.49948V7.49875V7.49801V7.49728V7.49655V7.49582V7.49509V7.49436V7.49363V7.4929V7.49217V7.49144V7.49071V7.48997V7.48924V7.48851V7.48778V7.48705V7.48632V7.48559V7.48486V7.48413V7.4834V7.48267V7.48194V7.48121V7.48048V7.47975V7.47902V7.47829V7.47756V7.47683V7.47611V7.47538V7.47465V7.47392V7.47319V7.47246V7.47173V7.471V7.47027V7.46954V7.46882V7.46809V7.46736V7.46663V7.4659V7.46517V7.46445V7.46372V7.46299V7.46226V7.46153V7.46081V7.46008V7.45935V7.45862V7.4579V7.45717V7.45644V7.45572V7.45499V7.45426V7.45354V7.45281V7.45208V7.45136V7.45063V7.4499V7.44918V7.44845V7.44773V7.447V7.44627V7.44555V7.44482V7.4441V7.44337V7.44265V7.44192V7.4412V7.44047V7.43975V7.43902V7.4383V7.43758V7.43685V7.43613V7.4354V7.43468V7.43396V7.43323V7.43251V7.43179V7.43106V7.43034V7.42962V7.4289V7.42817V7.42745V7.42673V7.42601V7.42528V7.42456V7.42384V7.42312V7.4224V7.42168V7.42095V7.42023V7.41951V7.41879V7.41807V7.41735V7.41663V7.41591V7.41519V7.41447V7.41375V7.41303V7.41231V7.41159V7.41087V7.41015V7.40944V7.40872V7.408V7.40728V7.40656V7.40584V7.40513V7.40441V7.40369V7.40297V7.40226V7.40154V7.40082V7.40011V7.39939V7.39867V7.39796V7.39724V7.39652V7.39581V7.39509V7.39438V7.39366V7.39295V7.39223V7.39152V7.3908V7.39009V7.38938V7.38866V7.38795V7.38723V7.38652V7.38581V7.3851V7.38438V7.38367V7.38296V7.38225V7.38153V7.38082V7.38011V7.3794V7.37869V7.37798V7.37726V7.37655V7.37584V7.37513V7.37442V7.37371V7.373V7.37229V7.37158V7.37088V7.37017V7.36946V7.36875V7.36804V7.36733V7.36663V7.36592V7.36521V7.3645V7.3638V7.36309V7.36238V7.36168V7.36097V7.36026V7.35956V7.35885V7.35815V7.35744V7.35674V7.35603V7.35533V7.35463V7.35392V7.35322V7.35251V7.35184L16.5173 10.8795ZM16.5173 10.8795L16.6499 10.8902M16.5173 10.8795L16.6499 10.8902M16.6499 10.8902C16.8087 10.903 16.9682 10.9036 17.1271 10.892C17.6422 10.8948 18.1517 10.7839 18.6192 10.5671C19.0937 10.347 19.5128 10.0235 19.8457 9.62011L20.4115 8.93466L19.5319 8.807C18.5718 8.66764 17.6824 8.22169 16.9963 7.53564C16.3102 6.84958 15.8643 5.96016 15.7249 5L15.5946 4.10209M16.6499 10.8902L15.5946 4.10209M15.5946 4.10209L14.9051 4.69184M15.5946 4.10209L14.9051 4.69184M14.9051 4.69184C14.5209 5.02045 14.2125 5.42837 14.001 5.88756C13.7896 6.34674 13.6801 6.84628 13.6801 7.35181L14.9051 4.69184ZM16.2698 16.5329C16.2712 16.532 16.2726 16.5311 16.274 16.5301L16.0001 16.1118L16.263 16.5371C16.2653 16.5357 16.2675 16.5343 16.2698 16.5329ZM16.8236 17.3752C16.8224 17.376 16.8212 17.3768 16.8201 17.3776L17.1001 17.7918L16.8262 17.3735C16.8254 17.3741 16.8245 17.3747 16.8236 17.3752ZM10.5501 14.6603C10.5999 14.6603 10.649 14.6677 10.6961 14.6821L10.7532 14.7265C10.7587 14.7308 10.7686 14.738 10.7825 14.7482C10.9171 14.8465 11.4247 15.2172 11.9292 15.8249C12.4876 16.4976 13.0001 17.4126 13.0001 18.5018C13.0001 19.1649 12.7367 19.8007 12.2679 20.2696C11.7991 20.7384 11.1632 21.0018 10.5001 21.0018C9.83709 21.0018 9.2012 20.7384 8.73236 20.2696C8.26352 19.8007 8.00013 19.1649 8.00013 18.5018C8.00013 17.4125 8.51037 16.5004 9.07201 15.8306C9.35076 15.4982 9.63468 15.2347 9.85692 15.0505C10.058 14.8837 10.1928 14.7947 10.2204 14.7764C10.2247 14.7736 10.2264 14.7725 10.2254 14.773L10.2485 14.7607L10.2701 14.7461C10.3528 14.6902 10.4503 14.6603 10.5501 14.6603ZM9.0018 18.461L9.00013 18.4814V18.5018C9.00013 18.8996 9.15816 19.2812 9.43947 19.5625C9.72077 19.8438 10.1023 20.0018 10.5001 20.0018C10.898 20.0018 11.2795 19.8438 11.5608 19.5625C11.8421 19.2812 12.0001 18.8996 12.0001 18.5018V18.4814L11.9985 18.461C11.9248 17.5619 11.5068 16.726 10.8318 16.1276L10.5001 15.8337L10.1685 16.1276C9.49341 16.726 9.07546 17.5619 9.0018 18.461ZM21.5099 8.40324L22.0001 8.50181L21.5124 8.39169C21.5119 8.39389 21.5114 8.39609 21.5109 8.39828C21.5106 8.39994 21.5103 8.40159 21.5099 8.40324Z" fill="#111111" stroke="#111111"/>
</svg>
