<svg width="24" height="24" viewBox="0 0 24 24" fill="none" xmlns="http://www.w3.org/2000/svg">
<path d="M9.32617 16.4708L9.32613 16.4707L9.31992 16.4759C9.2694 16.518 9.21107 16.5497 9.14826 16.5692C9.08546 16.5887 9.01942 16.5957 8.95394 16.5896C8.88845 16.5836 8.8248 16.5647 8.76662 16.534C8.70883 16.5036 8.65757 16.4621 8.61574 16.4119C8.53283 16.3103 8.49315 16.1801 8.50528 16.0495C8.5173 15.92 8.57933 15.8003 8.67807 15.7158C9.62033 14.9602 10.7921 14.5484 12 14.5484C13.2079 14.5484 14.3797 14.9602 15.3219 15.7158C15.4207 15.8003 15.4827 15.92 15.4947 16.0495C15.5069 16.1801 15.4672 16.3103 15.3842 16.4119C15.3424 16.4621 15.2912 16.5036 15.2334 16.534C15.1752 16.5647 15.1116 16.5836 15.0461 16.5896C14.9806 16.5957 14.9145 16.5887 14.8517 16.5692C14.7889 16.5497 14.7306 16.518 14.6801 16.4759L14.6801 16.4758L14.6738 16.4708C13.9165 15.8601 12.9729 15.5271 12 15.5271C11.0271 15.5271 10.0836 15.8601 9.32617 16.4708ZM9.27779 10.4157C9.19557 10.4707 9.09889 10.5 9 10.5C8.8674 10.5 8.74022 10.4473 8.64645 10.3536C8.55268 10.2598 8.5 10.1326 8.5 10C8.5 9.90111 8.52933 9.80444 8.58427 9.72221C8.63921 9.63999 8.7173 9.5759 8.80866 9.53806C8.90003 9.50022 9.00056 9.49031 9.09755 9.50961C9.19454 9.5289 9.28363 9.57652 9.35356 9.64645C9.42348 9.71637 9.4711 9.80546 9.4904 9.90245C9.50969 9.99945 9.49979 10.1 9.46194 10.1913C9.4241 10.2827 9.36001 10.3608 9.27779 10.4157ZM6.72209 4.10104C8.28435 3.05717 10.1211 2.5 12 2.5C13.2476 2.5 14.4829 2.74572 15.6355 3.22314C16.7881 3.70056 17.8354 4.40033 18.7175 5.28249C19.5997 6.16464 20.2994 7.21191 20.7769 8.36451C21.2543 9.5171 21.5 10.7524 21.5 12C21.5 13.8789 20.9428 15.7157 19.899 17.2779C18.8551 18.8402 17.3714 20.0578 15.6355 20.7769C13.8996 21.4959 11.9895 21.684 10.1466 21.3175C8.30383 20.9509 6.61109 20.0461 5.28249 18.7175C3.95389 17.3889 3.0491 15.6962 2.68254 13.8534C2.31598 12.0105 2.50412 10.1004 3.22315 8.36451C3.94218 6.62861 5.15982 5.14491 6.72209 4.10104ZM7.27766 19.0675C8.67548 20.0015 10.3189 20.5 12 20.5C14.2543 20.5 16.4164 19.6045 18.0104 18.0104C19.6045 16.4163 20.5 14.2543 20.5 12C20.5 10.3189 20.0015 8.67547 19.0675 7.27765C18.1335 5.87984 16.806 4.79037 15.2528 4.14702C13.6996 3.50368 11.9906 3.33535 10.3417 3.66333C8.6929 3.9913 7.17834 4.80085 5.9896 5.98959C4.80085 7.17834 3.9913 8.69289 3.66333 10.3417C3.33536 11.9906 3.50368 13.6996 4.14703 15.2528C4.79037 16.806 5.87984 18.1335 7.27766 19.0675ZM14.7222 9.58426C14.8044 9.52932 14.9011 9.5 15 9.5C15.1326 9.5 15.2598 9.55268 15.3536 9.64645C15.4473 9.74022 15.5 9.86739 15.5 10C15.5 10.0989 15.4707 10.1956 15.4157 10.2778C15.3608 10.36 15.2827 10.4241 15.1913 10.4619C15.1 10.4998 14.9994 10.5097 14.9025 10.4904C14.8055 10.4711 14.7164 10.4235 14.6465 10.3536C14.5765 10.2836 14.5289 10.1945 14.5096 10.0975C14.4903 10.0006 14.5002 9.90002 14.5381 9.80866C14.5759 9.7173 14.64 9.63921 14.7222 9.58426Z" fill="#111111" stroke="#111111"/>
</svg>
