<svg width="24" height="24" viewBox="0 0 24 24" fill="none" xmlns="http://www.w3.org/2000/svg">
<mask id="path-1-inside-1_2239_7603" fill="white">
<path d="M21 17.9963H19V14.9963C19 14.7311 18.8946 14.4767 18.7071 14.2892C18.5196 14.1017 18.2652 13.9963 18 13.9963H13V11.2863L14.13 11.8763C14.2948 11.9625 14.4804 12.001 14.6658 11.9876C14.8513 11.9741 15.0294 11.9092 15.18 11.8002C15.3307 11.6911 15.4479 11.5422 15.5185 11.3701C15.5892 11.1981 15.6105 11.0098 15.58 10.8263L15.18 8.4563L16.9 6.7663C17.0303 6.63908 17.1233 6.47871 17.1692 6.30248C17.215 6.12625 17.2118 5.94086 17.16 5.7663C17.102 5.58857 16.9954 5.43065 16.8522 5.31046C16.7091 5.19026 16.5351 5.1126 16.35 5.0863L14 4.7163L12.9 2.5563C12.8181 2.38723 12.6903 2.24464 12.5311 2.14487C12.3719 2.0451 12.1879 1.99219 12 1.99219C11.8121 1.99219 11.6281 2.0451 11.4689 2.14487C11.3097 2.24464 11.1819 2.38723 11.1 2.5563L10 4.7163L7.61 5.0663C7.42492 5.0926 7.25092 5.17026 7.10775 5.29046C6.96458 5.41065 6.85796 5.56857 6.8 5.7463C6.74819 5.92086 6.74502 6.10625 6.79084 6.28248C6.83666 6.45871 6.92973 6.61908 7.06 6.7463L8.82 8.4563L8.42 10.8263C8.38952 11.0098 8.4108 11.1981 8.48145 11.3701C8.5521 11.5422 8.66933 11.6911 8.81996 11.8002C8.9706 11.9092 9.14866 11.9741 9.33415 11.9876C9.51964 12.001 9.70521 11.9625 9.87 11.8763L11 11.2863V13.9963H6C5.73478 13.9963 5.48043 14.1017 5.29289 14.2892C5.10536 14.4767 5 14.7311 5 14.9963V17.9963H3C2.73478 17.9963 2.48043 18.1017 2.29289 18.2892C2.10536 18.4767 2 18.7311 2 18.9963V20.9963C2 21.2615 2.10536 21.5159 2.29289 21.7034C2.48043 21.8909 2.73478 21.9963 3 21.9963C3.26522 21.9963 3.51957 21.8909 3.70711 21.7034C3.89464 21.5159 4 21.2615 4 20.9963V19.9963H8V20.9963C8 21.2615 8.10536 21.5159 8.29289 21.7034C8.48043 21.8909 8.73478 21.9963 9 21.9963C9.26522 21.9963 9.51957 21.8909 9.70711 21.7034C9.89464 21.5159 10 21.2615 10 20.9963V18.9963C10 18.7311 9.89464 18.4767 9.70711 18.2892C9.51957 18.1017 9.26522 17.9963 9 17.9963H7V15.9963H17V17.9963H15C14.7348 17.9963 14.4804 18.1017 14.2929 18.2892C14.1054 18.4767 14 18.7311 14 18.9963V20.9963C14 21.2615 14.1054 21.5159 14.2929 21.7034C14.4804 21.8909 14.7348 21.9963 15 21.9963C15.2652 21.9963 15.5196 21.8909 15.7071 21.7034C15.8946 21.5159 16 21.2615 16 20.9963V19.9963H20V20.9963C20 21.2615 20.1054 21.5159 20.2929 21.7034C20.4804 21.8909 20.7348 21.9963 21 21.9963C21.2652 21.9963 21.5196 21.8909 21.7071 21.7034C21.8946 21.5159 22 21.2615 22 20.9963V18.9963C22 18.7311 21.8946 18.4767 21.7071 18.2892C21.5196 18.1017 21.2652 17.9963 21 17.9963ZM12 8.6263C11.8359 8.62712 11.6744 8.66833 11.53 8.7463L10.73 9.1663L10.88 8.2663C10.9062 8.1071 10.8936 7.94392 10.8431 7.79068C10.7926 7.63745 10.7057 7.4987 10.59 7.3863L9.94 6.7463L10.84 6.6163C11.001 6.59479 11.1544 6.53437 11.2868 6.44028C11.4192 6.3462 11.5267 6.22127 11.6 6.0763L12 5.2563L12.4 6.0763C12.4733 6.22127 12.5808 6.3462 12.7132 6.44028C12.8456 6.53437 12.999 6.59479 13.16 6.6163L14.06 6.7463L13.41 7.3863C13.2943 7.4987 13.2074 7.63745 13.1569 7.79068C13.1064 7.94392 13.0938 8.1071 13.12 8.2663L13.27 9.1663L12.47 8.7463C12.3256 8.66833 12.1641 8.62712 12 8.6263Z"/>
</mask>
<path d="M21 17.9963H19V14.9963C19 14.7311 18.8946 14.4767 18.7071 14.2892C18.5196 14.1017 18.2652 13.9963 18 13.9963H13V11.2863L14.13 11.8763C14.2948 11.9625 14.4804 12.001 14.6658 11.9876C14.8513 11.9741 15.0294 11.9092 15.18 11.8002C15.3307 11.6911 15.4479 11.5422 15.5185 11.3701C15.5892 11.1981 15.6105 11.0098 15.58 10.8263L15.18 8.4563L16.9 6.7663C17.0303 6.63908 17.1233 6.47871 17.1692 6.30248C17.215 6.12625 17.2118 5.94086 17.16 5.7663C17.102 5.58857 16.9954 5.43065 16.8522 5.31046C16.7091 5.19026 16.5351 5.1126 16.35 5.0863L14 4.7163L12.9 2.5563C12.8181 2.38723 12.6903 2.24464 12.5311 2.14487C12.3719 2.0451 12.1879 1.99219 12 1.99219C11.8121 1.99219 11.6281 2.0451 11.4689 2.14487C11.3097 2.24464 11.1819 2.38723 11.1 2.5563L10 4.7163L7.61 5.0663C7.42492 5.0926 7.25092 5.17026 7.10775 5.29046C6.96458 5.41065 6.85796 5.56857 6.8 5.7463C6.74819 5.92086 6.74502 6.10625 6.79084 6.28248C6.83666 6.45871 6.92973 6.61908 7.06 6.7463L8.82 8.4563L8.42 10.8263C8.38952 11.0098 8.4108 11.1981 8.48145 11.3701C8.5521 11.5422 8.66933 11.6911 8.81996 11.8002C8.9706 11.9092 9.14866 11.9741 9.33415 11.9876C9.51964 12.001 9.70521 11.9625 9.87 11.8763L11 11.2863V13.9963H6C5.73478 13.9963 5.48043 14.1017 5.29289 14.2892C5.10536 14.4767 5 14.7311 5 14.9963V17.9963H3C2.73478 17.9963 2.48043 18.1017 2.29289 18.2892C2.10536 18.4767 2 18.7311 2 18.9963V20.9963C2 21.2615 2.10536 21.5159 2.29289 21.7034C2.48043 21.8909 2.73478 21.9963 3 21.9963C3.26522 21.9963 3.51957 21.8909 3.70711 21.7034C3.89464 21.5159 4 21.2615 4 20.9963V19.9963H8V20.9963C8 21.2615 8.10536 21.5159 8.29289 21.7034C8.48043 21.8909 8.73478 21.9963 9 21.9963C9.26522 21.9963 9.51957 21.8909 9.70711 21.7034C9.89464 21.5159 10 21.2615 10 20.9963V18.9963C10 18.7311 9.89464 18.4767 9.70711 18.2892C9.51957 18.1017 9.26522 17.9963 9 17.9963H7V15.9963H17V17.9963H15C14.7348 17.9963 14.4804 18.1017 14.2929 18.2892C14.1054 18.4767 14 18.7311 14 18.9963V20.9963C14 21.2615 14.1054 21.5159 14.2929 21.7034C14.4804 21.8909 14.7348 21.9963 15 21.9963C15.2652 21.9963 15.5196 21.8909 15.7071 21.7034C15.8946 21.5159 16 21.2615 16 20.9963V19.9963H20V20.9963C20 21.2615 20.1054 21.5159 20.2929 21.7034C20.4804 21.8909 20.7348 21.9963 21 21.9963C21.2652 21.9963 21.5196 21.8909 21.7071 21.7034C21.8946 21.5159 22 21.2615 22 20.9963V18.9963C22 18.7311 21.8946 18.4767 21.7071 18.2892C21.5196 18.1017 21.2652 17.9963 21 17.9963ZM12 8.6263C11.8359 8.62712 11.6744 8.66833 11.53 8.7463L10.73 9.1663L10.88 8.2663C10.9062 8.1071 10.8936 7.94392 10.8431 7.79068C10.7926 7.63745 10.7057 7.4987 10.59 7.3863L9.94 6.7463L10.84 6.6163C11.001 6.59479 11.1544 6.53437 11.2868 6.44028C11.4192 6.3462 11.5267 6.22127 11.6 6.0763L12 5.2563L12.4 6.0763C12.4733 6.22127 12.5808 6.3462 12.7132 6.44028C12.8456 6.53437 12.999 6.59479 13.16 6.6163L14.06 6.7463L13.41 7.3863C13.2943 7.4987 13.2074 7.63745 13.1569 7.79068C13.1064 7.94392 13.0938 8.1071 13.12 8.2663L13.27 9.1663L12.47 8.7463C12.3256 8.66833 12.1641 8.62712 12 8.6263Z" fill="#111111" stroke="#111111" stroke-width="2" mask="url(#path-1-inside-1_2239_7603)"/>
</svg>
