<svg width="24" height="24" viewBox="0 0 24 24" fill="none" xmlns="http://www.w3.org/2000/svg">
<path d="M19.5002 6.00068C19.5022 5.27463 19.3974 4.55224 19.1892 3.85666L19.0825 3.5H18.7102H5.29022H4.91793L5.00022 6H4.50022C4.50022 6.00023 4.50022 6.00046 4.50022 6.00069C4.5004 7.98957 5.29056 9.89694 6.69692 11.3033C8.10344 12.7098 10.0111 13.5 12.0002 13.5C13.9893 13.5 15.897 12.7098 17.3035 11.3033C18.7099 9.89694 19.5 7.98955 19.5002 6.00068ZM19.5002 6.00068C19.5002 6.00045 19.5002 6.00023 19.5002 6H19.0002L19.5002 6.00138C19.5002 6.00115 19.5002 6.00091 19.5002 6.00068ZM12.5002 20V20.5H13.0002H18.0002C18.1328 20.5 18.26 20.5527 18.3538 20.6464C18.4475 20.7402 18.5002 20.8674 18.5002 21C18.5002 21.1326 18.4475 21.2598 18.3538 21.3536C18.26 21.4473 18.1328 21.5 18.0002 21.5H6.00022C5.86761 21.5 5.74043 21.4473 5.64666 21.3536C5.5529 21.2598 5.50022 21.1326 5.50022 21C5.50022 20.8674 5.5529 20.7402 5.64666 20.6464C5.74043 20.5527 5.86761 20.5 6.00022 20.5H11.0002H11.5002V20V14.94V14.4928L11.0558 14.4431C8.9786 14.2109 7.05981 13.2214 5.66604 11.6639C4.27226 10.1064 3.50121 8.08988 3.50023 5.99976L3.50021 5.99647C3.49247 4.90191 3.70343 3.81684 4.12068 2.80493C4.14288 2.75431 4.1733 2.70777 4.21065 2.66717L4.30022 2.6L4.30022 2.6L4.30184 2.59878C4.3407 2.56939 4.38086 2.54177 4.42219 2.51601C4.45206 2.50745 4.48278 2.50208 4.51383 2.5H4.59022H19.4102H19.4737C19.5104 2.50666 19.5461 2.51797 19.58 2.53368L19.58 2.53373L19.5865 2.53661C19.621 2.55199 19.6532 2.57196 19.6824 2.59596L19.694 2.60552L19.7061 2.61437L19.7819 2.66944C19.8184 2.70964 19.8482 2.75558 19.87 2.80548C20.2907 3.81696 20.505 4.90234 20.5002 5.99783L20.5002 5.99976C20.4992 8.08988 19.7282 10.1064 18.3344 11.6639C16.9406 13.2214 15.0218 14.2109 12.9447 14.4431L12.5002 14.4928V14.94V20Z" fill="#111111" stroke="#111111"/>
</svg>
