<svg width="24" height="24" viewBox="0 0 24 24" fill="none" xmlns="http://www.w3.org/2000/svg">
<path d="M6.22163 9.50006H6.78013H17.2201H17.7792L17.717 10.0557L16.6971 19.165C16.6563 19.5336 16.4804 19.874 16.2034 20.1206C15.9269 20.3667 15.569 20.5019 15.1988 20.5001M6.22163 9.50006L8.79013 20.0001M6.22163 9.50006L6.28317 10.0552L7.29316 19.165C7.29316 19.1651 7.29317 19.1651 7.29317 19.1652C7.33398 19.5337 7.50984 19.8741 7.78682 20.1206C8.06339 20.3667 8.42122 20.5019 8.79142 20.5001M6.22163 9.50006L8.79013 20.0001M15.1988 20.5001C15.1983 20.5001 15.1977 20.5 15.1971 20.5L15.2001 20.0001V20.5001H15.1988ZM15.1988 20.5001H8.79142M8.79142 20.5001C8.792 20.5001 8.79258 20.5 8.79316 20.5L8.79013 20.0001M8.79142 20.5001H8.79013V20.0001M18.6274 3.33339L18.6274 3.33341L18.6311 3.33739C18.8688 3.59752 19.0489 3.90499 19.1595 4.23962C19.2699 4.57359 19.3085 4.92708 19.2729 5.277C19.2729 5.27769 19.2728 5.27837 19.2727 5.27906L17.7132 19.2747L17.7132 19.2751C17.6452 19.8894 17.3521 20.4567 16.8904 20.8676C16.4287 21.2785 15.8312 21.5038 15.2132 21.5001H15.2101L8.79013 21.5L8.78709 21.5001C8.16906 21.5038 7.57154 21.2785 7.10986 20.8676C6.64818 20.4567 6.35507 19.8894 6.28709 19.2751L6.28705 19.2747L4.72709 5.27505C4.72708 5.27498 4.72708 5.27492 4.72707 5.27486C4.68829 4.92427 4.72414 4.56945 4.83225 4.2337C4.94039 3.89789 5.11838 3.58877 5.35451 3.32666C5.59065 3.06456 5.87958 2.85539 6.20232 2.71292C6.52507 2.57045 6.87431 2.4979 7.22709 2.50005V2.50006H7.23013H16.7696C17.1203 2.50083 17.467 2.5754 17.787 2.71891C18.1072 2.86248 18.3935 3.07185 18.6274 3.33339ZM17.4401 8.50006H17.8878L18.257 5.16583L17.7601 5.11006L18.2571 5.16508L18.257 5.16573C18.2806 4.95532 18.2594 4.7423 18.1948 4.54068C18.1302 4.33902 18.0236 4.15333 17.882 3.99583L17.8813 3.99506C17.7411 3.83967 17.5699 3.71535 17.3787 3.6301C17.1875 3.54485 16.9806 3.50055 16.7713 3.50006H16.7701L7.23013 3.50005L7.22894 3.50006C7.01963 3.50055 6.81273 3.54485 6.62156 3.6301C6.4304 3.71535 6.25919 3.83967 6.11894 3.99506L6.11825 3.99583C5.97669 4.15333 5.87009 4.33902 5.80546 4.54068C5.74087 4.74221 5.71965 4.95512 5.7432 5.16543C5.74322 5.16557 5.74323 5.1657 5.74325 5.16583L6.06316 8.05508L6.11243 8.50006H6.56013H17.4401ZM14.3537 17.3536C14.2599 17.4474 14.1327 17.5001 14.0001 17.5001C13.8675 17.5001 13.7403 17.4474 13.6466 17.3536C13.5528 17.2598 13.5001 17.1327 13.5001 17.0001V13.0001C13.5001 12.8674 13.5528 12.7403 13.6466 12.6465C13.7403 12.5527 13.8675 12.5001 14.0001 12.5001C14.1327 12.5001 14.2599 12.5527 14.3537 12.6465C14.4474 12.7403 14.5001 12.8674 14.5001 13.0001V17.0001C14.5001 17.1327 14.4474 17.2598 14.3537 17.3536ZM10.3537 17.3536C10.2599 17.4474 10.1327 17.5001 10.0001 17.5001C9.86752 17.5001 9.74034 17.4474 9.64657 17.3536C9.5528 17.2598 9.50013 17.1327 9.50013 17.0001V13.0001C9.50013 12.8674 9.5528 12.7403 9.64657 12.6465C9.74034 12.5527 9.86752 12.5001 10.0001 12.5001C10.1327 12.5001 10.2599 12.5527 10.3537 12.6465C10.4474 12.7403 10.5001 12.8674 10.5001 13.0001V17.0001C10.5001 17.1327 10.4474 17.2598 10.3537 17.3536Z" fill="#111111" stroke="#111111"/>
</svg>
