<svg width="24" height="24" viewBox="0 0 24 24" fill="none" xmlns="http://www.w3.org/2000/svg">
<path d="M20.681 11.094L20.6903 11.099L20.6999 11.1037C20.8601 11.1816 20.9963 11.3013 21.0942 11.4501C21.1891 11.5944 21.2446 11.761 21.2553 11.9332C21.2489 12.1143 21.1945 12.2906 21.0977 12.444C20.998 12.602 20.857 12.7298 20.6899 12.8135L20.6766 12.8201L20.6638 12.8275L16.6433 15.1488L16.8654 15.5336C16.6433 15.1488 16.6432 15.1489 16.6432 15.1489L16.6427 15.1492L16.6411 15.1501L16.6346 15.1539L16.6087 15.1688L16.5079 15.227L16.1248 15.4482L14.7544 16.2394L10.5698 18.6556C7.50934 20.4227 4.39882 22.2189 4.20383 22.332L4.20101 22.3337C4.02638 22.4366 3.8281 22.4924 3.62553 22.4958C3.53077 22.4935 3.43701 22.4758 3.34788 22.4434L3.34363 22.4419C3.33244 22.438 3.31978 22.4329 3.30068 22.4241L3.27658 22.4129L3.25143 22.4044C3.2257 22.3957 3.20043 22.3857 3.1757 22.3744C3.04258 22.2895 2.933 22.1722 2.85733 22.0334C2.77805 21.8879 2.73883 21.724 2.74368 21.5584L2.74389 21.5511V21.5438V2.55841V2.54841L2.74349 2.53842C2.73617 2.35546 2.7783 2.17391 2.86544 2.01288C2.94889 1.85868 3.07066 1.72875 3.21884 1.63551C3.24858 1.62217 3.27902 1.61043 3.31003 1.60032L3.3372 1.59146L3.36319 1.57957C3.36997 1.57646 3.37882 1.57281 3.39504 1.5669C3.55642 1.51379 3.72738 1.49618 3.89624 1.5153C4.06691 1.53462 4.2313 1.591 4.3779 1.68049L4.37783 1.68062L4.38843 1.68674L16.627 8.75245L16.6292 8.75396L16.6447 8.763C17.6501 9.34818 20.3574 10.9191 20.681 11.094ZM3.74389 19.8401V21.0405L4.59605 20.195L12.5362 12.317L12.8943 11.9616L12.5357 11.6067L4.59563 3.7476L3.74389 2.90456V4.10296V19.8401ZM8.90973 17.3235L8.76189 17.4702V17.6784V17.6785V18.5445L9.5119 18.1115L15.005 14.9397L15.5722 14.6121L15.1067 14.1513L13.9571 13.0135L13.605 12.6649L13.2532 13.0139L8.90973 17.3235ZM13.252 10.9088L13.6041 11.2573L13.9558 10.9084L15.1116 9.76168L15.5761 9.30086L15.0095 8.97372L9.45582 5.76742L8.85409 6.5558L13.252 10.9088ZM16.1987 13.8255L16.4699 14.0939L16.8004 13.9031L19.4187 12.3918L20.17 11.9582L19.4181 11.5255C18.646 11.081 17.5242 10.4304 16.8039 10.0121L16.4726 9.81974L16.2007 10.0896L14.6729 11.6054L14.3147 11.9608L14.6734 12.3157L16.1987 13.8255ZM9.26189 17.6784V17.6785V17.6784Z" fill="#111111" stroke="#111111"/>
</svg>
