<svg width="24" height="24" viewBox="0 0 24 24" fill="none" xmlns="http://www.w3.org/2000/svg">
<path d="M5 21.5H5.5V21V15V14.5H5H3H2.5V15V21V21.5H3H5ZM21 21.5H21.5V21V11V10.5H21H19H18.5V11V21V21.5H19H21ZM13 21.5H13.5V21V3V2.5H13H11H10.5V3V21V21.5H11H13ZM2 13.5H6C6.13261 13.5 6.25978 13.5527 6.35355 13.6464C6.44732 13.7402 6.5 13.8674 6.5 14V22C6.5 22.1326 6.44732 22.2598 6.35355 22.3536C6.25979 22.4473 6.13261 22.5 6 22.5H2C1.86739 22.5 1.74021 22.4473 1.64645 22.3536C1.55268 22.2598 1.5 22.1326 1.5 22V14C1.5 13.8674 1.55268 13.7402 1.64645 13.6464C1.74021 13.5527 1.86739 13.5 2 13.5ZM18 9.5H22C22.1326 9.5 22.2598 9.55268 22.3536 9.64645C22.4473 9.74021 22.5 9.86739 22.5 10V22C22.5 22.1326 22.4473 22.2598 22.3536 22.3536C22.2598 22.4473 22.1326 22.5 22 22.5H18C17.8674 22.5 17.7402 22.4473 17.6464 22.3536C17.5527 22.2598 17.5 22.1326 17.5 22V10C17.5 9.86739 17.5527 9.74021 17.6464 9.64645C17.7402 9.55268 17.8674 9.5 18 9.5ZM10 1.5H14C14.1326 1.5 14.2598 1.55268 14.3536 1.64645C14.4473 1.74021 14.5 1.86739 14.5 2V22C14.5 22.1326 14.4473 22.2598 14.3536 22.3536C14.2598 22.4473 14.1326 22.5 14 22.5H10C9.86739 22.5 9.74021 22.4473 9.64645 22.3536C9.55268 22.2598 9.5 22.1326 9.5 22V2C9.5 1.86739 9.55268 1.74021 9.64645 1.64645C9.74022 1.55268 9.86739 1.5 10 1.5Z" fill="#111111" stroke="#111111"/>
</svg>
