<svg width="24" height="24" viewBox="0 0 24 24" fill="none" xmlns="http://www.w3.org/2000/svg">
<path d="M6.71491 9.50148L6.70523 9.50977C6.65289 9.5546 6.61038 9.60976 6.58037 9.67179C6.55036 9.73382 6.53349 9.80139 6.53083 9.87025C6.52817 9.9391 6.53978 10.0078 6.56491 10.0719C6.59005 10.1361 6.62818 10.1944 6.67691 10.2431C6.72563 10.2918 6.78391 10.33 6.84807 10.3551C6.91223 10.3802 6.9809 10.3918 7.04976 10.3892C7.11862 10.3865 7.18618 10.3696 7.24822 10.3396C7.31025 10.3096 7.36541 10.2671 7.41023 10.2148L7.42213 10.2009L7.43501 10.1879C7.57445 10.0473 7.74035 9.93572 7.92314 9.85956C8.10593 9.78341 8.30199 9.7442 8.5 9.7442C8.69802 9.7442 8.89408 9.78341 9.07687 9.85956C9.25899 9.93544 9.42435 10.0465 9.56348 10.1864M6.71491 9.50148L9.21 10.54M6.71491 9.50148L6.72416 9.49271C7.20354 9.03785 7.83917 8.78428 8.5 8.78428C9.15809 8.78428 9.79119 9.03575 10.2699 9.48704M6.71491 9.50148L10.2699 9.48704M9.56348 10.1864C9.56399 10.1869 9.5645 10.1874 9.565 10.1879L9.21 10.54M9.56348 10.1864C9.56315 10.186 9.56283 10.1857 9.5625 10.1854L9.21 10.54M9.56348 10.1864C9.65706 10.2789 9.78337 10.3308 9.915 10.3308C10.0466 10.3308 10.1729 10.2789 10.2664 10.1864M9.21 10.54C9.39737 10.7263 9.65082 10.8308 9.915 10.8308C10.1792 10.8308 10.4326 10.7263 10.62 10.54M10.2664 10.1864C10.2661 10.1868 10.2658 10.1871 10.2654 10.1875L10.62 10.54M10.2664 10.1864C10.3589 10.0929 10.4108 9.9666 10.4108 9.835C10.4108 9.70503 10.3602 9.58026 10.2699 9.48704M10.2664 10.1864C10.2668 10.1861 10.2672 10.1857 10.2675 10.1854L10.62 10.54M10.62 10.54L10.2699 9.48704M9.5 15V14.5H9C8.8674 14.5 8.74022 14.4473 8.64645 14.3536C8.55268 14.2598 8.5 14.1326 8.5 14C8.5 13.8674 8.55268 13.7402 8.64645 13.6464C8.74022 13.5527 8.8674 13.5 9 13.5H15C15.1326 13.5 15.2598 13.5527 15.3536 13.6464C15.4473 13.7402 15.5 13.8674 15.5 14C15.5 14.1326 15.4473 14.2598 15.3536 14.3536C15.2598 14.4473 15.1326 14.5 15 14.5H14.5V15C14.5 15.663 14.2366 16.2989 13.7678 16.7678C13.2989 17.2366 12.663 17.5 12 17.5C11.337 17.5 10.7011 17.2366 10.2322 16.7678C9.7634 16.2989 9.5 15.663 9.5 15ZM11 14.5H10.5V15C10.5 15.3978 10.658 15.7794 10.9393 16.0607C11.2206 16.342 11.6022 16.5 12 16.5C12.3978 16.5 12.7794 16.342 13.0607 16.0607C13.342 15.7794 13.5 15.3978 13.5 15V14.5H13H11ZM6.72209 4.10104C8.28435 3.05717 10.1211 2.5 12 2.5C13.2476 2.5 14.4829 2.74572 15.6355 3.22314C16.7881 3.70056 17.8354 4.40033 18.7175 5.28249C19.5997 6.16464 20.2994 7.21191 20.7769 8.36451C21.2543 9.5171 21.5 10.7524 21.5 12C21.5 13.8789 20.9428 15.7157 19.899 17.2779C18.8551 18.8402 17.3714 20.0578 15.6355 20.7769C13.8996 21.4959 11.9895 21.684 10.1466 21.3175C8.30383 20.9509 6.61109 20.0461 5.28249 18.7175C3.95389 17.3889 3.0491 15.6962 2.68254 13.8534C2.31598 12.0105 2.50412 10.1004 3.22315 8.36451C3.94218 6.62861 5.15982 5.14491 6.72209 4.10104ZM7.27766 19.0675C8.67548 20.0015 10.3189 20.5 12 20.5C14.2543 20.5 16.4164 19.6045 18.0104 18.0104C19.6045 16.4163 20.5 14.2543 20.5 12C20.5 10.3189 20.0015 8.67547 19.0675 7.27765C18.1335 5.87984 16.806 4.79037 15.2528 4.14702C13.6996 3.50368 11.9906 3.33535 10.3417 3.66333C8.6929 3.9913 7.17834 4.80085 5.9896 5.98959C4.80085 7.17834 3.9913 8.69289 3.66333 10.3417C3.33536 11.9906 3.50368 13.6996 4.14703 15.2528C4.79037 16.806 5.87984 18.1335 7.27766 19.0675ZM14.7222 9.58426C14.8044 9.52932 14.9011 9.5 15 9.5C15.1326 9.5 15.2598 9.55268 15.3536 9.64645C15.4473 9.74022 15.5 9.86739 15.5 10C15.5 10.0989 15.4707 10.1956 15.4157 10.2778C15.3608 10.36 15.2827 10.4241 15.1913 10.4619C15.1 10.4998 14.9994 10.5097 14.9025 10.4904C14.8055 10.4711 14.7164 10.4235 14.6465 10.3536C14.5765 10.2836 14.5289 10.1945 14.5096 10.0975C14.4903 10.0006 14.5002 9.90002 14.5381 9.80866C14.5759 9.7173 14.64 9.63921 14.7222 9.58426Z" fill="#111111" stroke="#111111"/>
</svg>
