<svg width="24" height="24" viewBox="0 0 24 24" fill="none" xmlns="http://www.w3.org/2000/svg">
<path d="M9.5 15V14.5H9C8.8674 14.5 8.74022 14.4473 8.64645 14.3536C8.55268 14.2598 8.5 14.1326 8.5 14C8.5 13.8674 8.55268 13.7402 8.64645 13.6464C8.74022 13.5527 8.8674 13.5 9 13.5H15C15.1326 13.5 15.2598 13.5527 15.3536 13.6464C15.4473 13.7402 15.5 13.8674 15.5 14C15.5 14.1326 15.4473 14.2598 15.3536 14.3536C15.2598 14.4473 15.1326 14.5 15 14.5H14.5V15C14.5 15.663 14.2366 16.2989 13.7678 16.7678C13.2989 17.2366 12.663 17.5 12 17.5C11.337 17.5 10.7011 17.2366 10.2322 16.7678C9.7634 16.2989 9.5 15.663 9.5 15ZM11 14.5H10.5V15C10.5 15.3978 10.658 15.7794 10.9393 16.0607C11.2206 16.342 11.6022 16.5 12 16.5C12.3978 16.5 12.7794 16.342 13.0607 16.0607C13.342 15.7794 13.5 15.3978 13.5 15V14.5H13H11ZM6.72209 4.10104C8.28435 3.05717 10.1211 2.5 12 2.5C13.2476 2.5 14.4829 2.74572 15.6355 3.22314C16.7881 3.70056 17.8354 4.40033 18.7175 5.28249C19.5997 6.16464 20.2994 7.21191 20.7769 8.36451C21.2543 9.5171 21.5 10.7524 21.5 12C21.5 13.8789 20.9428 15.7157 19.899 17.2779C18.8551 18.8402 17.3714 20.0578 15.6355 20.7769C13.8996 21.4959 11.9895 21.684 10.1466 21.3175C8.30383 20.9509 6.61109 20.0461 5.28249 18.7175C3.95389 17.3889 3.0491 15.6962 2.68254 13.8534C2.31598 12.0105 2.50412 10.1004 3.22315 8.36451C3.94218 6.62861 5.15982 5.14491 6.72209 4.10104ZM7.27766 19.0675C8.67548 20.0015 10.3189 20.5 12 20.5C14.2543 20.5 16.4164 19.6045 18.0104 18.0104C19.6045 16.4163 20.5 14.2543 20.5 12C20.5 10.3189 20.0015 8.67547 19.0675 7.27765C18.1335 5.87984 16.806 4.79037 15.2528 4.14702C13.6996 3.50368 11.9906 3.33535 10.3417 3.66333C8.6929 3.9913 7.17834 4.80085 5.9896 5.98959C4.80085 7.17834 3.9913 8.69289 3.66333 10.3417C3.33536 11.9906 3.50368 13.6996 4.14703 15.2528C4.79037 16.806 5.87984 18.1335 7.27766 19.0675ZM15.5 8.78428C16.1581 8.78428 16.7912 9.03575 17.2699 9.48704C17.3602 9.58026 17.4108 9.70503 17.4108 9.835C17.4108 9.9666 17.3589 10.0929 17.2664 10.1864C17.1729 10.2789 17.0466 10.3308 16.915 10.3308C16.7833 10.3308 16.657 10.2789 16.5634 10.1863C16.4243 10.0465 16.259 9.93543 16.0769 9.85956C15.8941 9.78341 15.698 9.7442 15.5 9.7442C15.302 9.7442 15.1059 9.78341 14.9231 9.85956C14.7483 9.93241 14.5889 10.0377 14.4533 10.1697C14.3594 10.2454 14.2411 10.2848 14.1202 10.2801C13.9944 10.2752 13.875 10.2231 13.786 10.134C13.6969 10.045 13.6448 9.92559 13.6399 9.79976C13.6354 9.68146 13.6729 9.56563 13.7455 9.47271C14.2223 9.03042 14.8489 8.78428 15.5 8.78428ZM9.27779 10.4157C9.19557 10.4707 9.09889 10.5 9 10.5C8.8674 10.5 8.74022 10.4473 8.64645 10.3536C8.55268 10.2598 8.5 10.1326 8.5 10C8.5 9.90111 8.52933 9.80444 8.58427 9.72221C8.63921 9.63999 8.7173 9.5759 8.80866 9.53806C8.90003 9.50022 9.00056 9.49031 9.09755 9.50961C9.19454 9.5289 9.28363 9.57652 9.35356 9.64645C9.42348 9.71637 9.4711 9.80546 9.4904 9.90245C9.50969 9.99945 9.49979 10.1 9.46194 10.1913C9.4241 10.2827 9.36001 10.3608 9.27779 10.4157Z" fill="#111111" stroke="#111111"/>
</svg>
