<svg width="24" height="24" viewBox="0 0 24 24" fill="none" xmlns="http://www.w3.org/2000/svg">
<path d="M21 10.5H3C2.86739 10.5 2.74021 10.4473 2.64645 10.3536C2.55268 10.2598 2.5 10.1326 2.5 10C2.5 9.86739 2.55268 9.74022 2.64645 9.64645C2.74021 9.55268 2.86739 9.5 3 9.5H21C21.1326 9.5 21.2598 9.55268 21.3536 9.64645C21.4473 9.74021 21.5 9.86739 21.5 10C21.5 10.1326 21.4473 10.2598 21.3536 10.3536C21.2598 10.4473 21.1326 10.5 21 10.5ZM3 13.5H21C21.1326 13.5 21.2598 13.5527 21.3536 13.6464C21.4473 13.7402 21.5 13.8674 21.5 14C21.5 14.1326 21.4473 14.2598 21.3536 14.3536C21.2598 14.4473 21.1326 14.5 21 14.5H3C2.86739 14.5 2.74021 14.4473 2.64645 14.3536C2.55268 14.2598 2.5 14.1326 2.5 14C2.5 13.8674 2.55268 13.7402 2.64645 13.6464C2.74021 13.5527 2.86739 13.5 3 13.5Z" fill="#111111" stroke="#111111"/>
</svg>
