<svg width="24" height="24" viewBox="0 0 24 24" fill="none" xmlns="http://www.w3.org/2000/svg">
<path d="M19.5 13.18V13.5336L19.8333 13.6514C20.3196 13.8233 20.7408 14.1415 21.0392 14.5622C21.3375 14.9827 21.4984 15.4852 21.5 16.0008C21.5 16.001 21.5 16.0012 21.5 16.0014L21.5 18C21.5 18.663 21.2366 19.2989 20.7678 19.7678C20.2989 20.2366 19.663 20.5 19 20.5H16C15.8674 20.5 15.7402 20.4473 15.6464 20.3536C15.5527 20.2598 15.5 20.1326 15.5 20V14C15.5 13.8674 15.5527 13.7402 15.6464 13.6464C15.7402 13.5527 15.8674 13.5 16 13.5H18H18.5V13V11C18.5 9.27609 17.8152 7.62279 16.5962 6.40381C15.3772 5.18482 13.7239 4.5 12 4.5C10.2761 4.5 8.62279 5.18482 7.40381 6.40381C6.18482 7.62279 5.5 9.27609 5.5 11V13V13.5H6H8C8.13261 13.5 8.25978 13.5527 8.35355 13.6464C8.44732 13.7402 8.5 13.8674 8.5 14V20C8.5 20.1326 8.44732 20.2598 8.35355 20.3536C8.25979 20.4473 8.13261 20.5 8 20.5H5C4.33696 20.5 3.70107 20.2366 3.23223 19.7678C2.76339 19.2989 2.5 18.663 2.5 18V16.0007C2.50159 15.4852 2.66253 14.9827 2.96078 14.5622C3.25916 14.1415 3.68037 13.8233 4.16666 13.6514L4.5 13.5336V13.18V11C4.5 9.01088 5.29018 7.10322 6.6967 5.6967C8.10322 4.29018 10.0109 3.5 12 3.5C13.9891 3.5 15.8968 4.29018 17.3033 5.6967C18.7098 7.10322 19.5 9.01088 19.5 11V13.18ZM7.5 15V14.5H7H5C4.60217 14.5 4.22064 14.658 3.93934 14.9393C3.65804 15.2206 3.5 15.6022 3.5 16V18C3.5 18.3978 3.65804 18.7794 3.93934 19.0607C4.22065 19.342 4.60218 19.5 5 19.5H7H7.5V19V15ZM16.5 19V19.5H17H19C19.3978 19.5 19.7794 19.342 20.0607 19.0607C20.342 18.7794 20.5 18.3978 20.5 18V16C20.5 15.6022 20.342 15.2206 20.0607 14.9393C19.7794 14.658 19.3978 14.5 19 14.5H17H16.5V15V19Z" fill="#111111" stroke="#111111"/>
</svg>
