<svg width="24" height="24" viewBox="0 0 24 24" fill="none" xmlns="http://www.w3.org/2000/svg">
<path d="M4.72656 6.82923L4.72703 6.82876C5.51241 6.04591 6.5761 5.60633 7.68501 5.60633C8.79392 5.60633 9.85761 6.04591 10.643 6.82876L10.645 6.83078L10.645 6.83078C10.6915 6.87765 10.7468 6.91485 10.8077 6.94023C10.8687 6.96561 10.934 6.97868 11 6.97868C11.066 6.97868 11.1314 6.96561 11.1923 6.94023C11.2532 6.91485 11.3085 6.87765 11.355 6.83078L11.3601 6.8256L11.3654 6.82058C12.161 6.0639 13.217 5.64193 14.315 5.64193C15.413 5.64193 16.469 6.0639 17.2646 6.82058L17.2703 6.82602L17.2759 6.83164C17.5205 7.07954 17.7352 7.35534 17.9154 7.65335C17.9878 7.74564 18.0905 7.80971 18.2057 7.83398C18.3268 7.8595 18.4531 7.83919 18.5601 7.77698C18.6671 7.71476 18.7472 7.61507 18.7849 7.49718C18.8201 7.38726 18.8161 7.26881 18.7741 7.16186C18.5512 6.79672 18.2863 6.4588 17.985 6.15498L17.9844 6.15437C17.1189 5.27874 15.9699 4.73999 14.7432 4.63471C13.5166 4.52943 12.2925 4.86448 11.2905 5.57983L10.9987 5.78817L10.7078 5.57858C9.93336 5.02072 9.0199 4.68765 8.06818 4.61613C7.11646 4.54461 6.16348 4.73741 5.31441 5.17327C4.46534 5.60913 3.75319 6.27109 3.25656 7.0861C2.75992 7.90111 2.49811 8.83749 2.50001 9.79189L2.50001 9.79309C2.49974 10.471 2.63408 11.1422 2.89526 11.7677C3.15643 12.3933 3.53922 12.9608 4.02143 13.4372L4.02357 13.4393L4.02356 13.4393L9.23335 18.6491L4.72656 6.82923ZM4.72656 6.82923C4.33722 7.21834 4.02837 7.68035 3.81764 8.18887C3.60692 8.69738 3.49846 9.24244 3.49846 9.79289C3.49846 10.3433 3.60692 10.8884 3.81764 11.3969C4.02835 11.9054 4.33717 12.3674 4.72646 12.7564C4.72649 12.7565 4.72653 12.7565 4.72656 12.7565L9.93501 17.965C9.93527 17.9652 9.93552 17.9655 9.93578 17.9658C10.0751 18.106 10.2407 18.2173 10.4231 18.2933C10.6059 18.3695 10.802 18.4087 11 18.4087C11.198 18.4087 11.3941 18.3695 11.5769 18.2933C11.7593 18.2173 11.9248 18.1061 12.0641 17.9659M4.72656 6.82923L12.0641 17.9659M12.065 17.965L13.9601 16.0699C14.053 15.9814 14.1765 15.9319 14.305 15.9319C14.433 15.9319 14.5561 15.981 14.6489 16.0689C14.7398 16.1623 14.7908 16.2875 14.7908 16.4179C14.7908 16.5497 14.7387 16.6762 14.6459 16.7699C14.6458 16.77 14.6456 16.7702 14.6454 16.7704L12.7667 18.6491L12.065 17.965ZM12.065 17.965C12.0647 17.9653 12.0644 17.9656 12.0641 17.9659M12.065 17.965L12.0641 17.9659M16.1742 12.3327L16.5333 12.7418L16.9105 12.3494L18.1471 11.0629C18.1476 11.0624 18.148 11.0619 18.1485 11.0614C18.1945 11.0149 18.2492 10.9778 18.3096 10.9523C18.3702 10.9267 18.4354 10.9133 18.5012 10.9129H21C21.1326 10.9129 21.2598 10.9656 21.3536 11.0593C21.4473 11.1531 21.5 11.2803 21.5 11.4129C21.5 11.5455 21.4473 11.6727 21.3536 11.7664C21.2598 11.8602 21.1326 11.9129 21 11.9129H18.93H18.722L18.5754 12.0604L16.8779 13.7679C16.8776 13.7682 16.8772 13.7686 16.8769 13.7689C16.8304 13.8148 16.7753 13.8511 16.7149 13.8758C16.6559 13.8998 16.593 13.9124 16.5294 13.9129C16.4632 13.9099 16.3982 13.8938 16.3382 13.8655C16.2763 13.8363 16.221 13.7946 16.1759 13.7431L16.1758 13.743L13.3758 10.553L13.017 10.1443L12.6398 10.5361L11.3545 11.8712C11.3085 11.916 11.2543 11.9515 11.1949 11.9758C11.1339 12.0007 11.0687 12.0133 11.0029 12.0129V12.0129H11H9.00001C8.8674 12.0129 8.74023 11.9602 8.64646 11.8664C8.55269 11.7727 8.50001 11.6455 8.50001 11.5129C8.50001 11.3803 8.55269 11.2531 8.64646 11.1593C8.74023 11.0656 8.8674 11.0129 9.00001 11.0129H10.59H10.7971L10.9436 10.8664L12.6436 9.16644L12.6494 9.16062L12.655 9.15461C12.7018 9.10465 12.7583 9.06483 12.8211 9.03761C12.8839 9.01038 12.9516 8.99633 13.02 8.99633C13.0884 8.99633 13.1561 9.01038 13.2189 9.03761C13.2797 9.06395 13.3346 9.10208 13.3804 9.14978L16.1742 12.3327ZM11 19.3802C10.3376 19.3802 9.70229 19.1174 9.23356 18.6493H12.7665C12.2977 19.1174 11.6624 19.3802 11 19.3802Z" fill="#111111" stroke="#111111"/>
</svg>
