<svg width="24" height="24" viewBox="0 0 24 24" fill="none" xmlns="http://www.w3.org/2000/svg">
<path d="M14.55 19.9988L14.5502 19.4988C14.4475 19.4988 14.3472 19.4671 14.2631 19.408C14.179 19.349 14.1151 19.2655 14.0802 19.1688L14.0798 19.1677L9.9198 7.74769L9.44566 6.44609L8.9792 7.75046L7.36711 12.2584C7.35236 12.2884 7.33463 12.3168 7.31418 12.3433L7.30627 12.3536L7.2989 12.3642L7.24977 12.4352C7.22855 12.4514 7.20678 12.4669 7.18449 12.4816L7.16676 12.4933L7.15975 12.4988H7.15H6.92H3C2.86739 12.4988 2.74021 12.4461 2.64645 12.3524C2.55268 12.2586 2.5 12.1314 2.5 11.9988C2.5 11.8662 2.55268 11.739 2.64645 11.6453C2.74021 11.5515 2.86739 11.4988 3 11.4988H6.2H6.54998L6.66979 11.17L8.97979 4.82999L8.98 4.82941C9.01503 4.73289 9.07894 4.64949 9.16303 4.59055C9.24712 4.53162 9.34731 4.5 9.45 4.5C9.55269 4.5 9.65288 4.53162 9.73697 4.59055C9.82106 4.64949 9.88497 4.73289 9.92 4.82941L9.91999 4.82942L9.92092 4.83193L14.0909 16.1319L14.564 17.4139L15.03 16.1294L16.6201 11.7467C16.6389 11.7106 16.6604 11.6759 16.6843 11.6429L16.6994 11.6222L16.7123 11.6C16.7185 11.5894 16.7251 11.5789 16.7321 11.5687C16.7559 11.5502 16.7804 11.5327 16.8055 11.5161L16.8209 11.5059L16.8301 11.4988H16.85H16.8838L16.9173 11.4943C16.9423 11.4909 16.9677 11.4909 16.9927 11.4943L17.0262 11.4988H17.06H21C21.1326 11.4988 21.2598 11.5515 21.3536 11.6453C21.4473 11.739 21.5 11.8662 21.5 11.9988C21.5 12.1314 21.4473 12.2586 21.3536 12.3524C21.2598 12.4461 21.1326 12.4988 21 12.4988H17.79H17.4395L17.32 12.8283L15.02 19.1683L15.0198 19.1688C14.9848 19.2655 14.921 19.349 14.8369 19.408C14.7528 19.4671 14.6525 19.4988 14.5498 19.4988L14.55 19.9988ZM14.55 19.9988C14.7555 19.9987 14.956 19.9353 15.1242 19.8172C15.2924 19.6991 15.4201 19.5321 15.49 19.3388M14.55 19.9988C14.3445 19.9987 14.144 19.9353 13.9758 19.8172C13.8076 19.6991 13.6799 19.5321 13.61 19.3388L9.71795 8.65441L9.9208 8.08719L9.45 7.91883L8.9802 8.08996L9.18638 8.65598L7.83 12.4488C7.79794 12.5199 7.75766 12.5871 7.71 12.6488L15.49 19.3388M15.49 19.3388L17.79 12.9988H21C21.2652 12.9988 21.5196 12.8935 21.7071 12.7059C21.8946 12.5184 22 12.264 22 11.9988C22 11.7336 21.8946 11.4793 21.7071 11.2917C21.5196 11.1042 21.2652 10.9988 21 10.9988L15.49 19.3388Z" fill="#111111" stroke="#111111"/>
</svg>
