<svg width="24" height="24" viewBox="0 0 24 24" fill="none" xmlns="http://www.w3.org/2000/svg">
<path d="M21.3277 10.6224L21.3286 10.6232C21.4051 10.6909 21.459 10.7803 21.4831 10.8796C21.5073 10.9788 21.5005 11.083 21.4636 11.1782L21.4634 11.1787C21.4271 11.2727 21.3633 11.3535 21.2804 11.4106C21.1975 11.4676 21.0995 11.4983 20.9989 11.4987H19.9999H19.4999V11.9987V20.9987C19.4999 21.1313 19.4472 21.2585 19.3534 21.3523C19.2597 21.4461 19.1325 21.4987 18.9999 21.4987H4.99987C4.86727 21.4987 4.74009 21.4461 4.64632 21.3523C4.55255 21.2585 4.49987 21.1313 4.49987 20.9987V11.9987V11.4987H3.99987H3.00081C2.90028 11.4983 2.8022 11.4676 2.71938 11.4106C2.6364 11.3535 2.57261 11.2727 2.53635 11.1787L2.53616 11.1782C2.4993 11.083 2.49247 10.9788 2.51661 10.8796C2.54074 10.7803 2.59468 10.6909 2.67116 10.6232L2.67206 10.6224L11.6699 2.62437C11.6702 2.6241 11.6705 2.62383 11.6708 2.62357C11.7619 2.54391 11.8788 2.5 11.9999 2.5C12.1209 2.5 12.2379 2.54392 12.329 2.62357C12.3293 2.62384 12.3296 2.6241 12.3299 2.62437L21.3277 10.6224ZM12.9999 20.4987H13.4999V19.9987V16.9987C13.4999 16.6009 13.3418 16.2194 13.0605 15.9381C12.7792 15.6568 12.3977 15.4987 11.9999 15.4987C11.6021 15.4987 11.2205 15.6568 10.9392 15.9381C10.6579 16.2194 10.4999 16.6009 10.4999 16.9987V19.9987V20.4987H10.9999H12.9999ZM17.9999 20.4987H18.4999V19.9987V11.9987V11.4987H17.9999H5.99987H5.49987V11.9987V19.9987V20.4987H5.99987H8.99987H9.49987V19.9987V16.9987C9.49987 16.3357 9.76327 15.6998 10.2321 15.231C10.7009 14.7621 11.3368 14.4987 11.9999 14.4987C12.6629 14.4987 13.2988 14.7621 13.7676 15.231C14.2365 15.6998 14.4999 16.3357 14.4999 16.9987V19.9987V20.4987H14.9999H17.9999ZM5.29777 9.62497L4.31439 10.4987H5.62987H18.3699H19.6854L18.702 9.62497L12.332 3.96497L11.9999 3.66987L11.6678 3.96497L5.29777 9.62497Z" fill="#111111" stroke="#111111"/>
</svg>
