<svg width="24" height="24" viewBox="0 0 24 24" fill="none" xmlns="http://www.w3.org/2000/svg">
<path d="M18 4.5H18.5V4V3C18.5 2.86739 18.5527 2.74021 18.6464 2.64645C18.7402 2.55268 18.8674 2.5 19 2.5C19.1326 2.5 19.2598 2.55268 19.3536 2.64645C19.4473 2.74021 19.5 2.86739 19.5 3V21C19.5 21.1326 19.4473 21.2598 19.3536 21.3536C19.2598 21.4473 19.1326 21.5 19 21.5C18.8674 21.5 18.7402 21.4473 18.6464 21.3536C18.5527 21.2598 18.5 21.1326 18.5 21V20V19.5H18H13C12.8674 19.5 12.7402 19.4473 12.6464 19.3536C12.5527 19.2598 12.5 19.1326 12.5 19V5C12.5 4.86739 12.5527 4.74022 12.6464 4.64645C12.7402 4.55268 12.8674 4.5 13 4.5H18ZM18 18.5H18.5V18V6V5.5H18H14H13.5V6V18V18.5H14H18ZM8 5.5H8.5V5V3C8.5 2.86739 8.55268 2.74021 8.64645 2.64645C8.74021 2.55268 8.86739 2.5 9 2.5C9.13261 2.5 9.25979 2.55268 9.35355 2.64645C9.44732 2.74021 9.5 2.86739 9.5 3V21C9.5 21.1326 9.44732 21.2598 9.35355 21.3536C9.25979 21.4473 9.13261 21.5 9 21.5C8.86739 21.5 8.74021 21.4473 8.64645 21.3536C8.55268 21.2598 8.5 21.1326 8.5 21V19V18.5H8H5C4.86739 18.5 4.74021 18.4473 4.64645 18.3536C4.55268 18.2598 4.5 18.1326 4.5 18V6C4.5 5.86739 4.55268 5.74022 4.64645 5.64645C4.74022 5.55268 4.86739 5.5 5 5.5H8ZM8 17.5H8.5V17V7V6.5H8H6H5.5V7V17V17.5H6H8Z" fill="#111111" stroke="#111111"/>
</svg>
