<svg width="24" height="24" viewBox="0 0 24 24" fill="none" xmlns="http://www.w3.org/2000/svg">
<path d="M18.5 10V10.5H19H21C21.1326 10.5 21.2598 10.5527 21.3536 10.6464C21.4473 10.7402 21.5 10.8674 21.5 11V17C21.5 17.1326 21.4473 17.2598 21.3536 17.3536C21.2598 17.4473 21.1326 17.5 21 17.5H13H12.5V18V21C12.5 21.1326 12.4473 21.2598 12.3536 21.3536C12.2598 21.4473 12.1326 21.5 12 21.5C11.8674 21.5 11.7402 21.4473 11.6464 21.3536C11.5527 21.2598 11.5 21.1326 11.5 21V18V17.5H11H3C2.86739 17.5 2.74021 17.4473 2.64645 17.3536C2.55268 17.2598 2.5 17.1326 2.5 17V11C2.5 10.8674 2.55268 10.7402 2.64645 10.6464C2.74021 10.5527 2.86739 10.5 3 10.5H5H5.5V10V7C5.5 6.86739 5.55268 6.74021 5.64645 6.64645C5.74022 6.55268 5.86739 6.5 6 6.5H11H11.5V6V3C11.5 2.86739 11.5527 2.74021 11.6464 2.64645C11.7402 2.55268 11.8674 2.5 12 2.5C12.1326 2.5 12.2598 2.55268 12.3536 2.64645C12.4473 2.74021 12.5 2.86739 12.5 3V6V6.5H13H18C18.1326 6.5 18.2598 6.55268 18.3536 6.64645C18.4473 6.74021 18.5 6.86739 18.5 7V10ZM7 7.5H6.5V8V10V10.5H7H17H17.5V10V8V7.5H17H7ZM20 16.5H20.5V16V12V11.5H20H4H3.5V12V16V16.5H4H20Z" fill="#111111" stroke="#111111"/>
</svg>
