<svg width="24" height="24" viewBox="0 0 24 24" fill="none" xmlns="http://www.w3.org/2000/svg">
<path d="M19.434 11.0629L19.4894 11.5H19.93H21C21.1326 11.5 21.2598 11.5527 21.3536 11.6464C21.4473 11.7402 21.5 11.8674 21.5 12C21.5 12.1326 21.4473 12.2598 21.3536 12.3536C21.2598 12.4473 21.1326 12.5 21 12.5H19.93H19.4894L19.434 12.9371C19.2247 14.5871 18.4729 16.1208 17.2969 17.2969C16.1208 18.4729 14.5871 19.2247 12.9371 19.434L12.5 19.4894V19.93V21C12.5 21.1326 12.4473 21.2598 12.3536 21.3536C12.2598 21.4473 12.1326 21.5 12 21.5C11.8674 21.5 11.7402 21.4473 11.6464 21.3536C11.5527 21.2598 11.5 21.1326 11.5 21V19.93V19.4894L11.0629 19.434C9.41288 19.2247 7.87922 18.4729 6.70314 17.2969C5.52705 16.1208 4.77527 14.5871 4.56603 12.9371L4.5106 12.5H4.07H3C2.86739 12.5 2.74021 12.4473 2.64645 12.3536C2.55268 12.2598 2.5 12.1326 2.5 12C2.5 11.8674 2.55268 11.7402 2.64645 11.6464C2.74021 11.5527 2.86739 11.5 3 11.5H4.07H4.5106L4.56603 11.0629C4.77527 9.41288 5.52705 7.87922 6.70314 6.70314C7.87922 5.52705 9.41288 4.77527 11.0629 4.56603L11.5 4.5106V4.07V3C11.5 2.86739 11.5527 2.74021 11.6464 2.64645C11.7402 2.55268 11.8674 2.5 12 2.5C12.1326 2.5 12.2598 2.55268 12.3536 2.64645C12.4473 2.74021 12.5 2.86739 12.5 3V4.07V4.5106L12.9371 4.56603C14.5871 4.77527 16.1208 5.52705 17.2969 6.70314C18.4729 7.87922 19.2247 9.41288 19.434 11.0629ZM10.6111 9.92133C11.0222 9.64662 11.5055 9.5 12 9.5C12.663 9.5 13.2989 9.76339 13.7678 10.2322C14.2366 10.7011 14.5 11.337 14.5 12C14.5 12.4945 14.3534 12.9778 14.0787 13.3889C13.804 13.8 13.4135 14.1205 12.9567 14.3097C12.4999 14.4989 11.9972 14.5484 11.5123 14.452C11.0273 14.3555 10.5819 14.1174 10.2322 13.7678C9.8826 13.4181 9.6445 12.9727 9.54804 12.4877C9.45157 12.0028 9.50108 11.5001 9.6903 11.0433C9.87952 10.5865 10.2 10.196 10.6111 9.92133ZM11.1666 13.2472C11.4133 13.412 11.7033 13.5 12 13.5C12.3978 13.5 12.7794 13.342 13.0607 13.0607C13.342 12.7794 13.5 12.3978 13.5 12C13.5 11.7033 13.412 11.4133 13.2472 11.1666C13.0824 10.92 12.8481 10.7277 12.574 10.6142C12.2999 10.5006 11.9983 10.4709 11.7074 10.5288C11.4164 10.5867 11.1491 10.7296 10.9393 10.9393C10.7296 11.1491 10.5867 11.4164 10.5288 11.7074C10.4709 11.9983 10.5006 12.2999 10.6142 12.574C10.7277 12.8481 10.92 13.0824 11.1666 13.2472ZM8.38879 17.4046C9.45771 18.1188 10.7144 18.5 12 18.5C13.7239 18.5 15.3772 17.8152 16.5962 16.5962C17.8152 15.3772 18.5 13.7239 18.5 12C18.5 10.7144 18.1188 9.45771 17.4046 8.38879C16.6903 7.31987 15.6752 6.48675 14.4874 5.99478C13.2997 5.50281 11.9928 5.37409 10.7319 5.6249C9.47104 5.8757 8.31285 6.49476 7.40381 7.40381C6.49476 8.31285 5.8757 9.47104 5.6249 10.7319C5.37409 11.9928 5.50281 13.2997 5.99478 14.4874C6.48675 15.6752 7.31987 16.6903 8.38879 17.4046Z" fill="#111111" stroke="#111111"/>
</svg>
