<svg width="24" height="24" viewBox="0 0 24 24" fill="none" xmlns="http://www.w3.org/2000/svg">
<path d="M22.355 6.64211L22.3579 6.645C22.4048 6.69149 22.442 6.74679 22.4673 6.80771C22.4927 6.86864 22.5058 6.93399 22.5058 7C22.5058 7.06601 22.4927 7.13136 22.4673 7.19229C22.442 7.25321 22.4048 7.30851 22.3579 7.355L22.3564 7.35645L19.3609 10.3519C19.3141 10.396 19.2592 10.4306 19.1992 10.4538L19.1885 10.458L19.1779 10.4627C19.1218 10.4874 19.0613 10.5002 19 10.5002C18.9387 10.5002 18.8782 10.4874 18.8221 10.4627L18.8115 10.458L18.8008 10.4538C18.7408 10.4306 18.6859 10.396 18.6391 10.3519L15.6436 7.35645C15.549 7.26191 15.4959 7.13369 15.4959 7C15.4959 6.86631 15.549 6.73809 15.6436 6.64355C15.7381 6.54902 15.8663 6.49591 16 6.49591C16.1334 6.49591 16.2614 6.54882 16.3559 6.64303C16.3561 6.6432 16.3563 6.64338 16.3564 6.64355L17.6451 7.94219L18.5 8.80373V7.59V2C18.5 1.86739 18.5527 1.74021 18.6464 1.64645C18.7402 1.55268 18.8674 1.5 19 1.5C19.1326 1.5 19.2598 1.55268 19.3536 1.64645C19.4473 1.74021 19.5 1.86739 19.5 2V7.59V8.80373L20.3549 7.94219L21.6449 6.64219L21.645 6.6421C21.6915 6.59524 21.7468 6.55804 21.8077 6.53265C21.8686 6.50727 21.934 6.4942 22 6.4942C22.066 6.4942 22.1314 6.50727 22.1923 6.53265C22.2532 6.55804 22.3085 6.59524 22.355 6.6421L22.355 6.64211ZM17.6464 14.7336L18.5 15.5871V14.38V14C18.5 13.8674 18.5527 13.7402 18.6464 13.6464C18.7402 13.5527 18.8674 13.5 19 13.5C19.1326 13.5 19.2598 13.5527 19.3536 13.6464C19.4473 13.7402 19.5 13.8674 19.5 14V19C19.5 19.663 19.2366 20.2989 18.7678 20.7678C18.2989 21.2366 17.663 21.5 17 21.5H5C4.33696 21.5 3.70107 21.2366 3.23223 20.7678C2.76339 20.2989 2.5 19.663 2.5 19V7C2.5 6.33696 2.76339 5.70107 3.23223 5.23223C3.70107 4.76339 4.33696 4.5 5 4.5H13C13.1326 4.5 13.2598 4.55268 13.3536 4.64645C13.4473 4.74022 13.5 4.86739 13.5 5C13.5 5.13261 13.4473 5.25978 13.3536 5.35355C13.2598 5.44732 13.1326 5.5 13 5.5H5C4.60217 5.5 4.22064 5.65804 3.93934 5.93934C3.65804 6.22064 3.5 6.60218 3.5 7V12.6V13.8071L4.35355 12.9536L5.82899 11.4781C6.26542 11.0647 6.84373 10.8343 7.445 10.8343C8.04627 10.8343 8.62458 11.0647 9.06101 11.4781L11.5364 13.9536L11.89 14.3071L12.2436 13.9536L12.9422 13.255C12.9423 13.2548 12.9425 13.2546 12.9427 13.2544C13.3716 12.8292 13.9511 12.5906 14.555 12.5906C15.1589 12.5906 15.7384 12.8292 16.1673 13.2544C16.1675 13.2546 16.1677 13.2548 16.1678 13.255L17.6464 14.7336ZM3.64645 15.0764L3.5 15.2229V15.43V19C3.5 19.3978 3.65804 19.7794 3.93934 20.0607C4.22065 20.342 4.60218 20.5 5 20.5H15.46H16.6671L15.8136 19.6464L11.5136 15.3464L8.34355 12.1764L8.34366 12.1763L8.33494 12.168C8.09504 11.9394 7.77637 11.8119 7.445 11.8119C7.11363 11.8119 6.79496 11.9394 6.55506 12.168L6.55496 12.1679L6.54645 12.1764L3.64645 15.0764ZM18.5 19.0038V19V17.21V17.0039L18.3548 16.8577L15.4671 13.9501C15.4667 13.9496 15.4663 13.9492 15.4658 13.9487C15.3479 13.8287 15.2072 13.7333 15.052 13.6681C14.8962 13.6026 14.729 13.5689 14.56 13.5689C14.391 13.5689 14.2238 13.6026 14.068 13.6681C13.9131 13.7331 13.7727 13.8283 13.6549 13.948L12.9564 14.6464L12.6037 14.9992L12.9557 15.3528L17.4657 19.8828L17.8718 20.2907L18.2189 19.8315C18.3992 19.593 18.4977 19.3027 18.5 19.0038Z" fill="#111111" stroke="#111111"/>
</svg>
