<svg width="24" height="24" viewBox="0 0 24 24" fill="none" xmlns="http://www.w3.org/2000/svg">
<path d="M13.5 6.00003C13.4979 6.52418 13.6135 7.04212 13.8383 7.51561L14.1424 8.15586L14.6436 7.65468L18.6436 3.65468L19.1406 3.15759L18.508 2.85113C18.0386 2.6238 17.5244 2.50422 17.003 2.50113V2.50113H17C16.0717 2.50113 15.1815 2.86987 14.5251 3.52625C13.869 4.18237 13.5003 5.07217 13.5 6.00003ZM13.5 6.00003C13.5 5.99966 13.5 5.9993 13.5 5.99894L14 6.00113H13.5C13.5 6.00076 13.5 6.00039 13.5 6.00003ZM20.5 6.00496C20.5072 5.47858 20.3955 4.95735 20.1733 4.48009L19.8717 3.83232L19.3664 4.33757L15.3664 8.33757L14.8569 8.84708L15.5125 9.14605C16.1622 9.44233 16.8857 9.53756 17.5899 9.4195C18.2941 9.30144 18.9469 8.97548 19.4645 8.48352L19.4646 8.48363L19.4733 8.4749C20.1291 7.81995 20.4983 6.93168 20.5 6.00496ZM20.5 6.00496C20.5 6.00611 20.5 6.00727 20.4999 6.00842L20 6.00113M20.5 6.00496C20.5 6.00383 20.5 6.0027 20.5 6.00157L20 6.00113M20 6.00113C19.9993 6.79651 19.6828 7.55906 19.12 8.12113L15.9275 8.2362C15.9851 8.26248 16.0435 8.28657 16.1027 8.30845L19.3385 5.0726C19.3167 5.01502 19.2928 4.95817 19.2667 4.90216L19.72 4.69113L20.0736 5.04468L19.9062 5.21198C19.9722 5.46892 20.0039 5.73427 20 6.00113ZM17.6453 14.7435L18.5 15.604V14.3911V14.0011C18.5 13.8685 18.5527 13.7413 18.6464 13.6476C18.7402 13.5538 18.8674 13.5011 19 13.5011C19.1326 13.5011 19.2598 13.5538 19.3536 13.6476C19.4473 13.7413 19.5 13.8685 19.5 14.0011V19.2211V19.2404L19.5015 19.2596C19.5047 19.3019 19.5051 19.3443 19.5026 19.3866C19.4344 19.8288 19.2488 20.2448 18.9649 20.5909C18.6946 20.9204 18.345 21.175 17.9494 21.3311H17.8645L17.7839 21.3595C17.5306 21.4487 17.2645 21.4966 16.996 21.5011H5C4.33696 21.5011 3.70107 21.2377 3.23223 20.7689C2.76339 20.3001 2.5 19.6642 2.5 19.0011V7.00113C2.5 6.33808 2.76339 5.7022 3.23223 5.23336C3.70107 4.76452 4.33696 4.50113 5 4.50113H9C9.13261 4.50113 9.25979 4.5538 9.35355 4.64757C9.44732 4.74134 9.5 4.86852 9.5 5.00113C9.5 5.13373 9.44732 5.26091 9.35355 5.35468C9.25978 5.44845 9.13261 5.50113 9 5.50113H5C4.60217 5.50113 4.22064 5.65916 3.93934 5.94046C3.65804 6.22177 3.5 6.6033 3.5 7.00113V12.6111V13.824L4.35474 12.9635L5.82835 11.4799C6.26708 11.0706 6.84481 10.8429 7.445 10.8429C8.0453 10.8429 8.62313 11.0707 9.06188 11.4801L11.5357 13.964L11.8918 14.3215L12.2461 13.9622L12.939 13.2593C13.3777 12.8504 13.9551 12.6229 14.555 12.6229C15.1552 12.6229 15.7329 12.8506 16.1716 13.2599L17.6453 14.7435ZM3.64706 15.077L3.5 15.2235V15.4311V19.0011C3.5 19.399 3.65804 19.7805 3.93934 20.0618C4.22065 20.3431 4.60218 20.5011 5 20.5011H15.46H16.6671L15.8136 19.6476L11.5336 15.3676L11.533 15.367L8.343 12.187L8.34309 12.1869L8.33494 12.1792C8.09504 11.9506 7.77637 11.823 7.445 11.823C7.11363 11.823 6.79496 11.9506 6.55506 12.1792L6.55498 12.1791L6.54706 12.187L3.64706 15.077ZM18.4997 19.0177L18.5 19.0094V19.0011V17.2111V17.0045L18.3542 16.8582L15.4542 13.9482L15.4543 13.9481L15.4449 13.9392C15.205 13.7106 14.8864 13.583 14.555 13.583C14.2236 13.583 13.905 13.7106 13.6651 13.9392L13.665 13.9391L13.659 13.9451L12.949 14.6451L12.5912 14.9978L12.9457 15.3539L17.4657 19.8939L17.8872 20.3173L18.2297 19.8277C18.3963 19.5896 18.4901 19.3082 18.4997 19.0177ZM17.447 1.51445C18.4829 1.61786 19.4508 2.07721 20.186 2.81423C20.6036 3.2329 20.9346 3.72978 21.1601 4.27646C21.3856 4.82313 21.5011 5.40889 21.5 6.00023C21.4981 7.04123 21.1354 8.04938 20.4736 8.85295C19.8119 9.65651 18.8919 10.2058 17.8706 10.4072C16.8493 10.6086 15.7897 10.4496 14.8724 9.95747C13.9551 9.46528 13.2368 8.6703 12.8399 7.70793C12.443 6.74557 12.392 5.67537 12.6957 4.67964C12.9993 3.68391 13.6388 2.82424 14.5052 2.2471C15.3715 1.66996 16.4112 1.41104 17.447 1.51445Z" fill="#111111" stroke="#111111"/>
</svg>
