<svg width="24" height="24" viewBox="0 0 24 24" fill="none" xmlns="http://www.w3.org/2000/svg">
<path d="M21.5 2.00292L21.5 2.00292C21.6318 2.00291 21.7582 2.0549 21.8518 2.14759C21.945 2.2398 21.9982 2.36487 22 2.49586V5.49292C22 5.62553 21.9473 5.7527 21.8536 5.84647C21.7598 5.94024 21.6326 5.99292 21.5 5.99292H18.5C18.3674 5.99292 18.2402 5.94024 18.1464 5.84647C18.0527 5.7527 18 5.62553 18 5.49292C18 5.36031 18.0527 5.23313 18.1464 5.13936C18.2402 5.0456 18.3674 4.99292 18.5 4.99292H19.73H20.8486L20.1025 4.15944C19.6416 3.64443 19.0384 3.27744 18.3691 3.10476C17.6998 2.93208 16.9944 2.96144 16.3418 3.18913C15.6891 3.41682 15.1186 3.83264 14.7019 4.38418C14.2853 4.93571 14.0413 5.59825 14.0007 6.28826C13.9602 6.97826 14.1248 7.66484 14.4739 8.26141C14.8229 8.85798 15.3409 9.33784 15.9623 9.64047C16.5837 9.9431 17.2808 10.055 17.9657 9.96194C18.6502 9.86898 19.2918 9.57557 19.8099 9.11866C19.9102 9.03136 20.041 8.98733 20.1737 8.99624C20.3067 9.00517 20.4308 9.06659 20.5186 9.16699C20.6063 9.26739 20.6506 9.39854 20.6417 9.5316C20.6327 9.66465 20.5713 9.78871 20.4709 9.87647L20.4696 9.87762C19.831 10.4399 19.046 10.8095 18.2058 10.9437C17.3656 11.0779 16.5045 10.9711 15.7225 10.6357C14.9405 10.3004 14.2696 9.75019 13.7877 9.04898C13.3057 8.34778 13.0324 7.5243 12.9995 6.67407C12.9666 5.82383 13.1754 4.98169 13.6017 4.24533C14.028 3.50896 14.6544 2.90855 15.4081 2.51375C16.1618 2.11894 17.0121 1.94592 17.8601 2.01475C18.7082 2.08358 19.5194 2.39144 20.1996 2.90263L21 3.50413V2.50292C21 2.37031 21.0527 2.24313 21.1464 2.14936C21.2402 2.0556 21.3674 2.00292 21.5 2.00292ZM17.1488 15.2488L18 16.0887V14.8929V14.5029C18 14.3703 18.0527 14.2431 18.1464 14.1494C18.2402 14.0556 18.3674 14.0029 18.5 14.0029C18.6326 14.0029 18.7598 14.0556 18.8536 14.1494C18.9473 14.2431 19 14.3703 19 14.5029V19.5029C19 20.166 18.7366 20.8018 18.2678 21.2707C17.7989 21.7395 17.163 22.0029 16.5 22.0029H4.5C3.83696 22.0029 3.20107 21.7395 2.73223 21.2707C2.26339 20.8018 2 20.166 2 19.5029V7.50292C2 6.83988 2.26339 6.20399 2.73223 5.73515C3.20107 5.26631 3.83696 5.00292 4.5 5.00292H9.5C9.63261 5.00292 9.75978 5.05559 9.85355 5.14936C9.94732 5.24313 10 5.37031 10 5.50292C10 5.63552 9.94732 5.7627 9.85355 5.85647C9.75978 5.95024 9.63261 6.00292 9.5 6.00292H4.5C4.10217 6.00292 3.72064 6.16095 3.43934 6.44226C3.15803 6.72356 3 7.10509 3 7.50292V13.1029V14.31L3.85355 13.4565L5.33215 11.9779C5.33238 11.9776 5.33261 11.9774 5.33284 11.9772C5.7617 11.5521 6.34112 11.3135 6.945 11.3135C7.54841 11.3135 8.12741 11.5517 8.55617 11.9762L11.0143 14.4643L11.3679 14.8222L11.7236 14.4665L12.4236 13.7665L12.4247 13.7653C12.6357 13.553 12.8866 13.3845 13.1629 13.2695C13.4393 13.1545 13.7357 13.0953 14.035 13.0953C14.3343 13.0953 14.6307 13.1545 14.9071 13.2695C15.1834 13.3845 15.4343 13.553 15.6453 13.7653L15.6453 13.7653L15.6488 13.7688L17.1488 15.2488ZM3.14463 15.5812L3 15.7273V15.9329V19.5029C3 19.9007 3.15803 20.2823 3.43934 20.5636C3.72065 20.8449 4.10218 21.0029 4.5 21.0029H15H16.2091L15.3531 20.149L11.0136 15.8194L11.0131 15.819L7.84355 12.6494L7.84366 12.6493L7.83494 12.641C7.59504 12.4123 7.27637 12.2848 6.945 12.2848C6.61363 12.2848 6.29496 12.4123 6.05506 12.641L6.04977 12.646L6.04463 12.6512L3.14463 15.5812ZM17.9995 19.5248L18 19.5139V19.5029V17.7229V17.5163L17.8542 17.37L14.9642 14.47L14.9626 14.4684C14.7227 14.2299 14.3982 14.096 14.06 14.096C13.7218 14.096 13.3973 14.2299 13.1574 14.4684L13.1564 14.4694L12.4564 15.1694L12.1029 15.5229L12.4564 15.8765L16.9664 20.3865L17.3877 20.8077L17.7295 20.3198C17.8934 20.0859 17.987 19.8101 17.9995 19.5248Z" fill="#111111" stroke="#111111"/>
</svg>
