<svg width="24" height="24" viewBox="0 0 24 24" fill="none" xmlns="http://www.w3.org/2000/svg">
<path d="M15.6448 9.71192L16.5 10.575V9.36V5C16.5 4.60217 16.342 4.22064 16.0607 3.93934C15.7794 3.65804 15.3978 3.5 15 3.5H5C4.60217 3.5 4.22064 3.65804 3.93934 3.93934C3.65804 4.22064 3.5 4.60217 3.5 5V9.85V11.0629L4.35475 10.2024L5.82263 8.72448C6.27697 8.27845 6.88824 8.02851 7.525 8.02851C8.16203 8.02851 8.77356 8.27866 9.22796 8.72506L10.0364 9.53355L10.39 9.88711L10.7436 9.53355L11.6525 8.62465C11.6526 8.62446 11.6528 8.62426 11.653 8.62407C12.0407 8.23906 12.5644 8.02207 13.1108 8.02C13.6564 8.02031 14.1796 8.23708 14.5656 8.62273C14.5659 8.62299 14.5661 8.62325 14.5664 8.62352L15.6448 9.71192ZM3.68386 15.6945L4.00567 16.2686L4.47246 15.8046L9.35246 10.9546L9.71256 10.5968L9.34922 10.2422L8.52154 9.43443C8.39112 9.30413 8.2364 9.20067 8.06614 9.1299C7.89463 9.05863 7.71073 9.02193 7.525 9.02193C7.33927 9.02193 7.15537 9.05863 6.98386 9.1299C6.81255 9.20111 6.65697 9.30541 6.52604 9.43685C6.5259 9.437 6.52575 9.43714 6.5256 9.43729L3.64645 12.3164L3.5 12.4629V12.67V15H3.49997L3.50003 15.0051C3.50251 15.2467 3.56572 15.4838 3.68386 15.6945ZM16.5 12.18V11.9723L16.3528 11.8257L13.8601 9.34296C13.7651 9.24151 13.6504 9.1605 13.523 9.10494C13.3927 9.04816 13.252 9.01924 13.11 9.01999C12.9679 9.01924 12.8273 9.04816 12.697 9.10494C12.5695 9.16055 12.4547 9.24165 12.3597 9.34321L6.04673 15.6462L5.19154 16.5H6.4H15C15.3978 16.5 15.7794 16.342 16.0607 16.0607C16.342 15.7794 16.5 15.3978 16.5 15V12.18ZM17.5 5V15C17.5 15.663 17.2366 16.2989 16.7678 16.7678C16.2989 17.2366 15.663 17.5 15 17.5H5C4.33696 17.5 3.70107 17.2366 3.23223 16.7678C2.76339 16.2989 2.5 15.663 2.5 15V5C2.5 4.33696 2.76339 3.70107 3.23223 3.23223C3.70107 2.76339 4.33696 2.5 5 2.5H15C15.663 2.5 16.2989 2.76339 16.7678 3.23223C17.2366 3.70107 17.5 4.33696 17.5 5ZM20.6464 6.64645C20.7402 6.55268 20.8674 6.5 21 6.5C21.1326 6.5 21.2598 6.55268 21.3536 6.64645C21.4473 6.74021 21.5 6.86739 21.5 7V17C21.5 18.1935 21.0259 19.3381 20.182 20.182C19.3381 21.0259 18.1935 21.5 17 21.5H7C6.86739 21.5 6.74021 21.4473 6.64645 21.3536C6.55268 21.2598 6.5 21.1326 6.5 21C6.5 20.8674 6.55268 20.7402 6.64645 20.6464C6.74021 20.5527 6.86739 20.5 7 20.5H17C17.9283 20.5 18.8185 20.1313 19.4749 19.4749C20.1313 18.8185 20.5 17.9283 20.5 17V7C20.5 6.86739 20.5527 6.74021 20.6464 6.64645Z" fill="#111111" stroke="#111111"/>
</svg>
