<svg width="24" height="24" viewBox="0 0 24 24" fill="none" xmlns="http://www.w3.org/2000/svg">
<path d="M20.1466 14.1098L21.0002 14.9634V13.7563V6.99628C21.0002 6.59846 20.8422 6.21692 20.5608 5.93562C20.2795 5.65431 19.898 5.49628 19.5002 5.49628H10.0002C9.86758 5.49628 9.7404 5.4436 9.64663 5.34983C9.55286 5.25606 9.50019 5.12889 9.50019 4.99628C9.50019 4.86367 9.55286 4.73649 9.64663 4.64273C9.7404 4.54896 9.86758 4.49628 10.0002 4.49628H19.4923C20.1397 4.51756 20.7536 4.78925 21.2047 5.25428C21.6574 5.72103 21.9105 6.34581 21.9102 6.99605V6.99628V16.4563C21.9102 16.5889 21.8575 16.7161 21.7637 16.8098C21.6702 16.9034 21.5434 16.956 21.4111 16.9563C21.3539 16.956 21.2974 16.9437 21.2452 16.9202L21.2453 16.9201L21.2325 16.9147C21.226 16.912 21.2199 16.9087 21.2141 16.9047L21.1875 16.8864L21.1587 16.8716C21.1264 16.8549 21.0965 16.834 21.0698 16.8093L21.0698 16.8093L21.0682 16.8079L21.0464 16.7711L21.0162 16.7367C21.015 16.7353 21.0138 16.7339 21.0126 16.7325L21.0128 16.7304L21.0069 16.6795C21.0056 16.6674 21.0056 16.6552 21.0069 16.6431L21.0345 16.4024L20.8627 16.2317L17.5604 12.9494C17.4063 12.7837 17.2121 12.6603 16.9964 12.5913C16.9352 12.5702 16.8786 12.5374 16.8298 12.4948C16.7801 12.4514 16.7394 12.3987 16.7101 12.3396C16.6808 12.2805 16.6634 12.2161 16.6589 12.1503C16.6544 12.0845 16.663 12.0184 16.684 11.9559C16.7051 11.8934 16.7383 11.8356 16.7816 11.7859C16.825 11.7362 16.8778 11.6955 16.9369 11.6662C16.996 11.6368 17.0603 11.6195 17.1261 11.615C17.1915 11.6105 17.2571 11.6189 17.3193 11.6397C17.6757 11.7625 17.9997 11.9644 18.267 12.2302C18.2672 12.2304 18.2674 12.2306 18.2676 12.2308L20.1466 14.1098ZM3.56685 5.41328L3.85402 5.063L3.53374 4.74273L2.14374 3.35273C2.0492 3.25819 1.99609 3.12997 1.99609 2.99628C1.99609 2.86259 2.0492 2.73437 2.14374 2.63983C2.23827 2.5453 2.36649 2.49219 2.50019 2.49219C2.63388 2.49219 2.7621 2.5453 2.85663 2.63983L20.8566 20.6398L20.8581 20.6413C20.905 20.6878 20.9421 20.7431 20.9675 20.804C20.9929 20.8649 21.006 20.9303 21.006 20.9963C21.006 21.0623 20.9929 21.1276 20.9675 21.1886C20.9421 21.2495 20.905 21.3048 20.8581 21.3513L20.8552 21.3542C20.8087 21.401 20.7534 21.4382 20.6925 21.4636C20.6315 21.489 20.5662 21.5021 20.5002 21.5021C20.4342 21.5021 20.3688 21.489 20.3079 21.4636C20.247 21.4382 20.1917 21.401 20.1452 21.3542L20.1448 21.3538L18.4448 19.6438L18.2982 19.4963H18.0902H5.50019C4.83714 19.4963 4.20126 19.2329 3.73242 18.764C3.26358 18.2952 3.00019 17.6593 3.00019 16.9963L3.00019 6.99661C3.00019 6.99656 3.00019 6.9965 3.00019 6.99644C3.00061 6.41912 3.20083 5.85974 3.56685 5.41328ZM4.00024 6.98869L4.00019 6.98868V6.99628V11.7563V12.982L4.85752 12.106L6.691 10.2327C6.92989 10.007 7.21096 9.83053 7.51815 9.71354L8.24118 9.43816L7.69309 8.89208L4.97309 6.18208L4.49855 5.70929L4.18024 6.29869C4.06565 6.51087 4.00391 6.74756 4.00024 6.98869ZM4.14717 14.2222L4.00019 14.3687V14.5763V16.9963C4.00019 17.3941 4.15822 17.7756 4.43953 18.0569C4.72083 18.3382 5.10236 18.4963 5.50019 18.4963H15.9102H17.1173L16.2637 17.6427L9.55374 10.9327L9.55376 10.9327L9.55019 10.9292C9.26979 10.6544 8.89282 10.5004 8.50019 10.5004C8.10756 10.5004 7.73058 10.6544 7.45019 10.9292L7.45017 10.9292L7.44717 10.9322L4.14717 14.2222Z" fill="#111111" stroke="#111111"/>
</svg>
