<svg width="24" height="24" viewBox="0 0 24 24" fill="none" xmlns="http://www.w3.org/2000/svg">
<path d="M17.6464 13.7436L18.5 14.5971V13.39V8C18.5 7.86739 18.5527 7.74021 18.6464 7.64645C18.7402 7.55268 18.8674 7.5 19 7.5C19.1326 7.5 19.2598 7.55268 19.3536 7.64645C19.4473 7.74021 19.5 7.86739 19.5 8V18C19.5 18.663 19.2366 19.2989 18.7678 19.7678C18.2989 20.2366 17.663 20.5 17 20.5H5C4.33696 20.5 3.70107 20.2366 3.23223 19.7678C2.76339 19.2989 2.5 18.663 2.5 18V6C2.5 5.33696 2.76339 4.70107 3.23223 4.23223C3.70107 3.76339 4.33696 3.5 5 3.5H13C13.1326 3.5 13.2598 3.55268 13.3536 3.64645C13.4473 3.74021 13.5 3.86739 13.5 4C13.5 4.13261 13.4473 4.25978 13.3536 4.35355C13.2598 4.44732 13.1326 4.5 13 4.5H5C4.60217 4.5 4.22064 4.65804 3.93934 4.93934C3.65804 5.22064 3.5 5.60217 3.5 6V11.61V12.8229L4.35474 11.9624L5.83215 10.475C5.83257 10.4745 5.83299 10.4741 5.83341 10.4737C6.26221 10.0489 6.84139 9.81063 7.445 9.81063C8.04874 9.81063 8.62804 10.049 9.05686 10.474C9.05719 10.4743 9.05752 10.4746 9.05785 10.475L11.5357 12.9628L11.8893 13.3178L12.2436 12.9636L12.9422 12.265C12.9424 12.2647 12.9426 12.2645 12.9428 12.2643C13.3717 11.8392 13.9511 11.6006 14.555 11.6006C15.1589 11.6006 15.7384 11.8392 16.1673 12.2644C16.1675 12.2646 16.1677 12.2648 16.1678 12.265L17.6464 13.7436ZM3.64706 14.0758L3.5 14.2224V14.43V18C3.5 18.3978 3.65804 18.7794 3.93934 19.0607C4.22065 19.342 4.60218 19.5 5 19.5H15.45H16.6571L15.8036 18.6464L11.5136 14.3564L8.34355 11.1864L8.34366 11.1863L8.33494 11.178C8.09504 10.9494 7.77637 10.8219 7.445 10.8219C7.11363 10.8219 6.79496 10.9494 6.55506 11.178L6.55498 11.1779L6.54706 11.1858L3.64706 14.0758ZM18.4997 18.0166L18.5 18.0083V18V16.22V16.0139L18.3548 15.8677L15.4671 12.9601C15.4667 12.9596 15.4663 12.9592 15.4658 12.9587C15.3479 12.8387 15.2072 12.7433 15.052 12.6781C14.8962 12.6126 14.729 12.5789 14.56 12.5789C14.391 12.5789 14.2238 12.6126 14.068 12.6781C13.9137 12.7429 13.7738 12.8375 13.6563 12.9566L12.959 13.6439L12.6015 13.9963L12.9553 14.3524L17.4653 18.8924L17.8869 19.3168L18.2297 18.8266C18.3963 18.5884 18.4901 18.307 18.4997 18.0166ZM17 3.5H21C21.1326 3.5 21.2598 3.55268 21.3536 3.64645C21.4473 3.74021 21.5 3.86739 21.5 4C21.5 4.13261 21.4473 4.25979 21.3536 4.35355C21.2598 4.44732 21.1326 4.5 21 4.5H17C16.8674 4.5 16.7402 4.44732 16.6464 4.35355C16.5527 4.25979 16.5 4.13261 16.5 4C16.5 3.86739 16.5527 3.74021 16.6464 3.64645C16.7402 3.55268 16.8674 3.5 17 3.5Z" fill="#111111" stroke="#111111"/>
</svg>
