<svg width="24" height="24" viewBox="0 0 24 24" fill="none" xmlns="http://www.w3.org/2000/svg">
<path d="M17.6488 15.2223L18.5 16.0622V14.8664V12.4764C18.5 12.3438 18.5527 12.2166 18.6464 12.1229C18.7402 12.0291 18.8674 11.9764 19 11.9764C19.1326 11.9764 19.2598 12.0291 19.3536 12.1229C19.4473 12.2166 19.5 12.3438 19.5 12.4764V19.4764C19.5 20.1395 19.2366 20.7753 18.7678 21.2442C18.2989 21.713 17.663 21.9764 17 21.9764H5C4.33696 21.9764 3.70107 21.713 3.23223 21.2442C2.76339 20.7753 2.5 20.1395 2.5 19.4764V7.47642C2.5 6.81338 2.76339 6.17749 3.23223 5.70865C3.70107 5.23981 4.33696 4.97642 5 4.97642H11C11.1326 4.97642 11.2598 5.0291 11.3536 5.12286C11.4473 5.21663 11.5 5.34381 11.5 5.47642C11.5 5.60903 11.4473 5.7362 11.3536 5.82997C11.2598 5.92374 11.1326 5.97642 11 5.97642H5C4.60217 5.97642 4.22064 6.13445 3.93934 6.41576C3.65804 6.69706 3.5 7.07859 3.5 7.47642V13.0864V14.3052L4.35593 13.4376L5.82414 11.9494C6.25117 11.5257 6.82838 11.2879 7.43 11.2879C8.03213 11.2879 8.6098 11.5261 9.03694 11.9505C9.03712 11.9506 9.0373 11.9508 9.03748 11.951L11.5264 14.44L11.88 14.7935L12.2336 14.44L12.9298 13.7437C13.3633 13.3292 13.9401 13.0978 14.54 13.0978C15.1405 13.0978 15.7177 13.3296 16.1514 13.7449L17.6488 15.2223ZM5 20.9764L5.0024 20.9764L15.4324 20.9264L16.6314 20.9207L15.7836 20.0729L11.5236 15.8129L8.35595 12.6453C8.23724 12.5237 8.09549 12.4269 7.93895 12.3606C7.7811 12.2938 7.61142 12.2594 7.44 12.2594C7.26858 12.2594 7.0989 12.2938 6.94105 12.3606C6.78391 12.4271 6.64166 12.5244 6.52267 12.6467L3.64402 15.5653L3.5 15.7113V15.9164V19.4764C3.5 19.8742 3.65804 20.2558 3.93934 20.5371C4.22065 20.8184 4.60218 20.9764 5 20.9764ZM18.4999 19.4854H18.5V19.4764V17.6964V17.4883L18.3523 17.3416L15.4426 14.4519C15.4425 14.4518 15.4424 14.4517 15.4423 14.4516C15.2025 14.2133 14.8781 14.0795 14.54 14.0795C14.2022 14.0795 13.8781 14.213 13.6384 14.451C13.638 14.4513 13.6377 14.4516 13.6374 14.4519L12.939 15.1403L12.5795 15.4946L12.9372 15.8508L17.4772 20.3708L17.9067 20.7984L18.2449 20.2954C18.4062 20.0556 18.4947 19.7743 18.4999 19.4854ZM13.655 6.74837L13.6551 6.74847L13.6636 6.73997L18.2425 2.16102C18.2427 2.16083 18.2429 2.16065 18.2431 2.16046C18.3367 2.06769 18.4632 2.01562 18.595 2.01562C18.7268 2.01562 18.8533 2.06768 18.9469 2.16046C18.9471 2.16064 18.9473 2.16083 18.9475 2.16102L21.363 4.57646C21.3634 4.57695 21.3639 4.57743 21.3644 4.57792C21.4099 4.62475 21.4459 4.68005 21.4701 4.74071C21.4947 4.802 21.5068 4.86753 21.5059 4.93354C21.505 4.99955 21.491 5.06472 21.4647 5.12529C21.4385 5.18587 21.4005 5.24064 21.353 5.28646L21.3529 5.2864L21.3464 5.29286L16.7679 9.87142C16.7677 9.87164 16.7675 9.87186 16.7672 9.87208C16.6744 9.96383 16.5493 10.0156 16.4188 10.0164H14C13.8674 10.0164 13.7402 9.96374 13.6464 9.86997C13.5527 9.7762 13.5 9.64903 13.5 9.51642V7.10047C13.5013 7.03496 13.5154 6.97032 13.5417 6.91025C13.5683 6.84929 13.6068 6.79426 13.655 6.74837ZM16 9.01642H16.2067L16.3531 8.87046L19.9531 5.28046L20.3076 4.92691L19.9536 4.57286L18.9536 3.57286L18.6005 3.2198L18.2469 3.57237L14.6469 7.16237L14.5 7.3089V7.51642V8.51642V9.01642H15H16Z" fill="#111111" stroke="#111111"/>
</svg>
