<svg width="24" height="24" viewBox="0 0 24 24" fill="none" xmlns="http://www.w3.org/2000/svg">
<path d="M3.64698 14.2259L3.5 14.3724V14.58V17C3.5 17.3978 3.65804 17.7794 3.93934 18.0607C4.22065 18.342 4.60218 18.5 5 18.5H15.41H16.6171L15.7636 17.6464L9.05355 10.9364L9.05357 10.9364L9.05 10.9329C8.76961 10.6581 8.39263 10.5041 8 10.5041C7.60737 10.5041 7.23039 10.6581 6.95 10.9329L6.94999 10.9329L6.94698 10.9359L3.64698 14.2259ZM17.8755 18.3526L18.0221 18.5H18.23H19C19.3978 18.5 19.7794 18.342 20.0607 18.0607C20.342 17.7794 20.5 17.3978 20.5 17V16.58V16.3724L20.353 16.2259L17.053 12.9359L17.053 12.9359L17.05 12.9329C16.7696 12.6581 16.3926 12.5041 16 12.5041C15.6074 12.5041 15.2304 12.6581 14.95 12.9329L14.95 12.9329L14.9464 12.9364L14.0664 13.8164L13.7138 14.1691L14.0655 14.5226L17.8755 18.3526ZM19.6474 14.1145L20.5 14.9626V13.76V7C20.5 6.60218 20.342 6.22065 20.0607 5.93934C19.7794 5.65804 19.3978 5.5 19 5.5H5C4.60217 5.5 4.22064 5.65804 3.93934 5.93934C3.65804 6.22064 3.5 6.60217 3.5 7V11.76V12.9626L4.35261 12.1145L6.2294 10.2477C6.70588 9.7914 7.34017 9.53663 8 9.53663C8.65962 9.53663 9.29372 9.79123 9.77014 10.2473L12.6464 13.1236L13 13.4771L13.3536 13.1236L14.2299 12.2472C14.7063 11.7912 15.3404 11.5366 16 11.5366C16.6598 11.5366 17.2941 11.7914 17.7706 12.2477L19.6474 14.1145ZM5 4.5H19C19.663 4.5 20.2989 4.76339 20.7678 5.23223C21.2366 5.70107 21.5 6.33696 21.5 7V17C21.5 17.663 21.2366 18.2989 20.7678 18.7678C20.2989 19.2366 19.663 19.5 19 19.5H5C4.33696 19.5 3.70107 19.2366 3.23223 18.7678C2.76339 18.2989 2.5 17.663 2.5 17V7C2.5 6.33696 2.76339 5.70107 3.23223 5.23223C3.70107 4.76339 4.33696 4.5 5 4.5Z" fill="#111111" stroke="#111111"/>
</svg>
