<svg width="24" height="24" viewBox="0 0 24 24" fill="none" xmlns="http://www.w3.org/2000/svg">
<path d="M18.6121 7.84474L18.8798 7.96708L19.1166 7.7925C19.3729 7.6036 19.6827 7.50116 20.0011 7.5C20.2894 7.49963 20.5717 7.58236 20.8143 7.7383C21.0569 7.89431 21.2494 8.11695 21.3687 8.37957C21.488 8.64218 21.5291 8.93363 21.487 9.21899C21.4448 9.50434 21.3214 9.7715 21.1313 9.98846C20.9412 10.2054 20.6926 10.363 20.4153 10.4422C20.1379 10.5215 19.8436 10.5191 19.5676 10.4354C19.2915 10.3517 19.0455 10.1901 18.859 9.97012C18.6724 9.75012 18.5533 9.481 18.5158 9.195L18.4804 8.92545L18.235 8.80857L16.135 7.80857L15.9013 7.69731L15.6756 7.82383C15.4693 7.93945 15.2367 8.00011 15.0002 8V7.99985L14.988 8.00015C14.7505 8.00586 14.515 7.95509 14.301 7.852C14.087 7.74892 13.9005 7.59648 13.7569 7.40722C13.6133 7.21797 13.5167 6.99732 13.4751 6.76343C13.4335 6.52955 13.448 6.28913 13.5175 6.06195C13.5869 5.83477 13.7094 5.62735 13.8747 5.45675C14.04 5.28614 14.2435 5.15724 14.4683 5.08066C14.6932 5.00408 14.9331 4.982 15.1681 5.01625C15.4032 5.0505 15.6268 5.14009 15.8205 5.27765L16.0563 5.44515L16.3191 5.32419L18.2091 4.45419L18.5 4.32027V4C18.5 3.70333 18.588 3.41332 18.7528 3.16665C18.9176 2.91997 19.1519 2.72771 19.426 2.61418C19.7001 2.50065 20.0017 2.47095 20.2926 2.52882C20.5836 2.5867 20.8509 2.72956 21.0607 2.93934C21.2704 3.14912 21.4133 3.41639 21.4712 3.70737C21.5291 3.99834 21.4994 4.29994 21.3858 4.57403C21.2723 4.84811 21.08 5.08238 20.8334 5.24721C20.588 5.41115 20.2998 5.49906 20.0047 5.49999C19.7416 5.49418 19.4845 5.41922 19.2595 5.28259L19.0333 5.1453L18.7926 5.25506L16.8626 6.13506L15.8661 6.58941L16.8621 7.04474L18.6121 7.84474ZM17.6464 14.7436L18.5 15.5971V14.39V14C18.5 13.8674 18.5527 13.7402 18.6464 13.6464C18.7402 13.5527 18.8674 13.5 19 13.5C19.1326 13.5 19.2598 13.5527 19.3536 13.6464C19.4473 13.7402 19.5 13.8674 19.5 14V19C19.5 19.663 19.2366 20.2989 18.7678 20.7678C18.2989 21.2366 17.663 21.5 17 21.5H5C4.33696 21.5 3.70107 21.2366 3.23223 20.7678C2.76339 20.2989 2.5 19.663 2.5 19V7C2.5 6.33696 2.76339 5.70108 3.23223 5.23223C3.70107 4.76339 4.33696 4.5 5 4.5H10C10.1326 4.5 10.2598 4.55268 10.3536 4.64645C10.4473 4.74022 10.5 4.86739 10.5 5C10.5 5.13261 10.4473 5.25979 10.3536 5.35355C10.2598 5.44732 10.1326 5.5 10 5.5H5C4.60217 5.5 4.22064 5.65804 3.93934 5.93934C3.65804 6.22065 3.5 6.60218 3.5 7V12.6V13.8071L4.35355 12.9536L5.83215 11.475C5.83238 11.4747 5.83261 11.4745 5.83284 11.4743C6.2617 11.0492 6.84112 10.8106 7.445 10.8106C8.04874 10.8106 8.62804 11.049 9.05686 11.474C9.05719 11.4743 9.05752 11.4746 9.05785 11.475L11.5357 13.9628L11.8893 14.3178L12.2436 13.9636L12.9436 13.2636L12.9447 13.2624C13.1557 13.0501 13.4066 12.8815 13.6829 12.7666C13.9593 12.6516 14.2557 12.5924 14.555 12.5924C14.8543 12.5924 15.1507 12.6516 15.4271 12.7666C15.7034 12.8815 15.9543 13.0501 16.1653 13.2624L16.1664 13.2636L17.6464 14.7436ZM3.64645 15.0764L3.5 15.2229V15.43V19C3.5 19.3978 3.65804 19.7794 3.93934 20.0607C4.22065 20.342 4.60218 20.5 5 20.5H15.45H16.6551L15.804 19.6469L11.514 15.3469L11.5136 15.3464L8.34355 12.1764L8.34366 12.1763L8.33494 12.168C8.09504 11.9394 7.77637 11.8119 7.445 11.8119C7.11363 11.8119 6.79496 11.9394 6.55506 12.168L6.55496 12.1679L6.54645 12.1764L3.64645 15.0764ZM18.5 19.0038V19V17.22V17.0144L18.3554 16.8683L15.4654 13.9483L15.4654 13.9483L15.4626 13.9455C15.2227 13.707 14.8982 13.5731 14.56 13.5731C14.2218 13.5731 13.8973 13.707 13.6574 13.9455L13.6564 13.9464L12.9564 14.6464L12.6037 14.9992L12.9557 15.3528L17.4657 19.8828L17.8718 20.2907L18.2189 19.8315C18.3992 19.593 18.4977 19.3027 18.5 19.0038Z" fill="#111111" stroke="#111111"/>
</svg>
