<svg width="24" height="24" viewBox="0 0 24 24" fill="none" xmlns="http://www.w3.org/2000/svg">
<path d="M11.8221 15.4627L11.8115 15.458L11.8008 15.4538C11.7408 15.4306 11.6859 15.396 11.639 15.3519L7.64355 11.3564C7.59674 11.3096 7.55961 11.2541 7.53428 11.1929C7.50895 11.1317 7.49591 11.0662 7.49591 11C7.49591 10.9338 7.50895 10.8683 7.53428 10.8071C7.55961 10.7459 7.59674 10.6904 7.64355 10.6436C7.69036 10.5967 7.74593 10.5596 7.80709 10.5343C7.86825 10.5089 7.9338 10.4959 8 10.4959C8.0662 10.4959 8.13175 10.5089 8.19291 10.5343C8.25394 10.5596 8.30941 10.5966 8.35616 10.6433C8.35626 10.6434 8.35635 10.6435 8.35645 10.6436L10.6457 12.9428L11.5 13.8008V12.59V3C11.5 2.86739 11.5527 2.74021 11.6464 2.64645C11.7402 2.55268 11.8674 2.5 12 2.5C12.1326 2.5 12.2598 2.55268 12.3536 2.64645C12.4473 2.74021 12.5 2.86739 12.5 3V12.59V13.8008L13.3543 12.9428L15.6436 10.6436C15.6436 10.6435 15.6436 10.6435 15.6437 10.6434C15.7382 10.549 15.8664 10.4959 16 10.4959C16.1337 10.4959 16.2619 10.549 16.3564 10.6436C16.451 10.7381 16.5041 10.8663 16.5041 11C16.5041 11.1337 16.451 11.2619 16.3564 11.3564L12.361 15.3519C12.3141 15.396 12.2592 15.4306 12.1992 15.4538L12.1885 15.458L12.1779 15.4627C12.1218 15.4874 12.0613 15.5002 12 15.5002C11.9387 15.5002 11.8782 15.4874 11.8221 15.4627ZM20.6464 14.6464C20.7402 14.5527 20.8674 14.5 21 14.5C21.1326 14.5 21.2598 14.5527 21.3536 14.6464C21.4473 14.7402 21.5 14.8674 21.5 15V19C21.5 19.663 21.2366 20.2989 20.7678 20.7678C20.2989 21.2366 19.663 21.5 19 21.5H5C4.33696 21.5 3.70107 21.2366 3.23223 20.7678C2.76339 20.2989 2.5 19.663 2.5 19V15C2.5 14.8674 2.55268 14.7402 2.64645 14.6464C2.74021 14.5527 2.86739 14.5 3 14.5C3.13261 14.5 3.25979 14.5527 3.35355 14.6464C3.44732 14.7402 3.5 14.8674 3.5 15V19C3.5 19.3978 3.65804 19.7794 3.93934 20.0607C4.22065 20.342 4.60218 20.5 5 20.5H19C19.3978 20.5 19.7794 20.342 20.0607 20.0607C20.342 19.7794 20.5 19.3978 20.5 19V15C20.5 14.8674 20.5527 14.7402 20.6464 14.6464Z" fill="#111111" stroke="#111111"/>
</svg>
