<svg width="24" height="24" viewBox="0 0 24 24" fill="none" xmlns="http://www.w3.org/2000/svg">
<path d="M14.9777 14.6362L14.517 14.3799C13.5031 13.8159 12.5713 13.1153 11.7478 12.2978L11.7453 12.2952C10.9278 11.4718 10.2272 10.54 9.66316 9.52605L9.43888 9.12287L9.82275 8.86696L10.2428 8.58696L10.2704 8.56853L10.3002 8.55392C10.6328 8.39111 10.8933 8.11107 11.0318 7.76769C11.17 7.42478 11.1768 7.04291 11.0508 6.69537C10.8846 6.24762 10.7482 5.78938 10.6425 5.32363M14.9777 14.6362L10.6425 5.32363M14.9777 14.6362L15.2093 14.1626L15.4292 13.7129C15.592 13.3803 15.872 13.1198 16.2154 12.9813C16.5579 12.8432 16.9392 12.8363 17.2864 12.9618C17.7341 13.1311 18.1934 13.2678 18.6608 13.3709C18.6897 13.3775 18.7231 13.3857 18.7602 13.3949C18.9249 13.4356 19.1616 13.4941 19.3889 13.5021C19.9441 13.6103 20.4466 13.9037 20.8138 14.3349C21.1883 14.7745 21.3989 15.3302 21.4101 15.9076L21.4101 18.903L21.4101 18.9053C21.4117 19.259 21.3383 19.609 21.1947 19.9322C21.0511 20.2553 20.8406 20.5442 20.5771 20.78C20.1184 21.1885 19.5252 21.4139 18.9108 21.413H18.9101H18.5611C14.4916 20.9037 10.7063 19.0566 7.80066 16.1614C4.88777 13.2591 3.02483 9.46904 2.50611 5.38991L2.50613 5.3899L2.50541 5.38463C2.45631 5.02884 2.48444 4.66665 2.5879 4.32272C2.69135 3.97879 2.8677 3.66118 3.10493 3.39153C3.34216 3.12187 3.63471 2.9065 3.96266 2.76007C4.29061 2.61364 4.64627 2.53959 5.00541 2.54296L5.00541 2.54298H5.0101H8.0101V2.54303L8.01737 2.54293C8.61295 2.53427 9.19205 2.73854 9.65039 3.11896C10.1063 3.49733 10.4129 4.02522 10.5157 4.60844M14.9777 14.6362L10.5157 4.60844M10.6425 5.32363C10.5895 5.09032 10.5473 4.84861 10.5157 4.60844M10.6425 5.32363C10.6425 5.32369 10.6425 5.32374 10.6425 5.32379L10.5157 4.60844M15.9401 8.57298V8.57296L15.9358 8.573C15.8678 8.57359 15.8003 8.562 15.7364 8.53882C15.6786 8.51326 15.6261 8.47695 15.5818 8.4318C15.5364 8.38558 15.5004 8.33098 15.4759 8.27106C15.4516 8.2059 15.4395 8.13684 15.4401 8.0673H15.4401V8.06298V4.06298C15.4401 3.93037 15.4928 3.8032 15.5865 3.70943C15.6803 3.61566 15.8075 3.56298 15.9401 3.56298C16.0727 3.56298 16.1999 3.61566 16.2937 3.70943C16.3874 3.8032 16.4401 3.93037 16.4401 4.06298V5.65298V6.85749L17.2931 6.00707L20.5831 2.72707L20.5971 2.71317L20.6099 2.69821C20.6547 2.64587 20.7099 2.60336 20.7719 2.57335C20.8339 2.54333 20.9015 2.52647 20.9703 2.52381C21.0392 2.52115 21.1079 2.53275 21.172 2.55789C21.2362 2.58303 21.2945 2.62116 21.3432 2.66988C21.3919 2.71861 21.4301 2.77689 21.4552 2.84105C21.4803 2.90521 21.4919 2.97388 21.4893 3.04274C21.4866 3.1116 21.4697 3.17916 21.4397 3.2412C21.4097 3.30322 21.3672 3.35838 21.3149 3.40321L21.3002 3.41577L21.2865 3.42943L17.9965 6.71943L17.143 7.57298H18.3501H19.9401C20.0727 7.57298 20.1999 7.62566 20.2937 7.71943C20.3874 7.8132 20.4401 7.94037 20.4401 8.07298C20.4401 8.20559 20.3874 8.33277 20.2937 8.42654C20.1999 8.5203 20.0727 8.57298 19.9401 8.57298H15.9401ZM20.4401 19.0036L20.4401 18.9998L20.4201 15.8862C20.426 15.5401 20.312 15.2026 20.0974 14.9309C19.8811 14.6571 19.5761 14.4673 19.235 14.3941L19.2188 14.3906L19.2025 14.3883C18.9418 14.3501 18.6844 14.3024 18.4304 14.2453C17.9147 14.1282 17.4064 13.9803 16.9085 13.8022L16.471 13.6457L16.2829 14.0705L15.6651 15.4657C15.6373 15.5243 15.5983 15.577 15.5503 15.6208C15.5014 15.6654 15.4441 15.6999 15.3817 15.7222L15.3708 15.7261L15.3601 15.7305C15.2414 15.7793 15.1086 15.7805 14.9892 15.7341C12.0188 14.3438 9.63108 11.954 8.24343 8.98204C8.21581 8.92242 8.20021 8.85794 8.19753 8.79229C8.19484 8.7265 8.20518 8.66082 8.22794 8.59903C8.25071 8.53724 8.28545 8.48055 8.33019 8.43223C8.37492 8.3839 8.42876 8.34489 8.48861 8.31743L8.48861 8.31744L8.49066 8.31649L9.89066 7.66649L10.312 7.47085L10.1478 7.03626C9.96566 6.55413 9.81884 6.05939 9.70851 5.55595L9.70852 5.55595L9.70791 5.55323C9.65072 5.29905 9.60302 5.04151 9.56483 4.78058L9.56244 4.76425L9.55898 4.7481C9.48579 4.40696 9.29597 4.102 9.02219 3.88571C8.75002 3.67069 8.41178 3.55668 8.0651 3.56298L5.0701 3.56298L5.06947 3.56298C4.85649 3.56325 4.64601 3.60887 4.45204 3.69681C4.25806 3.78474 4.08503 3.91298 3.94447 4.07298L3.94439 4.07291L3.93771 4.08084C3.79923 4.24522 3.69552 4.43597 3.63284 4.64156C3.57016 4.84715 3.54981 5.06331 3.57303 5.27699L3.57297 5.27699L3.57386 5.28421C4.04988 9.14177 5.79657 12.7311 8.53843 15.486C11.2803 18.2409 14.8613 20.0046 18.7165 20.4989L18.7201 20.4994C18.9357 20.5254 19.1545 20.5062 19.3623 20.4428C19.5701 20.3795 19.7624 20.2734 19.9269 20.1314L19.9269 20.1315L19.9301 20.1286C20.0901 19.988 20.2183 19.815 20.3063 19.621C20.3942 19.4271 20.4398 19.2166 20.4401 19.0036Z" fill="#111111" stroke="#111111"/>
</svg>
