<svg width="24" height="24" viewBox="0 0 24 24" fill="none" xmlns="http://www.w3.org/2000/svg">
<path d="M12.9842 8.1857L13.2585 7.5H12.52H11C10.8674 7.5 10.7402 7.44732 10.6464 7.35355C10.5527 7.25978 10.5 7.13261 10.5 7C10.5 6.86739 10.5527 6.74022 10.6464 6.64645C10.7402 6.55268 10.8674 6.5 11 6.5H17C17.1326 6.5 17.2598 6.55268 17.3536 6.64645C17.4473 6.74021 17.5 6.86739 17.5 7C17.5 7.13261 17.4473 7.25979 17.3536 7.35355C17.2598 7.44732 17.1326 7.5 17 7.5H14.68H14.3415L14.2158 7.8143L11.0158 15.8143L10.7415 16.5H11.48H13C13.1326 16.5 13.2598 16.5527 13.3536 16.6464C13.4473 16.7402 13.5 16.8674 13.5 17C13.5 17.1326 13.4473 17.2598 13.3536 17.3536C13.2598 17.4473 13.1326 17.5 13 17.5H7C6.86739 17.5 6.74021 17.4473 6.64645 17.3536C6.55268 17.2598 6.5 17.1326 6.5 17C6.5 16.8674 6.55268 16.7402 6.64645 16.6464C6.74021 16.5527 6.86739 16.5 7 16.5H9.32H9.65852L9.78424 16.1857L12.9842 8.1857Z" fill="#111111" stroke="#111111"/>
</svg>
