<svg width="24" height="24" viewBox="0 0 24 24" fill="none" xmlns="http://www.w3.org/2000/svg">
<path d="M17.3678 16.658L17.6172 16.9052L17.9344 16.7546C18.399 16.5339 18.9204 16.4618 19.4274 16.5483C19.8684 16.6236 20.2799 16.8155 20.6198 17.1025V17.1413L20.7679 17.288C21.0937 17.611 21.3243 18.0173 21.4346 18.4626C21.5449 18.9078 21.5306 19.3748 21.3932 19.8125C21.2558 20.2501 21.0006 20.6416 20.6556 20.9439C20.3106 21.2462 19.8891 21.4478 19.4372 21.5265C18.9853 21.6053 18.5204 21.5582 18.0935 21.3904C17.6666 21.2226 17.294 20.9406 17.0167 20.5752C16.7393 20.2098 16.5679 19.7752 16.521 19.3189C16.4742 18.8625 16.5538 18.4021 16.7512 17.988L16.9025 17.6706L16.6549 17.4209L15.5149 16.2709L15.1746 15.9276L14.82 16.2562C12.3313 18.5625 9.37271 20.3025 6.14763 21.3566C5.84869 21.4497 5.53785 21.4989 5.22481 21.5028C4.87629 21.4915 4.53334 21.4119 4.21535 21.2687C3.89445 21.1241 3.6053 20.9176 3.36452 20.6609L3.35949 20.6555L3.3543 20.6503C2.9973 20.2914 2.74669 19.8407 2.63025 19.3481C2.51382 18.8555 2.53611 18.3403 2.69467 17.8595L2.69511 17.8582C3.74915 14.6319 5.48955 11.6723 7.79657 9.18278L8.12518 8.82819L7.78184 8.48783L6.63184 7.34783L6.38043 7.09861L6.06185 7.25294C5.72991 7.41375 5.36652 7.49911 4.99772 7.50292C4.33583 7.50166 3.7014 7.23796 3.23361 6.76959L3.23181 6.7678C2.90601 6.44488 2.67534 6.03855 2.56504 5.59329C2.45475 5.14803 2.46908 4.68101 2.60649 4.24335C2.74389 3.8057 2.99906 3.41428 3.34405 3.11196C3.68905 2.80964 4.11058 2.60806 4.56248 2.52931C5.01439 2.45055 5.47925 2.49765 5.90618 2.66545C6.33311 2.83324 6.70564 3.11527 6.98299 3.48064C7.26034 3.84602 7.43181 4.28066 7.47864 4.73698C7.52547 5.1933 7.44584 5.65371 7.24848 6.0678L7.0972 6.38521L7.34474 6.63493L8.48474 7.78493L8.8251 8.12827L9.1797 7.79966C11.6692 5.49263 14.6288 3.75224 17.8551 2.6982L17.8619 2.69597L17.8687 2.69354C18.3487 2.52128 18.8678 2.48903 19.3655 2.60053C19.8631 2.71204 20.3188 2.96271 20.6794 3.32333C21.04 3.68394 21.2907 4.13964 21.4022 4.63729C21.5137 5.13493 21.4815 5.65403 21.3092 6.13404L21.3068 6.14081L21.3046 6.14765C20.2505 9.37392 18.5101 12.3336 16.2031 14.8231L15.8745 15.1777L16.2178 15.518L17.3678 16.658ZM18.7758 3.55294V3.55291L18.7703 3.55301C18.5612 3.557 18.3539 3.5922 18.1551 3.65745C16.4946 4.19769 14.9023 4.92864 13.4101 5.83567L12.8661 6.16633L13.3163 6.61648L17.3863 10.6865L17.8364 11.1366L18.1671 10.5926C19.0718 9.10422 19.8014 7.51619 20.3412 5.86017C20.4566 5.55624 20.4841 5.22583 20.4203 4.90684C20.3555 4.58281 20.1992 4.28412 19.97 4.0461L19.9701 4.04604L19.9635 4.03949C19.8077 3.88361 19.6225 3.76031 19.4186 3.67677C19.2146 3.59324 18.9961 3.55114 18.7758 3.55294ZM6.61339 13.3194L6.16324 12.8692L5.83258 13.4132C4.92818 14.9011 4.19884 16.4884 3.65908 18.1438C3.54093 18.4482 3.51291 18.7803 3.57858 19.1005C3.64545 19.4265 3.80652 19.7256 4.04182 19.9609C4.27712 20.1962 4.57631 20.3573 4.90229 20.4242C5.22242 20.4898 5.55456 20.4618 5.85899 20.3437C7.51432 19.8039 9.10171 19.0746 10.5895 18.1702L11.1335 17.8395L10.6834 17.3894L6.61339 13.3194ZM11.6463 16.9465L11.9484 17.2486L12.2939 16.9973C12.9162 16.5448 13.514 16.0597 14.085 15.544L14.4754 15.1913L14.1034 14.8194L9.19339 9.90937L8.82372 9.5397L8.47088 9.92547C7.95194 10.4929 7.4634 11.0873 7.0073 11.7063L6.75227 12.0525L7.05628 12.3565L11.6463 16.9465ZM14.7959 14.1061L14.9424 14.2529H15.1498H15.1598H15.3791L15.5276 14.0917C16.05 13.5246 16.542 12.9301 17.0014 12.3108L17.2584 11.9644L16.9534 11.6594L12.3534 7.05937L12.0503 6.75628L11.7045 7.0095C11.0819 7.46531 10.4841 7.95386 9.91335 8.47309L9.52603 8.82547L9.89592 9.19612L14.7959 14.1061ZM20.0546 20.1052L20.1516 20.0076L20.1675 19.9438C20.3685 19.6783 20.4762 19.3522 20.4713 19.0167C20.4657 18.6348 20.3147 18.2695 20.049 17.9951L20.0491 17.995L20.0423 17.9883C19.7613 17.7089 19.3811 17.5521 18.9848 17.5521C18.5886 17.5521 18.2084 17.7089 17.9273 17.9883L17.925 17.9906C17.7862 18.1305 17.6762 18.2963 17.6015 18.4786C17.5267 18.6609 17.4886 18.8562 17.4893 19.0532C17.49 19.2503 17.5295 19.4453 17.6055 19.6271C17.6816 19.8089 17.7927 19.9739 17.9325 20.1127C18.0724 20.2516 18.2382 20.3615 18.4205 20.4363C18.6028 20.5111 18.7981 20.5492 18.9951 20.5485C19.1922 20.5478 19.3872 20.5083 19.569 20.4322C19.7508 20.3562 19.9158 20.2451 20.0546 20.1052ZM5.00514 6.49848C5.40311 6.49707 5.78422 6.33763 6.06464 6.05523C6.34505 5.77282 6.50179 5.39059 6.50039 4.99262C6.49898 4.59465 6.33954 4.21354 6.05714 3.93312C5.77473 3.65271 5.3925 3.49596 4.99453 3.49737C4.59656 3.49878 4.21545 3.65822 3.93504 3.94062C3.65462 4.22302 3.49788 4.60525 3.49928 5.00323C3.50069 5.4012 3.66013 5.78231 3.94253 6.06272C4.22494 6.34314 4.60717 6.49988 5.00514 6.49848Z" fill="#111111" stroke="#111111"/>
</svg>
