<svg width="24" height="24" viewBox="0 0 24 24" fill="none" xmlns="http://www.w3.org/2000/svg">
<path d="M21.3578 6.88108L21.3643 6.88755L21.3711 6.89378C21.4218 6.9406 21.4623 6.99743 21.49 7.06067C21.5177 7.12393 21.532 7.19223 21.532 7.26128C21.532 7.33033 21.5177 7.39863 21.49 7.46188C21.4623 7.52513 21.4218 7.58196 21.3711 7.62878L21.3644 7.63491L21.358 7.64129C21.3113 7.68763 21.2559 7.72429 21.1949 7.74917C21.134 7.77406 21.0688 7.78667 21.003 7.78629V7.78625L20.9972 7.78629C20.9314 7.78667 20.8662 7.77406 20.8053 7.74917C20.7448 7.7245 20.6898 7.68823 20.6433 7.64242C20.643 7.64204 20.6426 7.64166 20.6422 7.64129L19.2349 6.22398L18.8813 5.86792L18.5265 6.22273L17.1065 7.64273L16.7453 8.00399L17.1143 8.35738L18.5306 9.71385C18.5762 9.75979 18.6125 9.81418 18.6374 9.87399C18.6628 9.93492 18.6759 10.0003 18.6759 10.0663C18.6759 10.1323 18.6628 10.1976 18.6374 10.2586C18.6121 10.3195 18.5749 10.3748 18.528 10.4213L18.8801 10.7763L18.528 10.4213C18.4813 10.4676 18.4259 10.5043 18.3649 10.5292C18.304 10.5541 18.2388 10.5667 18.173 10.5663V10.5663L18.1672 10.5663C18.1014 10.5667 18.0362 10.5541 17.9753 10.5292C17.9148 10.5045 17.8598 10.4682 17.8133 10.4224C17.8129 10.422 17.8126 10.4216 17.8122 10.4213L16.4049 9.00398L16.051 8.64756L15.6962 9.00309L10.8162 13.8931L10.5283 14.1815L10.7527 14.5216C11.3667 15.4522 11.6134 16.5775 11.4449 17.6796C11.2765 18.7816 10.705 19.7819 9.84118 20.4867C8.97733 21.1914 7.88264 21.5504 6.76922 21.494C5.65579 21.4377 4.60292 20.9701 3.81461 20.1818C3.02629 19.3935 2.55866 18.3406 2.50233 17.2272C2.446 16.1137 2.80498 15.019 3.50971 14.1552C4.21444 13.2913 5.21475 12.7198 6.3168 12.5514C7.41885 12.383 8.54418 12.6297 9.47475 13.2436L9.81522 13.4683L10.1037 13.1798L20.6437 2.63983C20.7382 2.5453 20.8664 2.49219 21.0001 2.49219C21.1338 2.49219 21.262 2.5453 21.3565 2.63983C21.4511 2.73437 21.5042 2.86259 21.5042 2.99628C21.5042 3.12969 21.4513 3.25766 21.3571 3.35214C21.3569 3.35233 21.3567 3.35253 21.3565 3.35273L19.9378 4.76148L19.5805 5.11628L19.9378 5.47108L21.3578 6.88108ZM5.0556 19.9064C5.63117 20.291 6.30786 20.4963 7.0001 20.4963C7.92835 20.4963 8.81859 20.1275 9.47497 19.4712C10.1313 18.8148 10.5001 17.9245 10.5001 16.9963C10.5001 16.304 10.2948 15.6274 9.91024 15.0518C9.52565 14.4762 8.97903 14.0276 8.33949 13.7627C7.69995 13.4978 6.99621 13.4285 6.31728 13.5635C5.63835 13.6986 5.01471 14.0319 4.52522 14.5214C4.03574 15.0109 3.7024 15.6345 3.56735 16.3135C3.4323 16.9924 3.50161 17.6961 3.76652 18.3357C4.03142 18.9752 4.48003 19.5218 5.0556 19.9064Z" fill="#111111" stroke="#111111"/>
</svg>
