<svg width="24" height="24" viewBox="0 0 24 24" fill="none" xmlns="http://www.w3.org/2000/svg">
<path d="M9.05722 10.6457L8.19916 11.5H9.41H21C21.1326 11.5 21.2598 11.5527 21.3536 11.6464C21.4473 11.7402 21.5 11.8674 21.5 12C21.5 12.1326 21.4473 12.2598 21.3536 12.3536C21.2598 12.4473 21.1326 12.5 21 12.5H9.41H8.19916L9.05722 13.3543L11.3572 15.6443L11.3579 15.645C11.4048 15.6915 11.442 15.7468 11.4673 15.8077C11.4927 15.8686 11.5058 15.934 11.5058 16C11.5058 16.066 11.4927 16.1314 11.4673 16.1923C11.442 16.2532 11.4048 16.3085 11.3579 16.355L11.355 16.3579C11.3085 16.4048 11.2532 16.442 11.1923 16.4673C11.1314 16.4927 11.066 16.5058 11 16.5058C10.934 16.5058 10.8686 16.4927 10.8077 16.4673C10.7468 16.442 10.6915 16.4048 10.645 16.3579L10.6436 16.3564L6.64807 12.361C6.60403 12.3141 6.56944 12.2592 6.54618 12.1992L6.54628 12.1992L6.54249 12.19C6.49248 12.0683 6.49248 11.9317 6.54249 11.81L6.54258 11.81L6.54618 11.8008C6.56944 11.7408 6.60403 11.6859 6.64807 11.639L10.6436 7.64355C10.6904 7.59674 10.7459 7.55961 10.8071 7.53428C10.8683 7.50895 10.9338 7.49591 11 7.49591C11.0662 7.49591 11.1317 7.50895 11.1929 7.53428C11.2541 7.55961 11.3096 7.59674 11.3564 7.64355C11.4033 7.69036 11.4404 7.74593 11.4657 7.80709C11.4911 7.86825 11.5041 7.9338 11.5041 8C11.5041 8.0662 11.4911 8.13175 11.4657 8.19291C11.4404 8.25394 11.4034 8.30941 11.3567 8.35616C11.3566 8.35626 11.3565 8.35635 11.3564 8.35645L9.05722 10.6457ZM2.64645 3.64645C2.74021 3.55268 2.86739 3.5 3 3.5C3.13261 3.5 3.25979 3.55268 3.35355 3.64645C3.44732 3.74021 3.5 3.86739 3.5 4V20C3.5 20.1326 3.44732 20.2598 3.35355 20.3536C3.25979 20.4473 3.13261 20.5 3 20.5C2.86739 20.5 2.74021 20.4473 2.64645 20.3536C2.55268 20.2598 2.5 20.1326 2.5 20V4C2.5 3.86739 2.55268 3.74021 2.64645 3.64645Z" fill="#111111" stroke="#111111"/>
</svg>
