<svg width="24" height="24" viewBox="0 0 24 24" fill="none" xmlns="http://www.w3.org/2000/svg">
<path d="M6.35968 14.9375L6.64623 14.6411C6.69252 14.5954 6.7472 14.5592 6.80728 14.5343C6.86844 14.5089 6.93399 14.4959 7.00019 14.4959C7.06638 14.4959 7.13194 14.5089 7.19309 14.5343C7.25425 14.5596 7.30982 14.5967 7.35663 14.6436C7.40344 14.6904 7.44057 14.7459 7.46591 14.8071C7.49124 14.8683 7.50428 14.9338 7.50428 15C7.50428 15.0662 7.49124 15.1317 7.46591 15.1929C7.44057 15.2541 7.40344 15.3096 7.35663 15.3564L5.36115 17.3519C5.31431 17.396 5.2594 17.4306 5.19943 17.4538L5.18864 17.458L5.17806 17.4627C5.12203 17.4874 5.06144 17.5002 5.00019 17.5002C4.93893 17.5002 4.87834 17.4874 4.82231 17.4627L4.81173 17.458L4.80094 17.4538C4.74097 17.4306 4.68606 17.396 4.63922 17.3519L2.64374 15.3564C2.5492 15.2619 2.49609 15.1337 2.49609 15C2.49609 14.8663 2.5492 14.7381 2.64374 14.6436C2.73827 14.549 2.86649 14.4959 3.00019 14.4959C3.1327 14.4959 3.25984 14.5481 3.35413 14.6411L3.64069 14.9375L4.50019 15.8266V14.59V9.41V8.17336L3.64069 9.06249L3.35414 9.35893C3.25985 9.45191 3.13271 9.50409 3.00019 9.50409C2.86649 9.50409 2.73827 9.45098 2.64374 9.35645C2.5492 9.26191 2.49609 9.13369 2.49609 9C2.49609 8.86631 2.5492 8.73809 2.64374 8.64355L4.63922 6.64807C4.68606 6.60404 4.74097 6.56944 4.80094 6.54618L4.80098 6.54628L4.81019 6.54249C4.93192 6.49248 5.06845 6.49248 5.19019 6.54249L5.19015 6.54258L5.19943 6.54618C5.2594 6.56944 5.31431 6.60404 5.36115 6.64807L7.35663 8.64355L7.35663 8.64356L7.35808 8.645C7.40495 8.69148 7.44215 8.74678 7.46753 8.80771C7.49291 8.86864 7.50598 8.93399 7.50598 9C7.50598 9.06601 7.49291 9.13136 7.46753 9.19229C7.44215 9.25322 7.40495 9.30852 7.35808 9.355L7.35807 9.35499L7.35519 9.3579C7.3087 9.40476 7.2534 9.44196 7.19247 9.46734C7.13154 9.49273 7.06619 9.5058 7.00019 9.5058C6.93418 9.5058 6.86883 9.49273 6.8079 9.46734C6.74779 9.4423 6.69315 9.40576 6.64706 9.35978L6.35968 9.06249L5.50019 8.17336V9.41V14.59V15.8266L6.35968 14.9375ZM21.0002 7.5H11.0002C10.8676 7.5 10.7404 7.44732 10.6466 7.35355C10.5529 7.25978 10.5002 7.13261 10.5002 7C10.5002 6.86739 10.5529 6.74022 10.6466 6.64645C10.7404 6.55268 10.8676 6.5 11.0002 6.5H21.0002C21.1328 6.5 21.26 6.55268 21.3537 6.64645C21.4475 6.74021 21.5002 6.86739 21.5002 7C21.5002 7.13261 21.4475 7.25979 21.3537 7.35355C21.26 7.44732 21.1328 7.5 21.0002 7.5ZM11.0002 11.5H21.0002C21.1328 11.5 21.26 11.5527 21.3537 11.6464C21.4475 11.7402 21.5002 11.8674 21.5002 12C21.5002 12.1326 21.4475 12.2598 21.3537 12.3536C21.26 12.4473 21.1328 12.5 21.0002 12.5H11.0002C10.8676 12.5 10.7404 12.4473 10.6466 12.3536C10.5529 12.2598 10.5002 12.1326 10.5002 12C10.5002 11.8674 10.5529 11.7402 10.6466 11.6464C10.7404 11.5527 10.8676 11.5 11.0002 11.5ZM11.0002 16.5H21.0002C21.1328 16.5 21.26 16.5527 21.3537 16.6464C21.4475 16.7402 21.5002 16.8674 21.5002 17C21.5002 17.1326 21.4475 17.2598 21.3537 17.3536C21.26 17.4473 21.1328 17.5 21.0002 17.5H11.0002C10.8676 17.5 10.7404 17.4473 10.6466 17.3536C10.5529 17.2598 10.5002 17.1326 10.5002 17C10.5002 16.8674 10.5529 16.7402 10.6466 16.6464C10.7404 16.5527 10.8676 16.5 11.0002 16.5Z" fill="#111111" stroke="#111111"/>
</svg>
