<svg width="24" height="24" viewBox="0 0 24 24" fill="none" xmlns="http://www.w3.org/2000/svg">
<path d="M8.57706 19.6328L8.57711 19.6329L8.58339 19.6266L12.4634 15.7466C12.5579 15.652 12.6861 15.5989 12.8198 15.5989C12.9535 15.5989 13.0817 15.652 13.1763 15.7466C13.2708 15.8411 13.3239 15.9693 13.3239 16.103C13.3239 16.2367 13.2708 16.3649 13.1763 16.4595L9.29422 20.3316C8.53929 21.0217 7.54752 21.3947 6.52467 21.3731C5.4985 21.3513 4.5204 20.934 3.79462 20.2082C3.06885 19.4825 2.65152 18.5044 2.6298 17.4782C2.60814 16.4553 2.9812 15.4636 3.67131 14.7086L7.54339 10.8266C7.54342 10.8266 7.54344 10.8265 7.54347 10.8265C7.638 10.732 7.76618 10.6789 7.89984 10.6789C8.03353 10.6789 8.16175 10.732 8.25628 10.8266C8.35082 10.9211 8.40393 11.0493 8.40393 11.183C8.40393 11.3167 8.35082 11.4449 8.25628 11.5395L4.37698 15.4188C4.37681 15.4189 4.37664 15.4191 4.37647 15.4193C4.09968 15.6951 3.88004 16.0229 3.73014 16.3837C3.58015 16.7448 3.50294 17.132 3.50294 17.523C3.50294 17.914 3.58015 18.3012 3.73014 18.6623C3.88013 19.0234 4.09995 19.3513 4.37698 19.6273L4.37694 19.6273L4.38261 19.6328C4.94558 20.1761 5.69744 20.4798 6.47984 20.4798C7.26223 20.4798 8.01409 20.1761 8.57706 19.6328ZM15.4226 4.37325L15.4226 4.37319L15.4163 4.37947L11.5363 8.25947C11.4895 8.30628 11.4339 8.34341 11.3727 8.36874C11.3116 8.39408 11.246 8.40712 11.1798 8.40712C11.1136 8.40712 11.0481 8.39408 10.9869 8.36874C10.9258 8.34341 10.8702 8.30628 10.8234 8.25947C10.7766 8.21266 10.7394 8.15709 10.7141 8.09593C10.6888 8.03477 10.6757 7.96922 10.6757 7.90302C10.6757 7.83683 10.6888 7.77128 10.7141 7.71012C10.7394 7.64899 10.7765 7.59345 10.8233 7.54666C10.8233 7.54663 10.8234 7.5466 10.8234 7.54658L14.7123 3.66768C14.7124 3.66755 14.7125 3.66743 14.7127 3.6673C15.4602 2.92464 16.4711 2.50781 17.5248 2.50781C18.5782 2.50781 19.5888 2.92433 20.3362 3.66648C21.0785 4.41392 21.495 5.42459 21.495 6.47802C21.495 7.53193 21.0781 8.54303 20.3352 9.29057L16.4558 13.1799L16.4548 13.1809C16.4084 13.2278 16.3531 13.265 16.2921 13.2904C16.2312 13.3158 16.1658 13.3288 16.0998 13.3288C16.0338 13.3288 15.9685 13.3158 15.9075 13.2904C15.8466 13.265 15.7913 13.2278 15.7448 13.1809L15.7419 13.178C15.6951 13.1315 15.6579 13.0762 15.6325 13.0153C15.6071 12.9544 15.594 12.889 15.594 12.823C15.594 12.757 15.6071 12.6917 15.6325 12.6307C15.6579 12.5698 15.6951 12.5145 15.7419 12.468L15.7434 12.4666L19.6227 8.58727C19.6229 8.58706 19.6231 8.58684 19.6233 8.58662C19.6234 8.58661 19.6234 8.58659 19.6234 8.58658C19.9001 8.31078 20.1197 7.9831 20.2695 7.6223C20.4195 7.2612 20.4967 6.87404 20.4967 6.48302C20.4967 6.09201 20.4195 5.70485 20.2695 5.34374C20.1195 4.98264 19.8997 4.65472 19.6227 4.37877L19.6227 4.37873L19.6171 4.37325C19.0541 3.82992 18.3022 3.52628 17.5198 3.52628C16.7374 3.52628 15.9856 3.82992 15.4226 4.37325ZM9.18194 14.818L9.18194 14.818C9.13507 14.7715 9.09788 14.7162 9.07249 14.6553C9.04711 14.5944 9.03404 14.529 9.03404 14.463C9.03404 14.397 9.04711 14.3317 9.07249 14.2707C9.09788 14.2098 9.13507 14.1545 9.18194 14.108L9.18339 14.1066L14.1034 9.18658C14.1979 9.09204 14.3261 9.03893 14.4598 9.03893C14.5935 9.03893 14.7217 9.09204 14.8163 9.18658C14.9108 9.28111 14.9639 9.40933 14.9639 9.54302C14.9639 9.67672 14.9108 9.80494 14.8163 9.89947L9.89773 14.818C9.89753 14.8182 9.89734 14.8184 9.89714 14.8186C9.85054 14.8647 9.79535 14.9011 9.73468 14.9259C9.67376 14.9508 9.60853 14.9634 9.54273 14.963L9.54273 14.963L9.53695 14.963C9.47114 14.9634 9.40591 14.9508 9.34499 14.9259C9.28407 14.901 9.22866 14.8644 9.18194 14.818ZM8.82984 13.753C8.73611 13.846 8.66171 13.9566 8.61095 14.0784C8.56018 14.2003 8.53404 14.331 8.53404 14.463C8.53404 14.595 8.56018 14.7257 8.61095 14.8476C8.66171 14.9695 8.73611 15.0801 8.82984 15.173C8.92328 15.2657 9.03409 15.339 9.15593 15.3888C9.27777 15.4386 9.40823 15.4638 9.53984 15.463L8.82984 13.753Z" fill="#111111" stroke="#111111"/>
</svg>
