<svg width="24" height="24" viewBox="0 0 24 24" fill="none" xmlns="http://www.w3.org/2000/svg">
<mask id="path-1-inside-1_2239_7726" fill="white">
<path d="M17.5002 9.00184C16.605 9.00146 15.7236 9.2229 14.9348 9.64637C14.8628 9.45679 14.7349 9.2936 14.5679 9.17848C14.401 9.06336 14.203 9.00175 14.0002 9.00184H10.0002C9.86887 9.00176 9.7388 9.02758 9.61744 9.07781C9.49608 9.12803 9.38582 9.20169 9.29294 9.29457C9.20007 9.38744 9.12641 9.49771 9.07618 9.61907C9.02595 9.74043 9.00014 9.8705 9.00022 10.0018V22.0018C9.00014 22.1332 9.02595 22.2633 9.07618 22.3846C9.12641 22.506 9.20006 22.6162 9.29294 22.7091C9.38581 22.802 9.49608 22.8756 9.61744 22.9259C9.7388 22.9761 9.86887 23.0019 10.0002 23.0018H14.0002C14.1316 23.0019 14.2616 22.9761 14.383 22.9259C14.5043 22.8756 14.6146 22.802 14.7075 22.7091C14.8004 22.6162 14.874 22.506 14.9242 22.3846C14.9745 22.2633 15.0003 22.1332 15.0002 22.0018V16.5018C15.0002 16.2366 15.1056 15.9823 15.2931 15.7947C15.4806 15.6072 15.735 15.5018 16.0002 15.5018C16.2654 15.5018 16.5198 15.6072 16.7073 15.7947C16.8949 15.9823 17.0002 16.2366 17.0002 16.5018V22.0018C17.0001 22.1332 17.026 22.2633 17.0762 22.3846C17.1264 22.506 17.2001 22.6162 17.2929 22.7091C17.3858 22.802 17.4961 22.8756 17.6174 22.9259C17.7388 22.9761 17.8689 23.0019 18.0002 23.0018H22.0002C22.1316 23.0019 22.2616 22.9761 22.383 22.9259C22.5044 22.8756 22.6146 22.802 22.7075 22.7091C22.8004 22.6162 22.874 22.506 22.9242 22.3846C22.9745 22.2633 23.0003 22.1332 23.0002 22.0018V14.5018C22.9984 13.0437 22.4184 11.6458 21.3873 10.6148C20.3562 9.5837 18.9583 9.00365 17.5002 9.00184ZM21.0002 21.0018H19.0002V16.5018C19.0002 15.7062 18.6841 14.9431 18.1215 14.3805C17.5589 13.8179 16.7959 13.5018 16.0002 13.5018C15.2046 13.5018 14.4415 13.8179 13.8789 14.3805C13.3163 14.9431 13.0002 15.7062 13.0002 16.5018V21.0018H11.0002V11.0018H13.0002V11.705C13.0003 11.9122 13.0648 12.1142 13.1847 12.2832C13.3045 12.4522 13.4739 12.5798 13.6694 12.6484C13.865 12.717 14.077 12.7232 14.2761 12.6662C14.4753 12.6092 14.6519 12.4917 14.7815 12.33C15.2302 11.76 15.8458 11.3444 16.5422 11.1412C17.2386 10.938 17.9811 10.9574 18.6659 11.1965C19.3508 11.4357 19.9439 11.8828 20.3624 12.4754C20.7809 13.068 21.0039 13.7764 21.0002 14.5018V21.0018ZM7.00022 9.00184H3.00022C2.86887 9.00176 2.7388 9.02758 2.61744 9.07781C2.49608 9.12803 2.38581 9.20169 2.29294 9.29457C2.20007 9.38744 2.12641 9.49771 2.07618 9.61907C2.02595 9.74043 2.00014 9.8705 2.00022 10.0018V22.0018C2.00014 22.1332 2.02595 22.2633 2.07618 22.3846C2.12641 22.506 2.20006 22.6162 2.29294 22.7091C2.38581 22.802 2.49608 22.8756 2.61744 22.9259C2.7388 22.9761 2.86887 23.0019 3.00022 23.0018H7.00022C7.13156 23.0019 7.26163 22.9761 7.38299 22.9259C7.50435 22.8756 7.61462 22.802 7.70749 22.7091C7.80037 22.6162 7.87402 22.506 7.92425 22.3846C7.97448 22.2633 8.00029 22.1332 8.00022 22.0018V10.0018C8.00029 9.8705 7.97448 9.74043 7.92425 9.61907C7.87402 9.49771 7.80036 9.38744 7.70749 9.29457C7.61462 9.20169 7.50435 9.12803 7.38299 9.07781C7.26163 9.02758 7.13156 9.00176 7.00022 9.00184ZM6.00022 21.0018H4.00022V11.0018H6.00022V21.0018ZM5.01486 1.54484C4.57723 1.51864 4.13883 1.58174 3.72634 1.73028C3.31385 1.87883 2.93589 2.10973 2.61543 2.40893C2.29498 2.70814 2.03873 3.06939 1.86227 3.47074C1.68582 3.87208 1.59284 4.30512 1.58899 4.74353C1.58515 5.18194 1.67051 5.61654 1.8399 6.02092C2.00929 6.4253 2.25916 6.791 2.57431 7.09578C2.88947 7.40056 3.26332 7.63805 3.67314 7.79382C4.08296 7.94958 4.52018 8.02035 4.95822 8.00184H4.98654C5.42533 8.0279 5.86484 7.96422 6.27819 7.81469C6.69155 7.66516 7.07007 7.43291 7.39064 7.13215C7.7112 6.83138 7.96707 6.46841 8.14262 6.06542C8.31817 5.66242 8.4097 5.22786 8.41163 4.7883C8.41356 4.34873 8.32584 3.91339 8.15383 3.50887C7.98183 3.10435 7.72915 2.73915 7.41123 2.43558C7.09332 2.13202 6.71685 1.89646 6.30482 1.74331C5.89279 1.59016 5.45386 1.52263 5.01485 1.54484H5.01486ZM4.98655 6.00184H4.95822C4.78528 6.02284 4.60986 6.00662 4.44371 5.95427C4.27755 5.90192 4.12452 5.81464 3.99486 5.6983C3.8652 5.58196 3.76191 5.43924 3.69193 5.27971C3.62194 5.12019 3.58688 4.94754 3.58909 4.77335C3.58909 4.02725 4.14865 3.54483 5.01486 3.54483C5.18956 3.52154 5.36722 3.53596 5.53588 3.58711C5.70454 3.63827 5.86027 3.72497 5.9926 3.84138C6.12493 3.95779 6.23077 4.10121 6.303 4.26197C6.37524 4.42273 6.41218 4.59711 6.41135 4.77335C6.41135 5.51944 5.85178 6.00184 4.98655 6.00184Z"/>
</mask>
<path d="M17.5002 9.00184C16.605 9.00146 15.7236 9.2229 14.9348 9.64637C14.8628 9.45679 14.7349 9.2936 14.5679 9.17848C14.401 9.06336 14.203 9.00175 14.0002 9.00184H10.0002C9.86887 9.00176 9.7388 9.02758 9.61744 9.07781C9.49608 9.12803 9.38582 9.20169 9.29294 9.29457C9.20007 9.38744 9.12641 9.49771 9.07618 9.61907C9.02595 9.74043 9.00014 9.8705 9.00022 10.0018V22.0018C9.00014 22.1332 9.02595 22.2633 9.07618 22.3846C9.12641 22.506 9.20006 22.6162 9.29294 22.7091C9.38581 22.802 9.49608 22.8756 9.61744 22.9259C9.7388 22.9761 9.86887 23.0019 10.0002 23.0018H14.0002C14.1316 23.0019 14.2616 22.9761 14.383 22.9259C14.5043 22.8756 14.6146 22.802 14.7075 22.7091C14.8004 22.6162 14.874 22.506 14.9242 22.3846C14.9745 22.2633 15.0003 22.1332 15.0002 22.0018V16.5018C15.0002 16.2366 15.1056 15.9823 15.2931 15.7947C15.4806 15.6072 15.735 15.5018 16.0002 15.5018C16.2654 15.5018 16.5198 15.6072 16.7073 15.7947C16.8949 15.9823 17.0002 16.2366 17.0002 16.5018V22.0018C17.0001 22.1332 17.026 22.2633 17.0762 22.3846C17.1264 22.506 17.2001 22.6162 17.2929 22.7091C17.3858 22.802 17.4961 22.8756 17.6174 22.9259C17.7388 22.9761 17.8689 23.0019 18.0002 23.0018H22.0002C22.1316 23.0019 22.2616 22.9761 22.383 22.9259C22.5044 22.8756 22.6146 22.802 22.7075 22.7091C22.8004 22.6162 22.874 22.506 22.9242 22.3846C22.9745 22.2633 23.0003 22.1332 23.0002 22.0018V14.5018C22.9984 13.0437 22.4184 11.6458 21.3873 10.6148C20.3562 9.5837 18.9583 9.00365 17.5002 9.00184ZM21.0002 21.0018H19.0002V16.5018C19.0002 15.7062 18.6841 14.9431 18.1215 14.3805C17.5589 13.8179 16.7959 13.5018 16.0002 13.5018C15.2046 13.5018 14.4415 13.8179 13.8789 14.3805C13.3163 14.9431 13.0002 15.7062 13.0002 16.5018V21.0018H11.0002V11.0018H13.0002V11.705C13.0003 11.9122 13.0648 12.1142 13.1847 12.2832C13.3045 12.4522 13.4739 12.5798 13.6694 12.6484C13.865 12.717 14.077 12.7232 14.2761 12.6662C14.4753 12.6092 14.6519 12.4917 14.7815 12.33C15.2302 11.76 15.8458 11.3444 16.5422 11.1412C17.2386 10.938 17.9811 10.9574 18.6659 11.1965C19.3508 11.4357 19.9439 11.8828 20.3624 12.4754C20.7809 13.068 21.0039 13.7764 21.0002 14.5018V21.0018ZM7.00022 9.00184H3.00022C2.86887 9.00176 2.7388 9.02758 2.61744 9.07781C2.49608 9.12803 2.38581 9.20169 2.29294 9.29457C2.20007 9.38744 2.12641 9.49771 2.07618 9.61907C2.02595 9.74043 2.00014 9.8705 2.00022 10.0018V22.0018C2.00014 22.1332 2.02595 22.2633 2.07618 22.3846C2.12641 22.506 2.20006 22.6162 2.29294 22.7091C2.38581 22.802 2.49608 22.8756 2.61744 22.9259C2.7388 22.9761 2.86887 23.0019 3.00022 23.0018H7.00022C7.13156 23.0019 7.26163 22.9761 7.38299 22.9259C7.50435 22.8756 7.61462 22.802 7.70749 22.7091C7.80037 22.6162 7.87402 22.506 7.92425 22.3846C7.97448 22.2633 8.00029 22.1332 8.00022 22.0018V10.0018C8.00029 9.8705 7.97448 9.74043 7.92425 9.61907C7.87402 9.49771 7.80036 9.38744 7.70749 9.29457C7.61462 9.20169 7.50435 9.12803 7.38299 9.07781C7.26163 9.02758 7.13156 9.00176 7.00022 9.00184ZM6.00022 21.0018H4.00022V11.0018H6.00022V21.0018ZM5.01486 1.54484C4.57723 1.51864 4.13883 1.58174 3.72634 1.73028C3.31385 1.87883 2.93589 2.10973 2.61543 2.40893C2.29498 2.70814 2.03873 3.06939 1.86227 3.47074C1.68582 3.87208 1.59284 4.30512 1.58899 4.74353C1.58515 5.18194 1.67051 5.61654 1.8399 6.02092C2.00929 6.4253 2.25916 6.791 2.57431 7.09578C2.88947 7.40056 3.26332 7.63805 3.67314 7.79382C4.08296 7.94958 4.52018 8.02035 4.95822 8.00184H4.98654C5.42533 8.0279 5.86484 7.96422 6.27819 7.81469C6.69155 7.66516 7.07007 7.43291 7.39064 7.13215C7.7112 6.83138 7.96707 6.46841 8.14262 6.06542C8.31817 5.66242 8.4097 5.22786 8.41163 4.7883C8.41356 4.34873 8.32584 3.91339 8.15383 3.50887C7.98183 3.10435 7.72915 2.73915 7.41123 2.43558C7.09332 2.13202 6.71685 1.89646 6.30482 1.74331C5.89279 1.59016 5.45386 1.52263 5.01485 1.54484H5.01486ZM4.98655 6.00184H4.95822C4.78528 6.02284 4.60986 6.00662 4.44371 5.95427C4.27755 5.90192 4.12452 5.81464 3.99486 5.6983C3.8652 5.58196 3.76191 5.43924 3.69193 5.27971C3.62194 5.12019 3.58688 4.94754 3.58909 4.77335C3.58909 4.02725 4.14865 3.54483 5.01486 3.54483C5.18956 3.52154 5.36722 3.53596 5.53588 3.58711C5.70454 3.63827 5.86027 3.72497 5.9926 3.84138C6.12493 3.95779 6.23077 4.10121 6.303 4.26197C6.37524 4.42273 6.41218 4.59711 6.41135 4.77335C6.41135 5.51944 5.85178 6.00184 4.98655 6.00184Z" fill="#111111" stroke="#111111" stroke-width="2" mask="url(#path-1-inside-1_2239_7726)"/>
</svg>
