<svg width="24" height="24" viewBox="0 0 24 24" fill="none" xmlns="http://www.w3.org/2000/svg">
<path d="M20.4701 2.50014V2.50019L20.477 2.50009C20.6018 2.49836 20.7256 2.52122 20.8416 2.56737C20.9575 2.61352 21.0632 2.68205 21.1526 2.76905C21.2421 2.85605 21.3135 2.95982 21.3628 3.07442C21.4117 3.18808 21.438 3.31019 21.4401 3.43388V20.5664C21.438 20.6901 21.4117 20.8122 21.3628 20.9259C21.3135 21.0405 21.2421 21.1442 21.1526 21.2312C21.0632 21.3182 20.9575 21.3868 20.8416 21.4329C20.7256 21.4791 20.6018 21.5019 20.477 21.5002V21.5001H20.4701H3.53006V21.5001L3.52311 21.5002C3.39836 21.5019 3.27448 21.4791 3.15856 21.4329C3.04263 21.3868 2.93694 21.3182 2.8475 21.2312C2.75806 21.1442 2.68664 21.0405 2.63732 20.9259C2.58839 20.8122 2.56215 20.6901 2.56006 20.5664V3.43392C2.56215 3.31021 2.58839 3.18809 2.63732 3.07442C2.68664 2.95982 2.75807 2.85605 2.8475 2.76905C2.93693 2.68205 3.04263 2.61352 3.15855 2.56737C3.27448 2.52122 3.39836 2.49836 3.52312 2.50009L3.52311 2.50014H3.53006H20.4701ZM8.09006 19.2401H8.59006V18.7401V9.74014V9.24014H8.09006H5.09006H4.59006V9.74014V18.7401V19.2401H5.09006H8.09006ZM18.9101 19.2401H19.4101V18.7401V13.5601C19.4101 12.0916 19.0251 10.9412 18.3038 10.1537C17.5799 9.36337 16.5756 9.00212 15.4692 9.00015C14.836 8.97845 14.2088 9.12902 13.6544 9.43588C13.5133 9.51399 13.3782 9.60147 13.2501 9.69753V9.23014H12.7501H9.75006H9.25006V9.73014V9.73503V9.74008V9.74531V9.7507V9.75625V9.76197V9.76786V9.77391V9.78012V9.78649V9.79303V9.79972V9.80658V9.8136V9.82077V9.8281V9.83559V9.84324V9.85104V9.859V9.86711V9.87538V9.8838V9.89237V9.90109V9.90996V9.91899V9.92816V9.93749V9.94696V9.95658V9.96635V9.97626V9.98632V9.99652V10.0069V10.0174V10.028V10.0388V10.0497V10.0607V10.0719V10.0833V10.0947V10.1064V10.1181V10.13V10.142V10.1542V10.1665V10.1789V10.1915V10.2041V10.217V10.2299V10.243V10.2562V10.2696V10.283V10.2966V10.3104V10.3242V10.3382V10.3523V10.3665V10.3809V10.3953V10.4099V10.4246V10.4395V10.4544V10.4695V10.4847V10.5V10.5154V10.531V10.5466V10.5624V10.5783V10.5943V10.6104V10.6266V10.643V10.6594V10.676V10.6927V10.7094V10.7263V10.7433V10.7604V10.7776V10.7949V10.8123V10.8299V10.8475V10.8652V10.883V10.901V10.919V10.9371V10.9553V10.9737V10.9921V11.0106V11.0292V11.0479V11.0667V11.0856V11.1046V11.1237V11.1429V11.1622V11.1815V11.201V11.2205V11.2401V11.2599V11.2797V11.2995V11.3195V11.3396V11.3597V11.38V11.4003V11.4207V11.4411V11.4617V11.4823V11.503V11.5238V11.5447V11.5657V11.5867V11.6078V11.629V11.6502V11.6715V11.693V11.7144V11.736V11.7576V11.7793V11.801V11.8229V11.8447V11.8667V11.8887V11.9108V11.933V11.9552V11.9775V11.9999V12.0223V12.0448V12.0673V12.0899V12.1126V12.1353V12.1581V12.1809V12.2038V12.2267V12.2497V12.2728V12.2959V12.3191V12.3423V12.3656V12.3889V12.4123V12.4357V12.4592V12.4827V12.5063V12.5299V12.5536V12.5773V12.6011V12.6249V12.6487V12.6726V12.6966V12.7206V12.7446V12.7686V12.7927V12.8169V12.8411V12.8653V12.8895V12.9138V12.9381V12.9625V12.9869V13.0113V13.0358V13.0603V13.0848V13.1094V13.134V13.1586V13.1832V13.2079V13.2326V13.2573V13.2821V13.3069V13.3317V13.3565V13.3813V13.4062V13.4311V13.456V13.481V13.5059V13.5309V13.5559V13.5809V13.6059V13.631V13.656V13.6811V13.7062V13.7313V13.7564V13.7816V13.8067V13.8319V13.857V13.8822V13.9074V13.9326V13.9577V13.9829V14.0082V14.0334V14.0586V14.0838V14.109V14.1343V14.1595V14.1847V14.2099V14.2352V14.2604V14.2856V14.3108V14.3361V14.3613V14.3865V14.4117V14.4369V14.4621V14.4873V14.5125V14.5376V14.5628V14.588V14.6131V14.6382V14.6633V14.6884V14.7135V14.7386V14.7637V14.7887V14.8137V14.8388V14.8637V14.8887V14.9137V14.9386V14.9635V14.9884V15.0133V15.0382V15.063V15.0878V15.1126V15.1373V15.162V15.1867V15.2114V15.2361V15.2607V15.2853V15.3098V15.3344V15.3588V15.3833V15.4077V15.4321V15.4565V15.4808V15.5051V15.5294V15.5536V15.5778V15.6019V15.626V15.6501V15.6741V15.6981V15.722V15.7459V15.7697V15.7935V15.8173V15.841V15.8647V15.8883V15.9119V15.9354V15.9589V15.9823V16.0057V16.029V16.0523V16.0755V16.0987V16.1218V16.1449V16.1679V16.1908V16.2137V16.2366V16.2593V16.2821V16.3047V16.3273V16.3499V16.3723V16.3947V16.4171V16.4394V16.4616V16.4838V16.5059V16.5279V16.5499V16.5717V16.5936V16.6153V16.637V16.6586V16.6802V16.7016V16.723V16.7444V16.7656V16.7868V16.8079V16.8289V16.8499V16.8707V16.8915V16.9123V16.9329V16.9534V16.9739V16.9943V17.0146V17.0348V17.055V17.075V17.095V17.1149V17.1347V17.1544V17.1741V17.1936V17.213V17.2324V17.2517V17.2708V17.2899V17.3089V17.3278V17.3466V17.3653V17.3839V17.4025V17.4209V17.4392V17.4574V17.4756V17.4936V17.5115V17.5293V17.5471V17.5647V17.5822V17.5996V17.6169V17.6341V17.6512V17.6682V17.6851V17.7019V17.7185V17.7351V17.7515V17.7679V17.7841V17.8002V17.8162V17.8321V17.8479V17.8635V17.8791V17.8945V17.9098V17.925V17.9401V17.955V17.9698V17.9846V17.9991V18.0136V18.028V18.0422V18.0563V18.0703V18.0841V18.0978V18.1114V18.1249V18.1382V18.1514V18.1645V18.1775V18.1903V18.203V18.2155V18.228V18.2403V18.2524V18.2644V18.2763V18.2881V18.2997V18.3111V18.3225V18.3337V18.3447V18.3556V18.3664V18.3771V18.3875V18.3979V18.4081V18.4181V18.4281V18.4378V18.4474V18.4569V18.4662V18.4754V18.4844V18.4933V18.502V18.5106V18.519V18.5273V18.5354V18.5433V18.5511V18.5588V18.5663V18.5736V18.5808V18.5878V18.5946V18.6013V18.6078V18.6142V18.6204V18.6265V18.6324V18.6381V18.6436V18.649V18.6542V18.6593V18.6642V18.6689V18.6734V18.6778V18.682V18.6861V18.6899V18.6936V18.6971V18.7005V18.7037V18.7066V18.7095V18.7121V18.7146V18.7169V18.719V18.7209V18.7226V18.7242V18.7256V18.7268V18.7278V18.7286V18.7293V18.7298V18.73L9.75006 18.7301H9.25006V19.2301H9.75006H12.7501H13.2501V18.7301V13.7301V13.7179L13.2495 13.7056C13.2404 13.5221 13.2652 13.3386 13.3225 13.1641C13.4027 12.9454 13.5475 12.7561 13.7378 12.6214C13.9292 12.4859 14.1575 12.4122 14.3919 12.4101C14.7978 12.4106 15.0126 12.5477 15.149 12.7428C15.3078 12.9701 15.4101 13.3495 15.4101 13.9101V18.7401V19.2401H15.9101H18.9101ZM5.13342 8.37678C5.51308 8.75644 6.02567 8.9726 6.5618 8.97995C6.84231 9.00789 7.12569 8.97825 7.39451 8.89273C7.67231 8.80435 7.92831 8.65829 8.14575 8.46412C8.36319 8.26995 8.53717 8.03203 8.65628 7.76596C8.7754 7.49989 8.83698 7.21166 8.83698 6.92014C8.83698 6.62862 8.7754 6.34039 8.65628 6.07432C8.53717 5.80824 8.36319 5.57033 8.14575 5.37616C7.92831 5.18199 7.67231 5.03593 7.39451 4.94755C7.12569 4.86203 6.84231 4.83239 6.5618 4.86033C6.02567 4.86768 5.51308 5.08384 5.13342 5.4635C4.74709 5.84983 4.53006 6.37379 4.53006 6.92014C4.53006 7.46649 4.74709 7.99045 5.13342 8.37678Z" fill="#111111" stroke="#111111"/>
</svg>
