<svg width="24" height="24" viewBox="0 0 24 24" fill="none" xmlns="http://www.w3.org/2000/svg">
<path d="M11.5 6V6.5H12H17C17.9283 6.5 18.8185 6.86875 19.4749 7.52513C20.1313 8.1815 20.5 9.07174 20.5 10V16C20.5 16.1326 20.4473 16.2598 20.3536 16.3536C20.2598 16.4473 20.1326 16.5 20 16.5H12H11.5V17V21C11.5 21.1326 11.4473 21.2598 11.3536 21.3536C11.2598 21.4473 11.1326 21.5 11 21.5C10.8674 21.5 10.7402 21.4473 10.6464 21.3536C10.5527 21.2598 10.5 21.1326 10.5 21V17V16.5H10H4C3.86739 16.5 3.74021 16.4473 3.64645 16.3536C3.55268 16.2598 3.5 16.1326 3.5 16V10C3.5 9.07174 3.86875 8.1815 4.52513 7.52513C5.1815 6.86875 6.07174 6.5 7 6.5H10H10.5V6V3C10.5 2.86739 10.5527 2.74021 10.6464 2.64645C10.7402 2.55268 10.8674 2.5 11 2.5H13C13.1326 2.5 13.2598 2.55268 13.3536 2.64645C13.4473 2.74021 13.5 2.86739 13.5 3C13.5 3.13261 13.4473 3.25979 13.3536 3.35355C13.2598 3.44732 13.1326 3.5 13 3.5H12H11.5V4V6ZM13 15.5H13.5V15V10.001C13.5028 9.38657 13.6715 8.78429 13.9884 8.25785L14.4445 7.5H13.56H7C6.33696 7.5 5.70107 7.76339 5.23223 8.23223C4.76339 8.70107 4.5 9.33696 4.5 10V15V15.5H5H13ZM19 15.5H19.5V15V10C19.5 9.33696 19.2366 8.70107 18.7678 8.23223C18.2989 7.76339 17.663 7.5 17 7.5C16.337 7.5 15.7011 7.76339 15.2322 8.23223C14.7634 8.70107 14.5 9.33696 14.5 10V15V15.5H15H19ZM10 11.5H8C7.86739 11.5 7.74022 11.4473 7.64645 11.3536C7.55268 11.2598 7.5 11.1326 7.5 11C7.5 10.8674 7.55268 10.7402 7.64645 10.6464C7.74022 10.5527 7.86739 10.5 8 10.5H10C10.1326 10.5 10.2598 10.5527 10.3536 10.6464C10.4473 10.7402 10.5 10.8674 10.5 11C10.5 11.1326 10.4473 11.2598 10.3536 11.3536C10.2598 11.4473 10.1326 11.5 10 11.5Z" fill="#111111" stroke="#111111"/>
</svg>
