<svg width="24" height="24" viewBox="0 0 24 24" fill="none" xmlns="http://www.w3.org/2000/svg">
<path d="M11.5 11.899V11.4907L11.1 11.4091C10.0074 11.186 9.03646 10.5653 8.37552 9.66705C7.71459 8.76885 7.4107 7.65723 7.52279 6.54771C7.63487 5.43819 8.15494 4.40981 8.98216 3.66194C9.80938 2.91407 10.8848 2.5 12 2.5C13.1152 2.5 14.1906 2.91407 15.0178 3.66194C15.8451 4.40981 16.3651 5.43819 16.4772 6.54771C16.5893 7.65723 16.2854 8.76885 15.6245 9.66705C14.9635 10.5653 13.9926 11.186 12.9 11.4091L12.5 11.4907V11.899V16.999C12.5 17.1316 12.4473 17.2588 12.3536 17.3525C12.2598 17.4463 12.1326 17.499 12 17.499C11.8674 17.499 11.7402 17.4463 11.6464 17.3525C11.5527 17.2588 11.5 17.1316 11.5 16.999V11.899ZM8.10724 15.8897L8.10724 15.8896L8.1045 15.8902C6.93076 16.1436 6.0758 16.4847 5.5011 16.8213C5.21506 16.9887 4.98631 17.1622 4.82185 17.3333C4.73968 17.4188 4.66518 17.5124 4.60874 17.613C4.55491 17.709 4.5 17.8425 4.5 17.999C4.5 18.2382 4.61933 18.434 4.72455 18.5648C4.83829 18.7062 4.99017 18.8395 5.16343 18.9631C5.51178 19.2118 6.00433 19.4625 6.6236 19.6866C7.8665 20.1364 9.67504 20.499 12 20.499C14.325 20.499 16.1335 20.1364 17.3764 19.6866C17.9957 19.4625 18.4882 19.2118 18.8366 18.9631C19.0098 18.8395 19.1617 18.7062 19.2754 18.5648C19.3807 18.434 19.5 18.2382 19.5 17.999C19.5 17.8425 19.4451 17.7089 19.3911 17.6128C19.3345 17.512 19.2598 17.4184 19.1773 17.333C19.0122 17.1621 18.7827 16.9897 18.4958 16.8244C17.9199 16.4928 17.0642 16.1621 15.8905 15.9292C15.8242 15.9149 15.7614 15.888 15.7055 15.8497C15.6489 15.8111 15.6005 15.7616 15.5631 15.7042C15.5256 15.6469 15.4998 15.5827 15.4872 15.5153C15.4745 15.448 15.4752 15.3788 15.4893 15.3117C15.5034 15.2447 15.5306 15.181 15.5692 15.1245C15.6079 15.0679 15.6574 15.0195 15.7147 14.982C15.7721 14.9446 15.8363 14.9188 15.9037 14.9061C15.9705 14.8936 16.0392 14.8942 16.1058 14.908C17.5851 15.2294 18.7062 15.7003 19.4456 16.2532C20.1798 16.8022 20.5 17.3985 20.5 17.999C20.5 18.981 19.6493 19.8626 17.9918 20.5205C16.3763 21.1617 14.1933 21.499 12 21.499C9.80673 21.499 7.62367 21.1617 6.0082 20.5205C4.35071 19.8626 3.5 18.981 3.5 17.999C3.5 17.3985 3.82016 16.8017 4.55598 16.247C5.29615 15.689 6.41764 15.2086 7.89674 14.8675C7.96256 14.8542 8.03034 14.8537 8.09635 14.8661C8.1637 14.8788 8.22789 14.9046 8.28527 14.942C8.34265 14.9795 8.39209 15.0279 8.43076 15.0845C8.46944 15.141 8.49659 15.2047 8.51067 15.2717C8.52476 15.3388 8.52549 15.408 8.51284 15.4753C8.50019 15.5427 8.47439 15.6069 8.43693 15.6642C8.39947 15.7216 8.35107 15.7711 8.2945 15.8097C8.23794 15.8484 8.17431 15.8756 8.10724 15.8897ZM13.9445 4.08884C13.3689 3.70425 12.6922 3.49898 12 3.49898C11.0717 3.49898 10.1815 3.86773 9.52513 4.52411C8.86875 5.18048 8.5 6.07072 8.5 6.99898C8.5 7.69121 8.70527 8.3679 9.08986 8.94348C9.47444 9.51905 10.0211 9.96765 10.6606 10.2326C11.3001 10.4975 12.0039 10.5668 12.6828 10.4317C13.3617 10.2967 13.9854 9.96334 14.4749 9.47385C14.9644 8.98437 15.2977 8.36073 15.4327 7.6818C15.5678 7.00286 15.4985 6.29913 15.2336 5.65959C14.9687 5.02005 14.5201 4.47342 13.9445 4.08884Z" fill="#111111" stroke="#111111"/>
</svg>
