<svg width="24" height="24" viewBox="0 0 24 24" fill="none" xmlns="http://www.w3.org/2000/svg">
<path d="M10.516 5.00236L10.355 5.04C10.2831 5.02966 10.2134 5.00446 10.1507 4.96517C10.0324 4.89113 9.94837 4.77315 9.91709 4.63716C9.88582 4.50118 9.90984 4.35834 9.98388 4.24007C10.0579 4.1218 10.1759 4.03779 10.3119 4.00652L10.3137 4.00609C11.5567 3.71534 12.8532 3.74664 14.0807 4.09703C15.3082 4.44743 16.4259 5.10531 17.3281 6.00841C18.2302 6.9115 18.8869 8.02991 19.2361 9.25774C19.5849 10.4845 19.6151 11.78 19.3238 13.0217C19.2961 13.1317 19.2318 13.2291 19.1415 13.2977C19.0505 13.3669 18.9386 13.4028 18.8244 13.3994L18.785 13.3983L18.7459 13.4033C18.7205 13.4066 18.6948 13.4074 18.6693 13.4058C18.6149 13.3897 18.5636 13.3644 18.5176 13.3311C18.4643 13.2924 18.4191 13.2435 18.3847 13.1873C18.3503 13.131 18.3274 13.0686 18.3173 13.0034C18.3071 12.9383 18.3099 12.8718 18.3256 12.8078L18.3256 12.8078L18.3269 12.8024C18.5768 11.7262 18.5483 10.6042 18.2442 9.54211C17.94 8.48004 17.3701 7.51303 16.5884 6.73239C15.8067 5.95174 14.8389 5.38323 13.7764 5.08052C12.7139 4.77782 11.5918 4.75092 10.516 5.00236ZM3.35482 2.42134L3.35481 2.42134L3.35626 2.42279L17.0863 16.1528L21.0664 20.133L21.0473 20.1617L21.335 20.4515C21.4286 20.5457 21.4808 20.6732 21.4804 20.806C21.4799 20.9388 21.4267 21.0659 21.3325 21.1594C21.2383 21.253 21.1108 21.3053 20.9781 21.3048C20.8453 21.3043 20.7182 21.2511 20.6246 21.1569L20.6234 21.1557L17.0634 17.5957L16.7098 17.2421L16.3563 17.5957L12.3563 21.5957L12.3548 21.5971C12.3083 21.644 12.253 21.6812 12.1921 21.7066C12.1312 21.732 12.0658 21.745 11.9998 21.745C11.9338 21.745 11.8685 21.732 11.8075 21.7066C11.7466 21.6812 11.6913 21.644 11.6448 21.5971L11.6434 21.5957L6.69376 16.6461C6.69369 16.646 6.69362 16.6459 6.69355 16.6459C5.43936 15.3888 4.67187 13.7275 4.52767 11.9577C4.38347 10.1877 4.87198 8.42399 5.90626 6.98045L6.15332 6.63563L5.85337 6.33568L2.64442 3.12674C2.64427 3.12659 2.64413 3.12644 2.64398 3.1263C2.55113 3.03266 2.49902 2.90612 2.49902 2.77424C2.49902 2.64214 2.55129 2.51542 2.64442 2.42174L2.64482 2.42134C2.6913 2.37447 2.7466 2.33728 2.80753 2.31189C2.86846 2.28651 2.93381 2.27344 2.99982 2.27344C3.06582 2.27344 3.13117 2.28651 3.1921 2.31189C3.25303 2.33728 3.30833 2.37447 3.35482 2.42134ZM12.1517 13.8082L13.2624 13.7372L12.4717 12.954L10.3517 10.854L9.56102 10.0708L9.50055 11.1821C9.48136 11.5349 9.53716 11.8877 9.66428 12.2174C9.79141 12.547 9.98696 12.846 10.2381 13.0946L10.2392 13.0957C10.49 13.3423 10.7899 13.5332 11.1194 13.656C11.449 13.7788 11.8007 13.8307 12.1517 13.8082ZM11.6463 20.1628L11.9998 20.5163L12.3534 20.1628L15.6634 16.8528L16.0169 16.4992L15.6634 16.1457L14.0834 14.5657L13.8293 14.3116L13.5075 14.4714C13.0385 14.7042 12.5225 14.8266 11.999 14.8292C11.5392 14.8282 11.0841 14.7366 10.6597 14.5597C10.235 14.3826 9.84939 14.1235 9.52494 13.7973C9.01677 13.2836 8.68006 12.6252 8.56101 11.9125C8.44194 11.1996 8.54647 10.4674 8.86024 9.81631L9.01431 9.49662L8.76337 9.24568L7.29337 7.77568L6.85128 7.3336L6.51719 7.86205C5.72991 9.10734 5.38903 10.5831 5.55043 12.0476C5.71184 13.512 6.36594 14.8781 7.40552 15.9221L7.40626 15.9228L11.6463 20.1628Z" fill="#111111" stroke="#111111"/>
</svg>
