<svg width="24" height="24" viewBox="0 0 24 24" fill="none" xmlns="http://www.w3.org/2000/svg">
<path d="M19.9623 9.67734L19.9625 9.67862C20.0777 10.8544 19.9298 12.0411 19.5295 13.1527C19.1291 14.2642 18.4864 15.2727 17.6479 16.105L17.6455 16.1073L12.3655 21.4173L12.3651 21.4177C12.3186 21.4646 12.2633 21.5018 12.2024 21.5272C12.1414 21.5526 12.0761 21.5656 12.0101 21.5656C11.9441 21.5656 11.8787 21.5526 11.8178 21.5272C11.7569 21.5018 11.7016 21.4646 11.6551 21.4177L11.654 21.4166L6.35397 16.1066L6.35293 16.1056C5.44314 15.1994 4.76485 14.0875 4.37538 12.8639C3.98592 11.6403 3.89671 10.341 4.11531 9.07561C4.33391 7.81027 4.85388 6.61614 5.6313 5.59413C6.40871 4.57211 7.42072 3.75226 8.5818 3.20383C9.74289 2.65541 11.0189 2.39454 12.3021 2.44326C13.5852 2.49199 14.8378 2.84887 15.954 3.48376C17.0701 4.11866 18.0171 5.0129 18.7147 6.09092C19.4124 7.16894 19.8403 8.39907 19.9623 9.67734ZM11.6465 20.0034L12.0001 20.3569L12.3536 20.0034L16.9535 15.4035C16.9535 15.4035 16.9536 15.4034 16.9536 15.4034C17.6867 14.6708 18.2477 13.7845 18.596 12.8084C18.9443 11.8324 19.0712 10.7911 18.9676 9.76001C18.8636 8.72115 18.5307 7.71821 17.993 6.82326C17.4553 5.92831 16.7261 5.16356 15.8577 4.58396L15.8567 4.58335C14.7138 3.82412 13.3722 3.41913 12.0001 3.41913C10.628 3.41913 9.28635 3.82412 8.14341 4.58335L8.14234 4.58406C7.2713 5.16592 6.54043 5.93406 6.00259 6.83295C5.46478 7.73178 5.1334 8.73889 5.03242 9.78145C4.93207 10.8091 5.06062 11.8462 5.40884 12.8182C5.75708 13.7903 6.31638 14.6732 7.04651 15.4034L7.04652 15.4034L11.6465 20.0034ZM12.7236 6.60339L12.7251 6.60193C12.7716 6.55507 12.8269 6.51787 12.8878 6.49249C12.9487 6.4671 13.0141 6.45403 13.0801 6.45403C13.1461 6.45403 13.2114 6.4671 13.2724 6.49249C13.3329 6.5177 13.3879 6.55458 13.4342 6.60101C13.4345 6.60132 13.4348 6.60162 13.4351 6.60193L15.8529 9.06975L15.8529 9.06976L15.8555 9.07233C15.9486 9.16602 16.0009 9.29274 16.0009 9.42483C16.0009 9.55668 15.9488 9.68318 15.856 9.77682C15.8558 9.77699 15.8556 9.77716 15.8555 9.77733L12.278 13.3548C12.2777 13.3551 12.2775 13.3553 12.2773 13.3555C12.2307 13.4015 12.1756 13.438 12.1149 13.4627C12.054 13.4876 11.9888 13.5002 11.923 13.4998V13.4998H11.9201H9.50008C9.36747 13.4998 9.24029 13.4472 9.14652 13.3534C9.05276 13.2596 9.00008 13.1324 9.00008 12.9998V10.5311C9.00085 10.4005 9.05267 10.2754 9.14445 10.1826C9.14466 10.1824 9.14486 10.1821 9.14507 10.1819L12.7236 6.60339ZM11.5101 12.4998H11.7172L11.8636 12.3534L14.4436 9.77339L14.7972 9.41983L14.4436 9.06628L13.4436 8.06628L13.0901 7.71273L12.7365 8.06628L10.1565 10.6463L10.0101 10.7927V10.9998V11.9998V12.4998H10.5101H11.5101Z" fill="#111111" stroke="#111111"/>
</svg>
