<svg width="24" height="24" viewBox="0 0 24 24" fill="none" xmlns="http://www.w3.org/2000/svg">
<path d="M22 20.0003V6.0003C22.0005 5.79066 21.9352 5.58614 21.8132 5.41567C21.6911 5.2452 21.5186 5.11738 21.32 5.0503M22 20.0003L21.5 19.998C21.5 19.9983 21.5 19.9987 21.5 19.999M22 20.0003C21.9993 20.1589 21.9608 20.3151 21.8878 20.456C21.8147 20.5968 21.7092 20.7183 21.58 20.8103C21.4132 20.9364 21.2091 21.0032 21 21.0003C20.8938 21.0147 20.7862 21.0147 20.68 21.0003M22 20.0003H21.5V19.999M21.5 19.999V6.0003V5.99901C21.5003 5.89419 21.4676 5.79193 21.4066 5.70669C21.3457 5.62167 21.2597 5.55787 21.1607 5.52426L21.1619 5.52464L21.32 5.0503M21.5 19.999C21.4995 20.078 21.4803 20.1557 21.4439 20.2258C21.4074 20.2963 21.3546 20.357 21.29 20.403L21.2842 20.4071L21.2785 20.4114C21.2004 20.4704 21.1049 20.5017 21.007 20.5003L20.9697 20.4998L20.9328 20.5048C20.8853 20.5113 20.8373 20.5128 20.7895 20.5093M21.32 5.0503L21.16 5.52401L15.2389 3.5503M21.32 5.0503L15.32 3.0503M15.32 3.0503H15.25C15.2035 3.04562 15.1566 3.04562 15.11 3.0503H14.88H14.75H14.68M15.32 3.0503L15.25 3.2603L15.2198 3.35095L15.1619 3.52464L15.201 3.53768L15.2389 3.5503M15.32 3.0503V3.5503H15.25H15.2389M14.68 3.0503L9 5.0003L3.32 3.0503M14.68 3.0503V3.5503H14.75H14.7634M14.68 3.0503L14.75 3.2542L14.8424 3.52321L14.7634 3.5503M3.32 3.0503C3.16962 3.00071 3.00961 2.98754 2.85314 3.01188C2.69667 3.03622 2.54822 3.09737 2.42 3.1903C2.29076 3.28232 2.18527 3.40376 2.11224 3.54461C2.03921 3.68545 2.00074 3.84165 2 4.0003M3.32 3.0503L3.15765 3.52321L3.16103 3.52437M3.32 3.0503L3.16342 3.52515C3.16263 3.52489 3.16183 3.52462 3.16103 3.52437M2 4.0003V18.0003C1.99946 18.2099 2.06482 18.4145 2.18685 18.5849C2.30887 18.7554 2.48138 18.8832 2.68 18.9503M2 4.0003L2.5 4.00261C2.5 4.00229 2.5 4.00197 2.5 4.00165M2 4.0003H2.5V4.00165M2.68 18.9503L8.68 20.9503M2.68 18.9503L2.84 18.4766L8.83501 20.4749L8.68 20.9503M2.68 18.9503L2.83812 18.476L2.8392 18.4763C2.74023 18.4427 2.65427 18.3789 2.59342 18.2939C2.53241 18.2087 2.49973 18.1064 2.5 18.0016V18.0003V4.00165M8.68 20.9503C8.88145 21.016 9.09856 21.016 9.3 20.9503M8.68 20.9503L8.83812 20.476L8.83629 20.4753C8.93622 20.5076 9.04378 20.5076 9.14371 20.4753L9.14189 20.476L9.3 20.9503M9.3 20.9503L15 19.0503L20.68 21.0003M9.3 20.9503L9.145 20.4749L14.8419 18.576L15.0024 18.5225L15.1624 18.5774L20.7895 20.5093M20.68 21.0003L20.7472 20.5048C20.7613 20.5067 20.7754 20.5082 20.7895 20.5093M20.68 21.0003L20.8424 20.5274L20.7895 20.5093M2.5 4.00165C2.50052 3.92266 2.51975 3.8449 2.55612 3.77476C2.59263 3.70434 2.64538 3.64362 2.71 3.59761L2.71001 3.59763L2.71342 3.59515C2.77753 3.54869 2.85176 3.51811 2.92999 3.50594C3.0074 3.4939 3.08653 3.50022 3.16103 3.52437M3.16103 3.52437L8.83765 5.47321L9 5.52894L9.16236 5.47321L14.7634 3.5503M14.7634 3.5503H14.88H15.11H15.1351L15.16 3.54779C15.1733 3.54646 15.1867 3.54646 15.2 3.54779L15.2249 3.5503H15.2389M7.84225 19.0848L8.5 19.3035V18.6103V6.7203V6.35963L8.15776 6.24584L4.15776 4.91584L3.5 4.69713V5.3903V17.2803V17.641L3.84225 17.7548L7.84225 19.0848ZM14.1578 17.7548L14.5 17.641V17.2803V5.3903V4.69713L13.8422 4.91584L9.84225 6.24584L9.5 6.35963V6.7203V18.6103V19.3035L10.1578 19.0848L14.1578 17.7548ZM19.8422 19.0848L20.5 19.3035V18.6103V6.7203V6.35963L20.1578 6.24584L16.1578 4.91584L15.5 4.69713V5.3903V17.2803V17.641L15.8422 17.7548L19.8422 19.0848Z" fill="#111111" stroke="#111111"/>
</svg>
