<svg width="24" height="24" viewBox="0 0 24 24" fill="none" xmlns="http://www.w3.org/2000/svg">
<path d="M12.2365 6.5645C13.1528 6.0502 14.1849 5.77804 15.2353 5.7735L15.2649 5.77349C16.2159 5.77326 17.1543 5.99091 18.0081 6.40975C18.8619 6.82858 19.6085 7.43747 20.1904 8.18967C20.7723 8.94187 21.1741 9.81739 21.3651 10.749C21.556 11.6807 21.531 12.6437 21.2919 13.5642C21.0528 14.4847 20.606 15.3381 19.9858 16.0591C19.3656 16.78 18.5884 17.3493 17.714 17.7232C16.8395 18.0971 15.8911 18.2657 14.9413 18.216C13.9916 18.1664 13.0659 17.8998 12.2352 17.4368L11.9915 17.3009L11.7478 17.437C10.8 17.9668 9.73018 18.2395 8.64443 18.2282C7.55868 18.2168 6.49476 17.9218 5.55823 17.3724C4.62169 16.8229 3.84509 16.0382 3.30546 15.096C2.76583 14.1537 2.48193 13.0868 2.48193 12.001C2.48193 10.9152 2.76583 9.84824 3.30546 8.90601C3.84509 7.96379 4.62169 7.17903 5.55822 6.62959C6.49476 6.08015 7.55868 5.78513 8.64443 5.77379C9.73018 5.76245 10.8 6.03518 11.7478 6.56494L11.9923 6.70158L12.2365 6.5645ZM10.4056 16.9268L10.7372 16.8082V16.456V16.456V16.2652L10.6101 16.1229C9.59712 14.9889 9.0372 13.5216 9.0372 12.001C9.0372 10.4804 9.59712 9.01311 10.6101 7.87909L11.1047 7.32537L10.4057 7.07523C9.86592 6.8821 9.29782 6.78013 8.72461 6.7735L8.72461 6.77347H8.71883C7.3324 6.77347 6.00276 7.32423 5.0224 8.30458C4.04205 9.28493 3.49129 10.6146 3.49129 12.001C3.49129 13.3874 4.04205 14.7171 5.0224 15.6974C6.00276 16.6778 7.3324 17.2285 8.71883 17.2285V17.2286L8.72461 17.2285C9.29781 17.2219 9.86592 17.1199 10.4056 16.9268ZM11.6467 15.7604L11.9918 16.0896L12.3369 15.7604C12.8455 15.2753 13.2504 14.6919 13.5271 14.0457C13.8037 13.3995 13.9464 12.7039 13.9464 12.001C13.9464 11.2981 13.8037 10.6024 13.5271 9.95624C13.2504 9.31004 12.8455 8.7267 12.3369 8.24153L11.9918 7.91236L11.6467 8.24153C11.138 8.7267 10.7331 9.31004 10.4565 9.95624C10.1798 10.6024 10.0372 11.2981 10.0372 12.001C10.0372 12.7039 10.1798 13.3995 10.4565 14.0457C10.7331 14.6919 11.138 15.2753 11.6467 15.7604ZM13.5779 16.9268C13.9619 17.0642 14.3603 17.1554 14.7647 17.199V17.2285H15.2647C16.6512 17.2285 17.9808 16.6778 18.9612 15.6974C19.9415 14.7171 20.4923 13.3874 20.4923 12.001C20.4923 10.6146 19.9415 9.28493 18.9612 8.30458C17.9808 7.32423 16.6512 6.77347 15.2647 6.77347V6.77343L15.259 6.7735C14.6857 6.78013 14.1176 6.8821 13.5779 7.07523L12.8789 7.32537L13.3735 7.87909C14.3864 9.01311 14.9464 10.4804 14.9464 12.001C14.9464 13.5216 14.3864 14.9889 13.3735 16.1229L12.8788 16.6766L13.5779 16.9268Z" fill="#111111" stroke="#111111"/>
</svg>
