<svg width="24" height="24" viewBox="0 0 24 24" fill="none" xmlns="http://www.w3.org/2000/svg">
<path d="M14.5 6V6.5H15H17C17.663 6.5 18.2989 6.76339 18.7678 7.23223C19.2366 7.70107 19.5 8.33696 19.5 9V13.93V13.9302C19.5002 14.3426 19.3983 14.7487 19.2034 15.1122C19.0086 15.4757 18.7269 15.7853 18.3833 16.0135L18.3821 16.0144L16.7221 17.1244L16.5 17.2729V17.54V18C16.5 18.3978 16.342 18.7794 16.0607 19.0607C15.7794 19.342 15.3978 19.5 15 19.5H14.5V20V21C14.5 21.1326 14.4473 21.2598 14.3536 21.3536C14.2598 21.4473 14.1326 21.5 14 21.5C13.8674 21.5 13.7402 21.4473 13.6464 21.3536C13.5527 21.2598 13.5 21.1326 13.5 21V20V19.5H13C12.6022 19.5 12.2206 19.342 11.9393 19.0607C11.658 18.7794 11.5 18.3978 11.5 18V17.54V17.2729L11.2779 17.1244L9.61793 16.0144L9.61667 16.0135C9.27314 15.7853 8.9914 15.4757 8.79656 15.1122C8.60173 14.7487 8.49985 14.3426 8.5 13.9302V13.93V9C8.5 8.33696 8.76339 7.70107 9.23223 7.23223C9.70107 6.76339 10.337 6.5 11 6.5H13H13.5V6V4V3.5H13H9C8.07174 3.5 7.1815 3.86875 6.52513 4.52513C5.86875 5.1815 5.5 6.07174 5.5 7V21C5.5 21.1326 5.44732 21.2598 5.35355 21.3536C5.25979 21.4473 5.13261 21.5 5 21.5C4.86739 21.5 4.74021 21.4473 4.64645 21.3536C4.55268 21.2598 4.5 21.1326 4.5 21V7C4.5 5.80653 4.97411 4.66193 5.81802 3.81802C6.66193 2.97411 7.80653 2.5 9 2.5H17C17.1326 2.5 17.2598 2.55268 17.3536 2.64645C17.4473 2.74021 17.5 2.86739 17.5 3C17.5 3.13261 17.4473 3.25979 17.3536 3.35355C17.2598 3.44732 17.1326 3.5 17 3.5H15H14.5V4V6ZM18.5 11V10.5H18H16C15.8674 10.5 15.7402 10.4473 15.6464 10.3536C15.5527 10.2598 15.5 10.1326 15.5 10C15.5 9.86739 15.5527 9.74022 15.6464 9.64645C15.7402 9.55268 15.8674 9.5 16 9.5H18H18.5V9C18.5 8.60218 18.342 8.22064 18.0607 7.93934C17.7794 7.65804 17.3978 7.5 17 7.5H11C10.6022 7.5 10.2206 7.65804 9.93934 7.93934C9.65804 8.22064 9.5 8.60218 9.5 9L9.49999 13.93L9.50001 13.9326C9.50129 14.1796 9.56357 14.4226 9.68133 14.6398C9.79869 14.8562 9.96754 15.0405 10.173 15.1762L12.2713 16.5851L12.2713 16.5851L12.275 16.5876C12.3438 16.6329 12.4003 16.6945 12.4396 16.7669C12.4786 16.8389 12.4994 16.9195 12.5 17.0015V18V18.5H13H15H15.5V18V17.0034C15.5014 16.9215 15.5229 16.8411 15.5626 16.7693C15.6027 16.6969 15.6603 16.6356 15.73 16.5909L15.73 16.5909L15.7387 16.5851L17.8387 15.1751L17.8388 15.1751C18.0283 15.0478 18.1862 14.879 18.3006 14.6814C18.415 14.4838 18.4828 14.2628 18.4988 14.0351L18.5364 13.5H18H17C16.8674 13.5 16.7402 13.4473 16.6464 13.3536C16.5527 13.2598 16.5 13.1326 16.5 13C16.5 12.8674 16.5527 12.7402 16.6464 12.6464C16.7402 12.5527 16.8674 12.5 17 12.5H18H18.5V12V11Z" fill="#111111" stroke="#111111"/>
</svg>
