<svg width="24" height="24" viewBox="0 0 24 24" fill="none" xmlns="http://www.w3.org/2000/svg">
<path d="M10 10.5H9C8.8674 10.5 8.74022 10.4473 8.64645 10.3536C8.55268 10.2598 8.5 10.1326 8.5 10C8.5 9.86739 8.55268 9.74022 8.64645 9.64645C8.74022 9.55268 8.8674 9.5 9 9.5H10C10.1326 9.5 10.2598 9.55268 10.3536 9.64645C10.4473 9.74022 10.5 9.86739 10.5 10C10.5 10.1326 10.4473 10.2598 10.3536 10.3536C10.2598 10.4473 10.1326 10.5 10 10.5ZM8.64645 14.6464C8.74022 14.5527 8.8674 14.5 9 14.5H15C15.1326 14.5 15.2598 14.5527 15.3536 14.6464C15.4473 14.7402 15.5 14.8674 15.5 15C15.5 15.1326 15.4473 15.2598 15.3536 15.3536C15.2598 15.4473 15.1326 15.5 15 15.5H9C8.8674 15.5 8.74022 15.4473 8.64645 15.3536C8.55268 15.2598 8.5 15.1326 8.5 15C8.5 14.8674 8.55268 14.7402 8.64645 14.6464ZM14 9.5H15C15.1326 9.5 15.2598 9.55268 15.3536 9.64645C15.4473 9.74022 15.5 9.86739 15.5 10C15.5 10.1326 15.4473 10.2598 15.3536 10.3536C15.2598 10.4473 15.1326 10.5 15 10.5H14C13.8674 10.5 13.7402 10.4473 13.6465 10.3536C13.5527 10.2598 13.5 10.1326 13.5 10C13.5 9.86739 13.5527 9.74022 13.6465 9.64645C13.7402 9.55268 13.8674 9.5 14 9.5ZM6.72209 4.10104C8.28435 3.05717 10.1211 2.5 12 2.5C13.2476 2.5 14.4829 2.74572 15.6355 3.22314C16.7881 3.70056 17.8354 4.40033 18.7175 5.28249C19.5997 6.16464 20.2994 7.21191 20.7769 8.36451C21.2543 9.5171 21.5 10.7524 21.5 12C21.5 13.8789 20.9428 15.7157 19.899 17.2779C18.8551 18.8402 17.3714 20.0578 15.6355 20.7769C13.8996 21.4959 11.9895 21.684 10.1466 21.3175C8.30383 20.9509 6.61109 20.0461 5.28249 18.7175C3.95389 17.3889 3.0491 15.6962 2.68254 13.8534C2.31598 12.0105 2.50412 10.1004 3.22315 8.36451C3.94218 6.62861 5.15982 5.14491 6.72209 4.10104ZM7.27766 19.0675C8.67548 20.0015 10.3189 20.5 12 20.5C14.2543 20.5 16.4164 19.6045 18.0104 18.0104C19.6045 16.4163 20.5 14.2543 20.5 12C20.5 10.3189 20.0015 8.67547 19.0675 7.27765C18.1335 5.87984 16.806 4.79037 15.2528 4.14702C13.6996 3.50368 11.9906 3.33535 10.3417 3.66333C8.6929 3.9913 7.17834 4.80085 5.9896 5.98959C4.80085 7.17834 3.9913 8.69289 3.66333 10.3417C3.33536 11.9906 3.50368 13.6996 4.14703 15.2528C4.79037 16.806 5.87984 18.1335 7.27766 19.0675Z" fill="#111111" stroke="#111111"/>
</svg>
