<svg width="24" height="24" viewBox="0 0 24 24" fill="none" xmlns="http://www.w3.org/2000/svg">
<path d="M20.1162 9.76929L20.2217 9.82208H20.2253C20.5951 10.0297 20.9066 10.3283 21.1298 10.6903C21.3729 11.0847 21.5016 11.5388 21.5016 12.0021C21.5016 12.4653 21.3729 12.9195 21.1298 13.3138C20.8868 13.7081 20.5391 14.0271 20.1254 14.2353C20.1253 14.2353 20.1252 14.2354 20.1251 14.2354L6.1298 21.2331C6.12922 21.2333 6.12865 21.2336 6.12807 21.2339C5.77575 21.4062 5.38948 21.4978 4.99732 21.5021C4.58161 21.5016 4.17257 21.3974 3.80723 21.1989C3.44115 21.0001 3.13057 20.7129 2.9037 20.3635C2.67683 20.0141 2.54088 19.6135 2.5082 19.1982C2.47552 18.783 2.5471 18.3662 2.71642 17.9857C2.71646 17.9856 2.71651 17.9855 2.71655 17.9854L5.11624 12.6161L5.11637 12.6162L5.12084 12.6055C5.20099 12.4144 5.24226 12.2093 5.24226 12.0021C5.24226 11.7949 5.20099 11.5898 5.12084 11.3987L5.12097 11.3986L5.11624 11.3881L2.71697 6.0197C2.71686 6.01944 2.71674 6.01918 2.71663 6.01892C2.50874 5.54884 2.4508 5.02609 2.55072 4.52188C2.65068 4.01739 2.90381 3.55601 3.27558 3.20063C3.64735 2.84526 4.11968 2.6132 4.62817 2.53608C5.13652 2.45898 5.65628 2.5405 6.11662 2.76953C6.11674 2.76959 6.11686 2.76965 6.11697 2.7697L20.1162 9.76929ZM19.6734 13.3393L19.6734 13.3393L19.6777 13.3371C19.9234 13.2112 20.1296 13.02 20.2736 12.7844C20.4176 12.5489 20.4938 12.2782 20.4938 12.0021C20.4938 11.726 20.4176 11.4553 20.2736 11.2197C20.1296 10.9842 19.9234 10.793 19.6777 10.6671L19.6778 10.6671L19.6734 10.6649L5.67337 3.66487L5.67339 3.66481L5.66618 3.66135C5.39043 3.52894 5.08078 3.48401 4.77876 3.53258C4.47675 3.58114 4.1968 3.72089 3.97645 3.93307C3.75611 4.14525 3.6059 4.41973 3.54598 4.7197C3.48605 5.01967 3.51927 5.33079 3.64118 5.61135L3.64116 5.61136L3.64296 5.61539L6.03172 10.9826C6.05448 11.0356 6.07416 11.0899 6.09067 11.1452L6.19726 11.5021H6.56976H13.4598C13.5924 11.5021 13.7195 11.5548 13.8133 11.6485C13.9071 11.7423 13.9598 11.8695 13.9598 12.0021C13.9598 12.1347 13.9071 12.2619 13.8133 12.3556C13.7195 12.4494 13.5924 12.5021 13.4598 12.5021H6.56976H6.19726L6.09067 12.859C6.07416 12.9143 6.05448 12.9685 6.03172 13.0215L3.64296 18.3888L3.64294 18.3888L3.64118 18.3928C3.51927 18.6734 3.48605 18.9845 3.54598 19.2845C3.6059 19.5844 3.75611 19.8589 3.97645 20.0711C4.1968 20.2833 4.47675 20.423 4.77876 20.4716C5.08078 20.5202 5.39042 20.4752 5.66618 20.3428L5.66621 20.3429L5.67337 20.3393L19.6734 13.3393Z" fill="#111111" stroke="#111111"/>
</svg>
