<svg width="24" height="24" viewBox="0 0 24 24" fill="none" xmlns="http://www.w3.org/2000/svg">
<path d="M14.96 4V3.5H14.46C14.3274 3.5 14.2002 3.44732 14.1064 3.35355C14.0127 3.25979 13.96 3.13261 13.96 3C13.96 2.86739 14.0127 2.74021 14.1064 2.64645C14.2002 2.55268 14.3274 2.5 14.46 2.5H15.46C15.5926 2.5 15.7198 2.55268 15.8136 2.64645C15.9073 2.74021 15.96 2.86739 15.96 3V4C15.96 4.13261 15.9073 4.25979 15.8136 4.35355C15.7198 4.44732 15.5926 4.5 15.46 4.5C15.3274 4.5 15.2002 4.44732 15.1064 4.35355C15.0127 4.25978 14.96 4.13261 14.96 4ZM15.96 7.54V8.04H16.46H21C21.1326 8.04 21.2598 8.09268 21.3536 8.18645C21.4473 8.28021 21.5 8.40739 21.5 8.54V21C21.5 21.1326 21.4473 21.2598 21.3536 21.3536C21.2598 21.4473 21.1326 21.5 21 21.5H8.54C8.40739 21.5 8.28021 21.4473 8.18645 21.3536C8.09268 21.2598 8.04 21.1326 8.04 21V16.46V15.96H7.54C7.40739 15.96 7.28021 15.9073 7.18645 15.8136C7.09268 15.7198 7.04 15.5926 7.04 15.46C7.04 15.3274 7.09268 15.2002 7.18645 15.1064C7.28022 15.0127 7.40739 14.96 7.54 14.96H8.04V14.46V8.54C8.04 8.40739 8.09268 8.28022 8.18645 8.18645C8.28022 8.09268 8.40739 8.04 8.54 8.04H14.46H14.96V7.54C14.96 7.40739 15.0127 7.28022 15.1064 7.18645C15.2002 7.09268 15.3274 7.04 15.46 7.04C15.5926 7.04 15.7198 7.09268 15.8136 7.18645C15.9073 7.28021 15.96 7.40739 15.96 7.54ZM20 20.5H20.5V20V9.54V9.04H20H9.54H9.04V9.54V15.47V20V20.5H9.54H20ZM4 3.5H3.5V4C3.5 4.13261 3.44732 4.25978 3.35355 4.35355C3.25979 4.44732 3.13261 4.5 3 4.5C2.86739 4.5 2.74021 4.44732 2.64645 4.35355C2.55268 4.25978 2.5 4.13261 2.5 4V3C2.5 2.86739 2.55268 2.74021 2.64645 2.64645C2.74021 2.55268 2.86739 2.5 3 2.5H4C4.13261 2.5 4.25978 2.55268 4.35355 2.64645C4.44732 2.74021 4.5 2.86739 4.5 3C4.5 3.13261 4.44732 3.25979 4.35355 3.35355C4.25978 3.44732 4.13261 3.5 4 3.5ZM3.5 14.46V14.96H4C4.13261 14.96 4.25978 15.0127 4.35355 15.1064C4.44732 15.2002 4.5 15.3274 4.5 15.46C4.5 15.5926 4.44732 15.7198 4.35355 15.8136C4.25979 15.9073 4.13261 15.96 4 15.96H3C2.86739 15.96 2.74021 15.9073 2.64645 15.8136C2.55268 15.7198 2.5 15.5926 2.5 15.46V14.46C2.5 14.3274 2.55268 14.2002 2.64645 14.1064C2.74021 14.0127 2.86739 13.96 3 13.96C3.13261 13.96 3.25979 14.0127 3.35355 14.1064C3.44732 14.2002 3.5 14.3274 3.5 14.46ZM10.28 3.5H8.18C8.04739 3.5 7.92021 3.44732 7.82645 3.35355C7.73268 3.25979 7.68 3.13261 7.68 3C7.68 2.86739 7.73268 2.74021 7.82645 2.64645C7.92021 2.55268 8.04739 2.5 8.18 2.5H10.28C10.4126 2.5 10.5398 2.55268 10.6336 2.64645C10.7273 2.74021 10.78 2.86739 10.78 3C10.78 3.13261 10.7273 3.25979 10.6336 3.35355C10.5398 3.44732 10.4126 3.5 10.28 3.5ZM3.35355 10.6336C3.25979 10.7273 3.13261 10.78 3 10.78C2.86739 10.78 2.74021 10.7273 2.64645 10.6336C2.55268 10.5398 2.5 10.4126 2.5 10.28V8.18C2.5 8.04739 2.55268 7.92021 2.64645 7.82645C2.74021 7.73268 2.86739 7.68 3 7.68C3.13261 7.68 3.25979 7.73268 3.35355 7.82645C3.44732 7.92021 3.5 8.04739 3.5 8.18V10.28C3.5 10.4126 3.44732 10.5398 3.35355 10.6336Z" fill="#111111" stroke="#111111"/>
</svg>
