<svg width="24" height="24" viewBox="0 0 24 24" fill="none" xmlns="http://www.w3.org/2000/svg">
<path d="M5.5 12V11.5H5H2C1.86739 11.5 1.74021 11.4473 1.64645 11.3536C1.55268 11.2598 1.5 11.1326 1.5 11V3C1.5 2.86739 1.55268 2.74021 1.64645 2.64645C1.74021 2.55268 1.86739 2.5 2 2.5H22C22.1326 2.5 22.2598 2.55268 22.3536 2.64645C22.4473 2.74021 22.5 2.86739 22.5 3V11C22.5 11.1326 22.4473 11.2598 22.3536 11.3536C22.2598 11.4473 22.1326 11.5 22 11.5H19H18.5V12V21C18.5 21.1326 18.4473 21.2598 18.3536 21.3536C18.2598 21.4473 18.1326 21.5 18 21.5H6C5.86739 21.5 5.74021 21.4473 5.64645 21.3536C5.55268 21.2598 5.5 21.1326 5.5 21V12ZM6.5 20V20.5H7H9H9.5V20C9.5 19.337 9.23661 18.7011 8.76777 18.2322C8.29893 17.7634 7.66304 17.5 7 17.5H6.5V18V20ZM17 20.5H17.5V20V18V17.5H17C16.337 17.5 15.7011 17.7634 15.2322 18.2322C14.7634 18.7011 14.5 19.337 14.5 20V20.5H15H17ZM17 16.5H17.5V16V8V7.5H17H7H6.5V8V16V16.5H7C7.92826 16.5 8.8185 16.8687 9.47487 17.5251C10.1313 18.1815 10.5 19.0717 10.5 20V20.5H11H13H13.5V20C13.5 19.0717 13.8687 18.1815 14.5251 17.5251C15.1815 16.8687 16.0717 16.5 17 16.5ZM21 10.5H21.5V10V4V3.5H21H3H2.5V4V10V10.5H3H5H5.5V10V7C5.5 6.86739 5.55268 6.74022 5.64645 6.64645C5.74022 6.55268 5.86739 6.5 6 6.5H18C18.1326 6.5 18.2598 6.55268 18.3536 6.64645C18.4473 6.74021 18.5 6.86739 18.5 7V10V10.5H19H21ZM13.3889 14.0787C12.9778 14.3534 12.4945 14.5 12 14.5C11.337 14.5 10.7011 14.2366 10.2322 13.7678C9.76339 13.2989 9.5 12.663 9.5 12C9.5 11.5055 9.64662 11.0222 9.92133 10.6111C10.196 10.2 10.5865 9.87952 11.0433 9.6903C11.5001 9.50108 12.0028 9.45157 12.4877 9.54804C12.9727 9.6445 13.4181 9.8826 13.7678 10.2322C14.1174 10.5819 14.3555 11.0273 14.452 11.5123C14.5484 11.9972 14.4989 12.4999 14.3097 12.9567C14.1205 13.4135 13.8 13.804 13.3889 14.0787ZM12.8334 10.7528C12.5867 10.588 12.2967 10.5 12 10.5C11.6022 10.5 11.2206 10.658 10.9393 10.9393C10.658 11.2206 10.5 11.6022 10.5 12C10.5 12.2967 10.588 12.5867 10.7528 12.8334C10.9176 13.08 11.1519 13.2723 11.426 13.3858C11.7001 13.4994 12.0017 13.5291 12.2926 13.4712C12.5836 13.4133 12.8509 13.2704 13.0607 13.0607C13.2704 12.8509 13.4133 12.5836 13.4712 12.2926C13.5291 12.0017 13.4994 11.7001 13.3858 11.426C13.2723 11.1519 13.08 10.9176 12.8334 10.7528Z" fill="#111111" stroke="#111111"/>
</svg>
