<svg width="24" height="24" viewBox="0 0 24 24" fill="none" xmlns="http://www.w3.org/2000/svg">
<path d="M15.5 6V6.5H16H19C19.663 6.5 20.2989 6.76339 20.7678 7.23223C21.2366 7.70107 21.5 8.33696 21.5 9V19C21.5 19.663 21.2366 20.2989 20.7678 20.7678C20.2989 21.2366 19.663 21.5 19 21.5H5C4.33696 21.5 3.70107 21.2366 3.23223 20.7678C2.76339 20.2989 2.5 19.663 2.5 19V9C2.5 8.33696 2.76339 7.70107 3.23223 7.23223C3.70107 6.76339 4.33696 6.5 5 6.5H8H8.5V6V5C8.5 4.33696 8.76339 3.70107 9.23223 3.23223C9.70107 2.76339 10.337 2.5 11 2.5H13C13.663 2.5 14.2989 2.76339 14.7678 3.23223C15.2366 3.70107 15.5 4.33696 15.5 5V6ZM14 6.5H14.5V6V5C14.5 4.60217 14.342 4.22064 14.0607 3.93934C13.7794 3.65804 13.3978 3.5 13 3.5H11C10.6022 3.5 10.2206 3.65804 9.93934 3.93934C9.65804 4.22064 9.5 4.60217 9.5 5V6V6.5H10H14ZM6.5 8V7.5H6H5C4.60217 7.5 4.22064 7.65804 3.93934 7.93934C3.65804 8.22064 3.5 8.60218 3.5 9V10V10.5H4C4.66304 10.5 5.29893 10.2366 5.76777 9.76777C6.23661 9.29893 6.5 8.66304 6.5 8ZM4 17.5H3.5V18V19C3.5 19.3978 3.65804 19.7794 3.93934 20.0607C4.22065 20.342 4.60218 20.5 5 20.5H6H6.5V20C6.5 19.337 6.23661 18.7011 5.76777 18.2322C5.29893 17.7634 4.66304 17.5 4 17.5ZM17.5 20V20.5H18H19C19.3978 20.5 19.7794 20.342 20.0607 20.0607C20.342 19.7794 20.5 19.3978 20.5 19V18V17.5H20C19.337 17.5 18.7011 17.7634 18.2322 18.2322C17.7634 18.7011 17.5 19.337 17.5 20ZM20 16.5H20.5V16V12V11.5H20C19.0717 11.5 18.1815 11.1313 17.5251 10.4749C16.8687 9.8185 16.5 8.92826 16.5 8V7.5H16H8H7.5V8C7.5 8.92826 7.13125 9.8185 6.47487 10.4749C5.8185 11.1313 4.92826 11.5 4 11.5H3.5V12V16V16.5H4C4.92826 16.5 5.8185 16.8687 6.47487 17.5251C7.13125 18.1815 7.5 19.0717 7.5 20V20.5H8H16H16.5V20C16.5 19.0717 16.8687 18.1815 17.5251 17.5251C18.1815 16.8687 19.0717 16.5 20 16.5ZM20 10.5H20.5V10V9C20.5 8.60218 20.342 8.22064 20.0607 7.93934C19.7794 7.65804 19.3978 7.5 19 7.5H18H17.5V8C17.5 8.66304 17.7634 9.29893 18.2322 9.76777C18.7011 10.2366 19.337 10.5 20 10.5ZM10.6111 11.9213C11.0222 11.6466 11.5055 11.5 12 11.5C12.663 11.5 13.2989 11.7634 13.7678 12.2322C14.2366 12.7011 14.5 13.337 14.5 14C14.5 14.4945 14.3534 14.9778 14.0787 15.3889C13.804 15.8 13.4135 16.1205 12.9567 16.3097C12.4999 16.4989 11.9972 16.5484 11.5123 16.452C11.0273 16.3555 10.5819 16.1174 10.2322 15.7678C9.8826 15.4181 9.6445 14.9727 9.54804 14.4877C9.45157 14.0028 9.50108 13.5001 9.6903 13.0433C9.87952 12.5865 10.2 12.196 10.6111 11.9213ZM11.1666 15.2472C11.4133 15.412 11.7033 15.5 12 15.5C12.3978 15.5 12.7794 15.342 13.0607 15.0607C13.342 14.7794 13.5 14.3978 13.5 14C13.5 13.7033 13.412 13.4133 13.2472 13.1666C13.0824 12.92 12.8481 12.7277 12.574 12.6142C12.2999 12.5006 11.9983 12.4709 11.7074 12.5288C11.4164 12.5867 11.1491 12.7296 10.9393 12.9393C10.7296 13.1491 10.5867 13.4164 10.5288 13.7074C10.4709 13.9983 10.5006 14.2999 10.6142 14.574C10.7277 14.8481 10.92 15.0824 11.1666 15.2472Z" fill="#111111" stroke="#111111"/>
</svg>
