<svg width="24" height="24" viewBox="0 0 24 24" fill="none" xmlns="http://www.w3.org/2000/svg">
<path d="M11.5062 9.79959L11.5066 9.8L22.3566 20.64L22.3579 20.6413C22.4048 20.6878 22.442 20.7431 22.4673 20.804C22.4927 20.8649 22.5058 20.9303 22.5058 20.9963C22.5058 21.0623 22.4927 21.1276 22.4673 21.1886C22.442 21.2495 22.4048 21.3048 22.3579 21.3513L22.355 21.3542C22.3085 21.401 22.2532 21.4382 22.1923 21.4636C22.1314 21.489 22.066 21.5021 22 21.5021C21.934 21.5021 21.8686 21.489 21.8077 21.4636C21.7468 21.4382 21.6915 21.401 21.645 21.3542L21.6442 21.3534L18.9442 18.6434L18.7976 18.4963H18.59H4C3.33696 18.4963 2.70107 18.2329 2.23223 17.764C1.76339 17.2952 1.5 16.6593 1.5 15.9963V7.99628C1.5 7.33324 1.76339 6.69735 2.23223 6.22851C2.70107 5.75967 3.33696 5.49628 4 5.49628H4.59H5.80373L4.94219 4.64136L3.64297 3.35215C3.5488 3.25767 3.49591 3.1297 3.49591 2.99628C3.49591 2.86259 3.54902 2.73437 3.64355 2.63983C3.69036 2.59302 3.74593 2.55589 3.80709 2.53056C3.86825 2.50523 3.9338 2.49219 4 2.49219C4.0662 2.49219 4.13175 2.50523 4.19291 2.53056C4.25404 2.55588 4.30958 2.59299 4.35638 2.63977C4.3564 2.63979 4.35642 2.63981 4.35645 2.63983L11.5062 9.79959ZM11.4736 11.1827L10.999 10.7082L10.6801 11.2987C10.5655 11.5109 10.5037 11.7476 10.5001 11.9887L10.5 11.9887V11.9963C10.5 12.3941 10.658 12.7756 10.9393 13.0569C11.2206 13.3382 11.6022 13.4963 12 13.4963V13.4963L12.0076 13.4962C12.2487 13.4926 12.4854 13.4308 12.6976 13.3162L13.2881 12.9973L12.8136 12.5227L11.4736 11.1827ZM6.94355 6.64273L6.79711 6.49628H6.59H4C3.60217 6.49628 3.22064 6.65431 2.93934 6.93562C2.65803 7.21692 2.5 7.59845 2.5 7.99628V15.9963C2.5 16.3941 2.65803 16.7756 2.93934 17.0569C3.22065 17.3382 3.60218 17.4963 4 17.4963H16.59H17.7971L16.9436 16.6427L14.2536 13.9527L13.9316 13.6308L13.581 13.9213C13.1359 14.2901 12.5768 14.4933 11.9988 14.4963C11.3362 14.496 10.7008 14.2326 10.2322 13.764C9.76366 13.2955 9.50031 12.6601 9.5 11.9974C9.50301 11.4195 9.70619 10.8604 10.075 10.4153L10.3655 10.0647L10.0436 9.74273L6.94355 6.64273ZM5.72221 11.5805C5.80444 11.5256 5.90111 11.4963 6 11.4963C6.13261 11.4963 6.25978 11.549 6.35355 11.6427C6.44732 11.7365 6.5 11.8637 6.5 11.9963C6.5 12.0952 6.47068 12.1918 6.41574 12.2741C6.36079 12.3563 6.2827 12.4204 6.19134 12.4582C6.09998 12.4961 5.99944 12.506 5.90246 12.4867C5.80546 12.4674 5.71637 12.4198 5.64645 12.3498C5.57652 12.2799 5.5289 12.1908 5.50961 12.0938C5.49031 11.9968 5.50022 11.8963 5.53806 11.8049C5.5759 11.7136 5.63999 11.6355 5.72221 11.5805ZM12.66 5.49628H20C20.663 5.49628 21.2989 5.75967 21.7678 6.22851C22.2366 6.69735 22.5 7.33324 22.5 7.99628V15.3363C22.5 15.4689 22.4473 15.5961 22.3536 15.6898C22.2598 15.7836 22.1326 15.8363 22 15.8363C21.8674 15.8363 21.7402 15.7836 21.6464 15.6898C21.5527 15.5961 21.5 15.4689 21.5 15.3363V7.99628C21.5 7.59846 21.342 7.21692 21.0607 6.93562C20.7794 6.65431 20.3978 6.49628 20 6.49628H12.66C12.5274 6.49628 12.4002 6.4436 12.3064 6.34983C12.2127 6.25606 12.16 6.12889 12.16 5.99628C12.16 5.86367 12.2127 5.73649 12.3064 5.64273C12.4002 5.54896 12.5274 5.49628 12.66 5.49628ZM18.4157 11.7185C18.4707 11.8007 18.5 11.8974 18.5 11.9963C18.5 12.1289 18.4473 12.2561 18.3536 12.3498C18.2598 12.4436 18.1326 12.4963 18 12.4963C17.9011 12.4963 17.8044 12.467 17.7222 12.412C17.64 12.3571 17.5759 12.279 17.5381 12.1876C17.5002 12.0963 17.4903 11.9957 17.5096 11.8987C17.5289 11.8017 17.5765 11.7127 17.6464 11.6427C17.7164 11.5728 17.8055 11.5252 17.9025 11.5059C17.9994 11.4866 18.1 11.4965 18.1913 11.5343C18.2827 11.5722 18.3608 11.6363 18.4157 11.7185Z" fill="#111111" stroke="#111111"/>
</svg>
