<svg width="24" height="24" viewBox="0 0 24 24" fill="none" xmlns="http://www.w3.org/2000/svg">
<path d="M21.329 13.3912L21.3216 13.3851C21.2494 13.3254 21.1619 13.2872 21.0691 13.2748C20.9766 13.2625 20.8825 13.2763 20.7974 13.3147C20.7971 13.3148 20.7969 13.3149 20.7966 13.3151L20.5901 12.8597C19.5327 13.3435 18.383 13.5926 17.2201 13.5897L21.329 13.3912ZM21.329 13.3912L21.3367 13.3971C21.4152 13.457 21.4742 13.5389 21.5062 13.6323C21.5383 13.7257 21.5419 13.8266 21.5167 13.9221L21.5166 13.922L21.5149 13.9293C21.1213 15.5153 20.3311 16.9752 19.2184 18.172C18.1056 19.3687 16.707 20.2629 15.1537 20.7706C13.6005 21.2784 11.9437 21.3829 10.339 21.0745C8.73422 20.766 7.23423 20.0547 5.9799 19.0073C4.72558 17.96 3.75808 16.6109 3.1683 15.087C2.57853 13.563 2.38584 11.9141 2.60833 10.2952C2.83082 8.67633 3.46119 7.14057 4.44022 5.83221C5.41541 4.52898 6.70465 3.49398 8.18765 2.82359L21.329 13.3912ZM7.58014 5.48917L7.58014 5.21966V4.17251L6.7658 4.83083C5.38048 5.95074 4.3752 7.47147 3.88757 9.1848C3.39995 10.8981 3.45383 12.7203 4.04184 14.4018C4.62985 16.0834 5.72325 17.542 7.17231 18.5781C8.48637 19.5177 10.0347 20.0681 11.6401 20.1719V20.229L12.1395 20.2297C13.7072 20.2316 15.2457 19.8055 16.5891 18.9972C17.9324 18.189 19.0295 17.0293 19.7622 15.6433L20.2636 14.6947L19.2147 14.9209C18.5599 15.0621 17.8918 15.1321 17.222 15.1297L17.2206 15.1297C14.6646 15.1271 12.2139 14.1106 10.4066 12.3032C8.59927 10.496 7.58278 8.04553 7.58014 5.48966C7.58014 5.4895 7.58014 5.48933 7.58014 5.48917Z" fill="#111111" stroke="#111111"/>
</svg>
