<svg width="24" height="24" viewBox="0 0 24 24" fill="none" xmlns="http://www.w3.org/2000/svg">
<path d="M10.3798 4.4859L10.3813 4.48553L18.3739 2.48737C18.4472 2.47188 18.5231 2.47305 18.5959 2.49083C18.6666 2.5081 18.7326 2.54058 18.7894 2.58596C18.8394 2.63439 18.8788 2.69277 18.905 2.75737C18.9326 2.82566 18.9448 2.89921 18.9408 2.97277L18.94 2.9866V3.00045V8.00045V8.0385L18.933 8.07972L18.9468 8.16235C18.9482 8.17103 18.9482 8.17988 18.9468 8.18856L18.9467 8.18855L18.9455 8.19653C18.9446 8.20225 18.9428 8.20779 18.94 8.21289L18.9399 8.21283L18.9347 8.22304C18.9249 8.24232 18.9128 8.26039 18.8988 8.27689L18.8832 8.29532L18.8694 8.31518C18.8581 8.33137 18.8458 8.34676 18.8324 8.36124L18.7226 8.43443L18.7059 8.44557L18.6902 8.45801L18.617 8.51581L11.3806 10.2949L11 10.3885V10.7805V18.5005C11 19.0938 10.8241 19.6738 10.4944 20.1672C10.1648 20.6605 9.69623 21.045 9.14805 21.2721C8.59987 21.4992 7.99667 21.5586 7.41473 21.4428C6.83279 21.3271 6.29824 21.0413 5.87868 20.6218C5.45912 20.2022 5.1734 19.6677 5.05765 19.0857C4.94189 18.5038 5.0013 17.9006 5.22836 17.3524C5.45543 16.8042 5.83994 16.3357 6.33329 16.006C6.82633 15.6766 7.40593 15.5007 7.99889 15.5005C8.4432 15.5024 8.88132 15.6047 9.28056 15.7997L10 16.1511V15.3505V5.00045V4.99317L9.99979 4.98589C9.99646 4.87168 10.0324 4.75976 10.1015 4.66879C10.1706 4.57782 10.2689 4.51327 10.3798 4.4859ZM17.6213 7.70553L18 7.61084V7.22045V4.28046V3.64007L17.3787 3.79538L11.3787 5.29538L11 5.39007V5.78046V8.72046V9.36084L11.6213 9.20553L17.6213 7.70553ZM6.88886 20.1634C7.21776 20.3832 7.60444 20.5005 8 20.5005C8.53043 20.5005 9.03914 20.2897 9.41422 19.9147C9.78929 19.5396 10 19.0309 10 18.5005C10 18.1049 9.8827 17.7182 9.66294 17.3893C9.44318 17.0604 9.13082 16.8041 8.76537 16.6527C8.39992 16.5013 7.99778 16.4617 7.60982 16.5389C7.22186 16.6161 6.86549 16.8065 6.58579 17.0862C6.30608 17.3659 6.1156 17.7223 6.03843 18.1103C5.96126 18.4982 6.00087 18.9004 6.15224 19.2658C6.30362 19.6313 6.55996 19.9436 6.88886 20.1634Z" fill="#111111" stroke="#111111"/>
</svg>
