<svg width="24" height="24" viewBox="0 0 24 24" fill="none" xmlns="http://www.w3.org/2000/svg">
<path d="M17 12.5H16.5V13V17C16.5 17.1326 16.4473 17.2598 16.3536 17.3536C16.2598 17.4473 16.1326 17.5 16 17.5C15.8674 17.5 15.7402 17.4473 15.6464 17.3536C15.5527 17.2598 15.5 17.1326 15.5 17V9C15.5 8.33696 15.7634 7.70107 16.2322 7.23223C16.7011 6.76339 17.337 6.5 18 6.5H19C19.663 6.5 20.2989 6.76339 20.7678 7.23223C21.2366 7.70107 21.5 8.33696 21.5 9V17C21.5 17.1326 21.4473 17.2598 21.3536 17.3536C21.2598 17.4473 21.1326 17.5 21 17.5C20.8674 17.5 20.7402 17.4473 20.6464 17.3536C20.5527 17.2598 20.5 17.1326 20.5 17V13V12.5H20H17ZM20 11.5H20.5V11V9C20.5 8.60218 20.342 8.22064 20.0607 7.93934C19.7794 7.65804 19.3978 7.5 19 7.5H18C17.6022 7.5 17.2206 7.65804 16.9393 7.93934C16.658 8.22064 16.5 8.60218 16.5 9V11V11.5H17H20ZM6.55293 12.9839L7.5 12.76V7C7.5 6.86739 7.55268 6.74022 7.64645 6.64645C7.74021 6.55268 7.86739 6.5 8 6.5C8.13261 6.5 8.25979 6.55268 8.35355 6.64645C8.44732 6.74022 8.5 6.86739 8.5 7V17H8.49982L8.50018 17.0134C8.50325 17.1283 8.46664 17.2407 8.39652 17.3318C8.33191 17.4157 8.24247 17.4767 8.14129 17.5065C8.11526 17.5081 8.0891 17.5073 8.06319 17.504L8.03247 17.5001L8.00152 17.5C7.90918 17.4997 7.81873 17.4739 7.74018 17.4253C7.6618 17.3769 7.59833 17.3077 7.55678 17.2255C7.55669 17.2253 7.5566 17.2252 7.55652 17.225L4.44707 11.0161L3.5 11.24V17C3.5 17.1326 3.44732 17.2598 3.35355 17.3536C3.25979 17.4473 3.13261 17.5 3 17.5C2.86739 17.5 2.74021 17.4473 2.64645 17.3536C2.55268 17.2598 2.5 17.1326 2.5 17V7.00173C2.50093 6.89021 2.53913 6.78218 2.60853 6.69485C2.67819 6.60719 2.77525 6.54546 2.88417 6.51952C2.99309 6.49359 3.10756 6.50496 3.20924 6.55182C3.31036 6.59842 3.39301 6.67742 3.44413 6.77629L6.55293 12.9839ZM11.6464 4.64645C11.7402 4.55268 11.8674 4.5 12 4.5C12.1326 4.5 12.2598 4.55268 12.3536 4.64645C12.4473 4.74022 12.5 4.86739 12.5 5V19C12.5 19.1326 12.4473 19.2598 12.3536 19.3536C12.2598 19.4473 12.1326 19.5 12 19.5C11.8674 19.5 11.7402 19.4473 11.6464 19.3536C11.5527 19.2598 11.5 19.1326 11.5 19V5C11.5 4.86739 11.5527 4.74022 11.6464 4.64645Z" fill="#111111" stroke="#111111"/>
</svg>
