<svg width="24" height="24" viewBox="0 0 24 24" fill="none" xmlns="http://www.w3.org/2000/svg">
<path d="M19.2782 20.1339L19.38 20.5H19.76H21C21.1326 20.5 21.2598 20.5527 21.3536 20.6464C21.4473 20.7402 21.5 20.8674 21.5 21C21.5 21.1326 21.4473 21.2598 21.3536 21.3536C21.2598 21.4473 21.1326 21.5 21 21.5H3C2.86739 21.5 2.74021 21.4473 2.64645 21.3536C2.55268 21.2598 2.5 21.1326 2.5 21C2.5 20.8674 2.55268 20.7402 2.64645 20.6464C2.74021 20.5527 2.86739 20.5 3 20.5H4.24H4.62002L4.72175 20.1339L9.11175 4.33385L9.11191 4.33329C9.25612 3.81187 9.56557 3.35131 9.99381 3.02074C10.4212 2.69084 10.9438 2.50817 11.4836 2.5H12.4799C12.4799 2.5 12.48 2.5 12.48 2.5C13.0266 2.5003 13.558 2.67972 13.9929 3.01079C14.4279 3.34191 14.7423 3.80647 14.8881 4.33333L14.8882 4.33385L19.2782 20.1339ZM10.0785 4.59534L10.0783 4.59595L9.1683 7.86595L8.99186 8.5H9.65H14.35H14.9852L14.836 7.88258L14.046 4.61258L14.0439 4.60392L14.0415 4.59534C13.9508 4.27089 13.7535 3.98643 13.4814 3.78779C13.212 3.59115 12.8849 3.48994 12.5517 3.5H11.5683C11.2351 3.48994 10.908 3.59115 10.6386 3.78779C10.3665 3.98643 10.1692 4.27089 10.0785 4.59534ZM9.09 9.5H8.70802L8.60759 9.86854L7.51759 13.8685L7.34552 14.5H8H16H16.6545L16.4824 13.8685L15.3924 9.86854L15.292 9.5H14.91H9.09ZM5.83821 19.8663L5.66236 20.5H6.32H17.68H18.3376L18.1618 19.8663L17.0518 15.8663L16.9501 15.5H16.57H7.43H7.04986L6.94821 15.8663L5.83821 19.8663Z" fill="#111111" stroke="#111111"/>
</svg>
