<svg width="24" height="24" viewBox="0 0 24 24" fill="none" xmlns="http://www.w3.org/2000/svg">
<path d="M10 3.5H9.5V4V8.86V9.92752L10.3201 9.24411L10.68 8.94419C10.68 8.94416 10.6801 8.94414 10.6801 8.94411C10.7699 8.86933 10.8831 8.82837 11 8.82837C11.1169 8.82837 11.2301 8.86933 11.3199 8.94411C11.3199 8.94414 11.32 8.94416 11.32 8.94419L11.6799 9.24411L12.5 9.92752V8.86V4V3.5H12H10ZM8.5 4V3.5H8H5C4.60217 3.5 4.22064 3.65804 3.93934 3.93934C3.65804 4.22064 3.5 4.60217 3.5 5V15C3.5 15.3978 3.65804 15.7794 3.93934 16.0607C4.22064 16.342 4.60217 16.5 5 16.5H15C15.3978 16.5 15.7794 16.342 16.0607 16.0607C16.342 15.7794 16.5 15.3978 16.5 15V5C16.5 4.60217 16.342 4.22064 16.0607 3.93934C15.7794 3.65804 15.3978 3.5 15 3.5H14H13.5V4L13.5 11L13.5 11.0012C13.5002 11.0969 13.473 11.1906 13.4216 11.2712C13.3711 11.3506 13.2991 11.414 13.2141 11.4543C13.1459 11.4837 13.0725 11.4992 12.9982 11.5C12.8797 11.4996 12.7651 11.4571 12.675 11.38L12.675 11.38L12.6709 11.3766L11.3209 10.2466L11 9.97796L10.6791 10.2466L9.32907 11.3766L9.32905 11.3766L9.325 11.38C9.25236 11.4422 9.16344 11.4822 9.06877 11.4953C8.97409 11.5085 8.87764 11.4942 8.79082 11.4542C8.704 11.4142 8.63047 11.3502 8.57893 11.2697C8.52738 11.1892 8.49999 11.0956 8.5 11V11V4ZM20.6464 6.64645C20.7402 6.55268 20.8674 6.5 21 6.5C21.1326 6.5 21.2598 6.55268 21.3536 6.64645C21.4473 6.74021 21.5 6.86739 21.5 7V17C21.5 18.1935 21.0259 19.3381 20.182 20.182C19.3381 21.0259 18.1935 21.5 17 21.5H7C6.86739 21.5 6.74021 21.4473 6.64645 21.3536C6.55268 21.2598 6.5 21.1326 6.5 21C6.5 20.8674 6.55268 20.7402 6.64645 20.6464C6.74021 20.5527 6.86739 20.5 7 20.5H17C17.9283 20.5 18.8185 20.1313 19.4749 19.4749C20.1313 18.8185 20.5 17.9283 20.5 17V7C20.5 6.86739 20.5527 6.74021 20.6464 6.64645ZM17.5 5V15C17.5 15.663 17.2366 16.2989 16.7678 16.7678C16.2989 17.2366 15.663 17.5 15 17.5H5C4.33696 17.5 3.70107 17.2366 3.23223 16.7678C2.76339 16.2989 2.5 15.663 2.5 15V5C2.5 4.33696 2.76339 3.70107 3.23223 3.23223C3.70107 2.76339 4.33696 2.5 5 2.5H15C15.663 2.5 16.2989 2.76339 16.7678 3.23223C17.2366 3.70107 17.5 4.33696 17.5 5Z" fill="#111111" stroke="#111111"/>
</svg>
