<svg width="24" height="24" viewBox="0 0 24 24" fill="none" xmlns="http://www.w3.org/2000/svg">
<path d="M20.5 18.2766V18.5706L20.7569 18.7135C20.9598 18.8263 21.1337 18.9847 21.2649 19.1761C21.3962 19.3676 21.4812 19.5868 21.5134 19.8167C21.5455 20.0466 21.5238 20.2808 21.4501 20.5009C21.3764 20.7209 21.2526 20.9209 21.0885 21.085C20.9243 21.2492 20.7244 21.373 20.5043 21.4467C20.2842 21.5204 20.05 21.5421 19.8201 21.5099C19.5903 21.4778 19.371 21.3928 19.1795 21.2615C18.9881 21.1302 18.8298 20.9564 18.7169 20.7535L18.574 20.4966H18.28H11.72H11.426L11.283 20.7535C11.1702 20.9564 11.0118 21.1302 10.8204 21.2615C10.629 21.3928 10.4097 21.4778 10.1798 21.5099C9.94997 21.5421 9.71577 21.5204 9.49569 21.4467C9.2756 21.373 9.07563 21.2492 8.91151 21.085C8.74738 20.9209 8.62359 20.7209 8.54986 20.5009C8.47613 20.2808 8.45448 20.0466 8.48661 19.8167C8.51875 19.5868 8.60379 19.3676 8.73504 19.1761C8.8663 18.9847 9.04019 18.8263 9.24303 18.7135L9.49998 18.5706V18.2766V14.9966V14.4966H8.99998H5.71998H5.42595L5.28303 14.7535C5.1702 14.9564 5.01185 15.1302 4.82042 15.2615C4.62899 15.3928 4.40971 15.4778 4.17984 15.5099C3.94997 15.5421 3.71577 15.5204 3.49569 15.4467C3.2756 15.373 3.07563 15.2492 2.91151 15.085C2.74738 14.9209 2.62359 14.7209 2.54986 14.5009C2.47613 14.2808 2.45448 14.0466 2.48661 13.8167C2.51875 13.5868 2.60379 13.3676 2.73504 13.1761C2.8663 12.9847 3.04019 12.8263 3.24303 12.7135L3.49998 12.5706V12.2766V5.71656V5.42254L3.24303 5.27961C3.04019 5.16679 2.8663 5.00843 2.73504 4.817C2.60379 4.62557 2.51875 4.40629 2.48661 4.17642C2.45448 3.94655 2.47613 3.71236 2.54986 3.49227C2.62359 3.27219 2.74738 3.07221 2.91151 2.90809C3.07563 2.74397 3.2756 2.62017 3.49569 2.54644C3.71577 2.47271 3.94997 2.45106 4.17984 2.4832C4.40971 2.51533 4.62899 2.60037 4.82042 2.73163C5.01185 2.86288 5.1702 3.03677 5.28303 3.23961L5.42595 3.49656H5.71998H12.28H12.574L12.7169 3.23961C12.8298 3.03677 12.9881 2.86288 13.1795 2.73163C13.371 2.60037 13.5903 2.51533 13.8201 2.4832C14.05 2.45106 14.2842 2.47271 14.5043 2.54644C14.7244 2.62017 14.9243 2.74397 15.0885 2.90809C15.2526 3.07221 15.3764 3.27219 15.4501 3.49227C15.5238 3.71236 15.5455 3.94655 15.5134 4.17642C15.4812 4.40629 15.3962 4.62557 15.2649 4.817C15.1337 5.00843 14.9598 5.16679 14.7569 5.27961L14.5 5.42254V5.71656V8.99656V9.49656H15H18.28H18.574L18.7169 9.23961C18.8298 9.03677 18.9881 8.86288 19.1795 8.73163C19.371 8.60037 19.5903 8.51533 19.8201 8.48319C20.05 8.45106 20.2842 8.47271 20.5043 8.54644C20.7244 8.62017 20.9243 8.74397 21.0885 8.90809C21.2526 9.07221 21.3764 9.27219 21.4501 9.49227C21.5238 9.71236 21.5455 9.94655 21.5134 10.1764C21.4812 10.4063 21.3962 10.6256 21.2649 10.817C21.1337 11.0084 20.9598 11.1668 20.7569 11.2796L20.5 11.4225V11.7166V18.2766ZM9.49998 11.7166V11.4279L9.24997 11.2835C9.02327 11.1527 8.83476 10.9647 8.70319 10.7384C8.57229 10.5133 8.50228 10.258 8.5 9.9976C8.50421 9.67168 8.61447 9.35596 8.81415 9.09825C9.01466 8.83947 9.29433 8.65339 9.61048 8.5684C9.92663 8.48342 10.2619 8.50419 10.5651 8.62756C10.8684 8.75093 11.1229 8.97011 11.29 9.25167L11.4352 9.49656H11.72H13H13.5V8.99656V5.71656V5.42521L13.2465 5.28156C13.0245 5.15575 12.8408 4.97205 12.715 4.75004L12.5713 4.49656H12.28H5.71998H5.42863L5.28498 4.75004C5.15917 4.97205 4.97547 5.15575 4.75346 5.28156L4.49998 5.42521V5.71656V12.2766V12.5679L4.75346 12.7116C4.97547 12.8374 5.15917 13.0211 5.28498 13.2431L5.42863 13.4966H5.71998H8.99998H9.49998V12.9966V11.7166ZM13.5 10.9966V10.4966H13H11.72H11.4286L11.285 10.75C11.1592 10.972 10.9755 11.1557 10.7535 11.2816L10.5 11.4252V11.7166V12.9966V13.4966H11H12.28H12.5713L12.715 13.2431C12.8408 13.0211 13.0245 12.8374 13.2465 12.7116L13.5 12.5679V12.2766V10.9966ZM19.2465 18.7116L19.5 18.5679V18.2766V11.7166V11.4252L19.2465 11.2816C19.0245 11.1558 18.8408 10.972 18.715 10.75L18.5713 10.4966H18.28H15H14.5V10.9966V12.2766V12.5706L14.7569 12.7135C14.9598 12.8263 15.1337 12.9847 15.2649 13.1761C15.3962 13.3676 15.4812 13.5868 15.5134 13.8167C15.5455 14.0466 15.5238 14.2808 15.4501 14.5009C15.3764 14.7209 15.2526 14.9209 15.0885 15.085C14.9243 15.2492 14.7244 15.373 14.5043 15.4467C14.2842 15.5204 14.05 15.5421 13.8201 15.5099C13.5903 15.4778 13.371 15.3928 13.1795 15.2615C12.9881 15.1302 12.8298 14.9564 12.7169 14.7535L12.574 14.4966H12.28H11H10.5V14.9966V18.2766V18.5679L10.7535 18.7116C10.9755 18.8374 11.1592 19.0211 11.285 19.2431L11.4286 19.4966H11.72H18.28H18.5713L18.715 19.2431C18.8408 19.0211 19.0245 18.8374 19.2465 18.7116Z" fill="#111111" stroke="#111111"/>
</svg>
