<svg width="24" height="24" viewBox="0 0 24 24" fill="none" xmlns="http://www.w3.org/2000/svg">
<mask id="path-1-inside-1_2239_8135" fill="white">
<path d="M11.9707 5C8.32711 5 8.32711 10.1221 8.32711 11.8574C8.32711 13.8105 8.32711 19 11.9873 19C15.6416 19 15.6416 13.8379 15.6416 11.8945C15.6416 7.31933 14.4062 5 11.9707 5ZM11.9873 17C10.8857 17 10.3271 15.2695 10.3271 11.8047C10.3271 9.61328 10.6123 7 11.9707 7C13.4248 7 13.6416 10.0664 13.6416 11.8945C13.6416 15.2822 13.085 17 11.9873 17ZM11.9883 1C5.93648 1 1.70996 5.48144 1.70996 11.8984C1.70996 17.3554 5.55664 23 11.9951 23C18.4287 23 22.2734 17.3555 22.2734 11.8984C22.2734 5.48144 18.044 1 11.9882 1H11.9883ZM11.9951 21C6.80857 21 3.70994 16.3721 3.70994 11.8984C3.70994 6.57617 7.03709 3 11.9883 3C16.9443 3 20.2734 6.57617 20.2734 11.8984C20.2734 16.3721 17.1767 21 11.9951 21H11.9951Z"/>
</mask>
<path d="M11.9707 5C8.32711 5 8.32711 10.1221 8.32711 11.8574C8.32711 13.8105 8.32711 19 11.9873 19C15.6416 19 15.6416 13.8379 15.6416 11.8945C15.6416 7.31933 14.4062 5 11.9707 5ZM11.9873 17C10.8857 17 10.3271 15.2695 10.3271 11.8047C10.3271 9.61328 10.6123 7 11.9707 7C13.4248 7 13.6416 10.0664 13.6416 11.8945C13.6416 15.2822 13.085 17 11.9873 17ZM11.9883 1C5.93648 1 1.70996 5.48144 1.70996 11.8984C1.70996 17.3554 5.55664 23 11.9951 23C18.4287 23 22.2734 17.3555 22.2734 11.8984C22.2734 5.48144 18.044 1 11.9882 1H11.9883ZM11.9951 21C6.80857 21 3.70994 16.3721 3.70994 11.8984C3.70994 6.57617 7.03709 3 11.9883 3C16.9443 3 20.2734 6.57617 20.2734 11.8984C20.2734 16.3721 17.1767 21 11.9951 21H11.9951Z" fill="#111111"/>
<path d="M22.2734 11.8984H23.2734V11.8984L22.2734 11.8984ZM20.2734 11.8984L21.2734 11.8984V11.8984H20.2734ZM11.9707 4C10.7962 4 9.86021 4.42419 9.16065 5.11683C8.48705 5.78377 8.08024 6.65048 7.82583 7.48697C7.32089 9.14714 7.32711 11.006 7.32711 11.8574H9.32711C9.32711 10.9735 9.33333 9.40364 9.73928 8.06894C9.94031 7.40799 10.2167 6.88572 10.5678 6.53805C10.893 6.21607 11.3234 6 11.9707 6V4ZM7.32711 11.8574C7.32711 12.8148 7.32083 14.7437 7.82596 16.4457C8.08041 17.303 8.48727 18.1858 9.16254 18.8641C9.86452 19.5693 10.8057 20 11.9873 20V18C11.3388 18 10.9074 17.782 10.5799 17.4531C10.2258 17.0974 9.94637 16.5608 9.7433 15.8766C9.33339 14.4955 9.32711 12.8531 9.32711 11.8574H7.32711ZM11.9873 20C13.1662 20 14.1059 19.5719 14.8073 18.8699C15.4822 18.1944 15.8889 17.3152 16.1432 16.4615C16.6479 14.7671 16.6416 12.847 16.6416 11.8945H14.6416C14.6416 12.8854 14.6352 14.518 14.2264 15.8905C14.0239 16.5703 13.7454 17.1031 13.3925 17.4562C13.0662 17.7828 12.6355 18 11.9873 18V20ZM16.6416 11.8945C16.6416 9.54871 16.3302 7.62896 15.6021 6.26156C15.2304 5.56359 14.738 4.98698 14.105 4.58795C13.4683 4.18652 12.7448 4 11.9707 4V6C12.4143 6 12.7586 6.10339 13.0385 6.27982C13.3221 6.45864 13.5952 6.7478 13.8368 7.20157C14.3352 8.13763 14.6416 9.66515 14.6416 11.8945H16.6416ZM11.9873 16C11.9845 16 11.9953 16.0004 12.0086 16.0063C12.0201 16.0115 12.0114 16.011 11.9853 15.9837C11.9232 15.919 11.8105 15.7525 11.6964 15.3966C11.4675 14.6819 11.3271 13.5088 11.3271 11.8047H9.32711C9.32711 13.5655 9.46604 14.99 9.79178 16.0067C10.1026 16.9771 10.7471 18 11.9873 18V16ZM11.3271 11.8047C11.3271 10.7305 11.3992 9.63276 11.6073 8.8322C11.7125 8.42768 11.832 8.1824 11.9293 8.05752C11.9728 8.00184 11.9961 7.99048 11.9917 7.99293C11.9817 7.99843 11.969 8 11.9707 8V6C11.2548 6 10.7132 6.36469 10.3522 6.82762C10.0141 7.26121 9.80757 7.80621 9.67166 8.32893C9.39764 9.38286 9.32711 10.6875 9.32711 11.8047H11.3271ZM11.9707 8C11.9725 8 11.9674 8.00008 11.9584 7.99755C11.9544 7.99643 11.9508 7.99511 11.9479 7.99387C11.9451 7.99264 11.9437 7.9918 11.9439 7.99187C11.9446 7.99229 11.977 8.01239 12.0303 8.08733C12.1466 8.25076 12.2728 8.54709 12.3784 8.99244C12.5867 9.87081 12.6416 10.9997 12.6416 11.8945H14.6416C14.6416 10.9612 14.5881 9.64285 14.3244 8.53099C14.1941 7.98123 13.9934 7.39669 13.6601 6.92805C13.3087 6.43408 12.7505 6 11.9707 6V8ZM12.6416 11.8945C12.6416 13.5589 12.5018 14.7086 12.2747 15.4094C12.1617 15.7583 12.0503 15.9211 11.9894 15.9842C11.9637 16.0108 11.9552 16.0112 11.9665 16.0061C11.9795 16.0003 11.9901 16 11.9873 16V18C13.2212 18 13.8661 16.9865 14.1774 16.0259C14.503 15.0209 14.6416 13.6178 14.6416 11.8945H12.6416ZM11.9883 0C8.70476 0 5.86608 1.22135 3.85219 3.35674C1.84236 5.48782 0.709961 8.46836 0.709961 11.8984H2.70996C2.70996 8.91152 3.69082 6.44284 5.30719 4.72895C6.91951 3.01937 9.21999 2 11.9883 2V0ZM0.709961 11.8984C0.709961 17.7419 4.852 24 11.9951 24V22C6.26128 22 2.70996 16.969 2.70996 11.8984H0.709961ZM11.9951 24C19.1339 24 23.2734 17.7413 23.2734 11.8984H21.2734C21.2734 16.9696 17.7235 22 11.9951 22V24ZM23.2734 11.8984C23.2734 8.46816 22.1402 5.48754 20.129 3.35649C18.1138 1.22119 15.2735 0 11.9882 0V2C14.7587 2 17.061 3.01953 18.6745 4.7292C20.292 6.44312 21.2734 8.91172 21.2734 11.8984L23.2734 11.8984ZM11.9882 2H11.9883V0H11.9882V2ZM11.9951 20C7.52805 20 4.70994 16.0033 4.70994 11.8984H2.70994C2.70994 16.7408 6.0891 22 11.9951 22V20ZM4.70994 11.8984C4.70994 9.44573 5.47401 7.47872 6.72456 6.13451C7.96923 4.79663 9.7647 4 11.9883 4V2C9.26065 2 6.91696 2.99146 5.26026 4.77223C3.60945 6.54667 2.70994 9.02888 2.70994 11.8984H4.70994ZM11.9883 4C14.2146 4 16.0118 4.79685 17.2575 6.13479C18.509 7.479 19.2734 9.4459 19.2734 11.8984H21.2734C21.2734 9.02871 20.3733 6.54639 18.7213 4.77195C17.0634 2.99124 14.718 2 11.9883 2V4ZM19.2734 11.8984C19.2734 16.0041 16.4566 20 11.9951 20V22C17.8968 22 21.2734 16.74 21.2734 11.8984L19.2734 11.8984ZM11.9951 22H11.9951V20H11.9951V22Z" fill="#111111" mask="url(#path-1-inside-1_2239_8135)"/>
</svg>
