<svg width="24" height="24" viewBox="0 0 24 24" fill="none" xmlns="http://www.w3.org/2000/svg">
<path d="M10.5201 8.99938C10.9635 8.7823 11.3109 8.40891 11.4955 7.95107C11.6801 7.49323 11.6889 6.98329 11.5201 6.51938C11.3613 6.0918 11.231 5.65418 11.1301 5.20938M10.5201 8.99938L21.9101 18.8994C21.9121 19.3238 21.8239 19.7438 21.6516 20.1317C21.4792 20.5196 21.2265 20.8664 20.9101 21.1494C20.3595 21.6399 19.6475 21.9105 18.9101 21.9094H18.5301C14.3388 21.3919 10.4394 19.4928 7.44775 16.512C4.45613 13.5313 2.54284 9.63876 2.0101 5.44938C1.95118 5.02244 1.98494 4.58781 2.10909 4.17509C2.23324 3.76237 2.44485 3.38125 2.72953 3.05766C3.01421 2.73408 3.36527 2.47563 3.75881 2.29991C4.15235 2.12419 4.57913 2.03533 5.0101 2.03938H8.0101C8.7248 2.02899 9.41972 2.27412 9.96972 2.73062M10.5201 8.99938L10.1001 9.27938M10.5201 8.99938L10.1001 9.27938M11.1301 5.20938C11.0801 4.98938 11.0401 4.75938 11.0101 4.52938M11.1301 5.20938L10.6425 5.32003C10.7482 5.78578 10.8846 6.24402 11.0508 6.69176C11.1768 7.03931 11.17 7.42118 11.0318 7.76409C10.8933 8.10747 10.6328 8.38751 10.3002 8.55032L10.2704 8.56493L10.2428 8.58335L9.82275 8.86335L9.43888 9.11927L9.66316 9.52244C10.2272 10.5364 10.9278 11.4682 11.7453 12.2916L11.7478 12.2942C12.5713 13.1117 13.5031 13.8123 14.517 14.3763L14.9777 14.6326L15.2093 14.159L15.4292 13.7093C15.592 13.3767 15.872 13.1162 16.2154 12.9777C16.5579 12.8396 16.9392 12.8327 17.2864 12.9582C17.7341 13.1275 18.1934 13.2642 18.6608 13.3673C18.6897 13.3739 18.7231 13.3821 18.7602 13.3913C18.9249 13.432 19.1616 13.4905 19.3889 13.4985C19.9441 13.6067 20.4466 13.9001 20.8138 14.3313C21.1883 14.7709 21.3989 15.3266 21.4101 15.904M11.1301 5.20938L21.4101 15.904M11.0101 4.52938C10.8887 3.825 10.5197 3.18712 9.96972 2.73062M11.0101 4.52938L10.5143 4.59405C10.5148 4.59764 10.5152 4.60124 10.5157 4.60484M11.0101 4.52938L10.5174 4.61433C10.5168 4.61116 10.5163 4.608 10.5157 4.60484M9.96972 2.73062L9.65039 3.11536C9.19205 2.73494 8.61295 2.53067 8.01737 2.53933L8.0101 2.53943V2.53938H5.0101H5.00541L5.00541 2.53936C4.64627 2.53599 4.29061 2.61004 3.96266 2.75647C3.63471 2.9029 3.34216 3.11827 3.10493 3.38793C2.8677 3.65758 2.69135 3.97519 2.5879 4.31912C2.48444 4.66305 2.45631 5.02524 2.50541 5.38102L2.50613 5.3863L2.50611 5.38631C3.02483 9.46544 4.88777 13.2555 7.80066 16.1578C10.7063 19.0529 14.4916 20.9001 18.5611 21.4094H18.9101H18.9108C19.5252 21.4103 20.1184 21.1849 20.5771 20.7764C20.8406 20.5406 21.0511 20.2517 21.1947 19.9286C21.3383 19.6054 21.4117 19.2554 21.4101 18.9017L21.4101 18.8994L21.4101 15.904M9.96972 2.73062L9.65039 3.11536C10.1063 3.49373 10.4129 4.02162 10.5157 4.60484M21.4101 15.904L10.5157 4.60484M10.1001 9.27938C10.6419 10.2534 11.3149 11.1484 12.1001 11.9394L10.1001 9.27938ZM20.4401 19L20.4401 18.9962L20.4201 15.8826C20.426 15.5365 20.312 15.199 20.0974 14.9273C19.8811 14.6535 19.5761 14.4637 19.235 14.3905L19.2188 14.387L19.2025 14.3846C18.9418 14.3465 18.6844 14.2988 18.4304 14.2417C17.9147 14.1246 17.4064 13.9767 16.9085 13.7986L16.471 13.6421L16.2829 14.0669L15.6651 15.462C15.6373 15.5207 15.5983 15.5734 15.5503 15.6172C15.5014 15.6618 15.4441 15.6963 15.3817 15.7186L15.3708 15.7225L15.3601 15.7269C15.2414 15.7756 15.1086 15.7769 14.9892 15.7305C12.0188 14.3402 9.63108 11.9504 8.24343 8.97844C8.21581 8.91882 8.20021 8.85434 8.19753 8.78869C8.19484 8.7229 8.20518 8.65722 8.22794 8.59543C8.25071 8.53364 8.28545 8.47695 8.33019 8.42863C8.37492 8.3803 8.42876 8.34129 8.48861 8.31383L8.48861 8.31383L8.49066 8.31288L9.89066 7.66288L10.312 7.46725L10.1478 7.03265C9.96566 6.55053 9.81884 6.05579 9.70851 5.55235L9.70852 5.55235L9.70791 5.54962C9.65072 5.29545 9.60302 5.03791 9.56483 4.77698L9.56244 4.76065L9.55898 4.7445C9.48579 4.40336 9.29597 4.0984 9.02219 3.88211C8.75002 3.66709 8.41178 3.55308 8.0651 3.55938L5.0701 3.55938L5.06947 3.55938C4.85649 3.55965 4.64601 3.60527 4.45204 3.69321C4.25806 3.78114 4.08503 3.90938 3.94447 4.06938L3.94439 4.06931L3.93771 4.07724C3.79923 4.24162 3.69552 4.43237 3.63284 4.63796C3.57016 4.84355 3.54981 5.05971 3.57303 5.27339L3.57297 5.27339L3.57386 5.28061C4.04988 9.13817 5.79657 12.7275 8.53843 15.4824C11.2803 18.2373 14.8613 20.001 18.7165 20.4953L18.7201 20.4958C18.9357 20.5218 19.1545 20.5026 19.3623 20.4392C19.5701 20.3759 19.7624 20.2698 19.9269 20.1278L19.9269 20.1279L19.9301 20.125C20.0901 19.9844 20.2183 19.8114 20.3063 19.6174C20.3942 19.4235 20.4398 19.213 20.4401 19ZM21.3983 2.87114L21.3983 2.87115L21.4001 2.87542C21.4254 2.93477 21.439 2.99845 21.4401 3.06294V7.05938C21.4401 7.19199 21.3874 7.31916 21.2937 7.41293C21.1999 7.5067 21.0727 7.55938 20.9401 7.55938C20.8075 7.55938 20.6803 7.5067 20.5865 7.41293C20.4928 7.31917 20.4401 7.19199 20.4401 7.05938V5.47938V4.27486L19.5871 5.12529L16.2876 8.41478C16.2875 8.41489 16.2874 8.415 16.2873 8.41511C16.1936 8.50803 16.067 8.56017 15.9351 8.56017C15.8035 8.56017 15.6772 8.50829 15.5836 8.4158C15.4912 8.32223 15.4393 8.19597 15.4393 8.06438C15.4393 7.93244 15.4915 7.80586 15.5844 7.71221C15.5845 7.7121 15.5846 7.71199 15.5847 7.71188L18.8742 4.4124L19.7246 3.55938H18.5201H16.9401C16.8075 3.55938 16.6803 3.5067 16.5865 3.41293C16.4928 3.31916 16.4401 3.19199 16.4401 3.05938C16.4401 2.92677 16.4928 2.79959 16.5865 2.70583C16.6803 2.61206 16.8075 2.55938 16.9401 2.55938H20.9366C21.001 2.56048 21.0647 2.57405 21.1241 2.59934L21.124 2.59936L21.1283 2.60114C21.2505 2.65188 21.3476 2.74897 21.3983 2.87114Z" fill="#111111" stroke="#111111"/>
</svg>
