<svg width="24" height="24" viewBox="0 0 24 24" fill="none" xmlns="http://www.w3.org/2000/svg">
<path d="M10 3.5H9.5V4V7.13V8.0822L10.2839 7.54161L11.7287 6.54516C11.8095 6.49296 11.9037 6.46516 12 6.46516C12.0963 6.46516 12.1905 6.49296 12.2713 6.54516L13.7161 7.54161L14.5 8.0822V7.13V4V3.5H14H10ZM8.5 4V3.5H8H5C4.60217 3.5 4.22064 3.65804 3.93934 3.93934C3.65804 4.22064 3.5 4.60217 3.5 5V19C3.5 19.3978 3.65804 19.7794 3.93934 20.0607C4.22065 20.342 4.60218 20.5 5 20.5H19C19.3978 20.5 19.7794 20.342 20.0607 20.0607C20.342 19.7794 20.5 19.3978 20.5 19V5C20.5 4.60218 20.342 4.22065 20.0607 3.93934C19.7794 3.65804 19.3978 3.5 19 3.5H16H15.5V4V8.99849C15.4993 9.08816 15.4746 9.17602 15.4283 9.25284C15.3819 9.32997 15.3154 9.39312 15.236 9.43563C15.1567 9.47813 15.0673 9.49841 14.9773 9.49433C14.8877 9.49026 14.8008 9.46214 14.7258 9.41294C14.7255 9.41277 14.7253 9.4126 14.725 9.41242L12.277 7.78371L12.0011 7.6002L11.7246 7.78268L9.25682 9.41122C9.18339 9.45834 9.0989 9.48543 9.01174 9.48979C8.9252 9.49412 8.83904 9.47588 8.76171 9.4369C8.68332 9.3944 8.6177 9.33171 8.57168 9.25529C8.52511 9.17798 8.50035 9.0895 8.5 8.99925V4ZM5 2.5H19C19.663 2.5 20.2989 2.76339 20.7678 3.23223C21.2366 3.70107 21.5 4.33696 21.5 5V19C21.5 19.663 21.2366 20.2989 20.7678 20.7678C20.2989 21.2366 19.663 21.5 19 21.5H5C4.33696 21.5 3.70107 21.2366 3.23223 20.7678C2.76339 20.2989 2.5 19.663 2.5 19V5C2.5 4.33696 2.76339 3.70107 3.23223 3.23223C3.70107 2.76339 4.33696 2.5 5 2.5Z" fill="#111111" stroke="#111111"/>
</svg>
