<svg width="24" height="24" viewBox="0 0 24 24" fill="none" xmlns="http://www.w3.org/2000/svg">
<path d="M11.9942 13.5L11.9942 13.5001L12.0058 13.5C12.2081 13.4976 12.4063 13.5573 12.5736 13.6709C12.741 13.7846 12.8695 13.9468 12.9419 14.1357C13.0143 14.3246 13.027 14.5312 12.9785 14.7275C12.9299 14.9239 12.8224 15.1007 12.6703 15.2341L12.5 15.3835V15.61V17C12.5 17.1326 12.4473 17.2598 12.3536 17.3536C12.2598 17.4473 12.1326 17.5 12 17.5C11.8674 17.5 11.7402 17.4473 11.6464 17.3536C11.5527 17.2598 11.5 17.1326 11.5 17V15.61V15.3835L11.3297 15.2341C11.1776 15.1007 11.0701 14.9239 11.0215 14.7275C10.973 14.5312 10.9857 14.3246 11.0581 14.1357C11.1305 13.9468 11.259 13.7846 11.4264 13.6709C11.5937 13.5573 11.7919 13.4976 11.9942 13.5ZM16.5 9V9.5H17C17.663 9.5 18.2989 9.76339 18.7678 10.2322C19.2366 10.7011 19.5 11.337 19.5 12V19C19.5 19.663 19.2366 20.2989 18.7678 20.7678C18.2989 21.2366 17.663 21.5 17 21.5H7C6.33696 21.5 5.70107 21.2366 5.23223 20.7678C4.76339 20.2989 4.5 19.663 4.5 19V12C4.5 11.337 4.76339 10.7011 5.23223 10.2322C5.70107 9.76339 6.33696 9.5 7 9.5H7.5V9V7C7.5 5.80653 7.97411 4.66193 8.81802 3.81802C9.66193 2.97411 10.8065 2.5 12 2.5C13.1935 2.5 14.3381 2.97411 15.182 3.81802C16.0259 4.66193 16.5 5.80653 16.5 7V9ZM15 9.5H15.5V9V7C15.5 6.07174 15.1313 5.1815 14.4749 4.52513C13.8185 3.86875 12.9283 3.5 12 3.5C11.0717 3.5 10.1815 3.86875 9.52513 4.52513C8.86875 5.1815 8.5 6.07174 8.5 7V9V9.5H9H15ZM18.0607 20.0607C18.342 19.7794 18.5 19.3978 18.5 19V12C18.5 11.6022 18.342 11.2206 18.0607 10.9393C17.7794 10.658 17.3978 10.5 17 10.5H7C6.60217 10.5 6.22064 10.658 5.93934 10.9393C5.65804 11.2206 5.5 11.6022 5.5 12V19C5.5 19.3978 5.65804 19.7794 5.93934 20.0607C6.22065 20.342 6.60218 20.5 7 20.5H17C17.3978 20.5 17.7794 20.342 18.0607 20.0607Z" fill="#111111" stroke="#111111"/>
</svg>
