<svg width="24" height="24" viewBox="0 0 24 24" fill="none" xmlns="http://www.w3.org/2000/svg">
<path d="M13.5 10V10.5H14H18C18.1326 10.5 18.2598 10.5527 18.3536 10.6464C18.4473 10.7402 18.5 10.8674 18.5 11V21C18.5 21.1326 18.4473 21.2598 18.3536 21.3536C18.2598 21.4473 18.1326 21.5 18 21.5H3C2.86739 21.5 2.74021 21.4473 2.64645 21.3536C2.55268 21.2598 2.5 21.1326 2.5 21V9C2.5 8.86739 2.55268 8.74021 2.64645 8.64645C2.74021 8.55268 2.86739 8.5 3 8.5H7H7.5V8V3C7.5 2.86739 7.55268 2.74021 7.64645 2.64645C7.74021 2.55268 7.86739 2.5 8 2.5H13C13.1326 2.5 13.2598 2.55268 13.3536 2.64645C13.4473 2.74021 13.5 2.86739 13.5 3V10ZM7 20.5H7.5V20V10V9.5H7H4H3.5V10V20V20.5H4H7ZM12 20.5H12.5V20V4V3.5H12H9H8.5V4V20V20.5H9H12ZM17 20.5H17.5V20V12V11.5H17H14H13.5V12V20V20.5H14H17ZM19.5 4V4.5H20H21C21.1326 4.5 21.2598 4.55268 21.3536 4.64645C21.4473 4.74021 21.5 4.86739 21.5 5C21.5 5.13261 21.4473 5.25979 21.3536 5.35355C21.2598 5.44732 21.1326 5.5 21 5.5H20H19.5V6V7C19.5 7.13261 19.4473 7.25979 19.3536 7.35355C19.2598 7.44732 19.1326 7.5 19 7.5C18.8674 7.5 18.7402 7.44732 18.6464 7.35355C18.5527 7.25979 18.5 7.13261 18.5 7V6V5.5H18H17C16.8674 5.5 16.7402 5.44732 16.6464 5.35355C16.5527 5.25979 16.5 5.13261 16.5 5C16.5 4.86739 16.5527 4.74021 16.6464 4.64645C16.7402 4.55268 16.8674 4.5 17 4.5H18H18.5V4V3C18.5 2.86739 18.5527 2.74021 18.6464 2.64645C18.7402 2.55268 18.8674 2.5 19 2.5C19.1326 2.5 19.2598 2.55268 19.3536 2.64645C19.4473 2.74021 19.5 2.86739 19.5 3V4Z" fill="#111111" stroke="#111111"/>
</svg>
