<svg width="24" height="24" viewBox="0 0 24 24" fill="none" xmlns="http://www.w3.org/2000/svg">
<path d="M2.53998 5.79737L3.03232 5.88459C3.04943 5.78799 3.09458 5.69856 3.16215 5.62743C3.21883 5.56777 3.28919 5.5232 3.36682 5.49737H3.40998H3.46804L3.52455 5.48407C9.09867 4.17198 14.9013 4.17198 20.4754 5.48407L20.5319 5.49737H20.59H20.6316C20.7108 5.52436 20.7822 5.57089 20.8391 5.63298C20.9068 5.70699 20.9508 5.79968 20.9651 5.899L20.9663 5.90674L20.9676 5.91443C21.6809 9.94838 21.6809 14.0762 20.9676 18.1102C20.9505 18.2068 20.9054 18.2962 20.8378 18.3673C20.7811 18.427 20.7108 18.4715 20.6332 18.4974H20.59H20.532L20.4755 18.5107C17.6982 19.1641 14.8548 19.4952 12.0016 19.4974C9.14623 19.4758 6.30285 19.1249 3.5279 18.4515L3.46978 18.4374H3.40998H3.36682C3.28919 18.4115 3.21883 18.367 3.16215 18.3073C3.09458 18.2362 3.04943 18.1468 3.03232 18.0502L2.53998 18.1374M2.53998 5.79737L3.03238 5.88422C2.32254 9.90859 2.32254 14.0261 3.03238 18.0505L2.53998 18.1374M2.53998 5.79737C2.57421 5.60417 2.66452 5.42531 2.79965 5.28306C2.93479 5.14081 3.10879 5.04145 3.29998 4.99737M2.53998 5.79737C1.82001 9.8792 1.82001 14.0555 2.53998 18.1374M2.53998 18.1374L3.29998 4.99737M3.29998 4.99737H3.40998C9.05945 3.66754 14.9405 3.66754 20.59 4.99737H20.7C20.8953 5.04347 21.0723 5.14729 21.2078 5.29531C21.3434 5.44334 21.4312 5.62873 21.46 5.82737L3.29998 4.99737ZM19.7073 17.6557L20.0407 17.5825L20.0939 17.2452C20.642 13.7681 20.642 10.2266 20.0939 6.74951L20.0407 6.41227L19.7073 6.33902C14.6296 5.22353 9.37035 5.22353 4.2927 6.33902L3.95925 6.41227L3.90608 6.74951C3.35793 10.2266 3.35793 13.7681 3.90608 17.2452L3.95925 17.5825L4.2927 17.6557C9.37035 18.7712 14.6296 18.7712 19.7073 17.6557Z" fill="#111111" stroke="#111111"/>
</svg>
