<svg width="24" height="24" viewBox="0 0 24 24" fill="none" xmlns="http://www.w3.org/2000/svg">
<path d="M18.461 3.20053L18.4546 3.21352L18.449 3.22687C17.2843 6.00267 16.7125 8.99114 16.77 12.0008C16.7182 14.9966 17.2899 17.9706 18.449 20.7337L18.4546 20.7471L18.461 20.7601C18.4997 20.8392 18.5168 20.927 18.5106 21.0148C18.5045 21.1026 18.4753 21.1872 18.426 21.2601L18.4258 21.26L18.4192 21.2703C18.3741 21.3407 18.3119 21.3987 18.2386 21.4389C18.1652 21.479 18.0829 21.5002 17.9992 21.5003H6.00008V21.5002L5.9875 21.5005C5.90565 21.5025 5.82454 21.4845 5.75131 21.4478C5.67982 21.4121 5.61798 21.3598 5.57092 21.2952C5.52357 21.2235 5.49551 21.1407 5.4895 21.0548C5.48336 20.967 5.50049 20.8792 5.53918 20.8001L5.54554 20.7871L5.55114 20.7738C6.7158 17.998 7.28768 15.0095 7.23016 11.9999C7.28198 9.00399 6.71022 6.03004 5.55115 3.26691L5.54555 3.25354L5.53918 3.24053C5.50049 3.16148 5.48336 3.07362 5.4895 2.98583C5.49565 2.89803 5.52486 2.81342 5.57418 2.74053L5.5743 2.74061L5.58091 2.73032C5.62608 2.6599 5.68821 2.60195 5.76158 2.56177C5.83487 2.52164 5.91703 2.50051 6.00058 2.50032H18.0001V2.50047L18.0127 2.50016C18.0945 2.4981 18.1756 2.51617 18.2488 2.55279C18.3203 2.58853 18.3822 2.64087 18.4292 2.70539C18.4766 2.77717 18.5046 2.85998 18.5106 2.94583C18.5168 3.03362 18.4997 3.12148 18.461 3.20053ZM16.5201 20.5003H17.2156L16.994 19.841C16.1453 17.3153 15.7182 14.667 15.7301 12.0025H15.7301L15.7301 11.9957C15.7056 9.33339 16.1194 6.68518 16.9548 4.15721L17.1719 3.50032H16.4801H7.48008H6.78458L7.00612 4.15958C7.85487 6.68532 8.2819 9.33359 8.27008 11.9981H8.27003L8.2701 12.0049C8.29455 14.6672 7.88077 17.3155 7.04533 19.8434L6.82824 20.5003H7.52008H16.5201Z" fill="#111111" stroke="#111111"/>
</svg>
