<svg width="24" height="24" viewBox="0 0 24 24" fill="none" xmlns="http://www.w3.org/2000/svg">
<path d="M16.7635 12.6232C16.5666 12.7647 16.3622 12.8954 16.1512 13.0149C15.9927 13.1052 15.8326 13.1931 15.6646 13.2722C15.4418 13.3769 15.2063 13.466 14.967 13.5509C14.9302 13.564 14.8936 13.5772 14.8569 13.5905C14.7132 13.6424 14.5696 13.6943 14.4179 13.7365L16.7635 12.6232ZM16.7635 12.6232L16.4719 12.2171C16.4718 12.2172 16.4717 12.2172 16.4716 12.2173C16.4715 12.2174 16.4713 12.2175 16.4711 12.2177L16.7635 12.6232ZM9.1953 17.9661L9.80644 14.1133H11.5257C11.6142 14.1133 11.6969 14.1058 11.7796 14.0983C11.8434 14.0925 11.9073 14.0867 11.9739 14.0843L9.1953 17.9661ZM9.1953 17.9661L8.79599 20.4997M9.1953 17.9661L8.79599 20.4997M8.79599 20.4997L8.71534 20.5L8.71715 21L9.21105 21.0778L9.22361 20.9982L11.1449 20.9912L8.79599 20.4997ZM19.3681 6.51739L19.331 6.80756L19.5658 6.98202C19.7422 7.11308 19.9052 7.2613 20.0522 7.4245C20.4941 7.99949 20.7953 8.66992 20.9318 9.38225C21.0694 10.1003 21.0357 10.8407 20.8334 11.5433L20.8273 11.5644L20.8231 11.586C20.4737 13.3795 19.7107 14.704 18.5978 15.5844C17.4823 16.4669 15.9634 16.9443 14.0287 16.9443H13.7299H13.3185L13.2392 17.348L13.2285 17.4027L13.2267 17.4116L13.2253 17.4205L12.5854 21.4475C12.5853 21.4482 12.5852 21.4489 12.5851 21.4495C12.535 21.7447 12.3817 22.0124 12.1524 22.2049C11.9226 22.3978 11.6315 22.5024 11.3315 22.5V22.5H11.3275H8.09331C8.09325 22.5 8.09318 22.5 8.09312 22.5C7.95346 22.4999 7.81547 22.4696 7.68866 22.4111C7.56178 22.3525 7.4491 22.2672 7.35838 22.1609C7.26765 22.0547 7.20104 21.93 7.16313 21.7955C7.12521 21.661 7.11689 21.5199 7.13875 21.3819L7.13882 21.3815L7.22082 20.861L7.31184 20.2832H6.72691L4.06282 20.2832L4.06175 20.2832C3.91151 20.2835 3.76302 20.2511 3.62661 20.1881C3.4902 20.1252 3.36917 20.0332 3.27194 19.9187C3.17471 19.8042 3.10362 19.6698 3.06363 19.525C3.02365 19.3802 3.01573 19.2284 3.04044 19.0802L3.0411 19.076L5.63072 2.67121C5.63075 2.671 5.63079 2.67078 5.63082 2.67057C5.68339 2.34471 5.85003 2.04811 6.101 1.8337C6.35198 1.61929 6.67098 1.50103 7.00106 1.5H13.2142C15.7121 1.5 17.386 2.10608 18.3324 3.17267L18.3329 3.17325C18.7344 3.62432 19.0346 4.15621 19.2131 4.73308C19.3917 5.30994 19.4445 5.91838 19.3681 6.51739ZM8.33606 13.7819L8.33637 13.7799C8.38647 13.4533 8.55214 13.1554 8.80326 12.9406C9.05438 12.7258 9.37426 12.6083 9.70472 12.6094H9.7064H11.5147C13.1206 12.7035 14.7117 12.2555 16.0326 11.3369L16.0526 11.323L16.0712 11.3072C17.2586 10.2969 18.0324 8.88502 18.2453 7.34103C18.2637 7.25203 18.2755 7.17726 18.2853 7.11464C18.2867 7.10612 18.288 7.09782 18.2892 7.08975C18.2893 7.08919 18.2894 7.08864 18.2895 7.08809L18.3033 7.00488C18.45 6.46326 18.4631 5.89397 18.3412 5.34595C18.2173 4.78876 17.9577 4.27079 17.5855 3.83803L17.5855 3.83798L17.5802 3.83203C16.7539 2.9017 15.1763 2.5 13.2142 2.5H7.09703H6.66976L6.60314 2.92205L4.11193 18.7052L4.02071 19.2832H4.60582H7.04136H7.46826L7.53518 18.8616L7.62149 18.3178L7.62157 18.3172L8.33606 13.7819ZM17.3481 11.4441C17.1924 11.6128 17.0272 11.7724 16.8534 11.9224L15.4519 12.8197C15.2515 12.9139 15.0342 12.9965 14.7998 13.0797L14.7995 13.0798C14.7572 13.0949 14.717 13.1094 14.6782 13.1233C14.5372 13.1743 14.4157 13.2181 14.2838 13.2548C14.0557 13.3182 13.8087 13.3639 13.5341 13.4146L13.526 13.4161L13.5257 13.4162C13.4405 13.432 13.3681 13.4469 13.3015 13.4606C13.184 13.4849 13.0847 13.5054 12.965 13.5203C12.6543 13.5588 12.3181 13.5722 11.9566 13.5846L11.9563 13.5847C11.8748 13.5875 11.796 13.5947 11.7331 13.6004C11.724 13.6013 11.7152 13.6021 11.7068 13.6028C11.6352 13.6092 11.5803 13.6133 11.5257 13.6133H9.80644H9.3795L9.31261 14.0349L8.70147 17.8878L8.70139 17.8883L8.22324 20.9222L8.13184 21.5021L8.71896 21.5L11.1467 21.4912L11.5717 21.4897L11.6386 21.0699L12.2875 16.9989C12.2876 16.9984 12.2877 16.9979 12.2877 16.9975C12.3372 16.7017 12.4904 16.4333 12.7199 16.2402C12.9497 16.0469 13.241 15.942 13.5414 15.9443L13.5414 15.9443H13.5453H14.0287C15.6353 15.9443 16.9513 15.601 17.9455 14.8266C18.9416 14.0508 19.5472 12.8952 19.8392 11.4074C20.0377 10.6067 20.0264 9.76833 19.8064 8.97316L19.3815 7.43708L18.8594 8.92188C18.8588 8.92324 18.8582 8.92465 18.8575 8.92608C18.8539 8.93415 18.8493 8.94488 18.8444 8.95771C18.8433 8.96008 18.8411 8.96462 18.8385 8.97026C18.8365 8.97463 18.8341 8.97966 18.8318 8.98486C18.8261 8.99772 18.8187 9.01504 18.8112 9.03556L18.8111 9.03577C18.6757 9.40901 18.5121 9.7714 18.3216 10.1198C18.285 10.1867 18.2557 10.23 18.2172 10.2867C18.1876 10.3303 18.1527 10.3819 18.1049 10.4581L18.1049 10.4581L18.1016 10.4636C17.9664 10.6858 17.8181 10.8999 17.6576 11.1046C17.589 11.1894 17.5172 11.2653 17.4306 11.3567C17.4053 11.3834 17.3788 11.4114 17.3507 11.4414L17.3481 11.4441Z" fill="#111111" stroke="#111111"/>
</svg>
