<svg width="24" height="24" viewBox="0 0 24 24" fill="none" xmlns="http://www.w3.org/2000/svg">
<path d="M8.00002 21.71L18.87 10.78L21.71 8.00002M8.00002 21.71L7.64718 21.3558L18.5155 10.4274L18.5202 10.4227L18.5203 10.4227L21.352 7.65079M8.00002 21.71C7.90073 21.8089 7.78176 21.8858 7.65084 21.9358C7.51991 21.9857 7.37994 22.0076 7.24002 22L8.00002 21.71ZM21.352 7.65079C21.35 7.65295 21.348 7.65509 21.346 7.65722L21.71 8.00002M21.352 7.65079L21.3603 7.64271L21.71 8.00002M21.352 7.65079C21.3843 7.61564 21.4128 7.57729 21.4371 7.53637M21.71 8.00002C21.8013 7.9031 21.8757 7.79155 21.93 7.67002M21.93 7.67002L21.4336 7.61002C21.4366 7.58557 21.4377 7.56095 21.4371 7.53637M21.93 7.67002L21.5076 7.48107L21.4736 7.46587C21.4705 7.47275 21.4673 7.47957 21.464 7.48634C21.4557 7.50339 21.4467 7.52009 21.4371 7.53637M21.93 7.67002L21.4508 7.01787M21.4371 7.53637C21.4366 7.52089 21.4355 7.50541 21.4336 7.49001L21.427 7.43507L21.4325 7.38001C21.4339 7.36672 21.4339 7.35332 21.4325 7.34002L21.4035 7.05162L21.4508 7.01787M21.4508 7.01787C21.4551 7.02684 21.4591 7.03594 21.4629 7.04517C21.4878 7.10609 21.5004 7.17132 21.5 7.23713L21.8939 7.2394L22 7.24002M21.4508 7.01787L22 7.24002M21.4508 7.01787C21.4268 6.96794 21.3947 6.92228 21.3557 6.88279L21.3565 6.88357L21.4508 7.01787ZM21.4508 7.01787L21.6394 6.88315L21.7094 6.83315L21.771 6.91935L22 7.24002M21.4508 7.01787L22 7.24002M17.1179 2.64501L21.355 6.88213L7.64642 21.3565C7.59693 21.4056 7.53771 21.4438 7.47258 21.4686C7.40712 21.4936 7.33714 21.5046 7.26717 21.5008L7.2536 21.5H7.24002H3.00002C2.86741 21.5 2.74023 21.4473 2.64646 21.3536C2.5527 21.2598 2.50002 21.1326 2.50002 21L2.50003 16.76L2.50001 16.7571C2.49963 16.6913 2.51224 16.6261 2.53712 16.5652C2.56189 16.5045 2.59832 16.4494 2.64435 16.4028C2.64457 16.4026 2.64479 16.4023 2.64501 16.4021L13.5736 5.47357L16.4021 2.64501C16.4023 2.64479 16.4026 2.64457 16.4028 2.64436C16.4494 2.59832 16.5045 2.56189 16.5652 2.53712C16.6261 2.51224 16.6913 2.49963 16.7571 2.50001V2.50004L16.7629 2.50001C16.8287 2.49963 16.8939 2.51224 16.9549 2.53712C17.0155 2.56189 17.0707 2.59832 17.1172 2.64435C17.1175 2.64457 17.1177 2.64479 17.1179 2.64501ZM6.83002 20.5H7.03712L7.18357 20.3536L17.1136 10.4236L17.4671 10.07L17.1136 9.71646L14.2836 6.88646L13.93 6.53291L13.5765 6.88646L3.64646 16.8165L3.50002 16.9629V17.17V20V20.5H4.00002H6.83002ZM17.8165 9.01357L18.1713 9.36837L18.5248 9.01232L19.9348 7.59232L20.2859 7.23877L19.9336 6.88646L17.1136 4.06646L16.7613 3.71416L16.4077 4.06522L14.9877 5.47522L14.6317 5.82877L14.9865 6.18357L17.8165 9.01357Z" fill="#111111" stroke="#111111"/>
</svg>
