<svg width="24" height="24" viewBox="0 0 24 24" fill="none" xmlns="http://www.w3.org/2000/svg">
<path d="M7.75778 6.25778H7.75745C7.3598 6.25805 6.9785 6.41614 6.69732 6.69732C6.41614 6.9785 6.25805 7.3598 6.25778 7.75745V7.75778C6.25778 8.05446 6.34576 8.34447 6.51058 8.59114C6.6754 8.83781 6.90967 9.03007 7.18376 9.1436C7.45785 9.25713 7.75945 9.28684 8.05042 9.22896C8.34139 9.17108 8.60867 9.02822 8.81845 8.81844C9.02822 8.60866 9.17108 8.34139 9.22896 8.05042C9.28684 7.75945 9.25713 7.45785 9.1436 7.18376C9.03007 6.90967 8.83781 6.6754 8.59114 6.51058C8.34447 6.34576 8.05446 6.25778 7.75778 6.25778ZM16.2422 17.7422H16.2425C16.6402 17.7419 17.0214 17.5838 17.3026 17.3026C17.5838 17.0214 17.7419 16.6402 17.7422 16.2425V16.2422C17.7422 15.9455 17.6542 15.6555 17.4894 15.4088C17.3245 15.1621 17.0903 14.9699 16.8162 14.8563C16.5421 14.7428 16.2405 14.7131 15.9495 14.771C15.6586 14.8289 15.3913 14.9717 15.1815 15.1815C14.9717 15.3913 14.8289 15.6586 14.771 15.9495C14.7131 16.2405 14.7428 16.5421 14.8563 16.8162C14.9699 17.0903 15.1621 17.3245 15.4088 17.4894C15.6555 17.6542 15.9455 17.7422 16.2422 17.7422ZM19.3533 4.64643L19.3535 4.64661C19.3999 4.69301 19.4367 4.74809 19.4619 4.80873C19.487 4.86936 19.4999 4.93435 19.4999 4.99997C19.4999 5.0656 19.487 5.13059 19.4619 5.19122C19.4367 5.25185 19.3999 5.30694 19.3535 5.35334L19.3534 5.35342L5.35342 19.3534L5.35341 19.3534L5.3512 19.3557C5.30488 19.4026 5.24976 19.4398 5.18898 19.4653C5.12821 19.4909 5.06299 19.5041 4.99708 19.5043C4.93116 19.5045 4.86586 19.4917 4.80493 19.4666C4.744 19.4414 4.68864 19.4045 4.64203 19.3579C4.59542 19.3113 4.55849 19.2559 4.53336 19.195C4.50823 19.1341 4.4954 19.0688 4.49561 19.0029C4.49581 18.9369 4.50905 18.8717 4.53456 18.811C4.56007 18.7502 4.59735 18.695 4.64424 18.6487L4.64425 18.6487L4.64647 18.6465L18.6465 4.64653L18.6466 4.64643C18.693 4.60001 18.7481 4.56318 18.8087 4.53806C18.8693 4.51293 18.9343 4.5 18.9999 4.5C19.0656 4.5 19.1306 4.51293 19.1912 4.53806C19.2518 4.56318 19.3069 4.60001 19.3533 4.64643ZM9.14671 9.83646C8.73562 10.1111 8.25233 10.2578 7.75792 10.2578C7.0951 10.257 6.45967 9.99328 5.99098 9.52459C5.52224 9.05586 5.25857 8.42035 5.25778 7.75747C5.25785 7.26312 5.40447 6.77989 5.67911 6.36886C5.95381 5.95774 6.34426 5.6373 6.80108 5.44808C7.25789 5.25887 7.76056 5.20936 8.24551 5.30582C8.73046 5.40228 9.17592 5.64039 9.52555 5.99002C9.87518 6.33965 10.1133 6.78511 10.2097 7.27006C10.3062 7.75501 10.2567 8.25768 10.0675 8.71449C9.87826 9.17131 9.55783 9.56175 9.14671 9.83646ZM14.8532 14.1635C15.2642 13.8889 15.7474 13.7423 16.2416 13.7422H16.2417C16.9046 13.7429 17.5402 14.0066 18.009 14.4754C18.4778 14.9441 18.7414 15.5797 18.7422 16.2427C18.7421 16.737 18.5954 17.2201 18.3208 17.6311C18.0461 18.0422 17.6557 18.3626 17.1989 18.5519C16.7421 18.7411 16.2394 18.7906 15.7544 18.6941C15.2695 18.5977 14.824 18.3596 14.4744 18.0099C14.1248 17.6603 13.8867 17.2148 13.7902 16.7299C13.6937 16.2449 13.7432 15.7423 13.9325 15.2855C14.1217 14.8286 14.4421 14.4382 14.8532 14.1635Z" fill="#111111" stroke="#111111"/>
</svg>
