<svg width="24" height="24" viewBox="0 0 24 24" fill="none" xmlns="http://www.w3.org/2000/svg">
<path d="M3.13337 3.44275C2.8939 3.71234 2.71557 4.03054 2.61064 4.37554C2.50563 4.72078 2.4766 5.08465 2.52555 5.44217L2.52597 5.44525L2.52596 5.44525C3.05527 9.49808 4.90689 13.2631 7.79373 16.1564C10.6838 19.04 14.4435 20.8907 18.491 21.4224C18.5912 21.4294 18.6919 21.4291 18.7921 21.4215L18.8115 21.42L18.8309 21.42C19.4451 21.4209 20.0382 21.1957 20.4969 20.7873C20.7595 20.5524 20.9694 20.2647 21.113 19.9431C21.2566 19.6214 21.3306 19.2729 21.3302 18.9207V18.92V15.922C21.3253 15.3469 21.1222 14.791 20.7551 14.3481C20.3965 13.9154 19.9028 13.6165 19.354 13.4989C19.1282 13.4902 18.8938 13.4323 18.7303 13.3919C18.6929 13.3827 18.6593 13.3744 18.6302 13.3678C18.1637 13.2634 17.7049 13.1269 17.2572 12.9591C16.9098 12.8333 16.5282 12.8401 16.1855 12.9783C15.8427 13.1165 15.5631 13.3764 15.4002 13.708L15.1812 14.1657L14.9499 14.6494L14.4835 14.3849C13.4755 13.8132 12.5442 13.1156 11.7121 12.309L11.7066 12.3036L11.7012 12.298C10.8945 11.466 10.197 10.5347 9.62525 9.52666L9.35596 9.05185L9.85253 8.82516L10.3059 8.61817C10.6358 8.45496 10.8942 8.17614 11.0318 7.83471C11.1702 7.49165 11.1769 7.10959 11.0507 6.76191C11.0505 6.76159 11.0504 6.76126 11.0503 6.76094L3.13337 3.44275ZM3.13337 3.44275C3.36814 3.18044 3.65566 2.97066 3.97712 2.82715C4.29881 2.68354 4.64722 2.60954 4.99952 2.61H5.00017H8.01017V2.61005L8.01744 2.60995C8.61302 2.60129 9.19212 2.80556 9.65046 3.18598C10.1067 3.56464 10.4134 4.09305 10.516 4.6768C10.5475 4.90597 10.5895 5.1471 10.6425 5.38033L3.13337 3.44275ZM20.4002 18.9933L20.4002 19.0012C20.3997 19.2105 20.3554 19.4174 20.2701 19.6086C20.1849 19.7997 20.0606 19.9709 19.9052 20.1112C19.7411 20.2602 19.5461 20.371 19.3341 20.4356C19.1229 20.5 18.9 20.517 18.6814 20.4853C14.8425 19.983 11.2749 18.2331 8.52783 15.5048L8.52662 15.5036C5.7771 12.754 4.01192 9.17394 3.50491 5.31879C3.47321 5.10022 3.49016 4.87733 3.55458 4.66604C3.61932 4.45368 3.73039 4.25835 3.87977 4.09414C4.02156 3.93727 4.19491 3.81216 4.38845 3.727C4.58172 3.64196 4.79075 3.59869 5.00187 3.6M20.4002 18.9933L5.00017 4.1M20.4002 18.9933L20.4 18.9854L20.3103 15.9075L20.4002 18.9933ZM5.00187 3.6C5.00258 3.6 5.00328 3.60001 5.00398 3.60001L5.00017 4.1M5.00187 3.6H5.00017V4.1M5.00187 3.6H7.99468M5.00017 4.1H8.00017M7.99468 3.6C7.99244 3.60004 7.9902 3.60009 7.98796 3.60015L8.00017 4.1M7.99468 3.6H8.00017V4.1M7.99468 3.6L8.00017 4.1M20.9102 11.61H20.9902C21.2405 11.611 21.4821 11.5181 21.6673 11.3496C21.8524 11.1811 21.9676 10.9493 21.9902 10.7M20.9102 11.61L20.9534 11.1119C20.9474 11.1114 20.9415 11.1107 20.9356 11.11M20.9102 11.61C20.6464 11.5871 20.4025 11.4606 20.2319 11.2581C20.0613 11.0556 19.978 10.7938 20.0002 10.53L20.9102 11.61ZM20.9356 11.11H20.9902H20.9922C21.1174 11.1105 21.2382 11.0641 21.3307 10.9798C21.4187 10.8998 21.4751 10.7911 21.4902 10.6736M20.9356 11.11C20.8106 11.0946 20.6957 11.0326 20.6143 10.9359C20.529 10.8347 20.4873 10.7038 20.4984 10.5719L20.5002 10.551V10.53V10.5289V10.5279V10.5268V10.5258V10.5247V10.5237V10.5226V10.5216V10.5205V10.5195V10.5184V10.5174V10.5163V10.5153V10.5142V10.5132V10.5121V10.5111V10.51V10.509V10.5079V10.5069V10.5058V10.5048V10.5037V10.5027V10.5016V10.5006V10.4995V10.4985V10.4974V10.4964V10.4953V10.4943V10.4932V10.4922V10.4911V10.4901V10.489V10.488V10.4869V10.4859V10.4848V10.4838V10.4828V10.4817V10.4807V10.4796V10.4786V10.4775V10.4765V10.4754V10.4744V10.4734V10.4723V10.4713V10.4702V10.4692V10.4681V10.4671V10.4661V10.465V10.464V10.4629V10.4619V10.4608V10.4598V10.4588V10.4577V10.4567V10.4556V10.4546V10.4536V10.4525V10.4515V10.4504V10.4494V10.4484V10.4473V10.4463V10.4452V10.4442V10.4432V10.4421V10.4411V10.44V10.439V10.438V10.4369V10.4359V10.4349V10.4338V10.4328V10.4317V10.4307V10.4297V10.4286V10.4276V10.4266V10.4255V10.4245V10.4235V10.4224V10.4214V10.4203V10.4193V10.4183V10.4172V10.4162V10.4152V10.4141V10.4131V10.4121V10.411V10.41V10.409V10.4079V10.4069V10.4059V10.4048V10.4038V10.4028V10.4017V10.4007V10.3997V10.3986V10.3976V10.3966V10.3955V10.3945V10.3935V10.3924V10.3914V10.3904V10.3893V10.3883V10.3873V10.3862V10.3852V10.3842V10.3831V10.3821V10.3811V10.3801V10.379V10.378V10.377V10.3759V10.3749V10.3739V10.3728V10.3718V10.3708V10.3697V10.3687V10.3677V10.3667V10.3656V10.3646V10.3636V10.3625V10.3615V10.3605V10.3595V10.3584V10.3574V10.3564V10.3553V10.3543V10.3533V10.3522V10.3512V10.3502V10.3492V10.3481V10.3471V10.3461V10.3451V10.344V10.343V10.342V10.3409V10.3399V10.3389V10.3379V10.3368V10.3358V10.3348V10.3337V10.3327V10.3317V10.3307V10.3296V10.3286V10.3276V10.3266V10.3255V10.3245V10.3235V10.3224V10.3214V10.3204V10.3194V10.3183V10.3173V10.3163V10.3153V10.3142V10.3132V10.3122V10.3112V10.3101V10.3091V10.3081V10.3071V10.306V10.305V10.304V10.3029V10.3019V10.3009V10.2999V10.2988V10.2978V10.2968V10.2958V10.2947V10.2937V10.2927V10.2917V10.2906V10.2896V10.2886V10.2876V10.2865V10.2855V10.2845V10.2835V10.2824V10.2814V10.2804V10.2794V10.2783V10.2773V10.2763V10.2753V10.2742V10.2732V10.2722V10.2712V10.2701V10.2691V10.2681V10.2671V10.266V10.265V10.264V10.2629V10.2619V10.2609V10.2599V10.2588V10.2578V10.2568V10.2558V10.2547V10.2537V10.2527V10.2517V10.2506V10.2496V10.2486V10.2476V10.2465V10.2455V10.2445V10.2435V10.2424V10.2414V10.2404V10.2394V10.2383V10.2373V10.2363V10.2353V10.2342V10.2332V10.2322V10.2312V10.2301V10.2291V10.2281V10.2271V10.226V10.225V10.224V10.2229V10.2219V10.2209V10.2199V10.2188V10.2178V10.2168V10.2158V10.2147V10.2137V10.2127V10.2117V10.2106V10.2096V10.2086V10.2076V10.2065V10.2055V10.2045V10.2034V10.2024V10.2014V10.2004V10.1993V10.1983V10.1973V10.1963V10.1952V10.1942V10.1932V10.1921V10.1911V10.1901V10.1891V10.188V10.187V10.186V10.1849V10.1839V10.1829V10.1819V10.1808V10.1798V10.1788V10.1778V10.1767V10.1757V10.1747V10.1736V10.1726V10.1716V10.1705V10.1695V10.1685V10.1675V10.1664V10.1654V10.1644V10.1633V10.1623V10.1613V10.1603V10.1592V10.1582V10.1572V10.1561V10.1551V10.1541V10.153V10.152V10.151V10.1499V10.1489V10.1479V10.1469V10.1458V10.1448V10.1438V10.1427V10.1417V10.1407V10.1396V10.1386V10.1376V10.1365V10.1355V10.1345V10.1334V10.1324V10.1314V10.1303V10.1293V10.1283V10.1272V10.1262V10.1252V10.1241V10.1231V10.1221V10.121V10.12V10.119V10.1179V10.1169V10.1159V10.1148V10.1138V10.1128V10.1117V10.1107V10.1097V10.1086V10.1076V10.1065V10.1055V10.1045V10.1034V10.1024V10.1014V10.1003V10.0993V10.0983V10.0972V10.0962V10.0951V10.0941V10.0931V10.092V10.091V10.09V10.0889V10.0879V10.0868V10.0858V10.0848V10.0837V10.0827V10.0816V10.0806V10.0796V10.0785V10.0775V10.0764V10.0754V10.0744V10.0733V10.0723V10.0712V10.0702V10.0692V10.0681V10.0671V10.066V10.065V10.0639V10.0629V10.0619V10.0608V10.0598V10.0587V10.0577V10.0566V10.0556V10.0546V10.0535V10.0525V10.0514V10.0504V10.0493V10.0483V10.0472V10.0462V10.0452V10.0441V10.0431V10.042V10.041V10.0399V10.0389V10.0378V10.0368V10.0357V10.0347V10.0336V10.0326V10.0315V10.0305V10.0294V10.0284V10.0273V10.0263V10.0252V10.0242V10.0231V10.0221V10.021V10.02V10.0189V10.0179V10.0168V10.0158V10.0147V10.0137V10.0126V10.0116V10.0105V10.0095V10.0084V10.0074V10.0063V10.0053V10.0042V10.0032V10.0021V10.0011V10C20.5002 8.27609 19.8154 6.62279 18.5964 5.40381C17.3774 4.18482 15.7241 3.5 14.0002 3.5H13.4702H13.449L13.4278 3.5018C13.2947 3.51311 13.1626 3.47109 13.0605 3.38498C12.9584 3.29888 12.8947 3.17574 12.8834 3.04265C12.8721 2.90957 12.9141 2.77744 13.0002 2.67534C13.0825 2.57773 13.1987 2.5152 13.325 2.5H13.3258H13.3272H13.3285H13.3299H13.3312H13.3326H13.3339H13.3353H13.3366H13.338H13.3393H13.3407H13.3421H13.3434H13.3448H13.3461H13.3475H13.3488H13.3502H13.3515H13.3529H13.3543H13.3556H13.357H13.3583H13.3597H13.361H13.3624H13.3637H13.3651H13.3665H13.3678H13.3692H13.3705H13.3719H13.3733H13.3746H13.376H13.3773H13.3787H13.3801H13.3814H13.3828H13.3841H13.3855H13.3869H13.3882H13.3896H13.3909H13.3923H13.3937H13.395H13.3964H13.3977H13.3991H13.4005H13.4018H13.4032H13.4046H13.4059H13.4073H13.4086H13.41H13.4114H13.4127H13.4141H13.4155H13.4168H13.4182H13.4195H13.4209H13.4223H13.4236H13.425H13.4264H13.4277H13.4291H13.4305H13.4318H13.4332H13.4346H13.4359H13.4373H13.4387H13.44H13.4414H13.4428H13.4441H13.4455H13.4469H13.4482H13.4496H13.451H13.4523H13.4537H13.4551H13.4564H13.4578H13.4592H13.4605H13.4619H13.4633H13.4646H13.466H13.4674H13.4688H13.4701H13.4715H13.4729H13.4742H13.4756H13.477H13.4783H13.4797H13.4811H13.4825H13.4838H13.4852H13.4866H13.4879H13.4893H13.4907H13.492H13.4934H13.4948H13.4962H13.4975H13.4989H13.5003H13.5016H13.503H13.5044H13.5058H13.5071H13.5085H13.5099H13.5113H13.5126H13.514H13.5154H13.5167H13.5181H13.5195H13.5209H13.5222H13.5236H13.525H13.5264H13.5277H13.5291H13.5305H13.5318H13.5332H13.5346H13.536H13.5373H13.5387H13.5401H13.5415H13.5428H13.5442H13.5456H13.547H13.5483H13.5497H13.5511H13.5525H13.5538H13.5552H13.5566H13.558H13.5593H13.5607H13.5621H13.5635H13.5648H13.5662H13.5676H13.569H13.5703H13.5717H13.5731H13.5745H13.5758H13.5772H13.5786H13.58H13.5813H13.5827H13.5841H13.5855H13.5868H13.5882H13.5896H13.591H13.5924H13.5937H13.5951H13.5965H13.5979H13.5992H13.6006H13.602H13.6034H13.6047H13.6061H13.6075H13.6089H13.6102H13.6116H13.613H13.6144H13.6158H13.6171H13.6185H13.6199H13.6213H13.6226H13.624H13.6254H13.6268H13.6281H13.6295H13.6309H13.6323H13.6336H13.635H13.6364H13.6378H13.6392H13.6405H13.6419H13.6433H13.6447H13.646H13.6474H13.6488H13.6502H13.6515H13.6529H13.6543H13.6557H13.6571H13.6584H13.6598H13.6612H13.6626H13.6639H13.6653H13.6667H13.6681H13.6694H13.6708H13.6722H13.6736H13.675H13.6763H13.6777H13.6791H13.6805H13.6818H13.6832H13.6846H13.686H13.6873H13.6887H13.6901H13.6915H13.6929H13.6942H13.6956H13.697H13.6984H13.6997H13.7011H13.7025H13.7039H13.7052H13.7066H13.708H13.7094H13.7107H13.7121H13.7135H13.7149H13.7162H13.7176H13.719H13.7204H13.7218H13.7231H13.7245H13.7259H13.7273H13.7286H13.73H13.7314H13.7328H13.7341H13.7355H13.7369H13.7383H13.7396H13.741H13.7424H13.7438H13.7451H13.7465H13.7479H13.7493H13.7506H13.752H13.7534H13.7548H13.7561H13.7575H13.7589H13.7603H13.7616H13.763H13.7644H13.7657H13.7671H13.7685H13.7699H13.7712H13.7726H13.774H13.7754H13.7767H13.7781H13.7795H13.7809H13.7822H13.7836H13.785H13.7863H13.7877H13.7891H13.7905H13.7918H13.7932H13.7946H13.796H13.7973H13.7987H13.8001H13.8014H13.8028H13.8042H13.8056H13.8069H13.8083H13.8097H13.811H13.8124H13.8138H13.8151H13.8165H13.8179H13.8193H13.8206H13.822H13.8234H13.8247H13.8261H13.8275H13.8288H13.8302H13.8316H13.833H13.8343H13.8357H13.8371H13.8384H13.8398H13.8412H13.8425H13.8439H13.8453H13.8466H13.848H13.8494H13.8507H13.8521H13.8535H13.8548H13.8562H13.8576H13.8589H13.8603H13.8617H13.863H13.8644H13.8658H13.8671H13.8685H13.8699H13.8712H13.8726H13.874H13.8753H13.8767H13.8781H13.8794H13.8808H13.8822H13.8835H13.8849H13.8862H13.8876H13.889H13.8903H13.8917H13.8931H13.8944H13.8958H13.8972H13.8985H13.8999H13.9012H13.9026H13.904H13.9053H13.9067H13.908H13.9094H13.9108H13.9121H13.9135H13.9149H13.9162H13.9176H13.9189H13.9203H13.9217H13.923H13.9244H13.9257H13.9271H13.9284H13.9298H13.9312H13.9325H13.9339H13.9352H13.9366H13.938H13.9393H13.9407H13.942H13.9434H13.9447H13.9461H13.9474H13.9488H13.9502H13.9515H13.9529H13.9542H13.9556H13.9569H13.9583H13.9596H13.961H13.9624H13.9637H13.9651H13.9664H13.9678H13.9691H13.9705H13.9718H13.9732H13.9745H13.9759H13.9772H13.9786H13.9799H13.9813H13.9826H13.984H13.9853H13.9867H13.988H13.9894H13.9907H13.9921H13.9934H13.9948H13.9961H13.9975H13.9988H13.9999C15.9872 2.50256 17.8924 3.29383 19.2968 4.70001C20.7013 6.10626 21.4902 8.0125 21.4902 10V10.0013V10.0027V10.004V10.0054V10.0067V10.0081V10.0094V10.0108V10.0121V10.0135V10.0148V10.0162V10.0175V10.0189V10.0202V10.0216V10.0229V10.0243V10.0256V10.027V10.0283V10.0297V10.0311V10.0324V10.0338V10.0351V10.0365V10.0378V10.0392V10.0405V10.0419V10.0432V10.0446V10.0459V10.0473V10.0487V10.05V10.0514V10.0527V10.0541V10.0554V10.0568V10.0581V10.0595V10.0609V10.0622V10.0636V10.0649V10.0663V10.0676V10.069V10.0704V10.0717V10.0731V10.0744V10.0758V10.0772V10.0785V10.0799V10.0812V10.0826V10.084V10.0853V10.0867V10.088V10.0894V10.0908V10.0921V10.0935V10.0948V10.0962V10.0976V10.0989V10.1003V10.1017V10.103V10.1044V10.1057V10.1071V10.1085V10.1098V10.1112V10.1126V10.1139V10.1153V10.1166V10.118V10.1194V10.1207V10.1221V10.1235V10.1248V10.1262V10.1276V10.1289V10.1303V10.1317V10.133V10.1344V10.1358V10.1371V10.1385V10.1399V10.1412V10.1426V10.144V10.1453V10.1467V10.1481V10.1494V10.1508V10.1522V10.1535V10.1549V10.1563V10.1576V10.159V10.1604V10.1617V10.1631V10.1645V10.1658V10.1672V10.1686V10.17V10.1713V10.1727V10.1741V10.1754V10.1768V10.1782V10.1795V10.1809V10.1823V10.1837V10.185V10.1864V10.1878V10.1891V10.1905V10.1919V10.1932V10.1946V10.196V10.1974V10.1987V10.2001V10.2015V10.2028V10.2042V10.2056V10.207V10.2083V10.2097V10.2111V10.2125V10.2138V10.2152V10.2166V10.2179V10.2193V10.2207V10.2221V10.2234V10.2248V10.2262V10.2276V10.2289V10.2303V10.2317V10.2331V10.2344V10.2358V10.2372V10.2385V10.2399V10.2413V10.2427V10.244V10.2454V10.2468V10.2482V10.2495V10.2509V10.2523V10.2537V10.255V10.2564V10.2578V10.2592V10.2605V10.2619V10.2633V10.2647V10.266V10.2674V10.2688V10.2702V10.2715V10.2729V10.2743V10.2757V10.277V10.2784V10.2798V10.2812V10.2825V10.2839V10.2853V10.2867V10.2881V10.2894V10.2908V10.2922V10.2936V10.2949V10.2963V10.2977V10.2991V10.3004V10.3018V10.3032V10.3046V10.3059V10.3073V10.3087V10.3101V10.3114V10.3128V10.3142V10.3156V10.317V10.3183V10.3197V10.3211V10.3225V10.3238V10.3252V10.3266V10.328V10.3293V10.3307V10.3321V10.3335V10.3349V10.3362V10.3376V10.339V10.3404V10.3417V10.3431V10.3445V10.3459V10.3472V10.3486V10.35V10.3514V10.3528V10.3541V10.3555V10.3569V10.3583V10.3596V10.361V10.3624V10.3638V10.3651V10.3665V10.3679V10.3693V10.3707V10.372V10.3734V10.3748V10.3762V10.3775V10.3789V10.3803V10.3817V10.383V10.3844V10.3858V10.3872V10.3886V10.3899V10.3913V10.3927V10.3941V10.3954V10.3968V10.3982V10.3996V10.4009V10.4023V10.4037V10.4051V10.4064V10.4078V10.4092V10.4106V10.4119V10.4133V10.4147V10.4161V10.4175V10.4188V10.4202V10.4216V10.423V10.4243V10.4257V10.4271V10.4285V10.4298V10.4312V10.4326V10.434V10.4353V10.4367V10.4381V10.4395V10.4408V10.4422V10.4436V10.445V10.4463V10.4477V10.4491V10.4505V10.4518V10.4532V10.4546V10.456V10.4573V10.4587V10.4601V10.4615V10.4628V10.4642V10.4656V10.4669V10.4683V10.4697V10.4711V10.4724V10.4738V10.4752V10.4766V10.4779V10.4793V10.4807V10.4821V10.4834V10.4848V10.4862V10.4875V10.4889V10.4903V10.4917V10.493V10.4944V10.4958V10.4972V10.4985V10.4999V10.5013V10.5026V10.504V10.5054V10.5068V10.5081V10.5095V10.5109V10.5122V10.5136V10.515V10.5163V10.5177V10.5191V10.5205V10.5218V10.5232V10.5246V10.5259V10.5273V10.5287V10.53V10.5314V10.5328V10.5342V10.5355V10.5369V10.5383V10.5396V10.541V10.5424V10.5437V10.5451V10.5465V10.5478V10.5492V10.5506V10.5519V10.5533V10.5547V10.556V10.5574V10.5588V10.5601V10.5615V10.5629V10.5642V10.5656V10.567V10.5683V10.5697V10.5711V10.5724V10.5738V10.5752V10.5765V10.5779V10.5793V10.5806V10.582V10.5834V10.5847V10.5861V10.5874V10.5888V10.5902V10.5915V10.5929V10.5943V10.5956V10.597V10.5983V10.5997V10.6011V10.6024V10.6038V10.6052V10.6065V10.6079V10.6092V10.6106V10.612V10.6133V10.6147V10.616V10.6174V10.6188V10.6201V10.6215V10.6228V10.6242V10.6256V10.6269V10.6283V10.6296V10.631V10.6323V10.6337V10.6351V10.6364V10.6378V10.6391V10.6405V10.6419V10.6432V10.6446V10.6459V10.6473V10.6486V10.65V10.6513V10.6527V10.6541V10.6554V10.6568V10.6581V10.6595V10.6608V10.6622V10.6635V10.6649V10.6662V10.6676V10.6689V10.6703V10.6716V10.673V10.6736M20.9356 11.11L21.9902 10.7M21.4902 10.6736V10.6744V10.6757V10.6771V10.6784V10.6798V10.6811V10.6825V10.6838V10.6852V10.6865V10.6879V10.6892V10.6906V10.6919V10.6933V10.6946V10.696V10.6973V10.6987V10.7H21.9902M21.4902 10.6736C21.491 10.6674 21.4916 10.6612 21.4922 10.655L21.9902 10.7M8.14902 9.02086C8.14709 9.01674 8.14516 9.01261 8.14323 9.00849L7.69017 9.22L8.15267 9.03C8.15142 9.02696 8.1502 9.02392 8.14902 9.02086ZM14.8893 15.7612C14.8863 15.76 14.8832 15.7588 14.8802 15.7575L14.6902 16.22L14.9017 15.7669C14.8976 15.765 14.8934 15.7631 14.8893 15.7612ZM15.5551 15.4928L15.5542 15.4948L16.0102 15.7L15.5558 15.4914C15.5555 15.4919 15.5553 15.4924 15.5551 15.4928ZM16.6466 10.3536C16.5528 10.2598 16.5002 10.1326 16.5002 10C16.5002 9.33696 16.2368 8.70107 15.7679 8.23223C15.2991 7.76339 14.6632 7.5 14.0002 7.5C13.8676 7.5 13.7404 7.44732 13.6466 7.35355C13.5528 7.25978 13.5002 7.13261 13.5002 7C13.5002 6.86739 13.5528 6.74022 13.6466 6.64645C13.7404 6.55268 13.8676 6.5 14.0002 6.5C14.9284 6.5 15.8187 6.86875 16.475 7.52513C17.1314 8.1815 17.5002 9.07174 17.5002 10C17.5002 10.1326 17.4475 10.2598 17.3537 10.3536C17.26 10.4473 17.1328 10.5 17.0002 10.5C16.8676 10.5 16.7404 10.4473 16.6466 10.3536Z" fill="#111111" stroke="#111111"/>
</svg>
