<svg width="24" height="24" viewBox="0 0 24 24" fill="none" xmlns="http://www.w3.org/2000/svg">
<path d="M14.58 8.35777V8.04875V4.04875C14.58 3.36449 14.3082 2.70826 13.8244 2.22441C13.3405 1.74057 12.6843 1.46875 12 1.46875C11.3158 1.46875 10.6595 1.74057 10.1757 2.22441C9.69186 2.70826 9.42003 3.36449 9.42003 4.04875V8.04875V8.35777L9.14364 8.49596L3.02503 11.5553C3.02488 11.5553 3.02472 11.5554 3.02456 11.5555C2.94231 11.5971 2.87314 11.6605 2.82469 11.7389C2.77626 11.8173 2.75043 11.9075 2.75003 11.9996V15.3287V15.3329H2.75002C2.74934 15.4144 2.76857 15.4948 2.80604 15.5671C2.84329 15.639 2.89745 15.7008 2.96385 15.7471C3.03012 15.7922 3.10627 15.8207 3.18589 15.8303C3.26599 15.8398 3.34722 15.8299 3.42264 15.8013L3.42409 15.8007L8.74409 13.8007L9.42003 13.5466V14.2688V17.9988V18.3604L9.07658 18.4736L7.26003 19.0725C7.25954 19.0726 7.25905 19.0728 7.25855 19.073L14.58 8.35777ZM14.58 8.35777L14.8564 8.49596L20.975 11.5553C20.9752 11.5553 20.9753 11.5554 20.9755 11.5555C21.0577 11.597 21.1269 11.6605 21.1754 11.7389C21.2238 11.8173 21.2497 11.9076 21.25 11.9997L14.58 8.35777ZM14.9361 18.4776L16.7567 19.0248L21.25 15.3387L21.2501 15.3429C21.2507 15.4244 21.2315 15.5048 21.194 15.5771C21.1568 15.649 21.1026 15.7108 21.0362 15.7571C20.9699 15.8022 20.8938 15.8307 20.8142 15.8403C20.7341 15.8498 20.6529 15.8399 20.5774 15.8113L20.576 15.8107L15.256 13.8107L14.58 13.5566V14.2787V17.9988V18.3706L14.9361 18.4776ZM14.2594 12.365L14.2594 12.365L14.2643 12.3668L19.5643 14.3568L20.24 14.6106V13.8888V12.6187V12.31L19.9639 12.1717L13.8539 9.11168L13.8539 9.11167L13.85 9.10974C13.7666 9.06889 13.6963 9.00561 13.6468 8.92702C13.5976 8.84889 13.5711 8.75869 13.57 8.66641V4.07875C13.57 3.65971 13.4036 3.25783 13.1073 2.96152C12.811 2.66521 12.4091 2.49875 11.99 2.49875C11.571 2.49875 11.1691 2.66521 10.8728 2.96152C10.5765 3.25783 10.41 3.65971 10.41 4.07875V8.66641C10.409 8.75869 10.3824 8.84889 10.3333 8.92702C10.2838 9.00561 10.2134 9.06889 10.1301 9.10974L10.13 9.10973L10.1261 9.11168L4.01614 12.1717L3.74003 12.31V12.6187V13.8987V14.6214L4.41627 14.3667L9.72627 12.3667L9.72628 12.3667L9.73064 12.365C9.80675 12.3355 9.88892 12.3251 9.96998 12.3347C10.0509 12.3443 10.1282 12.3734 10.1952 12.4197C10.2614 12.4656 10.3154 12.5269 10.3528 12.5982C10.3902 12.6694 10.4098 12.7487 10.41 12.8291C10.41 12.8293 10.41 12.8294 10.41 12.8296L10.41 18.6684C10.41 18.7738 10.3765 18.8765 10.3146 18.9618C10.2526 19.0472 10.1653 19.1107 10.065 19.1434L10.0627 19.1441L8.25271 19.7441L7.91003 19.8577V20.2188V20.9988V21.4988H8.41003H15.58H16.08V20.9988V20.2188V19.8577L15.7374 19.7441L13.9274 19.1441L13.925 19.1434C13.8248 19.1107 13.7374 19.0472 13.6755 18.9618C13.6135 18.8765 13.5801 18.7738 13.58 18.6684L13.58 12.8296C13.58 12.8294 13.58 12.8293 13.58 12.8291C13.5802 12.7487 13.5999 12.6694 13.6372 12.5982C13.6746 12.5269 13.7287 12.4656 13.7948 12.4197C13.8619 12.3734 13.9392 12.3443 14.0201 12.3347C14.1011 12.3251 14.1833 12.3355 14.2594 12.365Z" fill="#111111" stroke="#111111"/>
</svg>
