<svg width="24" height="24" viewBox="0 0 24 24" fill="none" xmlns="http://www.w3.org/2000/svg">
<path d="M21.4998 5.07573L21.4998 5.07914C21.5017 5.41768 21.4361 5.7532 21.3069 6.06613C21.1777 6.37905 20.9875 6.66312 20.7474 6.90176L20.7473 6.90173L20.7425 6.90667L17.9725 9.73667L17.759 9.95476L17.8554 10.2443L20.0139 16.7297C20.0401 16.8151 20.0429 16.906 20.022 16.9929C20.001 17.0803 19.9569 17.1604 19.8943 17.2248C19.8938 17.2253 19.8933 17.2258 19.8928 17.2263L17.5383 19.5808C17.538 19.5811 17.5377 19.5814 17.5374 19.5817C17.4805 19.6376 17.4111 19.6792 17.3349 19.7028C17.2583 19.7266 17.1771 19.7315 17.0982 19.7173C17.0192 19.7031 16.9449 19.6701 16.8814 19.6211C16.8183 19.5725 16.7679 19.5095 16.7341 19.4375C16.7338 19.4369 16.7336 19.4364 16.7333 19.4358L14.3851 14.2598L14.0868 13.6023L13.5763 14.1129L10.9763 16.7129L10.7208 16.9683L10.8831 17.2911L11.7431 19.001C11.7905 19.0954 11.8069 19.2023 11.7898 19.3065C11.7728 19.4103 11.7235 19.5061 11.6489 19.5803C11.6486 19.5805 11.6484 19.5808 11.6481 19.581L9.84023 21.3489L9.84022 21.3489L9.83732 21.3518C9.74363 21.4449 9.61691 21.4972 9.48482 21.4972C9.35292 21.4972 9.22636 21.4451 9.13272 21.3522C9.13259 21.3521 9.13245 21.3519 9.13232 21.3518L2.64442 14.8639C2.64427 14.8638 2.64412 14.8636 2.64397 14.8635C2.55113 14.7698 2.49902 14.6433 2.49902 14.5114C2.49902 14.3793 2.55129 14.2526 2.64442 14.1589L2.64443 14.1589L2.6473 14.156L4.40842 12.3551C4.48394 12.2868 4.57859 12.2431 4.67972 12.23C4.78382 12.2165 4.88951 12.2362 4.98183 12.2861L4.98844 12.2897L4.99517 12.2931L6.70517 13.1531L7.02792 13.3154L7.28337 13.06L9.88337 10.46L10.3939 9.94939L9.73639 9.65108L4.55874 7.30215C4.48669 7.26837 4.42374 7.21788 4.37511 7.15486C4.32612 7.09136 4.29312 7.017 4.27891 6.93807C4.26469 6.85914 4.26967 6.77794 4.29342 6.70134C4.31698 6.62539 4.3583 6.55616 4.41396 6.49939L6.79073 4.1426C6.85525 4.07962 6.9356 4.03526 7.02329 4.01421C7.11023 3.99335 7.20115 3.99618 7.28658 4.02238L13.7719 6.18083L14.065 6.27836L14.2834 6.05997L17.0934 3.24997L17.0937 3.24963C17.4545 2.88809 17.9146 2.6418 18.4155 2.54196C18.9164 2.44211 19.4358 2.49321 19.9076 2.68878C20.3795 2.88434 20.7827 3.21558 21.0661 3.64051C21.3496 4.06544 21.5005 4.56494 21.4998 5.07573ZM20.0334 6.19997L20.0335 6.20009L20.0427 6.19043C20.1857 6.03953 20.2972 5.86154 20.3705 5.66693C20.4419 5.47735 20.4757 5.27573 20.47 5.07335C20.4732 4.86563 20.4333 4.65944 20.3526 4.46787C20.2714 4.27508 20.1509 4.10145 19.9987 3.95809C19.8542 3.81268 19.6827 3.69693 19.4937 3.61741C19.301 3.53631 19.0939 3.49453 18.8848 3.49453C18.6757 3.49453 18.4687 3.53631 18.2759 3.61741C18.0841 3.69813 17.9102 3.81617 17.7645 3.96466L14.5283 7.2008C14.4639 7.26348 14.3838 7.30764 14.2963 7.32862C14.2094 7.34948 14.1186 7.34666 14.0331 7.32048L7.55793 5.16207L7.26477 5.06435L7.04626 5.28286L6.14626 6.18286L5.6345 6.69462L6.29423 6.9922L11.5027 9.34148C11.5029 9.34158 11.5031 9.34169 11.5033 9.34179C11.5767 9.37533 11.6409 9.42612 11.6904 9.48984C11.74 9.55376 11.7734 9.62877 11.7877 9.70844C11.8019 9.7881 11.7966 9.87004 11.7722 9.94721C11.7479 10.0244 11.7051 10.0945 11.6477 10.1515L11.6454 10.1537L7.50609 14.313C7.50599 14.3131 7.50589 14.3132 7.5058 14.3133C7.43195 14.3871 7.33686 14.436 7.23386 14.453C7.13122 14.4699 7.02587 14.4545 6.93246 14.4087C6.932 14.4085 6.93154 14.4083 6.93109 14.408L5.22447 13.5497L4.92266 13.3979L4.66922 13.6213L4.07922 14.1413L3.68011 14.4931L4.05591 14.8696L9.08591 19.9096L9.43946 20.2639L9.79337 19.91L10.3534 19.35L10.6056 19.0977L10.4491 18.7771L9.62915 17.0971L9.62819 17.0951C9.58193 17.0014 9.56621 16.8955 9.58325 16.7924C9.60029 16.6892 9.64923 16.594 9.7232 16.5202L9.72507 16.5183L13.845 12.3583C13.9022 12.3005 13.9727 12.2576 14.0502 12.2332C14.1276 12.2089 14.2098 12.2037 14.2896 12.2182C14.3689 12.2328 14.4435 12.2663 14.5071 12.3159C14.5706 12.3655 14.6212 12.4298 14.6546 12.5032L14.6546 12.5033L17.0046 17.6733L17.3032 18.3301L17.8134 17.82L18.7134 16.92L18.9319 16.7015L18.8342 16.4083L16.6758 9.93308C16.6496 9.84767 16.6468 9.75679 16.6676 9.66989C16.6886 9.58248 16.7327 9.50236 16.7954 9.43795C16.7959 9.43746 16.7963 9.43698 16.7968 9.43649L20.0334 6.19997ZM21.7691 6.25693C21.9236 5.88264 22.002 5.48134 21.9998 5.07642L18.3298 10.0864L21.0998 7.25642C21.387 6.97098 21.6145 6.63121 21.7691 6.25693Z" fill="#111111" stroke="#111111"/>
</svg>
