<svg width="24" height="24" viewBox="0 0 24 24" fill="none" xmlns="http://www.w3.org/2000/svg">
<path d="M15.5 6V6.5H16H19C19.1326 6.5 19.2598 6.55268 19.3536 6.64645C19.4473 6.74021 19.5 6.86739 19.5 7C19.5 7.13261 19.4473 7.25979 19.3536 7.35355C19.2598 7.44732 19.1326 7.5 19 7.5H18H17.5V8L17.5 13L17.5 13.0029C17.5004 13.0687 17.4878 13.1339 17.4629 13.1948C17.4382 13.2554 17.4018 13.3105 17.3559 13.357C17.3556 13.3573 17.3553 13.3576 17.355 13.3579L14.6471 16.0558L14.5 16.2024V16.41V21C14.5 21.1326 14.4473 21.2598 14.3536 21.3536C14.2598 21.4473 14.1326 21.5 14 21.5C13.8674 21.5 13.7402 21.4473 13.6464 21.3536C13.5527 21.2598 13.5 21.1326 13.5 21V17V16.5H13H11H10.5V17V21C10.5 21.1326 10.4473 21.2598 10.3536 21.3536C10.2598 21.4473 10.1326 21.5 10 21.5C9.86739 21.5 9.74021 21.4473 9.64645 21.3536C9.55268 21.2598 9.5 21.1326 9.5 21V16.41V16.2024L9.3529 16.0558L6.64499 13.3579C6.6447 13.3576 6.64441 13.3573 6.64412 13.357C6.59819 13.3105 6.56183 13.2554 6.53711 13.1948C6.51222 13.1339 6.49961 13.0687 6.49999 13.0029H6.5V13V8V7.5H6H5C4.86739 7.5 4.74022 7.44732 4.64645 7.35355C4.55268 7.25978 4.5 7.13261 4.5 7C4.5 6.86739 4.55268 6.74022 4.64645 6.64645C4.74022 6.55268 4.86739 6.5 5 6.5H8H8.5V6V3C8.5 2.86739 8.55268 2.74021 8.64645 2.64645C8.74021 2.55268 8.86739 2.5 9 2.5C9.13261 2.5 9.25979 2.55268 9.35355 2.64645C9.44732 2.74021 9.5 2.86739 9.5 3V6V6.5H10H14H14.5V6V3C14.5 2.86739 14.5527 2.74021 14.6464 2.64645C14.7402 2.55268 14.8674 2.5 15 2.5C15.1326 2.5 15.2598 2.55268 15.3536 2.64645C15.4473 2.74021 15.5 2.86739 15.5 3V6ZM16.3536 12.9436L16.5 12.7971V12.59V8V7.5H16H8H7.5V8V12.59V12.7971L7.64645 12.9436L10.0564 15.3536L10.2029 15.5H10.41H13.59H13.7971L13.9436 15.3536L16.3536 12.9436ZM13 12.5H11C10.8674 12.5 10.7402 12.4473 10.6464 12.3536C10.5527 12.2598 10.5 12.1326 10.5 12C10.5 11.8674 10.5527 11.7402 10.6464 11.6464C10.7402 11.5527 10.8674 11.5 11 11.5H13C13.1326 11.5 13.2598 11.5527 13.3536 11.6464C13.4473 11.7402 13.5 11.8674 13.5 12C13.5 12.1326 13.4473 12.2598 13.3536 12.3536C13.2598 12.4473 13.1326 12.5 13 12.5Z" fill="#111111" stroke="#111111"/>
</svg>
