<svg width="24" height="24" viewBox="0 0 24 24" fill="none" xmlns="http://www.w3.org/2000/svg">
<path d="M19.5 5.00271V4.50271H19H18C17.8674 4.50271 17.7402 4.45003 17.6465 4.35626C17.5527 4.26249 17.5 4.13532 17.5 4.00271C17.5 3.8701 17.5527 3.74292 17.6465 3.64915C17.7402 3.55539 17.8674 3.50271 18 3.50271H19H19.5V3.00271V2.00271C19.5 1.8701 19.5527 1.74292 19.6465 1.64915C19.7402 1.55539 19.8674 1.50271 20 1.50271C20.1326 1.50271 20.2598 1.55539 20.3536 1.64915C20.4473 1.74292 20.5 1.8701 20.5 2.00271V3.00271V3.50271H21H22C22.1326 3.50271 22.2598 3.55539 22.3536 3.64915C22.4473 3.74292 22.5 3.8701 22.5 4.00271C22.5 4.13532 22.4473 4.26249 22.3536 4.35626C22.2598 4.45003 22.1326 4.50271 22 4.50271H21H20.5V5.00271V6.00271C20.5 6.13532 20.4473 6.26249 20.3536 6.35626C20.2598 6.45003 20.1326 6.50271 20 6.50271C19.8674 6.50271 19.7402 6.45003 19.6465 6.35626C19.5527 6.26249 19.5 6.13532 19.5 6.00271V5.00271ZM12 1.50271V1.50283L12.0112 1.50258C12.7197 1.48671 13.4279 1.54401 14.1247 1.67355C14.2587 1.70111 14.3766 1.78044 14.4525 1.89437C14.529 2.00908 14.5568 2.14947 14.5297 2.28465C14.5027 2.41983 14.423 2.53874 14.3083 2.61521C14.194 2.69146 14.0541 2.71929 13.9192 2.69265C11.9182 2.28098 9.8377 2.52535 7.98648 3.38953C6.13476 4.25393 4.61114 5.6924 3.64177 7.49139C2.6724 9.29039 2.30897 11.354 2.60543 13.3759C2.90188 15.3979 3.84242 17.2703 5.28742 18.7153C6.73242 20.1603 8.60485 21.1008 10.6268 21.3973C12.6487 21.6937 14.7123 21.3303 16.5113 20.3609C18.3103 19.3916 19.7488 17.868 20.6132 16.0162C21.4775 14.1646 21.7218 12.0837 21.3098 10.0823C21.2967 10.018 21.2964 9.95185 21.3089 9.88749C21.3214 9.82302 21.3464 9.76163 21.3827 9.70684C21.4189 9.65204 21.4655 9.60493 21.52 9.56817C21.5741 9.53159 21.635 9.50598 21.699 9.49281C21.7638 9.47994 21.8305 9.48003 21.8953 9.4931C21.9603 9.50621 22.0221 9.53214 22.077 9.56937C22.1319 9.6066 22.1789 9.65439 22.2151 9.70994C22.2514 9.7655 22.2762 9.82772 22.2882 9.89297L22.2881 9.89299L22.2902 9.90312C22.4317 10.5935 22.502 11.2966 22.5 12.0013V12.0027C22.5 14.0794 21.8842 16.1095 20.7304 17.8362C19.5767 19.5629 17.9368 20.9087 16.0182 21.7034C14.0996 22.4982 11.9884 22.7061 9.95156 22.301C7.91476 21.8958 6.04384 20.8958 4.57538 19.4273C3.10693 17.9589 2.1069 16.088 1.70176 14.0512C1.29661 12.0144 1.50455 9.90316 2.29927 7.98453C3.09399 6.06591 4.4398 4.42603 6.16652 3.27228C7.89323 2.11852 9.9233 1.50271 12 1.50271ZM11.5 15.0027V9.00271C11.5 8.33967 11.7634 7.70378 12.2322 7.23494C12.7011 6.7661 13.337 6.50271 14 6.50271H15C15.663 6.50271 16.2989 6.7661 16.7678 7.23494C17.2366 7.70378 17.5 8.33967 17.5 9.00271V15.0027C17.5 15.6657 17.2366 16.3016 16.7678 16.7705C16.2989 17.2393 15.663 17.5027 15 17.5027H14C13.337 17.5027 12.7011 17.2393 12.2322 16.7705C11.7634 16.3016 11.5 15.6657 11.5 15.0027ZM16.5 15.0027V9.00271C16.5 8.60488 16.342 8.22335 16.0607 7.94205C15.7794 7.66074 15.3978 7.50271 15 7.50271H14C13.6022 7.50271 13.2206 7.66074 12.9393 7.94205C12.658 8.22335 12.5 8.60488 12.5 9.00271V15.0027C12.5 15.4005 12.658 15.7821 12.9393 16.0634C13.2206 16.3447 13.6022 16.5027 14 16.5027H15C15.3978 16.5027 15.7794 16.3447 16.0607 16.0634C16.342 15.7821 16.5 15.4005 16.5 15.0027ZM7.5 17.0027V7.00271C7.5 6.8701 7.55268 6.74292 7.64645 6.64915C7.74022 6.55539 7.8674 6.50271 8 6.50271C8.13261 6.50271 8.25979 6.55539 8.35356 6.64915C8.44733 6.74292 8.5 6.8701 8.5 7.00271V17.0027C8.5 17.1353 8.44733 17.2625 8.35356 17.3563C8.25979 17.45 8.13261 17.5027 8 17.5027C7.8674 17.5027 7.74022 17.45 7.64645 17.3563C7.55268 17.2625 7.5 17.1353 7.5 17.0027Z" fill="#111111" stroke="#111111"/>
</svg>
