<svg width="24" height="24" viewBox="0 0 24 24" fill="none" xmlns="http://www.w3.org/2000/svg">
<mask id="path-1-inside-1_2239_7189" fill="white">
<path d="M18 5.00271H19V6.00271C19 6.26792 19.1054 6.52228 19.2929 6.70981C19.4804 6.89735 19.7348 7.00271 20 7.00271C20.2652 7.00271 20.5196 6.89735 20.7071 6.70981C20.8946 6.52228 21 6.26792 21 6.00271V5.00271H22C22.2652 5.00271 22.5196 4.89735 22.7071 4.70981C22.8946 4.52228 23 4.26792 23 4.00271C23 3.73749 22.8946 3.48314 22.7071 3.2956C22.5196 3.10806 22.2652 3.00271 22 3.00271H21V2.00271C21 1.73749 20.8946 1.48314 20.7071 1.2956C20.5196 1.10806 20.2652 1.00271 20 1.00271C19.7348 1.00271 19.4804 1.10806 19.2929 1.2956C19.1054 1.48314 19 1.73749 19 2.00271V3.00271H18C17.7348 3.00271 17.4804 3.10806 17.2929 3.2956C17.1054 3.48314 17 3.73749 17 4.00271C17 4.26792 17.1054 4.52228 17.2929 4.70981C17.4804 4.89735 17.7348 5.00271 18 5.00271ZM11 9.00271C11 9.26793 11.1054 9.52228 11.2929 9.70982C11.4804 9.89735 11.7348 10.0027 12 10.0027C12.2652 10.0027 12.5196 9.89735 12.7071 9.70982C12.8946 9.52228 13 9.26793 13 9.00271C13 8.73749 13.1054 8.48314 13.2929 8.2956C13.4804 8.10807 13.7348 8.00271 14 8.00271H15C15.2652 8.00271 15.5196 8.10807 15.7071 8.2956C15.8946 8.48314 16 8.73749 16 9.00271V10.0027C16 10.2679 15.8946 10.5223 15.7071 10.7098C15.5196 10.8974 15.2652 11.0027 15 11.0027H14.5C14.2348 11.0027 13.9804 11.1081 13.7929 11.2956C13.6054 11.4831 13.5 11.7375 13.5 12.0027C13.5 12.2679 13.6054 12.5223 13.7929 12.7098C13.9804 12.8974 14.2348 13.0027 14.5 13.0027H15C15.2652 13.0027 15.5196 13.1081 15.7071 13.2956C15.8946 13.4831 16 13.7375 16 14.0027V15.0027C16 15.2679 15.8946 15.5223 15.7071 15.7098C15.5196 15.8974 15.2652 16.0027 15 16.0027H14C13.7348 16.0027 13.4804 15.8974 13.2929 15.7098C13.1054 15.5223 13 15.2679 13 15.0027C13 14.7375 12.8946 14.4831 12.7071 14.2956C12.5196 14.1081 12.2652 14.0027 12 14.0027C11.7348 14.0027 11.4804 14.1081 11.2929 14.2956C11.1054 14.4831 11 14.7375 11 15.0027C11 15.7984 11.3161 16.5614 11.8787 17.124C12.4413 17.6866 13.2044 18.0027 14 18.0027H15C15.7957 18.0027 16.5587 17.6866 17.1213 17.124C17.6839 16.5614 18 15.7984 18 15.0027V14.0027C17.9956 13.2627 17.7178 12.5503 17.22 12.0027C17.7178 11.4551 17.9956 10.7428 18 10.0027V9.00271C18 8.20706 17.6839 7.444 17.1213 6.88139C16.5587 6.31878 15.7957 6.00271 15 6.00271H14C13.2044 6.00271 12.4413 6.31878 11.8787 6.88139C11.3161 7.444 11 8.20706 11 9.00271ZM7 7.00271V17.0027C7 17.2679 7.10536 17.5223 7.2929 17.7098C7.48043 17.8974 7.73479 18.0027 8 18.0027C8.26522 18.0027 8.51958 17.8974 8.70711 17.7098C8.89465 17.5223 9 17.2679 9 17.0027V7.00271C9 6.73749 8.89465 6.48314 8.70711 6.2956C8.51958 6.10807 8.26522 6.00271 8 6.00271C7.73479 6.00271 7.48043 6.10807 7.2929 6.2956C7.10536 6.48314 7 6.73749 7 7.00271ZM21.6 9.00271C21.4713 9.02895 21.349 9.08029 21.2402 9.1538C21.1313 9.22731 21.038 9.32154 20.9656 9.43112C20.8931 9.5407 20.843 9.66348 20.818 9.79243C20.793 9.92139 20.7937 10.054 20.82 10.1827C21.2104 12.0789 20.979 14.0505 20.1601 15.8047C19.3412 17.559 17.9785 19.0024 16.2741 19.9208C14.5698 20.8391 12.6148 21.1834 10.6993 20.9026C8.78381 20.6217 7.00992 19.7307 5.64097 18.3617C4.27202 16.9928 3.38099 15.2189 3.10014 13.3034C2.81929 11.3879 3.16359 9.43288 4.08194 7.72857C5.00028 6.02426 6.44372 4.6615 8.19798 3.84259C9.95224 3.02368 11.9238 2.79227 13.82 3.18271C14.0852 3.23575 14.3606 3.18127 14.5857 3.03124C14.8107 2.88121 14.967 2.64792 15.02 2.38271C15.073 2.11749 15.0186 1.84207 14.8685 1.61702C14.7185 1.39198 14.4852 1.23575 14.22 1.18271C13.4882 1.04636 12.7442 0.986039 12 1.00271C9.82441 1.00271 7.69767 1.64785 5.88873 2.85654C4.07979 4.06524 2.66989 5.7832 1.83733 7.79319C1.00477 9.80318 0.786929 12.0149 1.21137 14.1487C1.6358 16.2825 2.68345 18.2425 4.22183 19.7809C5.76021 21.3193 7.72022 22.3669 9.85401 22.7913C11.9878 23.2158 14.1995 22.9979 16.2095 22.1654C18.2195 21.3328 19.9375 19.9229 21.1462 18.114C22.3549 16.305 23 14.1783 23 12.0027C23.0021 11.2638 22.9284 10.5266 22.78 9.80271C22.7561 9.6722 22.7064 9.54777 22.6338 9.43666C22.5613 9.32554 22.4674 9.22998 22.3576 9.15552C22.2478 9.08106 22.1242 9.0292 21.9942 9.00297C21.8641 8.97673 21.7301 8.97665 21.6 9.00271Z"/>
</mask>
<path d="M18 5.00271H19V6.00271C19 6.26792 19.1054 6.52228 19.2929 6.70981C19.4804 6.89735 19.7348 7.00271 20 7.00271C20.2652 7.00271 20.5196 6.89735 20.7071 6.70981C20.8946 6.52228 21 6.26792 21 6.00271V5.00271H22C22.2652 5.00271 22.5196 4.89735 22.7071 4.70981C22.8946 4.52228 23 4.26792 23 4.00271C23 3.73749 22.8946 3.48314 22.7071 3.2956C22.5196 3.10806 22.2652 3.00271 22 3.00271H21V2.00271C21 1.73749 20.8946 1.48314 20.7071 1.2956C20.5196 1.10806 20.2652 1.00271 20 1.00271C19.7348 1.00271 19.4804 1.10806 19.2929 1.2956C19.1054 1.48314 19 1.73749 19 2.00271V3.00271H18C17.7348 3.00271 17.4804 3.10806 17.2929 3.2956C17.1054 3.48314 17 3.73749 17 4.00271C17 4.26792 17.1054 4.52228 17.2929 4.70981C17.4804 4.89735 17.7348 5.00271 18 5.00271ZM11 9.00271C11 9.26793 11.1054 9.52228 11.2929 9.70982C11.4804 9.89735 11.7348 10.0027 12 10.0027C12.2652 10.0027 12.5196 9.89735 12.7071 9.70982C12.8946 9.52228 13 9.26793 13 9.00271C13 8.73749 13.1054 8.48314 13.2929 8.2956C13.4804 8.10807 13.7348 8.00271 14 8.00271H15C15.2652 8.00271 15.5196 8.10807 15.7071 8.2956C15.8946 8.48314 16 8.73749 16 9.00271V10.0027C16 10.2679 15.8946 10.5223 15.7071 10.7098C15.5196 10.8974 15.2652 11.0027 15 11.0027H14.5C14.2348 11.0027 13.9804 11.1081 13.7929 11.2956C13.6054 11.4831 13.5 11.7375 13.5 12.0027C13.5 12.2679 13.6054 12.5223 13.7929 12.7098C13.9804 12.8974 14.2348 13.0027 14.5 13.0027H15C15.2652 13.0027 15.5196 13.1081 15.7071 13.2956C15.8946 13.4831 16 13.7375 16 14.0027V15.0027C16 15.2679 15.8946 15.5223 15.7071 15.7098C15.5196 15.8974 15.2652 16.0027 15 16.0027H14C13.7348 16.0027 13.4804 15.8974 13.2929 15.7098C13.1054 15.5223 13 15.2679 13 15.0027C13 14.7375 12.8946 14.4831 12.7071 14.2956C12.5196 14.1081 12.2652 14.0027 12 14.0027C11.7348 14.0027 11.4804 14.1081 11.2929 14.2956C11.1054 14.4831 11 14.7375 11 15.0027C11 15.7984 11.3161 16.5614 11.8787 17.124C12.4413 17.6866 13.2044 18.0027 14 18.0027H15C15.7957 18.0027 16.5587 17.6866 17.1213 17.124C17.6839 16.5614 18 15.7984 18 15.0027V14.0027C17.9956 13.2627 17.7178 12.5503 17.22 12.0027C17.7178 11.4551 17.9956 10.7428 18 10.0027V9.00271C18 8.20706 17.6839 7.444 17.1213 6.88139C16.5587 6.31878 15.7957 6.00271 15 6.00271H14C13.2044 6.00271 12.4413 6.31878 11.8787 6.88139C11.3161 7.444 11 8.20706 11 9.00271ZM7 7.00271V17.0027C7 17.2679 7.10536 17.5223 7.2929 17.7098C7.48043 17.8974 7.73479 18.0027 8 18.0027C8.26522 18.0027 8.51958 17.8974 8.70711 17.7098C8.89465 17.5223 9 17.2679 9 17.0027V7.00271C9 6.73749 8.89465 6.48314 8.70711 6.2956C8.51958 6.10807 8.26522 6.00271 8 6.00271C7.73479 6.00271 7.48043 6.10807 7.2929 6.2956C7.10536 6.48314 7 6.73749 7 7.00271ZM21.6 9.00271C21.4713 9.02895 21.349 9.08029 21.2402 9.1538C21.1313 9.22731 21.038 9.32154 20.9656 9.43112C20.8931 9.5407 20.843 9.66348 20.818 9.79243C20.793 9.92139 20.7937 10.054 20.82 10.1827C21.2104 12.0789 20.979 14.0505 20.1601 15.8047C19.3412 17.559 17.9785 19.0024 16.2741 19.9208C14.5698 20.8391 12.6148 21.1834 10.6993 20.9026C8.78381 20.6217 7.00992 19.7307 5.64097 18.3617C4.27202 16.9928 3.38099 15.2189 3.10014 13.3034C2.81929 11.3879 3.16359 9.43288 4.08194 7.72857C5.00028 6.02426 6.44372 4.6615 8.19798 3.84259C9.95224 3.02368 11.9238 2.79227 13.82 3.18271C14.0852 3.23575 14.3606 3.18127 14.5857 3.03124C14.8107 2.88121 14.967 2.64792 15.02 2.38271C15.073 2.11749 15.0186 1.84207 14.8685 1.61702C14.7185 1.39198 14.4852 1.23575 14.22 1.18271C13.4882 1.04636 12.7442 0.986039 12 1.00271C9.82441 1.00271 7.69767 1.64785 5.88873 2.85654C4.07979 4.06524 2.66989 5.7832 1.83733 7.79319C1.00477 9.80318 0.786929 12.0149 1.21137 14.1487C1.6358 16.2825 2.68345 18.2425 4.22183 19.7809C5.76021 21.3193 7.72022 22.3669 9.85401 22.7913C11.9878 23.2158 14.1995 22.9979 16.2095 22.1654C18.2195 21.3328 19.9375 19.9229 21.1462 18.114C22.3549 16.305 23 14.1783 23 12.0027C23.0021 11.2638 22.9284 10.5266 22.78 9.80271C22.7561 9.6722 22.7064 9.54777 22.6338 9.43666C22.5613 9.32554 22.4674 9.22998 22.3576 9.15552C22.2478 9.08106 22.1242 9.0292 21.9942 9.00297C21.8641 8.97673 21.7301 8.97665 21.6 9.00271Z" fill="#111111" stroke="#111111" stroke-width="2" mask="url(#path-1-inside-1_2239_7189)"/>
</svg>
