<svg width="24" height="24" viewBox="0 0 24 24" fill="none" xmlns="http://www.w3.org/2000/svg">
<path d="M4.9998 6.75H5.4998H5.9998H4.9998ZM4.9998 6.75C4.84791 6.74918 4.69782 6.78298 4.56094 6.84882M4.9998 6.75L4.56094 6.84882M4.56094 6.84882C4.42406 6.91466 4.30397 7.01082 4.2098 7.13L4.56094 6.84882ZM19.3975 7.43999L19.4025 7.44629L19.4076 7.45242C19.4577 7.51179 19.4933 7.58201 19.5115 7.65752C19.5293 7.73106 19.5301 7.80764 19.514 7.88151L18.8661 10.3532L18.8661 10.3532L18.865 10.3575C18.7448 10.8335 18.4871 11.2636 18.124 11.5941C17.7609 11.9246 17.3085 12.1408 16.8234 12.2159L16.4452 12.2744L16.4029 12.6546L15.6229 19.6546L15.561 20.21H16.1198H16.9998C17.1324 20.21 17.2596 20.2627 17.3534 20.3564C17.4471 20.4502 17.4998 20.5774 17.4998 20.71C17.4998 20.8426 17.4471 20.9698 17.3534 21.0636C17.2596 21.1573 17.1324 21.21 16.9998 21.21H6.9998C6.86719 21.21 6.74001 21.1573 6.64625 21.0636C6.55248 20.9698 6.4998 20.8426 6.4998 20.71C6.4998 20.5774 6.55248 20.4502 6.64625 20.3564C6.74002 20.2627 6.86719 20.21 6.9998 20.21H7.8798H8.43861L8.37672 19.6546L7.59672 12.6546L7.55385 12.2699L7.1706 12.215C6.68196 12.1451 6.22495 11.9322 5.85717 11.6029C5.4899 11.2742 5.22803 10.8442 5.10445 10.367L4.48618 7.884C4.46949 7.80937 4.47013 7.73189 4.48808 7.65752C4.50631 7.58201 4.54187 7.51179 4.59196 7.45242L4.59713 7.44629L4.60211 7.43999C4.64919 7.3804 4.70924 7.33232 4.77768 7.2994C4.84612 7.26648 4.92116 7.24958 4.99711 7.24999V7.25H4.9998H5.9998H6.4998V6.75V6.25039C6.50123 5.43101 6.79009 4.63809 7.31606 4.0098C7.84213 3.3814 8.57203 2.95753 9.37855 2.81206L9.56569 2.77831L9.68311 2.62872C9.77559 2.5109 9.89361 2.4156 10.0283 2.35C10.1628 2.28444 10.3105 2.25025 10.4602 2.25H11.4598C11.725 2.25 11.9794 2.35536 12.1669 2.54289C12.3544 2.73043 12.4598 2.98478 12.4598 3.25C12.4598 3.51522 12.3544 3.76957 12.1669 3.95711C11.9794 4.14464 11.725 4.25 11.4598 4.25H10.4674C10.2203 4.24161 9.98501 4.14197 9.80699 3.97019L9.60075 3.77119L9.3248 3.84857C8.80086 3.99549 8.33916 4.30934 8.00979 4.74249C7.68041 5.17564 7.50136 5.70442 7.4998 6.24857V6.25V6.75V7.25H7.9998L18.9998 7.25001L19.0025 7.24999C19.0784 7.24958 19.1535 7.26648 19.2219 7.2994C19.2904 7.33232 19.3504 7.3804 19.3975 7.43999ZM14.0998 20.25H14.5472L14.5967 19.8054L15.3767 12.8054L15.4386 12.25H14.8798H9.1198H8.56099L8.62288 12.8054L9.40288 19.8054L9.45242 20.25H9.8998H14.0998ZM6.07189 10.1093L6.07178 10.1093L6.07436 10.1198C6.15649 10.4526 6.35013 10.7472 6.62305 10.9547C6.89385 11.1605 7.22649 11.2681 7.56636 11.26H16.4032C16.7431 11.2681 17.0757 11.1605 17.3465 10.9547C17.6194 10.7473 17.813 10.4528 17.8952 10.12C17.8952 10.12 17.8952 10.1199 17.8952 10.1198L18.2051 8.87035L18.3589 8.25H17.7198H6.2798H5.65541L5.79189 8.85929L6.07189 10.1093Z" fill="#111111" stroke="#111111"/>
</svg>
