<svg width="24" height="24" viewBox="0 0 24 24" fill="none" xmlns="http://www.w3.org/2000/svg">
<path d="M6.99318 20.4982L7.60163 19.6961C8.18951 18.921 8.50528 17.9737 8.50001 17.0009L8.49999 16.9982L8.5 13.9982V13.4982H9H15C15.1326 13.4982 15.2598 13.4455 15.3536 13.3518C15.4473 13.258 15.5 13.1308 15.5 12.9982C15.5 12.8656 15.4473 12.7384 15.3536 12.6447C15.2598 12.5509 15.1326 12.4982 15 12.4982H9H8.5V11.9982V8.88863V8.88822H9C8.99914 7.81055 9.3543 6.76278 10.0103 5.90775C10.6663 5.05273 11.5863 4.43835 12.6275 4.1601C13.6686 3.88186 14.7725 3.95534 15.7675 4.36912C16.7626 4.7829 17.5931 5.5138 18.13 6.44822L6.99318 20.4982ZM6.99318 20.4982H8H20C20.1326 20.4982 20.2598 20.5509 20.3536 20.6447C20.4473 20.7384 20.5 20.8656 20.5 20.9982C20.5 21.1308 20.4473 21.258 20.3536 21.3518C20.2598 21.4455 20.1326 21.4982 20 21.4982H4C3.86739 21.4982 3.74021 21.4455 3.64645 21.3518C3.55268 21.258 3.5 21.1308 3.5 20.9982C3.5 20.8656 3.55268 20.7384 3.64645 20.6447C3.74021 20.5509 3.86739 20.4982 4 20.4982C4.92826 20.4982 5.8185 20.1295 6.47487 19.4731C7.13125 18.8167 7.5 17.9265 7.5 16.9982V13.9982V13.4982H7H4C3.86739 13.4982 3.74021 13.4455 3.64645 13.3518C3.55268 13.258 3.5 13.1308 3.5 12.9982C3.5 12.8656 3.55268 12.7384 3.64645 12.6447C3.74021 12.5509 3.86739 12.4982 4 12.4982H7H7.5V11.9982V8.88898C7.50414 7.4828 7.97128 6.11711 8.82925 5.00297C9.68735 3.88866 10.8886 3.08804 12.2473 2.72487C13.6061 2.3617 15.0466 2.4562 16.3462 2.99378C17.6451 3.53103 18.7309 4.48091 19.4361 5.69673C19.5005 5.81119 19.5174 5.94644 19.4829 6.07323C19.4482 6.20062 19.3646 6.30914 19.2502 6.37509L19.2472 6.37684C19.1904 6.4101 19.1277 6.43184 19.0625 6.44079C18.9973 6.44975 18.931 6.44575 18.8673 6.42903C18.8037 6.41231 18.744 6.38319 18.6916 6.34334C18.6395 6.30371 18.5957 6.25423 18.5627 6.19772L6.99318 20.4982Z" fill="#111111" stroke="#111111"/>
</svg>
