<svg width="24" height="24" viewBox="0 0 24 24" fill="none" xmlns="http://www.w3.org/2000/svg">
<path d="M13.5 19.8804L16.45 21.83C16.611 21.9428 16.8034 22.0022 17 22L13.5 19.8804ZM13.5 19.8804V19.55H13L12.7243 19.9671L13 20.1493V21C13 21.2652 12.8946 21.5196 12.7071 21.7071C12.5196 21.8946 12.2652 22 12 22C11.7348 22 11.4804 21.8946 11.2929 21.7071C11.1054 21.5196 11 21.2652 11 21V20.1493L11.2757 19.9671L11 19.55H10.5V19.8804L7.55 21.83C7.38896 21.9428 7.1966 22.0022 7 22C6.78053 22.0052 6.56544 21.938 6.38793 21.8089C6.21042 21.6797 6.08035 21.4957 6.01779 21.2852C5.95523 21.0748 5.96366 20.8496 6.04177 20.6445C6.11988 20.4393 6.26333 20.2655 6.45 20.15L11 17.15V16.5V16H10.5H3C2.73478 16 2.48043 15.8946 2.29289 15.7071C2.10536 15.5196 2 15.2652 2 15C2 14.7348 2.10536 14.4804 2.29289 14.2929C2.48043 14.1054 2.73478 14 3 14H3.5H4V13.5V4.5V4H3.5H3C2.73478 4 2.48043 3.89464 2.29289 3.70711C2.10536 3.51957 2 3.26522 2 3C2 2.73478 2.10536 2.48043 2.29289 2.29289C2.48043 2.10536 2.73478 2 3 2H21C21.2652 2 21.5196 2.10536 21.7071 2.29289C21.8946 2.48043 22 2.73478 22 3C22 3.26522 21.8946 3.51957 21.7071 3.70711C21.5196 3.89464 21.2652 4 21 4L13.5 19.8804ZM10.5895 10.278L10.5896 10.278L10.5869 10.2739L8.58687 7.25393L8.57401 7.2345L8.55939 7.21635C8.51575 7.16217 8.48389 7.09948 8.46586 7.03228C8.44783 6.96509 8.44402 6.89488 8.45467 6.82612C8.46533 6.75738 8.49021 6.69161 8.52773 6.63302C8.56526 6.57444 8.61459 6.52433 8.67258 6.4859C8.73058 6.44747 8.79595 6.42157 8.86453 6.40984C8.9331 6.39812 9.00337 6.40084 9.07084 6.41782C9.1383 6.43481 9.20148 6.46568 9.25633 6.50848C9.31118 6.55127 9.3565 6.60504 9.38939 6.66635L9.40056 6.68718L9.41365 6.70687L10.7437 8.70687L11.0833 9.21762L11.5151 8.78199L12.6446 7.64246C12.6447 7.64238 12.6448 7.6423 12.6449 7.64223C12.6973 7.58955 12.7608 7.54923 12.8308 7.52418C12.9002 7.49933 12.9742 7.49014 13.0476 7.49725C13.1205 7.50557 13.1908 7.52986 13.2533 7.56841C13.3164 7.60732 13.3701 7.65979 13.4105 7.72202L13.4104 7.72204L13.414 7.72735L15.412 10.7244C15.4123 10.7248 15.4126 10.7252 15.4128 10.7256C15.4846 10.8356 15.5102 10.9695 15.4841 11.0982C15.4578 11.2274 15.3816 11.3411 15.272 11.4144L15.272 11.4143L15.2632 11.4205C15.1878 11.4733 15.0977 11.5011 15.0057 11.5L15.0057 11.4999L14.9958 11.5C14.9144 11.5007 14.834 11.4815 14.7617 11.444C14.6905 11.4071 14.6293 11.3538 14.5832 11.2884L13.2563 9.29313L12.9167 8.78238L12.4849 9.21801L11.3554 10.3575C11.3553 10.3576 11.3553 10.3576 11.3553 10.3576C11.3028 10.4104 11.2393 10.4508 11.1692 10.4758C11.0999 10.5007 11.0258 10.5099 10.9525 10.5028C10.8795 10.4944 10.8092 10.4701 10.7467 10.4316C10.6836 10.3927 10.6299 10.3402 10.5895 10.278ZM19.5 14V14.5H20H21C21.1326 14.5 21.2598 14.5527 21.3536 14.6464C21.4473 14.7402 21.5 14.8674 21.5 15C21.5 15.1326 21.4473 15.2598 21.3536 15.3536C21.2598 15.4473 21.1326 15.5 21 15.5H13H12.5V16V17.17V17.4392L12.7248 17.5874L17.2711 20.585C17.2716 20.5854 17.2721 20.5857 17.2726 20.586C17.3606 20.6456 17.4273 20.7316 17.4631 20.8316C17.499 20.9322 17.5019 21.0416 17.4711 21.1439C17.4404 21.2463 17.3777 21.336 17.2922 21.4001C17.2067 21.4642 17.103 21.4992 16.9961 21.5L16.9943 21.5C16.9023 21.5011 16.8122 21.4733 16.7368 21.4205L16.7369 21.4203L16.7257 21.4129L13.2757 19.1329L12.5 18.6202V19.55V21C12.5 21.1326 12.4473 21.2598 12.3536 21.3536C12.2598 21.4473 12.1326 21.5 12 21.5C11.8674 21.5 11.7402 21.4473 11.6464 21.3536C11.5527 21.2598 11.5 21.1326 11.5 21V19.55V18.6202L10.7243 19.1329L7.27433 21.4129L7.27423 21.4127L7.26316 21.4205C7.18778 21.4733 7.09774 21.5011 7.00571 21.5L6.99694 21.4999L6.98817 21.5001C6.87843 21.5027 6.77088 21.4692 6.68213 21.4046C6.59338 21.34 6.52834 21.248 6.49706 21.1428C6.46578 21.0375 6.46999 20.925 6.50905 20.8224C6.54811 20.7198 6.61983 20.6329 6.71316 20.5751L6.71925 20.5714L6.72523 20.5674L11.2752 17.5674L11.5 17.4192V17.15V16V15.5H11H3C2.86739 15.5 2.74021 15.4473 2.64645 15.3536C2.55268 15.2598 2.5 15.1326 2.5 15C2.5 14.8674 2.55268 14.7402 2.64645 14.6464C2.74021 14.5527 2.86739 14.5 3 14.5H4H4.5V14V4V3.5H4H3C2.86739 3.5 2.74021 3.44732 2.64645 3.35355C2.55268 3.25979 2.5 3.13261 2.5 3C2.5 2.86739 2.55268 2.74021 2.64645 2.64645C2.74021 2.55268 2.86739 2.5 3 2.5H21C21.1326 2.5 21.2598 2.55268 21.3536 2.64645C21.4473 2.74021 21.5 2.86739 21.5 3C21.5 3.13261 21.4473 3.25979 21.3536 3.35355C21.2598 3.44732 21.1326 3.5 21 3.5H20H19.5V4V14ZM18 14.5H18.5V14V4V3.5H18H6H5.5V4V14V14.5H6H18Z" fill="#111111" stroke="#111111"/>
</svg>
