<svg width="24" height="24" viewBox="0 0 24 24" fill="none" xmlns="http://www.w3.org/2000/svg">
<path d="M13.5 19.8804L16.45 21.83C16.611 21.9428 16.8034 22.0022 17 22L13.5 19.8804ZM13.5 19.8804V19.55H13L12.7243 19.9671L13 20.1493V21C13 21.2652 12.8946 21.5196 12.7071 21.7071C12.5196 21.8946 12.2652 22 12 22C11.7348 22 11.4804 21.8946 11.2929 21.7071C11.1054 21.5196 11 21.2652 11 21V20.1493L11.2757 19.9671L11 19.55H10.5V19.8804L7.55 21.83C7.38896 21.9428 7.1966 22.0022 7 22C6.78053 22.0052 6.56544 21.938 6.38793 21.8089C6.21042 21.6797 6.08035 21.4957 6.01779 21.2852C5.95523 21.0748 5.96366 20.8496 6.04177 20.6445C6.11988 20.4393 6.26333 20.2655 6.45 20.15L11 17.15V16.5V16H10.5H3C2.73478 16 2.48043 15.8946 2.29289 15.7071C2.10536 15.5196 2 15.2652 2 15C2 14.7348 2.10536 14.4804 2.29289 14.2929C2.48043 14.1054 2.73478 14 3 14H3.5H4V13.5V4.5V4H3.5H3C2.73478 4 2.48043 3.89464 2.29289 3.70711C2.10536 3.51957 2 3.26522 2 3C2 2.73478 2.10536 2.48043 2.29289 2.29289C2.48043 2.10536 2.73478 2 3 2H21C21.2652 2 21.5196 2.10536 21.7071 2.29289C21.8946 2.48043 22 2.73478 22 3C22 3.26522 21.8946 3.51957 21.7071 3.70711C21.5196 3.89464 21.2652 4 21 4L13.5 19.8804ZM9.645 11.3579L9.6421 11.355C9.59524 11.3085 9.55804 11.2532 9.53266 11.1923C9.50727 11.1314 9.4942 11.066 9.4942 11C9.4942 10.934 9.50727 10.8686 9.53266 10.8077C9.55804 10.7468 9.59524 10.6915 9.6421 10.645L9.64219 10.6449L10.9422 9.35492L11.2999 9L10.9422 8.64508L9.64355 7.35645C9.64336 7.35626 9.64317 7.35607 9.64299 7.35588C9.54881 7.2614 9.49591 7.13343 9.49591 7C9.49591 6.86631 9.54902 6.73809 9.64355 6.64355C9.73809 6.54902 9.86631 6.49591 10 6.49591C10.1334 6.49591 10.2614 6.54882 10.3559 6.64303C10.3561 6.6432 10.3563 6.64338 10.3564 6.64355L11.6451 7.94219L12 8.29985L12.3549 7.94219L13.6436 6.64355C13.6437 6.64338 13.6439 6.6432 13.6441 6.64303C13.7386 6.54882 13.8666 6.49591 14 6.49591C14.1337 6.49591 14.2619 6.54902 14.3564 6.64355C14.451 6.73809 14.5041 6.86631 14.5041 7C14.5041 7.13347 14.4512 7.26148 14.3569 7.35597C14.3568 7.35613 14.3566 7.35629 14.3564 7.35645L13.0578 8.64508L12.7001 9L13.0578 9.35492L14.3578 10.6449L14.3579 10.645C14.4048 10.6915 14.442 10.7468 14.4673 10.8077C14.4927 10.8686 14.5058 10.934 14.5058 11C14.5058 11.066 14.4927 11.1314 14.4673 11.1923C14.442 11.2532 14.4048 11.3085 14.3579 11.355L14.355 11.3579C14.3085 11.4048 14.2532 11.442 14.1923 11.4673C14.1314 11.4927 14.066 11.5058 14 11.5058C13.934 11.5058 13.8686 11.4927 13.8077 11.4673C13.7468 11.442 13.6915 11.4048 13.645 11.3579L13.6449 11.3578L12.3549 10.0578L12 9.70015L11.6451 10.0578L10.3551 11.3578L10.355 11.3579C10.3085 11.4048 10.2532 11.442 10.1923 11.4673C10.1314 11.4927 10.066 11.5058 10 11.5058C9.93399 11.5058 9.86864 11.4927 9.80771 11.4673C9.74678 11.442 9.69148 11.4048 9.645 11.3579ZM19.5 14V14.5H20H21C21.1326 14.5 21.2598 14.5527 21.3536 14.6464C21.4473 14.7402 21.5 14.8674 21.5 15C21.5 15.1326 21.4473 15.2598 21.3536 15.3536C21.2598 15.4473 21.1326 15.5 21 15.5H13H12.5V16V17.17V17.4392L12.7248 17.5874L17.2711 20.585C17.2716 20.5854 17.2721 20.5857 17.2726 20.586C17.3606 20.6456 17.4273 20.7316 17.4631 20.8316C17.499 20.9322 17.5019 21.0416 17.4711 21.1439C17.4404 21.2463 17.3777 21.336 17.2922 21.4001C17.2067 21.4642 17.103 21.4992 16.9961 21.5L16.9943 21.5C16.9023 21.5011 16.8122 21.4733 16.7368 21.4205L16.7369 21.4203L16.7257 21.4129L13.2757 19.1329L12.5 18.6202V19.55V21C12.5 21.1326 12.4473 21.2598 12.3536 21.3536C12.2598 21.4473 12.1326 21.5 12 21.5C11.8674 21.5 11.7402 21.4473 11.6464 21.3536C11.5527 21.2598 11.5 21.1326 11.5 21V19.55V18.6202L10.7243 19.1329L7.27433 21.4129L7.27423 21.4127L7.26316 21.4205C7.18778 21.4733 7.09774 21.5011 7.00571 21.5L6.99694 21.4999L6.98817 21.5001C6.87843 21.5027 6.77088 21.4692 6.68213 21.4046C6.59338 21.34 6.52834 21.248 6.49706 21.1428C6.46578 21.0375 6.46999 20.925 6.50905 20.8224C6.54811 20.7198 6.61983 20.6329 6.71316 20.5751L6.71925 20.5714L6.72523 20.5674L11.2752 17.5674L11.5 17.4192V17.15V16V15.5H11H3C2.86739 15.5 2.74021 15.4473 2.64645 15.3536C2.55268 15.2598 2.5 15.1326 2.5 15C2.5 14.8674 2.55268 14.7402 2.64645 14.6464C2.74021 14.5527 2.86739 14.5 3 14.5H4H4.5V14V4V3.5H4H3C2.86739 3.5 2.74021 3.44732 2.64645 3.35355C2.55268 3.25979 2.5 3.13261 2.5 3C2.5 2.86739 2.55268 2.74021 2.64645 2.64645C2.74021 2.55268 2.86739 2.5 3 2.5H21C21.1326 2.5 21.2598 2.55268 21.3536 2.64645C21.4473 2.74021 21.5 2.86739 21.5 3C21.5 3.13261 21.4473 3.25979 21.3536 3.35355C21.2598 3.44732 21.1326 3.5 21 3.5H20H19.5V4V14ZM18 14.5H18.5V14V4V3.5H18H6H5.5V4V14V14.5H6H18Z" fill="#111111" stroke="#111111"/>
</svg>
