<svg width="24" height="24" viewBox="0 0 24 24" fill="none" xmlns="http://www.w3.org/2000/svg">
<path d="M13.5 19.8804L16.45 21.83C16.611 21.9428 16.8034 22.0022 17 22L13.5 19.8804ZM13.5 19.8804V19.55H13L12.7243 19.9671L13 20.1493V21C13 21.2652 12.8946 21.5196 12.7071 21.7071C12.5196 21.8946 12.2652 22 12 22C11.7348 22 11.4804 21.8946 11.2929 21.7071C11.1054 21.5196 11 21.2652 11 21V20.1493L11.2757 19.9671L11 19.55H10.5V19.8804L7.55 21.83C7.38896 21.9428 7.1966 22.0022 7 22C6.78053 22.0052 6.56544 21.938 6.38793 21.8089C6.21042 21.6797 6.08035 21.4957 6.01779 21.2852C5.95523 21.0748 5.96366 20.8496 6.04177 20.6445C6.11988 20.4393 6.26333 20.2655 6.45 20.15L11 17.15V16.5V16H10.5H3C2.73478 16 2.48043 15.8946 2.29289 15.7071C2.10536 15.5196 2 15.2652 2 15C2 14.7348 2.10536 14.4804 2.29289 14.2929C2.48043 14.1054 2.73478 14 3 14L13.5 19.8804ZM19.5 14V14.5H20H21C21.1326 14.5 21.2598 14.5527 21.3536 14.6464C21.4473 14.7402 21.5 14.8674 21.5 15C21.5 15.1326 21.4473 15.2598 21.3536 15.3536C21.2598 15.4473 21.1326 15.5 21 15.5H13H12.5V16V17.17V17.4392L12.7248 17.5874L17.2711 20.585C17.2716 20.5854 17.2721 20.5857 17.2726 20.586C17.3606 20.6456 17.4273 20.7316 17.4631 20.8316C17.499 20.9322 17.5019 21.0416 17.4711 21.1439C17.4404 21.2463 17.3777 21.336 17.2922 21.4001C17.2067 21.4642 17.103 21.4992 16.9961 21.5L16.9943 21.5C16.9023 21.5011 16.8122 21.4733 16.7368 21.4205L16.7369 21.4203L16.7257 21.4129L13.2757 19.1329L12.5 18.6202V19.55V21C12.5 21.1326 12.4473 21.2598 12.3536 21.3536C12.2598 21.4473 12.1326 21.5 12 21.5C11.8674 21.5 11.7402 21.4473 11.6464 21.3536C11.5527 21.2598 11.5 21.1326 11.5 21V19.55V18.6202L10.7243 19.1329L7.27433 21.4129L7.27423 21.4127L7.26316 21.4205C7.18778 21.4733 7.09774 21.5011 7.00571 21.5L6.99694 21.4999L6.98817 21.5001C6.87843 21.5027 6.77088 21.4692 6.68213 21.4046C6.59338 21.34 6.52834 21.248 6.49706 21.1428C6.46578 21.0375 6.46999 20.925 6.50905 20.8224C6.54811 20.7198 6.61983 20.6329 6.71316 20.5751L6.71925 20.5714L6.72523 20.5674L11.2752 17.5674L11.5 17.4192V17.15V16V15.5H11H3C2.86739 15.5 2.74021 15.4473 2.64645 15.3536C2.55268 15.2598 2.5 15.1326 2.5 15C2.5 14.8674 2.55268 14.7402 2.64645 14.6464C2.74021 14.5527 2.86739 14.5 3 14.5H4H4.5V14V3C4.5 2.86739 4.55268 2.74021 4.64645 2.64645C4.74022 2.55268 4.86739 2.5 5 2.5H19C19.1326 2.5 19.2598 2.55268 19.3536 2.64645C19.4473 2.74021 19.5 2.86739 19.5 3V14ZM18 14.5H18.5V14V4V3.5H18H6H5.5V4V14V14.5H6H18ZM8.99741 11.5L8.99428 11.5C8.90226 11.5011 8.81222 11.4733 8.73684 11.4205L8.7369 11.4204L8.72798 11.4144C8.61837 11.3411 8.54217 11.2274 8.51594 11.0982C8.48982 10.9695 8.51542 10.8357 8.58715 10.7257C8.58742 10.7252 8.5877 10.7248 8.58798 10.7244L10.586 7.72735L10.5861 7.72737L10.5895 7.72202C10.6299 7.65979 10.6836 7.60732 10.7467 7.56841C10.8092 7.52986 10.8795 7.50557 10.9524 7.49725C11.0258 7.49014 11.0998 7.49933 11.1692 7.52418C11.2392 7.54923 11.3027 7.58955 11.3551 7.64223C11.3552 7.6423 11.3553 7.64238 11.3554 7.64246L12.4849 8.78199L12.9167 9.21762L13.2563 8.70687L14.5715 6.72914C14.6489 6.64022 14.7553 6.58131 14.8722 6.5632C14.9953 6.54412 15.1211 6.57169 15.225 6.64051C15.3288 6.70932 15.4032 6.81443 15.4336 6.93524C15.4624 7.04963 15.4498 7.17029 15.3984 7.27599L13.414 10.2526L13.4139 10.2526L13.4105 10.258C13.3701 10.3202 13.3164 10.3727 13.2533 10.4116C13.1908 10.4502 13.1205 10.4744 13.0475 10.4828C12.9742 10.4899 12.9001 10.4807 12.8308 10.4558C12.7607 10.4308 12.6972 10.3904 12.6447 10.3376C12.6447 10.3376 12.6447 10.3376 12.6446 10.3375L11.5151 9.19801L11.0833 8.76238L10.7437 9.27313L9.41365 11.2731L9.41241 11.275C9.36712 11.3438 9.30554 11.4003 9.23314 11.4396C9.16074 11.4788 9.07977 11.4996 8.99741 11.5Z" fill="#111111" stroke="#111111"/>
</svg>
