<svg width="24" height="24" viewBox="0 0 24 24" fill="none" xmlns="http://www.w3.org/2000/svg">
<path d="M13.5 19.8804L16.45 21.83C16.611 21.9428 16.8034 22.0022 17 22L13.5 19.8804ZM13.5 19.8804V19.55H13L12.7243 19.9671L13 20.1493V21C13 21.2652 12.8946 21.5196 12.7071 21.7071C12.5196 21.8946 12.2652 22 12 22C11.7348 22 11.4804 21.8946 11.2929 21.7071C11.1054 21.5196 11 21.2652 11 21V20.1493L11.2757 19.9671L11 19.55H10.5V19.8804L7.55 21.83C7.38896 21.9428 7.1966 22.0022 7 22C6.78053 22.0052 6.56544 21.938 6.38793 21.8089C6.21042 21.6797 6.08035 21.4957 6.01779 21.2852C5.95523 21.0748 5.96366 20.8496 6.04177 20.6445C6.11988 20.4393 6.26333 20.2655 6.45 20.15L11 17.15V16.5V16H10.5H3C2.73478 16 2.48043 15.8946 2.29289 15.7071C2.10536 15.5196 2 15.2652 2 15C2 14.7348 2.10536 14.4804 2.29289 14.2929C2.48043 14.1054 2.73478 14 3 14H3.5H4V13.5L13.5 19.8804ZM11.8329 12.5V12.5H11.83H9.41C9.27739 12.5 9.15022 12.4473 9.05645 12.3536C8.96268 12.2598 8.91 12.1326 8.91 12V9.60418C8.91263 9.47337 8.96644 9.34875 9.05995 9.25712L9.05997 9.25714L9.06355 9.25355L12.6425 5.6746C12.6427 5.67445 12.6428 5.6743 12.643 5.67414C12.7366 5.58131 12.8631 5.52921 12.995 5.52921C13.1271 5.52921 13.2538 5.58148 13.3475 5.6746L13.3479 5.67502L15.7654 8.0725C15.7658 8.07286 15.7661 8.07322 15.7665 8.07358C15.8589 8.16715 15.9108 8.29341 15.9108 8.425C15.9108 8.55685 15.8587 8.68335 15.7659 8.77698C15.7657 8.77716 15.7656 8.77733 15.7654 8.7775L12.1879 12.355C12.1877 12.3552 12.1874 12.3554 12.1872 12.3557C12.1406 12.4017 12.0855 12.4381 12.0248 12.4629C11.9639 12.4878 11.8987 12.5004 11.8329 12.5ZM10.0585 9.64439L9.90791 9.79325L9.91002 10.005L9.92002 11.005L9.92498 11.5H10.42H11.42H11.626L11.7722 11.3549L14.3522 8.79493L14.7085 8.44138L14.3536 8.08645L13.3536 7.08645L13.0021 6.73495L12.6485 7.08439L10.0585 9.64439ZM19.5 14V14.5H20H21C21.1326 14.5 21.2598 14.5527 21.3536 14.6464C21.4473 14.7402 21.5 14.8674 21.5 15C21.5 15.1326 21.4473 15.2598 21.3536 15.3536C21.2598 15.4473 21.1326 15.5 21 15.5H13H12.5V16V17.17V17.4392L12.7248 17.5874L17.2711 20.585C17.2716 20.5854 17.2721 20.5857 17.2726 20.586C17.3606 20.6456 17.4273 20.7316 17.4631 20.8316C17.499 20.9322 17.5019 21.0416 17.4711 21.1439C17.4404 21.2463 17.3777 21.336 17.2922 21.4001C17.2067 21.4642 17.103 21.4992 16.9961 21.5L16.9943 21.5C16.9023 21.5011 16.8122 21.4733 16.7368 21.4205L16.7369 21.4203L16.7257 21.4129L13.2757 19.1329L12.5 18.6202V19.55V21C12.5 21.1326 12.4473 21.2598 12.3536 21.3536C12.2598 21.4473 12.1326 21.5 12 21.5C11.8674 21.5 11.7402 21.4473 11.6464 21.3536C11.5527 21.2598 11.5 21.1326 11.5 21V19.55V18.6202L10.7243 19.1329L7.27433 21.4129L7.27423 21.4127L7.26316 21.4205C7.18778 21.4733 7.09774 21.5011 7.00571 21.5L6.99694 21.4999L6.98817 21.5001C6.87843 21.5027 6.77088 21.4692 6.68213 21.4046C6.59338 21.34 6.52834 21.248 6.49706 21.1428C6.46578 21.0375 6.46999 20.925 6.50905 20.8224C6.54811 20.7198 6.61983 20.6329 6.71316 20.5751L6.71925 20.5714L6.72523 20.5674L11.2752 17.5674L11.5 17.4192V17.15V16V15.5H11H3C2.86739 15.5 2.74021 15.4473 2.64645 15.3536C2.55268 15.2598 2.5 15.1326 2.5 15C2.5 14.8674 2.55268 14.7402 2.64645 14.6464C2.74021 14.5527 2.86739 14.5 3 14.5H4H4.5V14V4V3.5H4H3C2.86739 3.5 2.74021 3.44732 2.64645 3.35355C2.55268 3.25979 2.5 3.13261 2.5 3C2.5 2.86739 2.55268 2.74021 2.64645 2.64645C2.74021 2.55268 2.86739 2.5 3 2.5H21C21.1326 2.5 21.2598 2.55268 21.3536 2.64645C21.4473 2.74021 21.5 2.86739 21.5 3C21.5 3.13261 21.4473 3.25979 21.3536 3.35355C21.2598 3.44732 21.1326 3.5 21 3.5H20H19.5V4V14ZM18 14.5H18.5V14V4V3.5H18H6H5.5V4V14V14.5H6H18Z" fill="#111111" stroke="#111111"/>
</svg>
