<svg width="24" height="24" viewBox="0 0 24 24" fill="none" xmlns="http://www.w3.org/2000/svg">
<path d="M11.8634 2.66001L11.87 2.66711L11.8768 2.67394L21.3518 12.1289C21.4431 12.2264 21.4958 12.3538 21.5 12.4873C21.4998 12.5516 21.4872 12.6153 21.4629 12.6749C21.4382 12.7355 21.4018 12.7906 21.3558 12.8372C21.3555 12.8374 21.3553 12.8377 21.355 12.8379L12.8479 21.345C12.8477 21.3453 12.8474 21.3455 12.8472 21.3458C12.8006 21.3918 12.7455 21.4282 12.6849 21.4529C12.6246 21.4775 12.56 21.4901 12.4949 21.49C12.3587 21.4876 12.2282 21.4347 12.1288 21.3417L2.64852 11.8514C2.55555 11.7522 2.50263 11.622 2.50002 11.486V5.49002H2.50003L2.50001 5.48713C2.49963 5.42132 2.51224 5.35609 2.53712 5.29517C2.56185 5.23464 2.5982 5.17956 2.64412 5.13303L5.14213 2.64501C5.14224 2.6449 5.14235 2.64479 5.14246 2.64467C5.18911 2.59849 5.2444 2.56195 5.30517 2.53712C5.36609 2.51224 5.43132 2.49963 5.49713 2.50001V2.50002H5.50002H11.4991C11.5674 2.50033 11.6349 2.51464 11.6975 2.54208C11.7603 2.5696 11.8168 2.60975 11.8634 2.66001ZM12.1363 19.9434L12.4901 20.2976L12.8438 19.9433L19.9338 12.8433L20.2871 12.4896L19.9334 12.1363L11.4334 3.64626L11.287 3.50002H11.08H5.90002H5.69291L5.54646 3.64646L3.64646 5.54646L3.50002 5.69291V5.90002V11.09V11.297L3.64626 11.4434L12.1363 19.9434ZM6.72223 6.58428C6.80446 6.52934 6.90113 6.50002 7.00002 6.50002C7.13262 6.50002 7.2598 6.5527 7.35357 6.64646C7.44734 6.74023 7.50002 6.86741 7.50002 7.00002C7.50002 7.09891 7.47069 7.19558 7.41575 7.2778C7.36081 7.36003 7.28272 7.42411 7.19136 7.46196C7.1 7.4998 6.99946 7.5097 6.90247 7.49041C6.80548 7.47112 6.71639 7.4235 6.64646 7.35357C6.57654 7.28364 6.52892 7.19455 6.50962 7.09756C6.49033 7.00057 6.50023 6.90004 6.53808 6.80867C6.57592 6.71731 6.64001 6.63922 6.72223 6.58428Z" fill="#111111" stroke="#111111"/>
</svg>
