<svg width="24" height="24" viewBox="0 0 24 24" fill="none" xmlns="http://www.w3.org/2000/svg">
<path d="M17.5 6V6.5H18H19C19.663 6.5 20.2989 6.76339 20.7678 7.23223C21.2366 7.70107 21.5 8.33696 21.5 9V15C21.5 15.663 21.2366 16.2989 20.7678 16.7678C20.2989 17.2366 19.663 17.5 19 17.5H18H17.5V18V21C17.5 21.1326 17.4473 21.2598 17.3536 21.3536C17.2598 21.4473 17.1326 21.5 17 21.5H7C6.86739 21.5 6.74021 21.4473 6.64645 21.3536C6.55268 21.2598 6.5 21.1326 6.5 21V18V17.5H6H5C4.33696 17.5 3.70107 17.2366 3.23223 16.7678C2.76339 16.2989 2.5 15.663 2.5 15V9C2.5 8.33696 2.76339 7.70107 3.23223 7.23223C3.70107 6.76339 4.33696 6.5 5 6.5H6H6.5V6V3C6.5 2.86739 6.55268 2.74021 6.64645 2.64645C6.74021 2.55268 6.86739 2.5 7 2.5H17C17.1326 2.5 17.2598 2.55268 17.3536 2.64645C17.4473 2.74021 17.5 2.86739 17.5 3V6ZM8 3.5H7.5V4V6V6.5H8H16H16.5V6V4V3.5H16H8ZM16 20.5H16.5V20V16V15.5H16H8H7.5V16V20V20.5H8H16ZM17.5 16V16.5H18H19C19.3978 16.5 19.7794 16.342 20.0607 16.0607C20.342 15.7794 20.5 15.3978 20.5 15V9C20.5 8.60218 20.342 8.22064 20.0607 7.93934C19.7794 7.65804 19.3978 7.5 19 7.5H5C4.60217 7.5 4.22064 7.65804 3.93934 7.93934C3.65804 8.22064 3.5 8.60218 3.5 9V15C3.5 15.3978 3.65804 15.7794 3.93934 16.0607C4.22064 16.342 4.60217 16.5 5 16.5H6H6.5V16V15C6.5 14.8674 6.55268 14.7402 6.64645 14.6464C6.74022 14.5527 6.86739 14.5 7 14.5H17C17.1326 14.5 17.2598 14.5527 17.3536 14.6464C17.4473 14.7402 17.5 14.8674 17.5 15V16ZM6.72221 10.5843C6.80444 10.5293 6.90111 10.5 7 10.5C7.13261 10.5 7.25978 10.5527 7.35355 10.6464C7.44732 10.7402 7.5 10.8674 7.5 11C7.5 11.0989 7.47068 11.1956 7.41574 11.2778C7.36079 11.36 7.2827 11.4241 7.19134 11.4619C7.09998 11.4998 6.99944 11.5097 6.90246 11.4904C6.80546 11.4711 6.71637 11.4235 6.64645 11.3536C6.57652 11.2836 6.5289 11.1945 6.50961 11.0975C6.49031 11.0006 6.50022 10.9 6.53806 10.8087C6.5759 10.7173 6.63999 10.6392 6.72221 10.5843Z" fill="#111111" stroke="#111111"/>
</svg>
