<svg width="24" height="24" viewBox="0 0 24 24" fill="none" xmlns="http://www.w3.org/2000/svg">
<path d="M12.001 8.5C11.737 8.49913 11.4775 8.56793 11.2486 8.69947C11.0194 8.83118 10.8291 9.0211 10.697 9.25L10.6918 9.25902L10.687 9.26824C10.6557 9.32799 10.6127 9.3808 10.5605 9.4235C10.5083 9.46619 10.448 9.49789 10.3832 9.51668C10.3185 9.53546 10.2506 9.54096 10.1836 9.53283C10.1167 9.5247 10.0521 9.50311 9.9937 9.46936C9.93532 9.43561 9.88436 9.39041 9.8439 9.33645C9.80345 9.28251 9.77432 9.22093 9.75828 9.15543C9.74223 9.08993 9.7396 9.02187 9.75055 8.95533C9.76149 8.88878 9.78579 8.82515 9.82196 8.76824L9.82768 8.75924L9.83302 8.75C10.0526 8.36972 10.3684 8.05397 10.7488 7.83454C11.1286 7.61539 11.5594 7.50002 11.9979 7.5C12.5836 7.50497 13.1489 7.71539 13.5953 8.09458C14.0421 8.47417 14.3413 8.99872 14.4406 9.57656C14.5399 10.1544 14.4329 10.7487 14.1384 11.2557C13.8439 11.7627 13.3806 12.15 12.8295 12.35L12.5 12.4695V12.82V13C12.5 13.1326 12.4473 13.2598 12.3536 13.3536C12.2598 13.4473 12.1326 13.5 12 13.5C11.8674 13.5 11.7402 13.4473 11.6465 13.3536C11.5527 13.2598 11.5 13.1326 11.5 13V12C11.5 11.8674 11.5527 11.7402 11.6465 11.6464C11.7402 11.5527 11.8674 11.5 12 11.5C12.3978 11.5 12.7794 11.342 13.0607 11.0607C13.342 10.7794 13.5 10.3978 13.5 10C13.5 9.60218 13.342 9.22064 13.0607 8.93934C12.7796 8.65827 12.3985 8.50026 12.001 8.5ZM12.001 8.5C12.0007 8.5 12.0003 8.5 12 8.5V9L12.002 8.5C12.0017 8.5 12.0013 8.5 12.001 8.5ZM11.5257 15.8467L11.5415 15.8155L11.5529 15.7824C11.56 15.7618 11.5697 15.7421 11.5817 15.7239C11.6037 15.6929 11.6273 15.6631 11.6525 15.6347C11.6974 15.5913 11.75 15.5567 11.8077 15.5327C11.8686 15.5073 11.934 15.4942 12 15.4942C12.066 15.4942 12.1314 15.5073 12.1923 15.5327C12.2532 15.558 12.3085 15.5952 12.355 15.6421L12.355 15.6421C12.4014 15.6888 12.438 15.7442 12.4629 15.8052C12.4878 15.8661 12.5004 15.9313 12.5 15.9971L12.5 16.0078L12.5003 16.0185C12.5027 16.0832 12.4925 16.1477 12.4703 16.2085L12.4698 16.2098C12.4499 16.265 12.418 16.3151 12.3766 16.3566C12.3351 16.398 12.285 16.4299 12.2298 16.4498L12.2136 16.4557L12.1979 16.4627C12.1418 16.4874 12.0813 16.5002 12.02 16.5002C11.9587 16.5002 11.8982 16.4874 11.8421 16.4627L11.8264 16.4557L11.8102 16.4498C11.755 16.4299 11.7049 16.398 11.6634 16.3566C11.622 16.3151 11.5901 16.265 11.5702 16.2098L11.5622 16.1878L11.5522 16.1667C11.5296 16.1187 11.5185 16.066 11.5198 16.0129L11.5205 15.988L11.5187 15.9632C11.5163 15.9316 11.5157 15.8998 11.5169 15.8681C11.5192 15.8607 11.5222 15.8536 11.5257 15.8467ZM6.72209 4.10104C8.28435 3.05717 10.1211 2.5 12 2.5C13.2476 2.5 14.4829 2.74572 15.6355 3.22314C16.7881 3.70056 17.8354 4.40033 18.7175 5.28249C19.5997 6.16464 20.2994 7.21191 20.7769 8.36451C21.2543 9.5171 21.5 10.7524 21.5 12C21.5 13.8789 20.9428 15.7157 19.899 17.2779C18.8551 18.8402 17.3714 20.0578 15.6355 20.7769C13.8996 21.4959 11.9895 21.684 10.1466 21.3175C8.30383 20.9509 6.61109 20.0461 5.28249 18.7175C3.95389 17.3889 3.0491 15.6962 2.68254 13.8534C2.31598 12.0105 2.50412 10.1004 3.22315 8.36451C3.94218 6.62861 5.15982 5.14491 6.72209 4.10104ZM7.27766 19.0675C8.67548 20.0015 10.3189 20.5 12 20.5C14.2543 20.5 16.4164 19.6045 18.0104 18.0104C19.6045 16.4163 20.5 14.2543 20.5 12C20.5 10.3189 20.0015 8.67547 19.0675 7.27765C18.1335 5.87984 16.806 4.79037 15.2528 4.14702C13.6996 3.50368 11.9906 3.33535 10.3417 3.66333C8.6929 3.9913 7.17834 4.80085 5.9896 5.98959C4.80085 7.17834 3.9913 8.69289 3.66333 10.3417C3.33536 11.9906 3.50368 13.6996 4.14703 15.2528C4.79037 16.806 5.87984 18.1335 7.27766 19.0675Z" fill="#111111" stroke="#111111"/>
</svg>
