<svg width="24" height="24" viewBox="0 0 24 24" fill="none" xmlns="http://www.w3.org/2000/svg">
<path d="M4.64645 12.6464C4.74022 12.5527 4.86739 12.5 5 12.5C6.72391 12.5 8.37721 13.1848 9.59619 14.4038C10.8152 15.6228 11.5 17.2761 11.5 19C11.5 19.1326 11.4473 19.2598 11.3536 19.3536C11.2598 19.4473 11.1326 19.5 11 19.5C10.8674 19.5 10.7402 19.4473 10.6464 19.3536C10.5527 19.2598 10.5 19.1326 10.5 19C10.5 17.5413 9.92054 16.1424 8.88909 15.1109C7.85764 14.0795 6.45869 13.5 5 13.5C4.86739 13.5 4.74022 13.4473 4.64645 13.3536C4.55268 13.2598 4.5 13.1326 4.5 13C4.5 12.8674 4.55268 12.7402 4.64645 12.6464ZM4.64645 4.64645C4.74022 4.55268 4.86739 4.5 5 4.5C8.84564 4.5 12.5338 6.02767 15.253 8.74695C17.9723 11.4662 19.5 15.1544 19.5 19C19.5 19.1326 19.4473 19.2598 19.3536 19.3536C19.2598 19.4473 19.1326 19.5 19 19.5C18.8674 19.5 18.7402 19.4473 18.6464 19.3536C18.5527 19.2598 18.5 19.1326 18.5 19C18.5 15.4196 17.0777 11.9858 14.5459 9.45406C12.0142 6.92232 8.58042 5.5 5 5.5C4.86739 5.5 4.74022 5.44732 4.64645 5.35355C4.55268 5.25978 4.5 5.13261 4.5 5C4.5 4.86739 4.55268 4.74022 4.64645 4.64645ZM4.64645 8.64645C4.74022 8.55268 4.86739 8.5 5 8.5C7.78477 8.5 10.4555 9.60625 12.4246 11.5754C14.3938 13.5445 15.5 16.2152 15.5 19C15.5 19.1326 15.4473 19.2598 15.3536 19.3536C15.2598 19.4473 15.1326 19.5 15 19.5C14.8674 19.5 14.7402 19.4473 14.6464 19.3536C14.5527 19.2598 14.5 19.1326 14.5 19C14.5 16.4804 13.4991 14.0641 11.7175 12.2825C9.93592 10.5009 7.51956 9.5 5 9.5C4.86739 9.5 4.74022 9.44732 4.64645 9.35355C4.55268 9.25978 4.5 9.13261 4.5 9C4.5 8.86739 4.55268 8.74022 4.64645 8.64645Z" fill="#111111" stroke="#111111"/>
</svg>
