<svg width="24" height="24" viewBox="0 0 24 24" fill="none" xmlns="http://www.w3.org/2000/svg">
<path d="M2.6799 10.7159L2.67941 10.7155C2.57717 10.6305 2.51288 10.5084 2.50068 10.376C2.48847 10.2436 2.52935 10.1118 2.61433 10.0096C2.6993 9.90736 2.82141 9.84307 2.95379 9.83087C3.08603 9.81868 3.2177 9.85946 3.31989 9.94426C3.32 9.94435 3.3201 9.94443 3.32021 9.94452L5.31934 11.6138L5.31934 11.6138L5.32078 11.615C5.3774 11.6619 5.42298 11.7207 5.45426 11.7873C5.48554 11.8538 5.50176 11.9265 5.50176 12C5.50176 12.0735 5.48554 12.1462 5.45426 12.2127C5.42298 12.2793 5.3774 12.3381 5.32078 12.385L5.32078 12.385L5.31934 12.3862L3.31973 14.0559C3.31968 14.0559 3.31964 14.0559 3.3196 14.056C3.26911 14.098 3.21082 14.1297 3.14807 14.1492C3.08527 14.1687 3.01923 14.1757 2.95374 14.1696C2.88825 14.1636 2.8246 14.1447 2.76642 14.114C2.70825 14.0834 2.6567 14.0415 2.61473 13.9909L2.61393 13.9899C2.57183 13.9394 2.54011 13.8811 2.52058 13.8183C2.50106 13.7555 2.49412 13.6894 2.50016 13.6239C2.5062 13.5584 2.52509 13.4948 2.55577 13.4366C2.58645 13.3784 2.6283 13.3269 2.67893 13.2849L2.6799 13.2841L3.7599 12.3841L4.22083 12L3.7599 11.6159L2.6799 10.7159ZM8.64625 5.64645C8.74002 5.55268 8.8672 5.5 8.99981 5.5C9.13242 5.5 9.25959 5.55268 9.35336 5.64645C9.44713 5.74022 9.49981 5.86739 9.49981 6V18C9.49981 18.1326 9.44713 18.2598 9.35336 18.3536C9.25959 18.4473 9.13242 18.5 8.99981 18.5C8.8672 18.5 8.74002 18.4473 8.64625 18.3536C8.55249 18.2598 8.49981 18.1326 8.49981 18V6C8.49981 5.86739 8.55249 5.74022 8.64625 5.64645ZM20.9998 6.5H12.9998C12.8672 6.5 12.74 6.44732 12.6463 6.35355C12.5525 6.25978 12.4998 6.13261 12.4998 6C12.4998 5.86739 12.5525 5.74022 12.6463 5.64645C12.74 5.55268 12.8672 5.5 12.9998 5.5H20.9998C21.1324 5.5 21.2596 5.55268 21.3534 5.64645C21.4471 5.74021 21.4998 5.86739 21.4998 6C21.4998 6.13261 21.4471 6.25979 21.3534 6.35355C21.2596 6.44732 21.1324 6.5 20.9998 6.5ZM12.9998 17.5H20.9998C21.1324 17.5 21.2596 17.5527 21.3534 17.6464C21.4471 17.7402 21.4998 17.8674 21.4998 18C21.4998 18.1326 21.4471 18.2598 21.3534 18.3536C21.2596 18.4473 21.1324 18.5 20.9998 18.5H12.9998C12.8672 18.5 12.74 18.4473 12.6463 18.3536C12.5525 18.2598 12.4998 18.1326 12.4998 18C12.4998 17.8674 12.5525 17.7402 12.6463 17.6464C12.74 17.5527 12.8672 17.5 12.9998 17.5ZM12.9998 9.5H20.9998C21.1324 9.5 21.2596 9.55268 21.3534 9.64645C21.4471 9.74021 21.4998 9.86739 21.4998 10C21.4998 10.1326 21.4471 10.2598 21.3534 10.3536C21.2596 10.4473 21.1324 10.5 20.9998 10.5H12.9998C12.8672 10.5 12.74 10.4473 12.6463 10.3536C12.5525 10.2598 12.4998 10.1326 12.4998 10C12.4998 9.86739 12.5525 9.74022 12.6463 9.64645C12.74 9.55268 12.8672 9.5 12.9998 9.5ZM12.9998 13.5H20.9998C21.1324 13.5 21.2596 13.5527 21.3534 13.6464C21.4471 13.7402 21.4998 13.8674 21.4998 14C21.4998 14.1326 21.4471 14.2598 21.3534 14.3536C21.2596 14.4473 21.1324 14.5 20.9998 14.5H12.9998C12.8672 14.5 12.74 14.4473 12.6463 14.3536C12.5525 14.2598 12.4998 14.1326 12.4998 14C12.4998 13.8674 12.5525 13.7402 12.6463 13.6464C12.74 13.5527 12.8672 13.5 12.9998 13.5Z" fill="#111111" stroke="#111111"/>
</svg>
