<svg width="24" height="24" viewBox="0 0 24 24" fill="none" xmlns="http://www.w3.org/2000/svg">
<path d="M10.0593 16.2378L10.8158 15.4993L9.76497 15.383C7.55479 15.1385 5.7056 14.5473 4.42493 13.7472C3.13831 12.9434 2.5 11.9834 2.5 11C2.5 9.85621 3.36628 8.73838 5.08611 7.87846C6.7868 7.02812 9.20553 6.5 12 6.5C14.7945 6.5 17.2132 7.02812 18.9139 7.87846C20.6337 8.73838 21.5 9.85621 21.5 11C21.5 11.835 21.0674 12.6426 20.1549 13.3593C19.2372 14.0801 17.8631 14.6813 16.0837 15.0714C16.0195 15.0853 15.9532 15.0863 15.8885 15.0746C15.8237 15.0627 15.7619 15.0382 15.7066 15.0025C15.6514 14.9667 15.6037 14.9203 15.5664 14.8661C15.529 14.8118 15.5028 14.7508 15.4891 14.6863L15.4891 14.6861C15.4753 14.621 15.4745 14.5539 15.487 14.4885C15.4995 14.4232 15.5248 14.361 15.5616 14.3056C15.5984 14.2502 15.6458 14.2027 15.7012 14.1658C15.7566 14.129 15.8188 14.1036 15.8841 14.0911L15.8841 14.0912L15.8962 14.0886C17.3199 13.7791 18.4347 13.3169 19.2072 12.8024C19.5931 12.5454 19.9067 12.2665 20.1285 11.9744C20.3479 11.6855 20.5 11.3527 20.5 11C20.5 10.487 20.1824 10.0227 19.7743 9.64819C19.352 9.26058 18.7564 8.89648 18.0275 8.58314C16.5659 7.95488 14.4971 7.5 12 7.5C9.50287 7.5 7.4341 7.95488 5.97254 8.58314C5.2436 8.89648 4.64799 9.26058 4.22566 9.64819C3.81765 10.0227 3.5 10.487 3.5 11C3.5 11.4172 3.70562 11.8015 3.99034 12.1252C4.2793 12.4537 4.68595 12.7628 5.18148 13.041C6.17437 13.5984 7.58972 14.0687 9.34031 14.3151L10.935 14.5396L9.74786 13.4514L9.63723 13.35C9.54665 13.2561 9.49591 13.1307 9.49591 13C9.49591 12.8663 9.54902 12.7381 9.64355 12.6436C9.73809 12.549 9.86631 12.4959 10 12.4959C10.1337 12.4959 10.2619 12.549 10.3564 12.6436L12.3519 14.639C12.396 14.6859 12.4306 14.7408 12.4538 14.8008L12.4537 14.8008L12.4575 14.81C12.5075 14.9317 12.5075 15.0683 12.4575 15.19L12.4574 15.19L12.4538 15.1992C12.4306 15.2592 12.396 15.3141 12.3519 15.361L10.3564 17.3564L10.355 17.3579C10.3085 17.4048 10.2532 17.442 10.1923 17.4673C10.1314 17.4927 10.066 17.5058 10 17.5058C9.93399 17.5058 9.86864 17.4927 9.80771 17.4673C9.74679 17.442 9.69148 17.4048 9.645 17.3579L9.6421 17.355C9.59524 17.3085 9.55804 17.2532 9.53266 17.1923C9.50727 17.1314 9.4942 17.066 9.4942 17C9.4942 16.934 9.50727 16.8686 9.53266 16.8077C9.55782 16.7473 9.59459 16.6924 9.64089 16.6462L10.0593 16.2378ZM14.9958 14.3949C14.9709 14.5256 14.9724 14.6599 15 14.79L8.66777 13.6982C5.71163 13.1412 4 11.9251 4 11C4 9.78 7.12 8 12 8C16.88 8 20 9.78 20 11C20 11.83 18.55 13 15.79 13.6C15.6594 13.625 15.535 13.6759 15.4243 13.7495C15.3135 13.8232 15.2186 13.9182 15.145 14.0291C15.0715 14.1399 15.0207 14.2643 14.9958 14.3949Z" fill="#111111" stroke="#111111"/>
</svg>
