<svg width="24" height="24" viewBox="0 0 24 24" fill="none" xmlns="http://www.w3.org/2000/svg">
<path d="M3.22099 17.2458L3.221 17.2458L3.22428 17.2427C3.70366 16.7878 4.3393 16.5343 5.00013 16.5343C5.65871 16.5343 6.29227 16.7861 6.77107 17.2381C7.23629 17.7064 7.49749 18.3397 7.49749 19C7.49749 19.6625 7.23452 20.2979 6.76635 20.7667L6.76023 20.7728L6.75432 20.7791C6.52545 21.0248 6.24945 21.2218 5.94278 21.3584C5.63612 21.495 5.30507 21.5685 4.9694 21.5744C4.63372 21.5804 4.30029 21.5186 3.98899 21.3929C3.6777 21.2671 3.39492 21.08 3.15753 20.8426C2.92013 20.6052 2.73298 20.3224 2.60724 20.0111C2.48151 19.6998 2.41976 19.3664 2.42568 19.0307C2.4316 18.6951 2.50508 18.364 2.64172 18.0573C2.77836 17.7507 2.97537 17.4747 3.22099 17.2458ZM5.57699 20.3904C5.75915 20.3145 5.92454 20.2035 6.06368 20.0636C6.20359 19.9244 6.31467 19.759 6.39056 19.5769C6.46672 19.3941 6.50592 19.198 6.50592 19C6.50592 18.802 6.46672 18.6059 6.39056 18.4231C6.31467 18.241 6.20359 18.0756 6.06368 17.9364C5.92454 17.7965 5.75915 17.6855 5.57699 17.6096C5.3942 17.5334 5.19814 17.4942 5.00013 17.4942C4.80211 17.4942 4.60605 17.5334 4.42326 17.6096C4.2411 17.6855 4.07571 17.7965 3.93657 17.9364C3.79666 18.0756 3.68558 18.241 3.60969 18.4231C3.53354 18.6059 3.49433 18.802 3.49433 19C3.49433 19.198 3.53354 19.3941 3.60969 19.5769C3.68558 19.759 3.79666 19.9244 3.93657 20.0636C4.07571 20.2035 4.2411 20.3145 4.42326 20.3904C4.60605 20.4666 4.80211 20.5058 5.00013 20.5058C5.19814 20.5058 5.3942 20.4666 5.57699 20.3904ZM4.64657 12.6464C4.74034 12.5527 4.86752 12.5 5.00013 12.5C6.72403 12.5 8.37733 13.1848 9.59632 14.4038C10.8153 15.6228 11.5001 17.2761 11.5001 19C11.5001 19.1326 11.4474 19.2598 11.3537 19.3536C11.2599 19.4473 11.1327 19.5 11.0001 19.5C10.8675 19.5 10.7403 19.4473 10.6466 19.3536C10.5528 19.2598 10.5001 19.1326 10.5001 19C10.5001 17.5413 9.92066 16.1424 8.88921 15.1109C7.85776 14.0795 6.45882 13.5 5.00013 13.5C4.86752 13.5 4.74034 13.4473 4.64657 13.3536C4.5528 13.2598 4.50013 13.1326 4.50013 13C4.50013 12.8674 4.5528 12.7402 4.64657 12.6464ZM4.64657 8.64645C4.74034 8.55268 4.86752 8.5 5.00013 8.5C7.7849 8.5 10.4556 9.60625 12.4247 11.5754C14.3939 13.5445 15.5001 16.2152 15.5001 19C15.5001 19.1326 15.4474 19.2598 15.3537 19.3536C15.2599 19.4473 15.1327 19.5 15.0001 19.5C14.8675 19.5 14.7403 19.4473 14.6466 19.3536C14.5528 19.2598 14.5001 19.1326 14.5001 19C14.5001 16.4804 13.4992 14.0641 11.7176 12.2825C9.93605 10.5009 7.51968 9.5 5.00013 9.5C4.86752 9.5 4.74034 9.44732 4.64657 9.35355C4.5528 9.25978 4.50013 9.13261 4.50013 9C4.50013 8.86739 4.5528 8.74022 4.64657 8.64645Z" fill="#111111" stroke="#111111"/>
</svg>
