<svg width="24" height="24" viewBox="0 0 24 24" fill="none" xmlns="http://www.w3.org/2000/svg">
<path d="M10 9.5H9.5V10V21C9.5 21.1326 9.44732 21.2598 9.35355 21.3536C9.25979 21.4473 9.13261 21.5 9 21.5H3C2.86739 21.5 2.74021 21.4473 2.64645 21.3536C2.55268 21.2598 2.5 21.1326 2.5 21V3C2.5 2.86739 2.55268 2.74021 2.64645 2.64645C2.74021 2.55268 2.86739 2.5 3 2.5H21C21.1326 2.5 21.2598 2.55268 21.3536 2.64645C21.4473 2.74021 21.5 2.86739 21.5 3V9C21.5 9.13261 21.4473 9.25979 21.3536 9.35355C21.2598 9.44732 21.1326 9.5 21 9.5H10ZM20 8.5H20.5V8V4V3.5H20H4H3.5V4V20V20.5H4H8H8.5V20V18V17.5H8H7C6.86739 17.5 6.74021 17.4473 6.64645 17.3536C6.55268 17.2598 6.5 17.1326 6.5 17C6.5 16.8674 6.55268 16.7402 6.64645 16.6464C6.74021 16.5527 6.86739 16.5 7 16.5H8H8.5V16V14V13.5H8H7C6.86739 13.5 6.74022 13.4473 6.64645 13.3536C6.55268 13.2598 6.5 13.1326 6.5 13C6.5 12.8674 6.55268 12.7402 6.64645 12.6464C6.74022 12.5527 6.86739 12.5 7 12.5H8H8.5V12V10V9.5H8H7C6.86739 9.5 6.74022 9.44732 6.64645 9.35355C6.55268 9.25978 6.5 9.13261 6.5 9C6.5 8.86739 6.55268 8.74022 6.64645 8.64645C6.74022 8.55268 6.86739 8.5 7 8.5H8H8.5V8V7C8.5 6.86739 8.55268 6.74022 8.64645 6.64645C8.74022 6.55268 8.86739 6.5 9 6.5C9.13261 6.5 9.25978 6.55268 9.35355 6.64645C9.44732 6.74022 9.5 6.86739 9.5 7V8V8.5H10H12H12.5V8V7C12.5 6.86739 12.5527 6.74022 12.6464 6.64645C12.7402 6.55268 12.8674 6.5 13 6.5C13.1326 6.5 13.2598 6.55268 13.3536 6.64645C13.4473 6.74022 13.5 6.86739 13.5 7V8V8.5H14H16H16.5V8V7C16.5 6.86739 16.5527 6.74021 16.6464 6.64645C16.7402 6.55268 16.8674 6.5 17 6.5C17.1326 6.5 17.2598 6.55268 17.3536 6.64645C17.4473 6.74021 17.5 6.86739 17.5 7V8V8.5H18H20Z" fill="#111111" stroke="#111111"/>
</svg>
