<svg width="24" height="24" viewBox="0 0 24 24" fill="none" xmlns="http://www.w3.org/2000/svg">
<path d="M22.2548 7.40356L22.2553 7.40408C22.3484 7.49776 22.4007 7.62449 22.4007 7.75658C22.4007 7.88848 22.3486 8.01503 22.2557 8.10867C22.2556 8.10881 22.2554 8.10894 22.2553 8.10908L19.4264 10.938L10.9364 19.428L8.10781 22.2566C8.1076 22.2568 8.10739 22.257 8.10718 22.2572C8.01411 22.3492 7.88869 22.401 7.75781 22.4016L7.75702 22.4016C7.69122 22.402 7.62599 22.3894 7.56507 22.3645C7.50444 22.3397 7.44927 22.3033 7.40269 22.2573C7.40247 22.257 7.40225 22.2568 7.40202 22.2566L1.74452 16.5991C1.74437 16.5989 1.74422 16.5988 1.74407 16.5986C1.65122 16.505 1.59912 16.3785 1.59912 16.2466C1.59912 16.1148 1.65114 15.9884 1.74383 15.8948C1.74406 15.8945 1.74429 15.8943 1.74452 15.8941L15.942 1.74657C15.9421 1.74649 15.9422 1.74641 15.9423 1.74633C16.0354 1.65411 16.161 1.60213 16.292 1.60158L16.2928 1.60157C16.3586 1.60119 16.4238 1.6138 16.4848 1.63869C16.5451 1.66334 16.6001 1.69956 16.6465 1.7453C16.647 1.74573 16.6474 1.74615 16.6478 1.74657L22.2548 7.40356ZM18.7164 9.52513L19.0687 9.87744L19.4222 9.52638L20.8422 8.11638L21.1983 7.76283L20.8435 7.40803L16.5935 3.15803L16.2399 2.80447L15.8864 3.15803L3.15636 15.888L2.80281 16.2416L3.15636 16.5951L7.40636 20.8451L7.76117 21.1999L8.11471 20.8439L9.52471 19.4239L9.87577 19.0703L9.52347 18.718L7.40452 16.5991C7.40436 16.5989 7.40421 16.5988 7.40406 16.5986C7.31122 16.505 7.25912 16.3785 7.25912 16.2466C7.25912 16.115 7.31101 15.9887 7.40349 15.8951C7.49706 15.8027 7.62333 15.7508 7.75491 15.7508C7.8869 15.7508 8.01353 15.803 8.10719 15.896C8.10727 15.896 8.10734 15.8961 8.10741 15.8962L10.2372 18.016L10.592 18.3691L10.9447 18.0139L12.3547 16.5939L12.7083 16.2378L12.351 15.8855L11.6435 15.188C11.6431 15.1877 11.6428 15.1873 11.6424 15.187C11.5485 15.0926 11.4958 14.9648 11.4958 14.8316C11.4958 14.6979 11.5489 14.5697 11.6435 14.4751C11.738 14.3806 11.8662 14.3275 11.9999 14.3275C12.1331 14.3275 12.2609 14.3802 12.3553 14.4741C12.3557 14.4745 12.356 14.4748 12.3564 14.4751L13.0539 15.1826L13.4074 15.5412L13.7635 15.1851L15.1835 13.7651L15.537 13.4116L15.1835 13.058L13.0795 10.954C13.0042 10.8602 12.9652 10.7423 12.9698 10.6218C12.9747 10.496 13.0269 10.3766 13.1159 10.2876C13.205 10.1985 13.3243 10.1464 13.4502 10.1415C13.5707 10.1368 13.6886 10.1759 13.7824 10.2511L15.8864 12.3551L16.2387 12.7074L16.5922 12.3564L18.0122 10.9464L18.3683 10.5928L18.0135 10.238L17.3035 9.52802L17.302 9.52658C17.2551 9.48009 17.218 9.42479 17.1926 9.36387C17.1672 9.30294 17.1541 9.23759 17.1541 9.17158C17.1541 9.10557 17.1672 9.04022 17.1926 8.97929C17.218 8.91837 17.2551 8.86306 17.302 8.81658L17.3024 8.81618C17.3961 8.72306 17.5228 8.67079 17.6549 8.67079C17.7868 8.67079 17.9134 8.72293 18.0071 8.81584C18.0072 8.81595 18.0073 8.81607 18.0074 8.81618L18.7164 9.52513Z" fill="#111111" stroke="#111111"/>
</svg>
