<svg width="24" height="24" viewBox="0 0 24 24" fill="none" xmlns="http://www.w3.org/2000/svg">
<path d="M8.82052 20.9201L8.73779 20.89H8.67962C6.62232 20.115 4.89653 18.6499 3.79789 16.7435C2.68466 14.8119 2.28626 12.5503 2.67241 10.3545C3.05857 8.15873 4.20468 6.16872 5.91015 4.73279C7.61524 3.29717 9.77083 2.50682 11.9998 2.5C14.2287 2.50682 16.3843 3.29717 18.0894 4.73279C19.7949 6.16872 20.941 8.15873 21.3271 10.3545C21.7133 12.5503 21.3149 14.8119 20.2017 16.7435C19.103 18.6499 17.3772 20.115 15.3199 20.89H15.2618L15.179 20.9201C13.1252 21.6663 10.8743 21.6663 8.82052 20.9201ZM14.1276 20.2234L14.4998 20.1249V19.74V16.61V16.332L14.2636 16.1853C13.584 15.7631 12.7999 15.5393 11.9998 15.5393C11.1997 15.5393 10.4155 15.7631 9.73592 16.1853L9.49977 16.332V16.61V19.74V20.1249L9.87189 20.2234C11.2665 20.5923 12.7331 20.5923 14.1276 20.2234ZM15.4998 18.92V19.786L16.2498 19.353C17.8702 18.4174 19.1367 16.9733 19.8528 15.2446C20.5688 13.5159 20.6944 11.5992 20.2101 9.79184C19.7259 7.98445 18.6587 6.38737 17.1742 5.24829C15.6898 4.10921 13.8709 3.4918 11.9998 3.4918C10.1286 3.4918 8.30978 4.10921 6.8253 5.24829C5.34082 6.38737 4.27369 7.98445 3.7894 9.79184C3.30512 11.5992 3.43074 13.5159 4.1468 15.2446C4.86285 16.9733 6.12932 18.4174 7.74977 19.353L8.49977 19.786V18.92V11V10.5H7.99977C7.86716 10.5 7.73999 10.4473 7.64622 10.3536C7.55245 10.2598 7.49977 10.1326 7.49977 10C7.49977 9.86739 7.55245 9.74022 7.64622 9.64645C7.73999 9.55268 7.86716 9.5 7.99977 9.5H9.99977C10.1324 9.5 10.2596 9.55268 10.3533 9.64645C10.4471 9.74022 10.4998 9.86739 10.4998 10C10.4998 10.1326 10.4471 10.2598 10.3533 10.3536C10.2596 10.4473 10.1324 10.5 9.99977 10.5H9.49977V11V14.39V15.0971L10.1664 14.8614C11.3527 14.442 12.6469 14.442 13.8331 14.8614L14.4998 15.0971V14.39V11V10.5H13.9998C13.8672 10.5 13.74 10.4473 13.6462 10.3536C13.5525 10.2598 13.4998 10.1326 13.4998 10C13.4998 9.86739 13.5525 9.74022 13.6462 9.64645C13.74 9.55268 13.8672 9.5 13.9998 9.5H15.9998C16.1324 9.5 16.2596 9.55268 16.3533 9.64645C16.4471 9.74021 16.4998 9.86739 16.4998 10C16.4998 10.1326 16.4471 10.2598 16.3533 10.3536C16.2596 10.4473 16.1324 10.5 15.9998 10.5H15.4998V11V18.92Z" fill="#111111" stroke="#111111"/>
</svg>
