<svg width="24" height="24" viewBox="0 0 24 24" fill="none" xmlns="http://www.w3.org/2000/svg">
<path d="M8.7279 11.855L9.08 12.21C8.98656 12.3027 8.87575 12.376 8.75391 12.4258C8.63207 12.4755 8.50161 12.5008 8.37 12.5C8.2384 12.5008 8.10794 12.4755 7.9861 12.4258C7.86426 12.376 7.75344 12.3027 7.66 12.21C7.56628 12.117 7.49188 12.0064 7.44111 11.8846C7.39034 11.7627 7.36421 11.632 7.36421 11.5C7.36421 11.368 7.39034 11.2373 7.44111 11.1154C7.49188 10.9936 7.56628 10.883 7.66 10.79L8.7279 11.855ZM8.7279 11.855L10.2265 10.3564L10.2279 10.355C10.2748 10.3085 10.312 10.2532 10.3373 10.1923C10.3627 10.1314 10.3758 10.066 10.3758 10C10.3758 9.93399 10.3627 9.86864 10.3373 9.80771C10.312 9.74678 10.2748 9.69148 10.2279 9.645L10.2264 9.64356L8.72645 8.14355C8.63192 8.04902 8.5037 7.99591 8.37 7.99591C8.23631 7.99591 8.10809 8.04902 8.01356 8.14355C7.91902 8.23809 7.86591 8.36631 7.86591 8.5C7.86591 8.63325 7.91867 8.76107 8.01263 8.85551L8.81133 9.64423L9.1716 10L8.81133 10.3558L8.0121 11.145C8.01198 11.1451 8.01185 11.1453 8.01172 11.1454C7.96504 11.1918 7.92797 11.2469 7.90266 11.3077C7.87727 11.3686 7.86421 11.434 7.86421 11.5C7.86421 11.566 7.87727 11.6314 7.90266 11.6923C7.92804 11.7532 7.96524 11.8085 8.0121 11.855L8.01211 11.855C8.05883 11.9013 8.11424 11.938 8.17516 11.9629C8.23608 11.9878 8.30131 12.0004 8.36711 12L8.3729 12L8.3729 12C8.4387 12.0004 8.50393 11.9878 8.56485 11.9629C8.62551 11.9381 8.68071 11.9017 8.72731 11.8556C8.7275 11.8554 8.7277 11.8552 8.7279 11.855ZM9.32617 16.4708L9.32613 16.4707L9.31992 16.4759C9.2694 16.518 9.21107 16.5497 9.14826 16.5692C9.08546 16.5887 9.01942 16.5957 8.95394 16.5896C8.88845 16.5836 8.8248 16.5647 8.76662 16.534C8.70883 16.5036 8.65757 16.4621 8.61574 16.4119C8.53283 16.3103 8.49315 16.1801 8.50528 16.0495C8.5173 15.92 8.57933 15.8003 8.67807 15.7158C9.62033 14.9602 10.7921 14.5484 12 14.5484C13.2079 14.5484 14.3797 14.9602 15.3219 15.7158C15.4207 15.8003 15.4827 15.92 15.4947 16.0495C15.5069 16.1801 15.4672 16.3103 15.3842 16.4119C15.3424 16.4621 15.2912 16.5036 15.2334 16.534C15.1752 16.5647 15.1116 16.5836 15.0461 16.5896C14.9806 16.5957 14.9145 16.5887 14.8517 16.5692C14.7889 16.5497 14.7306 16.518 14.6801 16.4759L14.6801 16.4758L14.6738 16.4708C13.9165 15.8601 12.9729 15.5271 12 15.5271C11.0271 15.5271 10.0836 15.8601 9.32617 16.4708ZM16.225 8.1421L16.225 8.14211L16.2279 8.145C16.2748 8.19148 16.312 8.24678 16.3373 8.30771C16.3627 8.36864 16.3758 8.434 16.3758 8.5C16.3758 8.566 16.3627 8.63136 16.3373 8.69229C16.312 8.75322 16.2748 8.80852 16.2279 8.855L16.2265 8.85645L15.4365 9.64645L15.0829 10L15.4365 10.3536L16.2264 11.1436L16.2279 11.145C16.2748 11.1915 16.312 11.2468 16.3373 11.3077C16.3627 11.3686 16.3758 11.434 16.3758 11.5C16.3758 11.566 16.3627 11.6314 16.3373 11.6923C16.312 11.7532 16.2748 11.8085 16.2279 11.855L16.2279 11.855C16.1812 11.9013 16.1258 11.938 16.0648 11.9629C16.0039 11.9878 15.9387 12.0004 15.8729 12V12L15.8671 12C15.8013 12.0004 15.7361 11.9878 15.6752 11.9629C15.6145 11.9381 15.5594 11.9017 15.5128 11.8557C15.5126 11.8554 15.5123 11.8552 15.5121 11.855L14.0136 10.3564L14.0121 10.355C13.9652 10.3085 13.928 10.2532 13.9027 10.1923C13.8773 10.1314 13.8642 10.066 13.8642 10C13.8642 9.93399 13.8773 9.86864 13.9027 9.80771C13.928 9.74678 13.9652 9.69148 14.0121 9.645L14.0136 9.64355L15.5136 8.14356L15.515 8.1421C15.5615 8.09524 15.6168 8.05804 15.6777 8.03266C15.7386 8.00727 15.804 7.9942 15.87 7.9942C15.936 7.9942 16.0014 8.00727 16.0623 8.03266C16.1232 8.05804 16.1785 8.09524 16.225 8.1421ZM6.72209 4.10104C8.28435 3.05717 10.1211 2.5 12 2.5C13.2476 2.5 14.4829 2.74572 15.6355 3.22314C16.7881 3.70056 17.8354 4.40033 18.7175 5.28249C19.5997 6.16464 20.2994 7.21191 20.7769 8.36451C21.2543 9.5171 21.5 10.7524 21.5 12C21.5 13.8789 20.9428 15.7157 19.899 17.2779C18.8551 18.8402 17.3714 20.0578 15.6355 20.7769C13.8996 21.4959 11.9895 21.684 10.1466 21.3175C8.30383 20.9509 6.61109 20.0461 5.28249 18.7175C3.95389 17.3889 3.0491 15.6962 2.68254 13.8534C2.31598 12.0105 2.50412 10.1004 3.22315 8.36451C3.94218 6.62861 5.15982 5.14491 6.72209 4.10104ZM7.27766 19.0675C8.67548 20.0015 10.3189 20.5 12 20.5C14.2543 20.5 16.4164 19.6045 18.0104 18.0104C19.6045 16.4163 20.5 14.2543 20.5 12C20.5 10.3189 20.0015 8.67547 19.0675 7.27765C18.1335 5.87984 16.806 4.79037 15.2528 4.14702C13.6996 3.50368 11.9906 3.33535 10.3417 3.66333C8.6929 3.9913 7.17834 4.80085 5.9896 5.98959C4.80085 7.17834 3.9913 8.69289 3.66333 10.3417C3.33536 11.9906 3.50368 13.6996 4.14703 15.2528C4.79037 16.806 5.87984 18.1335 7.27766 19.0675Z" fill="#111111" stroke="#111111"/>
</svg>
