<svg width="24" height="24" viewBox="0 0 24 24" fill="none" xmlns="http://www.w3.org/2000/svg">
<path d="M21.3564 10.4707L21.3564 10.4707L21.362 10.4762C21.4319 10.544 21.4805 10.6307 21.5019 10.7257C21.5232 10.8208 21.5163 10.92 21.482 11.0112L21.4781 11.0216L21.4746 11.0321C21.4457 11.121 21.3924 11.1999 21.3208 11.26C21.2492 11.3201 21.1623 11.3589 21.0698 11.3721C21.0698 11.3721 21.0697 11.3721 21.0696 11.3721L15.9198 12.1021L15.7545 12.1255L15.6364 12.2436L14.8464 13.0336L14.4581 13.4219L14.8811 13.7722C14.9597 13.8374 15.0165 13.925 15.0439 14.0234C15.0712 14.1218 15.0678 14.2262 15.034 14.3226C15.0003 14.419 14.9378 14.5027 14.855 14.5625C14.7737 14.6213 14.6766 14.6543 14.5763 14.6571C14.4927 14.656 14.4107 14.6339 14.3378 14.5929C14.3374 14.5926 14.337 14.5924 14.3365 14.5921L14.0095 14.4038L13.6789 14.2135L13.408 14.4821L12.238 15.6421L11.8726 16.0043L12.2451 16.3592C12.3147 16.4254 12.3637 16.5104 12.3863 16.6038C12.4088 16.6972 12.404 16.7951 12.3723 16.8859C12.3407 16.9766 12.2836 17.0563 12.2078 17.1154C12.1382 17.1697 12.0555 17.2046 11.9683 17.2165C11.8909 17.2127 11.8154 17.1909 11.7478 17.1528C11.7474 17.1526 11.7469 17.1524 11.7465 17.1521L11.4195 16.9638L11.0889 16.7735L10.818 17.0421L9.64797 18.2021L9.2522 18.5945L9.68507 18.9455C9.77697 19.02 9.83947 19.1247 9.86144 19.241C9.88324 19.3564 9.86375 19.4757 9.80644 19.5781C9.77351 19.634 9.73002 19.683 9.67837 19.7223C9.626 19.7621 9.56629 19.7912 9.50266 19.8079C9.43901 19.8247 9.3727 19.8287 9.30752 19.8197C9.24234 19.8108 9.17956 19.789 9.1228 19.7557L9.11948 19.7538L8.78948 19.5638L8.45639 19.3721L8.18541 19.6446L6.48886 21.3512C6.4884 21.3516 6.48794 21.3521 6.48748 21.3525C6.44436 21.3947 6.39284 21.4273 6.33627 21.4483L6.32501 21.4525L6.31396 21.4572C6.25461 21.4825 6.19093 21.496 6.12644 21.4971H3C2.86739 21.4971 2.74021 21.4445 2.64645 21.3507C2.55268 21.2569 2.5 21.1297 2.5 20.9971V17.8507C2.5011 17.7862 2.51467 17.7225 2.53996 17.6632L2.54467 17.6521L2.54885 17.6409C2.56987 17.5841 2.60262 17.5325 2.64495 17.4893C2.64528 17.489 2.64561 17.4886 2.64595 17.4883L3.15355 16.9807L3.54749 16.5868L3.11341 16.2376C3.0219 16.1639 2.95923 16.0605 2.93637 15.9453C2.91379 15.8314 2.93151 15.7133 2.98643 15.6112C3.01886 15.5554 3.0618 15.5064 3.11288 15.4669C3.16505 15.4265 3.22469 15.3969 3.28836 15.3797C3.35203 15.3625 3.41847 15.3581 3.48386 15.3667C3.54544 15.3748 3.60493 15.3943 3.65931 15.4241L3.96567 15.6252L4.30436 15.8474L4.59203 15.5622L5.76203 14.4022L6.1259 14.0415L5.75634 13.6865C5.67112 13.6047 5.61764 13.4953 5.60538 13.3777C5.59313 13.2602 5.6229 13.1421 5.68941 13.0445C5.75593 12.9468 5.85488 12.8758 5.96873 12.8442C6.07645 12.8142 6.19091 12.8213 6.29388 12.8639L6.60052 13.0405L6.93557 13.2334L7.20659 12.9576L8.35659 11.7876L8.71606 11.4219L8.34137 11.0718C8.2539 10.9901 8.19866 10.8797 8.18568 10.7607C8.1727 10.6417 8.20285 10.522 8.27064 10.4233C8.33843 10.3247 8.43937 10.2536 8.55511 10.223C8.66618 10.1937 8.7838 10.2036 8.88826 10.2507L9.20052 10.4305L9.5326 10.6216L9.80355 10.3507L11.8036 8.35069L11.9216 8.23268L11.945 8.06745L12.675 2.92745L12.675 2.92745L12.6754 2.92467C12.688 2.83226 12.7262 2.74523 12.7857 2.67339C12.8451 2.60155 12.9235 2.54777 13.0119 2.51813C13.1003 2.48848 13.1952 2.48415 13.286 2.50563C13.3767 2.52711 13.4597 2.57353 13.5254 2.63967L13.5264 2.64069L21.3564 10.4707ZM5.72 20.4971H5.92279L6.06829 20.3559L7.09829 19.3559L7.56777 18.9001L7.00463 18.5668L4.82463 17.2768L4.49076 17.0793L4.21645 17.3536L3.64645 17.9236L3.5 18.07V18.2771V19.9971V20.4971H4H5.72ZM7.96384 17.9323L8.30091 18.123L8.56981 17.8443L9.66981 16.7043L10.1145 16.2435L9.55957 15.9239L7.38957 14.6739L7.05746 14.4826L6.78645 14.7536L5.64645 15.8936L5.18144 16.3586L5.75384 16.6823L7.96384 17.9323ZM10.5698 15.33L10.8977 15.5196L11.169 15.2552L12.349 14.1052L12.8263 13.6401L12.2462 13.3119L10.0362 12.0619L9.70676 11.8756L9.43799 12.142L8.28799 13.282L7.82336 13.7426L8.3898 14.07L10.5698 15.33ZM13.1754 12.7174L13.5167 12.9194L13.7911 12.633L14.4711 11.923L14.8096 11.5696L14.4636 11.2236L12.7436 9.50359L12.39 9.15003L12.0364 9.50359L10.8964 10.6436L10.4408 11.0993L10.9954 11.4274L13.1754 12.7174ZM15.5264 10.9007L15.7033 11.0776L15.9509 11.0421L18.9509 10.6121L19.9402 10.4703L19.2336 9.76359L14.2336 4.76359L13.5269 4.05689L13.3851 5.0462L12.9551 8.0462L12.9196 8.29381L13.0964 8.47069L15.5264 10.9007Z" fill="#111111" stroke="#111111"/>
</svg>
