<svg width="24" height="24" viewBox="0 0 24 24" fill="none" xmlns="http://www.w3.org/2000/svg">
<path d="M20.7121 17.1806L20.7122 17.1805L18.649 15.0674C18.2771 14.7163 17.8091 14.4836 17.3045 14.399C16.797 14.3139 16.2757 14.3826 15.8075 14.5961L15.4918 14.7401L15.2464 14.4947L14.3464 13.5947L14.0401 13.2884L14.2997 12.9416C15.2845 11.6257 15.7342 9.98563 15.5584 8.35149C15.3826 6.71735 14.5942 5.21049 13.352 4.13426C12.1098 3.05802 10.506 2.49232 8.86352 2.55103C7.22099 2.60974 5.66169 3.2885 4.49951 4.45068C3.33733 5.61286 2.65857 7.17217 2.59986 8.81469C2.54114 10.4572 3.10685 12.061 4.18308 13.3032C5.25932 14.5454 6.76618 15.3337 8.40032 15.5096C10.0345 15.6854 11.6745 15.2357 12.9904 14.2509L13.3372 13.9913L13.6435 14.2976L14.5335 15.1876L14.7903 15.4444L14.6256 15.768C14.3881 16.2344 14.3031 16.7635 14.3823 17.2808C14.4614 17.7972 14.7003 18.2759 15.0654 18.6495C15.066 18.6501 15.0666 18.6507 15.0672 18.6513L17.1833 20.7674L20.7121 17.1806ZM20.7121 17.1806L20.7204 17.1887M20.7121 17.1806L20.7204 17.1887M20.7204 17.1887C20.9585 17.4215 21.1477 17.6995 21.2769 18.0065C21.4061 18.3135 21.4726 18.6431 21.4726 18.9762C21.4726 19.3092 21.4061 19.6389 21.2769 19.9458C21.1477 20.2528 20.9585 20.5308 20.7204 20.7637L20.7204 20.7636M20.7204 17.1887L20.7204 20.7636M20.7204 20.7636L20.7167 20.7674M20.7204 20.7636L20.7167 20.7674M20.7167 20.7674C20.2479 21.2356 19.6125 21.4985 18.95 21.4985C18.2876 21.4985 17.6523 21.2356 17.1835 20.7676L20.7167 20.7674ZM10.1268 14.4465C11.1933 14.2354 12.1734 13.713 12.9431 12.9452C13.4553 12.4343 13.8617 11.8273 14.1389 11.1591C14.4162 10.4909 14.5589 9.7746 14.5589 9.05116C14.5589 8.32772 14.4162 7.61139 14.1389 6.94319C13.8617 6.275 13.4553 5.66806 12.9431 5.15716C12.1734 4.38936 11.1933 3.86692 10.1268 3.65583C9.0603 3.44474 7.95514 3.55447 6.95096 3.97116C5.94677 4.38785 5.08861 5.0928 4.48488 5.99697C3.88115 6.90114 3.55893 7.96396 3.55893 9.05116C3.55893 10.1384 3.88115 11.2012 4.48488 12.1054C5.08861 13.0095 5.94677 13.7145 6.95096 14.1312C7.95514 14.5479 9.0603 14.6576 10.1268 14.4465ZM19.5269 20.3416C19.709 20.2657 19.8744 20.1546 20.0135 20.0147C20.1535 19.8756 20.2645 19.7102 20.3404 19.528C20.4166 19.3452 20.4558 19.1492 20.4558 18.9512C20.4558 18.7531 20.4166 18.5571 20.3404 18.3743C20.2644 18.1919 20.1532 18.0263 20.013 17.8871C20.0127 17.8868 20.0124 17.8865 20.0121 17.8862L17.895 15.7691C17.8947 15.7688 17.8944 15.7685 17.8941 15.7681C17.7548 15.628 17.5893 15.5167 17.4069 15.4407C17.2241 15.3646 17.028 15.3254 16.83 15.3254C16.632 15.3254 16.4359 15.3646 16.2531 15.4407C16.071 15.5166 15.9056 15.6277 15.7664 15.7676C15.6265 15.9067 15.5154 16.0721 15.4396 16.2543C15.3634 16.4371 15.3242 16.6331 15.3242 16.8312C15.3242 17.0292 15.3634 17.2252 15.4396 17.408C15.5155 17.5904 15.6268 17.756 15.767 17.8953C15.7673 17.8956 15.7676 17.8959 15.7679 17.8962L17.885 20.0133C17.8853 20.0136 17.8856 20.0139 17.8859 20.0142C18.0252 20.1543 18.1907 20.2656 18.3731 20.3416C18.5559 20.4177 18.752 20.457 18.95 20.457C19.148 20.457 19.3441 20.4177 19.5269 20.3416Z" fill="#111111" stroke="#111111"/>
</svg>
