<svg width="24" height="24" viewBox="0 0 24 24" fill="none" xmlns="http://www.w3.org/2000/svg">
<path d="M7 17.5H6.5V18V19C6.5 19.3978 6.65804 19.7794 6.93934 20.0607C7.22065 20.342 7.60218 20.5 8 20.5H16C16.3978 20.5 16.7794 20.342 17.0607 20.0607C17.342 19.7794 17.5 19.3978 17.5 19V18V17.5H17H7ZM14.82 16.5H15.5271L15.2914 15.8333C15.0507 15.1525 14.6053 14.5628 14.0163 14.1451C13.4273 13.7274 12.7235 13.502 12.0014 13.5L11.9986 13.5C11.2765 13.502 10.5727 13.7274 9.98369 14.1451C9.39468 14.5628 8.94929 15.1525 8.7086 15.8333L8.4729 16.5H9.18H14.82ZM17 16.5H17.5V16V5C17.5 4.60218 17.342 4.22065 17.0607 3.93934C16.7794 3.65804 16.3978 3.5 16 3.5H8C7.60217 3.5 7.22064 3.65804 6.93934 3.93934C6.65804 4.22064 6.5 4.60217 6.5 5V16V16.5H7H7.1H7.50611L7.58938 16.1025C7.72007 15.4786 7.98183 14.8896 8.35731 14.3745C8.73279 13.8594 9.21342 13.4299 9.76738 13.1145L10.2382 12.8465L9.93333 12.3987C9.65241 11.9859 9.50149 11.4986 9.5 10.9994C9.50017 10.3365 9.76354 9.70092 10.2322 9.23223C10.7011 8.76339 11.337 8.5 12 8.5C12.663 8.5 13.2989 8.76339 13.7678 9.23223C14.2365 9.70092 14.4998 10.3365 14.5 10.9994C14.4985 11.4986 14.3476 11.9859 14.0667 12.3987L13.7618 12.8465L14.2326 13.1145C14.7866 13.4299 15.2672 13.8594 15.6427 14.3745C16.0182 14.8896 16.2799 15.4786 16.4106 16.1025L16.4939 16.5H16.9H17ZM12.2926 9.52882L12.1951 10.0192L12.2926 9.52882C12.0017 9.47094 11.7001 9.50065 11.426 9.61418C11.1519 9.72771 10.9176 9.91997 10.7528 10.1666C10.588 10.4133 10.5 10.7033 10.5 11C10.5 11.3978 10.658 11.7794 10.9393 12.0607C11.2206 12.342 11.6022 12.5 12 12.5C12.2967 12.5 12.5867 12.412 12.8334 12.2472C13.08 12.0824 13.2723 11.8481 13.3858 11.574C13.4994 11.2999 13.5291 10.9983 13.4712 10.7074C13.4133 10.4164 13.2704 10.1491 13.0607 9.93934C12.8509 9.72956 12.5836 9.5867 12.2926 9.52882ZM8 2.5H16C16.663 2.5 17.2989 2.76339 17.7678 3.23223C18.2366 3.70107 18.5 4.33696 18.5 5V19C18.5 19.663 18.2366 20.2989 17.7678 20.7678C17.2989 21.2366 16.663 21.5 16 21.5H8C7.33696 21.5 6.70107 21.2366 6.23223 20.7678C5.76339 20.2989 5.5 19.663 5.5 19V5C5.5 4.33696 5.76339 3.70107 6.23223 3.23223C6.70107 2.76339 7.33696 2.5 8 2.5ZM11.7222 5.58427C11.8044 5.52932 11.9011 5.5 12 5.5C12.1326 5.5 12.2598 5.55268 12.3536 5.64645C12.4473 5.74022 12.5 5.86739 12.5 6C12.5 6.09889 12.4707 6.19556 12.4157 6.27779C12.3608 6.36001 12.2827 6.4241 12.1913 6.46194C12.1 6.49978 11.9994 6.50969 11.9025 6.49039C11.8055 6.4711 11.7164 6.42348 11.6464 6.35355C11.5765 6.28363 11.5289 6.19454 11.5096 6.09755C11.4903 6.00056 11.5002 5.90002 11.5381 5.80866C11.5759 5.7173 11.64 5.63921 11.7222 5.58427Z" fill="#111111" stroke="#111111"/>
</svg>
