<svg width="24" height="24" viewBox="0 0 24 24" fill="none" xmlns="http://www.w3.org/2000/svg">
<path d="M5.14999 9.33631L5.45569 9L5.14999 8.66369C4.73549 8.20767 4.50402 7.61465 4.5 6.99844V5C4.5 4.33696 4.76339 3.70107 5.23223 3.23223C5.70107 2.76339 6.33696 2.5 7 2.5H17C17.663 2.5 18.2989 2.76339 18.7678 3.23223C19.2366 3.70107 19.5 4.33696 19.5 5V6.9984C19.496 7.61462 19.2645 8.20766 18.85 8.66369L18.5443 9L18.85 9.33631C19.2645 9.79234 19.496 10.3854 19.5 11.0016V12.9984C19.496 13.6146 19.2645 14.2077 18.85 14.6637L18.5443 15L18.85 15.3363C19.2645 15.7923 19.496 16.3854 19.5 17.0016V19C19.5 19.663 19.2366 20.2989 18.7678 20.7678C18.2989 21.2366 17.663 21.5 17 21.5H7C6.33696 21.5 5.70107 21.2366 5.23223 20.7678C4.76339 20.2989 4.5 19.663 4.5 19V17.0016C4.50402 16.3854 4.73549 15.7923 5.14999 15.3363L5.45569 15L5.14999 14.6637C4.73549 14.2077 4.50402 13.6146 4.5 12.9984V11.0016C4.50402 10.3854 4.73549 9.79233 5.14999 9.33631ZM7.72221 17.5843C7.80444 17.5293 7.90111 17.5 8 17.5C8.13261 17.5 8.25979 17.5527 8.35355 17.6464C8.44732 17.7402 8.5 17.8674 8.5 18C8.5 18.0989 8.47068 18.1956 8.41573 18.2778C8.36079 18.36 8.28271 18.4241 8.19134 18.4619C8.09998 18.4998 7.99944 18.5097 7.90246 18.4904C7.80546 18.4711 7.71637 18.4235 7.64645 18.3536C7.57652 18.2836 7.5289 18.1945 7.50961 18.0975C7.49031 18.0006 7.50022 17.9 7.53806 17.8087C7.5759 17.7173 7.63999 17.6392 7.72221 17.5843ZM7.72221 11.5843C7.80444 11.5293 7.90111 11.5 8 11.5C8.13261 11.5 8.25978 11.5527 8.35355 11.6464C8.44732 11.7402 8.5 11.8674 8.5 12C8.5 12.0989 8.47068 12.1956 8.41574 12.2778C8.36079 12.36 8.2827 12.4241 8.19134 12.4619C8.09998 12.4998 7.99944 12.5097 7.90246 12.4904C7.80546 12.4711 7.71637 12.4235 7.64645 12.3536C7.57652 12.2836 7.5289 12.1945 7.50961 12.0975C7.49031 12.0006 7.50022 11.9 7.53806 11.8087C7.5759 11.7173 7.63999 11.6392 7.72221 11.5843ZM7.72221 5.58427C7.80444 5.52932 7.90111 5.5 8 5.5C8.13261 5.5 8.25979 5.55268 8.35355 5.64645C8.44732 5.74022 8.5 5.86739 8.5 6C8.5 6.09889 8.47068 6.19556 8.41573 6.27779C8.36079 6.36001 8.2827 6.4241 8.19134 6.46194C8.09998 6.49978 7.99945 6.50969 7.90245 6.49039C7.80546 6.4711 7.71637 6.42348 7.64645 6.35355C7.57652 6.28363 7.5289 6.19454 7.50961 6.09755C7.49031 6.00055 7.50022 5.90002 7.53806 5.80866C7.5759 5.7173 7.63999 5.63921 7.72221 5.58427ZM18.0607 20.0607C18.342 19.7794 18.5 19.3978 18.5 19V17C18.5 16.6022 18.342 16.2206 18.0607 15.9393C17.7794 15.658 17.3978 15.5 17 15.5H7C6.60218 15.5 6.22065 15.658 5.93934 15.9393C5.65804 16.2206 5.5 16.6022 5.5 17V19C5.5 19.3978 5.65804 19.7794 5.93934 20.0607C6.22065 20.342 6.60218 20.5 7 20.5H17C17.3978 20.5 17.7794 20.342 18.0607 20.0607ZM18.0607 14.0607C18.342 13.7794 18.5 13.3978 18.5 13V11C18.5 10.6022 18.342 10.2206 18.0607 9.93934C17.7794 9.65804 17.3978 9.5 17 9.5H7C6.60217 9.5 6.22064 9.65804 5.93934 9.93934C5.65804 10.2206 5.5 10.6022 5.5 11V13C5.5 13.3978 5.65804 13.7794 5.93934 14.0607C6.22064 14.342 6.60217 14.5 7 14.5H17C17.3978 14.5 17.7794 14.342 18.0607 14.0607ZM18.0607 8.06066C18.342 7.77936 18.5 7.39782 18.5 7V5C18.5 4.60218 18.342 4.22065 18.0607 3.93934C17.7794 3.65804 17.3978 3.5 17 3.5H7C6.60217 3.5 6.22064 3.65804 5.93934 3.93934C5.65804 4.22064 5.5 4.60217 5.5 5V7C5.5 7.39782 5.65804 7.77936 5.93934 8.06066C6.22064 8.34196 6.60217 8.5 7 8.5H17C17.3978 8.5 17.7794 8.34196 18.0607 8.06066Z" fill="#111111" stroke="#111111"/>
</svg>
