<svg width="24" height="24" viewBox="0 0 24 24" fill="none" xmlns="http://www.w3.org/2000/svg">
<path d="M14.349 19.1677L14.4673 19.5H14.82H21C21.1326 19.5 21.2598 19.5527 21.3536 19.6464C21.4473 19.7402 21.5 19.8674 21.5 20C21.5 20.1326 21.4473 20.2598 21.3536 20.3536C21.2598 20.4473 21.1326 20.5 21 20.5H14.82H14.4696L14.35 20.8294C14.1748 21.312 13.8553 21.729 13.4349 22.0237C13.0144 22.3184 12.5134 22.4765 12 22.4765C11.4866 22.4765 10.9856 22.3184 10.5651 22.0237C10.1447 21.729 9.82517 21.312 9.65 20.8294L9.53044 20.5H9.18H3C2.86739 20.5 2.74021 20.4473 2.64645 20.3536C2.55268 20.2598 2.5 20.1326 2.5 20C2.5 19.8674 2.55268 19.7402 2.64645 19.6464C2.74021 19.5527 2.86739 19.5 3 19.5H9.18H9.53273L9.65104 19.1677C9.77547 18.8182 9.97613 18.5008 10.2385 18.2385C10.5008 17.9761 10.8182 17.7755 11.1677 17.651L11.5 17.5327V17.18V15V14.5H11H7C6.33696 14.5 5.70107 14.2366 5.23223 13.7678C4.76339 13.2989 4.5 12.663 4.5 12V10.0016C4.50402 9.38536 4.73548 8.79233 5.14999 8.33631L5.45569 8L5.14999 7.66369C4.73548 7.20767 4.50402 6.61464 4.5 5.99843V4C4.5 3.33696 4.76339 2.70107 5.23223 2.23223C5.70107 1.76339 6.33696 1.5 7 1.5H17C17.663 1.5 18.2989 1.76339 18.7678 2.23223C19.2366 2.70107 19.5 3.33696 19.5 4V5.99854C19.496 6.61471 19.2645 7.2077 18.85 7.66369L18.5443 8L18.85 8.33631C19.2645 8.7923 19.496 9.38529 19.5 10.0015V12C19.5 12.663 19.2366 13.2989 18.7678 13.7678C18.2989 14.2366 17.663 14.5 17 14.5H13H12.5V15V17.18V17.5327L12.8323 17.651C13.1818 17.7755 13.4992 17.9761 13.7615 18.2385C14.0239 18.5008 14.2245 18.8182 14.349 19.1677ZM8.27779 5.41573C8.19556 5.47068 8.09889 5.5 8 5.5C7.86739 5.5 7.74022 5.44732 7.64645 5.35355C7.55268 5.25978 7.5 5.13261 7.5 5C7.5 4.90111 7.52932 4.80444 7.58427 4.72221C7.63921 4.63999 7.7173 4.5759 7.80866 4.53806C7.90002 4.50022 8.00055 4.49031 8.09755 4.50961C8.19454 4.5289 8.28363 4.57652 8.35355 4.64645C8.42348 4.71637 8.4711 4.80546 8.49039 4.90245C8.50969 4.99944 8.49978 5.09998 8.46194 5.19134C8.4241 5.2827 8.36001 5.36079 8.27779 5.41573ZM5.93934 2.93934C5.65804 3.22064 5.5 3.60217 5.5 4V6C5.5 6.39782 5.65804 6.77936 5.93934 7.06066C6.22064 7.34196 6.60218 7.5 7 7.5H17C17.3978 7.5 17.7794 7.34196 18.0607 7.06066C18.342 6.77936 18.5 6.39782 18.5 6V4C18.5 3.60218 18.342 3.22065 18.0607 2.93934C17.7794 2.65803 17.3978 2.5 17 2.5H7C6.60218 2.5 6.22064 2.65803 5.93934 2.93934ZM5.93934 13.0607C6.22064 13.342 6.60218 13.5 7 13.5H17C17.3978 13.5 17.7794 13.342 18.0607 13.0607C18.342 12.7794 18.5 12.3978 18.5 12V10C18.5 9.60218 18.342 9.22064 18.0607 8.93934C17.7794 8.65804 17.3978 8.5 17 8.5H7C6.60218 8.5 6.22064 8.65804 5.93934 8.93934C5.65804 9.22064 5.5 9.60217 5.5 10V12C5.5 12.3978 5.65804 12.7794 5.93934 13.0607ZM11.1666 21.2472C11.4133 21.412 11.7033 21.5 12 21.5C12.3978 21.5 12.7794 21.342 13.0607 21.0607C13.342 20.7794 13.5 20.3978 13.5 20C13.5 19.7033 13.412 19.4133 13.2472 19.1666C13.0824 18.92 12.8481 18.7277 12.574 18.6142C12.2999 18.5007 11.9983 18.4709 11.7074 18.5288C11.4164 18.5867 11.1491 18.7296 10.9393 18.9393C10.7296 19.1491 10.5867 19.4164 10.5288 19.7074C10.4709 19.9983 10.5006 20.2999 10.6142 20.574C10.7277 20.8481 10.92 21.0824 11.1666 21.2472ZM7.72221 10.5843C7.80444 10.5293 7.90111 10.5 8 10.5C8.13261 10.5 8.25978 10.5527 8.35355 10.6464C8.44732 10.7402 8.5 10.8674 8.5 11C8.5 11.0989 8.47068 11.1956 8.41574 11.2778C8.36079 11.36 8.2827 11.4241 8.19134 11.4619C8.09998 11.4998 7.99944 11.5097 7.90246 11.4904C7.80546 11.4711 7.71637 11.4235 7.64645 11.3536C7.57652 11.2836 7.5289 11.1945 7.50961 11.0975C7.49031 11.0006 7.50022 10.9 7.53806 10.8087C7.5759 10.7173 7.63999 10.6392 7.72221 10.5843Z" fill="#111111" stroke="#111111"/>
</svg>
