<svg width="24" height="24" viewBox="0 0 24 24" fill="none" xmlns="http://www.w3.org/2000/svg">
<path d="M5.50019 11.8759C5.49936 13.0703 5.78381 14.2476 6.32985 15.3099C6.87588 16.3721 7.66772 17.2886 8.63947 17.9831L8.63982 17.9833L11.7098 20.1733L12.0002 20.3805L12.2906 20.1733L15.3606 17.9833L15.367 17.9788L15.3732 17.974C15.5889 17.8097 15.8001 17.6409 16.0036 17.4589L16.3973 17.1066L16.0239 16.7329L6.35392 7.05291L5.50019 6.19829V7.40628V11.8759ZM5.50019 11.8759L6.00019 11.8763M5.50019 11.8759V11.8763H6.00019M6.00019 11.8763V8.11375L15.3164 17.4396L15.2857 17.4089C15.2151 17.465 15.1432 17.5206 15.0702 17.5763L12.0002 19.7663L8.93019 17.5763C8.02322 16.9281 7.28417 16.0727 6.77453 15.0813C6.2649 14.0899 5.99942 12.991 6.00019 11.8763ZM9.80942 4.62631L9.91142 4.59215C10.5506 4.37812 11.1656 4.09771 11.7463 3.7555L12.0043 3.6035L12.2601 3.75914C13.9677 4.79815 15.9641 5.26064 17.9546 5.07836L18.5002 5.0284V5.57628V11.8755V11.8763H18.0002C18.0008 12.2718 17.9674 12.6666 17.9002 13.0563L9.80942 4.62631ZM9.80942 4.62631C9.71644 4.63546 9.62194 4.61857 9.5369 4.57639C9.47779 4.54707 9.42504 4.50639 9.38165 4.45668C9.33826 4.40697 9.30509 4.3492 9.28403 4.28667C9.26296 4.22414 9.25442 4.15807 9.25889 4.09224C9.26336 4.02641 9.28075 3.96211 9.31008 3.903C9.3394 3.84389 9.38008 3.79113 9.42979 3.74774C9.47944 3.70441 9.53713 3.67126 9.59957 3.6502C10.354 3.39727 11.0691 3.03966 11.7241 2.58786L11.7252 2.5871C11.8089 2.52904 11.9083 2.49792 12.0102 2.49792C12.1114 2.49792 12.2103 2.52866 12.2936 2.58603C13.2432 3.2575 14.3221 3.72422 15.4617 3.95653C16.6004 4.18865 17.7748 4.18169 18.9106 3.93611C18.9821 3.92261 19.0556 3.92485 19.1262 3.94269C19.1979 3.96085 19.2648 3.99471 19.3218 4.04185L19.3218 4.04186L19.3252 4.04459C19.3826 4.09111 19.4289 4.14977 19.4609 4.21634C19.4927 4.28248 19.5095 4.3548 19.5102 4.42816L19.5102 11.8649C19.5102 11.8651 19.5102 11.8654 19.5102 11.8656C19.5088 12.3416 19.4708 12.8169 19.3965 13.2871C19.3772 13.4051 19.3162 13.5123 19.2247 13.5892C19.1329 13.6663 19.0165 13.7079 18.8966 13.7063V13.7063H18.8902H18.7764C18.723 13.6942 18.6718 13.6733 18.6249 13.6445C18.5688 13.61 18.5201 13.5647 18.4815 13.5113C18.4429 13.4578 18.4153 13.3973 18.4002 13.3331C18.3852 13.2694 18.3829 13.2034 18.3933 13.1388L9.80942 4.62631ZM11.4402 2.17628C11.6076 2.06015 11.8065 1.99792 12.0102 1.99792C12.2139 1.99792 12.4128 2.06015 12.5802 2.17628C13.4737 2.80854 14.489 3.24797 15.5616 3.46661C16.6341 3.68525 17.7405 3.67833 18.8102 3.44628L11.4402 2.17628ZM11.4402 2.17628C10.8236 2.6016 10.1504 2.93822 9.44019 3.17628L11.4402 2.17628ZM21.3566 20.6398L21.3581 20.6413C21.405 20.6878 21.4421 20.7431 21.4675 20.804C21.4929 20.8649 21.506 20.9303 21.506 20.9963C21.506 21.0623 21.4929 21.1276 21.4675 21.1886C21.4421 21.2495 21.405 21.3048 21.3581 21.3513L21.3552 21.3542C21.3087 21.401 21.2534 21.4382 21.1925 21.4636C21.1315 21.489 21.0662 21.5021 21.0002 21.5021C20.9342 21.5021 20.8688 21.489 20.8079 21.4636C20.747 21.4382 20.6917 21.401 20.6452 21.3542L20.6443 21.3533L17.4443 18.1433L17.1028 17.8007L16.7491 18.1307C16.495 18.3678 16.2252 18.5874 15.9415 18.7881L15.9394 18.7896L12.2902 21.399C12.2902 21.399 12.2902 21.399 12.2902 21.399C12.2055 21.4593 12.1041 21.4917 12.0002 21.4917C11.8962 21.4917 11.7949 21.4593 11.7102 21.399C11.7102 21.399 11.7102 21.399 11.7102 21.399L8.06102 18.7896L8.06074 18.7894C6.96004 18.0034 6.06279 16.9661 5.44352 15.7638C4.82425 14.5614 4.50085 13.2285 4.50019 11.876V5.40628V5.19831L4.3527 5.05169L2.64374 3.35273C2.6436 3.35258 2.64345 3.35244 2.64331 3.3523C2.54904 3.2578 2.49609 3.12977 2.49609 2.99628C2.49609 2.86259 2.5492 2.73437 2.64374 2.63983C2.73827 2.5453 2.86649 2.49219 3.00019 2.49219C3.13388 2.49219 3.2621 2.5453 3.35663 2.63983L5.35663 4.63983L21.3566 20.6398Z" fill="#111111" stroke="#111111"/>
</svg>
