<svg width="24" height="24" viewBox="0 0 24 24" fill="none" xmlns="http://www.w3.org/2000/svg">
<path d="M5.0151 16.7246L5.0152 16.7248C5.06431 16.8483 5.06238 16.9862 5.00982 17.1082C4.95726 17.2302 4.85839 17.3263 4.73495 17.3754C4.61152 17.4245 4.47363 17.4226 4.35162 17.37C4.2298 17.3176 4.13378 17.2189 4.0846 17.0958C4.08453 17.0956 4.08445 17.0954 4.08437 17.0952L2.53508 13.167C2.53506 13.1669 2.53504 13.1669 2.53503 13.1668C2.50846 13.0992 2.49693 13.0267 2.50125 12.9542C2.50556 12.8817 2.52564 12.8109 2.56007 12.747L2.5601 12.747L2.56265 12.7421C2.59607 12.6783 2.64285 12.6226 2.6998 12.5785C2.75585 12.5352 2.82044 12.5043 2.88931 12.4879L6.10455 11.7989L6.49979 11.7142V11.31V7C6.49979 6.86739 6.55247 6.74022 6.64623 6.64645C6.74 6.55268 6.86718 6.5 6.99979 6.5H8.99979H9.49979V6V3C9.49979 2.86739 9.55247 2.74021 9.64623 2.64645C9.74 2.55268 9.86718 2.5 9.99979 2.5H13.9998C14.1324 2.5 14.2596 2.55268 14.3533 2.64645C14.4471 2.74021 14.4998 2.86739 14.4998 3V6V6.5H14.9998H16.9998C17.1324 6.5 17.2596 6.55268 17.3533 6.64645C17.4471 6.74021 17.4998 6.86739 17.4998 7V11.31V11.7118L17.8921 11.7983L21.1069 12.5071C21.1076 12.5073 21.1084 12.5074 21.1091 12.5076C21.1784 12.524 21.2434 12.555 21.2998 12.5985C21.3567 12.6426 21.4035 12.6983 21.4369 12.7621L21.4369 12.7621L21.4395 12.767C21.4739 12.8309 21.494 12.9017 21.4983 12.9742C21.5026 13.0466 21.4911 13.1191 21.4647 13.1866C21.4646 13.1867 21.4646 13.1868 21.4645 13.187L19.9153 17.095C19.9152 17.0951 19.9152 17.0952 19.9151 17.0953C19.8781 17.1882 19.814 17.2679 19.7312 17.324C19.6483 17.3801 19.5504 17.4101 19.4503 17.41L19.4486 17.41C19.3854 17.4102 19.3227 17.3983 19.2639 17.3751C19.2029 17.3509 19.1473 17.3149 19.1002 17.2691C19.0531 17.2233 19.0154 17.1687 18.9894 17.1083C18.9634 17.0479 18.9496 16.983 18.9487 16.9173C18.9478 16.8516 18.9598 16.7863 18.9842 16.7253L18.9845 16.7246L20.1045 13.9046L20.3212 13.3588L19.7479 13.2318L13.1079 11.7618L12.4998 11.6272V12.25V17C12.4998 17.1326 12.4471 17.2598 12.3533 17.3536C12.2596 17.4473 12.1324 17.5 11.9998 17.5C11.8672 17.5 11.74 17.4473 11.6462 17.3536C11.5525 17.2598 11.4998 17.1326 11.4998 17V12.25V11.6272L10.8917 11.7618L4.25171 13.2318L3.67832 13.3588L3.8951 13.9046L5.0151 16.7246ZM10.9998 3.5H10.4998V4V6V6.5H10.9998H12.9998H13.4998V6V4V3.5H12.9998H10.9998ZM7.99979 7.5H7.49979V8V10.86V11.4865L8.11071 11.3475L11.8359 10.5H11.8798H11.9998H12.1198H12.1636L15.8889 11.3475L16.4998 11.4865V10.86V8V7.5H15.9998H7.99979ZM20.8563 19.7581L20.8563 19.7582L20.868 19.7543C20.934 19.7323 21.0038 19.7243 21.073 19.7308C21.1422 19.7373 21.2093 19.7581 21.2699 19.792C21.3306 19.8259 21.3836 19.872 21.4255 19.9275C21.4673 19.983 21.4971 20.0466 21.513 20.1143L21.5129 20.1143L21.5156 20.1249C21.5326 20.1907 21.536 20.2592 21.5256 20.3263C21.5153 20.3933 21.4913 20.4576 21.4553 20.5152C21.4193 20.5727 21.3719 20.6223 21.3161 20.661C21.2603 20.6996 21.1972 20.7265 21.1306 20.7399L21.1147 20.7431L21.099 20.7474C20.8518 20.8144 20.6159 20.9175 20.3989 21.0534C19.8576 21.3753 19.2396 21.5453 18.6098 21.5453C17.9782 21.5453 17.3584 21.3743 16.816 21.0507L16.8087 21.0463L16.8013 21.0422C16.3354 20.7852 15.8119 20.6504 15.2798 20.6504C14.7477 20.6504 14.2242 20.7852 13.7583 21.0422L13.7582 21.0421L13.7516 21.0459C13.1999 21.3614 12.5753 21.5274 11.9398 21.5274C11.3042 21.5274 10.6797 21.3614 10.128 21.0459L10.128 21.0459L10.1213 21.0422C9.65536 20.7852 9.13191 20.6504 8.59979 20.6504C8.06766 20.6504 7.54421 20.7852 7.07828 21.0422L7.07822 21.0421L7.06867 21.0476C6.51361 21.37 5.88318 21.5399 5.24132 21.54C4.62874 21.536 4.02796 21.3713 3.49904 21.0624C3.28496 20.9285 3.05252 20.8266 2.80905 20.7597C2.68501 20.7207 2.58097 20.6349 2.51909 20.5204C2.45633 20.4043 2.44206 20.268 2.47939 20.1414L2.48381 20.1264L2.48729 20.1111C2.50298 20.0423 2.53307 19.9775 2.57558 19.9212C2.6181 19.8648 2.67208 19.818 2.73396 19.784C2.79583 19.75 2.86421 19.7295 2.9346 19.7238C3.00497 19.7182 3.07575 19.7275 3.14229 19.7511L3.15271 19.7548L3.1633 19.7581C3.47411 19.8533 3.77172 19.9872 4.04914 20.1567L4.04909 20.1568L4.05738 20.1616C4.45253 20.3927 4.90204 20.5145 5.35979 20.5145C5.81593 20.5145 6.26389 20.3935 6.65802 20.164C7.27576 19.8184 7.97185 19.6368 8.67979 19.6368C9.38856 19.6368 10.0855 19.8188 10.7037 20.1653C11.1017 20.3918 11.5518 20.511 12.0098 20.511C12.468 20.511 12.9183 20.3917 13.3165 20.1649C13.934 19.8168 14.6309 19.6339 15.3398 19.6339C16.0479 19.6339 16.744 19.8164 17.361 20.1637C17.7553 20.3934 18.2034 20.5145 18.6598 20.5145C19.1175 20.5145 19.567 20.3927 19.9622 20.1616L19.9622 20.1617L19.9704 20.1567C20.2478 19.9872 20.5455 19.8533 20.8563 19.7581Z" fill="#111111" stroke="#111111"/>
</svg>
