<svg width="24" height="24" viewBox="0 0 24 24" fill="none" xmlns="http://www.w3.org/2000/svg">
<path d="M15.5 7V7.5H16H19C19.1326 7.5 19.2598 7.55268 19.3536 7.64645C19.4473 7.74021 19.5 7.86739 19.5 8V19C19.5 19.663 19.2366 20.2989 18.7678 20.7678C18.2989 21.2366 17.663 21.5 17 21.5H7C6.33696 21.5 5.70107 21.2366 5.23223 20.7678C4.76339 20.2989 4.5 19.663 4.5 19V8C4.5 7.86739 4.55268 7.74022 4.64645 7.64645C4.74022 7.55268 4.86739 7.5 5 7.5H8H8.5V7V6C8.5 5.07174 8.86875 4.1815 9.52513 3.52513C10.1815 2.86875 11.0717 2.5 12 2.5C12.9283 2.5 13.8185 2.86875 14.4749 3.52513C15.1313 4.1815 15.5 5.07174 15.5 6V7ZM14 7.5H14.5V7V6C14.5 5.33696 14.2366 4.70107 13.7678 4.23223C13.2989 3.76339 12.663 3.5 12 3.5C11.337 3.5 10.7011 3.76339 10.2322 4.23223C9.76339 4.70107 9.5 5.33696 9.5 6V7V7.5H10H14ZM6 8.5H5.5V9V19C5.5 19.3978 5.65804 19.7794 5.93934 20.0607C6.22065 20.342 6.60218 20.5 7 20.5H17C17.3978 20.5 17.7794 20.342 18.0607 20.0607C18.342 19.7794 18.5 19.3978 18.5 19V9V8.5H18H16H15.5V9V10C15.5 10.1326 15.4473 10.2598 15.3536 10.3536C15.2598 10.4473 15.1326 10.5 15 10.5C14.8674 10.5 14.7402 10.4473 14.6464 10.3536C14.5527 10.2598 14.5 10.1326 14.5 10V9V8.5H14H10H9.5V9V10C9.5 10.1326 9.44732 10.2598 9.35355 10.3536C9.25978 10.4473 9.13261 10.5 9 10.5C8.86739 10.5 8.74022 10.4473 8.64645 10.3536C8.55268 10.2598 8.5 10.1326 8.5 10V9V8.5H8H6Z" fill="#111111" stroke="#111111"/>
</svg>
