<svg width="24" height="24" viewBox="0 0 24 24" fill="none" xmlns="http://www.w3.org/2000/svg">
<path d="M14.5461 18.5C14.5 18.76 14.4884 19.0257 14.512 19.2902C14.551 19.7274 14.6856 20.1507 14.906 20.5302C15.1265 20.9098 15.4276 21.2363 15.788 21.4868C16.1485 21.7373 16.5595 21.9056 16.9921 21.98C17.4247 22.0543 17.8683 22.0328 18.2917 21.917C18.715 21.8012 19.1078 21.5939 19.4424 21.3097C19.7769 21.0255 20.045 20.6714 20.2277 20.2723C20.4105 19.8732 20.5034 19.4389 20.5 19C20.4981 18.4834 20.3602 17.9764 20.1 17.53L14.5461 18.5ZM14.5461 18.5H14.68V18L14.21 17.8295C14.1895 17.8859 14.1705 17.9428 14.153 18H12.847C12.8295 17.9427 12.8105 17.8859 12.79 17.8294L12.32 18V18.5H12.454C12.5075 18.8019 12.5146 19.1112 12.4741 19.4171C12.4108 19.895 12.2334 20.3506 11.9567 20.7454C11.68 21.1401 11.3123 21.4624 10.8846 21.6849C10.457 21.9074 9.98205 22.0235 9.5 22.0235C9.01795 22.0235 8.54299 21.9074 8.11535 21.6849C7.68772 21.4624 7.31999 21.1401 7.04332 20.7454C6.76665 20.3506 6.58917 19.895 6.52593 19.4171C6.48544 19.1112 6.49253 18.8019 6.54603 18.5H6.68V18L6.21 17.8294C6.18951 17.8859 6.17051 17.9427 6.153 18H5.5C5.23478 18 4.98043 17.8947 4.79289 17.7071C4.60536 17.5196 4.5 17.2652 4.5 17C4.5 16.7348 4.60536 16.4804 4.79289 16.2929C4.98043 16.1054 5.23478 16 5.5 16H18.5C18.7652 16 19.0196 15.8947 19.2071 15.7071C19.3946 15.5196 19.5 15.2652 19.5 15C19.5 14.7348 19.3946 14.4804 19.2071 14.2929C19.0196 14.1054 18.7652 14 18.5 14L14.5461 18.5ZM19.1169 12.091L19.0019 12.5217L19.4167 12.6852C19.8821 12.8686 20.2817 13.1874 20.564 13.6004C20.846 14.013 20.9978 14.5006 21 15.0003C20.9987 15.421 20.8912 15.8346 20.6874 16.2027C20.4835 16.5713 20.1897 16.8824 19.8333 17.1071L19.4248 17.3646L19.668 17.7818C19.884 18.1522 19.9985 18.573 20 19.0018L20 19.0039C20.0029 19.3697 19.9254 19.7316 19.7731 20.0641C19.6208 20.3967 19.3974 20.6918 19.1186 20.9286C18.8399 21.1654 18.5125 21.3382 18.1597 21.4347C17.8069 21.5312 17.4372 21.5491 17.0767 21.4872C16.7163 21.4252 16.3737 21.285 16.0734 21.0762C15.773 20.8675 15.5221 20.5954 15.3384 20.2791C15.1546 19.9628 15.0426 19.6101 15.01 19.2457C14.9775 18.8814 15.0253 18.5144 15.15 18.1706L15.3933 17.5H14.68H12.32H11.6066L11.85 18.1706C11.9871 18.5482 12.0311 18.9533 11.9784 19.3515C11.9257 19.7498 11.7778 20.1294 11.5472 20.4584C11.3167 20.7874 11.0102 21.0559 10.6539 21.2413C10.2975 21.4267 9.90171 21.5235 9.5 21.5235C9.09829 21.5235 8.70249 21.4267 8.34613 21.2413C7.98976 21.0559 7.68333 20.7874 7.45276 20.4584C7.2222 20.1294 7.07431 19.7498 7.02161 19.3515C6.96891 18.9533 7.01295 18.5482 7.15 18.1706L7.39339 17.5H6.68H5.5C5.36739 17.5 5.24021 17.4473 5.14645 17.3536C5.05268 17.2598 5 17.1326 5 17C5 16.8674 5.05268 16.7402 5.14645 16.6465C5.24021 16.5527 5.36739 16.5 5.5 16.5H18.5C18.8978 16.5 19.2794 16.342 19.5607 16.0607C19.842 15.7794 20 15.3978 20 15C20 14.6022 19.842 14.2207 19.5607 13.9393C19.2794 13.658 18.8978 13.5 18.5 13.5H8.21H8.20144L8.19288 13.5003C8.08 13.5042 7.96914 13.4697 7.87834 13.4025C7.78765 13.3354 7.72233 13.2396 7.69298 13.1307C7.69295 13.1305 7.69291 13.1304 7.69288 13.1303L5.21298 3.87066L5.11371 3.50001H4.73H4V2.50001H5.5V2.50001L5.50219 2.5C5.61253 2.49952 5.71993 2.53555 5.80766 2.60247C5.89501 2.66911 5.95797 2.76265 5.98682 2.86864L6.31631 4.12669L6.41409 4.50001H6.8H20.5H20.5074L20.5148 4.49979C20.5896 4.49757 20.6639 4.51214 20.7322 4.54242C20.7973 4.57127 20.8555 4.61367 20.9028 4.66674C20.9468 4.7255 20.9774 4.79326 20.9923 4.86522C21.0078 4.94037 21.0059 5.01808 20.9866 5.09234C20.9865 5.09265 20.9864 5.09296 20.9863 5.09327L19.1169 12.091ZM17.59 12.5H17.9735L18.0729 12.1296L19.6829 6.12959L19.8519 5.50001H19.2H7.34H6.68288L6.8581 6.13333L8.5181 12.1333L8.61955 12.5H9H17.59ZM8.66664 20.2472C8.91332 20.412 9.20333 20.5 9.5 20.5C9.89782 20.5 10.2794 20.342 10.5607 20.0607C10.842 19.7794 11 19.3978 11 19C11 18.7033 10.912 18.4133 10.7472 18.1667C10.5824 17.92 10.3481 17.7277 10.074 17.6142C9.79994 17.5007 9.49834 17.471 9.20736 17.5288C8.91639 17.5867 8.64912 17.7296 8.43934 17.9393C8.22956 18.1491 8.0867 18.4164 8.02882 18.7074C7.97094 18.9983 8.00065 19.2999 8.11418 19.574C8.22771 19.8481 8.41997 20.0824 8.66664 20.2472ZM16.6666 20.2472C16.9133 20.412 17.2033 20.5 17.5 20.5C17.8978 20.5 18.2794 20.342 18.5607 20.0607C18.842 19.7794 19 19.3978 19 19C19 18.7033 18.912 18.4133 18.7472 18.1667C18.5824 17.92 18.3481 17.7277 18.074 17.6142C17.7999 17.5007 17.4983 17.471 17.2074 17.5288C16.9164 17.5867 16.6491 17.7296 16.4393 17.9393C16.2296 18.1491 16.0867 18.4164 16.0288 18.7074C15.9709 18.9983 16.0006 19.2999 16.1142 19.574C16.2277 19.8481 16.42 20.0824 16.6666 20.2472Z" fill="#111111" stroke="#111111"/>
</svg>
