<svg width="24" height="24" viewBox="0 0 24 24" fill="none" xmlns="http://www.w3.org/2000/svg">
<path d="M21.3563 7.73446L21.3565 7.73435L16.2675 2.6454C16.2674 2.64525 16.2672 2.6451 16.2671 2.64494C16.1734 2.5521 16.0469 2.5 15.915 2.5C15.7829 2.5 15.6562 2.55227 15.5625 2.6454L15.5621 2.64579C15.5152 2.69227 15.478 2.74757 15.4527 2.80851C15.4273 2.86943 15.4142 2.93479 15.4142 3.00079C15.4142 3.0668 15.4273 3.13215 15.4527 3.19308C15.478 3.25401 15.5152 3.30931 15.5621 3.35579L15.5675 3.36113L15.5674 3.36117L17.3574 5.19117L17.702 5.54338L17.3549 5.89304L11.9349 11.353L11.5813 11.7092L11.2265 11.3543L10.2265 10.3543L10.2258 10.3537C9.99358 10.1207 9.7176 9.93574 9.41372 9.80956C9.10984 9.68338 8.78404 9.61843 8.45501 9.61843C8.12597 9.61843 7.80018 9.68338 7.4963 9.80956C7.19242 9.93574 6.91643 10.1207 6.68418 10.3537L6.68202 10.3559L6.68201 10.3559L3.23334 13.7746C3.23314 13.7748 3.23294 13.775 3.23273 13.7752C2.99981 14.008 2.81517 14.2845 2.68943 14.5888C2.56358 14.8935 2.4992 15.22 2.50001 15.5496L2.50001 15.5508L2.50001 19.0008C2.50001 19.6638 2.7634 20.2997 3.23224 20.7686C3.70108 21.2374 4.33697 21.5008 5.00001 21.5008H8.45001H8.45123C8.78083 21.5016 9.10734 21.4372 9.41196 21.3114C9.71646 21.1856 9.99309 21.0008 10.2259 20.7678C10.226 20.7677 10.2261 20.7676 10.2262 20.7675M21.3563 7.73446L10.58 21.1208L10.2262 20.7675M21.3563 7.73446L21.3656 7.74329C21.4148 7.79 21.454 7.84623 21.4807 7.90855C21.5075 7.97087 21.5213 8.03797 21.5213 8.10579C21.5213 8.17361 21.5075 8.24072 21.4807 8.30304C21.454 8.36536 21.4148 8.42158 21.3656 8.46829L21.3602 8.47341L21.355 8.47869C21.3085 8.52556 21.2532 8.56275 21.1923 8.58814C21.1314 8.61352 21.066 8.62659 21 8.62659C20.934 8.62659 20.8687 8.61352 20.8077 8.58814C20.7468 8.56275 20.6915 8.52556 20.645 8.47869L20.6436 8.47724L18.8136 6.64724L18.4607 6.29433L18.1071 6.64659L12.6471 12.0866L12.2923 12.4401L12.6465 12.7943L13.6465 13.7943L13.6471 13.795C13.8801 14.0272 14.0651 14.3032 14.1912 14.6071C14.3174 14.911 14.3824 15.2368 14.3824 15.5658C14.3824 15.8948 14.3174 16.2206 14.1912 16.5245C14.0651 16.8284 13.8801 17.1044 13.6471 17.3366L13.6459 17.3378L10.2262 20.7675M21.3563 7.73446L10.2262 20.7675M9.51356 20.0643L9.51212 20.0658C9.37196 20.2048 9.20574 20.3148 9.02298 20.3894C8.84066 20.4639 8.64548 20.5017 8.44856 20.5008M9.51356 20.0643L4.00001 15.5508H3.50001V15.5521V19.0008C3.50001 19.3986 3.65804 19.7801 3.93935 20.0615C4.22065 20.3428 4.60218 20.5008 5.00001 20.5008H8.44856M9.51356 20.0643L12.9495 16.6284C13.0946 16.4892 13.2103 16.3223 13.2896 16.1375C13.3699 15.9506 13.4113 15.7492 13.4113 15.5458C13.4113 15.3423 13.3699 15.141 13.2896 14.9541C13.2103 14.7693 13.0946 14.6024 12.9495 14.4632L11.9536 13.4672L11.602 13.1157L11.2484 13.4653L10.3484 14.3553L10.3479 14.3558C10.2548 14.4482 10.1291 14.5002 9.9979 14.5008L9.98775 14.5008M9.51356 20.0643L9.98775 14.5008M8.44856 20.5008C8.44808 20.5008 8.4476 20.5008 8.44712 20.5008L8.45001 20.0008V20.5008H8.44856ZM9.98775 14.5008L9.97762 14.5013M9.98775 14.5008L9.97762 14.5013M9.97762 14.5013C9.90848 14.5044 9.83945 14.4931 9.7749 14.4681C9.71078 14.4434 9.65247 14.4056 9.6036 14.3573L9.97762 14.5013Z" fill="#111111" stroke="#111111"/>
</svg>
