<svg width="24" height="24" viewBox="0 0 24 24" fill="none" xmlns="http://www.w3.org/2000/svg">
<path d="M18.7102 5.27524L18.7162 5.28149L18.7225 5.28753C19.6298 6.16387 20.3536 7.21215 20.8514 8.37118C21.3493 9.53022 21.6114 10.7768 21.6224 12.0382C21.6333 13.2996 21.393 14.5506 20.9153 15.7181C20.4376 16.8856 19.7322 17.9463 18.8402 18.8383C17.9483 19.7303 16.8876 20.4357 15.72 20.9133C14.5525 21.391 13.3016 21.6314 12.0402 21.6204C10.7788 21.6094 9.53217 21.3474 8.37314 20.8495C7.2141 20.3516 6.16582 19.6279 5.28948 18.7205L5.28344 18.7143L5.27719 18.7082C4.36984 17.8319 3.64611 16.7836 3.14823 15.6246C2.65034 14.4655 2.38827 13.219 2.37731 11.9575C2.36635 10.6961 2.60672 9.44519 3.08439 8.27767C3.56205 7.11016 4.26746 6.04947 5.15944 5.15749C6.05142 4.26551 7.11211 3.5601 8.27963 3.08243C9.44714 2.60476 10.6981 2.3644 11.9595 2.37536C13.2209 2.38632 14.4675 2.64839 15.6265 3.14627C16.7856 3.64416 17.8338 4.36789 18.7102 5.27524ZM18.2298 7.49788H19.2812L18.6177 6.68234C17.7326 5.59443 16.596 4.73834 15.306 4.18799L14.9952 4.05538L14.7563 4.29433L12.4063 6.64433L11.5527 7.49788H12.7598H18.2298ZM8.81404 4.13368L8.49984 4.25944V4.59788V7.92788V9.13499L9.35339 8.28144L13.2234 4.41144L13.9658 3.66897L12.9215 3.56055C11.5261 3.4157 10.1165 3.6124 8.81404 4.13368ZM7.49984 5.76788V4.71653L6.68429 5.38003C5.59639 6.26511 4.74029 7.40171 4.18994 8.69167L4.05734 9.00249L4.29628 9.24144L4.83628 9.78144L6.64628 11.5914L7.49984 12.445V11.2379V5.76788ZM4.13581 15.1841L4.26173 15.4979H4.59984H7.92983H9.13694L8.28339 14.6443L4.41339 10.7743L3.6718 10.0327L3.56256 11.0758C3.41638 12.4715 3.61316 13.8817 4.13581 15.1841ZM5.76984 16.4979H4.71848L5.38198 17.3134C6.26706 18.4013 7.40366 19.2574 8.69363 19.8078L9.00444 19.9404L9.24339 19.7014L11.5934 17.3514L12.4469 16.4979H11.2398H5.76984ZM15.1859 19.862L15.4998 19.7361V19.3979V16.0679V14.8608L14.6463 15.7143L10.7763 19.5843L10.0344 20.3262L11.0779 20.4352C12.4735 20.5809 13.8835 20.3842 15.1859 19.862ZM15.3534 13.5914L15.4998 13.445V13.2379V10.7579V10.5508L15.3534 10.4043L13.5934 8.64433L13.4469 8.49788H13.2398H10.7598H10.5527L10.4063 8.64433L8.64628 10.4043L8.49984 10.5508V10.7579V13.2379V13.4442L8.64528 13.5904L10.3953 15.3504L10.5419 15.4979H10.7498H13.2398H13.4469L13.5934 15.3514L15.3534 13.5914ZM17.3534 12.4043L16.4998 11.5508V12.7579V17.9901V18.2279V18.2379H16.9998H17.008L17.3154 18.6157C18.4033 17.7307 19.2594 16.5941 19.8097 15.3041L19.9423 14.9933L19.7034 14.7543L17.3534 12.4043ZM16.0698 8.49788H14.8627L15.7163 9.35144L19.5863 13.2214L20.3282 13.9633L20.4371 12.9198C20.5829 11.5242 20.3861 10.1142 19.8639 8.8118L19.7381 8.49788H19.3998H16.0698Z" fill="#111111" stroke="#111111"/>
</svg>
