<svg width="24" height="24" viewBox="0 0 24 24" fill="none" xmlns="http://www.w3.org/2000/svg">
<path d="M10.0571 15.6459L9.20044 16.5H10.4101H16.0001C16.1327 16.5 16.2599 16.5527 16.3537 16.6464C16.4475 16.7402 16.5001 16.8674 16.5001 17C16.5001 17.1326 16.4475 17.2598 16.3537 17.3536C16.2599 17.4473 16.1327 17.5 16.0001 17.5H8.00154C7.90321 17.4993 7.80726 17.4696 7.7257 17.4146C7.64384 17.3595 7.58015 17.2813 7.54264 17.19L7.54265 17.19L7.54105 17.1862C7.50276 17.0951 7.4923 16.9948 7.51098 16.8978C7.52957 16.8013 7.57615 16.7125 7.64491 16.6423L11.9433 12.354L12.2981 12L11.9433 11.646L7.64491 7.35766C7.57616 7.28753 7.52957 7.19869 7.51098 7.10222C7.4923 7.00523 7.50276 6.90487 7.54105 6.81382L7.54106 6.81382L7.54264 6.80999C7.58015 6.71868 7.64384 6.64052 7.7257 6.58535C7.80728 6.53038 7.90325 6.50069 8.0016 6.5H16.0001C16.1327 6.5 16.2599 6.55268 16.3537 6.64645C16.4475 6.74021 16.5001 6.86739 16.5001 7C16.5001 7.13261 16.4475 7.25979 16.3537 7.35355C16.2599 7.44732 16.1327 7.5 16.0001 7.5H10.4101H9.20044L10.0571 8.35409L13.3571 11.6441L13.358 11.645C13.4049 11.6915 13.4421 11.7468 13.4675 11.8077C13.4929 11.8686 13.5059 11.934 13.5059 12C13.5059 12.066 13.4929 12.1314 13.4675 12.1923C13.4421 12.2532 13.4049 12.3085 13.358 12.355L13.3571 12.3559L10.0571 15.6459Z" fill="#111111" stroke="#111111"/>
</svg>
