<svg width="24" height="24" viewBox="0 0 24 24" fill="none" xmlns="http://www.w3.org/2000/svg">
<path d="M11.9998 2.5001L11.9978 2.5001C10.2223 2.49217 8.48015 2.98195 6.96891 3.91388C5.45767 4.84581 4.23784 6.18259 3.44777 7.77259L3.44721 7.77371C3.38717 7.89379 3.37729 8.03281 3.41975 8.16018C3.4622 8.28755 3.55352 8.39284 3.67361 8.45289C3.79369 8.51293 3.93271 8.52281 4.06008 8.48035C4.18715 8.438 4.29224 8.34702 4.35235 8.22736C5.02406 6.87126 6.04564 5.71908 7.31157 4.88983C8.57777 4.06041 10.0425 3.58416 11.5544 3.51029C13.0662 3.43642 14.5704 3.76761 15.9114 4.46964C17.2524 5.17167 18.3817 6.21907 19.1824 7.50359C19.9832 8.78812 20.4264 10.2632 20.4662 11.7763C20.5061 13.2895 20.1412 14.7858 19.4092 16.1107C18.6772 17.4356 17.6046 18.541 16.3024 19.3127C15.0003 20.0843 13.5157 20.4942 12.0022 20.5001C12.0021 20.5001 12.002 20.5001 12.0019 20.5001L12 20.0001L11.9998 2.5001ZM11.9998 2.5001C13.6923 2.50089 15.3539 2.95386 16.8127 3.81215C18.2715 4.67044 19.4745 5.90288 20.2973 7.38199C21.1201 8.8611 21.5328 10.5332 21.4926 12.2253C21.4525 13.9173 20.9611 15.568 20.0691 17.0064C19.1772 18.4449 17.9171 19.6189 16.4193 20.4071C14.9215 21.1953 13.2403 21.569 11.5496 21.4896C9.85889 21.4102 8.22011 20.8806 6.80276 19.9554C5.38541 19.0303 4.24095 17.7433 3.48777 16.2276L3.48721 16.2265M11.9998 2.5001L3.48721 16.2265M3.48721 16.2265C3.42717 16.1064 3.41729 15.9674 3.45975 15.84C3.5022 15.7126 3.59352 15.6074 3.71361 15.5473C3.83369 15.4873 3.97271 15.4774 4.10008 15.5198C4.22686 15.5621 4.33175 15.6528 4.39193 15.772L3.48721 16.2265ZM12.9428 13.3544L13.8008 12.5001H12.59H3C2.86739 12.5001 2.74021 12.4474 2.64645 12.3537C2.55268 12.2599 2.5 12.1327 2.5 12.0001C2.5 11.8675 2.55268 11.7403 2.64645 11.6465C2.74021 11.5528 2.86739 11.5001 3 11.5001H12.59H13.8008L12.9428 10.6458L10.6436 8.35655C10.6435 8.35645 10.6434 8.35636 10.6433 8.35626C10.5966 8.30951 10.5596 8.25404 10.5343 8.19301C10.5089 8.13185 10.4959 8.0663 10.4959 8.0001C10.4959 7.9339 10.5089 7.86835 10.5343 7.80719C10.5596 7.74603 10.5967 7.69046 10.6436 7.64365C10.6904 7.59684 10.7459 7.55971 10.8071 7.53438C10.8683 7.50905 10.9338 7.49601 11 7.49601C11.0662 7.49601 11.1317 7.50905 11.1929 7.53438C11.2541 7.55971 11.3096 7.59684 11.3564 7.64365L15.3519 11.6391C15.396 11.686 15.4306 11.7409 15.4538 11.8009L15.4537 11.8009L15.4575 11.8101C15.5075 11.9318 15.5075 12.0684 15.4575 12.1901L15.4574 12.1901L15.4538 12.1993C15.4306 12.2593 15.396 12.3142 15.3519 12.3611L11.3564 16.3565L11.355 16.358C11.3085 16.4049 11.2532 16.4421 11.1923 16.4674C11.1314 16.4928 11.066 16.5059 11 16.5059C10.934 16.5059 10.8686 16.4928 10.8077 16.4674C10.7468 16.4421 10.6915 16.4049 10.645 16.358L10.6421 16.3551C10.5952 16.3086 10.558 16.2533 10.5327 16.1924C10.5073 16.1315 10.4942 16.0661 10.4942 16.0001C10.4942 15.9341 10.5073 15.8687 10.5327 15.8078C10.558 15.7469 10.5952 15.6916 10.6421 15.6451L10.6428 15.6444L12.9428 13.3544Z" fill="#111111" stroke="#111111"/>
</svg>
