<svg width="24" height="24" viewBox="0 0 24 24" fill="none" xmlns="http://www.w3.org/2000/svg">
<path d="M20.2778 15.5478L20.2778 15.5479L20.2834 15.5506C20.3432 15.5793 20.3967 15.6197 20.4407 15.6694C20.4848 15.7191 20.5185 15.777 20.5399 15.8399C20.5613 15.9027 20.57 15.9691 20.5654 16.0354C20.5609 16.1016 20.5432 16.1663 20.5134 16.2256L20.5124 16.2275C19.5592 18.1458 17.9856 19.6856 16.0472 20.5971C14.1087 21.5086 11.919 21.7381 9.83367 21.2486C7.74829 20.759 5.88957 19.579 4.55919 17.9002C3.22882 16.2213 2.50488 14.1421 2.50488 12C2.50488 9.85793 3.22882 7.77873 4.55919 6.09986C5.88957 4.421 7.74829 3.24102 9.83367 2.75145C11.919 2.26188 14.1087 2.49146 16.0472 3.40292C17.9856 4.31438 19.5592 5.85422 20.5124 7.77251L20.513 7.77361C20.573 7.8937 20.5829 8.03272 20.5404 8.16009C20.498 8.28746 20.4067 8.39275 20.2866 8.45279C20.1665 8.51284 20.0275 8.52272 19.9001 8.48026C19.7733 8.43801 19.6685 8.34737 19.6083 8.22814C18.9126 6.80485 17.83 5.60636 16.4844 4.7701C15.1385 3.93359 13.584 3.4934 11.9994 3.50001C10.4844 3.49851 8.99651 3.90196 7.68978 4.66859C6.38265 5.43546 5.30432 6.53785 4.56647 7.86158C3.82862 9.18531 3.4581 10.6822 3.49328 12.1973C3.52845 13.7124 3.96805 15.1905 4.76653 16.4785C5.56502 17.7666 6.69335 18.8178 8.03466 19.5231C9.37597 20.2285 10.8815 20.5625 12.3952 20.4904C13.909 20.4183 15.376 19.9428 16.6442 19.1132C17.9123 18.2837 18.9355 17.1302 19.608 15.7724C19.6671 15.6539 19.7708 15.5638 19.8962 15.5217C20.0219 15.4795 20.1591 15.4889 20.2778 15.5478ZM11.0574 10.6457L10.1994 11.5H11.4102H21.0002C21.1328 11.5 21.26 11.5527 21.3537 11.6465C21.4475 11.7402 21.5002 11.8674 21.5002 12C21.5002 12.1326 21.4475 12.2598 21.3537 12.3536C21.26 12.4473 21.1328 12.5 21.0002 12.5H11.4102H10.1994L11.0574 13.3543L13.3574 15.6443L13.3581 15.645C13.405 15.6915 13.4421 15.7468 13.4675 15.8077C13.4929 15.8687 13.506 15.934 13.506 16C13.506 16.066 13.4929 16.1314 13.4675 16.1923C13.4422 16.2532 13.405 16.3085 13.3581 16.355L13.3552 16.3579C13.3087 16.4048 13.2534 16.442 13.1925 16.4674C13.1315 16.4927 13.0662 16.5058 13.0002 16.5058C12.9342 16.5058 12.8688 16.4927 12.8079 16.4674C12.747 16.442 12.6917 16.4048 12.6452 16.3579L12.6437 16.3565L8.64825 12.361C8.60422 12.3141 8.56962 12.2592 8.54637 12.1993L8.54647 12.1992L8.54268 12.19C8.49267 12.0683 8.49267 11.9317 8.54268 11.81L8.54277 11.81L8.54637 11.8008C8.56962 11.7408 8.60422 11.6859 8.64825 11.639L12.6437 7.64356C12.6906 7.59675 12.7461 7.55962 12.8073 7.53429C12.8684 7.50896 12.934 7.49592 13.0002 7.49592C13.0664 7.49592 13.1319 7.50896 13.1931 7.53429C13.2543 7.55962 13.3098 7.59675 13.3566 7.64356C13.4034 7.69037 13.4406 7.74594 13.4659 7.8071C13.4912 7.86826 13.5043 7.93381 13.5043 8.00001C13.5043 8.06621 13.4912 8.13176 13.4659 8.19292C13.4406 8.25395 13.4036 8.30942 13.3569 8.35617C13.3568 8.35627 13.3567 8.35636 13.3566 8.35645L11.0574 10.6457Z" fill="#111111" stroke="#111111"/>
</svg>
