<svg width="24" height="24" viewBox="0 0 24 24" fill="none" xmlns="http://www.w3.org/2000/svg">
<path d="M11.0572 10.6457L10.1992 11.5H11.41H19C19.1326 11.5 19.2598 11.5527 19.3536 11.6464C19.4473 11.7402 19.5 11.8674 19.5 12C19.5 12.1326 19.4473 12.2598 19.3536 12.3536C19.2598 12.4473 19.1326 12.5 19 12.5H11.41H10.1992L11.0572 13.3543L13.3572 15.6443L13.3579 15.645C13.4048 15.6915 13.442 15.7468 13.4673 15.8077C13.4927 15.8686 13.5058 15.934 13.5058 16C13.5058 16.066 13.4927 16.1314 13.4673 16.1923C13.442 16.2532 13.4048 16.3085 13.3579 16.355L13.355 16.3579C13.3085 16.4048 13.2532 16.442 13.1923 16.4673C13.1314 16.4927 13.066 16.5058 13 16.5058C12.934 16.5058 12.8686 16.4927 12.8077 16.4673C12.7468 16.442 12.6915 16.4048 12.645 16.3579L12.6436 16.3564L8.64807 12.361C8.60403 12.3141 8.56944 12.2592 8.54618 12.1992L8.54628 12.1992L8.54249 12.19C8.49248 12.0683 8.49248 11.9317 8.54249 11.81L8.54258 11.81L8.54618 11.8008C8.56944 11.7408 8.60403 11.6859 8.64807 11.639L12.6436 7.64355C12.6904 7.59674 12.7459 7.55961 12.8071 7.53428C12.8683 7.50895 12.9338 7.49591 13 7.49591C13.0662 7.49591 13.1317 7.50895 13.1929 7.53428C13.2541 7.55961 13.3096 7.59674 13.3564 7.64355C13.4033 7.69036 13.4404 7.74593 13.4657 7.80709C13.4911 7.86825 13.5041 7.9338 13.5041 8C13.5041 8.0662 13.4911 8.13175 13.4657 8.19291C13.4404 8.25394 13.4034 8.30941 13.3567 8.35616C13.3566 8.35626 13.3565 8.35635 13.3564 8.35645L11.0572 10.6457ZM7 2.5H17C17.663 2.5 18.2989 2.76339 18.7678 3.23223C19.2366 3.70107 19.5 4.33696 19.5 5V8C19.5 8.13261 19.4473 8.25979 19.3536 8.35355C19.2598 8.44732 19.1326 8.5 19 8.5C18.8674 8.5 18.7402 8.44732 18.6464 8.35355C18.5527 8.25979 18.5 8.13261 18.5 8V5C18.5 4.60218 18.342 4.22065 18.0607 3.93934C17.7794 3.65804 17.3978 3.5 17 3.5H7C6.60217 3.5 6.22064 3.65804 5.93934 3.93934C5.65804 4.22064 5.5 4.60217 5.5 5V19C5.5 19.3978 5.65804 19.7794 5.93934 20.0607C6.22065 20.342 6.60218 20.5 7 20.5H17C17.3978 20.5 17.7794 20.342 18.0607 20.0607C18.342 19.7794 18.5 19.3978 18.5 19V16C18.5 15.8674 18.5527 15.7402 18.6464 15.6464C18.7402 15.5527 18.8674 15.5 19 15.5C19.1326 15.5 19.2598 15.5527 19.3536 15.6464C19.4473 15.7402 19.5 15.8674 19.5 16V19C19.5 19.663 19.2366 20.2989 18.7678 20.7678C18.2989 21.2366 17.663 21.5 17 21.5H7C6.33696 21.5 5.70107 21.2366 5.23223 20.7678C4.76339 20.2989 4.5 19.663 4.5 19V5C4.5 4.33696 4.76339 3.70107 5.23223 3.23223C5.70107 2.76339 6.33696 2.5 7 2.5Z" fill="#111111" stroke="#111111"/>
</svg>
