<svg width="24" height="24" viewBox="0 0 24 24" fill="none" xmlns="http://www.w3.org/2000/svg">
<path d="M10.5 5H10V5.5V8.5V9H10.5H13.5H14V8.5V5.5V5H13.5H10.5ZM8.5 19H9V18.5V15.5V15H8.5H5.5H5V15.5V17C5 17.5304 5.21071 18.0391 5.58579 18.4142C5.96086 18.7893 6.46957 19 7 19H8.5ZM13.5 19H14V18.5V15.5V15H13.5H10.5H10V15.5V18.5V19H10.5H13.5ZM15 18.5V19H15.5H17C17.5304 19 18.0391 18.7893 18.4142 18.4142C18.7893 18.0391 19 17.5304 19 17V15.5V15H18.5H15.5H15V15.5V18.5ZM18.5 14H19V13.5V10.5V10H18.5H9.5C9.36739 10 9.24022 9.94732 9.14645 9.85355C9.05268 9.75978 9 9.63261 9 9.5V5.5V5H8.5H7C6.46957 5 5.96086 5.21071 5.58579 5.58579C5.21071 5.96086 5 6.46957 5 7V13.5V14H5.5H18.5ZM18.5 9H19V8.5V7C19 6.46957 18.7893 5.96086 18.4142 5.58579C18.0391 5.21071 17.5304 5 17 5H15.5H15V5.5V8.5V9H15.5H18.5ZM7 4H17C17.7956 4 18.5587 4.31607 19.1213 4.87868C19.6839 5.44129 20 6.20435 20 7V17C20 17.7957 19.6839 18.5587 19.1213 19.1213C18.5587 19.6839 17.7957 20 17 20H7C6.20435 20 5.44129 19.6839 4.87868 19.1213C4.31607 18.5587 4 17.7956 4 17V7C4 6.20435 4.31607 5.44129 4.87868 4.87868C5.44129 4.31607 6.20435 4 7 4Z" fill="#111111" stroke="#111111"/>
</svg>
