<svg width="24" height="24" viewBox="0 0 24 24" fill="none" xmlns="http://www.w3.org/2000/svg">
<path d="M13.14 9.33003V9.33V4C13.14 3.60217 13.298 3.22064 13.5793 2.93934C13.8606 2.65804 14.2422 2.5 14.64 2.5C15.0378 2.5 15.4194 2.65804 15.7007 2.93934C15.982 3.22064 16.14 3.60217 16.14 4V9.33C16.14 9.72783 15.982 10.1094 15.7007 10.3907C15.4194 10.672 15.0378 10.83 14.64 10.83V10.8301C14.4468 10.8301 14.2555 10.7928 14.0764 10.7202C13.8926 10.6457 13.7255 10.5355 13.5846 10.396C13.4437 10.2565 13.3319 10.0905 13.2556 9.90754C13.1793 9.72456 13.14 9.52828 13.14 9.33003ZM21.46 9.33V9.6745C21.441 9.75518 21.4153 9.83434 21.383 9.91114C21.3058 10.0951 21.1926 10.2618 21.0501 10.4015C20.9076 10.5412 20.7387 10.6511 20.5532 10.7246C20.3678 10.7982 20.1695 10.8341 19.97 10.8301L19.97 10.83H19.96H18.46V9.33C18.46 8.93218 18.618 8.55064 18.8993 8.26934C19.1806 7.98803 19.5622 7.83 19.96 7.83C20.3578 7.83 20.7394 7.98804 21.0207 8.26934C21.302 8.55064 21.46 8.93217 21.46 9.33ZM2.93934 15.7307C2.65804 15.4494 2.5 15.0678 2.5 14.67C2.5 14.2722 2.65804 13.8906 2.93934 13.6093C3.22064 13.328 3.60218 13.17 4 13.17H5.5V14.67C5.5 15.0678 5.34196 15.4494 5.06066 15.7307C4.77936 16.012 4.39782 16.17 4 16.17C3.60218 16.17 3.22064 16.012 2.93934 15.7307ZM8.27934 13.6093C8.56064 13.328 8.94218 13.17 9.34 13.17C9.73782 13.17 10.1194 13.328 10.4007 13.6093C10.682 13.8906 10.84 14.2722 10.84 14.67V20C10.84 20.3978 10.682 20.7794 10.4007 21.0607C10.1194 21.342 9.73782 21.5 9.34 21.5C8.94218 21.5 8.56064 21.342 8.27934 21.0607C7.99803 20.7794 7.84 20.3978 7.84 20V14.67C7.84 14.2722 7.99804 13.8906 8.27934 13.6093ZM13.16 20V18.5H14.66C14.9567 18.5 15.2467 18.588 15.4934 18.7528C15.74 18.9176 15.9323 19.1519 16.0458 19.426C16.1594 19.7001 16.1891 20.0017 16.1312 20.2926C16.0733 20.5836 15.9304 20.8509 15.7207 21.0607C15.5109 21.2704 15.2436 21.4133 14.9526 21.4712C14.6617 21.5291 14.3601 21.4994 14.086 21.3858C13.8119 21.2723 13.5776 21.08 13.4128 20.8334C13.248 20.5867 13.16 20.2967 13.16 20ZM14.66 13.17H20C20.3978 13.17 20.7794 13.328 21.0607 13.6093C21.342 13.8906 21.5 14.2722 21.5 14.67C21.5 15.0678 21.342 15.4494 21.0607 15.7307C20.7794 16.012 20.3978 16.17 20 16.17H14.66C14.2622 16.17 13.8806 16.012 13.5993 15.7307C13.318 15.4494 13.16 15.0678 13.16 14.67C13.16 14.2722 13.318 13.8906 13.5993 13.6093C13.8806 13.328 14.2622 13.17 14.66 13.17ZM4 7.83H9.34C9.73783 7.83 10.1194 7.98804 10.4007 8.26934C10.682 8.55064 10.84 8.93218 10.84 9.33C10.84 9.72782 10.682 10.1094 10.4007 10.3907C10.1194 10.672 9.73782 10.83 9.34 10.83H4C3.60218 10.83 3.22064 10.672 2.93934 10.3907C2.65804 10.1094 2.5 9.72782 2.5 9.33C2.5 8.93218 2.65804 8.55064 2.93934 8.26934C3.22064 7.98804 3.60218 7.83 4 7.83ZM8.27934 2.93934C8.56064 2.65804 8.94218 2.5 9.34 2.5C9.73782 2.5 10.1194 2.65804 10.4007 2.93934C10.682 3.22064 10.84 3.60218 10.84 4V5.5H9.34C8.94218 5.5 8.56064 5.34196 8.27934 5.06066C7.99804 4.77936 7.84 4.39783 7.84 4C7.84 3.60218 7.99804 3.22064 8.27934 2.93934Z" fill="#111111" stroke="#111111"/>
</svg>
