<svg width="24" height="24" viewBox="0 0 24 24" fill="none" xmlns="http://www.w3.org/2000/svg">
<mask id="path-1-inside-1_2239_7833" fill="white">
<path d="M23 9.49611C22.9989 8.56819 22.6298 7.67861 21.9736 7.02247C21.3175 6.36634 20.4279 5.99723 19.5 5.99611C18.98 5.9989 18.4673 6.1189 18 6.34718V4.4961C18.0011 3.80032 17.7944 3.12005 17.4065 2.54243C17.0186 1.96481 16.4671 1.51614 15.8226 1.25387C15.1781 0.991606 14.4701 0.927687 13.789 1.0703C13.108 1.21292 12.4851 1.55558 12 2.0544C11.4244 1.45575 10.6539 1.08223 9.82741 1.00107C9.00087 0.919912 8.17251 1.13645 7.49142 1.6117C6.81033 2.08695 6.32124 2.7897 6.11219 3.59347C5.90314 4.39724 5.98785 5.24924 6.35108 5.99611H4.50001C3.80422 5.99504 3.12396 6.2017 2.54634 6.58961C1.96872 6.97753 1.52005 7.52904 1.25778 8.1735C0.995512 8.81797 0.931594 9.52605 1.07421 10.2071C1.21683 10.8881 1.55949 11.511 2.0583 11.9961C1.45965 12.5717 1.08613 13.3422 1.00498 14.1687C0.923818 14.9952 1.14035 15.8236 1.6156 16.5047C2.09085 17.1858 2.79361 17.6749 3.59738 17.8839C4.40115 18.093 5.25314 18.0083 6.00001 17.645V19.4961C5.99895 20.1919 6.20561 20.8722 6.59352 21.4498C6.98143 22.0274 7.53294 22.4761 8.17741 22.7383C8.82187 23.0006 9.52996 23.0645 10.211 22.9219C10.892 22.7793 11.5149 22.4366 12 21.9378C12.5757 22.5365 13.3461 22.91 14.1726 22.9911C14.9992 23.0723 15.8275 22.8558 16.5086 22.3805C17.1897 21.9053 17.6788 21.2025 17.8878 20.3987C18.0969 19.595 18.0122 18.743 17.6489 17.9961H19.5C20.1958 17.9972 20.8761 17.7905 21.4537 17.4026C22.0313 17.0147 22.48 16.4632 22.7422 15.8187C23.0045 15.1742 23.0684 14.4662 22.9258 13.7851C22.7832 13.1041 22.4405 12.4812 21.9417 11.9961C22.2764 11.6714 22.5425 11.2828 22.7243 10.8534C22.906 10.4239 22.9998 9.96242 23 9.49611ZM13 4.4961C13 4.09828 13.158 3.71675 13.4394 3.43544C13.7207 3.15414 14.1022 2.9961 14.5 2.9961C14.8978 2.9961 15.2794 3.15414 15.5607 3.43544C15.842 3.71675 16 4.09828 16 4.4961V9.49611C16 9.89393 15.842 10.2755 15.5607 10.5568C15.2794 10.8381 14.8978 10.9961 14.5 10.9961C14.1022 10.9961 13.7207 10.8381 13.4394 10.5568C13.158 10.2755 13 9.89393 13 9.49611V4.4961ZM6.00001 14.4961C6.00001 14.7928 5.91204 15.0828 5.74722 15.3295C5.58239 15.5761 5.34813 15.7684 5.07404 15.8819C4.79995 15.9955 4.49835 16.0252 4.20738 15.9673C3.9164 15.9094 3.64913 15.7665 3.43935 15.5568C3.22957 15.347 3.08671 15.0797 3.02883 14.7887C2.97096 14.4978 3.00066 14.1962 3.11419 13.9221C3.22772 13.648 3.41998 13.4137 3.66666 13.2489C3.91333 13.0841 4.20334 12.9961 4.50001 12.9961H6.00001V14.4961ZM11 19.4961C11 19.8939 10.842 20.2755 10.5607 20.5568C10.2794 20.8381 9.89784 20.9961 9.50001 20.9961C9.10219 20.9961 8.72066 20.8381 8.43935 20.5568C8.15805 20.2755 8.00001 19.8939 8.00001 19.4961V14.4961C8.00001 14.0983 8.15805 13.7167 8.43935 13.4354C8.72066 13.1541 9.10219 12.9961 9.50001 12.9961C9.89784 12.9961 10.2794 13.1541 10.5607 13.4354C10.842 13.7167 11 14.0983 11 14.4961V19.4961ZM9.50001 10.9961H4.50001C4.10219 10.9961 3.72066 10.8381 3.43935 10.5568C3.15805 10.2755 3.00001 9.89393 3.00001 9.49611C3.00001 9.09828 3.15805 8.71675 3.43935 8.43544C3.72066 8.15414 4.10219 7.99611 4.50001 7.99611H9.50001C9.89784 7.99611 10.2794 8.15414 10.5607 8.43544C10.842 8.71675 11 9.09828 11 9.49611C11 9.89393 10.842 10.2755 10.5607 10.5568C10.2794 10.8381 9.89784 10.9961 9.50001 10.9961ZM11 5.99611H9.50001C9.20334 5.99611 8.91333 5.90813 8.66666 5.74331C8.41998 5.57849 8.22772 5.34422 8.11419 5.07013C8.00066 4.79604 7.97096 4.49444 8.02883 4.20347C8.08671 3.9125 8.22957 3.64522 8.43935 3.43544C8.64913 3.22567 8.9164 3.0828 9.20738 3.02493C9.49835 2.96705 9.79995 2.99675 10.074 3.11029C10.3481 3.22382 10.5824 3.41608 10.7472 3.66275C10.912 3.90942 11 4.19943 11 4.4961V5.99611ZM12 12.0544C11.9807 12.0346 11.9615 12.0155 11.9417 11.9961C11.9615 11.9768 11.9807 11.9576 12 11.9378C12.0194 11.9576 12.0385 11.9768 12.0583 11.9961C12.0385 12.0155 12.0194 12.0346 12 12.0544ZM14.5 20.9961C14.1023 20.9957 13.721 20.8375 13.4398 20.5563C13.1586 20.2751 13.0004 19.8938 13 19.4961V17.9961H14.5C14.8978 17.9961 15.2794 18.1541 15.5607 18.4354C15.842 18.7168 16 19.0983 16 19.4961C16 19.8939 15.842 20.2755 15.5607 20.5568C15.2794 20.8381 14.8978 20.9961 14.5 20.9961ZM19.5 15.9961H14.5C14.1022 15.9961 13.7207 15.8381 13.4394 15.5568C13.158 15.2755 13 14.8939 13 14.4961C13 14.0983 13.158 13.7167 13.4394 13.4354C13.7207 13.1541 14.1022 12.9961 14.5 12.9961H19.5C19.8978 12.9961 20.2794 13.1541 20.5607 13.4354C20.842 13.7167 21 14.0983 21 14.4961C21 14.8939 20.842 15.2755 20.5607 15.5568C20.2794 15.8381 19.8978 15.9961 19.5 15.9961ZM19.5 10.9961H18V9.49611C18 9.19943 18.088 8.90942 18.2528 8.66275C18.4176 8.41608 18.6519 8.22382 18.926 8.11029C19.2001 7.99675 19.5017 7.96705 19.7926 8.02493C20.0836 8.08281 20.3509 8.22567 20.5607 8.43544C20.7704 8.64522 20.9133 8.9125 20.9712 9.20347C21.0291 9.49444 20.9994 9.79604 20.8858 10.0701C20.7723 10.3442 20.58 10.5785 20.3334 10.7433C20.0867 10.9081 19.7967 10.9961 19.5 10.9961Z"/>
</mask>
<path d="M23 9.49611C22.9989 8.56819 22.6298 7.67861 21.9736 7.02247C21.3175 6.36634 20.4279 5.99723 19.5 5.99611C18.98 5.9989 18.4673 6.1189 18 6.34718V4.4961C18.0011 3.80032 17.7944 3.12005 17.4065 2.54243C17.0186 1.96481 16.4671 1.51614 15.8226 1.25387C15.1781 0.991606 14.4701 0.927687 13.789 1.0703C13.108 1.21292 12.4851 1.55558 12 2.0544C11.4244 1.45575 10.6539 1.08223 9.82741 1.00107C9.00087 0.919912 8.17251 1.13645 7.49142 1.6117C6.81033 2.08695 6.32124 2.7897 6.11219 3.59347C5.90314 4.39724 5.98785 5.24924 6.35108 5.99611H4.50001C3.80422 5.99504 3.12396 6.2017 2.54634 6.58961C1.96872 6.97753 1.52005 7.52904 1.25778 8.1735C0.995512 8.81797 0.931594 9.52605 1.07421 10.2071C1.21683 10.8881 1.55949 11.511 2.0583 11.9961C1.45965 12.5717 1.08613 13.3422 1.00498 14.1687C0.923818 14.9952 1.14035 15.8236 1.6156 16.5047C2.09085 17.1858 2.79361 17.6749 3.59738 17.8839C4.40115 18.093 5.25314 18.0083 6.00001 17.645V19.4961C5.99895 20.1919 6.20561 20.8722 6.59352 21.4498C6.98143 22.0274 7.53294 22.4761 8.17741 22.7383C8.82187 23.0006 9.52996 23.0645 10.211 22.9219C10.892 22.7793 11.5149 22.4366 12 21.9378C12.5757 22.5365 13.3461 22.91 14.1726 22.9911C14.9992 23.0723 15.8275 22.8558 16.5086 22.3805C17.1897 21.9053 17.6788 21.2025 17.8878 20.3987C18.0969 19.595 18.0122 18.743 17.6489 17.9961H19.5C20.1958 17.9972 20.8761 17.7905 21.4537 17.4026C22.0313 17.0147 22.48 16.4632 22.7422 15.8187C23.0045 15.1742 23.0684 14.4662 22.9258 13.7851C22.7832 13.1041 22.4405 12.4812 21.9417 11.9961C22.2764 11.6714 22.5425 11.2828 22.7243 10.8534C22.906 10.4239 22.9998 9.96242 23 9.49611ZM13 4.4961C13 4.09828 13.158 3.71675 13.4394 3.43544C13.7207 3.15414 14.1022 2.9961 14.5 2.9961C14.8978 2.9961 15.2794 3.15414 15.5607 3.43544C15.842 3.71675 16 4.09828 16 4.4961V9.49611C16 9.89393 15.842 10.2755 15.5607 10.5568C15.2794 10.8381 14.8978 10.9961 14.5 10.9961C14.1022 10.9961 13.7207 10.8381 13.4394 10.5568C13.158 10.2755 13 9.89393 13 9.49611V4.4961ZM6.00001 14.4961C6.00001 14.7928 5.91204 15.0828 5.74722 15.3295C5.58239 15.5761 5.34813 15.7684 5.07404 15.8819C4.79995 15.9955 4.49835 16.0252 4.20738 15.9673C3.9164 15.9094 3.64913 15.7665 3.43935 15.5568C3.22957 15.347 3.08671 15.0797 3.02883 14.7887C2.97096 14.4978 3.00066 14.1962 3.11419 13.9221C3.22772 13.648 3.41998 13.4137 3.66666 13.2489C3.91333 13.0841 4.20334 12.9961 4.50001 12.9961H6.00001V14.4961ZM11 19.4961C11 19.8939 10.842 20.2755 10.5607 20.5568C10.2794 20.8381 9.89784 20.9961 9.50001 20.9961C9.10219 20.9961 8.72066 20.8381 8.43935 20.5568C8.15805 20.2755 8.00001 19.8939 8.00001 19.4961V14.4961C8.00001 14.0983 8.15805 13.7167 8.43935 13.4354C8.72066 13.1541 9.10219 12.9961 9.50001 12.9961C9.89784 12.9961 10.2794 13.1541 10.5607 13.4354C10.842 13.7167 11 14.0983 11 14.4961V19.4961ZM9.50001 10.9961H4.50001C4.10219 10.9961 3.72066 10.8381 3.43935 10.5568C3.15805 10.2755 3.00001 9.89393 3.00001 9.49611C3.00001 9.09828 3.15805 8.71675 3.43935 8.43544C3.72066 8.15414 4.10219 7.99611 4.50001 7.99611H9.50001C9.89784 7.99611 10.2794 8.15414 10.5607 8.43544C10.842 8.71675 11 9.09828 11 9.49611C11 9.89393 10.842 10.2755 10.5607 10.5568C10.2794 10.8381 9.89784 10.9961 9.50001 10.9961ZM11 5.99611H9.50001C9.20334 5.99611 8.91333 5.90813 8.66666 5.74331C8.41998 5.57849 8.22772 5.34422 8.11419 5.07013C8.00066 4.79604 7.97096 4.49444 8.02883 4.20347C8.08671 3.9125 8.22957 3.64522 8.43935 3.43544C8.64913 3.22567 8.9164 3.0828 9.20738 3.02493C9.49835 2.96705 9.79995 2.99675 10.074 3.11029C10.3481 3.22382 10.5824 3.41608 10.7472 3.66275C10.912 3.90942 11 4.19943 11 4.4961V5.99611ZM12 12.0544C11.9807 12.0346 11.9615 12.0155 11.9417 11.9961C11.9615 11.9768 11.9807 11.9576 12 11.9378C12.0194 11.9576 12.0385 11.9768 12.0583 11.9961C12.0385 12.0155 12.0194 12.0346 12 12.0544ZM14.5 20.9961C14.1023 20.9957 13.721 20.8375 13.4398 20.5563C13.1586 20.2751 13.0004 19.8938 13 19.4961V17.9961H14.5C14.8978 17.9961 15.2794 18.1541 15.5607 18.4354C15.842 18.7168 16 19.0983 16 19.4961C16 19.8939 15.842 20.2755 15.5607 20.5568C15.2794 20.8381 14.8978 20.9961 14.5 20.9961ZM19.5 15.9961H14.5C14.1022 15.9961 13.7207 15.8381 13.4394 15.5568C13.158 15.2755 13 14.8939 13 14.4961C13 14.0983 13.158 13.7167 13.4394 13.4354C13.7207 13.1541 14.1022 12.9961 14.5 12.9961H19.5C19.8978 12.9961 20.2794 13.1541 20.5607 13.4354C20.842 13.7167 21 14.0983 21 14.4961C21 14.8939 20.842 15.2755 20.5607 15.5568C20.2794 15.8381 19.8978 15.9961 19.5 15.9961ZM19.5 10.9961H18V9.49611C18 9.19943 18.088 8.90942 18.2528 8.66275C18.4176 8.41608 18.6519 8.22382 18.926 8.11029C19.2001 7.99675 19.5017 7.96705 19.7926 8.02493C20.0836 8.08281 20.3509 8.22567 20.5607 8.43544C20.7704 8.64522 20.9133 8.9125 20.9712 9.20347C21.0291 9.49444 20.9994 9.79604 20.8858 10.0701C20.7723 10.3442 20.58 10.5785 20.3334 10.7433C20.0867 10.9081 19.7967 10.9961 19.5 10.9961Z" fill="#111111" stroke="#111111" stroke-width="2" mask="url(#path-1-inside-1_2239_7833)"/>
</svg>
