<svg width="24" height="24" viewBox="0 0 24 24" fill="none" xmlns="http://www.w3.org/2000/svg">
<path d="M19.4999 8.18V8.53044L19.8293 8.65C20.312 8.82517 20.7289 9.14469 21.0236 9.56514C21.3183 9.98558 21.4764 10.4866 21.4764 11C21.4764 11.5134 21.3183 12.0144 21.0236 12.4349C20.7289 12.8553 20.312 13.1748 19.8293 13.35L19.4999 13.4696V13.82V21C19.4999 21.1326 19.4472 21.2598 19.3535 21.3536C19.2597 21.4473 19.1325 21.5 18.9999 21.5C18.8673 21.5 18.7401 21.4473 18.6464 21.3536C18.5526 21.2598 18.4999 21.1326 18.4999 21V13.82V13.4696L18.1705 13.35C17.6879 13.1748 17.2709 12.8553 16.9762 12.4349C16.6815 12.0144 16.5234 11.5134 16.5234 11C16.5234 10.4866 16.6815 9.98558 16.9762 9.56514C17.2709 9.14469 17.6879 8.82517 18.1705 8.65L18.4999 8.53044V8.18V3C18.4999 2.86739 18.5526 2.74021 18.6464 2.64645C18.7401 2.55268 18.8673 2.5 18.9999 2.5C19.1325 2.5 19.2597 2.55268 19.3535 2.64645C19.4472 2.74021 19.4999 2.86739 19.4999 3V8.18ZM12.4999 14.18V14.5304L12.8293 14.65C13.312 14.8252 13.7289 15.1447 14.0236 15.5651C14.3183 15.9856 14.4764 16.4866 14.4764 17C14.4764 17.5134 14.3183 18.0144 14.0236 18.4349C13.7289 18.8553 13.312 19.1748 12.8293 19.35L12.4999 19.4696V19.82V21C12.4999 21.1326 12.4472 21.2598 12.3535 21.3536C12.2597 21.4473 12.1325 21.5 11.9999 21.5C11.8673 21.5 11.7401 21.4473 11.6464 21.3536C11.5526 21.2598 11.4999 21.1326 11.4999 21V19.82V19.4696L11.1705 19.35C10.6879 19.1748 10.2709 18.8553 9.9762 18.4349C9.68152 18.0144 9.52344 17.5134 9.52344 17C9.52344 16.4866 9.68152 15.9856 9.9762 15.5651C10.2709 15.1447 10.6879 14.8252 11.1705 14.65L11.4999 14.5304V14.18V3C11.4999 2.86739 11.5526 2.74021 11.6464 2.64645C11.7401 2.55268 11.8673 2.5 11.9999 2.5C12.1325 2.5 12.2597 2.55268 12.3535 2.64645C12.4472 2.74021 12.4999 2.86739 12.4999 3V14.18ZM5.49991 6.18V6.53044L5.82933 6.65C6.31195 6.82517 6.72894 7.14469 7.02363 7.56514C7.31831 7.98559 7.47639 8.48657 7.47639 9C7.47639 9.51343 7.31831 10.0144 7.02363 10.4349C6.72894 10.8553 6.31195 11.1748 5.82933 11.35L5.49991 11.4696V11.82V21C5.49991 21.1326 5.44724 21.2598 5.35347 21.3536C5.2597 21.4473 5.13252 21.5 4.99991 21.5C4.86731 21.5 4.74013 21.4473 4.64636 21.3536C4.55259 21.2598 4.49991 21.1326 4.49991 21V11.82V11.4696L4.1705 11.35C3.68787 11.1748 3.27088 10.8553 2.9762 10.4349C2.68152 10.0144 2.52344 9.51343 2.52344 9C2.52344 8.48657 2.68152 7.98559 2.9762 7.56514C3.27088 7.14469 3.68787 6.82517 4.1705 6.65L4.49991 6.53044V6.18V3C4.49991 2.86739 4.55259 2.74021 4.64636 2.64645C4.74013 2.55268 4.86731 2.5 4.99991 2.5C5.13252 2.5 5.2597 2.55268 5.35347 2.64645C5.44724 2.74021 5.49991 2.86739 5.49991 3V6.18ZM18.1666 12.2472C18.4132 12.412 18.7032 12.5 18.9999 12.5C19.3977 12.5 19.7793 12.342 20.0606 12.0607C20.3419 11.7794 20.4999 11.3978 20.4999 11C20.4999 10.7033 20.4119 10.4133 20.2471 10.1666C20.0823 9.91997 19.848 9.72771 19.5739 9.61418C19.2999 9.50065 18.9982 9.47094 18.7073 9.52882C18.4163 9.5867 18.149 9.72956 17.9393 9.93934C17.7295 10.1491 17.5866 10.4164 17.5287 10.7074C17.4709 10.9983 17.5006 11.2999 17.6141 11.574C17.7276 11.8481 17.9199 12.0824 18.1666 12.2472ZM11.1666 18.2472C11.4132 18.412 11.7032 18.5 11.9999 18.5C12.3977 18.5 12.7793 18.342 13.0606 18.0607C13.3419 17.7794 13.4999 17.3978 13.4999 17C13.4999 16.7033 13.4119 16.4133 13.2471 16.1666C13.0823 15.92 12.848 15.7277 12.5739 15.6142C12.2999 15.5006 11.9983 15.4709 11.7073 15.5288C11.4163 15.5867 11.149 15.7296 10.9393 15.9393C10.7295 16.1491 10.5866 16.4164 10.5287 16.7074C10.4709 16.9983 10.5006 17.2999 10.6141 17.574C10.7276 17.8481 10.9199 18.0824 11.1666 18.2472ZM4.16656 10.2472C4.41323 10.412 4.70324 10.5 4.99991 10.5C5.39774 10.5 5.77927 10.342 6.06057 10.0607C6.34188 9.77936 6.49991 9.39782 6.49991 9C6.49991 8.70333 6.41194 8.41332 6.24712 8.16664C6.0823 7.91997 5.84803 7.72771 5.57394 7.61418C5.29985 7.50065 4.99825 7.47094 4.70728 7.52882C4.41631 7.5867 4.14903 7.72956 3.93925 7.93934C3.72948 8.14912 3.58661 8.41639 3.52874 8.70736C3.47086 8.99834 3.50056 9.29994 3.61409 9.57403C3.72763 9.84811 3.91989 10.0824 4.16656 10.2472Z" fill="#111111" stroke="#111111"/>
</svg>
