<svg width="24" height="24" viewBox="0 0 24 24" fill="none" xmlns="http://www.w3.org/2000/svg">
<path d="M6.71491 9.50148L6.70523 9.50977C6.65289 9.5546 6.61038 9.60976 6.58037 9.67179C6.55036 9.73382 6.53349 9.80139 6.53083 9.87025C6.52817 9.9391 6.53978 10.0078 6.56491 10.0719C6.59005 10.1361 6.62818 10.1944 6.67691 10.2431C6.72563 10.2918 6.78391 10.33 6.84807 10.3551C6.91223 10.3802 6.9809 10.3918 7.04976 10.3892C7.11862 10.3865 7.18618 10.3696 7.24822 10.3396C7.31025 10.3096 7.36541 10.2671 7.41023 10.2148L7.42213 10.2009L7.43501 10.1879C7.57445 10.0473 7.74035 9.93572 7.92314 9.85956C8.10593 9.78341 8.30199 9.7442 8.5 9.7442C8.69802 9.7442 8.89408 9.78341 9.07687 9.85956C9.25899 9.93544 9.42435 10.0465 9.56348 10.1864M6.71491 9.50148L9.21 10.54M6.71491 9.50148L6.72416 9.49271C7.20354 9.03785 7.83917 8.78428 8.5 8.78428C9.15809 8.78428 9.79119 9.03575 10.2699 9.48704M6.71491 9.50148L10.2699 9.48704M9.56348 10.1864C9.56399 10.1869 9.5645 10.1874 9.565 10.1879L9.21 10.54M9.56348 10.1864C9.56315 10.186 9.56283 10.1857 9.5625 10.1854L9.21 10.54M9.56348 10.1864C9.65706 10.2789 9.78337 10.3308 9.915 10.3308C10.0466 10.3308 10.1729 10.2789 10.2664 10.1864M9.21 10.54C9.39737 10.7263 9.65082 10.8308 9.915 10.8308C10.1792 10.8308 10.4326 10.7263 10.62 10.54M10.2664 10.1864C10.2661 10.1868 10.2658 10.1871 10.2654 10.1875L10.62 10.54M10.2664 10.1864C10.3589 10.0929 10.4108 9.9666 10.4108 9.835C10.4108 9.70503 10.3602 9.58026 10.2699 9.48704M10.2664 10.1864C10.2668 10.1861 10.2672 10.1857 10.2675 10.1854L10.62 10.54M10.62 10.54L10.2699 9.48704M14.6738 14.6192L14.6739 14.6193L14.6796 14.6145C14.7818 14.5295 14.9136 14.4887 15.046 14.5009C15.1116 14.5069 15.1753 14.5258 15.2335 14.5565C15.2918 14.5871 15.3434 14.629 15.3855 14.6796C15.4705 14.7818 15.5113 14.9136 15.4991 15.046C15.4869 15.1784 15.4226 15.3005 15.3204 15.3855L15.3196 15.3862C14.3882 16.1637 13.2133 16.5896 12 16.5896C10.7867 16.5896 9.61186 16.1637 8.68043 15.3862L8.67961 15.3855C8.57737 15.3005 8.51308 15.1784 8.50087 15.046C8.48867 14.9136 8.52955 14.7818 8.61452 14.6796C8.6995 14.5774 8.82161 14.5131 8.95399 14.5009C9.08636 14.4887 9.21817 14.5295 9.3204 14.6145L9.32037 14.6146L9.32617 14.6192C10.0836 15.2299 11.0271 15.5629 12 15.5629C12.9729 15.5629 13.9165 15.2299 14.6738 14.6192ZM15.5 8.78428C16.1581 8.78428 16.7912 9.03575 17.2699 9.48704C17.3602 9.58026 17.4108 9.70503 17.4108 9.835C17.4108 9.9666 17.3589 10.0929 17.2664 10.1864C17.1729 10.2789 17.0466 10.3308 16.915 10.3308C16.7833 10.3308 16.657 10.2789 16.5634 10.1863C16.4243 10.0465 16.259 9.93543 16.0769 9.85956C15.8941 9.78341 15.698 9.7442 15.5 9.7442C15.302 9.7442 15.1059 9.78341 14.9231 9.85956C14.7483 9.93241 14.5889 10.0377 14.4533 10.1697C14.3594 10.2454 14.2411 10.2848 14.1202 10.2801C13.9944 10.2752 13.875 10.2231 13.786 10.134C13.6969 10.045 13.6448 9.92559 13.6399 9.79976C13.6354 9.68146 13.6729 9.56563 13.7455 9.47271C14.2223 9.03042 14.8489 8.78428 15.5 8.78428ZM6.72209 4.10104C8.28435 3.05717 10.1211 2.5 12 2.5C13.2476 2.5 14.4829 2.74572 15.6355 3.22314C16.7881 3.70056 17.8354 4.40033 18.7175 5.28249C19.5997 6.16464 20.2994 7.21191 20.7769 8.36451C21.2543 9.5171 21.5 10.7524 21.5 12C21.5 13.8789 20.9428 15.7157 19.899 17.2779C18.8551 18.8402 17.3714 20.0578 15.6355 20.7769C13.8996 21.4959 11.9895 21.684 10.1466 21.3175C8.30383 20.9509 6.61109 20.0461 5.28249 18.7175C3.95389 17.3889 3.0491 15.6962 2.68254 13.8534C2.31598 12.0105 2.50412 10.1004 3.22315 8.36451C3.94218 6.62861 5.15982 5.14491 6.72209 4.10104ZM7.27766 19.0675C8.67548 20.0015 10.3189 20.5 12 20.5C14.2543 20.5 16.4164 19.6045 18.0104 18.0104C19.6045 16.4163 20.5 14.2543 20.5 12C20.5 10.3189 20.0015 8.67547 19.0675 7.27765C18.1335 5.87984 16.806 4.79037 15.2528 4.14702C13.6996 3.50368 11.9906 3.33535 10.3417 3.66333C8.6929 3.9913 7.17834 4.80085 5.9896 5.98959C4.80085 7.17834 3.9913 8.69289 3.66333 10.3417C3.33536 11.9906 3.50368 13.6996 4.14703 15.2528C4.79037 16.806 5.87984 18.1335 7.27766 19.0675Z" fill="#111111" stroke="#111111"/>
</svg>
