<svg width="24" height="24" viewBox="0 0 24 24" fill="none" xmlns="http://www.w3.org/2000/svg">
<path d="M14.8729 12V12L14.8671 12C14.8013 12.0004 14.7361 11.9878 14.6752 11.9629C14.6145 11.9381 14.5594 11.9017 14.5128 11.8557C14.5126 11.8554 14.5123 11.8552 14.5121 11.855L13.0136 10.3564L13.0121 10.355C12.9652 10.3085 12.928 10.2532 12.9027 10.1923C12.8773 10.1314 12.8642 10.066 12.8642 10C12.8642 9.93399 12.8773 9.86864 12.9027 9.80771C12.928 9.74678 12.9652 9.69148 13.0121 9.645L13.0136 9.64355L14.5136 8.14355C14.5604 8.09674 14.6159 8.05961 14.6771 8.03428C14.7383 8.00895 14.8038 7.99591 14.87 7.99591C14.9362 7.99591 15.0018 8.00895 15.0629 8.03428C15.1241 8.05961 15.1796 8.09674 15.2265 8.14355C15.2733 8.19036 15.3104 8.24593 15.3357 8.30709C15.3611 8.36825 15.3741 8.4338 15.3741 8.5C15.3741 8.5662 15.3611 8.63175 15.3357 8.69291C15.3104 8.75407 15.2733 8.80964 15.2265 8.85645L14.4365 9.64645L14.0829 10L14.4365 10.3536L15.2264 11.1436L15.2279 11.145C15.2748 11.1915 15.312 11.2468 15.3373 11.3077C15.3627 11.3686 15.3758 11.434 15.3758 11.5C15.3758 11.566 15.3627 11.6314 15.3373 11.6923C15.312 11.7532 15.2748 11.8085 15.2279 11.855L15.2279 11.855C15.1812 11.9013 15.1258 11.938 15.0648 11.9629C15.0039 11.9878 14.9387 12.0004 14.8729 12ZM14.6738 14.6192L14.6739 14.6193L14.6796 14.6145C14.7818 14.5295 14.9136 14.4887 15.046 14.5009C15.1116 14.5069 15.1753 14.5258 15.2335 14.5565C15.2918 14.5871 15.3434 14.629 15.3855 14.6796C15.4705 14.7818 15.5113 14.9136 15.4991 15.046C15.4869 15.1784 15.4226 15.3005 15.3204 15.3855L15.3196 15.3862C14.3882 16.1637 13.2133 16.5896 12 16.5896C10.7867 16.5896 9.61186 16.1637 8.68043 15.3862L8.67961 15.3855C8.57737 15.3005 8.51308 15.1784 8.50087 15.046C8.48867 14.9136 8.52955 14.7818 8.61452 14.6796C8.6995 14.5774 8.82161 14.5131 8.95399 14.5009C9.08636 14.4887 9.21817 14.5295 9.3204 14.6145L9.32037 14.6146L9.32617 14.6192C10.0836 15.2299 11.0271 15.5629 12 15.5629C12.9729 15.5629 13.9165 15.2299 14.6738 14.6192ZM9.27779 10.4157C9.19557 10.4707 9.09889 10.5 9 10.5C8.8674 10.5 8.74022 10.4473 8.64645 10.3536C8.55268 10.2598 8.5 10.1326 8.5 10C8.5 9.90111 8.52933 9.80444 8.58427 9.72221C8.63921 9.63999 8.7173 9.5759 8.80866 9.53806C8.90003 9.50022 9.00056 9.49031 9.09755 9.50961C9.19454 9.5289 9.28363 9.57652 9.35356 9.64645C9.42348 9.71637 9.4711 9.80546 9.4904 9.90245C9.50969 9.99945 9.49979 10.1 9.46194 10.1913C9.4241 10.2827 9.36001 10.3608 9.27779 10.4157ZM6.72209 4.10104C8.28435 3.05717 10.1211 2.5 12 2.5C13.2476 2.5 14.4829 2.74572 15.6355 3.22314C16.7881 3.70056 17.8354 4.40033 18.7175 5.28249C19.5997 6.16464 20.2994 7.21191 20.7769 8.36451C21.2543 9.5171 21.5 10.7524 21.5 12C21.5 13.8789 20.9428 15.7157 19.899 17.2779C18.8551 18.8402 17.3714 20.0578 15.6355 20.7769C13.8996 21.4959 11.9895 21.684 10.1466 21.3175C8.30383 20.9509 6.61109 20.0461 5.28249 18.7175C3.95389 17.3889 3.0491 15.6962 2.68254 13.8534C2.31598 12.0105 2.50412 10.1004 3.22315 8.36451C3.94218 6.62861 5.15982 5.14491 6.72209 4.10104ZM7.27766 19.0675C8.67548 20.0015 10.3189 20.5 12 20.5C14.2543 20.5 16.4164 19.6045 18.0104 18.0104C19.6045 16.4163 20.5 14.2543 20.5 12C20.5 10.3189 20.0015 8.67547 19.0675 7.27765C18.1335 5.87984 16.806 4.79037 15.2528 4.14702C13.6996 3.50368 11.9906 3.33535 10.3417 3.66333C8.6929 3.9913 7.17834 4.80085 5.9896 5.98959C4.80085 7.17834 3.9913 8.69289 3.66333 10.3417C3.33536 11.9906 3.50368 13.6996 4.14703 15.2528C4.79037 16.806 5.87984 18.1335 7.27766 19.0675Z" fill="#111111" stroke="#111111"/>
</svg>
