<svg width="24" height="24" viewBox="0 0 24 24" fill="none" xmlns="http://www.w3.org/2000/svg">
<path d="M17.018 12.3729L17.0257 12.3547C17.1886 11.9709 17.5176 11.7374 17.7931 11.5927C18.0685 11.448 18.3682 11.3529 18.5728 11.288L18.586 11.2838L18.5863 11.2837C18.6972 11.2486 18.7779 11.2227 18.8361 11.1996L18.8368 11.1993C19.1807 11.0635 19.3365 10.9443 19.4012 10.8757C19.4077 10.8688 19.4131 10.8626 19.4176 10.8572C19.4123 10.8487 19.4061 10.8406 19.3993 10.8332C19.3774 10.8094 19.3489 10.7928 19.3175 10.7853L19.287 10.7781L19.2577 10.7671L19.252 10.7649L19.241 10.7608L19.2411 10.7607C19.1877 10.7392 19.1306 10.7283 19.073 10.7285L19.0626 10.7285V10.7284C19.0298 10.7279 18.9972 10.7337 18.9666 10.7455C18.6149 10.9205 18.2325 11.0258 17.8406 11.0553L17.8278 11.0563L17.815 11.0566C17.5064 11.0639 17.205 10.963 16.9631 10.7714L16.7603 10.6108L16.7742 10.3526C16.7835 10.1802 16.7945 10.003 16.8063 9.81754C16.8063 9.81743 16.8063 9.81732 16.8063 9.81721L16.8103 9.75312L16.8115 9.73301L16.8143 9.71305C16.9953 8.44516 16.9207 7.15402 16.5952 5.9156C16.2192 5.07645 15.6073 4.36429 14.8338 3.86598C14.0498 3.36087 13.1343 3.09785 12.2017 3.10976L12.2005 3.10978C12.0661 3.11118 11.9316 3.11244 11.7971 3.11357L11.7867 3.11365L11.7867 3.11355C10.8556 3.10204 9.94175 3.36507 9.15922 3.86979C8.3872 4.36774 7.77676 5.07916 7.40182 5.91725C7.07631 7.15454 7.00164 8.4446 7.18235 9.71142L7.18507 9.73044L7.18631 9.74961C7.19935 9.95033 7.21145 10.1511 7.2226 10.352L7.23705 10.6124L7.03176 10.7733C6.77038 10.9781 6.4427 11.0792 6.11154 11.0574C5.69569 11.0387 5.28855 10.9322 4.91681 10.7452C4.90862 10.7424 4.90001 10.7411 4.89134 10.7413L4.87596 10.7417L4.8606 10.7411C4.79101 10.7383 4.72232 10.7574 4.66412 10.7956C4.63483 10.8149 4.60894 10.8385 4.58725 10.8655C4.60288 10.8825 4.62657 10.9049 4.66209 10.933C4.79484 11.0379 4.98831 11.1314 5.16002 11.1993L5.16086 11.1996C5.21973 11.223 5.29997 11.2487 5.41034 11.2836L5.41068 11.2837L5.42399 11.2879C5.6284 11.3528 5.92819 11.4479 6.20363 11.5926C6.47922 11.7373 6.80841 11.9709 6.97125 12.3549L6.97899 12.3732L6.98526 12.392C7.05766 12.6091 7.08176 12.8395 7.05586 13.0669C7.03116 13.2839 6.96152 13.4932 6.85152 13.6816C6.5576 14.3183 6.17615 14.9108 5.71825 15.4419C4.96246 16.379 3.93292 17.0501 2.7798 17.366C2.84033 17.3954 2.91046 17.4258 2.99109 17.4568C3.37303 17.6037 3.92763 17.7394 4.65796 17.8521L4.6582 17.8521C5.01686 17.9076 5.1588 18.2169 5.208 18.3401C5.26864 18.492 5.31185 18.685 5.35046 18.8616L5.3505 18.8618C5.3723 18.9617 5.39286 19.0556 5.41614 19.1481C5.47996 19.1397 5.54336 19.1281 5.60612 19.1135L5.61295 19.1119L5.61296 19.112C6.01441 19.0244 6.42377 18.9781 6.83464 18.9738L6.84112 18.9737V18.9737C7.13912 18.9745 7.43656 18.9996 7.73045 19.0489L7.75065 19.0523L7.7705 19.0573C8.40726 19.2187 8.99955 19.5212 9.50345 19.9426L9.50743 19.946L9.50741 19.946C10.1729 20.5143 11.0085 20.845 11.8825 20.8862C11.9004 20.886 11.9163 20.8852 11.9301 20.8841L11.9631 20.8812L11.9962 20.8828C12.0307 20.8845 12.0718 20.886 12.1137 20.8862C12.9884 20.8449 13.8248 20.514 14.491 19.9452L14.4949 19.9419L14.4949 19.9419C14.9984 19.5209 15.5902 19.2186 16.2264 19.0574L16.2463 19.0524L16.2665 19.049C16.5604 18.9998 16.8578 18.9747 17.1558 18.9738L17.1595 18.9738C17.5696 18.9758 17.9786 19.0191 18.38 19.1032L18.3844 19.1041C18.4497 19.1184 18.5157 19.1292 18.582 19.1365C18.6049 19.0467 18.6253 18.9555 18.6467 18.8575C18.6467 18.8575 18.6467 18.8574 18.6467 18.8574L17.018 12.3729ZM17.018 12.3729L17.0117 12.3917C16.9392 12.6089 16.9151 12.8393 16.941 13.0667C16.9656 13.2825 17.0346 13.4907 17.1436 13.6782L17.018 12.3729ZM2.48832 17.1655C2.48844 17.1658 2.48856 17.1661 2.48869 17.1664C2.48867 17.1664 2.48866 17.1664 2.48866 17.1664L2.48832 17.1655ZM4.55874 10.8251C4.55909 10.8251 4.56032 10.8273 4.56135 10.8317C4.5589 10.8272 4.55838 10.825 4.55874 10.8251ZM19.4371 10.8289C19.4376 10.8271 19.4381 10.8261 19.4381 10.8261C19.4382 10.8261 19.438 10.8271 19.4371 10.8289Z" fill="#111111" stroke="#111111"/>
</svg>
