<svg width="24" height="24" viewBox="0 0 24 24" fill="none" xmlns="http://www.w3.org/2000/svg">
<path d="M20 13.5H20.5V13V10C20.5 9.86739 20.5527 9.74021 20.6464 9.64645C20.7402 9.55268 20.8674 9.5 21 9.5C21.1326 9.5 21.2598 9.55268 21.3536 9.64645C21.4473 9.74021 21.5 9.86739 21.5 10V14C21.5 14.1326 21.4473 14.2598 21.3536 14.3536C21.2598 14.4473 21.1326 14.5 21 14.5H3C2.86739 14.5 2.74021 14.4473 2.64645 14.3536C2.55268 14.2598 2.5 14.1326 2.5 14V10C2.5 9.86739 2.55268 9.74022 2.64645 9.64645C2.74021 9.55268 2.86739 9.5 3 9.5C3.13261 9.5 3.25979 9.55268 3.35355 9.64645C3.44732 9.74022 3.5 9.86739 3.5 10V13V13.5H4H20Z" fill="#111111" stroke="#111111"/>
</svg>
