<svg width="24" height="24" viewBox="0 0 24 24" fill="none" xmlns="http://www.w3.org/2000/svg">
<path d="M18.3508 15.2684L18.3507 15.2684C17.8152 15.7958 17.1503 16.1728 16.4228 16.3617C15.7133 16.5458 14.9688 16.5446 14.2604 16.3586C14.2444 16.3584 14.2284 16.359 14.2124 16.3603L14.1912 16.3622H14.1699H14.0215C13.9871 16.3702 13.9532 16.3803 13.92 16.3923L13.8376 16.4222H13.7904L13.789 16.4237L13.7276 16.4606C13.7213 16.4644 13.7151 16.4685 13.7091 16.4729C13.6949 16.4986 13.6797 16.5237 13.6635 16.5482C13.6473 16.5761 13.6318 16.6044 13.617 16.6331C13.6173 16.6392 13.6177 16.6452 13.6182 16.6512L13.6199 16.6717V16.6922V16.6925V16.6929V16.6932V16.6936V16.6939V16.6943V16.6946V16.695V16.6953V16.6957V16.696V16.6964V16.6967V16.6971V16.6974V16.6978V16.6981V16.6985V16.6988V16.6992V16.6995V16.6999V16.7002V16.7006V16.7009V16.7013V16.7016V16.702V16.7023V16.7027V16.7031V16.7034V16.7038V16.7041V16.7045V16.7048V16.7052V16.7055V16.7059V16.7062V16.7066V16.7069V16.7073V16.7076V16.708V16.7083V16.7087V16.709V16.7094V16.7097V16.7101V16.7104V16.7108V16.7111V16.7115V16.7118V16.7122V16.7125V16.7129V16.7132V16.7136V16.7139V16.7143V16.7147V16.715V16.7154V16.7157V16.7161V16.7164V16.7168V16.7171V16.7175V16.7178V16.7182V16.7185V16.7189V16.7192V16.7196V16.7199V16.7203V16.7206V16.721V16.7213V16.7217V16.722V16.7224V16.7227V16.7231V16.7234V16.7238V16.7241V16.7245V16.7248V16.7252V16.7256V16.7259V16.7263V16.7266V16.727V16.7273V16.7277V16.728V16.7284V16.7287V16.7291V16.7294V16.7298V16.7301V16.7305V16.7308V16.7312V16.7315V16.7319V16.7322V16.7326V16.7329V16.7333V16.7336V16.734V16.7343V16.7347V16.735V16.7354V16.7357V16.7361V16.7364V16.7368V16.7372V16.7375V16.7379V16.7382V16.7386V16.7389V16.7393V16.7396V16.74V16.7403V16.7407V16.741V16.7414V16.7417V16.7421V16.7424V16.7428V16.7431V16.7435V16.7438V16.7442V16.7445V16.7449V16.7452V16.7456V16.7459V16.7463V16.7466V16.747V16.7473V16.7477V16.7481V16.7484V16.7488V16.7491V16.7495V16.7498V16.7502V16.7505V16.7509V16.7512V16.7516V16.7519V16.7523V16.7526V16.753V16.7533V16.7537V16.754V16.7544V16.7547V16.7551V16.7554V16.7558V16.7561V16.7565V16.7568V16.7572V16.7575V16.7579V16.7582V16.7586V16.7589V16.7593V16.7597V16.76V16.7604V16.7607V16.7611V16.7614V16.7618V16.7621V16.7625V16.7628V16.7632V16.7635V16.7639V16.7642V16.7646V16.7649V16.7653V16.7656V16.766V16.7663V16.7667V16.767V16.7674V16.7677V16.7681V16.7684V16.7688V16.7691V16.7695V16.7698V16.7702V16.7706V16.7709V16.7713V16.7716V16.772V16.7723V16.7727V16.773V16.7734V16.7737V16.7741V16.7744V16.7748V16.7751V16.7755V16.7758V16.7762V16.7765V16.7769V16.7772V16.7776V16.7779V16.7783V16.7786V16.779V16.7793V16.7797V16.78V16.7804V16.7807V16.7811V16.7814V16.7818V16.7822V16.7825V16.7829V16.7832V16.7836V16.7839V16.7843V16.7846V16.785V16.7853V16.7857V16.786V16.7864V16.7867V16.7871V16.7874V16.7878V16.7881V16.7885V16.7888V16.7892V16.7895V16.7899V16.7902V16.7906V16.7909V16.7913V16.7916V16.792V16.7923V16.7927V16.7931V16.7934V16.7938V16.7941V16.7945V16.7948V16.7952V16.7955V16.7959V16.7962V16.7966V16.7969V16.7973V16.7976V16.798V16.7983V16.7987V16.799V16.7994V16.7997V16.8001V16.8004V16.8008V16.8011V16.8015V16.8018V16.8022V16.8025V16.8029V16.8032V16.8036V16.8039V16.8043V16.8047V16.805V16.8054V16.8057V16.8061V16.8064V16.8068V16.8071V16.8075V16.8078V16.8082V16.8085V16.8089V16.8092V16.8096V16.8099V16.8103V16.8106V16.811V16.8113V16.8117V16.812V16.8124V16.8127V16.8131V16.8134V16.8138V16.8141V16.8145V16.8148V16.8152V16.8156V16.8159V16.8163V16.8166V16.817V16.8173V16.8177V16.818V16.8184V16.8187V16.8191V16.8194V16.8198V16.8201V16.8205V16.8208V16.8212V16.8215V16.8219V16.8222V16.8226V16.8229V16.8233V16.8236V16.824V16.8243V16.8247V16.825V16.8254V16.8257V16.8261V16.8264V16.8268V16.8272V16.8275V16.8279V16.8282V16.8286V16.8289V16.8293V16.8296V16.83V16.8303V16.8307V16.831V16.8314V16.8317V16.8321V16.8324V16.8328V16.8331V16.8335V16.8338V16.8342V16.8345V16.8349V16.8352V16.8356V16.8359V16.8363V16.8366V16.837V16.8373V16.8377V16.8381V16.8384V16.8388V16.8391V16.8395V16.8398V16.8402V16.8405V16.8409V16.8412V16.8416V16.8419V16.8423V16.8426V16.843V16.8433V16.8437V16.844V16.8444V16.8447V16.8451V16.8454V16.8458V16.8461V16.8465V16.8468V16.8472V16.8475V16.8479V16.8482V16.8486V16.8489V16.8493V16.8497V16.85V16.8504V16.8507V16.8511V16.8514V16.8518V16.8521V16.8525V16.8528V16.8532V16.8535V16.8538C13.6956 17.8712 13.9574 18.8661 14.3922 19.7891L14.7281 20.5022H13.9399H10.0599H9.2472L9.61358 19.7767C10.056 18.9007 10.336 17.9518 10.4399 16.976V16.9758V16.9754V16.975V16.9747V16.9743V16.974V16.9736V16.9733V16.9729V16.9726V16.9722V16.9719V16.9715V16.9712V16.9708V16.9705V16.9701V16.9697V16.9694V16.969V16.9687V16.9683V16.968V16.9676V16.9673V16.9669V16.9666V16.9662V16.9659V16.9655V16.9652V16.9648V16.9644V16.9641V16.9637V16.9634V16.963V16.9627V16.9623V16.962V16.9616V16.9613V16.9609V16.9605V16.9602V16.9598V16.9595V16.9591V16.9588V16.9584V16.9581V16.9577V16.9573V16.957V16.9566V16.9563V16.9559V16.9556V16.9552V16.9549V16.9545V16.9542V16.9538V16.9534V16.9531V16.9527V16.9524V16.952V16.9517V16.9513V16.9509V16.9506V16.9502V16.9499V16.9495V16.9492V16.9488V16.9485V16.9481V16.9477V16.9474V16.947V16.9467V16.9463V16.946V16.9456V16.9452V16.9449V16.9445V16.9442V16.9438V16.9435V16.9431V16.9427V16.9424V16.942V16.9417V16.9413V16.9409V16.9406V16.9402V16.9399V16.9395V16.9392V16.9388V16.9384V16.9381V16.9377V16.9374V16.937V16.9366V16.9363V16.9359V16.9356V16.9352V16.9348V16.9345V16.9341V16.9338V16.9334V16.933V16.9327V16.9323V16.932V16.9316V16.9312V16.9309V16.9305V16.9302V16.9298V16.9294V16.9291V16.9287V16.9284V16.928V16.9276V16.9273V16.9269V16.9265V16.9262V16.9258V16.9255V16.9251V16.9247V16.9244V16.924V16.9237V16.9233V16.9229V16.9226V16.9222V16.9218V16.9215V16.9211V16.9207V16.9204V16.92V16.9197V16.9193V16.9189V16.9186V16.9182V16.9178V16.9175V16.9171V16.9167V16.9164V16.916V16.9157V16.9153V16.9149V16.9146V16.9142V16.9138V16.9135V16.9131V16.9127V16.9124V16.912V16.9116V16.9113V16.9109V16.9105V16.9102V16.9098V16.9094V16.9091V16.9087V16.9083V16.908V16.9076V16.9072V16.9069V16.9065V16.9061V16.9058V16.9054V16.905V16.9047V16.9043V16.9039V16.9036V16.9032V16.9028V16.9024V16.9021V16.9017V16.9013V16.901V16.9006V16.9002V16.8999V16.8995V16.8991V16.8988V16.8984V16.898V16.8976V16.8973V16.8969V16.8965V16.8962V16.8958V16.8954V16.895V16.8947V16.8943V16.8939V16.8936V16.8932V16.8928V16.8924V16.8921V16.8917V16.8913V16.8909V16.8906V16.8902V16.8898V16.8895V16.8891V16.8887V16.8883V16.888V16.8876V16.8872V16.8868V16.8865V16.8861V16.8857V16.8853V16.885V16.8846V16.8842V16.8838V16.8835V16.8831V16.8827V16.8823V16.882V16.8816V16.8812V16.8808V16.8804V16.8801V16.8797V16.8793V16.8789V16.8786V16.8782V16.8778V16.8774V16.877V16.8767V16.8763V16.8759V16.8755V16.8752V16.8748V16.8744V16.874V16.8736V16.8733V16.8729V16.8725V16.8721V16.8717V16.8714V16.871V16.8706V16.8702V16.8698V16.8694V16.8691V16.8687V16.8683V16.8679V16.8675V16.8672V16.8668V16.8664V16.866V16.8656V16.8652V16.8649V16.8645V16.8641V16.8637V16.8633V16.8629V16.8625V16.8622V16.8618V16.8614V16.861V16.8606V16.8602V16.8598V16.8595V16.8591V16.8587V16.8583V16.8579V16.8575V16.8571V16.8568V16.8564V16.856V16.8556V16.8552V16.8548V16.8544V16.854V16.8537V16.8533V16.8529V16.8525V16.8521V16.8517V16.8513V16.8509V16.8505V16.8501V16.8498V16.8494V16.849V16.8486V16.8482V16.8478V16.8474V16.847V16.8466V16.8462V16.8458V16.8454V16.8451V16.8447V16.8443V16.8439V16.8435V16.8431V16.8427V16.8423V16.8419V16.8415V16.8411V16.8407V16.8403V16.8399V16.8395V16.8391V16.8387V16.8383V16.838V16.8376V16.8372V16.8368V16.8364V16.836V16.8356V16.8352V16.8348V16.8344V16.834V16.8336V16.8332V16.8328V16.8324V16.832V16.8316V16.8312V16.8308V16.8304V16.83V16.8296V16.8292V16.8288V16.8284V16.828V16.8276V16.8272V16.8268V16.8264V16.826V16.8256V16.8252V16.8248V16.8244V16.824V16.8235V16.8231V16.8227V16.8223V16.8219V16.8215V16.8211V16.8207V16.8203V16.8199V16.8195V16.8191V16.8187V16.8183V16.8179V16.8175V16.8171V16.8166V16.8162V16.8158V16.8154V16.815V16.8146V16.8142V16.8138V16.8134V16.813V16.8126V16.8122V16.7917L10.4416 16.7712C10.4422 16.7632 10.4427 16.7552 10.443 16.7472C10.4309 16.7247 10.4174 16.703 10.4025 16.6821L10.3751 16.6436L10.3554 16.6007C10.355 16.5996 10.3544 16.5986 10.3539 16.5977C10.3533 16.5968 10.3527 16.5959 10.352 16.595L10.4215 16.5422H10.3662H10.3199H10.2739M18.3508 15.2684L10.9399 16.8122C10.9448 16.7523 10.9448 16.692 10.9399 16.6322C10.9065 16.5471 10.8628 16.4666 10.8099 16.3922C10.7936 16.3567 10.7735 16.3232 10.7499 16.2922M18.3508 15.2684L18.3557 15.2634C19.1395 14.4696 19.5823 13.4011 19.5899 12.2856L19.5899 12.2837C19.5916 11.7288 19.4831 11.179 19.2706 10.6664C19.0582 10.1537 18.746 9.68836 18.3522 9.29735L18.3518 9.29698L12.8818 3.87698L12.8818 3.87696L12.8786 3.87387C12.6341 3.63579 12.3062 3.50256 11.9649 3.50256C11.6236 3.50256 11.2957 3.63578 11.0511 3.87387L11.0511 3.87383L11.0457 3.87925L5.64758 9.29735C5.64727 9.29766 5.64695 9.29798 5.64663 9.29829C5.25329 9.68911 4.94143 10.1541 4.72913 10.6664C4.51666 11.179 4.40815 11.7288 4.40989 12.2837L4.40989 12.2839C4.41384 13.3994 4.85622 14.4686 5.64143 15.2608M18.3508 15.2684L4.90988 12.2822C4.91338 13.268 5.30496 14.2128 5.99988 14.9122M10.2739 16.5422L10.242 16.5113C10.2173 16.4874 10.191 16.4651 10.1632 16.4446L10.3199 16.2321L10.4599 16.0422M10.2739 16.5422L10.2869 16.5548L10.3411 16.5859C10.3457 16.5885 10.3498 16.592 10.353 16.5963L10.4236 16.5422H10.4599V16.5144L10.7499 16.2922M10.2739 16.5422H10.21L10.1103 16.4961C10.0883 16.486 10.0654 16.4779 10.0419 16.4722M10.4599 16.0422V16.2864V16.3788V16.5129L10.7499 16.2922M10.4599 16.0422H10.3199C10.2468 16.0084 10.1694 15.9849 10.0899 15.9722M10.4599 16.0422C10.5056 16.0759 10.5491 16.1126 10.5899 16.1522C10.652 16.1878 10.7064 16.2353 10.7499 16.2922M10.0419 16.4722H10.0899V15.9722M10.0419 16.4722C10.0317 16.4696 10.0214 16.4676 10.011 16.4659L10.0899 15.9722M10.0419 16.4722H9.89988H9.87939L9.85898 16.4705C9.83812 16.4688 9.8172 16.4681 9.7963 16.4686M10.0899 15.9722H9.89988C9.83998 15.9672 9.77978 15.9672 9.71988 15.9722M9.7963 16.4686C9.81286 16.4645 9.8294 16.4603 9.84592 16.456L9.71988 15.9722M9.7963 16.4686C9.78445 16.4689 9.77261 16.4695 9.76079 16.4705L9.71988 15.9722M9.7963 16.4686C9.06659 16.6495 8.30193 16.6364 7.57834 16.4302C6.84005 16.2198 6.17138 15.8161 5.64143 15.2608M9.71988 15.9722C9.06165 16.1436 8.36952 16.1357 7.71536 15.9493C7.0612 15.7629 6.46887 15.4048 5.99988 14.9122M5.99988 14.9122L5.64522 15.2646C5.64396 15.2633 5.64269 15.262 5.64143 15.2608M5.99988 14.9122L5.63774 15.2569C5.63897 15.2582 5.6402 15.2595 5.64143 15.2608M8.23988 22.0022H15.7599C15.9491 22.0028 16.1347 21.9497 16.2949 21.8491C16.4552 21.7485 16.5837 21.6045 16.6653 21.4338C16.747 21.2631 16.7786 21.0727 16.7564 20.8848C16.7342 20.6969 16.6591 20.5191 16.5399 20.3722L8.23988 22.0022ZM19.0337 8.63309L19.0337 8.6331L19.0366 8.63601C20.0056 9.60329 20.5531 10.9143 20.5599 12.2833L20.5599 12.2922L20.5599 12.2939C20.5623 12.9817 20.4281 13.663 20.1649 14.2984C19.9018 14.9338 19.515 15.5105 19.027 15.9951C18.539 16.4797 17.9595 16.8625 17.3223 17.1212C16.6851 17.3799 16.0028 17.5094 15.3152 17.5022L14.6422 17.4951L14.8297 18.1414C15.0983 19.0676 15.5468 19.9319 16.1496 20.6847L16.1516 20.6872C16.2112 20.7606 16.2487 20.8495 16.2598 20.9435C16.2709 21.0375 16.2552 21.1326 16.2143 21.218C16.1735 21.3033 16.1093 21.3753 16.0291 21.4256C15.949 21.4759 15.8562 21.5025 15.7616 21.5022H15.7599H8.23988H8.23141L8.22295 21.5024C8.12706 21.5057 8.03226 21.4813 7.94986 21.4321C7.86746 21.383 7.80095 21.3112 7.75825 21.2252C7.71555 21.1393 7.69848 21.0429 7.70906 20.9476C7.71965 20.8522 7.75745 20.7619 7.81795 20.6874L7.81796 20.6874L7.82054 20.6842C8.42214 19.9311 8.87038 19.0674 9.13993 18.142L9.32699 17.4998L8.65809 17.5022C7.96828 17.5046 7.28486 17.3698 6.64766 17.1056C6.01045 16.8414 5.43218 16.453 4.94653 15.9631C4.46088 15.4732 4.07756 14.8916 3.81889 14.2521C3.56022 13.6126 3.43137 12.9281 3.43986 12.2383L3.43988 12.2345C3.44636 10.865 3.99389 9.55357 4.96313 8.58601L4.96442 8.58472L10.3532 3.1659C10.3534 3.16571 10.3536 3.16552 10.3538 3.16533C10.7906 2.72929 11.3826 2.48438 11.9999 2.48438C12.6168 2.48438 13.2084 2.729 13.6452 3.16458C13.6456 3.16502 13.6461 3.16546 13.6465 3.1659L19.0337 8.63309Z" fill="#111111" stroke="#111111"/>
</svg>
