<svg width="24" height="24" viewBox="0 0 24 24" fill="none" xmlns="http://www.w3.org/2000/svg">
<path d="M8.40381 5.40381C9.62279 4.18482 11.2761 3.5 13 3.5C15.2543 3.5 17.4163 4.39553 19.0104 5.98959C20.6045 7.58365 21.5 9.74566 21.5 12C21.5 14.2543 20.6045 16.4163 19.0104 18.0104C17.4163 19.6045 15.2543 20.5 13 20.5C10.2152 20.5 7.54451 19.3938 5.57538 17.4246C3.60625 15.4555 2.5 12.7848 2.5 10C2.5 9.86739 2.55268 9.74021 2.64645 9.64645C2.74021 9.55268 2.86739 9.5 3 9.5C3.13261 9.5 3.25979 9.55268 3.35355 9.64645C3.44732 9.74021 3.5 9.86739 3.5 10C3.5 12.5196 4.50089 14.9359 6.28249 16.7175C8.06408 18.4991 10.4804 19.5 13 19.5C14.9891 19.5 16.8968 18.7098 18.3033 17.3033C19.7098 15.8968 20.5 13.9891 20.5 12C20.5 10.0109 19.7098 8.10322 18.3033 6.6967C16.8968 5.29018 14.9891 4.5 13 4.5C11.5413 4.5 10.1424 5.07946 9.11091 6.11091C8.07946 7.14236 7.5 8.54131 7.5 10C7.5 11.4587 8.07946 12.8576 9.11091 13.8891C10.1424 14.9205 11.5413 15.5 13 15.5C13.9283 15.5 14.8185 15.1313 15.4749 14.4749C16.1313 13.8185 16.5 12.9283 16.5 12C16.5 11.0717 16.1313 10.1815 15.4749 9.52513C14.8185 8.86875 13.9283 8.5 13 8.5C12.6022 8.5 12.2206 8.65804 11.9393 8.93934C11.658 9.22064 11.5 9.60218 11.5 10C11.5 10.3978 11.658 10.7794 11.9393 11.0607C12.2206 11.342 12.6022 11.5 13 11.5C13.1326 11.5 13.2598 11.5527 13.3536 11.6464C13.4473 11.7402 13.5 11.8674 13.5 12C13.5 12.1326 13.4473 12.2598 13.3536 12.3536C13.2598 12.4473 13.1326 12.5 13 12.5C12.337 12.5 11.7011 12.2366 11.2322 11.7678C10.7634 11.2989 10.5 10.663 10.5 10C10.5 9.33696 10.7634 8.70107 11.2322 8.23223C11.7011 7.76339 12.337 7.5 13 7.5C14.1935 7.5 15.3381 7.97411 16.182 8.81802C17.0259 9.66193 17.5 10.8065 17.5 12C17.5 13.1935 17.0259 14.3381 16.182 15.182C15.3381 16.0259 14.1935 16.5 13 16.5C11.2761 16.5 9.62279 15.8152 8.40381 14.5962C7.18482 13.3772 6.5 11.7239 6.5 10C6.5 8.27609 7.18482 6.62279 8.40381 5.40381Z" fill="#111111" stroke="#111111"/>
</svg>
