<svg width="24" height="24" viewBox="0 0 24 24" fill="none" xmlns="http://www.w3.org/2000/svg">
<path d="M9 9.69V10.5561L9.75005 10.123L13.75 7.81301C13.75 7.813 13.75 7.81299 13.7501 7.81298C13.9781 7.68135 14.2367 7.61205 14.5 7.61205C14.7633 7.61205 15.022 7.68136 15.25 7.81301C15.4778 7.94453 15.667 8.13365 15.7987 8.36139C15.9303 8.58912 15.9997 8.84747 16 9.11051V14.8895C15.9997 15.1525 15.9303 15.4109 15.7987 15.6386C15.667 15.8664 15.4778 16.0555 15.25 16.187C15.022 16.3186 14.7633 16.3879 14.5 16.3879C14.2367 16.3879 13.9781 16.3187 13.7501 16.187C13.75 16.187 13.75 16.187 13.75 16.187L9.75005 13.877L9 13.4439V14.31V16C9 16.1326 8.94733 16.2598 8.85356 16.3536C8.75979 16.4473 8.63261 16.5 8.5 16.5C8.3674 16.5 8.24022 16.4473 8.14645 16.3536C8.05268 16.2598 8 16.1326 8 16V8C8 7.86739 8.05268 7.74022 8.14645 7.64645C8.24022 7.55268 8.3674 7.5 8.5 7.5C8.63261 7.5 8.75979 7.55268 8.85356 7.64645C8.94733 7.74022 9 7.86739 9 8V9.69ZM14.2498 15.3229L15 15.7565V14.89V9.11V8.24349L14.2498 8.67711L9.24979 11.5671L8.50085 12L9.24979 12.4329L14.2498 15.3229ZM6.72209 4.10104C8.28435 3.05717 10.1211 2.5 12 2.5C13.2476 2.5 14.4829 2.74572 15.6355 3.22314C16.7881 3.70056 17.8354 4.40033 18.7175 5.28249C19.5997 6.16464 20.2994 7.21191 20.7769 8.36451C21.2543 9.5171 21.5 10.7524 21.5 12C21.5 13.8789 20.9428 15.7157 19.899 17.2779C18.8551 18.8402 17.3714 20.0578 15.6355 20.7769C13.8996 21.4959 11.9895 21.684 10.1466 21.3175C8.30383 20.9509 6.61109 20.0461 5.28249 18.7175C3.95389 17.3889 3.0491 15.6962 2.68254 13.8534C2.31598 12.0105 2.50412 10.1004 3.22315 8.36451C3.94218 6.62861 5.15982 5.14491 6.72209 4.10104ZM7.27766 19.0675C8.67548 20.0015 10.3189 20.5 12 20.5C14.2543 20.5 16.4164 19.6045 18.0104 18.0104C19.6045 16.4163 20.5 14.2543 20.5 12C20.5 10.3189 20.0015 8.67547 19.0675 7.27765C18.1335 5.87984 16.806 4.79037 15.2528 4.14702C13.6996 3.50368 11.9906 3.33535 10.3417 3.66333C8.6929 3.9913 7.17834 4.80085 5.9896 5.98959C4.80085 7.17834 3.9913 8.69289 3.66333 10.3417C3.33536 11.9906 3.50368 13.6996 4.14703 15.2528C4.79037 16.806 5.87984 18.1335 7.27766 19.0675Z" fill="#111111" stroke="#111111"/>
</svg>
