<svg width="24" height="24" viewBox="0 0 24 24" fill="none" xmlns="http://www.w3.org/2000/svg">
<path d="M3.5 9.82V9.46644L3.16666 9.34859C2.68037 9.17667 2.25916 8.85854 1.96078 8.43782C1.66253 8.01728 1.50159 7.51482 1.5 6.99926V3C1.5 2.86739 1.55268 2.74021 1.64645 2.64645C1.74021 2.55268 1.86739 2.5 2 2.5H22C22.1326 2.5 22.2598 2.55268 22.3536 2.64645C22.4473 2.74021 22.5 2.86739 22.5 3L22.5 6.99859C22.5 6.99881 22.5 6.99903 22.5 6.99924C22.4984 7.5148 22.3375 8.01727 22.0392 8.43782C21.7408 8.85854 21.3196 9.17667 20.8333 9.34859L20.5 9.46644V9.82V21C20.5 21.1326 20.4473 21.2598 20.3536 21.3536C20.2598 21.4473 20.1326 21.5 20 21.5H4C3.86739 21.5 3.74021 21.4473 3.64645 21.3536C3.55268 21.2598 3.5 21.1326 3.5 21V9.82ZM15 3.5H14.5V4V7C14.5 7.39782 14.658 7.77936 14.9393 8.06066C15.2206 8.34196 15.6022 8.5 16 8.5C16.3978 8.5 16.7794 8.34196 17.0607 8.06066C17.342 7.77936 17.5 7.39782 17.5 7V4V3.5H17H15ZM11 3.5H10.5V4V7C10.5 7.39782 10.658 7.77936 10.9393 8.06066C11.2206 8.34196 11.6022 8.5 12 8.5C12.3978 8.5 12.7794 8.34196 13.0607 8.06066C13.342 7.77936 13.5 7.39782 13.5 7V4V3.5H13H11ZM7 3.5H6.5V4V7C6.5 7.39782 6.65804 7.77936 6.93934 8.06066C7.22064 8.34196 7.60218 8.5 8 8.5C8.39782 8.5 8.77936 8.34196 9.06066 8.06066C9.34196 7.77936 9.5 7.39782 9.5 7V4V3.5H9H7ZM3 3.5H2.5V4V7C2.5 7.39782 2.65803 7.77936 2.93934 8.06066C3.22064 8.34196 3.60217 8.5 4 8.5C4.39783 8.5 4.77936 8.34196 5.06066 8.06066C5.34196 7.77936 5.5 7.39782 5.5 7V4V3.5H5H3ZM14 20.5H14.5V20V16C14.5 15.337 14.2366 14.7011 13.7678 14.2322C13.2989 13.7634 12.663 13.5 12 13.5C11.337 13.5 10.7011 13.7634 10.2322 14.2322C9.76339 14.7011 9.5 15.337 9.5 16V20V20.5H10H14ZM19 20.5H19.5V20V9.82V9.47226L19.174 9.35125C18.8644 9.23633 18.5788 9.06498 18.3317 8.84589L17.9986 8.55047L17.6667 8.84732C17.2083 9.25728 16.6149 9.48393 16 9.48393C15.3851 9.48393 14.7917 9.25728 14.3333 8.84732L14 8.54918L13.6667 8.84732C13.2083 9.25728 12.6149 9.48393 12 9.48393C11.3851 9.48393 10.7917 9.25728 10.3333 8.84732L10 8.54918L9.66667 8.84732C9.20831 9.25728 8.61494 9.48393 8 9.48393C7.38506 9.48393 6.79169 9.25728 6.33333 8.84732L6.00144 8.55047L5.66828 8.84589C5.42119 9.06498 5.1356 9.23633 4.82601 9.35125L4.5 9.47226V9.82V20V20.5H5H8H8.5V20V16C8.5 15.0717 8.86875 14.1815 9.52513 13.5251C10.1815 12.8687 11.0717 12.5 12 12.5C12.9283 12.5 13.8185 12.8687 14.4749 13.5251C15.1313 14.1815 15.5 15.0717 15.5 16V20V20.5H16H19ZM19 3.5H18.5V4V7C18.5 7.39782 18.658 7.77936 18.9393 8.06066C19.2206 8.34196 19.6022 8.5 20 8.5C20.3978 8.5 20.7794 8.34196 21.0607 8.06066C21.342 7.77936 21.5 7.39782 21.5 7V4V3.5H21H19Z" fill="#111111" stroke="#111111"/>
</svg>
