<svg width="24" height="24" viewBox="0 0 24 24" fill="none" xmlns="http://www.w3.org/2000/svg">
<path d="M4.77396 12.053L4.66824 12H4.55H3C2.86739 12 2.74022 11.9473 2.64645 11.8536C2.55268 11.7598 2.5 11.6326 2.5 11.5V7.5C2.5 7.36739 2.55268 7.24021 2.64645 7.14645C2.74022 7.05268 2.86739 7 3 7H21C21.0657 7 21.1307 7.01293 21.1913 7.03806C21.252 7.06319 21.3071 7.10002 21.3536 7.14645C21.4 7.19287 21.4368 7.24799 21.4619 7.30866C21.4871 7.36932 21.5 7.43434 21.5 7.5V11.5C21.5 11.6326 21.4473 11.7598 21.3536 11.8536C21.2598 11.9473 21.1326 12 21 12H19.24H19.1218L19.016 12.053L13.906 14.613L13.0128 15.0604L13.9064 15.5072L16.6264 16.8672L16.9553 17.0317L17.2103 16.7667C17.4424 16.5254 17.7206 16.3333 18.0284 16.2016C18.3358 16.07 18.6666 16.0015 19.001 16C19.4951 16.0002 19.9781 16.1468 20.3889 16.4213C20.8001 16.696 21.1205 17.0865 21.3097 17.5433C21.4989 18.0001 21.5484 18.5028 21.452 18.9877C21.3555 19.4727 21.1174 19.9181 20.7678 20.2678C20.4181 20.6174 19.9727 20.8555 19.4877 20.952C19.0028 21.0484 18.5001 20.9989 18.0433 20.8097C17.5865 20.6205 17.196 20.3 16.9213 19.8889C16.6466 19.4778 16.5 18.9945 16.5 18.5V18.4859L16.4992 18.4717C16.4954 18.404 16.4954 18.336 16.4992 18.2683L16.5175 17.9448L16.2297 17.7959L12.1697 15.6959L11.9421 15.5782L11.7137 15.6942L7.77368 17.6942L7.4742 17.8462L7.50168 18.1809C7.50928 18.2735 7.50928 18.3665 7.50168 18.4591L7.5 18.4795V18.5C7.5 18.9945 7.35338 19.4778 7.07868 19.8889C6.80397 20.3 6.41352 20.6205 5.95671 20.8097C5.4999 20.9989 4.99723 21.0484 4.51228 20.952C4.02732 20.8555 3.58187 20.6174 3.23223 20.2678C2.8826 19.9181 2.6445 19.4727 2.54804 18.9877C2.45158 18.5028 2.50108 18.0001 2.6903 17.5433C2.87952 17.0865 3.19995 16.696 3.61108 16.4213C4.0219 16.1468 4.50483 16.0002 4.9989 16C5.64628 16.0029 6.26732 16.2568 6.73129 16.7083L6.98587 16.9561L7.30361 16.7972L9.88361 15.5072L10.7772 15.0604L9.88396 14.613L4.77396 12.053ZM11.6776 14.3878L11.9019 14.4992L12.1255 14.3863L14.9755 12.9463L14.75 12H9L8.77763 12.9478L11.6776 14.3878ZM20 11H20.5V10.5V8.5V8H20H4H3.5V8.5V10.5V11H4H20ZM21 4H18C17.8674 4 17.7402 3.94732 17.6464 3.85355C17.5527 3.75979 17.5 3.63261 17.5 3.5C17.5 3.36739 17.5527 3.24021 17.6464 3.14645C17.7402 3.05268 17.8674 3 18 3H21C21.1326 3 21.2598 3.05268 21.3536 3.14645C21.4473 3.24021 21.5 3.36739 21.5 3.5C21.5 3.63261 21.4473 3.75979 21.3536 3.85355C21.2598 3.94732 21.1326 4 21 4ZM4.16664 19.7472C4.41332 19.912 4.70333 20 5 20C5.39783 20 5.77936 19.842 6.06066 19.5607C6.34197 19.2794 6.5 18.8978 6.5 18.5C6.5 18.2033 6.41203 17.9133 6.24721 17.6666C6.08238 17.42 5.84812 17.2277 5.57403 17.1142C5.29994 17.0006 4.99834 16.9709 4.70736 17.0288C4.4164 17.0867 4.14912 17.2296 3.93934 17.4393C3.72956 17.6491 3.5867 17.9164 3.52882 18.2074C3.47095 18.4983 3.50065 18.7999 3.61418 19.074C3.72771 19.3481 3.91997 19.5824 4.16664 19.7472ZM19.8334 17.2528C19.5867 17.088 19.2967 17 19 17C18.6022 17 18.2206 17.158 17.9393 17.4393C17.658 17.7206 17.5 18.1022 17.5 18.5C17.5 18.7967 17.588 19.0867 17.7528 19.3334C17.9176 19.58 18.1519 19.7723 18.426 19.8858C18.7001 19.9993 19.0017 20.0291 19.2926 19.9712C19.5836 19.9133 19.8509 19.7704 20.0607 19.5607C20.2704 19.3509 20.4133 19.0836 20.4712 18.7926C20.5291 18.5017 20.4994 18.2001 20.3858 17.926C20.2723 17.6519 20.08 17.4176 19.8334 17.2528Z" fill="#111111" stroke="#111111"/>
</svg>
