<svg width="24" height="24" viewBox="0 0 24 24" fill="none" xmlns="http://www.w3.org/2000/svg">
<mask id="path-1-inside-1_2239_7885" fill="white">
<path d="M17 9.28125C17.3956 9.28125 17.7823 9.16395 18.1112 8.94419C18.4401 8.72443 18.6964 8.41207 18.8478 8.04662C18.9991 7.68117 19.0388 7.27903 18.9616 6.89107C18.8844 6.50311 18.6939 6.14674 18.4142 5.86704C18.1345 5.58733 17.7782 5.39685 17.3902 5.31968C17.0022 5.24251 16.6001 5.28212 16.2346 5.43349C15.8692 5.58487 15.5568 5.84121 15.3371 6.17011C15.1173 6.49901 15 6.88569 15 7.28125C15 7.81168 15.2107 8.32039 15.5858 8.69546C15.9609 9.07054 16.4696 9.28125 17 9.28125ZM2.71001 13.9213C2.90817 13.9846 3.0992 14.0684 3.28001 14.1713C3.90194 14.5351 4.60949 14.7268 5.33001 14.7268C6.05054 14.7268 6.75808 14.5351 7.38001 14.1713C7.77109 13.9523 8.2118 13.8373 8.66001 13.8373C9.10822 13.8373 9.54893 13.9523 9.94001 14.1713L10.15 14.2713C10.7568 14.5667 11.4266 14.7092 12.1011 14.6866C12.7757 14.6639 13.4344 14.4767 14.02 14.1413C14.4111 13.9223 14.8518 13.8073 15.3 13.8073C15.7482 13.8073 16.1889 13.9223 16.58 14.1413C17.2138 14.5034 17.9301 14.6963 18.66 14.7013C19.3644 14.6939 20.0543 14.5008 20.66 14.1413C20.8408 14.0384 21.0319 13.9546 21.23 13.8913C21.3778 13.8811 21.5215 13.8382 21.6507 13.7657C21.7799 13.6932 21.8914 13.5929 21.9771 13.472C22.0628 13.3512 22.1205 13.2128 22.1462 13.0669C22.1719 12.921 22.1648 12.7712 22.1255 12.6283C22.0862 12.4855 22.0157 12.3532 21.919 12.2409C21.8223 12.1287 21.7018 12.0393 21.5664 11.9793C21.4309 11.9193 21.2838 11.8901 21.1357 11.8939C20.9876 11.8977 20.8422 11.9344 20.71 12.0013C20.3611 12.1095 20.0256 12.2572 19.71 12.4413C19.3908 12.6256 19.0286 12.7226 18.66 12.7226C18.2914 12.7226 17.9293 12.6256 17.61 12.4413C16.9173 12.0505 16.1354 11.8451 15.34 11.8451C14.5446 11.8451 13.7628 12.0505 13.07 12.4413C12.9759 12.4872 12.8791 12.5273 12.78 12.5613L14.34 11.0013C14.3758 10.9549 14.406 10.9046 14.43 10.8513C14.4753 10.8021 14.5155 10.7485 14.55 10.6913C14.5547 10.628 14.5547 10.5645 14.55 10.5013C14.5557 10.438 14.5557 10.3745 14.55 10.3113C14.5548 10.2513 14.5548 10.1912 14.55 10.1313C14.5557 10.068 14.5557 10.0045 14.55 9.94125C14.5204 9.88246 14.487 9.82568 14.45 9.77125C14.4241 9.71365 14.3904 9.65983 14.35 9.61125L11.28 6.28125C11.1992 6.1932 11.1047 6.11889 11 6.06125C10.9303 6.05202 10.8597 6.05202 10.79 6.06125C10.7337 6.0521 10.6763 6.0521 10.62 6.06125C10.4869 6.00769 10.3428 5.9871 10.2 6.00125L6.66001 7.32125C6.41078 7.41151 6.20757 7.59704 6.09507 7.83706C5.98256 8.07707 5.96995 8.35194 6.06001 8.60125C6.15028 8.85049 6.3358 9.05369 6.57582 9.1662C6.81584 9.27871 7.0907 9.29131 7.34001 9.20125L10.27 8.13125L12.27 10.2513L10.37 12.1513C9.73342 11.9038 9.04987 11.8005 8.36858 11.849C7.68729 11.8974 7.02522 12.0962 6.43001 12.4313C6.11077 12.6156 5.74864 12.7126 5.38001 12.7126C5.01139 12.7126 4.64925 12.6156 4.33001 12.4313C4.01443 12.2472 3.67894 12.0995 3.33001 11.9913C3.20206 11.9435 3.06569 11.9225 2.92931 11.9295C2.79292 11.9365 2.65941 11.9713 2.53701 12.0319C2.4146 12.0924 2.3059 12.1774 2.2176 12.2816C2.1293 12.3858 2.06327 12.5069 2.02359 12.6376C1.98391 12.7683 1.97142 12.9057 1.98688 13.0414C2.00234 13.1771 2.04543 13.3081 2.11349 13.4265C2.18155 13.5449 2.27314 13.6481 2.38261 13.7298C2.49209 13.8114 2.61712 13.8698 2.75001 13.9013L2.71001 13.9213ZM20.71 17.0113C20.3611 17.1195 20.0256 17.2672 19.71 17.4513C19.3908 17.6356 19.0286 17.7326 18.66 17.7326C18.2914 17.7326 17.9293 17.6356 17.61 17.4513C16.9173 17.0605 16.1354 16.8551 15.34 16.8551C14.5446 16.8551 13.7628 17.0605 13.07 17.4513C12.7481 17.6383 12.3824 17.7368 12.01 17.7368C11.6377 17.7368 11.272 17.6383 10.95 17.4513C10.2573 17.0605 9.47538 16.8551 8.68001 16.8551C7.88465 16.8551 7.10275 17.0605 6.41001 17.4513C6.09077 17.6356 5.72864 17.7326 5.36001 17.7326C4.99139 17.7326 4.62925 17.6356 4.31001 17.4513C3.99443 17.2672 3.65894 17.1195 3.31001 17.0113C3.18206 16.9635 3.04569 16.9425 2.90931 16.9495C2.77292 16.9565 2.63941 16.9913 2.51701 17.0519C2.3946 17.1124 2.2859 17.1974 2.1976 17.3016C2.1093 17.4058 2.04327 17.5269 2.00359 17.6576C1.96391 17.7883 1.95142 17.9257 1.96688 18.0614C1.98234 18.1971 2.02543 18.3281 2.09349 18.4465C2.16155 18.5649 2.25314 18.6681 2.36261 18.7498C2.47209 18.8314 2.59712 18.8898 2.73001 18.9213C2.92817 18.9846 3.11919 19.0684 3.30001 19.1713C3.92194 19.5351 4.62949 19.7268 5.35001 19.7268C6.07054 19.7268 6.77808 19.5351 7.40001 19.1713C7.79109 18.9523 8.2318 18.8373 8.68001 18.8373C9.12822 18.8373 9.56894 18.9523 9.96001 19.1713C10.5873 19.5299 11.2974 19.7186 12.02 19.7186C12.7426 19.7186 13.4527 19.5299 14.08 19.1713C14.4711 18.9523 14.9118 18.8373 15.36 18.8373C15.8082 18.8373 16.2489 18.9523 16.64 19.1713C17.2738 19.5334 17.9901 19.7263 18.72 19.7313C19.4244 19.7239 20.1143 19.5308 20.72 19.1713C20.9008 19.0684 21.0919 18.9846 21.29 18.9213C21.4161 18.8832 21.5334 18.8206 21.6353 18.7372C21.7372 18.6538 21.8217 18.5511 21.8839 18.435C21.9461 18.3189 21.9849 18.1917 21.9979 18.0607C22.011 17.9297 21.9981 17.7973 21.96 17.6713C21.9219 17.5452 21.8594 17.4278 21.776 17.326C21.6925 17.2241 21.5898 17.1396 21.4738 17.0774C21.3577 17.0152 21.2305 16.9764 21.0995 16.9633C20.9684 16.9503 20.8361 16.9632 20.71 17.0013V17.0113Z"/>
</mask>
<path d="M17 9.28125C17.3956 9.28125 17.7823 9.16395 18.1112 8.94419C18.4401 8.72443 18.6964 8.41207 18.8478 8.04662C18.9991 7.68117 19.0388 7.27903 18.9616 6.89107C18.8844 6.50311 18.6939 6.14674 18.4142 5.86704C18.1345 5.58733 17.7782 5.39685 17.3902 5.31968C17.0022 5.24251 16.6001 5.28212 16.2346 5.43349C15.8692 5.58487 15.5568 5.84121 15.3371 6.17011C15.1173 6.49901 15 6.88569 15 7.28125C15 7.81168 15.2107 8.32039 15.5858 8.69546C15.9609 9.07054 16.4696 9.28125 17 9.28125ZM2.71001 13.9213C2.90817 13.9846 3.0992 14.0684 3.28001 14.1713C3.90194 14.5351 4.60949 14.7268 5.33001 14.7268C6.05054 14.7268 6.75808 14.5351 7.38001 14.1713C7.77109 13.9523 8.2118 13.8373 8.66001 13.8373C9.10822 13.8373 9.54893 13.9523 9.94001 14.1713L10.15 14.2713C10.7568 14.5667 11.4266 14.7092 12.1011 14.6866C12.7757 14.6639 13.4344 14.4767 14.02 14.1413C14.4111 13.9223 14.8518 13.8073 15.3 13.8073C15.7482 13.8073 16.1889 13.9223 16.58 14.1413C17.2138 14.5034 17.9301 14.6963 18.66 14.7013C19.3644 14.6939 20.0543 14.5008 20.66 14.1413C20.8408 14.0384 21.0319 13.9546 21.23 13.8913C21.3778 13.8811 21.5215 13.8382 21.6507 13.7657C21.7799 13.6932 21.8914 13.5929 21.9771 13.472C22.0628 13.3512 22.1205 13.2128 22.1462 13.0669C22.1719 12.921 22.1648 12.7712 22.1255 12.6283C22.0862 12.4855 22.0157 12.3532 21.919 12.2409C21.8223 12.1287 21.7018 12.0393 21.5664 11.9793C21.4309 11.9193 21.2838 11.8901 21.1357 11.8939C20.9876 11.8977 20.8422 11.9344 20.71 12.0013C20.3611 12.1095 20.0256 12.2572 19.71 12.4413C19.3908 12.6256 19.0286 12.7226 18.66 12.7226C18.2914 12.7226 17.9293 12.6256 17.61 12.4413C16.9173 12.0505 16.1354 11.8451 15.34 11.8451C14.5446 11.8451 13.7628 12.0505 13.07 12.4413C12.9759 12.4872 12.8791 12.5273 12.78 12.5613L14.34 11.0013C14.3758 10.9549 14.406 10.9046 14.43 10.8513C14.4753 10.8021 14.5155 10.7485 14.55 10.6913C14.5547 10.628 14.5547 10.5645 14.55 10.5013C14.5557 10.438 14.5557 10.3745 14.55 10.3113C14.5548 10.2513 14.5548 10.1912 14.55 10.1313C14.5557 10.068 14.5557 10.0045 14.55 9.94125C14.5204 9.88246 14.487 9.82568 14.45 9.77125C14.4241 9.71365 14.3904 9.65983 14.35 9.61125L11.28 6.28125C11.1992 6.1932 11.1047 6.11889 11 6.06125C10.9303 6.05202 10.8597 6.05202 10.79 6.06125C10.7337 6.0521 10.6763 6.0521 10.62 6.06125C10.4869 6.00769 10.3428 5.9871 10.2 6.00125L6.66001 7.32125C6.41078 7.41151 6.20757 7.59704 6.09507 7.83706C5.98256 8.07707 5.96995 8.35194 6.06001 8.60125C6.15028 8.85049 6.3358 9.05369 6.57582 9.1662C6.81584 9.27871 7.0907 9.29131 7.34001 9.20125L10.27 8.13125L12.27 10.2513L10.37 12.1513C9.73342 11.9038 9.04987 11.8005 8.36858 11.849C7.68729 11.8974 7.02522 12.0962 6.43001 12.4313C6.11077 12.6156 5.74864 12.7126 5.38001 12.7126C5.01139 12.7126 4.64925 12.6156 4.33001 12.4313C4.01443 12.2472 3.67894 12.0995 3.33001 11.9913C3.20206 11.9435 3.06569 11.9225 2.92931 11.9295C2.79292 11.9365 2.65941 11.9713 2.53701 12.0319C2.4146 12.0924 2.3059 12.1774 2.2176 12.2816C2.1293 12.3858 2.06327 12.5069 2.02359 12.6376C1.98391 12.7683 1.97142 12.9057 1.98688 13.0414C2.00234 13.1771 2.04543 13.3081 2.11349 13.4265C2.18155 13.5449 2.27314 13.6481 2.38261 13.7298C2.49209 13.8114 2.61712 13.8698 2.75001 13.9013L2.71001 13.9213ZM20.71 17.0113C20.3611 17.1195 20.0256 17.2672 19.71 17.4513C19.3908 17.6356 19.0286 17.7326 18.66 17.7326C18.2914 17.7326 17.9293 17.6356 17.61 17.4513C16.9173 17.0605 16.1354 16.8551 15.34 16.8551C14.5446 16.8551 13.7628 17.0605 13.07 17.4513C12.7481 17.6383 12.3824 17.7368 12.01 17.7368C11.6377 17.7368 11.272 17.6383 10.95 17.4513C10.2573 17.0605 9.47538 16.8551 8.68001 16.8551C7.88465 16.8551 7.10275 17.0605 6.41001 17.4513C6.09077 17.6356 5.72864 17.7326 5.36001 17.7326C4.99139 17.7326 4.62925 17.6356 4.31001 17.4513C3.99443 17.2672 3.65894 17.1195 3.31001 17.0113C3.18206 16.9635 3.04569 16.9425 2.90931 16.9495C2.77292 16.9565 2.63941 16.9913 2.51701 17.0519C2.3946 17.1124 2.2859 17.1974 2.1976 17.3016C2.1093 17.4058 2.04327 17.5269 2.00359 17.6576C1.96391 17.7883 1.95142 17.9257 1.96688 18.0614C1.98234 18.1971 2.02543 18.3281 2.09349 18.4465C2.16155 18.5649 2.25314 18.6681 2.36261 18.7498C2.47209 18.8314 2.59712 18.8898 2.73001 18.9213C2.92817 18.9846 3.11919 19.0684 3.30001 19.1713C3.92194 19.5351 4.62949 19.7268 5.35001 19.7268C6.07054 19.7268 6.77808 19.5351 7.40001 19.1713C7.79109 18.9523 8.2318 18.8373 8.68001 18.8373C9.12822 18.8373 9.56894 18.9523 9.96001 19.1713C10.5873 19.5299 11.2974 19.7186 12.02 19.7186C12.7426 19.7186 13.4527 19.5299 14.08 19.1713C14.4711 18.9523 14.9118 18.8373 15.36 18.8373C15.8082 18.8373 16.2489 18.9523 16.64 19.1713C17.2738 19.5334 17.9901 19.7263 18.72 19.7313C19.4244 19.7239 20.1143 19.5308 20.72 19.1713C20.9008 19.0684 21.0919 18.9846 21.29 18.9213C21.4161 18.8832 21.5334 18.8206 21.6353 18.7372C21.7372 18.6538 21.8217 18.5511 21.8839 18.435C21.9461 18.3189 21.9849 18.1917 21.9979 18.0607C22.011 17.9297 21.9981 17.7973 21.96 17.6713C21.9219 17.5452 21.8594 17.4278 21.776 17.326C21.6925 17.2241 21.5898 17.1396 21.4738 17.0774C21.3577 17.0152 21.2305 16.9764 21.0995 16.9633C20.9684 16.9503 20.8361 16.9632 20.71 17.0013V17.0113Z" fill="#111111" stroke="#111111" stroke-width="2" mask="url(#path-1-inside-1_2239_7885)"/>
</svg>
