<svg width="24" height="24" viewBox="0 0 24 24" fill="none" xmlns="http://www.w3.org/2000/svg">
<path d="M19.3699 8.87722C19.7847 9.86516 19.9989 10.9257 19.9999 11.9972C19.9999 12.2624 20.1053 12.5168 20.2928 12.7043C20.4803 12.8919 20.7347 12.9972 20.9999 12.9972C21.2651 12.9972 21.5195 12.8919 21.707 12.7043C21.8946 12.5168 21.9999 12.2624 21.9999 11.9972C22.0021 10.5667 21.6921 9.1551 21.094 7.86024L20.7159 8.23836M19.3699 8.87722L19.7235 9.23077L19.9558 8.99841M19.3699 8.87722L20.489 7.75813C20.5693 7.91625 20.6449 8.07639 20.7159 8.23836M19.3699 8.87722L19.8309 8.68366C19.8747 8.78783 19.9163 8.89277 19.9558 8.99841M19.9558 8.99841C20.3143 9.95652 20.4989 10.9719 20.4999 11.9967V11.9972C20.4999 12.1298 20.5526 12.257 20.6464 12.3508C20.7401 12.4445 20.8673 12.4972 20.9999 12.4972C21.1325 12.4972 21.2597 12.4445 21.3535 12.3508C21.4472 12.257 21.4999 12.1298 21.4999 11.9972V11.9964C21.5019 10.7005 21.2339 9.42087 20.7159 8.23836M19.9558 8.99841L20.7159 8.23836M18.143 17.841L18.9418 16.9972H17.7799H15.3799C15.2473 16.9972 15.1201 16.9445 15.0264 16.8508C14.9326 16.757 14.8799 16.6298 14.8799 16.4972C14.8799 16.3646 14.9326 16.2374 15.0264 16.1437C15.1201 16.0499 15.2473 15.9972 15.3799 15.9972H19.8799C20.0125 15.9972 20.1397 16.0499 20.2335 16.1437C20.3272 16.2374 20.3799 16.3646 20.3799 16.4972V20.9972C20.3799 21.1298 20.3272 21.257 20.2335 21.3508C20.1397 21.4445 20.0125 21.4972 19.8799 21.4972C19.7473 21.4972 19.6201 21.4445 19.5264 21.3508C19.4326 21.257 19.3799 21.1298 19.3799 20.9972V19.2272V18.0579L18.5345 18.8657C16.7738 20.5481 14.4343 21.4901 11.9992 21.4972C10.7032 21.4992 9.42358 21.2312 8.24106 20.7132L9.00111 19.9531C9.95922 20.3116 10.9746 20.4962 11.9994 20.4972L12.0018 20.4972C13.1519 20.493 14.2892 20.2554 15.3448 19.7988C16.4004 19.3422 17.3523 18.6762 18.143 17.841ZM17.9564 6.74366L17.9561 6.74398L6.76637 17.9537L6.76605 17.954L5.33637 19.3837L3.33636 21.3837L3.33492 21.3851C3.28844 21.432 3.23314 21.4692 3.17221 21.4946C3.11127 21.5199 3.04592 21.533 2.97992 21.533C2.91392 21.533 2.84856 21.5199 2.78763 21.4946C2.7267 21.4692 2.6714 21.432 2.62492 21.3851L2.62202 21.3822C2.57516 21.3357 2.53796 21.2804 2.51257 21.2195C2.48719 21.1586 2.47412 21.0932 2.47412 21.0272C2.47412 20.9612 2.48719 20.8959 2.51257 20.8349C2.53796 20.774 2.57516 20.7187 2.62202 20.6722L2.62347 20.6708L4.62347 18.6708L4.9452 18.349L4.65516 17.9985C3.25889 16.3109 2.49651 14.1883 2.49992 11.998V11.9972C2.49992 11.8646 2.5526 11.7374 2.64637 11.6437C2.74013 11.5499 2.86731 11.4972 2.99992 11.4972C3.13253 11.4972 3.2597 11.5499 3.35347 11.6437C3.44724 11.7374 3.49992 11.8646 3.49992 11.9972V11.9974C3.50077 13.8823 4.13331 15.7126 5.29648 17.1958L5.64459 17.6397L6.04347 17.2408L17.2435 6.04077L17.6425 5.64178L17.1984 5.29369C15.5416 3.9951 13.4589 3.36335 11.3599 3.5227C9.26083 3.68204 7.29737 4.62095 5.8556 6.15476L5.06371 6.99722H6.21992H8.61992C8.75253 6.99722 8.8797 7.0499 8.97347 7.14366C9.06724 7.23743 9.11992 7.36461 9.11992 7.49722C9.11992 7.62982 9.06724 7.757 8.97347 7.85077C8.8797 7.94454 8.75253 7.99722 8.61992 7.99722H4.11992C3.98731 7.99722 3.86013 7.94454 3.76637 7.85077C3.6726 7.757 3.61992 7.62982 3.61992 7.49722V2.99722C3.61992 2.86461 3.6726 2.73743 3.76637 2.64366C3.86013 2.54989 3.98731 2.49722 4.11992 2.49722C4.25253 2.49722 4.3797 2.5499 4.47347 2.64366C4.56724 2.73743 4.61992 2.86461 4.61992 2.99722V4.76722V5.93655L5.46535 5.12871C7.22616 3.44618 9.56591 2.50416 12.0013 2.49721L12.0019 2.49721C14.1899 2.48846 16.3122 3.24403 18.0024 4.63346L18.3528 4.92148L18.6735 4.60077L20.6735 2.60077C20.7203 2.55396 20.7759 2.51683 20.837 2.4915C20.8982 2.46616 20.9637 2.45312 21.0299 2.45312C21.0961 2.45312 21.1617 2.46616 21.2228 2.4915C21.284 2.51683 21.3396 2.55396 21.3864 2.60077C21.4332 2.64758 21.4703 2.70315 21.4956 2.76431C21.521 2.82547 21.534 2.89102 21.534 2.95722C21.534 3.02341 21.521 3.08896 21.4956 3.15012C21.4703 3.21129 21.4332 3.26686 21.3864 3.31366L21.7317 3.65899L21.3864 3.31366L19.3864 5.31366L17.9564 6.74366Z" fill="#111111" stroke="#111111"/>
</svg>
