<svg width="24" height="24" viewBox="0 0 24 24" fill="none" xmlns="http://www.w3.org/2000/svg">
<path d="M17.0044 3.50002V3.5L16.9993 3.5C16.0719 3.50082 15.1827 3.8697 14.5271 4.5256C14.0117 5.03586 13.6676 5.69363 13.5422 6.40798C13.4168 7.12282 13.5167 7.85898 13.8281 8.51454L14.1322 9.15467L14.6333 8.65356L18.6333 4.65356L19.1304 4.1565L18.4978 3.85002C18.032 3.62438 17.522 3.50484 17.0044 3.50002ZM19.4714 9.47546C19.9874 8.96506 20.3319 8.30687 20.4573 7.59203C20.5827 6.87718 20.4828 6.14103 20.1714 5.48546L19.8673 4.84534L19.3662 5.34645L15.3662 9.34645L14.8651 9.84756L15.5052 10.1516C16.1557 10.4606 16.8857 10.5614 17.5955 10.4403C18.3052 10.3193 18.9602 9.98235 19.4714 9.47546ZM7.99779 10.5L7.99951 10.5C9.07693 10.5006 10.1305 10.8176 11.0293 11.4117C11.9281 12.0058 12.6326 12.8509 13.0554 13.8419C13.4782 14.8329 13.6005 15.9262 13.4073 16.9862C13.2142 18.0462 12.7139 19.026 11.9687 19.8042L11.9453 19.8286L11.9254 19.8559C11.9138 19.8719 11.9024 19.8882 11.8913 19.9047L11.8624 19.924L11.8261 19.9482L11.7945 19.9783C10.7722 20.9543 9.41335 21.4992 7.99996 21.5C6.90962 21.499 5.84417 21.174 4.93894 20.5662C4.03365 19.9583 3.32948 19.0951 2.91588 18.0862C2.50228 17.0772 2.39792 15.9681 2.61607 14.8997C2.83422 13.8313 3.36502 12.8519 4.14105 12.0858L4.14276 12.0841C4.64934 11.5792 5.25067 11.1793 5.91224 10.9075C6.5738 10.6356 7.28255 10.4971 7.99779 10.5ZM4.81428 19.1816L4.81425 19.1816L4.8182 19.1855C5.52223 19.8818 6.43627 20.3264 7.41865 20.4505C8.40103 20.5745 9.39691 20.3711 10.2519 19.8718L10.8117 19.5448L10.3533 19.0864L4.91334 13.6464L4.45495 13.1881L4.12803 13.7478C3.62865 14.6029 3.42524 15.5988 3.54931 16.5811C3.67338 17.5635 4.118 18.4776 4.81428 19.1816ZM11.0862 18.3536L11.547 18.8143L11.8728 18.25C12.2666 17.5679 12.4745 16.7944 12.4757 16.0068C12.4769 15.2191 12.2714 14.445 11.8796 13.7617C11.4879 13.0784 10.9236 12.5099 10.2433 12.113C9.56298 11.7161 8.79041 11.5047 8.00279 11.5V11.4999L7.99459 11.5C7.2022 11.5083 6.42604 11.7256 5.74459 12.13L5.19117 12.4585L5.64623 12.9136L11.0862 18.3536ZM17.8824 2.58564C18.755 2.75835 19.5569 3.1858 20.1867 3.814C20.6057 4.23201 20.9382 4.72859 21.1651 5.2753C21.3919 5.82201 21.5087 6.4081 21.5087 7C21.5087 7.59191 21.3919 8.178 21.1651 8.72471C20.9382 9.27141 20.6057 9.76799 20.1867 10.186C19.5569 10.8142 18.755 11.2417 17.8824 11.4144C17.0098 11.5871 16.1056 11.4973 15.284 11.1564C14.4624 10.8154 13.7603 10.2387 13.2663 9.49889C12.7724 8.75911 12.5087 7.88953 12.5087 7C12.5087 6.11047 12.7724 5.24089 13.2663 4.50112C13.7603 3.76134 14.4624 3.18456 15.284 2.84363C16.1056 2.50271 17.0098 2.41293 17.8824 2.58564Z" fill="#111111" stroke="#111111"/>
</svg>
