<svg width="24" height="24" viewBox="0 0 24 24" fill="none" xmlns="http://www.w3.org/2000/svg">
<path d="M11.5409 16.7938L11.5411 16.7939L11.5462 16.7808C11.5667 16.7279 11.5959 16.679 11.6327 16.6361L11.733 16.5559C11.7481 16.5468 11.7641 16.5393 11.7808 16.5334L11.9212 16.4866C11.9946 16.4767 12.0693 16.4832 12.14 16.5057C12.2174 16.5304 12.2876 16.5735 12.3445 16.6313C12.3923 16.6851 12.4309 16.7464 12.4587 16.8128L12.463 16.8232L12.4678 16.8333C12.4904 16.8813 12.5015 16.934 12.5002 16.9871L12.5001 16.9871L12.5001 16.9928C12.4982 17.1223 12.4462 17.246 12.3551 17.3378C12.2853 17.4079 12.1964 17.4558 12.0995 17.4754C12.0071 17.494 11.9115 17.4861 11.8236 17.4529C11.756 17.4186 11.6927 17.3765 11.635 17.3274C11.5716 17.2589 11.5285 17.174 11.5108 17.0822C11.4922 16.9852 11.5026 16.8849 11.5409 16.7938ZM7 2.5H17C17.663 2.5 18.2989 2.76339 18.7678 3.23223C19.2366 3.70107 19.5 4.33696 19.5 5V19C19.5 19.663 19.2366 20.2989 18.7678 20.7678C18.2989 21.2366 17.663 21.5 17 21.5H7C6.33696 21.5 5.70107 21.2366 5.23223 20.7678C4.76339 20.2989 4.5 19.663 4.5 19V5C4.5 4.33696 4.76339 3.70107 5.23223 3.23223C5.70107 2.76339 6.33696 2.5 7 2.5ZM18.0607 20.0607C18.342 19.7794 18.5 19.3978 18.5 19V5C18.5 4.60218 18.342 4.22065 18.0607 3.93934C17.7794 3.65804 17.3978 3.5 17 3.5H7C6.60217 3.5 6.22064 3.65804 5.93934 3.93934C5.65804 4.22064 5.5 4.60217 5.5 5V19C5.5 19.3978 5.65804 19.7794 5.93934 20.0607C6.22065 20.342 6.60218 20.5 7 20.5H17C17.3978 20.5 17.7794 20.342 18.0607 20.0607Z" fill="#111111" stroke="#111111"/>
</svg>
