<svg width="24" height="24" viewBox="0 0 24 24" fill="none" xmlns="http://www.w3.org/2000/svg">
<path d="M3.77325 19.75L3.77374 19.7509C3.84027 19.8666 3.95007 19.9512 4.07897 19.986C4.20787 20.0208 4.34533 20.003 4.46109 19.9365C4.57686 19.87 4.66145 19.7602 4.69626 19.6313C4.73096 19.5028 4.71338 19.3658 4.64741 19.2503C3.89482 17.9603 3.49889 16.4933 3.50023 14.9998C3.50023 14.9997 3.50023 14.9996 3.50023 14.9995L4.00023 15C4.00071 13.7732 4.28334 12.5629 4.82626 11.4628C5.36918 10.3626 6.15785 9.40208 7.13128 8.65541C8.10472 7.90875 9.23684 7.39597 10.4401 7.15672C11.6434 6.91747 12.8855 6.95816 14.0706 7.27565C15.2556 7.59313 16.3517 8.17891 17.2742 8.98768C18.1967 9.79646 18.9208 10.8066 19.3905 11.9399C19.8603 13.0732 20.0631 14.2994 19.9833 15.5236C19.9035 16.7478 19.5432 17.9373 18.9302 19L3.77325 19.75ZM3.77325 19.75C2.93946 18.3058 2.5005 16.6676 2.50049 15.0001C2.50048 13.3325 2.93942 11.6943 3.77319 10.2501C4.60696 8.80593 5.80618 7.60667 7.25033 6.77285C8.69447 5.93904 10.3327 5.50005 12.0002 5.5L3.77325 19.75ZM13.5002 15.0029C13.5014 14.8019 13.4622 14.6028 13.3849 14.4172C13.3076 14.2317 13.1938 14.0636 13.0502 13.9229L13.0472 13.92L12.0002 14V13.5C11.6024 13.5 11.2209 13.658 10.9396 13.9393C10.6583 14.2206 10.5002 14.6022 10.5002 15C10.5002 15.3978 10.6583 15.7794 10.9396 16.0607C11.2209 16.342 11.6024 16.5 12.0002 16.5C12.3981 16.5 12.7796 16.342 13.0609 16.0607C13.3415 15.78 13.4995 15.3997 13.5002 15.0029ZM13.5002 15.0029L13.0002 15H13.5002C13.5002 15.001 13.5002 15.0019 13.5002 15.0029ZM19.9252 19.9829C19.798 20.0175 19.6622 20.0004 19.5474 19.9354L12.0002 5.5C13.6678 5.50005 15.306 5.93904 16.7501 6.77285C18.1943 7.60667 19.3935 8.80593 20.2273 10.2501C21.0611 11.6943 21.5 13.3325 21.5 15.0001C21.5 16.6676 21.061 18.3058 20.2272 19.75L20.2271 19.7502C20.1611 19.8646 20.0526 19.9482 19.9252 19.9829ZM15.1926 11.1147L15.1927 11.1146C15.2864 11.0215 15.4131 10.9692 15.5452 10.9692C15.6773 10.9692 15.8041 11.0215 15.8977 11.1146L15.8981 11.115C15.945 11.1615 15.9822 11.2168 16.0076 11.2777C16.033 11.3386 16.046 11.404 16.046 11.47C16.046 11.536 16.033 11.6014 16.0076 11.6623C15.9822 11.7232 15.945 11.7785 15.8981 11.825L15.8978 11.8253L14.3478 13.3653L14.0926 13.6189L14.252 13.9415C14.4146 14.2707 14.4996 14.633 14.5002 15.0002C14.5002 15.4946 14.3536 15.9779 14.0789 16.3889C13.8042 16.8 13.4138 17.1205 12.9569 17.3097C12.5001 17.4989 11.9975 17.5484 11.5125 17.452C11.0276 17.3555 10.5821 17.1174 10.2325 16.7678C9.88284 16.4181 9.64473 15.9727 9.54827 15.4877C9.45181 15.0028 9.50132 14.5001 9.69054 14.0433C9.87975 13.5865 10.2002 13.196 10.6113 12.9213C11.0224 12.6466 11.5058 12.5 12.0002 12.5L12.0008 12.5C12.3713 12.4996 12.7368 12.5846 13.0691 12.7485L13.3894 12.9063L13.6426 12.6547L15.1926 11.1147Z" fill="#111111" stroke="#111111"/>
</svg>
