<svg width="24" height="24" viewBox="0 0 24 24" fill="none" xmlns="http://www.w3.org/2000/svg">
<path d="M2.50003 14V14.0012C2.49535 15.8819 3.0543 17.7208 4.10476 19.2807L3.69003 19.56M2.50003 14L19.1989 19.415C19.1445 19.3783 19.0978 19.3312 19.0615 19.2765C19.0252 19.2217 19 19.1602 18.9875 19.0957C18.9749 19.0311 18.9752 18.9647 18.9884 18.9003C19.0016 18.8358 19.0273 18.7746 19.0642 18.7202L19.0657 18.7179C19.9215 17.4382 20.4137 15.9501 20.4897 14.4124C20.5657 12.8747 20.2226 11.3453 19.4972 9.98742C18.7717 8.62953 17.6911 7.49416 16.3706 6.70255C15.0502 5.91094 13.5396 5.49281 12 5.49281C10.4605 5.49281 8.94986 5.91094 7.62944 6.70255C6.30901 7.49416 5.22837 8.62953 4.50291 9.98742C3.77744 11.3453 3.4344 12.8747 3.51039 14.4124C3.58639 15.9501 4.07858 17.4382 4.9344 18.718L4.93555 18.7197C5.0099 18.8299 5.03743 18.9651 5.01208 19.0956C4.98673 19.2261 4.91058 19.3412 4.80038 19.4155C4.69018 19.4899 4.55495 19.5174 4.42445 19.4921C4.29395 19.4667 4.17887 19.3906 4.10451 19.2803L3.69003 19.56M2.50003 14C2.50003 11.4804 3.50092 9.06408 5.28252 7.28249C6.16467 6.40033 7.21194 5.70056 8.36454 5.22314C9.51713 4.74572 10.7525 4.5 12 4.5C14.5196 4.5 16.9359 5.50089 18.7175 7.28249C20.4991 9.06408 21.5 11.4804 21.5 14L21.5 14.0012C21.5047 15.8819 20.9458 17.7208 19.8953 19.2807L20.31 19.56L2.50003 14ZM3.69003 19.56C3.83855 19.7801 4.06844 19.9322 4.32911 19.9829C4.58979 20.0335 4.8599 19.9785 5.08003 19.83C5.30016 19.6815 5.45227 19.4516 5.50291 19.1909C5.55354 18.9302 5.49855 18.6601 5.35003 18.44L19.0711 6.92893C17.1957 5.05357 14.6522 4 12 4C10.6868 4 9.38645 4.25866 8.1732 4.7612C6.95994 5.26375 5.85755 6.00035 4.92896 6.92893C3.0536 8.8043 2.00003 11.3478 2.00003 14C1.99511 15.9806 2.58375 17.9172 3.69003 19.56ZM12.3816 13.5532L12.6599 13.6272L12.8636 13.4236L15.6436 10.6436C15.7381 10.549 15.8663 10.4959 16 10.4959C16.1337 10.4959 16.2619 10.549 16.3565 10.6436C16.451 10.7381 16.5041 10.8663 16.5041 11C16.5041 11.1337 16.451 11.2619 16.3565 11.3564L13.5765 14.1364L13.3728 14.3401L13.4468 14.6185C13.4802 14.7441 13.4981 14.8733 13.5 15.0032C13.4992 15.3999 13.3412 15.7801 13.0607 16.0607C12.7801 16.3412 12.3999 16.4991 12.0032 16.5C11.8733 16.498 11.7441 16.4802 11.6185 16.4468L11.3401 16.3728L11.1365 16.5764L10.3565 17.3564L10.355 17.3579C10.3085 17.4048 10.2532 17.442 10.1923 17.4673C10.1314 17.4927 10.066 17.5058 10 17.5058C9.93402 17.5058 9.86867 17.4927 9.80774 17.4673C9.74682 17.442 9.69151 17.4048 9.64503 17.3579L9.64213 17.355C9.59527 17.3085 9.55807 17.2532 9.53269 17.1923C9.5073 17.1314 9.49423 17.066 9.49423 17C9.49423 16.934 9.5073 16.8686 9.53269 16.8077C9.55807 16.7468 9.59527 16.6915 9.64213 16.645L9.64358 16.6436L10.4236 15.8636L10.6273 15.6599L10.5532 15.3815C10.5198 15.2559 10.502 15.1267 10.5 14.9968C10.5009 14.6001 10.6588 14.2199 10.9394 13.9393C11.2199 13.6588 11.6002 13.5009 11.9968 13.5C12.1268 13.502 12.256 13.5198 12.3816 13.5532Z" fill="#111111" stroke="#111111"/>
</svg>
