<svg width="24" height="24" viewBox="0 0 24 24" fill="none" xmlns="http://www.w3.org/2000/svg">
<path d="M12.28 2.58575L12.28 2.5858L12.286 2.58974C12.4063 2.66858 14.1614 3.85782 15.8809 5.9044C17.6023 7.95319 19.25 10.8149 19.25 14.2515C19.25 16.1743 18.4862 18.0184 17.1265 19.378C15.7669 20.7377 13.9228 21.5015 12 21.5015C10.0772 21.5015 8.23311 20.7377 6.87348 19.378C5.51384 18.0184 4.75 16.1743 4.75 14.2515C4.75 10.8759 6.39415 8.01659 8.11646 5.95178C9.83618 3.89006 11.5927 2.67064 11.7173 2.58753L11.7174 2.58754L11.72 2.58575C11.8027 2.52987 11.9002 2.5 12 2.5C12.0998 2.5 12.1973 2.52987 12.28 2.58575ZM5.75 14.2515L5.75 14.2524C5.75287 15.9089 6.41219 17.4967 7.5835 18.668C8.75482 19.8393 10.3426 20.4986 11.9991 20.5015L12.0009 20.5015C13.6574 20.4986 15.2452 19.8393 16.4165 18.668C17.5878 17.4967 18.2471 15.9089 18.25 14.2524V14.2515C18.25 11.6098 17.1412 9.31101 15.8617 7.53769C14.5812 5.76293 13.1051 4.47989 12.3077 3.85738L11.9965 3.61443L11.688 3.86083C10.8998 4.49034 9.42419 5.77257 8.14237 7.54472C6.86169 9.3153 5.75 11.6092 5.75 14.2515Z" fill="#111111" stroke="#111111"/>
</svg>
