<svg width="24" height="24" viewBox="0 0 24 24" fill="none" xmlns="http://www.w3.org/2000/svg">
<path d="M5.37468 13.3308L5.49978 13.1891V13V5.5C5.49978 4.43913 5.92121 3.42172 6.67136 2.67157C7.4215 1.92143 8.43892 1.5 9.49978 1.5C10.5606 1.5 11.5781 1.92143 12.3282 2.67157C13.0784 3.42172 13.4998 4.43913 13.4998 5.5V13V13.191L13.6271 13.3333C14.3369 14.1269 14.8012 15.1094 14.9635 16.1617C15.1258 17.214 14.9792 18.2907 14.5414 19.2613C14.1037 20.2319 13.3937 21.0545 12.4975 21.6294C11.6037 22.2028 10.5631 22.5052 9.50126 22.5001C9.10387 22.4838 8.70881 22.431 8.32105 22.3425L8.31718 22.3417C7.38202 22.136 6.51675 21.6898 5.80696 21.0471C5.09717 20.4044 4.56747 19.5876 4.27024 18.6773C3.97301 17.7671 3.91855 16.7951 4.11226 15.8574C4.30596 14.9197 4.74112 14.0488 5.37468 13.3308ZM9.06939 21.6113C9.92116 21.6625 10.7625 21.4707 11.4998 21.0685V21.1905L12.3122 20.5404C12.8114 20.1409 13.2198 19.6396 13.5101 19.07C13.8003 18.5003 13.9659 17.8753 13.9957 17.2366C14.0255 16.5979 13.9189 15.9602 13.6829 15.366C13.4472 14.7724 13.0878 14.2358 12.6287 13.7919C12.582 13.7458 12.5448 13.6909 12.5192 13.6305C12.4936 13.5698 12.4802 13.5047 12.4798 13.4389V5.5C12.4798 4.70435 12.1637 3.94129 11.6011 3.37868C11.0385 2.81607 10.2754 2.5 9.47978 2.5C8.68413 2.5 7.92107 2.81607 7.35846 3.37868C6.79585 3.94129 6.47978 4.70435 6.47978 5.5V13.3988C6.4794 13.4646 6.466 13.5298 6.44036 13.5905C6.41592 13.6483 6.38079 13.701 6.33686 13.7459C5.44866 14.5387 4.90987 15.6508 4.83846 16.8396C4.76674 18.0334 5.17221 19.2068 5.96567 20.1017C6.75912 20.9966 7.87556 21.5396 9.06939 21.6113ZM9.99978 15.28V15.5687L10.2498 15.713C10.4765 15.8439 10.665 16.0318 10.7966 16.2581C10.9279 16.484 10.9979 16.7403 10.9998 17.0015C10.9994 17.3988 10.8414 17.7797 10.5604 18.0607C10.2791 18.342 9.89761 18.5 9.49978 18.5C9.10196 18.5 8.72043 18.342 8.43912 18.0607C8.15817 17.7797 8.00018 17.3988 7.99978 17.0015C8.00162 16.7403 8.07166 16.484 8.20299 16.2581C8.33456 16.0318 8.52307 15.8439 8.74977 15.713L8.99978 15.5687V15.28V5.5C8.99978 5.36739 9.05246 5.24022 9.14623 5.14645C9.24 5.05268 9.36718 5 9.49978 5C9.63239 5 9.75957 5.05268 9.85334 5.14645C9.9471 5.24022 9.99978 5.36739 9.99978 5.5V15.28ZM16.4998 3H19.4998C19.6324 3 19.7596 3.05268 19.8533 3.14645C19.9471 3.24021 19.9998 3.36739 19.9998 3.5C19.9998 3.63261 19.9471 3.75979 19.8533 3.85355C19.7596 3.94732 19.6324 4 19.4998 4H16.4998C16.3672 4 16.24 3.94732 16.1462 3.85355C16.0525 3.75978 15.9998 3.63261 15.9998 3.5C15.9998 3.36739 16.0525 3.24021 16.1462 3.14645C16.24 3.05268 16.3672 3 16.4998 3Z" fill="#111111" stroke="#111111"/>
</svg>
