<svg width="24" height="24" viewBox="0 0 24 24" fill="none" xmlns="http://www.w3.org/2000/svg">
<path d="M12 20.5C13.9355 20.503 15.8129 19.8384 17.3153 18.6181L17.7951 18.2284L17.3137 17.8406C16.4411 17.1377 15.7371 16.2482 15.2535 15.2375C14.7698 14.2267 14.5187 13.1205 14.5187 12C14.5187 10.8795 14.7698 9.77325 15.2535 8.76253C15.7371 7.75181 16.4411 6.8623 17.3137 6.15938L17.7961 5.77082L17.3145 5.38127C15.8105 4.16459 13.9346 3.50082 12 3.50082C10.0655 3.50082 8.18959 4.16459 6.68558 5.38127L6.20404 5.77082L6.68638 6.15938C7.55897 6.8623 8.26296 7.7518 8.74664 8.76253C9.23031 9.77325 9.48137 10.8795 9.48137 12C9.48137 13.1205 9.23031 14.2267 8.74664 15.2375C8.26296 16.2482 7.55897 17.1377 6.68638 17.8406L6.205 18.2284L6.68482 18.6181C8.18723 19.8384 10.0646 20.503 12 20.5ZM12 20.5C11.9998 20.5 11.9995 20.5 11.9992 20.5L12 20L12.0009 20.5C12.0006 20.5 12.0003 20.5 12 20.5ZM17 18.23L16.6864 18.6194C16.6542 18.5935 16.6223 18.5674 16.5906 18.541C16.73 18.4421 16.8666 18.3384 17 18.23ZM17 18.23L16.6848 17.8419C16.6614 17.8609 16.6379 17.8798 16.6143 17.8985C16.7391 18.0129 16.8678 18.1234 17 18.23ZM17 5.77L16.6856 6.15873C16.6619 6.13955 16.6381 6.12053 16.6141 6.10166C16.739 5.98722 16.8677 5.8766 17 5.77ZM17 5.77L16.6864 5.38063C16.654 5.40671 16.6218 5.43303 16.5898 5.45957C16.7295 5.55834 16.8664 5.66185 17 5.77ZM7.00005 5.77L7.31372 5.38063C7.3461 5.40671 7.37828 5.43303 7.41025 5.45956C7.27056 5.55834 7.13374 5.66185 7.00005 5.77ZM7.00005 5.77L7.31451 6.15873C7.33822 6.13955 7.36204 6.12053 7.38596 6.10166C7.26106 5.98722 7.13237 5.8766 7.00005 5.77ZM7.00005 18.23L7.31527 17.8419C7.33869 17.8609 7.3622 17.8798 7.38582 17.8985C7.26097 18.0129 7.13232 18.1234 7.00005 18.23ZM7.00005 18.23L7.31372 18.6194C7.34585 18.5935 7.37779 18.5674 7.40952 18.541C7.27005 18.4421 7.13348 18.3384 7.00005 18.23ZM5.0217 18.4255L5.02171 18.4255L5.0185 18.422C3.77293 17.0642 2.94909 15.3735 2.64732 13.5559C2.34556 11.7382 2.57889 9.872 3.31889 8.18458C4.0589 6.49716 5.27365 5.06136 6.81517 4.05205C8.35642 3.04292 10.1578 2.50369 12 2.5C13.8423 2.50369 15.6437 3.04292 17.1849 4.05205C18.7265 5.06136 19.9412 6.49716 20.6812 8.18458C21.4212 9.872 21.6545 11.7382 21.3528 13.5559C21.051 15.3735 20.2272 17.0642 18.9816 18.422L18.9784 18.4255L18.8927 18.5207C18.0059 19.4557 16.938 20.2006 15.7541 20.7099C14.5683 21.22 13.2909 21.4831 12 21.4831C10.7092 21.4831 9.43183 21.22 8.24601 20.7099C7.06212 20.2006 5.99425 19.4557 5.10737 18.5207L5.0217 18.4255ZM5.21157 17.092L5.5129 17.4896L5.91116 17.1892C6.71432 16.5833 7.36588 15.7993 7.81456 14.8988C8.26323 13.9984 8.49675 13.006 8.49675 12C8.49675 10.994 8.26323 10.0016 7.81456 9.10117C7.36588 8.20071 6.71432 7.41669 5.91116 6.81083L5.5129 6.51041L5.21157 6.90798C4.101 8.37325 3.49992 10.1614 3.49992 12C3.49992 13.8386 4.101 15.6267 5.21157 17.092ZM18.0889 17.1892L18.4872 17.4896L18.7885 17.092C19.8991 15.6267 20.5002 13.8386 20.5002 12C20.5002 10.1614 19.8991 8.37325 18.7885 6.90798L18.4872 6.51041L18.0889 6.81083C17.2858 7.41669 16.6342 8.20071 16.1855 9.10117C15.7369 10.0016 15.5033 10.994 15.5033 12C15.5033 13.006 15.7369 13.9984 16.1855 14.8988C16.6342 15.7993 17.2858 16.5833 18.0889 17.1892Z" fill="#111111" stroke="#111111"/>
</svg>
