<svg width="24" height="24" viewBox="0 0 24 24" fill="none" xmlns="http://www.w3.org/2000/svg">
<path d="M5.5 13V12.5H5H3C2.86739 12.5 2.74021 12.4473 2.64645 12.3536C2.55268 12.2598 2.5 12.1326 2.5 12C2.5 11.8674 2.55268 11.7402 2.64645 11.6464C2.74021 11.5527 2.86739 11.5 3 11.5H9C9.13261 11.5 9.25978 11.5527 9.35355 11.6464C9.44732 11.7402 9.5 11.8674 9.5 12C9.5 12.1326 9.44732 12.2598 9.35355 12.3536C9.25978 12.4473 9.13261 12.5 9 12.5H7H6.5V13V18C6.5 18.1326 6.44732 18.2598 6.35355 18.3536C6.25979 18.4473 6.13261 18.5 6 18.5C5.86739 18.5 5.74021 18.4473 5.64645 18.3536C5.55268 18.2598 5.5 18.1326 5.5 18V13ZM14.5 7V6.5H14H9C8.86739 6.5 8.74022 6.44732 8.64645 6.35355C8.55268 6.25978 8.5 6.13261 8.5 6C8.5 5.86739 8.55268 5.74022 8.64645 5.64645C8.74022 5.55268 8.86739 5.5 9 5.5H21C21.1326 5.5 21.2598 5.55268 21.3536 5.64645C21.4473 5.74021 21.5 5.86739 21.5 6C21.5 6.13261 21.4473 6.25979 21.3536 6.35355C21.2598 6.44732 21.1326 6.5 21 6.5H16H15.5V7V18C15.5 18.1326 15.4473 18.2598 15.3536 18.3536C15.2598 18.4473 15.1326 18.5 15 18.5C14.8674 18.5 14.7402 18.4473 14.6464 18.3536C14.5527 18.2598 14.5 18.1326 14.5 18V7Z" fill="#111111" stroke="#111111"/>
</svg>
