<svg width="24" height="24" viewBox="0 0 24 24" fill="none" xmlns="http://www.w3.org/2000/svg">
<path d="M11 20.5H11.5V20V13V12.5H11H4H3.5V13V20V20.5H4H11ZM11 11.5H11.5V11V4V3.5H11H4H3.5V4V11V11.5H4H11ZM20 20.5H20.5V20V13V12.5H20H13H12.5V13V20V20.5H13H20ZM20 11.5H20.5V11V4V3.5H20H13H12.5V4V11V11.5H13H20ZM3 2.5H21C21.1326 2.5 21.2598 2.55268 21.3536 2.64645C21.4473 2.74021 21.5 2.86739 21.5 3V21C21.5 21.1326 21.4473 21.2598 21.3536 21.3536C21.2598 21.4473 21.1326 21.5 21 21.5H3C2.86739 21.5 2.74021 21.4473 2.64645 21.3536C2.55268 21.2598 2.5 21.1326 2.5 21V3C2.5 2.86739 2.55268 2.74021 2.64645 2.64645C2.74021 2.55268 2.86739 2.5 3 2.5Z" fill="#111111" stroke="#111111"/>
</svg>
