<svg width="24" height="24" viewBox="0 0 24 24" fill="none" xmlns="http://www.w3.org/2000/svg">
<path d="M15.5 13.8961L15.4569 13.9931L12.7369 20.1131L12.5576 20.5164L12.1352 20.3886C11.7915 20.2846 11.4728 20.1114 11.1987 19.8796C10.9245 19.6477 10.7007 19.3622 10.5411 19.0407C10.3815 18.7191 10.2894 18.3682 10.2705 18.0097C10.2516 17.6512 10.3063 17.2926 10.4312 16.956L10.9611 15.5262L10.9616 15.525C11.0463 15.2983 11.0749 15.0545 11.0449 14.8144C11.015 14.5742 10.9274 14.3449 10.7896 14.1459C10.6518 13.947 10.4679 13.7843 10.2537 13.6719C10.0395 13.5595 9.80143 13.5005 9.5596 13.5C9.55943 13.5 9.55927 13.5 9.5591 13.5H5.00079C5.00056 13.5 5.00033 13.5 5.0001 13.5H4.99998V13C4.85307 13.0002 4.70791 12.9681 4.57482 12.9059C4.44174 12.8437 4.324 12.7529 4.22998 12.64L15.5 13.8961ZM15.5 13.8961V13.79V4V3.5H15H6.27364C5.92004 3.49529 5.57608 3.61567 5.30255 3.83997C5.02786 4.06521 4.84203 4.38063 4.77813 4.73007L4.77801 4.73074L3.50801 11.7307L3.50797 11.7307L3.50688 11.7372C3.47031 11.955 3.48226 12.1781 3.5419 12.3907C3.60111 12.6018 3.70588 12.7974 3.8488 12.9636L15.5 13.8961ZM2.54181 11.55L2.54195 11.5493L3.81181 4.55C3.81183 4.54989 3.81185 4.54977 3.81187 4.54966C3.9172 3.9745 4.2208 3.45446 4.66988 3.07998C5.119 2.70546 5.68519 2.50023 6.26998 2.5C6.27003 2.5 6.27009 2.5 6.27014 2.5L19 2.5C19.663 2.5 20.2989 2.76339 20.7677 3.23223C21.2366 3.70107 21.5 4.33696 21.5 5V12C21.5 12.663 21.2366 13.2989 20.7677 13.7678C20.2989 14.2366 19.663 14.5 19 14.5H16.65H16.3251L16.1931 14.7969L13.3439 21.205C13.3438 21.2053 13.3437 21.2056 13.3436 21.2058C13.3041 21.2932 13.2403 21.3674 13.1599 21.4195C13.0792 21.4719 12.9851 21.4998 12.8889 21.5L12.8877 21.5C12.3005 21.5027 11.7214 21.363 11.2002 21.0928C10.6789 20.8225 10.2309 20.4299 9.89472 19.9485C9.55852 19.4671 9.34412 18.9113 9.2699 18.3289C9.19586 17.7478 9.26355 17.1574 9.46716 16.6082L10.0255 15.1823L10.2928 14.5H9.55998H5.00014C5.00009 14.5 5.00003 14.5 4.99998 14.5C4.63368 14.4999 4.2719 14.4192 3.94021 14.2638C3.60847 14.1084 3.31496 13.8819 3.08042 13.6005C2.84589 13.319 2.67608 12.9895 2.58301 12.6351C2.48993 12.2808 2.47587 11.9104 2.54181 11.55ZM16.5 13V13.5H17H19C19.3978 13.5 19.7793 13.342 20.0606 13.0607C20.3419 12.7794 20.5 12.3978 20.5 12V5C20.5 4.60218 20.3419 4.22065 20.0606 3.93934C19.7793 3.65804 19.3978 3.5 19 3.5H17H16.5V4V13Z" fill="#111111" stroke="#111111"/>
</svg>
