<svg width="24" height="24" viewBox="0 0 24 24" fill="none" xmlns="http://www.w3.org/2000/svg">
<path d="M13.0568 11.6423L12.702 11.9963L13.0568 12.3502L17.3568 16.6402L17.3578 16.6413C17.4047 16.6878 17.4419 16.7431 17.4673 16.804C17.4927 16.8649 17.5057 16.9303 17.5057 16.9963C17.5057 17.0623 17.4927 17.1276 17.4673 17.1886C17.4419 17.2495 17.4047 17.3048 17.3578 17.3513L17.3549 17.3542C17.3085 17.401 17.2532 17.4382 17.1922 17.4636C17.1313 17.489 17.0659 17.5021 16.9999 17.5021C16.9339 17.5021 16.8686 17.489 16.8077 17.4636C16.7467 17.4382 16.6914 17.401 16.6449 17.3542L16.6439 17.3531L12.3539 13.0531L11.9999 12.6983L11.646 13.0531L7.35597 17.3531L7.35494 17.3542C7.30845 17.401 7.25315 17.4382 7.19223 17.4636C7.1313 17.489 7.06595 17.5021 6.99994 17.5021C6.93393 17.5021 6.86858 17.489 6.80765 17.4636C6.74672 17.4382 6.69142 17.401 6.64494 17.3542L6.64204 17.3513C6.59517 17.3048 6.55798 17.2495 6.53259 17.1886C6.50721 17.1276 6.49414 17.0623 6.49414 16.9963C6.49414 16.9303 6.50721 16.8649 6.53259 16.804C6.55798 16.7431 6.59517 16.6878 6.64204 16.6413L6.64308 16.6402L10.9431 12.3502L11.2979 11.9963L10.9431 11.6423L6.64349 7.35273C6.64344 7.35267 6.64338 7.35261 6.64332 7.35255C6.54889 7.25804 6.49585 7.12989 6.49585 6.99628C6.49585 6.86259 6.54896 6.73437 6.64349 6.63983C6.73803 6.5453 6.86625 6.49219 6.99994 6.49219C7.13355 6.49219 7.26169 6.54523 7.35621 6.63966C7.35627 6.63972 7.35633 6.63978 7.35639 6.63983L11.646 10.9394L11.9999 11.2942L12.3539 10.9394L16.6435 6.63983C16.6436 6.63973 16.6437 6.63963 16.6438 6.63953C16.7383 6.54518 16.8664 6.49219 16.9999 6.49219C17.1336 6.49219 17.2618 6.5453 17.3564 6.63983C17.4509 6.73437 17.504 6.86259 17.504 6.99628C17.504 7.12983 17.451 7.25792 17.3567 7.35242C17.3566 7.35252 17.3565 7.35263 17.3564 7.35273L13.0568 11.6423Z" fill="#111111" stroke="#111111"/>
</svg>
