<svg width="24" height="24" viewBox="0 0 24 24" fill="none" xmlns="http://www.w3.org/2000/svg">
<path d="M11.5 5.41283V4.20199L10.6457 5.06004L8.35645 7.35927C8.35633 7.35939 8.35621 7.35951 8.35609 7.35963C8.30935 7.40627 8.25391 7.44328 8.19291 7.46855C8.13175 7.49388 8.0662 7.50692 8 7.50692C7.9338 7.50692 7.86825 7.49388 7.80709 7.46855C7.74593 7.44321 7.69036 7.40608 7.64355 7.35927C7.59674 7.31246 7.55961 7.25689 7.53428 7.19573C7.50895 7.13457 7.49591 7.06902 7.49591 7.00283C7.49591 6.93663 7.50895 6.87108 7.53428 6.80992C7.55961 6.74876 7.59674 6.69319 7.64355 6.64638L11.639 2.6509C11.6859 2.60686 11.7408 2.57226 11.8008 2.54901L11.8008 2.5491L11.81 2.54532C11.9317 2.49531 12.0683 2.49531 12.19 2.54532L12.19 2.54541L12.1992 2.54901C12.2592 2.57226 12.3141 2.60686 12.361 2.65089L16.3564 6.64638L16.3579 6.64783C16.4048 6.69431 16.442 6.74961 16.4673 6.81054C16.4927 6.87147 16.5058 6.93682 16.5058 7.00283C16.5058 7.06883 16.4927 7.13419 16.4673 7.19511C16.442 7.25604 16.4048 7.31134 16.3579 7.35783L16.355 7.36073C16.3085 7.40759 16.2532 7.44479 16.1923 7.47017C16.1314 7.49556 16.066 7.50862 16 7.50862C15.934 7.50862 15.8686 7.49556 15.8077 7.47017C15.7468 7.44479 15.6915 7.40759 15.645 7.36072L15.6443 7.36004L13.3543 5.06004L12.5 4.20199V5.41283V17.0028C12.5 17.1354 12.4473 17.2626 12.3536 17.3564C12.2598 17.4501 12.1326 17.5028 12 17.5028C11.8674 17.5028 11.7402 17.4501 11.6464 17.3564C11.5527 17.2626 11.5 17.1354 11.5 17.0028V5.41283ZM4.64645 20.6493C4.74021 20.5555 4.86739 20.5028 5 20.5028H19C19.1326 20.5028 19.2598 20.5555 19.3536 20.6493C19.4473 20.743 19.5 20.8702 19.5 21.0028C19.5 21.1354 19.4473 21.2626 19.3536 21.3564C19.2598 21.4501 19.1326 21.5028 19 21.5028H5C4.86739 21.5028 4.74021 21.4501 4.64645 21.3564C4.55268 21.2626 4.5 21.1354 4.5 21.0028C4.5 20.8702 4.55268 20.743 4.64645 20.6493Z" fill="#111111" stroke="#111111"/>
</svg>
