<svg width="24" height="24" viewBox="0 0 24 24" fill="none" xmlns="http://www.w3.org/2000/svg">
<path d="M7.64645 21.6464C7.74021 21.5527 7.86739 21.5 8 21.5H10C10.1326 21.5 10.2598 21.5527 10.3536 21.6464C10.4473 21.7402 10.5 21.8674 10.5 22C10.5 22.1326 10.4473 22.2598 10.3536 22.3536C10.2598 22.4473 10.1326 22.5 10 22.5H8C7.86739 22.5 7.74021 22.4473 7.64645 22.3536C7.55268 22.2598 7.5 22.1326 7.5 22C7.5 21.8674 7.55268 21.7402 7.64645 21.6464ZM6 17.5H11C11.1326 17.5 11.2598 17.5527 11.3536 17.6464C11.4473 17.7402 11.5 17.8674 11.5 18C11.5 18.1326 11.4473 18.2598 11.3536 18.3536C11.2598 18.4473 11.1326 18.5 11 18.5H6C5.86739 18.5 5.74021 18.4473 5.64645 18.3536C5.55268 18.2598 5.5 18.1326 5.5 18C5.5 17.8674 5.55268 17.7402 5.64645 17.6464C5.74021 17.5527 5.86739 17.5 6 17.5ZM17.3536 1.64645C17.4473 1.74021 17.5 1.86739 17.5 2C17.5 2.13261 17.4473 2.25979 17.3536 2.35355C17.2598 2.44732 17.1326 2.5 17 2.5H3C2.86739 2.5 2.74021 2.44732 2.64645 2.35355C2.55268 2.25979 2.5 2.13261 2.5 2C2.5 1.86739 2.55268 1.74021 2.64645 1.64645C2.74021 1.55268 2.86739 1.5 3 1.5H17C17.1326 1.5 17.2598 1.55268 17.3536 1.64645ZM6 5.5H21C21.1326 5.5 21.2598 5.55268 21.3536 5.64645C21.4473 5.74021 21.5 5.86739 21.5 6C21.5 6.13261 21.4473 6.25979 21.3536 6.35355C21.2598 6.44732 21.1326 6.5 21 6.5H6C5.86739 6.5 5.74022 6.44732 5.64645 6.35355C5.55268 6.25979 5.5 6.13261 5.5 6C5.5 5.86739 5.55268 5.74021 5.64645 5.64645C5.74022 5.55268 5.86739 5.5 6 5.5ZM10 9.5H19C19.1326 9.5 19.2598 9.55268 19.3536 9.64645C19.4473 9.74021 19.5 9.86739 19.5 10C19.5 10.1326 19.4473 10.2598 19.3536 10.3536C19.2598 10.4473 19.1326 10.5 19 10.5H10C9.86739 10.5 9.74022 10.4473 9.64645 10.3536C9.55268 10.2598 9.5 10.1326 9.5 10C9.5 9.86739 9.55268 9.74022 9.64645 9.64645C9.74022 9.55268 9.86739 9.5 10 9.5ZM8 13.5H14C14.1326 13.5 14.2598 13.5527 14.3536 13.6464C14.4473 13.7402 14.5 13.8674 14.5 14C14.5 14.1326 14.4473 14.2598 14.3536 14.3536C14.2598 14.4473 14.1326 14.5 14 14.5H8C7.86739 14.5 7.74022 14.4473 7.64645 14.3536C7.55268 14.2598 7.5 14.1326 7.5 14C7.5 13.8674 7.55268 13.7402 7.64645 13.6464C7.74022 13.5527 7.86739 13.5 8 13.5Z" fill="#111111" stroke="#111111"/>
</svg>
