<svg width="24" height="24" viewBox="0 0 24 24" fill="none" xmlns="http://www.w3.org/2000/svg">
<path d="M17.5017 8.5L17.503 8.49999C17.6656 8.49903 17.8261 8.53777 17.9704 8.61285C18.1147 8.68794 18.2386 8.7971 18.3311 8.93087C18.4237 9.06464 18.4823 9.21898 18.5017 9.3805C18.5212 9.54202 18.5009 9.70584 18.4427 9.85776C18.3845 10.0097 18.2901 10.1451 18.1677 10.2523C18.0453 10.3595 17.8986 10.4352 17.7404 10.4728C17.5821 10.5105 17.417 10.5089 17.2595 10.4684C17.102 10.4278 16.9567 10.3494 16.8363 10.24L16.5 9.93433L16.1637 10.24C16.0203 10.3703 15.8422 10.4562 15.651 10.4871C15.4598 10.5181 15.2637 10.4929 15.0865 10.4145C14.9093 10.3361 14.7588 10.208 14.6531 10.0456C14.5474 9.88328 14.4911 9.69372 14.4911 9.5C14.4911 9.30628 14.5474 9.11672 14.6531 8.95438C14.7588 8.79203 14.9093 8.66388 15.0865 8.5855C15.2637 8.50712 15.4598 8.48189 15.651 8.51287C15.8422 8.54385 16.0203 8.6297 16.1637 8.76L16.5009 9.06648L16.8373 8.75912C17.0189 8.5932 17.2557 8.50083 17.5017 8.5ZM3 14.5H2.5V15V19C2.5 19.3978 2.65803 19.7794 2.93934 20.0607C3.22065 20.342 3.60218 20.5 4 20.5H14C14.3978 20.5 14.7794 20.342 15.0607 20.0607C15.342 19.7794 15.5 19.3978 15.5 19V18C15.5 17.8674 15.5527 17.7402 15.6464 17.6464C15.7402 17.5527 15.8674 17.5 16 17.5C16.1326 17.5 16.2598 17.5527 16.3536 17.6464C16.4473 17.7402 16.5 17.8674 16.5 18V19C16.5 19.663 16.2366 20.2989 15.7678 20.7678C15.2989 21.2366 14.663 21.5 14 21.5H4C3.33696 21.5 2.70107 21.2366 2.23223 20.7678C1.76339 20.2989 1.5 19.663 1.5 19V12C1.5 11.337 1.76339 10.7011 2.23223 10.2322C2.70107 9.76339 3.33696 9.5 4 9.5C4.13261 9.5 4.25978 9.55268 4.35355 9.64645C4.44732 9.74021 4.5 9.86739 4.5 10C4.5 10.1326 4.44732 10.2598 4.35355 10.3536C4.25978 10.4473 4.13261 10.5 4 10.5C3.60217 10.5 3.22064 10.658 2.93934 10.9393C2.65804 11.2206 2.5 11.6022 2.5 12V13V13.5H3H4C4.13261 13.5 4.25978 13.5527 4.35355 13.6464C4.44732 13.7402 4.5 13.8674 4.5 14C4.5 14.1326 4.44732 14.2598 4.35355 14.3536C4.25978 14.4473 4.13261 14.5 4 14.5H3ZM10 2.5H20C20.663 2.5 21.2989 2.76339 21.7678 3.23223C22.2366 3.70107 22.5 4.33696 22.5 5V12C22.5 12.663 22.2366 13.2989 21.7678 13.7678C21.2989 14.2366 20.663 14.5 20 14.5H10C9.33696 14.5 8.70107 14.2366 8.23223 13.7678C7.76339 13.2989 7.5 12.663 7.5 12V5C7.5 4.33696 7.76339 3.70107 8.23223 3.23223C8.70107 2.76339 9.33696 2.5 10 2.5ZM21.0607 13.0607C21.342 12.7794 21.5 12.3978 21.5 12V5C21.5 4.60218 21.342 4.22065 21.0607 3.93934C20.7794 3.65804 20.3978 3.5 20 3.5H10C9.60217 3.5 9.22064 3.65804 8.93934 3.93934C8.65804 4.22064 8.5 4.60217 8.5 5V12C8.5 12.3978 8.65804 12.7794 8.93934 13.0607C9.22064 13.342 9.60217 13.5 10 13.5H20C20.3978 13.5 20.7794 13.342 21.0607 13.0607ZM7.35355 17.3536C7.25979 17.4473 7.13261 17.5 7 17.5H6C5.86739 17.5 5.74021 17.4473 5.64645 17.3536C5.55268 17.2598 5.5 17.1326 5.5 17C5.5 16.8674 5.55268 16.7402 5.64645 16.6464C5.74021 16.5527 5.86739 16.5 6 16.5H7C7.13261 16.5 7.25979 16.5527 7.35355 16.6464C7.44732 16.7402 7.5 16.8674 7.5 17C7.5 17.1326 7.44732 17.2598 7.35355 17.3536Z" fill="#111111" stroke="#111111"/>
</svg>
