<svg width="24" height="24" viewBox="0 0 24 24" fill="none" xmlns="http://www.w3.org/2000/svg">
<path d="M12.09 14.7158L11.9429 14.891C11.3413 15.6076 10.5312 16.1188 9.62542 16.3535L9 16.5155V15.8695V12.9995C9 12.8669 8.94732 12.7397 8.85355 12.6459C8.75978 12.5521 8.63261 12.4995 8.5 12.4995C8.36739 12.4995 8.24022 12.5521 8.14645 12.6459C8.05268 12.7397 8 12.8669 8 12.9995V15.8595V16.505L7.375 16.3436C6.41147 16.0948 5.55757 15.5337 4.9469 14.7479C4.33623 13.9622 4.00323 12.9962 4 12.0011L4 11.9995L4 8.00025V7.99946L12.09 14.7158ZM12.09 14.7158L12.0536 14.4899M12.09 14.7158L12.0536 14.4899M12.0536 14.4899C12.0268 14.3233 12.0089 14.1552 12 13.9866L12.0536 14.4899ZM16.4996 5.49946H16.5C17.6935 5.49946 18.8381 5.97357 19.682 6.81748C20.5259 7.66139 21 8.80599 21 9.99946V13.9995V13.9996C21.0002 15.037 20.642 16.0426 19.986 16.8462C19.33 17.6498 18.4164 18.2021 17.4 18.4096L17 18.4912V18.8995V20.9995C17 21.1321 16.9473 21.2592 16.8536 21.353C16.7598 21.4468 16.6326 21.4995 16.5 21.4995C16.3674 21.4995 16.2402 21.4468 16.1464 21.353C16.0527 21.2592 16 21.1321 16 20.9995V18.8995V18.4932L15.6024 18.4101C15.0076 18.2857 14.4442 18.0421 13.9462 17.6941C13.4481 17.346 13.0257 16.9008 12.7044 16.3851L12.4055 15.9054L11.9659 16.2604C11.2276 16.8566 10.3495 17.2546 9.41451 17.4168L9 17.4888V17.9095V20.9995C9 21.1321 8.94732 21.2592 8.85355 21.353C8.75979 21.4468 8.63261 21.4995 8.5 21.4995C8.36739 21.4995 8.24021 21.4468 8.14645 21.353C8.05268 21.2592 8 21.1321 8 20.9995V17.9095V17.4869L7.58333 17.4165C6.30269 17.2 5.13998 16.5373 4.3011 15.5457C3.46228 14.5543 3.00138 13.2979 3 11.9992V8.00314C3.01891 6.74746 3.46697 5.53602 4.26977 4.57021C5.07332 3.6035 6.18378 2.94122 7.41623 2.69366C8.64868 2.44609 9.92875 2.62819 11.0433 3.20962C12.1578 3.79105 13.0395 4.73672 13.5416 5.88917L13.7688 6.4106L14.2568 6.11847C14.9345 5.71279 15.7097 5.49883 16.4996 5.49946ZM20 14.0009V13.9995V9.99946C20 9.0712 19.6313 8.18096 18.9749 7.52459C18.3185 6.86821 17.4283 6.49946 16.5 6.49946C15.5717 6.49946 14.6815 6.86821 14.0251 7.52459C13.3687 8.18096 13 9.0712 13 9.99946L13 13.9995L13 14.0009C13.002 14.723 13.2274 15.4268 13.6451 16.0158C14.0628 16.6048 14.6525 17.0502 15.3333 17.2909L16 17.5266V16.8195V12.9995C16 12.8669 16.0527 12.7397 16.1464 12.6459C16.2402 12.5521 16.3674 12.4995 16.5 12.4995C16.6326 12.4995 16.7598 12.5521 16.8536 12.6459C16.9473 12.7397 17 12.8669 17 12.9995V16.8195V17.5266L17.6667 17.2909C18.3475 17.0502 18.9372 16.6048 19.3549 16.0158C19.7726 15.4268 19.998 14.723 20 14.0009Z" fill="#111111" stroke="#111111"/>
</svg>
