<svg width="24" height="24" viewBox="0 0 24 24" fill="none" xmlns="http://www.w3.org/2000/svg">
<path d="M14.0568 15.2767L14.0568 15.2767C14.2353 15.4586 14.3645 15.683 14.4323 15.9286C14.5 16.1743 14.5041 16.4332 14.444 16.6808C14.384 16.9285 14.2618 17.1568 14.0891 17.3442C13.917 17.5309 13.7003 17.6708 13.4593 17.7509C13.4585 17.7512 13.4576 17.7515 13.4568 17.7517L5.48125 20.4702L5.47368 20.4728L5.46602 20.4752C5.20551 20.5547 4.92824 20.5619 4.66398 20.4958C4.39996 20.4298 4.15888 20.2932 3.96656 20.1007M14.0568 15.2767L4.31994 19.747M14.0568 15.2767L14.0544 15.2743L12.1344 13.3443L11.7788 12.9869L11.4243 13.3455L10.5649 14.2149L10.9199 14.567M14.0568 15.2767L12.1326 14.0515L12.1355 14.0485L11.7799 13.697L11.4255 14.0496L11.4284 14.0526L10.9199 14.567M3.96656 20.1007C3.96638 20.1005 3.9662 20.1003 3.96602 20.1002L4.31994 19.747M3.96656 20.1007C3.96662 20.1008 3.96669 20.1008 3.96676 20.1009L4.31994 19.747M3.96656 20.1007C3.77385 19.9083 3.63714 19.6671 3.5711 19.4029C3.50503 19.1387 3.51217 18.8614 3.59176 18.6009L3.5955 18.5886L3.59566 18.5887L6.25784 10.6121M4.31994 19.747C4.1914 19.6187 4.10021 19.4578 4.05617 19.2817C4.01212 19.1055 4.01689 18.9206 4.06994 18.747L6.73994 10.747M6.25784 10.6121C6.25552 10.6219 6.25329 10.6318 6.25117 10.6416L6.73994 10.747M6.25784 10.6121L6.26566 10.5887L6.73994 10.747M6.25784 10.6121C6.31786 10.3586 6.44292 10.1249 6.6209 9.93421C6.80578 9.73613 7.04086 9.59182 7.30117 9.51662L7.34296 9.50454L7.3862 9.49987C7.48983 9.48867 7.5943 9.48781 7.69806 9.49731M6.73994 10.747C6.778 10.5704 6.86318 10.4074 6.98643 10.2754C7.10968 10.1433 7.2664 10.0471 7.43994 9.99697C7.51638 9.98871 7.5935 9.98871 7.66994 9.99697M7.69806 9.49731C7.6894 9.49712 7.68073 9.49701 7.67205 9.49698L7.66994 9.99697M7.69806 9.49731C7.70661 9.49809 7.71514 9.49895 7.72368 9.49987L7.66994 9.99697M7.69806 9.49731C8.08215 9.50558 8.44882 9.66097 8.72204 9.93198L8.7235 9.93342L8.72349 9.93342L10.7235 11.9334L11.0791 12.289L10.7214 12.6426L9.85204 13.502L9.49994 13.147M7.66994 9.99697C7.93228 9.99808 8.18368 10.1022 8.36994 10.287L10.0164 11.9334L10.0184 11.9314L10.3699 12.287L10.0164 12.6405L10.0143 12.6385L9.49994 13.147M9.49994 13.147C9.40621 13.2399 9.33182 13.3505 9.28105 13.4724C9.23028 13.5943 9.20414 13.725 9.20414 13.857C9.20414 13.989 9.23028 14.1197 9.28105 14.2415C9.33182 14.3634 9.40621 14.474 9.49994 14.567C9.5929 14.6607 9.7035 14.7351 9.82536 14.7859C9.94722 14.8366 10.0779 14.8628 10.2099 14.8628C10.342 14.8628 10.4727 14.8366 10.5945 14.7859C10.7164 14.7351 10.827 14.6607 10.9199 14.567M9.49994 13.147L9.85144 13.5026L9.85159 13.5024C9.80494 13.5488 9.7679 13.6039 9.7426 13.6647C9.71721 13.7256 9.70414 13.791 9.70414 13.857C9.70414 13.923 9.71721 13.9883 9.7426 14.0493C9.76798 14.1102 9.80518 14.1655 9.85204 14.212L9.85494 14.2149C9.90142 14.2617 9.95673 14.2989 10.0177 14.3243C10.0786 14.3497 10.1439 14.3628 10.2099 14.3628C10.2759 14.3628 10.3413 14.3497 10.4022 14.3243C10.463 14.299 10.5182 14.2619 10.5647 14.2151L10.5643 14.2155L10.9199 14.567M14.2435 9.05052L14.4943 8.79975L14.3405 8.48018C14.1168 8.01538 14.0424 7.49278 14.1275 6.98404C14.2124 6.4759 14.4523 6.00642 14.8142 5.63982L17.2283 3.23571C17.7072 2.78335 18.341 2.53125 18.9999 2.53125C19.6574 2.53125 20.2899 2.78222 20.7684 3.23269C21.2143 3.69549 21.465 4.3124 21.4681 4.95535C21.4712 5.59994 21.2252 6.22076 20.7816 6.68824L18.3784 9.10142C18.378 9.10183 18.3776 9.10225 18.3771 9.10267C18.0105 9.46462 17.541 9.70448 17.0329 9.78943C16.5241 9.87447 16.0015 9.80006 15.5367 9.57642L15.2172 9.42265L14.9664 9.67342L12.8164 11.8234L12.4628 12.177L12.8164 12.5305L14.8164 14.5305L14.8164 14.5306L14.8206 14.5347C15.1285 14.8354 15.3536 15.2104 15.4741 15.6236C15.5946 16.0367 15.6064 16.474 15.5083 16.893C15.4102 17.3121 15.2057 17.6987 14.9144 18.0155C14.6231 18.3323 14.255 18.5686 13.8456 18.7014L13.8422 18.7025L5.84218 21.3625L5.84216 21.3625L5.83508 21.3649C5.56982 21.4576 5.29021 21.5023 5.00929 21.4971L5.00066 21.4969L4.99203 21.497C4.65087 21.5024 4.31221 21.4379 3.99692 21.3075C3.68162 21.1771 3.39636 20.9835 3.1587 20.7387L3.15873 20.7387L3.15408 20.734C2.82647 20.4053 2.59682 19.9919 2.49085 19.54C2.38488 19.0882 2.40677 18.6158 2.55408 18.1757L2.5544 18.1747L5.2144 10.1747L5.21441 10.1747L5.21553 10.1713C5.34835 9.76194 5.5846 9.3938 5.9014 9.10252C6.2182 8.81124 6.60483 8.60667 7.02387 8.50862C7.44291 8.41056 7.88017 8.42234 8.29332 8.54281C8.70648 8.66328 9.08154 8.88837 9.3822 9.19629L9.38217 9.19631L9.38639 9.20053L11.3864 11.2005L11.7399 11.5541L12.0935 11.2005L14.2435 9.05052ZM17.6399 8.47404L17.64 8.47406L17.6435 8.47052L19.907 6.20697H19.9158L20.062 6.06197C20.2026 5.92253 20.3142 5.75663 20.3904 5.57383C20.4665 5.39105 20.5057 5.19499 20.5057 4.99697C20.5057 4.79895 20.4665 4.6029 20.3904 4.42011C20.3145 4.23792 20.2034 4.07251 20.0634 3.93335C19.9243 3.79347 19.7589 3.68241 19.5768 3.60653C19.394 3.53038 19.198 3.49117 18.9999 3.49117C18.8019 3.49117 18.6059 3.53038 18.4231 3.60653C18.2404 3.68263 18.0746 3.79411 17.9353 3.93455C17.9351 3.93466 17.935 3.93477 17.9349 3.93487L15.5257 6.35415L15.5249 6.35487C15.2478 6.63426 15.0916 7.01136 15.0899 7.40487L15.0899 7.40904C15.0912 7.7039 15.1793 7.99187 15.3432 8.23695C15.5072 8.48202 15.7398 8.67333 16.0119 8.78697C16.2839 8.90061 16.5835 8.93153 16.8731 8.87587C17.1626 8.82022 17.4294 8.68045 17.6399 8.47404Z" fill="#111111" stroke="#111111"/>
</svg>
