<svg width="24" height="24" viewBox="0 0 24 24" fill="none" xmlns="http://www.w3.org/2000/svg">
<path d="M19.35 15.8294L19.1065 16.5H19.82H22C22.1326 16.5 22.2598 16.5527 22.3536 16.6464C22.4473 16.7402 22.5 16.8674 22.5 17C22.5 17.1326 22.4473 17.2598 22.3536 17.3536C22.2598 17.4473 22.1326 17.5 22 17.5H20.82H20.1066L20.35 18.1706C20.4871 18.5482 20.5311 18.9533 20.4784 19.3515C20.4257 19.7498 20.2778 20.1294 20.0472 20.4584C19.8167 20.7873 19.5102 21.0559 19.1539 21.2413C18.7975 21.4267 18.4017 21.5235 18 21.5235C17.5983 21.5235 17.2025 21.4267 16.8461 21.2413C16.4898 21.0559 16.1833 20.7873 15.9528 20.4584C15.7222 20.1294 15.5743 19.7498 15.5216 19.3515C15.4689 18.9533 15.5129 18.5482 15.65 18.1706L15.8934 17.5H15.18H11.82H11.1089L11.3495 18.1692C11.4867 18.5509 11.5291 18.9602 11.4728 19.3619C11.4165 19.7636 11.2634 20.1456 11.0265 20.4748C10.7897 20.8041 10.4763 21.0709 10.1134 21.252C9.75046 21.4331 9.34892 21.5232 8.9434 21.5145C8.53788 21.5058 8.14057 21.3986 7.78574 21.2021C7.43092 21.0056 7.12923 20.7257 6.90672 20.3866C6.68421 20.0474 6.54756 19.6593 6.50855 19.2555C6.46954 18.8518 6.52936 18.4446 6.68283 18.0692L6.89728 17.5445L6.34999 17.3972C5.8214 17.2549 5.35413 16.943 5.01993 16.5094C4.686 16.0762 4.50336 15.5455 4.5 14.9985V5C4.5 4.60218 4.34196 4.22064 4.06066 3.93934C3.77936 3.65804 3.39783 3.5 3 3.5H2C1.86739 3.5 1.74021 3.44732 1.64645 3.35355C1.55268 3.25979 1.5 3.13261 1.5 3C1.5 2.86739 1.55268 2.74021 1.64645 2.64645C1.74021 2.55268 1.86739 2.5 2 2.5H3C3.66304 2.5 4.29893 2.76339 4.76777 3.23223C5.23661 3.70107 5.5 4.33696 5.5 5V15C5.5 15.3978 5.65804 15.7794 5.93934 16.0607C6.22064 16.342 6.60218 16.5 7 16.5H8.18H8.89346L8.64998 15.8294C8.55318 15.5627 8.50246 15.2816 8.5 14.9979V10C8.5 9.33696 8.76339 8.70107 9.23223 8.23223C9.70107 7.76339 10.337 7.5 11 7.5H17C17.663 7.5 18.2989 7.76339 18.7678 8.23223C19.2366 8.70107 19.5 9.33696 19.5 10V14.9979C19.4975 15.2815 19.4468 15.5627 19.35 15.8294ZM8.16664 20.2472C8.41332 20.412 8.70333 20.5 9 20.5C9.39782 20.5 9.77936 20.342 10.0607 20.0607C10.342 19.7794 10.5 19.3978 10.5 19C10.5 18.7033 10.412 18.4133 10.2472 18.1666C10.0824 17.92 9.84811 17.7277 9.57403 17.6142C9.29994 17.5006 8.99834 17.4709 8.70736 17.5288C8.41639 17.5867 8.14912 17.7296 7.93934 17.9393C7.72956 18.1491 7.5867 18.4164 7.52882 18.7074C7.47094 18.9983 7.50065 19.2999 7.61418 19.574C7.72771 19.8481 7.91997 20.0824 8.16664 20.2472ZM9.93934 16.0607C10.2206 16.342 10.6022 16.5 11 16.5H17C17.3978 16.5 17.7794 16.342 18.0607 16.0607C18.342 15.7794 18.5 15.3978 18.5 15V10C18.5 9.60218 18.342 9.22064 18.0607 8.93934C17.7794 8.65804 17.3978 8.5 17 8.5H11C10.6022 8.5 10.2206 8.65804 9.93934 8.93934C9.65804 9.22064 9.5 9.60218 9.5 10V15C9.5 15.3978 9.65804 15.7794 9.93934 16.0607ZM17.1666 20.2472C17.4133 20.412 17.7033 20.5 18 20.5C18.3978 20.5 18.7794 20.342 19.0607 20.0607C19.342 19.7794 19.5 19.3978 19.5 19C19.5 18.7033 19.412 18.4133 19.2472 18.1666C19.0824 17.92 18.8481 17.7277 18.574 17.6142C18.2999 17.5006 17.9983 17.4709 17.7074 17.5288C17.4164 17.5867 17.1491 17.7296 16.9393 17.9393C16.7296 18.1491 16.5867 18.4164 16.5288 18.7074C16.4709 18.9983 16.5006 19.2999 16.6142 19.574C16.7277 19.8481 16.92 20.0824 17.1666 20.2472Z" fill="#111111" stroke="#111111"/>
</svg>
