<svg width="24" height="24" viewBox="0 0 24 24" fill="none" xmlns="http://www.w3.org/2000/svg">
<path d="M13.2246 17.1553C13.4159 17.2909 13.6511 17.3498 13.8838 17.3203C14.2977 17.3044 14.7062 17.2203 15.0928 17.0713L13.2246 17.1553ZM13.2246 17.1553C13.0499 16.9238 12.9649 16.637 12.9853 16.3477L13.2246 17.1553ZM16.9598 20.6675L16.96 20.6681C16.9847 20.7412 16.9921 20.8191 16.9817 20.8955C16.9712 20.972 16.9431 21.045 16.8996 21.1087L16.8994 21.109C16.665 21.4528 16.1113 21.8037 15.3449 22.073C14.6005 22.3346 13.7491 22.4863 13.0319 22.4981L13.031 22.4981C12.9816 22.499 12.9315 22.499 12.877 22.499H12.8679L12.8588 22.4994C12.0136 22.5302 11.1707 22.3934 10.3787 22.0967C9.58904 21.8009 8.86559 21.3522 8.24984 20.7762C7.15446 19.6825 6.53173 18.2027 6.51562 16.6547V12.1221V11.6221H6.01562H4.99121H4.99092C4.92529 11.6221 4.8603 11.6092 4.79965 11.5841C4.739 11.559 4.6839 11.5222 4.63749 11.4758C4.59108 11.4294 4.55427 11.3743 4.52917 11.3136C4.50407 11.253 4.49117 11.188 4.49121 11.1224V11.1221V7.53808V7.53801C4.4912 7.43522 4.52292 7.33492 4.58203 7.25083C4.64115 7.16674 4.72479 7.10294 4.82152 7.06816L4.82155 7.06823L4.82993 7.06505C5.85481 6.67565 6.74265 5.99363 7.38311 5.10378C8.02048 4.21821 8.38487 3.16565 8.43157 2.07578C8.44905 1.91999 8.52244 1.77567 8.63833 1.66972C8.75678 1.56145 8.91117 1.50098 9.07162 1.5L12 1.5L12.0003 1.5C12.0659 1.49996 12.1309 1.51286 12.1916 1.53796C12.2522 1.56306 12.3073 1.59987 12.3537 1.64628C12.4001 1.69269 12.4369 1.74779 12.462 1.80844C12.4871 1.86908 12.5 1.93407 12.5 1.99971V2V6.09473V6.59473H13H16.002H16.0023C16.0679 6.59469 16.1329 6.60759 16.1936 6.63269C16.2542 6.65779 16.3093 6.6946 16.3557 6.74101C16.4021 6.78742 16.4389 6.84252 16.464 6.90317C16.4891 6.96381 16.502 7.02881 16.502 7.09444V7.09473V11V11.0003C16.502 11.0659 16.4891 11.1309 16.464 11.1916C16.4389 11.2522 16.4021 11.3073 16.3557 11.3537C16.3093 11.4001 16.2542 11.4369 16.1936 11.462C16.1329 11.4871 16.0679 11.5 16.0023 11.5H16.002H12.9853H12.4853V12V16.3316C12.4614 16.7349 12.5819 17.1337 12.8255 17.4565L12.8722 17.5184L12.9355 17.5632C13.2225 17.7667 13.574 17.8575 13.9232 17.8191C14.3852 17.7992 14.841 17.7042 15.2726 17.5378L15.2906 17.5309L15.308 17.5226C15.3719 17.4921 15.4415 17.4755 15.5123 17.4739C15.5831 17.4724 15.6534 17.4858 15.7186 17.5133C15.7838 17.5409 15.8424 17.582 15.8905 17.6339C15.9387 17.6857 15.9753 17.7472 15.998 17.8143L16.9598 20.6675ZM17.4336 20.5078L16.4717 17.6543L17.3126 21.3906C17.3997 21.2629 17.456 21.1166 17.477 20.9635C17.498 20.8103 17.4832 20.6543 17.4336 20.5078ZM8.95222 20.0646L8.95813 20.0705L8.96423 20.0761C9.50915 20.5828 10.1534 20.9707 10.8561 21.2152C11.5546 21.4582 12.2958 21.5543 13.0331 21.4975C13.8914 21.4736 14.7362 21.2774 15.5174 20.9206L15.9276 20.7332L15.7834 20.3059L15.3586 19.0472L15.2176 18.6295L14.7856 18.717C14.4998 18.7749 14.2098 18.8095 13.9185 18.8207L13.9078 18.8211L13.8972 18.8219C13.5858 18.8472 13.2725 18.8077 12.977 18.7061C12.6864 18.6062 12.4192 18.4482 12.1916 18.2419C11.9582 17.996 11.7756 17.7064 11.6542 17.3898C11.531 17.0682 11.4735 16.7252 11.4851 16.3811L11.4854 16.3727V16.3643V11V10.9997C11.4854 10.9341 11.4983 10.8691 11.5234 10.8084C11.5485 10.7478 11.5853 10.6927 11.6317 10.6463C11.6781 10.5999 11.7332 10.5631 11.7938 10.538C11.8545 10.5129 11.9195 10.5 11.9851 10.5H11.9854H15.002H15.502V10V8.09473V7.59473H15.002H12H11.9997C11.9341 7.59477 11.8691 7.58187 11.8084 7.55677C11.7478 7.53167 11.6927 7.49486 11.6463 7.44845C11.5999 7.40204 11.5631 7.34694 11.538 7.28629C11.5129 7.22565 11.5 7.16065 11.5 7.09502V7.09473V3V2.5H11H9.80957H9.37958L9.31521 2.92515C9.159 3.95686 8.75498 4.93532 8.13778 5.77668C7.52057 6.61803 6.70857 7.29721 5.77137 7.75599L5.49121 7.89314V8.20507V10.1221V10.6221H5.99121H7.01562H7.01591C7.08155 10.622 7.14654 10.6349 7.20719 10.66C7.26783 10.6851 7.32293 10.7219 7.36935 10.7683C7.41575 10.8148 7.45256 10.8699 7.47766 10.9305C7.50276 10.9911 7.51566 11.0561 7.51562 11.1218V11.1221V16.6572H7.51559L7.51565 16.6626C7.52927 17.9412 8.04527 19.1632 8.95222 20.0646Z" fill="#111111" stroke="#111111"/>
</svg>
