<svg width="24" height="24" viewBox="0 0 24 24" fill="none" xmlns="http://www.w3.org/2000/svg">
<path d="M14.8285 14.0307L14.836 14.0281L14.8433 14.0252C14.9055 14.0007 14.972 13.9889 15.0388 13.9905C15.1056 13.9922 15.1715 14.0072 15.2324 14.0347C15.2933 14.0622 15.3481 14.1017 15.3935 14.1507C15.4389 14.1998 15.4741 14.2574 15.4968 14.3203C15.5195 14.3832 15.5294 14.45 15.5259 14.5167C15.5224 14.5835 15.5055 14.6489 15.4763 14.709C15.4471 14.7691 15.4061 14.8228 15.3557 14.8668C15.3054 14.9108 15.2468 14.9442 15.1833 14.9652L15.1833 14.965L15.1718 14.9691L10.9718 16.4691L10.9694 16.47C10.9159 16.4894 10.8594 16.4996 10.8024 16.5C10.6864 16.498 10.5747 16.4557 10.4864 16.3803C10.3973 16.3043 10.3377 16.1994 10.3181 16.0839C10.2985 15.9684 10.32 15.8497 10.3789 15.7485C10.4377 15.6475 10.53 15.5703 10.6397 15.5303C10.64 15.5302 10.6402 15.5301 10.6405 15.53L14.8285 14.0307ZM6.74523 9.52977L6.75491 9.52148L6.76416 9.51271C7.24354 9.05785 7.87917 8.80428 8.54 8.80428C9.19809 8.80428 9.83119 9.05575 10.3099 9.50704C10.4002 9.60026 10.4508 9.72503 10.4508 9.855C10.4508 9.9866 10.3989 10.1129 10.3064 10.2064C10.2129 10.2989 10.0866 10.3508 9.955 10.3508C9.82337 10.3508 9.69706 10.2989 9.60348 10.2064C9.46435 10.0665 9.29899 9.95544 9.11687 9.87956C8.93408 9.80341 8.73802 9.7642 8.54 9.7642C8.34199 9.7642 8.14593 9.80341 7.96314 9.87956C7.78035 9.95572 7.61445 10.0673 7.47501 10.2079L7.46213 10.2209L7.45023 10.2348C7.40541 10.2871 7.35025 10.3296 7.28822 10.3596C7.22619 10.3896 7.15862 10.4065 7.08976 10.4092C7.0209 10.4118 6.95223 10.4002 6.88807 10.3751C6.82391 10.35 6.76563 10.3118 6.71691 10.2631C6.66818 10.2144 6.63005 10.1561 6.60491 10.0919C6.57978 10.0278 6.56817 9.9591 6.57083 9.89025C6.57349 9.82138 6.59036 9.75382 6.62037 9.69179C6.65038 9.62975 6.69289 9.5746 6.74523 9.52977ZM15.54 8.80428C16.1881 8.80428 16.812 9.04819 17.288 9.4867L17.2807 9.49727C17.3297 9.54249 17.3691 9.59704 17.3967 9.65771C17.4242 9.71838 17.4394 9.78395 17.4412 9.85056C17.4431 9.91717 17.4316 9.98349 17.4075 10.0456C17.384 10.1062 17.3488 10.1616 17.3041 10.2088C17.2107 10.2998 17.0855 10.3508 16.955 10.3508C16.8233 10.3508 16.697 10.2989 16.6034 10.2063C16.4643 10.0665 16.299 9.95543 16.1169 9.87956C15.9341 9.80341 15.738 9.7642 15.54 9.7642C15.342 9.7642 15.1459 9.80341 14.9631 9.87956C14.7883 9.95241 14.6289 10.0577 14.4933 10.1897C14.3994 10.2654 14.2811 10.3048 14.1602 10.3001C14.0344 10.2952 13.915 10.2431 13.826 10.154C13.7369 10.065 13.6848 9.94559 13.6799 9.81976C13.6754 9.70146 13.7129 9.58563 13.7855 9.49271C14.2623 9.05042 14.8889 8.80428 15.54 8.80428ZM6.72209 4.10104C8.28435 3.05717 10.1211 2.5 12 2.5C13.2476 2.5 14.4829 2.74572 15.6355 3.22314C16.7881 3.70056 17.8354 4.40033 18.7175 5.28249C19.5997 6.16464 20.2994 7.21191 20.7769 8.36451C21.2543 9.5171 21.5 10.7524 21.5 12C21.5 13.8789 20.9428 15.7157 19.899 17.2779C18.8551 18.8402 17.3714 20.0578 15.6355 20.7769C13.8996 21.4959 11.9895 21.684 10.1466 21.3175C8.30383 20.9509 6.61109 20.0461 5.28249 18.7175C3.95389 17.3889 3.0491 15.6962 2.68254 13.8534C2.31598 12.0105 2.50412 10.1004 3.22315 8.36451C3.94218 6.62861 5.15982 5.14491 6.72209 4.10104ZM7.27766 19.0675C8.67548 20.0015 10.3189 20.5 12 20.5C14.2543 20.5 16.4164 19.6045 18.0104 18.0104C19.6045 16.4163 20.5 14.2543 20.5 12C20.5 10.3189 20.0015 8.67547 19.0675 7.27765C18.1335 5.87984 16.806 4.79037 15.2528 4.14702C13.6996 3.50368 11.9906 3.33535 10.3417 3.66333C8.6929 3.9913 7.17834 4.80085 5.9896 5.98959C4.80085 7.17834 3.9913 8.69289 3.66333 10.3417C3.33536 11.9906 3.50368 13.6996 4.14703 15.2528C4.79037 16.806 5.87984 18.1335 7.27766 19.0675Z" fill="#111111" stroke="#111111"/>
</svg>
