<svg width="24" height="24" viewBox="0 0 24 24" fill="none" xmlns="http://www.w3.org/2000/svg">
<path d="M21.0001 9.49951H21H20H19.5V9.99951V17.1838V17.5378L19.8339 17.6554C20.3198 17.8265 20.7408 18.1439 21.0391 18.5639C21.3373 18.9837 21.4983 19.4855 21.5 20.0005C21.5 20.0006 21.5 20.0008 21.5 20.001L21.5 21.9995V21.9996C21.5 22.0653 21.4871 22.1303 21.462 22.191C21.4369 22.2516 21.4 22.3067 21.3536 22.3531C21.3072 22.3996 21.2521 22.4364 21.1914 22.4615C21.1308 22.4866 21.0658 22.4995 21.0001 22.4995H21H3H2.99987C2.93422 22.4995 2.86921 22.4866 2.80856 22.4615C2.7479 22.4364 2.69279 22.3996 2.64637 22.3531C2.59995 22.3067 2.56313 22.2516 2.53802 22.191C2.5129 22.1303 2.49998 22.0653 2.5 21.9996V21.9995V20.0003C2.50173 19.4854 2.66273 18.9837 2.9609 18.5639C3.25922 18.1439 3.68022 17.8265 4.16612 17.6554L4.5 17.5378V17.1838V9.99951V9.49951H4H3H2.99987C2.93422 9.49953 2.86921 9.48661 2.80856 9.46149C2.7479 9.43638 2.69279 9.39956 2.64637 9.35314C2.59995 9.30672 2.56313 9.25161 2.53802 9.19095C2.5129 9.1303 2.49998 9.06529 2.5 8.99964V8.99951L2.5 5.99951L2.5 5.9993C2.49996 5.89451 2.53292 5.79236 2.5942 5.70735C2.65548 5.62234 2.74198 5.55879 2.84142 5.52571L2.8417 5.52561L11.8415 2.52569C11.9444 2.49144 12.0556 2.49144 12.1585 2.52569L21.1583 5.52561L21.1586 5.52571C21.258 5.55879 21.3445 5.62234 21.4058 5.70735C21.4671 5.79236 21.5 5.89451 21.5 5.9993V5.99951V8.99951V8.99964C21.5 9.06529 21.4871 9.13029 21.462 9.19095C21.4369 9.25161 21.4 9.30672 21.3536 9.35314C21.3072 9.39956 21.2521 9.43638 21.1914 9.46149C21.1308 9.48661 21.0658 9.49953 21.0001 9.49951ZM20 21.4995H20.5V20.9995V19.9995V19.999C20.4996 19.6014 20.3415 19.2203 20.0604 18.9391C19.7792 18.658 19.3981 18.4999 19.0005 18.4995H19H5H4.9995C4.60193 18.4999 4.22076 18.658 3.93963 18.9391C3.65851 19.2203 3.5004 19.6014 3.5 19.999V19.9995V20.9995V21.4995H4H20ZM5.5 16.9995V17.4995H6H8H8.5V16.9995V9.99951V9.49951H8H6H5.5V9.99951V16.9995ZM9.5 16.9995V17.4995H10H14H14.5V16.9995V9.99951V9.49951H14H10H9.5V9.99951V16.9995ZM15.5 16.9995V17.4995H16H18H18.5V16.9995V9.99951V9.49951H18H16H15.5V9.99951V16.9995ZM3.5 7.99951V8.49951H4H20H20.5V7.99951V6.72021V6.35984L20.1581 6.24587L12.1581 3.57887L12 3.52616L11.8419 3.57887L3.84187 6.24587L3.5 6.35984V6.72021V7.99951Z" fill="#111111" stroke="#111111"/>
</svg>
