<svg width="24" height="24" viewBox="0 0 24 24" fill="none" xmlns="http://www.w3.org/2000/svg">
<path d="M12.5 7V7.5H13H15C15.1326 7.5 15.2598 7.55268 15.3536 7.64645C15.4473 7.74022 15.5 7.86739 15.5 8C15.5 8.13261 15.4473 8.25978 15.3536 8.35355C15.2598 8.44732 15.1326 8.5 15 8.5H11C10.6022 8.5 10.2206 8.65804 9.93934 8.93934C9.65804 9.22064 9.5 9.60217 9.5 10C9.5 10.3978 9.65804 10.7794 9.93934 11.0607C10.2206 11.342 10.6022 11.5 11 11.5H13C13.663 11.5 14.2989 11.7634 14.7678 12.2322C15.2366 12.7011 15.5 13.337 15.5 14C15.5 14.663 15.2366 15.2989 14.7678 15.7678C14.2989 16.2366 13.663 16.5 13 16.5H12.5V17V18C12.5 18.1326 12.4473 18.2598 12.3536 18.3536C12.2598 18.4473 12.1326 18.5 12 18.5C11.8674 18.5 11.7402 18.4473 11.6465 18.3536C11.5527 18.2598 11.5 18.1326 11.5 18V17V16.5H11H9C8.8674 16.5 8.74022 16.4473 8.64645 16.3536C8.55268 16.2598 8.5 16.1326 8.5 16C8.5 15.8674 8.55268 15.7402 8.64645 15.6464C8.74022 15.5527 8.8674 15.5 9 15.5H13C13.3978 15.5 13.7794 15.342 14.0607 15.0607C14.342 14.7794 14.5 14.3978 14.5 14C14.5 13.6022 14.342 13.2206 14.0607 12.9393C13.7794 12.658 13.3978 12.5 13 12.5H11C10.337 12.5 9.70108 12.2366 9.23224 11.7678C8.7634 11.2989 8.5 10.663 8.5 10C8.5 9.33696 8.7634 8.70107 9.23224 8.23223C9.70108 7.76339 10.337 7.5 11 7.5H11.5V7V6C11.5 5.86739 11.5527 5.74022 11.6465 5.64645C11.7402 5.55268 11.8674 5.5 12 5.5C12.1326 5.5 12.2598 5.55268 12.3536 5.64645C12.4473 5.74022 12.5 5.86739 12.5 6V7ZM6.16652 3.26957C7.89323 2.11581 9.9233 1.5 12 1.5C14.7848 1.5 17.4555 2.60625 19.4246 4.57538C21.3938 6.54451 22.5 9.21523 22.5 12C22.5 14.0767 21.8842 16.1068 20.7304 17.8335C19.5767 19.5602 17.9368 20.906 16.0182 21.7007C14.0996 22.4955 11.9884 22.7034 9.95156 22.2982C7.91476 21.8931 6.04384 20.8931 4.57538 19.4246C3.10693 17.9562 2.1069 16.0852 1.70176 14.0484C1.29661 12.0116 1.50455 9.90045 2.29927 7.98182C3.09399 6.0632 4.4398 4.42332 6.16652 3.26957ZM6.72209 19.899C8.28435 20.9428 10.1211 21.5 12 21.5C14.5196 21.5 16.9359 20.4991 18.7175 18.7175C20.4991 16.9359 21.5 14.5196 21.5 12C21.5 10.1211 20.9428 8.28435 19.899 6.72208C18.8551 5.15982 17.3714 3.94218 15.6355 3.22314C13.8996 2.50411 11.9895 2.31598 10.1466 2.68254C8.30383 3.0491 6.61109 3.95389 5.28249 5.28249C3.95389 6.61108 3.0491 8.30382 2.68254 10.1466C2.31599 11.9895 2.50412 13.8996 3.22315 15.6355C3.94218 17.3714 5.15982 18.8551 6.72209 19.899Z" fill="#111111" stroke="#111111"/>
</svg>
