<svg width="24" height="24" viewBox="0 0 24 24" fill="none" xmlns="http://www.w3.org/2000/svg">
<path d="M12.5 7V7.5H13H15C15.1326 7.5 15.2598 7.55268 15.3536 7.64645C15.4473 7.74022 15.5 7.86739 15.5 8C15.5 8.13261 15.4473 8.25978 15.3536 8.35355C15.2598 8.44732 15.1326 8.5 15 8.5H11C10.6022 8.5 10.2206 8.65804 9.93934 8.93934C9.65804 9.22064 9.5 9.60218 9.5 10C9.5 10.3978 9.65804 10.7794 9.93934 11.0607C10.2206 11.342 10.6022 11.5 11 11.5H13C13.663 11.5 14.2989 11.7634 14.7678 12.2322C15.2366 12.7011 15.5 13.337 15.5 14C15.5 14.663 15.2366 15.2989 14.7678 15.7678C14.2989 16.2366 13.663 16.5 13 16.5H12.5V17V18C12.5 18.1326 12.4473 18.2598 12.3536 18.3536C12.2598 18.4473 12.1326 18.5 12 18.5C11.8674 18.5 11.7402 18.4473 11.6464 18.3536C11.5527 18.2598 11.5 18.1326 11.5 18V17V16.5H11H9C8.86739 16.5 8.74021 16.4473 8.64645 16.3536C8.55268 16.2598 8.5 16.1326 8.5 16C8.5 15.8674 8.55268 15.7402 8.64645 15.6464C8.74022 15.5527 8.86739 15.5 9 15.5H13C13.3978 15.5 13.7794 15.342 14.0607 15.0607C14.342 14.7794 14.5 14.3978 14.5 14C14.5 13.6022 14.342 13.2206 14.0607 12.9393C13.7794 12.658 13.3978 12.5 13 12.5H11C10.337 12.5 9.70107 12.2366 9.23223 11.7678C8.76339 11.2989 8.5 10.663 8.5 10C8.5 9.33696 8.76339 8.70107 9.23223 8.23223C9.70107 7.76339 10.337 7.5 11 7.5H11.5V7V6C11.5 5.86739 11.5527 5.74022 11.6464 5.64645C11.7402 5.55268 11.8674 5.5 12 5.5C12.1326 5.5 12.2598 5.55268 12.3536 5.64645C12.4473 5.74022 12.5 5.86739 12.5 6V7ZM5 2.5H19C19.663 2.5 20.2989 2.76339 20.7678 3.23223C21.2366 3.70107 21.5 4.33696 21.5 5V19C21.5 19.663 21.2366 20.2989 20.7678 20.7678C20.2989 21.2366 19.663 21.5 19 21.5H5C4.33696 21.5 3.70107 21.2366 3.23223 20.7678C2.76339 20.2989 2.5 19.663 2.5 19V5C2.5 4.33696 2.76339 3.70107 3.23223 3.23223C3.70107 2.76339 4.33696 2.5 5 2.5ZM20.0607 20.0607C20.342 19.7794 20.5 19.3978 20.5 19V5C20.5 4.60218 20.342 4.22065 20.0607 3.93934C19.7794 3.65804 19.3978 3.5 19 3.5H5C4.60217 3.5 4.22064 3.65804 3.93934 3.93934C3.65804 4.22064 3.5 4.60217 3.5 5V19C3.5 19.3978 3.65804 19.7794 3.93934 20.0607C4.22065 20.342 4.60218 20.5 5 20.5H19C19.3978 20.5 19.7794 20.342 20.0607 20.0607Z" fill="#111111" stroke="#111111"/>
</svg>
