<svg width="24" height="24" viewBox="0 0 24 24" fill="none" xmlns="http://www.w3.org/2000/svg">
<path d="M14.4441 11.9393L13.9946 12.422L14.5808 12.7244C15.3771 13.1352 16.0597 13.7364 16.5677 14.4745C17.0756 15.2123 17.3934 16.0641 17.4929 16.9542C17.5067 17.0851 17.4684 17.2161 17.3861 17.3189C17.3087 17.4157 17.1982 17.4801 17.0764 17.5H17H16.9835L16.9671 17.5011C16.8384 17.5096 16.7114 17.468 16.6127 17.3851C16.5139 17.3022 16.451 17.1843 16.4371 17.0561L16.4371 17.0561L16.4362 17.0489C16.302 15.9589 15.7738 14.9557 14.9512 14.2281C14.1285 13.5006 13.0682 13.099 11.97 13.099C10.8718 13.099 9.81149 13.5006 8.98885 14.2281C8.1662 14.9557 7.638 15.9589 7.50375 17.0489L7.50371 17.0489L7.503 17.0553C7.48832 17.1887 7.42126 17.3108 7.31655 17.3948C7.21184 17.4788 7.07807 17.5177 6.94467 17.503C6.81127 17.4883 6.68916 17.4213 6.6052 17.3166C6.52168 17.2124 6.48273 17.0795 6.49678 16.9467C6.60448 16.0525 6.93256 15.1989 7.45157 14.4627C7.97112 13.7258 8.66572 13.1295 9.47287 12.7276L10.0721 12.4292L9.61592 11.9393C9.06843 11.3513 8.75972 10.5804 8.75 9.77718C8.75075 8.90829 9.09623 8.07515 9.71069 7.46069C10.3258 6.84557 11.1601 6.5 12.03 6.5C12.8999 6.5 13.7342 6.84557 14.3493 7.46069C14.9638 8.07515 15.3093 8.90829 15.31 9.77718C15.3003 10.5804 14.9916 11.3513 14.4441 11.9393ZM10.7333 11.6758C11.1082 11.9263 11.5491 12.06 12 12.06C12.6047 12.06 13.1846 11.8198 13.6122 11.3922C14.0398 10.9646 14.28 10.3847 14.28 9.78C14.28 9.32906 14.1463 8.88824 13.8958 8.5133C13.6452 8.13836 13.2891 7.84612 12.8725 7.67355C12.4559 7.50099 11.9975 7.45584 11.5552 7.54381C11.1129 7.63178 10.7067 7.84893 10.3878 8.1678C10.0689 8.48666 9.85178 8.89292 9.76381 9.33519C9.67583 9.77747 9.72099 10.2359 9.89355 10.6525C10.0661 11.0691 10.3584 11.4252 10.7333 11.6758ZM5 2.5H19C19.663 2.5 20.2989 2.76339 20.7678 3.23223C21.2366 3.70107 21.5 4.33696 21.5 5V19C21.5 19.663 21.2366 20.2989 20.7678 20.7678C20.2989 21.2366 19.663 21.5 19 21.5H5C4.33696 21.5 3.70107 21.2366 3.23223 20.7678C2.76339 20.2989 2.5 19.663 2.5 19V5C2.5 4.33696 2.76339 3.70107 3.23223 3.23223C3.70107 2.76339 4.33696 2.5 5 2.5ZM20.0607 20.0607C20.342 19.7794 20.5 19.3978 20.5 19V5C20.5 4.60218 20.342 4.22065 20.0607 3.93934C19.7794 3.65804 19.3978 3.5 19 3.5H5C4.60217 3.5 4.22064 3.65804 3.93934 3.93934C3.65804 4.22064 3.5 4.60217 3.5 5V19C3.5 19.3978 3.65804 19.7794 3.93934 20.0607C4.22065 20.342 4.60218 20.5 5 20.5H19C19.3978 20.5 19.7794 20.342 20.0607 20.0607Z" fill="#111111" stroke="#111111"/>
</svg>
