<svg width="24" height="24" viewBox="0 0 24 24" fill="none" xmlns="http://www.w3.org/2000/svg">
<path d="M2 19.5L2.5 19.5005C2.50138 18.0598 2.91765 16.6501 3.69904 15.4397C4.48044 14.2294 5.59388 13.2697 6.90625 12.6755L7.61789 12.3532L7.02724 11.842C6.54788 11.427 6.1634 10.9138 5.89989 10.3372C5.63637 9.76057 5.49999 9.134 5.5 8.50001C5.5 7.30653 5.97411 6.16193 6.81802 5.31802C7.66193 4.47411 8.80653 4 10 4C11.1935 4 12.3381 4.47411 13.182 5.31802C14.0259 6.16193 14.5 7.30653 14.5 8.5C14.5 9.134 14.3636 9.76057 14.1001 10.3372C13.8366 10.9138 13.4521 11.427 12.9728 11.842L12.3821 12.3532L13.0938 12.6755C14.4061 13.2697 15.5196 14.2294 16.301 15.4397C17.0823 16.6501 17.4986 18.0598 17.5 19.5005L18 19.5M2 19.5H2.5C2.5 19.6326 2.55268 19.7598 2.64645 19.8536C2.74021 19.9473 2.86739 20 3 20C3.13261 20 3.25979 19.9473 3.35355 19.8536C3.44732 19.7598 3.5 19.6326 3.5 19.5C3.5 17.7761 4.18482 16.1228 5.40381 14.9038C6.62279 13.6848 8.27609 13 10 13C11.7239 13 13.3772 13.6848 14.5962 14.9038C15.8152 16.1228 16.5 17.7761 16.5 19.5C16.5 19.6326 16.5527 19.7598 16.6464 19.8536C16.7402 19.9473 16.8674 20 17 20C17.1326 20 17.2598 19.9473 17.3536 19.8536C17.4473 19.7598 17.5 19.6326 17.5 19.5H18M2 19.5C2 19.7652 2.10536 20.0196 2.29289 20.2071C2.48043 20.3946 2.73478 20.5 3 20.5C3.26522 20.5 3.51957 20.3946 3.70711 20.2071C3.89464 20.0196 4 19.7652 4 19.5C4 17.9087 4.63214 16.3826 5.75736 15.2574C6.88258 14.1321 8.4087 13.5 10 13.5C11.5913 13.5 13.1174 14.1321 14.2426 15.2574C15.3679 16.3826 16 17.9087 16 19.5C16 19.7652 16.1054 20.0196 16.2929 20.2071C16.4804 20.3946 16.7348 20.5 17 20.5C17.2652 20.5 17.5196 20.3946 17.7071 20.2071C17.8946 20.0196 18 19.7652 18 19.5M2 19.5C2.00147 17.9633 2.4455 16.4596 3.27898 15.1685C4.01493 14.0286 5.02703 13.0971 6.21752 12.4583C6.26832 12.5059 6.32007 12.5524 6.37276 12.598L6.7 12.22L6.49375 11.7645C6.43374 11.7917 6.37409 11.8195 6.31483 11.8481C5.95797 11.4638 5.66405 11.0241 5.44513 10.545C5.1518 9.90316 4.99999 9.20571 5 8.5C5 7.17392 5.52678 5.90215 6.46447 4.96447C7.40215 4.02678 8.67392 3.5 10 3.5C11.3261 3.5 12.5979 4.02678 13.5355 4.96447C14.4732 5.90215 15 7.17392 15 8.5C15 9.20571 14.8482 9.90316 14.5549 10.545C14.336 11.0241 14.042 11.4638 13.6852 11.8481L13.7825 12.4583M18 19.5C17.9985 17.9633 17.5545 16.4596 16.721 15.1685C15.9851 14.0286 14.973 13.0971 13.7825 12.4583M13.7825 12.4583C13.7317 12.5059 13.6799 12.5524 13.6272 12.598L13.3 12.22L13.7825 12.4583ZM21.355 9.4821L21.3559 9.48301C21.4038 9.53106 21.4414 9.58836 21.4665 9.65142C21.4915 9.71448 21.5035 9.78198 21.5016 9.8498C21.4997 9.91763 21.4841 9.98437 21.4556 10.0459C21.4271 10.1075 21.3864 10.1627 21.3359 10.208L21.3259 10.217L21.3164 10.2264L18.6475 12.8954C18.6473 12.8956 18.6471 12.8958 18.6469 12.896C18.5533 12.9888 18.4268 13.0408 18.295 13.0408C18.1632 13.0408 18.0366 12.9887 17.943 12.8959C17.9428 12.8957 17.9427 12.8956 17.9425 12.8954L16.6046 11.5575C16.6044 11.5573 16.6043 11.5572 16.6041 11.557C16.5113 11.4634 16.4592 11.3369 16.4592 11.205C16.4592 11.0729 16.5115 10.9462 16.6046 10.8525L16.605 10.8521C16.6515 10.8052 16.7068 10.768 16.7677 10.7427C16.8286 10.7173 16.894 10.7042 16.96 10.7042C17.026 10.7042 17.0914 10.7173 17.1523 10.7427C17.213 10.7679 17.2681 10.8049 17.3144 10.8515C17.3146 10.8517 17.3148 10.8519 17.315 10.8521L17.9336 11.4807L18.2872 11.8399L18.6436 11.4836L20.6436 9.48356L20.645 9.4821C20.6915 9.43524 20.7468 9.39804 20.8077 9.37265C20.8686 9.34727 20.934 9.3342 21 9.3342C21.066 9.3342 21.1314 9.34727 21.1923 9.37265C21.2532 9.39804 21.3085 9.43524 21.355 9.4821ZM8.0555 11.4101C8.63108 11.7947 9.30777 12 10 12C10.9283 12 11.8185 11.6313 12.4749 10.9749C13.1313 10.3185 13.5 9.42826 13.5 8.5C13.5 7.80777 13.2947 7.13108 12.9101 6.5555C12.5256 5.97993 11.9789 5.53133 11.3394 5.26642C10.6999 5.00152 9.99612 4.9322 9.31718 5.06725C8.63825 5.2023 8.01461 5.53564 7.52513 6.02513C7.03564 6.51461 6.7023 7.13825 6.56725 7.81718C6.4322 8.49612 6.50152 9.19985 6.76642 9.83939C7.03133 10.4789 7.47993 11.0256 8.0555 11.4101Z" fill="#111111" stroke="#111111"/>
</svg>
