<svg width="24" height="24" viewBox="0 0 24 24" fill="none" xmlns="http://www.w3.org/2000/svg">
<path d="M6.5 4V3.5H6H3C2.86739 3.5 2.74021 3.44732 2.64645 3.35355C2.55268 3.25979 2.5 3.13261 2.5 3C2.5 2.86739 2.55268 2.74021 2.64645 2.64645C2.74021 2.55268 2.86739 2.5 3 2.5H21C21.1326 2.5 21.2598 2.55268 21.3536 2.64645C21.4473 2.74021 21.5 2.86739 21.5 3C21.5 3.13261 21.4473 3.25979 21.3536 3.35355C21.2598 3.44732 21.1326 3.5 21 3.5H18H17.5V4V15C17.5 15.1326 17.4473 15.2598 17.3536 15.3536C17.2598 15.4473 17.1326 15.5 17 15.5H14H13.5V16V21C13.5 21.1326 13.4473 21.2598 13.3536 21.3536C13.2598 21.4473 13.1326 21.5 13 21.5H7C6.86739 21.5 6.74021 21.4473 6.64645 21.3536C6.55268 21.2598 6.5 21.1326 6.5 21V4ZM12 20.5H12.5V20V4V3.5H12H8H7.5V4V20V20.5H8H12ZM16 14.5H16.5V14V4V3.5H16H14H13.5V4V14V14.5H14H16Z" fill="#111111" stroke="#111111"/>
</svg>
