<svg width="24" height="24" viewBox="0 0 24 24" fill="none" xmlns="http://www.w3.org/2000/svg">
<path d="M8.7804 10.1628L9.12952 10.4378L9.44359 10.1233L16.973 2.58422L21.4998 4.34221V19.5926L16.9899 21.4124L9.48381 13.8869L9.17108 13.5734L8.82206 13.8459L4.14249 17.5004L2.5498 16.6929V7.30645L4.13169 6.50072L8.7804 10.1628ZM3.8698 14.3V15.4309L4.70629 14.6698L7.14629 12.4498L7.53479 12.0964L7.16263 11.7257L4.72263 9.29572L3.8698 8.44639V9.65V14.3ZM16.3943 15.9858L17.1998 16.6077V15.59V8.41V7.3923L16.3943 8.01423L11.7443 11.6042L11.2316 12L11.7443 12.3958L16.3943 15.9858Z" fill="#111111" stroke="#111111"/>
</svg>
