<svg width="24" height="24" viewBox="0 0 24 24" fill="none" xmlns="http://www.w3.org/2000/svg">
<path d="M12.6543 11.1104V8.002M12.6543 11.1104L10.6499 8.92865C10.4305 8.84747 10.2467 8.6916 10.1308 8.4884C10.0149 8.2852 9.97422 8.04766 10.016 7.81748C10.0578 7.5873 10.1793 7.3792 10.3593 7.2297C10.5392 7.08021 10.7661 6.99888 11 7H11.0029M12.6543 11.1104C12.5788 11.1543 12.5022 11.1963 12.4245 11.2365L12.6543 11.6806H13.1543V11.3897C13.7045 11.0322 14.192 10.584 14.5953 10.0629C15.117 9.38894 15.4854 8.60929 15.6748 7.77832C15.7032 7.64958 15.7568 7.52774 15.8325 7.4198C15.9082 7.31186 16.0045 7.21995 16.1159 7.14937C16.2273 7.07879 16.3515 7.03092 16.4814 7.00852C16.6113 6.98613 16.7444 6.98965 16.8729 7.01887C17.0015 7.0481 17.123 7.10246 17.2305 7.17883C17.338 7.25519 17.4293 7.35205 17.4992 7.46384C17.5691 7.57563 17.6162 7.70014 17.6378 7.8302C17.6594 7.96026 17.655 8.0933 17.625 8.22168L12.6543 11.1104ZM12.6543 8.002C12.6481 7.92841 12.6335 7.85579 12.6106 7.78557C12.604 7.72775 12.5924 7.6706 12.5761 7.61474M12.6543 8.002H12.1543V8.02678M12.6543 8.002L12.1561 8.04383C12.1556 8.03813 12.155 8.03245 12.1543 8.02678M12.5761 7.61474C12.5334 7.52379 12.4772 7.43987 12.4093 7.36583C12.4012 7.35618 12.3949 7.34514 12.3886 7.33412C12.3811 7.32087 12.3735 7.30766 12.3629 7.29693M12.5761 7.61474L12.0962 7.75504C12.0999 7.76756 12.103 7.7802 12.1058 7.79295M12.5761 7.61474L12.1234 7.8271C12.118 7.81548 12.1121 7.80408 12.1058 7.79295M12.3629 7.29693C12.2896 7.2293 12.2067 7.17299 12.1168 7.12987C12.1053 7.12375 12.0951 7.11572 12.085 7.10771C12.0726 7.09791 12.0602 7.08813 12.0455 7.08187M12.3629 7.29693L12.0083 7.64949C11.9851 7.62616 11.9699 7.60527 11.9618 7.59333C11.9577 7.58726 11.9549 7.58262 11.9535 7.58039C11.9527 7.57908 11.9522 7.5782 11.9522 7.5782C11.9522 7.5782 11.9524 7.5785 11.9528 7.5792L11.955 7.58306L11.9589 7.58986C11.9619 7.59515 11.9665 7.60305 11.9722 7.61213C11.9757 7.61783 11.9799 7.62452 11.9849 7.63199M12.3629 7.29693L12.0237 7.66431C12.0113 7.65288 11.9984 7.64209 11.9849 7.63199M12.0455 7.08187C11.9689 7.05635 11.8895 7.04001 11.809 7.03322C11.7594 7.01869 11.7086 7.00826 11.6572 7.00203M12.0455 7.08187L11.85 7.5421C11.8206 7.52959 11.799 7.51631 11.7867 7.5081C11.7805 7.50398 11.7761 7.5007 11.7739 7.49905C11.7718 7.49751 11.7708 7.49674 11.7725 7.49802L11.7759 7.50071L11.782 7.50552C11.7868 7.50927 11.794 7.51489 11.8027 7.52122C11.8102 7.52674 11.8196 7.53348 11.8308 7.54087M12.0455 7.08187L11.8874 7.55624C11.8688 7.55005 11.85 7.54492 11.8308 7.54087M11.6572 7.00203L11.0029 7M11.6572 7.00203L11.5971 7.4984C11.605 7.49936 11.6129 7.50053 11.6208 7.50192M11.6572 7.00203L11.6557 7.50203L11.6208 7.50192M11.0029 7V7.5M11.0029 7L11.0014 7.5L11.0021 7.5H11H10.9976C10.8812 7.49944 10.7683 7.53991 10.6788 7.6143C10.5892 7.68869 10.5288 7.79224 10.508 7.90678C10.4872 8.02132 10.5074 8.13953 10.5651 8.24064C10.6228 8.34176 10.7142 8.41932 10.8234 8.45972L11.1499 8.58052V8.92865V13.8193V15.0591L10.2898 14.1662C8.63523 12.4487 7.53957 10.2703 7.14707 7.91797M11.0029 7.5L7.14695 7.91726C7.14699 7.91749 7.14703 7.91773 7.14707 7.91797M11.0029 7.5L11.6208 7.50192M11.0029 7.5L12.0169 16.3352C12.0488 16.3002 12.0754 16.2607 12.0959 16.218L12.0967 16.2164C12.1085 16.1921 12.1128 16.1819 12.1155 16.1747L12.1197 16.1633L12.1199 16.1633C12.1411 16.1101 12.1527 16.0535 12.1543 15.9962L12.1548 13.8759L12.1549 13.2081L12.7957 13.3963C13.5025 13.6038 14.1393 14.0001 14.6377 14.5426L14.638 14.5429L16.286 16.3398L16.2867 16.3406C16.331 16.3892 16.3845 16.4285 16.444 16.4563C16.5036 16.4842 16.568 16.5 16.6337 16.5029C16.6993 16.5058 16.7649 16.4958 16.8267 16.4733C16.8885 16.4508 16.9452 16.4164 16.9936 16.372C17.0421 16.3275 17.0813 16.274 17.109 16.2144C17.1367 16.1548 17.1524 16.0903 17.1552 16.0246C17.1579 15.959 17.1477 15.8934 17.1251 15.8317C17.1025 15.77 17.0679 15.7133 17.0234 15.665L17.0226 15.6641L15.3766 13.8688C15.3763 13.8685 15.3761 13.8683 15.3759 13.8681C15.1104 13.5811 14.8123 13.3262 14.4877 13.1084L13.9116 12.722L14.4604 12.2976C15.8106 11.2537 16.7568 9.77373 17.1376 8.1101L17.1381 8.10784C17.1531 8.04365 17.1553 7.97712 17.1445 7.91209C17.1337 7.84706 17.1102 7.78481 17.0752 7.72892C17.0403 7.67302 16.9946 7.62459 16.9409 7.58641C16.8871 7.54823 16.8264 7.52105 16.7621 7.50643C16.6978 7.49182 16.6313 7.49006 16.5663 7.50126C16.5014 7.51246 16.4393 7.53639 16.3836 7.57168C16.3279 7.60697 16.2798 7.65292 16.2419 7.70689C16.2041 7.76087 16.1772 7.82179 16.163 7.88615L16.1623 7.88944C15.9567 8.7913 15.5569 9.63748 14.9907 10.369C14.4245 11.1004 13.7056 11.6996 12.8841 12.1247L12.1543 12.5023V11.6806V8.02678M7.14707 7.91797C7.13607 7.85344 7.1125 7.7917 7.0777 7.73625C7.0428 7.68065 6.99729 7.63247 6.94377 7.59446C6.89025 7.55644 6.82977 7.52934 6.76578 7.5147C6.70178 7.50006 6.63553 7.49817 6.57081 7.50914C6.50609 7.5201 6.44416 7.54371 6.38855 7.5786C6.33295 7.6135 6.28477 7.65901 6.24676 7.71253C6.20874 7.76605 6.18164 7.82653 6.167 7.89052C6.15236 7.95452 6.15047 8.02077 6.16144 8.08549M7.14707 7.91797L6.16144 8.08549M11.6208 7.50192C11.6369 7.50476 11.6529 7.50849 11.6686 7.51309L11.7168 7.52722L11.7669 7.53145C11.7884 7.53326 11.8098 7.53641 11.8308 7.54087M11.8308 7.54087C11.845 7.55024 11.862 7.56066 11.8814 7.57101L11.8908 7.57605L11.9005 7.58068C11.9303 7.59498 11.9586 7.61217 11.9849 7.63199M11.9849 7.63199C11.9955 7.64788 12.0094 7.66723 12.0268 7.68783L12.0336 7.69595L12.0408 7.70378C12.0658 7.731 12.0875 7.76091 12.1058 7.79295M12.1058 7.79295C12.1092 7.8093 12.1119 7.82582 12.1138 7.84245L12.1196 7.89247L12.1352 7.94034C12.1443 7.96848 12.1507 7.99743 12.1543 8.02678M6.16144 8.08549L6.16157 8.08625C6.72275 11.4305 8.58461 14.4164 11.3399 16.392C11.3556 16.4007 11.3717 16.4085 11.3883 16.4154L11.4199 16.4285L11.4494 16.4459C11.464 16.4545 11.4791 16.4622 11.4946 16.469C11.5461 16.4889 11.6006 16.5 11.6558 16.5019C11.7254 16.4999 11.7939 16.4829 11.8564 16.452L11.8645 16.448L11.8646 16.448C11.8832 16.4392 11.901 16.4322 11.9175 16.4265C11.9402 16.4118 11.9617 16.3953 11.9817 16.3772L6.16144 8.08549ZM8.9375 1.5H15.0728C18.1356 1.5 19.9295 1.95259 20.9886 3.01311C22.048 4.07384 22.5 5.87053 22.5 8.9375V15.0732C22.5 18.1356 22.0474 19.9294 20.9869 20.9885C19.9261 22.0479 18.1294 22.5 15.0625 22.5H8.92725C5.86439 22.5 4.07051 22.0474 3.01138 20.9869C1.95203 19.9262 1.5 18.1295 1.5 15.0625V8.92676C1.5 5.86441 1.95258 4.07064 3.01311 3.0115C4.07385 1.95214 5.87056 1.5 8.9375 1.5ZM15.0625 21.5C16.3323 21.5 17.376 21.4449 18.2206 21.2726C19.0706 21.0992 19.7585 20.7992 20.2782 20.2805C20.7979 19.7617 21.0985 19.0746 21.2722 18.2258C21.4449 17.3825 21.5 16.3406 21.5 15.0732V8.9375C21.5 7.66772 21.445 6.62405 21.2727 5.77944C21.0993 4.92945 20.7994 4.24147 20.2806 3.72183C19.7618 3.2021 19.0747 2.90154 18.2258 2.72776C17.3824 2.55511 16.3404 2.5 15.0728 2.5H8.9375C7.66771 2.5 6.62404 2.55505 5.77942 2.7274C4.92943 2.90083 4.24146 3.20076 3.72183 3.71951C3.2021 4.23834 2.90154 4.92535 2.72777 5.77415C2.55511 6.61747 2.5 7.65939 2.5 8.92676V15.0625C2.5 16.3323 2.55502 17.3759 2.72733 18.2206C2.90073 19.0706 3.20063 19.7585 3.71939 20.2782C4.23822 20.7979 4.92528 21.0985 5.77416 21.2722C6.61757 21.4449 7.65964 21.5 8.92725 21.5H15.0625Z" fill="#111111" stroke="#111111"/>
</svg>
