<svg width="24" height="24" viewBox="0 0 24 24" fill="none" xmlns="http://www.w3.org/2000/svg">
<path d="M13.18 13.5H13.8871L13.6514 12.8333C13.5183 12.4568 13.4773 12.0539 13.5319 11.6583C13.5865 11.2627 13.735 10.8859 13.9652 10.5595C14.1953 10.2331 14.5002 9.96656 14.8545 9.78223C15.2086 9.598 15.6016 9.50123 16.0007 9.5C16.6635 9.50019 17.2991 9.76356 17.7678 10.2322C18.2366 10.7011 18.5 11.337 18.5 12C18.5 12.663 18.2366 13.2989 17.7678 13.7678C17.2989 14.2366 16.663 14.5 16 14.5L8 14.5L7.99859 14.5C7.46761 14.5015 6.94994 14.3339 6.52059 14.0215C6.09124 13.709 5.77253 13.268 5.61062 12.7623C5.44871 12.2566 5.45203 11.7125 5.62008 11.2088C5.78814 10.7051 6.1122 10.268 6.54532 9.9608C6.97844 9.65363 7.49812 9.49233 8.02905 9.50029C8.55998 9.50825 9.07458 9.68505 9.4983 10.0051C9.92202 10.3251 10.2328 10.7717 10.3857 11.2802C10.5386 11.7887 10.5256 12.3327 10.3486 12.8333L10.1129 13.5H10.82H13.18ZM4 4.5H20C20.663 4.5 21.2989 4.76339 21.7678 5.23223C22.2366 5.70107 22.5 6.33696 22.5 7V17C22.5 17.663 22.2366 18.2989 21.7678 18.7678C21.2989 19.2366 20.663 19.5 20 19.5H4C3.33696 19.5 2.70107 19.2366 2.23223 18.7678C1.76339 18.2989 1.5 17.663 1.5 17V7C1.5 6.33696 1.76339 5.70107 2.23223 5.23223C2.70107 4.76339 3.33696 4.5 4 4.5ZM21.0607 18.0607C21.342 17.7794 21.5 17.3978 21.5 17V7C21.5 6.60218 21.342 6.22065 21.0607 5.93934C20.7794 5.65804 20.3978 5.5 20 5.5H4C3.60217 5.5 3.22064 5.65804 2.93934 5.93934C2.65804 6.22064 2.5 6.60218 2.5 7V17C2.5 17.3978 2.65803 17.7794 2.93934 18.0607C3.22065 18.342 3.60218 18.5 4 18.5H20C20.3978 18.5 20.7794 18.342 21.0607 18.0607ZM7.16665 13.2472C7.41332 13.412 7.70333 13.5 8 13.5C8.39782 13.5 8.77936 13.342 9.06066 13.0607C9.34196 12.7794 9.5 12.3978 9.5 12C9.5 11.7033 9.41203 11.4133 9.2472 11.1666C9.08238 10.92 8.84811 10.7277 8.57403 10.6142C8.29994 10.5006 7.99834 10.4709 7.70736 10.5288C7.41639 10.5867 7.14912 10.7296 6.93934 10.9393C6.72956 11.1491 6.5867 11.4164 6.52882 11.7074C6.47094 11.9983 6.50065 12.2999 6.61418 12.574C6.72771 12.8481 6.91997 13.0824 7.16665 13.2472ZM15.1666 13.2472C15.4133 13.412 15.7033 13.5 16 13.5C16.3978 13.5 16.7794 13.342 17.0607 13.0607C17.342 12.7794 17.5 12.3978 17.5 12C17.5 11.7033 17.412 11.4133 17.2472 11.1666C17.0824 10.92 16.8481 10.7277 16.574 10.6142C16.2999 10.5006 15.9983 10.4709 15.7074 10.5288C15.4164 10.5867 15.1491 10.7296 14.9393 10.9393C14.7296 11.1491 14.5867 11.4164 14.5288 11.7074C14.4709 11.9983 14.5006 12.2999 14.6142 12.574C14.7277 12.8481 14.92 13.0824 15.1666 13.2472Z" fill="#111111" stroke="#111111"/>
</svg>
