<svg width="24" height="24" viewBox="0 0 24 24" fill="none" xmlns="http://www.w3.org/2000/svg">
<path d="M15.93 4.21783L11.15 7.99783H7.5C7.23478 7.99783 6.98043 8.10319 6.79289 8.29073C6.60536 8.47826 6.5 8.73262 6.5 8.99783V14.9978C6.5 15.2631 6.60536 15.5174 6.79289 15.7049C6.98043 15.8925 7.23478 15.9978 7.5 15.9978H11.15L15.88 19.7778C16.0559 19.919 16.2744 19.9965 16.5 19.9978C16.6494 20.0003 16.797 19.966 16.93 19.8978C17.1002 19.8168 17.244 19.6893 17.3448 19.5301C17.4457 19.3708 17.4995 19.1863 17.5 18.9978M15.93 4.21783L16.2315 4.61673C16.2327 4.61582 16.2339 4.61491 16.2351 4.614M15.93 4.21783C16.0712 4.11115 16.2381 4.04383 16.4138 4.02275C16.5895 4.00167 16.7676 4.02758 16.93 4.09783M15.93 4.21783L16.2401 4.61002L16.2351 4.614M16.2351 4.614L11.4601 8.39002L11.3238 8.49783H11.15H7.5C7.36739 8.49783 7.24022 8.55051 7.14645 8.64428C7.05268 8.73805 7 8.86523 7 8.99783V14.9978C7 15.1304 7.05268 15.2576 7.14645 15.3514C7.24022 15.4452 7.36739 15.4978 7.5 15.4978H11.15H11.3252L11.4621 15.6072L16.1921 19.3872L16.1929 19.3878C16.2809 19.4584 16.3901 19.4972 16.5029 19.4978L16.5083 19.4979V19.4979C16.5756 19.499 16.6421 19.4835 16.702 19.4528L16.7085 19.4495L16.715 19.4464C16.8001 19.4059 16.872 19.3421 16.9224 19.2625C16.9727 19.1831 16.9996 19.091 17 18.997M16.2351 4.614C16.3049 4.56224 16.387 4.52955 16.4734 4.51919C16.5582 4.50901 16.6442 4.52074 16.7231 4.55321M17 18.997V18.9978H17.5M17 18.997C17 18.9968 17 18.9966 17 18.9964L17.5 18.9978M17 18.997V4.99869M17.5 18.9978V4.99783M17.5 4.99783L17 4.99925C17 4.99906 17 4.99887 17 4.99869M17.5 4.99783C17.4995 4.80935 17.4457 4.62485 17.3448 4.46561C17.244 4.30638 17.1002 4.17888 16.93 4.09783M17.5 4.99783H17V4.99869M17 4.99869C16.9996 4.90464 16.9727 4.8126 16.9224 4.73314C16.8736 4.65607 16.8047 4.59387 16.7231 4.55321M16.93 4.09783L16.7315 4.55673C16.7287 4.55553 16.7259 4.55436 16.7231 4.55321M16.93 4.09783L16.715 4.54925C16.7177 4.55055 16.7204 4.55187 16.7231 4.55321M15.1879 17.3085L16 17.9572V16.9178V7.07783V6.03848L15.1879 6.68717L11.8079 9.38717L11.8071 9.38784C11.7194 9.45817 11.6107 9.49691 11.4983 9.49783H8.5H8V9.99783V13.9978V14.4978H8.5H11.4983C11.6107 14.4988 11.7194 14.5375 11.8071 14.6078L11.8079 14.6085L15.1879 17.3085Z" fill="#111111" stroke="#111111"/>
</svg>
