<svg width="24" height="24" viewBox="0 0 24 24" fill="none" xmlns="http://www.w3.org/2000/svg">
<path d="M11.43 4.21783L6.65 7.99783H3C2.73478 7.99783 2.48043 8.10319 2.29289 8.29073C2.10536 8.47826 2 8.73262 2 8.99783V14.9978C2 15.2631 2.10536 15.5174 2.29289 15.7049C2.48043 15.8925 2.73478 15.9978 3 15.9978H6.65L11.38 19.7778C11.5559 19.919 11.7744 19.9965 12 19.9978C12.1494 20.0003 12.297 19.966 12.43 19.8978C12.6002 19.8168 12.744 19.6893 12.8448 19.5301C12.9457 19.3708 12.9995 19.1863 13 18.9978M11.43 4.21783L11.7315 4.61673C11.7327 4.61582 11.7339 4.61491 11.7351 4.614M11.43 4.21783C11.5712 4.11115 11.7381 4.04383 11.9138 4.02275C12.0895 4.00167 12.2676 4.02758 12.43 4.09783M11.43 4.21783L11.7401 4.61002L11.7351 4.614M11.7351 4.614L6.96014 8.39002L6.82381 8.49783H6.65H3C2.86739 8.49783 2.74021 8.55051 2.64645 8.64428C2.55268 8.73805 2.5 8.86523 2.5 8.99783V14.9978C2.5 15.1304 2.55268 15.2576 2.64645 15.3514C2.74021 15.4452 2.86739 15.4978 3 15.4978H6.65H6.82525L6.96215 15.6072L11.6921 19.3872L11.6929 19.3878C11.7809 19.4584 11.8901 19.4972 12.0029 19.4978L12.0083 19.4979V19.4979C12.0756 19.499 12.1421 19.4835 12.202 19.4528L12.2085 19.4495L12.215 19.4464C12.3001 19.4059 12.372 19.3421 12.4224 19.2625C12.4727 19.1831 12.4996 19.091 12.5 18.997M11.7351 4.614C11.8049 4.56224 11.887 4.52955 11.9734 4.51919C12.0582 4.50901 12.1442 4.52075 12.2231 4.55321M12.5 18.997V18.9978H13M12.5 18.997C12.5 18.9968 12.5 18.9966 12.5 18.9964L13 18.9978M12.5 18.997V4.99869M13 18.9978V4.99783M13 4.99783L12.5 4.99925C12.5 4.99906 12.5 4.99887 12.5 4.99869M13 4.99783C12.9995 4.80935 12.9457 4.62485 12.8448 4.46561C12.744 4.30638 12.6002 4.17888 12.43 4.09783M13 4.99783H12.5V4.99869M12.5 4.99869C12.4996 4.90464 12.4727 4.8126 12.4224 4.73314C12.3736 4.65607 12.3047 4.59387 12.2231 4.55321M12.43 4.09783L12.2315 4.55673C12.2287 4.55553 12.2259 4.55436 12.2231 4.55321M12.43 4.09783L12.215 4.54925C12.2177 4.55055 12.2204 4.55187 12.2231 4.55321M14.4247 14.5671C14.4309 14.5586 14.4374 14.5502 14.4441 14.5421L14.8573 14.3853C15.3317 14.2054 15.74 13.8855 16.0282 13.4679C16.3164 13.0504 16.4707 12.5551 16.4707 12.0478C16.4707 11.5405 16.3164 11.0452 16.0282 10.6277C15.74 10.2102 15.3317 9.89025 14.8573 9.71033L14.8485 9.707L14.8396 9.70399C14.7133 9.66146 14.6091 9.57049 14.5499 9.45112C14.4907 9.33174 14.4813 9.19373 14.5238 9.06744C14.5664 8.94116 14.6573 8.83694 14.7767 8.77773C14.8951 8.71901 15.0318 8.7093 15.1572 8.7506C15.837 8.99266 16.4254 9.43896 16.8418 10.0284C17.2591 10.6191 17.4832 11.3246 17.4832 12.0478C17.4832 12.7711 17.2591 13.4765 16.8418 14.0672C16.4268 14.6548 15.8409 15.1001 15.1639 15.3427C15.1088 15.3587 15.0518 15.3672 14.9944 15.3679L14.9575 15.3683L14.921 15.3741C14.7867 15.3956 14.6494 15.3629 14.5393 15.2831C14.4291 15.2034 14.3552 15.0831 14.3337 14.9488C14.3122 14.8146 14.345 14.6773 14.4247 14.5671ZM10.6879 17.3085L11.5 17.9572V16.9178V7.07783V6.03848L10.6879 6.68717L7.30793 9.38717L7.3071 9.38784C7.21945 9.45817 7.11067 9.49691 6.99832 9.49783H4H3.5V9.99783V13.9978V14.4978H4H6.99832C7.11067 14.4988 7.21945 14.5375 7.3071 14.6078L7.30793 14.6085L10.6879 17.3085ZM14.9362 5.59367L14.9362 5.59362L14.9293 5.59266C14.7954 5.57392 14.6745 5.50276 14.5931 5.39483C14.5527 5.34139 14.5233 5.28053 14.5066 5.21573C14.4898 5.15093 14.4859 5.08345 14.4952 5.01716C14.5045 4.95086 14.5267 4.88705 14.5606 4.82935C14.5946 4.77165 14.6396 4.72121 14.693 4.68089C14.7464 4.64058 14.8073 4.61118 14.8721 4.59439C14.8732 4.59409 14.8744 4.5938 14.8755 4.59351L15.0652 4.62221C16.8397 4.89066 18.4592 5.78655 19.6295 7.14722C20.7998 8.50789 21.4434 10.2431 21.4434 12.0378C21.4434 13.8326 20.7998 15.5678 19.6295 16.9285C18.4672 18.2798 16.862 19.1727 15.1018 19.4478H15H14.9825L14.9651 19.4491C14.8322 19.4584 14.701 19.4145 14.6004 19.3271C14.4998 19.2396 14.4381 19.1159 14.4288 18.9829C14.4195 18.85 14.4634 18.7188 14.5508 18.6182C14.6382 18.5177 14.762 18.4559 14.8949 18.4466L14.9156 18.4452L14.9362 18.442C16.4704 18.2056 17.8693 17.4279 18.88 16.2496C19.8906 15.0713 20.4462 13.5702 20.4462 12.0178C20.4462 10.4655 19.8906 8.96441 18.88 7.78611C17.8693 6.6078 16.4704 5.8301 14.9362 5.59367Z" fill="#111111" stroke="#111111"/>
</svg>
