<svg width="24" height="24" viewBox="0 0 24 24" fill="none" xmlns="http://www.w3.org/2000/svg">
<path d="M17.16 14.9378C17.2447 15.0384 17.3483 15.1212 17.465 15.1817C17.5817 15.2421 17.7092 15.279 17.8401 15.2901C17.9711 15.3013 18.1029 15.2865 18.2282 15.2466C18.3534 15.2068 18.4696 15.1426 18.57 15.0578C19.0171 14.6829 19.3768 14.2148 19.6238 13.6862C19.8709 13.1576 19.9992 12.5813 20 11.9978M17.16 14.9378L17.5441 14.6178C17.5438 14.6174 17.5436 14.6171 17.5433 14.6168M17.16 14.9378C17.0758 14.8368 17.0124 14.7201 16.9733 14.5945C16.9343 14.4689 16.9204 14.3368 16.9325 14.2059C16.9445 14.0749 16.9823 13.9476 17.0437 13.8312C17.105 13.7149 17.1887 13.6118 17.29 13.5278C17.5126 13.3399 17.6915 13.1056 17.8142 12.8413C17.9368 12.5771 18.0002 12.2892 18 11.9978L17.41 10.5878M17.16 14.9378L17.5425 14.6158C17.5427 14.6161 17.543 14.6164 17.5433 14.6168M17.5433 14.6168C17.5855 14.6666 17.637 14.7077 17.695 14.7377C17.7533 14.7679 17.817 14.7863 17.8825 14.7919C17.948 14.7975 18.0139 14.7901 18.0766 14.7702C18.1392 14.7502 18.1972 14.7182 18.2475 14.6758L18.2487 14.6747C18.64 14.3467 18.9547 13.937 19.1708 13.4745C19.3868 13.0125 19.4991 12.5088 19.5 11.9988M17.5433 14.6168C17.5016 14.5665 17.4702 14.5085 17.4508 14.4461C17.4313 14.3833 17.4243 14.3173 17.4304 14.2518C17.4364 14.1863 17.4553 14.1226 17.486 14.0645C17.5166 14.0063 17.5585 13.9547 17.6091 13.9128L17.6091 13.9128L17.6125 13.9099C17.8908 13.675 18.1144 13.3822 18.2677 13.0518C18.421 12.7215 18.5003 12.3616 18.5 11.9974L18.5 11.9957C18.4972 11.3338 18.232 10.6999 17.7625 10.2332L17.41 10.5878M19.5 11.9988C19.5 11.9994 19.5 11.9999 19.5 12.0005L20 11.9978M19.5 11.9988C19.5 11.9983 19.5 11.9977 19.5 11.9972L20 11.9978M19.5 11.9988C19.4946 11.0707 19.127 10.1814 18.4754 9.52037M20 11.9978C19.9944 10.9379 19.5744 9.92228 18.83 9.16783M18.83 9.16783L18.4764 9.52139C18.4761 9.52105 18.4758 9.52071 18.4754 9.52037M18.83 9.16783C18.7368 9.0746 18.6261 9.00064 18.5042 8.95017C18.3824 8.89971 18.2519 8.87374 18.12 8.87374C17.9881 8.87374 17.8576 8.89971 17.7358 8.95017C17.6139 9.00064 17.5032 9.0746 17.41 9.16783C17.3168 9.26107 17.2428 9.37176 17.1923 9.49359C17.1419 9.61541 17.1159 9.74598 17.1159 9.87783C17.1159 10.0097 17.1419 10.1403 17.1923 10.2621C17.2428 10.3839 17.3168 10.4946 17.41 10.5878M18.83 9.16783L18.4741 9.51902C18.4745 9.51947 18.475 9.51992 18.4754 9.52037M18.4754 9.52037C18.4288 9.47404 18.3736 9.43726 18.3129 9.41211C18.2517 9.38678 18.1862 9.37374 18.12 9.37374C18.0538 9.37374 17.9883 9.38678 17.9271 9.41211C17.8659 9.43745 17.8104 9.47458 17.7636 9.52139C17.7167 9.5682 17.6796 9.62377 17.6543 9.68493C17.6289 9.74609 17.6159 9.81164 17.6159 9.87783C17.6159 9.94403 17.6289 10.0096 17.6543 10.0707C17.6796 10.1319 17.7167 10.1875 17.7636 10.2343L17.41 10.5878M13.43 4.21783L8.65 7.99783H5C4.73478 7.99783 4.48043 8.10319 4.29289 8.29073C4.10536 8.47826 4 8.73262 4 8.99783V14.9978C4 15.2631 4.10536 15.5174 4.29289 15.7049C4.48043 15.8925 4.73478 15.9978 5 15.9978H8.65L13.38 19.7778C13.5559 19.919 13.7744 19.9965 14 19.9978C14.1494 20.0003 14.297 19.966 14.43 19.8978C14.6002 19.8168 14.744 19.6893 14.8448 19.5301C14.9457 19.3708 14.9995 19.1863 15 18.9978M13.43 4.21783L13.7315 4.61673C13.7327 4.61582 13.7339 4.61491 13.7351 4.614M13.43 4.21783C13.5712 4.11115 13.7381 4.04383 13.9138 4.02275C14.0895 4.00167 14.2676 4.02758 14.43 4.09783M13.43 4.21783L13.7401 4.61002L13.7351 4.614M13.7351 4.614L8.96014 8.39002L8.82381 8.49783H8.65H5C4.86739 8.49783 4.74022 8.55051 4.64645 8.64428C4.55268 8.73805 4.5 8.86523 4.5 8.99783V14.9978C4.5 15.1304 4.55268 15.2576 4.64645 15.3514C4.74022 15.4452 4.86739 15.4978 5 15.4978H8.65H8.82525L8.96215 15.6072L13.6921 19.3872L13.6929 19.3878C13.7809 19.4584 13.8901 19.4972 14.0029 19.4978L14.0083 19.4979V19.4979C14.0756 19.499 14.1421 19.4835 14.202 19.4528L14.2085 19.4495L14.215 19.4464C14.3001 19.4059 14.372 19.3421 14.4224 19.2625C14.4727 19.1831 14.4996 19.091 14.5 18.997M13.7351 4.614C13.8049 4.56224 13.887 4.52955 13.9734 4.51919C14.0582 4.50901 14.1442 4.52075 14.2231 4.55321M14.5 18.997V18.9978H15M14.5 18.997C14.5 18.9968 14.5 18.9966 14.5 18.9964L15 18.9978M14.5 18.997V4.99869M15 18.9978V4.99783M15 4.99783L14.5 4.99925C14.5 4.99906 14.5 4.99887 14.5 4.99869M15 4.99783C14.9995 4.80935 14.9457 4.62485 14.8448 4.46561C14.744 4.30638 14.6002 4.17888 14.43 4.09783M15 4.99783H14.5V4.99869M14.5 4.99869C14.4996 4.90464 14.4727 4.8126 14.4224 4.73314C14.3736 4.65607 14.3047 4.59387 14.2231 4.55321M14.43 4.09783L14.2315 4.55673C14.2287 4.55553 14.2259 4.55436 14.2231 4.55321M14.43 4.09783L14.215 4.54925C14.2177 4.55055 14.2204 4.55187 14.2231 4.55321M12.6879 17.3085L13.5 17.9572V16.9178V7.07783V6.03848L12.6879 6.68717L9.30793 9.38717L9.3071 9.38784C9.21945 9.45817 9.11067 9.49691 8.99832 9.49783H6H5.5V9.99783V13.9978V14.4978H6H8.99832C9.11067 14.4988 9.21945 14.5375 9.3071 14.6078L9.30793 14.6085L12.6879 17.3085Z" fill="#111111" stroke="#111111"/>
</svg>
