<svg width="24" height="24" viewBox="0 0 24 24" fill="none" xmlns="http://www.w3.org/2000/svg">
<path d="M16.5 6.78V7.00361L16.6667 7.15268C16.9272 7.38567 17.1359 7.67069 17.2795 7.98934C17.4228 8.30758 17.4979 8.65231 17.5 9.00133V14.9987C17.4979 15.3477 17.4228 15.6924 17.2795 16.0107C17.1359 16.3293 16.9272 16.6143 16.6667 16.8473L16.5 16.9964V17.22V21C16.5 21.1326 16.4473 21.2598 16.3536 21.3536C16.2598 21.4473 16.1326 21.5 16 21.5H8C7.86739 21.5 7.74021 21.4473 7.64645 21.3536C7.55268 21.2598 7.5 21.1326 7.5 21V17.22V16.9964L7.33333 16.8473C7.07283 16.6143 6.86407 16.3293 6.72054 16.0107C6.57718 15.6924 6.50205 15.3476 6.5 14.9986V9.0014C6.50205 8.65236 6.57718 8.3076 6.72054 7.98934C6.86407 7.67069 7.07283 7.38567 7.33333 7.15268L7.5 7.00361V6.78V3C7.5 2.86739 7.55268 2.74021 7.64645 2.64645C7.74021 2.55268 7.86739 2.5 8 2.5H16C16.1326 2.5 16.2598 2.55268 16.3536 2.64645C16.4473 2.74021 16.5 2.86739 16.5 3V6.78ZM9 3.5H8.5V4V6V6.5H9H15H15.5V6V4V3.5H15H9ZM15 20.5H15.5V20V18V17.5H15H9H8.5V18V20V20.5H9H15ZM16.0607 16.0607C16.342 15.7794 16.5 15.3978 16.5 15V9C16.5 8.60218 16.342 8.22064 16.0607 7.93934C15.7794 7.65804 15.3978 7.5 15 7.5H9C8.60217 7.5 8.22064 7.65804 7.93934 7.93934C7.65804 8.22064 7.5 8.60218 7.5 9V15C7.5 15.3978 7.65804 15.7794 7.93934 16.0607C8.22064 16.342 8.60217 16.5 9 16.5H15C15.3978 16.5 15.7794 16.342 16.0607 16.0607Z" fill="#111111" stroke="#111111"/>
</svg>
