<svg width="24" height="24" viewBox="0 0 24 24" fill="none" xmlns="http://www.w3.org/2000/svg">
<path d="M21.3566 20.6398L21.3581 20.6413C21.405 20.6878 21.4421 20.7431 21.4675 20.804C21.4929 20.8649 21.506 20.9303 21.506 20.9963C21.506 21.0623 21.4929 21.1276 21.4675 21.1886C21.4421 21.2495 21.405 21.3048 21.3581 21.3513L21.3552 21.3542C21.3087 21.401 21.2534 21.4382 21.1925 21.4636C21.1315 21.489 21.0662 21.5021 21.0002 21.5021C20.9342 21.5021 20.8688 21.489 20.8079 21.4636C20.747 21.4382 20.6917 21.401 20.6452 21.3542L20.6437 21.3527L18.2237 18.9327L17.8392 18.5481L17.4882 18.9636C16.8146 19.7612 15.9742 20.4013 15.0264 20.8389C14.0789 21.2763 13.047 21.5007 12.0034 21.4963C10.0925 21.484 8.26352 20.7188 6.91316 19.3667C5.56406 18.0159 4.80141 16.188 4.79021 14.279C4.82771 12.0405 5.4928 9.85734 6.70986 7.97807L6.92967 7.63866L6.64374 7.35273L2.64374 3.35273C2.5492 3.25819 2.49609 3.12997 2.49609 2.99628C2.49609 2.86259 2.5492 2.73437 2.64374 2.63983C2.73827 2.5453 2.86649 2.49219 3.00019 2.49219C3.13388 2.49219 3.2621 2.5453 3.35663 2.63983L21.3566 20.6398ZM5.75028 14.2368L5.75017 14.2368L12.0002 19.9963L11.9975 20.4963C11.9979 20.4963 11.9983 20.4963 11.9987 20.4963C12.9297 20.5011 13.8498 20.2952 14.69 19.894C15.5305 19.4926 16.2692 18.9061 16.8508 18.1784L17.1302 17.8288L16.8135 17.5125L8.07354 8.78252L7.62108 8.33058L7.29164 8.87871C6.31775 10.499 5.78626 12.3466 5.75028 14.2368ZM12.3085 3.84264L11.9904 3.59354L11.6801 3.85217C11.6609 3.86814 11.6413 3.88448 11.6212 3.90119C11.332 4.14196 10.9502 4.45987 10.524 4.85676C10.4275 4.93061 10.3071 4.96683 10.1855 4.95833C10.0591 4.94951 9.94083 4.89304 9.85449 4.80035C9.76815 4.70766 9.72021 4.58566 9.72035 4.45898C9.72049 4.33671 9.76542 4.21888 9.84639 4.12766C10.4404 3.56933 11.0712 3.05147 11.7346 2.57757C11.8163 2.52358 11.9122 2.49477 12.0102 2.49477C12.11 2.49477 12.2075 2.52464 12.2902 2.58053L12.2904 2.58065C12.41 2.66201 13.9464 3.70662 15.5475 5.51066C17.1579 7.32531 18.8004 9.87077 19.1737 12.9455C19.1891 13.0766 19.1521 13.2084 19.0707 13.3123C18.9944 13.4096 18.8851 13.4749 18.764 13.4963L18.6802 13.4963L18.6766 13.4963C18.5537 13.4972 18.4349 13.4528 18.3426 13.3717C18.2504 13.2905 18.1913 13.1782 18.1766 13.0563L18.1764 13.0549C17.8867 10.711 16.7712 8.68822 15.5664 7.12261C14.3603 5.5551 13.0438 4.41858 12.3085 3.84264Z" fill="#111111" stroke="#111111"/>
</svg>
