<svg width="24" height="24" viewBox="0 0 24 24" fill="none" xmlns="http://www.w3.org/2000/svg">
<mask id="path-1-inside-1_2239_8005" fill="white">
<path d="M2.71996 7.64912C2.91552 7.70655 3.10351 7.78712 3.27996 7.88912C3.89978 8.25906 4.60814 8.45437 5.32996 8.45437C6.05178 8.45437 6.76015 8.25906 7.37996 7.88912C7.77042 7.66828 8.21137 7.55222 8.65996 7.55222C9.10855 7.55222 9.5495 7.66828 9.93996 7.88912C10.5673 8.24782 11.2773 8.4365 12 8.4365C12.7226 8.4365 13.4327 8.24782 14.06 7.88912C14.4504 7.66828 14.8914 7.55222 15.34 7.55222C15.7885 7.55222 16.2295 7.66828 16.62 7.88912C17.2537 8.25131 17.97 8.44417 18.7 8.44912C19.4051 8.44767 20.0966 8.25407 20.7 7.88912C20.8764 7.78712 21.0644 7.70655 21.26 7.64912C21.5146 7.57486 21.7292 7.4025 21.8568 7.16996C21.9843 6.93741 22.0142 6.66373 21.94 6.40912C21.8657 6.15452 21.6933 5.93984 21.4608 5.81231C21.2282 5.68479 20.9546 5.65486 20.7 5.72912C20.3494 5.83732 20.0135 5.98847 19.7 6.17912C19.3814 6.36542 19.019 6.4636 18.65 6.4636C18.2809 6.4636 17.9185 6.36542 17.6 6.17912C16.9066 5.7902 16.1249 5.58594 15.33 5.58594C14.535 5.58594 13.7533 5.7902 13.06 6.17912C12.738 6.36618 12.3723 6.46471 12 6.46471C11.6276 6.46471 11.2619 6.36618 10.94 6.17912C10.2466 5.7902 9.46495 5.58594 8.66996 5.58594C7.87497 5.58594 7.09332 5.7902 6.39996 6.17912C6.08139 6.36542 5.719 6.4636 5.34996 6.4636C4.98092 6.4636 4.61853 6.36542 4.29996 6.17912C3.98645 5.98847 3.65057 5.83732 3.29996 5.72912C3.04535 5.65486 2.77167 5.68479 2.53913 5.81231C2.30658 5.93984 2.13422 6.15452 2.05996 6.40912C1.9857 6.66373 2.01562 6.93741 2.14315 7.16996C2.27067 7.4025 2.48535 7.57486 2.73996 7.64912H2.71996ZM20.72 15.7291C20.3694 15.8373 20.0335 15.9885 19.72 16.1791C19.4014 16.3654 19.039 16.4636 18.67 16.4636C18.3009 16.4636 17.9385 16.3654 17.62 16.1791C16.9266 15.7902 16.1449 15.5859 15.35 15.5859C14.555 15.5859 13.7733 15.7902 13.08 16.1791C12.758 16.3662 12.3923 16.4647 12.02 16.4647C11.6476 16.4647 11.2819 16.3662 10.96 16.1791C10.2666 15.7902 9.48495 15.5859 8.68996 15.5859C7.89497 15.5859 7.11332 15.7902 6.41996 16.1791C6.10139 16.3654 5.739 16.4636 5.36996 16.4636C5.00092 16.4636 4.63853 16.3654 4.31996 16.1791C4.00645 15.9885 3.67057 15.8373 3.31996 15.7291C3.19389 15.6924 3.06182 15.6808 2.93127 15.695C2.80073 15.7093 2.67427 15.7492 2.55913 15.8123C2.44398 15.8755 2.3424 15.9607 2.26019 16.0631C2.17797 16.1655 2.11673 16.2831 2.07996 16.4091C2.04319 16.5352 2.03161 16.6673 2.04589 16.7978C2.06016 16.9284 2.1 17.0548 2.16315 17.17C2.22629 17.2851 2.3115 17.3867 2.4139 17.4689C2.5163 17.5511 2.63389 17.6124 2.75996 17.6491C2.95552 17.7065 3.14351 17.7871 3.31996 17.8891C3.93978 18.2591 4.64814 18.4544 5.36996 18.4544C6.09178 18.4544 6.80015 18.2591 7.41996 17.8891C7.81042 17.6683 8.25137 17.5522 8.69996 17.5522C9.14855 17.5522 9.5895 17.6683 9.97996 17.8891C10.6073 18.2478 11.3173 18.4365 12.04 18.4365C12.7626 18.4365 13.4727 18.2478 14.1 17.8891C14.4904 17.6683 14.9314 17.5522 15.38 17.5522C15.8285 17.5522 16.2695 17.6683 16.66 17.8891C17.2937 18.2513 18.01 18.4442 18.74 18.4491C19.4451 18.4477 20.1366 18.2541 20.74 17.8891C20.9164 17.7871 21.1044 17.7065 21.3 17.6491C21.5546 17.5749 21.7692 17.4025 21.8968 17.17C22.0243 16.9374 22.0542 16.6637 21.98 16.4091C21.9057 16.1545 21.7333 15.9398 21.5008 15.8123C21.2682 15.6848 20.9946 15.6549 20.74 15.7291H20.72ZM20.72 10.7291C20.3694 10.8373 20.0335 10.9885 19.72 11.1791C19.4014 11.3654 19.039 11.4636 18.67 11.4636C18.3009 11.4636 17.9385 11.3654 17.62 11.1791C16.9266 10.7902 16.1449 10.5859 15.35 10.5859C14.555 10.5859 13.7733 10.7902 13.08 11.1791C12.758 11.3662 12.3923 11.4647 12.02 11.4647C11.6476 11.4647 11.2819 11.3662 10.96 11.1791C10.2666 10.7902 9.48495 10.5859 8.68996 10.5859C7.89497 10.5859 7.11332 10.7902 6.41996 11.1791C6.10139 11.3654 5.739 11.4636 5.36996 11.4636C5.00092 11.4636 4.63853 11.3654 4.31996 11.1791C4.00645 10.9885 3.67057 10.8373 3.31996 10.7291C3.18902 10.6797 3.04917 10.6583 2.90944 10.6663C2.76971 10.6743 2.63322 10.7116 2.5088 10.7757C2.38438 10.8398 2.2748 10.9293 2.18715 11.0384C2.0995 11.1475 2.03573 11.2738 1.99996 11.4091C1.96319 11.5352 1.95161 11.6673 1.96589 11.7978C1.98016 11.9284 2.02 12.0548 2.08315 12.17C2.14629 12.2851 2.2315 12.3867 2.3339 12.4689C2.4363 12.5511 2.55389 12.6124 2.67996 12.6491C2.87552 12.7065 3.06351 12.7871 3.23996 12.8891C3.85978 13.2591 4.56814 13.4544 5.28996 13.4544C6.01178 13.4544 6.72015 13.2591 7.33996 12.8891C7.73042 12.6683 8.17137 12.5522 8.61996 12.5522C9.06855 12.5522 9.5095 12.6683 9.89996 12.8891C10.5273 13.2478 11.2373 13.4365 11.96 13.4365C12.6826 13.4365 13.3927 13.2478 14.02 12.8891C14.4104 12.6683 14.8514 12.5522 15.3 12.5522C15.7485 12.5522 16.1895 12.6683 16.58 12.8891C17.2137 13.2513 17.93 13.4442 18.66 13.4491C19.3651 13.4477 20.0566 13.2541 20.66 12.8891C20.8364 12.7871 21.0244 12.7065 21.22 12.6491C21.4746 12.5749 21.6892 12.4025 21.8168 12.17C21.9443 11.9374 21.9742 11.6637 21.9 11.4091C21.8257 11.1545 21.6533 10.9398 21.4208 10.8123C21.1882 10.6848 20.9146 10.6549 20.66 10.7291H20.72Z"/>
</mask>
<path d="M2.71996 7.64912C2.91552 7.70655 3.10351 7.78712 3.27996 7.88912C3.89978 8.25906 4.60814 8.45437 5.32996 8.45437C6.05178 8.45437 6.76015 8.25906 7.37996 7.88912C7.77042 7.66828 8.21137 7.55222 8.65996 7.55222C9.10855 7.55222 9.5495 7.66828 9.93996 7.88912C10.5673 8.24782 11.2773 8.4365 12 8.4365C12.7226 8.4365 13.4327 8.24782 14.06 7.88912C14.4504 7.66828 14.8914 7.55222 15.34 7.55222C15.7885 7.55222 16.2295 7.66828 16.62 7.88912C17.2537 8.25131 17.97 8.44417 18.7 8.44912C19.4051 8.44767 20.0966 8.25407 20.7 7.88912C20.8764 7.78712 21.0644 7.70655 21.26 7.64912C21.5146 7.57486 21.7292 7.4025 21.8568 7.16996C21.9843 6.93741 22.0142 6.66373 21.94 6.40912C21.8657 6.15452 21.6933 5.93984 21.4608 5.81231C21.2282 5.68479 20.9546 5.65486 20.7 5.72912C20.3494 5.83732 20.0135 5.98847 19.7 6.17912C19.3814 6.36542 19.019 6.4636 18.65 6.4636C18.2809 6.4636 17.9185 6.36542 17.6 6.17912C16.9066 5.7902 16.1249 5.58594 15.33 5.58594C14.535 5.58594 13.7533 5.7902 13.06 6.17912C12.738 6.36618 12.3723 6.46471 12 6.46471C11.6276 6.46471 11.2619 6.36618 10.94 6.17912C10.2466 5.7902 9.46495 5.58594 8.66996 5.58594C7.87497 5.58594 7.09332 5.7902 6.39996 6.17912C6.08139 6.36542 5.719 6.4636 5.34996 6.4636C4.98092 6.4636 4.61853 6.36542 4.29996 6.17912C3.98645 5.98847 3.65057 5.83732 3.29996 5.72912C3.04535 5.65486 2.77167 5.68479 2.53913 5.81231C2.30658 5.93984 2.13422 6.15452 2.05996 6.40912C1.9857 6.66373 2.01562 6.93741 2.14315 7.16996C2.27067 7.4025 2.48535 7.57486 2.73996 7.64912H2.71996ZM20.72 15.7291C20.3694 15.8373 20.0335 15.9885 19.72 16.1791C19.4014 16.3654 19.039 16.4636 18.67 16.4636C18.3009 16.4636 17.9385 16.3654 17.62 16.1791C16.9266 15.7902 16.1449 15.5859 15.35 15.5859C14.555 15.5859 13.7733 15.7902 13.08 16.1791C12.758 16.3662 12.3923 16.4647 12.02 16.4647C11.6476 16.4647 11.2819 16.3662 10.96 16.1791C10.2666 15.7902 9.48495 15.5859 8.68996 15.5859C7.89497 15.5859 7.11332 15.7902 6.41996 16.1791C6.10139 16.3654 5.739 16.4636 5.36996 16.4636C5.00092 16.4636 4.63853 16.3654 4.31996 16.1791C4.00645 15.9885 3.67057 15.8373 3.31996 15.7291C3.19389 15.6924 3.06182 15.6808 2.93127 15.695C2.80073 15.7093 2.67427 15.7492 2.55913 15.8123C2.44398 15.8755 2.3424 15.9607 2.26019 16.0631C2.17797 16.1655 2.11673 16.2831 2.07996 16.4091C2.04319 16.5352 2.03161 16.6673 2.04589 16.7978C2.06016 16.9284 2.1 17.0548 2.16315 17.17C2.22629 17.2851 2.3115 17.3867 2.4139 17.4689C2.5163 17.5511 2.63389 17.6124 2.75996 17.6491C2.95552 17.7065 3.14351 17.7871 3.31996 17.8891C3.93978 18.2591 4.64814 18.4544 5.36996 18.4544C6.09178 18.4544 6.80015 18.2591 7.41996 17.8891C7.81042 17.6683 8.25137 17.5522 8.69996 17.5522C9.14855 17.5522 9.5895 17.6683 9.97996 17.8891C10.6073 18.2478 11.3173 18.4365 12.04 18.4365C12.7626 18.4365 13.4727 18.2478 14.1 17.8891C14.4904 17.6683 14.9314 17.5522 15.38 17.5522C15.8285 17.5522 16.2695 17.6683 16.66 17.8891C17.2937 18.2513 18.01 18.4442 18.74 18.4491C19.4451 18.4477 20.1366 18.2541 20.74 17.8891C20.9164 17.7871 21.1044 17.7065 21.3 17.6491C21.5546 17.5749 21.7692 17.4025 21.8968 17.17C22.0243 16.9374 22.0542 16.6637 21.98 16.4091C21.9057 16.1545 21.7333 15.9398 21.5008 15.8123C21.2682 15.6848 20.9946 15.6549 20.74 15.7291H20.72ZM20.72 10.7291C20.3694 10.8373 20.0335 10.9885 19.72 11.1791C19.4014 11.3654 19.039 11.4636 18.67 11.4636C18.3009 11.4636 17.9385 11.3654 17.62 11.1791C16.9266 10.7902 16.1449 10.5859 15.35 10.5859C14.555 10.5859 13.7733 10.7902 13.08 11.1791C12.758 11.3662 12.3923 11.4647 12.02 11.4647C11.6476 11.4647 11.2819 11.3662 10.96 11.1791C10.2666 10.7902 9.48495 10.5859 8.68996 10.5859C7.89497 10.5859 7.11332 10.7902 6.41996 11.1791C6.10139 11.3654 5.739 11.4636 5.36996 11.4636C5.00092 11.4636 4.63853 11.3654 4.31996 11.1791C4.00645 10.9885 3.67057 10.8373 3.31996 10.7291C3.18902 10.6797 3.04917 10.6583 2.90944 10.6663C2.76971 10.6743 2.63322 10.7116 2.5088 10.7757C2.38438 10.8398 2.2748 10.9293 2.18715 11.0384C2.0995 11.1475 2.03573 11.2738 1.99996 11.4091C1.96319 11.5352 1.95161 11.6673 1.96589 11.7978C1.98016 11.9284 2.02 12.0548 2.08315 12.17C2.14629 12.2851 2.2315 12.3867 2.3339 12.4689C2.4363 12.5511 2.55389 12.6124 2.67996 12.6491C2.87552 12.7065 3.06351 12.7871 3.23996 12.8891C3.85978 13.2591 4.56814 13.4544 5.28996 13.4544C6.01178 13.4544 6.72015 13.2591 7.33996 12.8891C7.73042 12.6683 8.17137 12.5522 8.61996 12.5522C9.06855 12.5522 9.5095 12.6683 9.89996 12.8891C10.5273 13.2478 11.2373 13.4365 11.96 13.4365C12.6826 13.4365 13.3927 13.2478 14.02 12.8891C14.4104 12.6683 14.8514 12.5522 15.3 12.5522C15.7485 12.5522 16.1895 12.6683 16.58 12.8891C17.2137 13.2513 17.93 13.4442 18.66 13.4491C19.3651 13.4477 20.0566 13.2541 20.66 12.8891C20.8364 12.7871 21.0244 12.7065 21.22 12.6491C21.4746 12.5749 21.6892 12.4025 21.8168 12.17C21.9443 11.9374 21.9742 11.6637 21.9 11.4091C21.8257 11.1545 21.6533 10.9398 21.4208 10.8123C21.1882 10.6848 20.9146 10.6549 20.66 10.7291H20.72Z" fill="#111111" stroke="#111111" stroke-width="2" mask="url(#path-1-inside-1_2239_8005)"/>
</svg>
