<svg width="24" height="24" viewBox="0 0 24 24" fill="none" xmlns="http://www.w3.org/2000/svg">
<path d="M16.8601 20.2809L16.5428 20.4054C16.2228 20.531 15.8695 20.5429 15.5418 20.4392C15.2147 20.3356 14.9329 20.1229 14.7436 19.8367C14.7433 19.8363 14.743 19.8358 14.7428 19.8354L11.4043 14.8377L10.9409 14.1441L11.7711 14.0624L16.1411 13.6324L16.6037 13.5869L16.6828 14.0449L17.4927 18.7343C17.4927 18.7343 17.4927 18.7344 17.4927 18.7345L17.4928 18.7349L17.0001 18.82C17.0402 19.0507 16.9981 19.2881 16.8812 19.491C16.7642 19.6938 16.5798 19.8492 16.3601 19.93L16.8601 20.2809ZM16.8601 20.2809V20.2307V20.2809ZM18.5644 2.73449L18.5788 2.7114L18.5906 2.68689C18.602 2.66325 18.6159 2.64093 18.6321 2.62033C18.6426 2.60713 18.6542 2.59485 18.6667 2.5836L18.7776 2.51182L18.8047 2.5H18.9101H19.0001H21.0001C21.1327 2.5 21.2599 2.55268 21.3536 2.64645C21.4474 2.74021 21.5001 2.86739 21.5001 3C21.5001 3.13261 21.4474 3.25979 21.3536 3.35355C21.2599 3.44732 21.1327 3.5 21.0001 3.5H19.7901H19.3797L19.2997 3.90247L17.5097 12.9025L17.4911 12.9959L17.5082 13.0896L18.5076 18.5768C18.6036 19.1436 18.5012 19.7263 18.2178 20.2265C17.934 20.7272 17.4862 21.1147 16.95 21.3236C16.6463 21.4396 16.3241 21.4993 15.9991 21.5V21.4998L15.9851 21.5002C15.5718 21.5126 15.1622 21.4193 14.795 21.2292C14.4279 21.0391 14.1153 20.7584 13.8868 20.4138L13.8861 20.4127L9.94609 14.5026L9.77911 14.2522L9.4796 14.2826L8.0996 14.4226L7.82589 14.4503L7.70285 14.6964L6.70285 16.6964L6.54399 17.0141L6.79174 17.2687C7.24324 17.7327 7.49715 18.3537 7.50007 19.001C7.49987 19.4951 7.35326 19.9781 7.07874 20.3889C6.80404 20.8 6.41359 21.1205 5.95678 21.3097C5.49996 21.4989 4.99729 21.5484 4.51234 21.452C4.02739 21.3555 3.58193 21.1174 3.2323 20.7678C2.88267 20.4181 2.64457 19.9727 2.54811 19.4877C2.45164 19.0028 2.50115 18.5001 2.69037 18.0433C2.87959 17.5865 3.20002 17.196 3.61114 16.9213C4.02227 16.6466 4.50561 16.5 5.00007 16.5H5.02056L5.04098 16.4983C5.13355 16.4907 5.22659 16.4907 5.31916 16.4983L5.65226 16.5257L5.80488 16.2283L6.57488 14.7283L6.69865 14.4872L6.56419 14.2519L2.56419 7.25193L2.56419 7.25193L2.56308 7.25C2.5192 7.17399 2.49609 7.08777 2.49609 7C2.49609 6.91223 2.5192 6.82601 2.56308 6.75L2.56308 6.75C2.60714 6.67369 2.67057 6.61039 2.74696 6.56648C2.82334 6.52258 2.90998 6.49965 2.99808 6.5L2.99808 6.5H3.00007H5.76007H5.96671L6.11305 6.35412L9.22965 3.24751C9.70611 2.79133 10.3403 2.53663 11.0001 2.53663C11.6598 2.53663 12.294 2.79133 12.7705 3.24751L15.8871 6.35412L16.0334 6.5H16.2401H17.3801H17.7865L17.8695 6.1021L18.5495 2.8421L18.5601 2.79159V2.74174C18.5615 2.73929 18.5629 2.73688 18.5644 2.73449ZM9.95007 3.93293L9.95005 3.93291L9.94652 3.93645L8.23652 5.64645L7.38296 6.5H8.59007H13.4101H14.6172L13.7636 5.64645L12.0536 3.93645L12.0536 3.93643L12.0501 3.93293C11.7697 3.65809 11.3927 3.50414 11.0001 3.50414C10.6074 3.50414 10.2305 3.65809 9.95007 3.93293ZM7.11622 13.1885L7.27726 13.4697L7.59965 13.4375L16.2296 12.5775L16.5974 12.5409L16.6703 12.1785L17.4903 8.09852L17.6106 7.5H17.0001H4.72007H3.8574L4.28622 8.24854L7.11622 13.1885ZM4.16671 20.2472C4.41339 20.412 4.7034 20.5 5.00007 20.5C5.39789 20.5 5.77942 20.342 6.06073 20.0607C6.34203 19.7794 6.50007 19.3978 6.50007 19C6.50007 18.7033 6.41209 18.4133 6.24727 18.1666C6.08245 17.92 5.84818 17.7277 5.57409 17.6142C5.3 17.5006 4.9984 17.4709 4.70743 17.5288C4.41646 17.5867 4.14919 17.7296 3.93941 17.9393C3.72963 18.1491 3.58677 18.4164 3.52889 18.7074C3.47101 18.9983 3.50072 19.2999 3.61425 19.574C3.72778 19.8481 3.92004 20.0824 4.16671 20.2472Z" fill="#111111" stroke="#111111"/>
</svg>
