<svg width="24" height="24" viewBox="0 0 24 24" fill="none" xmlns="http://www.w3.org/2000/svg">
<path d="M12.0015 11.499H12.0016C12.8632 11.4958 13.7169 11.6625 14.514 11.9893C15.3112 12.3161 16.0361 12.7968 16.6475 13.4038L16.6485 13.4048C16.7208 13.4762 16.7697 13.5679 16.7886 13.6678C16.8074 13.7676 16.7954 13.8709 16.7542 13.9637C16.7129 14.0566 16.6443 14.1346 16.5576 14.1875C16.4708 14.2404 16.37 14.2657 16.2685 14.2598L16.2577 14.2592L16.2469 14.259C16.115 14.2572 15.9892 14.2032 15.8969 14.109L15.8969 14.109L15.8938 14.1059C15.3829 13.5937 14.776 13.1873 14.1078 12.91C13.4396 12.6328 12.7232 12.49 11.9998 12.49C11.2764 12.49 10.56 12.6328 9.89182 12.91C9.22396 13.1872 8.61729 13.5933 8.10654 14.1051C8.01294 14.1978 7.88653 14.2498 7.7548 14.2498C7.62321 14.2498 7.49695 14.1979 7.40337 14.1054C7.31089 14.0119 7.259 13.8856 7.259 13.754C7.259 13.6224 7.31091 13.4961 7.40343 13.4025C8.6266 12.1887 10.2783 11.5049 12.0015 11.499ZM5.28646 11.2852L5.28624 11.2854C5.19171 11.38 5.06349 11.4331 4.92979 11.4331C4.7961 11.4331 4.66788 11.38 4.57335 11.2854C4.47881 11.1909 4.4257 11.0627 4.4257 10.929C4.4257 10.8628 4.43874 10.7972 4.46407 10.7361C4.48932 10.6751 4.52628 10.6197 4.57286 10.573C6.54771 8.61121 9.21616 7.50673 11.9998 7.49899C14.7837 7.50673 17.4525 8.61145 19.4274 10.5737L19.4277 10.574C19.4746 10.6205 19.5118 10.6758 19.5371 10.7367C19.5625 10.7976 19.5756 10.863 19.5756 10.929C19.5756 10.995 19.5625 11.0603 19.5371 11.1213C19.5118 11.1822 19.4746 11.2375 19.4277 11.284L19.7798 11.639L19.4277 11.284C19.381 11.3303 19.3256 11.367 19.2646 11.3919C19.2037 11.4168 19.1385 11.4294 19.0727 11.429V11.429L19.0669 11.429C19.0011 11.4294 18.9359 11.4168 18.875 11.3919C18.8142 11.3671 18.759 11.3306 18.7124 11.2845C16.9312 9.5059 14.517 8.5069 11.9998 8.5069C9.48229 8.5069 7.06772 9.50617 5.28646 11.2852ZM22.2561 7.74243L22.2577 7.74399C22.3046 7.79047 22.3418 7.84577 22.3671 7.90669C22.3925 7.96763 22.4056 8.03298 22.4056 8.09899C22.4056 8.16499 22.3925 8.23034 22.3671 8.29128C22.3418 8.3522 22.3046 8.4075 22.2577 8.45399L22.2548 8.45689C22.2083 8.50375 22.153 8.54094 22.0921 8.56633C22.0312 8.59171 21.9658 8.60478 21.8998 8.60478C21.8338 8.60478 21.7684 8.59171 21.7075 8.56633C21.6466 8.54095 21.5913 8.50375 21.5448 8.45688L21.5433 8.45534C19.0117 5.92512 15.579 4.50376 11.9998 4.50376C8.42059 4.50376 4.98787 5.92512 2.45633 8.45534L2.45624 8.45543C2.36171 8.54997 2.23349 8.60308 2.09979 8.60308C1.9661 8.60308 1.83788 8.54997 1.74335 8.45543C1.64881 8.3609 1.5957 8.23268 1.5957 8.09899C1.5957 7.96529 1.64881 7.83707 1.74335 7.74254L1.74346 7.74242C3.09003 6.39499 4.68891 5.3261 6.44874 4.59682C8.20857 3.86755 10.0948 3.49219 11.9998 3.49219C13.9047 3.49219 15.791 3.86755 17.5508 4.59682C19.3107 5.3261 20.9096 6.39499 22.2561 7.74243ZM10.6109 15.9203C11.022 15.6456 11.5053 15.499 11.9998 15.499C12.6628 15.499 13.2987 15.7624 13.7676 16.2312C14.2364 16.7001 14.4998 17.3359 14.4998 17.999C14.4998 18.4934 14.3532 18.9768 14.0785 19.3879C13.8038 19.799 13.4133 20.1195 12.9565 20.3087C12.4997 20.4979 11.997 20.5474 11.5121 20.4509C11.0271 20.3545 10.5817 20.1164 10.232 19.7668C9.8824 19.4171 9.64429 18.9717 9.54783 18.4867C9.45137 18.0018 9.50088 17.4991 9.6901 17.0423C9.87932 16.5855 10.1997 16.195 10.6109 15.9203ZM11.1664 19.2462C11.4131 19.411 11.7031 19.499 11.9998 19.499C12.3976 19.499 12.7792 19.341 13.0605 19.0596C13.3418 18.7783 13.4998 18.3968 13.4998 17.999C13.4998 17.7023 13.4118 17.4123 13.247 17.1656C13.0822 16.919 12.8479 16.7267 12.5738 16.6132C12.2997 16.4996 11.9981 16.4699 11.7072 16.5278C11.4162 16.5857 11.1489 16.7285 10.9391 16.9383C10.7294 17.1481 10.5865 17.4154 10.5286 17.7063C10.4707 17.9973 10.5004 18.2989 10.614 18.573C10.7275 18.8471 10.9198 19.0814 11.1664 19.2462Z" fill="#111111" stroke="#111111"/>
</svg>
