<svg width="24" height="24" viewBox="0 0 24 24" fill="none" xmlns="http://www.w3.org/2000/svg">
<path d="M18.0387 5.49829L18.04 5.4984C18.1656 5.50847 18.2827 5.56557 18.368 5.65827C18.4533 5.75097 18.5004 5.87244 18.5 5.9984V6L18.5 12L18.5 12.0016C18.5004 12.1276 18.4533 12.249 18.368 12.3417C18.2827 12.4344 18.1656 12.4915 18.04 12.5016L18.0387 12.5017L9.95868 13.1717L9.95848 13.1717L6.95848 13.4217L6.5 13.4599V13.92V21C6.5 21.1326 6.44732 21.2598 6.35355 21.3536C6.25979 21.4473 6.13261 21.5 6 21.5C5.86739 21.5 5.74021 21.4473 5.64645 21.3536C5.55268 21.2598 5.5 21.1326 5.5 21V3C5.5 2.86739 5.55268 2.74021 5.64645 2.64645C5.74022 2.55268 5.86739 2.5 6 2.5C6.13261 2.5 6.25979 2.55268 6.35355 2.64645C6.44732 2.74021 6.5 2.86739 6.5 3V4.08V4.54007L6.95848 4.57827L9.95848 4.82827L9.95868 4.82829L18.0387 5.49829ZM9.03987 12.2484L9.5 12.2116V11.75V6.25V5.7884L9.03987 5.75159L7.03987 5.59159L6.5 5.5484V6.09V11.91V12.4516L7.03987 12.4084L9.03987 12.2484ZM13.0423 11.9082L13.5 11.8693V11.41V6.59V6.1307L13.0423 6.0918L11.0423 5.9218L10.5 5.8757V6.42V11.58V12.1243L11.0423 12.0782L13.0423 11.9082ZM17.0423 11.5782L17.5 11.5393V11.08V6.92V6.4607L17.0423 6.4218L15.0423 6.2518L14.5 6.2057V6.75V11.25V11.7943L15.0423 11.7482L17.0423 11.5782Z" fill="#111111" stroke="#111111"/>
</svg>
