<svg width="24" height="24" viewBox="0 0 24 24" fill="none" xmlns="http://www.w3.org/2000/svg">
<path d="M15.3579 15.355L15.355 15.3579C15.3085 15.4048 15.2532 15.442 15.1923 15.4673C15.1314 15.4927 15.066 15.5058 15 15.5058C14.934 15.5058 14.8686 15.4927 14.8077 15.4673C14.7468 15.442 14.6915 15.4048 14.645 15.3579L14.6443 15.3572L12.3543 13.0572L12 12.7013L11.6457 13.0572L9.35568 15.3572L9.355 15.3579C9.30852 15.4048 9.25322 15.442 9.19229 15.4673C9.13136 15.4927 9.06601 15.5058 9 15.5058C8.93399 15.5058 8.86864 15.4927 8.80771 15.4673C8.74678 15.442 8.69148 15.4048 8.645 15.3579L8.6421 15.355C8.59524 15.3085 8.55804 15.2532 8.53266 15.1923C8.50727 15.1314 8.4942 15.066 8.4942 15C8.4942 14.934 8.50727 14.8686 8.53266 14.8077C8.55804 14.7468 8.59524 14.6915 8.6421 14.645L8.64278 14.6443L10.9428 12.3543L11.2987 12L10.9428 11.6457L8.64355 9.35645C8.64343 9.35633 8.64331 9.35621 8.64319 9.35609C8.54888 9.26159 8.49591 9.13352 8.49591 9C8.49591 8.86631 8.54902 8.73809 8.64355 8.64355C8.73809 8.54902 8.86631 8.49591 9 8.49591C9.13352 8.49591 9.26159 8.54888 9.35609 8.64319C9.35621 8.64331 9.35633 8.64343 9.35645 8.64355L11.6457 10.9428L12 11.2987L12.3543 10.9428L14.6436 8.64355C14.6436 8.64349 14.6437 8.64342 14.6438 8.64336C14.7383 8.54894 14.8664 8.49591 15 8.49591C15.1337 8.49591 15.2619 8.54902 15.3564 8.64355C15.451 8.73809 15.5041 8.86631 15.5041 9C15.5041 9.13356 15.4511 9.26166 15.3567 9.35616C15.3566 9.35626 15.3565 9.35635 15.3564 9.35645L13.0572 11.6457L12.7013 12L13.0572 12.3543L15.3572 14.6443L15.3579 14.645C15.4048 14.6915 15.442 14.7468 15.4673 14.8077C15.4927 14.8686 15.5058 14.934 15.5058 15C15.5058 15.066 15.4927 15.1314 15.4673 15.1923C15.442 15.2532 15.4048 15.3085 15.3579 15.355ZM5.52513 18.4749C6.1815 19.1313 7.07174 19.5 8 19.5C8.13261 19.5 8.25979 19.5527 8.35355 19.6464C8.44732 19.7402 8.5 19.8674 8.5 20C8.5 20.1326 8.44732 20.2598 8.35355 20.3536C8.25979 20.4473 8.13261 20.5 8 20.5C6.80653 20.5 5.66193 20.0259 4.81802 19.182C3.97411 18.3381 3.5 17.1935 3.5 16V8C3.5 6.80653 3.97411 5.66193 4.81802 4.81802C5.66193 3.97411 6.80653 3.5 8 3.5C8.13261 3.5 8.25979 3.55268 8.35355 3.64645C8.44732 3.74021 8.5 3.86739 8.5 4C8.5 4.13261 8.44732 4.25978 8.35355 4.35355C8.25978 4.44732 8.13261 4.5 8 4.5C7.07174 4.5 6.1815 4.86875 5.52513 5.52513C4.86875 6.1815 4.5 7.07174 4.5 8V16C4.5 16.9283 4.86875 17.8185 5.52513 18.4749ZM15.6464 3.64645C15.7402 3.55268 15.8674 3.5 16 3.5C17.1935 3.5 18.3381 3.97411 19.182 4.81802C20.0259 5.66193 20.5 6.80653 20.5 8V16C20.5 17.1935 20.0259 18.3381 19.182 19.182C18.3381 20.0259 17.1935 20.5 16 20.5C15.8674 20.5 15.7402 20.4473 15.6464 20.3536C15.5527 20.2598 15.5 20.1326 15.5 20C15.5 19.8674 15.5527 19.7402 15.6464 19.6464C15.7402 19.5527 15.8674 19.5 16 19.5C16.9283 19.5 17.8185 19.1313 18.4749 18.4749C19.1313 17.8185 19.5 16.9283 19.5 16V8C19.5 7.07174 19.1313 6.1815 18.4749 5.52513C17.8185 4.86875 16.9283 4.5 16 4.5C15.8674 4.5 15.7402 4.44732 15.6464 4.35355C15.5527 4.25978 15.5 4.13261 15.5 4C15.5 3.86739 15.5527 3.74021 15.6464 3.64645Z" fill="#111111" stroke="#111111"/>
</svg>
